<svg id="Layer_1" data-name="Layer 1" xmlns="http://www.w3.org/2000/svg" xmlns:xlink="http://www.w3.org/1999/xlink" viewBox="0 0 139.16 133.74"><defs><style>.cls-1{fill:none;}.cls-2{fill:#eaeaea;}.cls-3{fill:url(#_ÂÁ_Ï_ÌÌ_È_ËÂÌÚ_6);}.cls-4{fill:url(#_ÂÁ_Ï_ÌÌ_È_ËÂÌÚ_7);}.cls-5{fill:url(#_ÂÁ_Ï_ÌÌ_È_ËÂÌÚ_6-2);}.cls-6{fill:#fff;}.cls-7{fill:url(#_ÂÁ_Ï_ÌÌ_È_ËÂÌÚ_6-3);}.cls-8{fill:url(#_ÂÁ_Ï_ÌÌ_È_ËÂÌÚ_5);}.cls-11,.cls-9{opacity:0.5;}.cls-10,.cls-11{fill:#161616;}.cls-12{fill:url(#_ÂÁ_Ï_ÌÌ_È_ËÂÌÚ_4);}.cls-13{fill:url(#_ÂÁ_Ï_ÌÌ_È_ËÂÌÚ_4-2);}.cls-14{fill:url(#_ÂÁ_Ï_ÌÌ_È_ËÂÌÚ_2);}.cls-15{fill:#0a0a0a;opacity:0.4;}.cls-16{fill:url(#_ÂÁ_Ï_ÌÌ_È_ËÂÌÚ_4-3);}.cls-17{fill:url(#_ÂÁ_Ï_ÌÌ_È_ËÂÌÚ_3);}.cls-18{fill:url(#_ÂÁ_Ï_ÌÌ_È_ËÂÌÚ_3-2);}.cls-19{fill:url(#_ÂÁ_Ï_ÌÌ_È_ËÂÌÚ_2-2);}.cls-20{clip-path:url(#clip-path);}.cls-21{fill:url(#_ÂÁ_Ï_ÌÌ_È_ËÂÌÚ_3-3);}.cls-22{fill:#d8d8d8;}.cls-23{fill:url(#_ÂÁ_Ï_ÌÌ_È_ËÂÌÚ_2-3);}.cls-24{fill:url(#_ÂÁ_Ï_ÌÌ_È_ËÂÌÚ_2-4);}</style><linearGradient id="_ÂÁ_Ï_ÌÌ_È_ËÂÌÚ_6" x1="-472.16" y1="49.2" x2="-382.91" y2="49.2" gradientTransform="translate(522.91)" gradientUnits="userSpaceOnUse"><stop offset="0" stop-color="#585858"/><stop offset="1" stop-color="#919191"/></linearGradient><linearGradient id="_ÂÁ_Ï_ÌÌ_È_ËÂÌÚ_7" x1="-454.65" y1="93.19" x2="-404.53" y2="93.19" gradientTransform="translate(522.91)" gradientUnits="userSpaceOnUse"><stop offset="0" stop-color="#919191"/><stop offset="0.32" stop-color="#595959"/><stop offset="1" stop-color="#585858"/></linearGradient><linearGradient id="_ÂÁ_Ï_ÌÌ_È_ËÂÌÚ_6-2" x1="-397.92" y1="87.69" x2="-493.42" y2="92.79" xlink:href="#_ÂÁ_Ï_ÌÌ_È_ËÂÌÚ_6"/><linearGradient id="_ÂÁ_Ï_ÌÌ_È_ËÂÌÚ_6-3" x1="-382.56" y1="48.32" x2="-471.78" y2="50.52" xlink:href="#_ÂÁ_Ï_ÌÌ_È_ËÂÌÚ_6"/><radialGradient id="_ÂÁ_Ï_ÌÌ_È_ËÂÌÚ_5" cx="50.61" cy="6.98" r="122.3" gradientUnits="userSpaceOnUse"><stop offset="0" stop-color="#ececec"/><stop offset="0.23" stop-color="#e2e2e2"/><stop offset="0.37" stop-color="#dadada"/><stop offset="0.68" stop-color="#c2c2c2"/><stop offset="1" stop-color="#a6a6a6"/></radialGradient><radialGradient id="_ÂÁ_Ï_ÌÌ_È_ËÂÌÚ_4" cx="64.58" cy="85.51" r="26.67" gradientUnits="userSpaceOnUse"><stop offset="0" stop-color="#919191"/><stop offset="0.66" stop-color="#4e4e4e"/><stop offset="1" stop-color="#303030"/></radialGradient><radialGradient id="_ÂÁ_Ï_ÌÌ_È_ËÂÌÚ_4-2" cx="52.16" cy="67.52" r="27.43" xlink:href="#_ÂÁ_Ï_ÌÌ_È_ËÂÌÚ_4"/><radialGradient id="_ÂÁ_Ï_ÌÌ_È_ËÂÌÚ_2" cx="77.81" cy="43.05" r="12.95" gradientUnits="userSpaceOnUse"><stop offset="0" stop-color="#919191"/><stop offset="1" stop-color="#585858"/></radialGradient><radialGradient id="_ÂÁ_Ï_ÌÌ_È_ËÂÌÚ_4-3" cx="40.98" cy="25.94" r="48.34" xlink:href="#_ÂÁ_Ï_ÌÌ_È_ËÂÌÚ_4"/><radialGradient id="_ÂÁ_Ï_ÌÌ_È_ËÂÌÚ_3" cx="29.56" cy="37.23" r="41.81" gradientUnits="userSpaceOnUse"><stop offset="0" stop-color="#919191"/><stop offset="0.25" stop-color="#8e8e8e"/><stop offset="0.44" stop-color="#848484"/><stop offset="0.62" stop-color="#747474"/><stop offset="0.78" stop-color="#5c5c5c"/><stop offset="0.94" stop-color="#3f3f3f"/><stop offset="1" stop-color="#303030"/></radialGradient><radialGradient id="_ÂÁ_Ï_ÌÌ_È_ËÂÌÚ_3-2" cx="1.46" cy="34.12" r="77.93" gradientTransform="translate(36.86 -11.14) rotate(30)" xlink:href="#_ÂÁ_Ï_ÌÌ_È_ËÂÌÚ_3"/><radialGradient id="_ÂÁ_Ï_ÌÌ_È_ËÂÌÚ_2-2" cx="36.43" cy="82.02" r="35.41" gradientTransform="translate(36.86 -11.14) rotate(30)" xlink:href="#_ÂÁ_Ï_ÌÌ_È_ËÂÌÚ_2"/><clipPath id="clip-path" transform="translate(-0.84 -1)"><ellipse class="cls-1" cx="39.22" cy="63.21" rx="13.49" ry="23.37" transform="translate(-26.35 28.08) rotate(-30)"/></clipPath><radialGradient id="_ÂÁ_Ï_ÌÌ_È_ËÂÌÚ_3-3" cx="33.12" cy="60.35" r="17.67" gradientTransform="translate(36.86 -11.14) rotate(30)" xlink:href="#_ÂÁ_Ï_ÌÌ_È_ËÂÌÚ_3"/><radialGradient id="_ÂÁ_Ï_ÌÌ_È_ËÂÌÚ_2-3" cx="102.8" cy="49.67" r="5.32" gradientTransform="translate(-35.51 27.11) rotate(-1.81)" xlink:href="#_ÂÁ_Ï_ÌÌ_È_ËÂÌÚ_2"/><radialGradient id="_ÂÁ_Ï_ÌÌ_È_ËÂÌÚ_2-4" cx="105.62" cy="49.67" r="6.64" gradientTransform="translate(-35.51 27.11) rotate(-1.81)" xlink:href="#_ÂÁ_Ï_ÌÌ_È_ËÂÌÚ_2"/></defs><path class="cls-2" d="M75.35,134.36,8,95.46c-1-.57-.86-1.56.27-2.22l43.25-25a4.26,4.26,0,0,1,3.83-.15L122.7,107c1,.57.86,1.56-.27,2.21l-43.25,25A4.26,4.26,0,0,1,75.35,134.36Z" transform="translate(-0.84 -1)"/><path class="cls-3" d="M138.61,41.32l-69.37-40a1.76,1.76,0,0,0-1.41-.2h0l-1.29.45.46.1a2.35,2.35,0,0,0-.43.8L50.88,53.35a3.06,3.06,0,0,0,1.27,3.42l69.36,40A1.84,1.84,0,0,0,122,97l-.17.37,1.23-.43h0a2,2,0,0,0,1.11-1.29l15.69-50.94A3.06,3.06,0,0,0,138.61,41.32Z" transform="translate(-0.84 -1)"/><path class="cls-4" d="M119,98.72l0,0L50.54,59.2a4.35,4.35,0,0,0-3.93.16L2.34,84.92.87,84.35l.41,2.07h0a1.23,1.23,0,0,0,.67.83l69.14,39.92A4.37,4.37,0,0,0,75,127l44.38-25.62a1.81,1.81,0,0,0,.94-1.1h0l.42-2Z" transform="translate(-0.84 -1)"/><path class="cls-5" d="M71.17,125.35,1.53,85.15c-1-.59-.89-1.61.28-2.29l44.7-25.8a4.41,4.41,0,0,1,4-.17L120.11,97.1c1,.58.88,1.61-.29,2.28L75.13,125.19A4.41,4.41,0,0,1,71.17,125.35Z" transform="translate(-0.84 -1)"/><path class="cls-6" d="M1.53,84l69.64,40.2a4.38,4.38,0,0,0,4-.16l44.69-25.81a2.11,2.11,0,0,0,.77-.69c.42.58.16,1.33-.77,1.86L75.13,125.19a4.41,4.41,0,0,1-4,.16L1.53,85.15a1.06,1.06,0,0,1-.48-1.6A1.46,1.46,0,0,0,1.53,84Z" transform="translate(-0.84 -1)"/><path class="cls-7" d="M120.33,97.24,51,57.19a3.1,3.1,0,0,1-1.28-3.43L65.38,2.83a1.79,1.79,0,0,1,2.68-1.15l69.36,40.05a3.08,3.08,0,0,1,1.28,3.43L123,96.09A1.79,1.79,0,0,1,120.33,97.24Z" transform="translate(-0.84 -1)"/><path class="cls-8" d="M119.68,95.45,52.4,56.58a2.94,2.94,0,0,1-1.22-3.28l15-48.69a1.7,1.7,0,0,1,2.56-1.1L136,42.38a3,3,0,0,1,1.22,3.28l-15,48.69A1.7,1.7,0,0,1,119.68,95.45Z" transform="translate(-0.84 -1)"/><g class="cls-9"><path class="cls-10" d="M36.26,77.77,34,76.44c-.18-.1-.16-.29,0-.41l2.72-1.57a.8.8,0,0,1,.72,0l2.3,1.33c.19.11.17.29,0,.42L37,77.74A.77.77,0,0,1,36.26,77.77Z" transform="translate(-0.84 -1)"/><path class="cls-10" d="M39.82,79.83l-2.3-1.33c-.19-.11-.17-.3,0-.42l2.72-1.57a.83.83,0,0,1,.72,0l2.3,1.33c.19.11.16.3-.05.42L40.54,79.8A.83.83,0,0,1,39.82,79.83Z" transform="translate(-0.84 -1)"/><path class="cls-10" d="M43.38,81.88l-2.31-1.33c-.18-.11-.16-.29,0-.42l2.72-1.56a.77.77,0,0,1,.72,0l2.31,1.33c.18.1.16.29,0,.41L44.1,81.85A.8.8,0,0,1,43.38,81.88Z" transform="translate(-0.84 -1)"/><path class="cls-10" d="M48.3,80.19,46,78.86c-.18-.11-.16-.3,0-.42l2.29-1.32a.83.83,0,0,1,.72,0l2.3,1.33c.19.11.16.29-.05.42L49,80.16A.83.83,0,0,1,48.3,80.19Z" transform="translate(-0.84 -1)"/><path class="cls-10" d="M51.85,82.24l-2.3-1.33c-.19-.11-.16-.29.05-.42l2.28-1.31a.77.77,0,0,1,.72,0l2.31,1.32c.18.11.16.3,0,.42l-2.29,1.32A.8.8,0,0,1,51.85,82.24Z" transform="translate(-0.84 -1)"/><path class="cls-10" d="M55.41,84.29,53.11,83c-.19-.1-.17-.29,0-.41l2.28-1.32a.8.8,0,0,1,.72,0l2.3,1.33c.19.11.17.29-.05.41l-2.28,1.32A.77.77,0,0,1,55.41,84.29Z" transform="translate(-0.84 -1)"/><path class="cls-10" d="M59,86.35,56.66,85c-.18-.11-.16-.3.05-.42L59,83.28a.83.83,0,0,1,.72,0L62,84.58c.19.11.16.29-.05.42l-2.28,1.32A.83.83,0,0,1,59,86.35Z" transform="translate(-0.84 -1)"/><path class="cls-10" d="M62.52,88.4l-2.3-1.33c-.19-.11-.16-.29.05-.42l2.28-1.31a.77.77,0,0,1,.72,0l2.31,1.33c.18.1.16.29,0,.41l-2.29,1.32A.8.8,0,0,1,62.52,88.4Z" transform="translate(-0.84 -1)"/><path class="cls-10" d="M66.08,90.45l-2.3-1.33c-.19-.1-.17-.29,0-.41l2.28-1.32a.8.8,0,0,1,.72,0l2.3,1.33c.19.11.17.29,0,.42L66.8,90.42A.77.77,0,0,1,66.08,90.45Z" transform="translate(-0.84 -1)"/><path class="cls-10" d="M69.63,92.51l-2.3-1.33c-.18-.11-.16-.3,0-.42l2.29-1.32a.83.83,0,0,1,.72,0l2.3,1.33c.18.11.16.3,0,.42l-2.28,1.32A.85.85,0,0,1,69.63,92.51Z" transform="translate(-0.84 -1)"/><path class="cls-10" d="M73.19,94.56l-2.3-1.33c-.19-.11-.16-.29,0-.42l2.28-1.31a.77.77,0,0,1,.72,0l2.31,1.33c.18.1.16.29-.06.41l-2.28,1.32A.8.8,0,0,1,73.19,94.56Z" transform="translate(-0.84 -1)"/><path class="cls-10" d="M76.75,96.61l-2.3-1.33c-.19-.1-.17-.29,0-.41l2.28-1.32a.8.8,0,0,1,.72,0l2.3,1.33c.19.11.16.29,0,.42l-2.28,1.31A.77.77,0,0,1,76.75,96.61Z" transform="translate(-0.84 -1)"/><path class="cls-10" d="M80.3,98.67,78,97.34c-.18-.11-.16-.3,0-.42l2.29-1.32a.83.83,0,0,1,.72,0l2.3,1.33c.18.11.16.3,0,.42L81,98.64A.85.85,0,0,1,80.3,98.67Z" transform="translate(-0.84 -1)"/><path class="cls-10" d="M53.54,79.21l-2.31-1.33c-.18-.1-.16-.29.05-.41l2.29-1.32a.8.8,0,0,1,.72,0l2.3,1.33c.19.11.16.29-.05.42l-2.28,1.31A.77.77,0,0,1,53.54,79.21Z" transform="translate(-0.84 -1)"/><path class="cls-10" d="M49.93,77.13,47.62,75.8c-.18-.11-.16-.29.05-.42L50,74.07a.77.77,0,0,1,.72,0L53,75.37c.19.1.16.29,0,.41L50.65,77.1A.8.8,0,0,1,49.93,77.13Z" transform="translate(-0.84 -1)"/><path class="cls-10" d="M46.31,75l-5-2.86c-.18-.11-.16-.3,0-.42l2.28-1.32a.85.85,0,0,1,.73,0l5,2.87c.18.1.16.29-.06.41L47,75A.77.77,0,0,1,46.31,75Z" transform="translate(-0.84 -1)"/><path class="cls-10" d="M48.84,72.5l-4-2.32c-.18-.11-.16-.29,0-.42l2.29-1.31a.77.77,0,0,1,.72,0l4,2.32c.19.11.16.29,0,.42l-2.28,1.31A.77.77,0,0,1,48.84,72.5Z" transform="translate(-0.84 -1)"/><path class="cls-10" d="M57.09,81.27l-2.3-1.33c-.19-.11-.16-.3.05-.42l2.28-1.32a.83.83,0,0,1,.72,0l2.31,1.33c.18.11.16.3,0,.42l-2.29,1.32A.83.83,0,0,1,57.09,81.27Z" transform="translate(-0.84 -1)"/><path class="cls-10" d="M60.65,83.32,58.35,82c-.19-.11-.17-.29,0-.42l2.28-1.31a.77.77,0,0,1,.72,0l2.3,1.33c.19.1.17.29-.05.41l-2.28,1.32A.8.8,0,0,1,60.65,83.32Z" transform="translate(-0.84 -1)"/><path class="cls-10" d="M64.21,85.37,61.9,84c-.18-.1-.16-.29.05-.41l2.29-1.32a.8.8,0,0,1,.72,0l2.3,1.33c.19.11.16.29-.05.42l-2.28,1.31A.77.77,0,0,1,64.21,85.37Z" transform="translate(-0.84 -1)"/><path class="cls-10" d="M67.76,87.43l-2.3-1.33c-.19-.11-.16-.3.05-.42l2.28-1.32a.83.83,0,0,1,.72,0l2.31,1.33c.18.11.16.3,0,.42L68.48,87.4A.83.83,0,0,1,67.76,87.43Z" transform="translate(-0.84 -1)"/><path class="cls-10" d="M71.32,89.48,69,88.15c-.19-.11-.17-.29,0-.42l2.28-1.31a.77.77,0,0,1,.72,0l2.3,1.33c.19.1.17.29-.05.41L72,89.45A.8.8,0,0,1,71.32,89.48Z" transform="translate(-0.84 -1)"/><path class="cls-10" d="M74.88,91.53,72.57,90.2c-.18-.1-.16-.29.05-.41l2.29-1.32a.8.8,0,0,1,.72,0l2.3,1.33c.19.11.16.29-.05.42L75.6,91.5A.77.77,0,0,1,74.88,91.53Z" transform="translate(-0.84 -1)"/><path class="cls-10" d="M78.43,93.59l-2.3-1.33c-.19-.11-.16-.3.05-.42l2.28-1.32a.83.83,0,0,1,.72,0l2.31,1.33c.18.11.16.3,0,.42l-2.29,1.32A.83.83,0,0,1,78.43,93.59Z" transform="translate(-0.84 -1)"/><path class="cls-10" d="M82,95.64l-2.3-1.33c-.19-.11-.17-.29,0-.42L82,92.58a.77.77,0,0,1,.72,0L85,93.88c.19.1.17.29-.05.41l-2.28,1.32A.8.8,0,0,1,82,95.64Z" transform="translate(-0.84 -1)"/><path class="cls-10" d="M85.55,97.69l-2.31-1.33c-.18-.1-.16-.29.05-.41l2.29-1.32a.8.8,0,0,1,.72,0l2.3,1.33c.19.11.16.29,0,.42l-2.28,1.31A.77.77,0,0,1,85.55,97.69Z" transform="translate(-0.84 -1)"/><path class="cls-10" d="M91.87,101.34l-5-2.9c-.18-.1-.16-.29,0-.41l2.29-1.32a.8.8,0,0,1,.72,0l5,2.9c.19.11.16.29,0,.42l-2.28,1.31A.77.77,0,0,1,91.87,101.34Z" transform="translate(-0.84 -1)"/><path class="cls-10" d="M98.79,97.35,94.55,94.9c-.18-.11-.16-.3,0-.42l2.28-1.32a.85.85,0,0,1,.73,0l4.24,2.45c.18.11.16.3,0,.42l-2.29,1.32A.83.83,0,0,1,98.79,97.35Z" transform="translate(-0.84 -1)"/><path class="cls-10" d="M63.32,80.86,61,79.54c-.19-.11-.16-.3,0-.42l2.28-1.32a.8.8,0,0,1,.72,0l2.31,1.33c.18.11.16.29-.06.42L64,80.83A.77.77,0,0,1,63.32,80.86Z" transform="translate(-0.84 -1)"/><path class="cls-10" d="M59.68,78.76l-2.31-1.33c-.18-.11-.16-.29.05-.42l2.29-1.31a.77.77,0,0,1,.72,0L62.73,77c.19.1.16.29,0,.41L60.4,78.73A.8.8,0,0,1,59.68,78.76Z" transform="translate(-0.84 -1)"/><path class="cls-10" d="M56,76.66l-2.3-1.33c-.19-.11-.16-.3.05-.42l2.28-1.32a.83.83,0,0,1,.72,0l2.31,1.33c.18.11.16.3-.06.42l-2.28,1.32A.83.83,0,0,1,56,76.66Z" transform="translate(-0.84 -1)"/><path class="cls-10" d="M52.39,74.55l-2.31-1.33c-.18-.11-.16-.29.05-.41l2.29-1.32a.77.77,0,0,1,.72,0l2.3,1.33c.19.1.16.29,0,.41l-2.28,1.32A.8.8,0,0,1,52.39,74.55Z" transform="translate(-0.84 -1)"/><path class="cls-10" d="M66.88,82.92l-2.31-1.33c-.18-.11-.16-.29.06-.42l2.28-1.32a.83.83,0,0,1,.72,0l2.3,1.33c.19.11.16.3-.05.42L67.6,82.89A.8.8,0,0,1,66.88,82.92Z" transform="translate(-0.84 -1)"/><path class="cls-10" d="M70.43,85l-2.3-1.33c-.18-.1-.16-.29.05-.41l2.28-1.32a.79.79,0,0,1,.73,0l2.3,1.33c.18.1.16.29,0,.41l-2.28,1.32A.79.79,0,0,1,70.43,85Z" transform="translate(-0.84 -1)"/><path class="cls-10" d="M74,87l-2.3-1.33c-.19-.11-.16-.3,0-.42L74,84a.8.8,0,0,1,.72,0l2.31,1.33c.18.11.16.29-.06.42L74.71,87A.83.83,0,0,1,74,87Z" transform="translate(-0.84 -1)"/><path class="cls-10" d="M77.55,89.08l-2.31-1.33c-.18-.11-.16-.29.06-.42L77.58,86a.83.83,0,0,1,.72,0l2.3,1.33c.19.11.16.3,0,.42l-2.28,1.32A.8.8,0,0,1,77.55,89.08Z" transform="translate(-0.84 -1)"/><path class="cls-10" d="M81.1,91.13,78.8,89.8c-.18-.1-.16-.29,0-.41l2.28-1.32a.79.79,0,0,1,.73,0l2.3,1.33c.18.1.16.29,0,.41L81.83,91.1A.79.79,0,0,1,81.1,91.13Z" transform="translate(-0.84 -1)"/><path class="cls-10" d="M84.66,93.19l-2.3-1.33c-.19-.11-.16-.3,0-.42l2.28-1.32a.8.8,0,0,1,.72,0l2.31,1.33c.18.11.16.29-.06.42l-2.28,1.32A.83.83,0,0,1,84.66,93.19Z" transform="translate(-0.84 -1)"/><path class="cls-10" d="M88.22,95.24l-2.31-1.33c-.18-.11-.16-.29.06-.42l2.28-1.31a.77.77,0,0,1,.72,0l2.3,1.32c.19.11.16.3,0,.42l-2.28,1.32A.8.8,0,0,1,88.22,95.24Z" transform="translate(-0.84 -1)"/><path class="cls-10" d="M91.77,97.29,89.47,96c-.18-.1-.16-.29,0-.41l2.28-1.32a.82.82,0,0,1,.73,0l2.3,1.33c.18.1.16.29,0,.41l-2.29,1.32A.77.77,0,0,1,91.77,97.29Z" transform="translate(-0.84 -1)"/><path class="cls-10" d="M95.33,99.35,93,98c-.19-.11-.16-.3,0-.42l2.28-1.32a.83.83,0,0,1,.72,0l2.31,1.33c.18.11.16.29-.06.42l-2.28,1.32A.83.83,0,0,1,95.33,99.35Z" transform="translate(-0.84 -1)"/><path class="cls-10" d="M61.45,75.79l-2.31-1.33c-.18-.11-.16-.3.06-.42l2.28-1.32a.83.83,0,0,1,.72,0L64.5,74c.19.11.16.3,0,.42l-2.28,1.32A.83.83,0,0,1,61.45,75.79Z" transform="translate(-0.84 -1)"/><path class="cls-10" d="M57.91,73.74l-2.3-1.33c-.19-.1-.17-.29,0-.41l2.28-1.32a.8.8,0,0,1,.72,0L61,72c.19.11.17.29-.05.42l-2.28,1.31A.77.77,0,0,1,57.91,73.74Z" transform="translate(-0.84 -1)"/><path class="cls-10" d="M54.37,71.7l-2.3-1.33c-.19-.11-.16-.29,0-.42l2.28-1.31a.77.77,0,0,1,.72,0l2.31,1.33c.18.1.16.29-.06.41l-2.28,1.32A.8.8,0,0,1,54.37,71.7Z" transform="translate(-0.84 -1)"/><path class="cls-10" d="M50.83,69.66l-2.3-1.33c-.19-.11-.16-.3,0-.42l2.28-1.32a.83.83,0,0,1,.72,0l2.31,1.33c.18.11.16.3-.06.42l-2.28,1.32A.83.83,0,0,1,50.83,69.66Z" transform="translate(-0.84 -1)"/><path class="cls-10" d="M54.47,67.56l-2.3-1.33c-.19-.11-.16-.3,0-.42l.75-.44a.83.83,0,0,1,.72,0L56,66.67c.18.11.16.3,0,.42l-.76.44A.83.83,0,0,1,54.47,67.56Z" transform="translate(-0.84 -1)"/><path class="cls-10" d="M59.09,70.22l-2.3-1.33c-.19-.1-.17-.29.05-.41l.75-.44a.8.8,0,0,1,.72,0l2.31,1.33c.18.11.16.29-.06.42l-.75.43A.77.77,0,0,1,59.09,70.22Z" transform="translate(-0.84 -1)"/><path class="cls-10" d="M62.61,72.26l-2.3-1.33c-.19-.11-.16-.3,0-.42l.76-.44a.83.83,0,0,1,.72,0l2.3,1.33c.19.11.16.3,0,.42l-.76.44A.83.83,0,0,1,62.61,72.26Z" transform="translate(-0.84 -1)"/><path class="cls-10" d="M66.14,74.29,63.83,73c-.18-.11-.16-.29.06-.42l.75-.43a.8.8,0,0,1,.72,0l2.3,1.33c.19.11.17.29,0,.42l-.75.43A.8.8,0,0,1,66.14,74.29Z" transform="translate(-0.84 -1)"/><path class="cls-10" d="M69.66,76.33,67.36,75c-.19-.11-.16-.3,0-.42l.75-.44a.85.85,0,0,1,.73,0l2.3,1.33c.18.11.16.3,0,.42l-.76.44A.83.83,0,0,1,69.66,76.33Z" transform="translate(-0.84 -1)"/><path class="cls-10" d="M89.34,87.68,87,86.36c-.18-.11-.16-.3,0-.42l.76-.44a.83.83,0,0,1,.72,0l2.3,1.33c.19.11.17.3,0,.42l-.75.44A.8.8,0,0,1,89.34,87.68Z" transform="translate(-0.84 -1)"/><path class="cls-10" d="M92.86,89.72l-2.3-1.33c-.19-.11-.16-.29,0-.42l.75-.43a.77.77,0,0,1,.72,0l2.31,1.33c.18.1.16.29,0,.41l-.76.44A.8.8,0,0,1,92.86,89.72Z" transform="translate(-0.84 -1)"/><path class="cls-10" d="M96.38,91.75l-2.3-1.33c-.18-.1-.16-.29,0-.41l.76-.44a.83.83,0,0,1,.72,0l2.3,1.33c.19.11.16.3,0,.42l-.75.43A.79.79,0,0,1,96.38,91.75Z" transform="translate(-0.84 -1)"/><path class="cls-10" d="M99.91,93.79l-2.3-1.33c-.19-.11-.17-.29,0-.42l.75-.43a.77.77,0,0,1,.72,0l2.31,1.33c.18.1.16.29-.06.41l-.75.44A.8.8,0,0,1,99.91,93.79Z" transform="translate(-0.84 -1)"/><path class="cls-10" d="M65,77.84l-2.3-1.33c-.18-.11-.16-.29,0-.42L65,74.78a.77.77,0,0,1,.72,0l2.3,1.33c.18.1.16.29,0,.41l-2.28,1.32A.82.82,0,0,1,65,77.84Z" transform="translate(-0.84 -1)"/><path class="cls-10" d="M68.56,79.89l-2.3-1.33c-.19-.1-.16-.29,0-.41l2.28-1.32a.8.8,0,0,1,.72,0l2.31,1.33c.18.11.16.29-.06.42l-2.28,1.31A.77.77,0,0,1,68.56,79.89Z" transform="translate(-0.84 -1)"/><path class="cls-10" d="M72.12,82l-2.31-1.33c-.18-.11-.16-.3.06-.42l2.28-1.32a.83.83,0,0,1,.72,0l2.3,1.33c.19.11.16.3,0,.42l-2.28,1.32A.83.83,0,0,1,72.12,82Z" transform="translate(-0.84 -1)"/><path class="cls-10" d="M75.67,84l-2.3-1.33c-.18-.11-.16-.29,0-.42l2.28-1.31a.79.79,0,0,1,.73,0l2.3,1.33c.18.1.16.29,0,.41L76.4,84A.82.82,0,0,1,75.67,84Z" transform="translate(-0.84 -1)"/><path class="cls-10" d="M79.23,86.05l-2.3-1.33c-.19-.1-.16-.29,0-.41L79.26,83A.8.8,0,0,1,80,83l2.31,1.33c.18.11.16.29-.06.42L80,86A.77.77,0,0,1,79.23,86.05Z" transform="translate(-0.84 -1)"/><path class="cls-10" d="M82.79,88.11l-2.31-1.33c-.18-.11-.16-.3.06-.42L82.82,85a.83.83,0,0,1,.72,0l2.3,1.33c.19.11.16.3,0,.42l-2.28,1.32A.83.83,0,0,1,82.79,88.11Z" transform="translate(-0.84 -1)"/><path class="cls-10" d="M86.34,90.16,84,88.83c-.18-.11-.16-.29,0-.42l2.28-1.31a.79.79,0,0,1,.73,0l2.3,1.33c.18.1.16.29-.05.41l-2.28,1.32A.82.82,0,0,1,86.34,90.16Z" transform="translate(-0.84 -1)"/><path class="cls-10" d="M89.9,92.21l-2.3-1.33c-.19-.1-.16-.29.05-.41l2.28-1.32a.8.8,0,0,1,.72,0L93,90.45c.18.11.16.29-.06.42l-2.28,1.31A.77.77,0,0,1,89.9,92.21Z" transform="translate(-0.84 -1)"/><path class="cls-10" d="M93.46,94.27l-2.31-1.33c-.18-.11-.16-.3.06-.42l2.28-1.32a.83.83,0,0,1,.72,0l2.3,1.33c.19.11.16.3-.05.42l-2.28,1.32A.83.83,0,0,1,93.46,94.27Z" transform="translate(-0.84 -1)"/><path class="cls-10" d="M44.67,78.09l-6.78-3.91c-.19-.11-.16-.3,0-.42l2.28-1.32a.83.83,0,0,1,.72,0l6.79,3.92c.18.11.16.29-.06.42l-2.28,1.31A.77.77,0,0,1,44.67,78.09Z" transform="translate(-0.84 -1)"/><path class="cls-10" d="M88.36,103.32,81.58,99.4c-.18-.1-.16-.29,0-.41l2.29-1.32a.8.8,0,0,1,.72,0l6.78,3.92c.18.1.16.29,0,.41l-2.28,1.32A.82.82,0,0,1,88.36,103.32Z" transform="translate(-0.84 -1)"/><path class="cls-10" d="M74.14,99.64l-2.3-1.33c-.19-.1-.16-.29,0-.41l2.72-1.57a.77.77,0,0,1,.72,0l2.3,1.33c.19.1.16.29,0,.41l-2.72,1.57A.77.77,0,0,1,74.14,99.64Z" transform="translate(-0.84 -1)"/><path class="cls-10" d="M48.31,84.73,44.63,82.6c-.19-.1-.16-.29,0-.41l2.72-1.57a.8.8,0,0,1,.72,0l3.68,2.13c.19.1.17.29,0,.41L49,84.7A.8.8,0,0,1,48.31,84.73Z" transform="translate(-0.84 -1)"/><path class="cls-10" d="M70.71,97.66,67,95.54c-.18-.11-.16-.29,0-.42l2.72-1.57a.83.83,0,0,1,.72,0l3.69,2.13c.18.11.16.29-.06.42l-2.71,1.56A.79.79,0,0,1,70.71,97.66Z" transform="translate(-0.84 -1)"/><path class="cls-10" d="M53.44,87.69l-3.68-2.12c-.18-.11-.16-.3.05-.42l2.72-1.57a.8.8,0,0,1,.72,0l3.69,2.13c.18.1.16.29-.06.41l-2.71,1.57A.79.79,0,0,1,53.44,87.69Z" transform="translate(-0.84 -1)"/><path class="cls-10" d="M53.28,83.57l16,9.24c.2.12.2.3,0,.42l-2.77,1.6a.83.83,0,0,1-.72,0l-16-9.25Z" transform="translate(-0.84 -1)"/><path class="cls-10" d="M84.08,103.37l2.57,1.48c.15.09.13.24-.05.34l-1.11.64a.68.68,0,0,1-.59,0l-2.56-1.49c-.16-.08-.14-.24,0-.34l1.11-.64A.65.65,0,0,1,84.08,103.37Z" transform="translate(-0.84 -1)"/><path class="cls-10" d="M80.5,101.3l2.56,1.48c.15.08.13.24,0,.34l-1.11.64a.67.67,0,0,1-.6,0l-2.56-1.48c-.15-.08-.13-.24,0-.34l1.11-.64A.67.67,0,0,1,80.5,101.3Z" transform="translate(-0.84 -1)"/><path class="cls-10" d="M76.94,99.24l2.56,1.48c.16.09.14.24,0,.35l-1.11.64a.65.65,0,0,1-.59,0l-2.57-1.48c-.15-.09-.13-.24,0-.34l1.11-.64A.68.68,0,0,1,76.94,99.24Z" transform="translate(-0.84 -1)"/><path class="cls-10" d="M82.46,100.16,85,101.64c.16.09.14.24,0,.34l-1.11.65a.65.65,0,0,1-.59,0l-2.57-1.48c-.15-.09-.13-.24.05-.34l1.11-.64A.65.65,0,0,1,82.46,100.16Z" transform="translate(-0.84 -1)"/></g><path class="cls-11" d="M53.62,107.19A3.25,3.25,0,0,1,52,106.8L34.12,96.48a1.23,1.23,0,0,1-.72-1.06,1.64,1.64,0,0,1,1-1.33l9.2-5.31a4,4,0,0,1,3.71-.15L65.16,99a1.25,1.25,0,0,1,.71,1.07,1.66,1.66,0,0,1-1,1.33l-9.2,5.31A4.3,4.3,0,0,1,53.62,107.19Zm-1.41-.76a3.64,3.64,0,0,0,3.28-.15l9.2-5.31a1.23,1.23,0,0,0,.75-1,.84.84,0,0,0-.5-.69L47.07,89a3.66,3.66,0,0,0-3.29.14l-9.2,5.31c-.47.28-.75.63-.75,1a.85.85,0,0,0,.5.69Z" transform="translate(-0.84 -1)"/><path class="cls-11" d="M109,90.66l-4.12-.18a9.8,9.8,0,0,0-6-1.33l-1.52-.92h0L84.4,80.39,84,80.12l-.34-.19a11.75,11.75,0,0,0-3.05-1l-.48-.08a10.94,10.94,0,0,0-3.21-.08c-1,.16-1.65.5-1.81.94h0l-.93,2.07h0c-.41.5-.11,1.17,1,1.82L83,88.39l2.27,1.42A111.84,111.84,0,0,1,68,88.29a18.59,18.59,0,0,0-4.23-.76l-.21,0v0a15.38,15.38,0,0,0-2.9.13h0l-.11,0h-.05l-3,.46h0a10.37,10.37,0,0,0-8.15,5.76c-3,6.46,1.21,15.53,9.4,20.26a18.91,18.91,0,0,0,11.79,2.67h0l.2,0,.18,0,.54-.08.23,0h0l2.19-.33h0a11.18,11.18,0,0,0,6.12-2.9,83.31,83.31,0,0,1,25.81-9.35l.23,0h.08a5.3,5.3,0,0,0,3.75-2.91c.05-.09.08-.18.12-.27l6.6-2.59h0A2.58,2.58,0,0,0,118.26,96Z" transform="translate(-0.84 -1)"/><path class="cls-6" d="M87.38,27.33,83.17,24.9a1.1,1.1,0,0,1-.47-1.21h0a.62.62,0,0,1,1-.39l4.21,2.43a1.09,1.09,0,0,1,.46,1.21h0A.62.62,0,0,1,87.38,27.33Z" transform="translate(-0.84 -1)"/><path class="cls-6" d="M97.41,33.12,91.2,29.54a1.11,1.11,0,0,1-.47-1.21h0a.62.62,0,0,1,1-.39l6.2,3.58a1.11,1.11,0,0,1,.47,1.21h0A.62.62,0,0,1,97.41,33.12Z" transform="translate(-0.84 -1)"/><path class="cls-6" d="M78.89,46.08l-4.21-2.43a1.11,1.11,0,0,1-.47-1.21h0a.63.63,0,0,1,1-.4l4.21,2.43a1.09,1.09,0,0,1,.46,1.21h0A.62.62,0,0,1,78.89,46.08Z" transform="translate(-0.84 -1)"/><path class="cls-6" d="M87.83,51.24l-6.21-3.59a1.1,1.1,0,0,1-.47-1.21h0a.62.62,0,0,1,.95-.39l6.2,3.58a1.08,1.08,0,0,1,.47,1.21h0A.62.62,0,0,1,87.83,51.24Z" transform="translate(-0.84 -1)"/><path class="cls-6" d="M74.77,24l-2.63-1.51a1.11,1.11,0,0,1-.47-1.21h0a.63.63,0,0,1,1-.4l2.63,1.52a1.09,1.09,0,0,1,.46,1.21h0A.62.62,0,0,1,74.77,24Z" transform="translate(-0.84 -1)"/><path class="cls-6" d="M82.68,32.5l-8-4.64a1.08,1.08,0,0,1-.46-1.21h0a.62.62,0,0,1,.94-.39l8,4.64a1.1,1.1,0,0,1,.47,1.21h0A.63.63,0,0,1,82.68,32.5Z" transform="translate(-0.84 -1)"/><path class="cls-6" d="M75.27,36.11l-2.63-1.52a1.11,1.11,0,0,1-.47-1.21h0a.63.63,0,0,1,1-.4l2.63,1.52a1.11,1.11,0,0,1,.47,1.21h0A.63.63,0,0,1,75.27,36.11Z" transform="translate(-0.84 -1)"/><path class="cls-6" d="M88.8,59.68l-7-4.06a1.1,1.1,0,0,1-.47-1.21h0a.63.63,0,0,1,1-.39l7,4a1.12,1.12,0,0,1,.47,1.22h0A.62.62,0,0,1,88.8,59.68Z" transform="translate(-0.84 -1)"/><path class="cls-6" d="M72.32,42.29l-1.69-1a1.08,1.08,0,0,1-.46-1.21h0a.62.62,0,0,1,.94-.39l1.69,1a1.11,1.11,0,0,1,.47,1.21h0A.63.63,0,0,1,72.32,42.29Z" transform="translate(-0.84 -1)"/><path class="cls-6" d="M70.72,49.25,68.63,48a1.12,1.12,0,0,1-.47-1.22h0a.63.63,0,0,1,1-.39l2.09,1.21a1.11,1.11,0,0,1,.47,1.21h0A.63.63,0,0,1,70.72,49.25Z" transform="translate(-0.84 -1)"/><path class="cls-6" d="M78.88,54l-5.53-3.19a1.1,1.1,0,0,1-.47-1.21h0a.63.63,0,0,1,1-.39l5.53,3.19a1.11,1.11,0,0,1,.47,1.21h0A.63.63,0,0,1,78.88,54Z" transform="translate(-0.84 -1)"/><path class="cls-6" d="M71.6,53.69l-4-2.29a1.09,1.09,0,0,1-.46-1.21h0a.62.62,0,0,1,.94-.4l4,2.3a1.08,1.08,0,0,1,.46,1.21h0A.62.62,0,0,1,71.6,53.69Z" transform="translate(-0.84 -1)"/><path class="cls-6" d="M94.82,63.18,92.27,61.7a1.1,1.1,0,0,1-.47-1.21h0a.62.62,0,0,1,1-.39l2.55,1.47a1.11,1.11,0,0,1,.47,1.21h0A.63.63,0,0,1,94.82,63.18Z" transform="translate(-0.84 -1)"/><path class="cls-6" d="M85.05,41.75l-7-4a1.11,1.11,0,0,1-.47-1.21h0a.63.63,0,0,1,1-.4l7,4.06A1.11,1.11,0,0,1,86,41.36h0A.62.62,0,0,1,85.05,41.75Z" transform="translate(-0.84 -1)"/><path class="cls-6" d="M85.88,38.29,73.64,31.23A1.11,1.11,0,0,1,73.17,30h0a.63.63,0,0,1,1-.4l12.24,7.07a1.11,1.11,0,0,1,.47,1.21h0A.62.62,0,0,1,85.88,38.29Z" transform="translate(-0.84 -1)"/><path class="cls-6" d="M78.66,42l-7-4.06a1.11,1.11,0,0,1-.47-1.21h0a.62.62,0,0,1,.94-.39l7,4a1.11,1.11,0,0,1,.47,1.21h0A.63.63,0,0,1,78.66,42Z" transform="translate(-0.84 -1)"/><path class="cls-6" d="M90.38,44.83l-2.55-1.47a1.11,1.11,0,0,1-.47-1.21h0a.63.63,0,0,1,1-.4l2.55,1.48a1.1,1.1,0,0,1,.47,1.21h0A.63.63,0,0,1,90.38,44.83Z" transform="translate(-0.84 -1)"/><path class="cls-6" d="M116.34,44.06l-15.11-8.73a1.11,1.11,0,0,1-.47-1.21h0a.62.62,0,0,1,.94-.39l15.12,8.72a1.11,1.11,0,0,1,.47,1.21h0A.63.63,0,0,1,116.34,44.06Z" transform="translate(-0.84 -1)"/><path class="cls-6" d="M78.07,49.55l-8.44-4.88a1.1,1.1,0,0,1-.47-1.21h0a.62.62,0,0,1,1-.39l8.44,4.87A1.11,1.11,0,0,1,79,49.15h0A.63.63,0,0,1,78.07,49.55Z" transform="translate(-0.84 -1)"/><path class="cls-6" d="M79.35,22.7l-6.21-3.59a1.1,1.1,0,0,1-.47-1.21h0a.62.62,0,0,1,1-.39l6.21,3.58a1.09,1.09,0,0,1,.46,1.21h0A.62.62,0,0,1,79.35,22.7Z" transform="translate(-0.84 -1)"/><path class="cls-6" d="M70.3,56.88l-7.19-4.15a1.1,1.1,0,0,1-.47-1.21h0a.63.63,0,0,1,1-.39l7.19,4.15a1.1,1.1,0,0,1,.47,1.21h0A.63.63,0,0,1,70.3,56.88Z" transform="translate(-0.84 -1)"/><path class="cls-12" d="M78.41,74.88l-.08-3.12,3.16-18.71-3.72-2.14-7.18,4.24.63,24c0,1.61.68,2.69,1.62,3h0l3.31,2,.36-1.56L77,79.7A8.94,8.94,0,0,0,78.41,74.88Z" transform="translate(-0.84 -1)"/><path class="cls-13" d="M78.65,83.94h0c-2,1.17-3.65,0-3.72-2.67l-.63-24,7.19-4.25.63,24C82.19,79.67,80.64,82.77,78.65,83.94Z" transform="translate(-0.84 -1)"/><path class="cls-14" d="M90.74,39.33a10.9,10.9,0,0,0-4.95-8.57A3.92,3.92,0,0,0,83,30.14h0L64.87,33.58,77.89,56l12-14h0A4,4,0,0,0,90.74,39.33Z" transform="translate(-0.84 -1)"/><path class="cls-11" d="M78.45,32.8a6.75,6.75,0,0,0-3.87-1.06l-.93.18c-1.86.58-3.06,2.49-3.06,5.42A17.4,17.4,0,0,0,78.45,51a7.7,7.7,0,0,0,2.9,1l5-5.78C86.22,41.24,82.73,35.27,78.45,32.8Z" transform="translate(-0.84 -1)"/><path class="cls-15" d="M78.65,83.94h0c2-1.17,3.54-4.27,3.47-6.91L81.59,57l-.23-2.18-3.31.28-3.34,2L74,56.18l-3.09,1.25-.11,6.35v.15a4,4,0,0,0,3.42,3.78l.37.05.36,13.51C75,83.92,76.67,85.11,78.65,83.94Z" transform="translate(-0.84 -1)"/><path class="cls-16" d="M84.28,48.42c0-6.26-4.39-13.87-9.81-17C72,30,69.75,29.75,68,30.48h0l0,0,0,0-.23.11a68.79,68.79,0,0,1-33,7l-3.23-.13L57.81,82.63l1.43-2.76A68.81,68.81,0,0,1,81.36,54.8C83.16,53.79,84.28,51.58,84.28,48.42Z" transform="translate(-0.84 -1)"/><path class="cls-17" d="M60.88,72.43c0-12-8.43-26.61-18.83-32.62-5.19-3-9.88-3.28-13.29-1.33h0l-3.09,1.81,1.08-.22c-2.2,2.29-3.49,5.89-3.49,10.59,0,12,8.43,26.62,18.83,32.62,4.08,2.36,7.86,3,10.94,2.27l-.49.72,2.85-1.66,0,0,.11-.06h0C58.82,82.55,60.88,78.36,60.88,72.43Z" transform="translate(-0.84 -1)"/><path class="cls-6" d="M58.68,73.72c0-12-8.43-26.62-18.83-32.62-5.12-3-9.76-3.28-13.15-1.41l-.48.28-.47.32,1-.2c-2.2,2.29-3.49,5.89-3.49,10.59,0,12,8.43,26.62,18.83,32.62,4.08,2.36,7.86,3,10.94,2.27l-.44.66C56.31,84.43,58.68,80.07,58.68,73.72Z" transform="translate(-0.84 -1)"/><ellipse class="cls-18" cx="39.22" cy="63.21" rx="15.38" ry="26.63" transform="matrix(0.87, -0.5, 0.5, 0.87, -27.19, 27.08)"/><ellipse class="cls-19" cx="39.22" cy="63.21" rx="13.49" ry="23.37" transform="translate(-27.19 27.08) rotate(-30)"/><path class="cls-11" d="M42.05,80.84a26.29,26.29,0,0,1-4-2.85,6.39,6.39,0,0,1-.67-9A70.22,70.22,0,0,1,51.2,57c-3-5.4-7.26-10.13-12-12.86-4-2.32-7.7-2.79-10.57-1.68h0l-.32.14,0,0-.29.14-.06,0-.3.17h0c-.22.12-.43.26-.64.4l0,0-.28.2,0,0-.24.2-.05,0-.24.21,0,0a7.14,7.14,0,0,0-.54.56l0,0-.22.27a.18.18,0,0,0-.05.07,2.23,2.23,0,0,0-.19.24l-.06.08-.17.25-.05.07-.2.32v0l-.21.36,0,0c-.05.11-.11.21-.16.32l-.05.1a2.39,2.39,0,0,0-.13.28.61.61,0,0,0-.05.12l-.12.27-.05.12-.12.33,0,.07c0,.14-.1.28-.14.43l0,0c0,.13-.08.25-.11.37s0,.09,0,.14-.05.2-.08.31a.83.83,0,0,1,0,.15l-.06.31s0,.1,0,.16l-.06.33,0,.13c0,.16-.05.32-.07.49v0c0,.15,0,.29-.05.44a.88.88,0,0,0,0,.16l0,.34c0,.07,0,.13,0,.19s0,.22,0,.33a1.34,1.34,0,0,0,0,.2c0,.12,0,.24,0,.36v.17c0,.18,0,.36,0,.54s0,.6,0,.9c0,.11,0,.21,0,.32s0,.4,0,.6l0,.31c0,.24,0,.47.07.71l0,.22c0,.29.07.59.12.88l.06.36c0,.19.07.37.1.55s.06.29.08.43.07.33.11.5.07.29.1.43l.18.71c.05.21.11.43.17.64s.07.24.1.36l.18.57.09.3c.23.71.48,1.41.76,2.11a.49.49,0,0,0,0,.11l.27.68s0,.11.08.17c2.94,7,8.06,13.39,13.88,16.76,5.08,2.93,9.63,2.91,12.66.49C49.13,83.54,45.73,83,42.05,80.84Z" transform="translate(-0.84 -1)"/><path class="cls-6" d="M40,82c-9.12-5.27-16.52-18.08-16.52-28.62,0-5.53,2-9.34,5.3-10.94-3.71,1.36-6.07,5.31-6.07,11.27,0,10.54,7.4,23.35,16.52,28.62,4.33,2.5,8.28,2.85,11.22,1.4C47.6,84.73,44,84.25,40,82Z" transform="translate(-0.84 -1)"/><g class="cls-20"><polygon class="cls-6" points="35.91 58.26 59.88 39.73 68.58 54.83 40.45 66.37 35.91 58.26"/><ellipse class="cls-21" cx="39.22" cy="63.21" rx="2.69" ry="4.67" transform="translate(-27.19 27.08) rotate(-30)"/><path class="cls-22" d="M44.85,55A9.19,9.19,0,0,1,49,62.23a3.41,3.41,0,0,1-.7,2.26l21.11-8.66L60.72,40.72,43,54.45A3.59,3.59,0,0,1,44.85,55Z" transform="translate(-0.84 -1)"/></g><path class="cls-23" d="M73,67.77l-.13-.07a.55.55,0,0,0-.59,0h0l-.82.51.57.09v.1L72.18,73a2.08,2.08,0,0,0,.91,1.62l-.15.64.82-.51h0c.21-.09.33-.35.32-.73l-.15-4.62A2.08,2.08,0,0,0,73,67.77Z" transform="translate(-0.84 -1)"/><path class="cls-11" d="M73,67.77l-.13-.07a.55.55,0,0,0-.59,0h0l-.82.51.57.09v.1L72.18,73a2.08,2.08,0,0,0,.91,1.62l-.15.64.82-.51h0c.21-.09.33-.35.32-.73l-.15-4.62A2.08,2.08,0,0,0,73,67.77Z" transform="translate(-0.84 -1)"/><path class="cls-24" d="M72.37,75.24l-.13-.07a2.07,2.07,0,0,1-.92-1.63l-.15-4.62c0-.64.36-.94.85-.68l.13.07a2.06,2.06,0,0,1,.92,1.62l.15,4.63C73.24,75.2,72.86,75.5,72.37,75.24Z" transform="translate(-0.84 -1)"/></svg>