<svg id="Layer_1" data-name="Layer 1" xmlns="http://www.w3.org/2000/svg" xmlns:xlink="http://www.w3.org/1999/xlink" viewBox="0 0 160.32 146.63"><defs><style>.cls-1{fill:none;}.cls-2{fill:#777;}.cls-2,.cls-21,.cls-35,.cls-55{opacity:0.5;}.cls-16,.cls-2,.cls-21,.cls-22,.cls-23,.cls-24,.cls-28,.cls-33,.cls-34,.cls-35,.cls-36,.cls-37,.cls-40,.cls-41,.cls-42,.cls-43,.cls-46,.cls-49,.cls-50,.cls-53,.cls-54,.cls-55{isolation:isolate;}.cls-3{fill:url(#linear-gradient);}.cls-4{fill:#474747;}.cls-5{fill:#262626;}.cls-6{clip-path:url(#clip-path);}.cls-23,.cls-7{fill:#818181;}.cls-8{fill:#cacaca;}.cls-9{fill:#b6b6b6;}.cls-10{fill:#ebebeb;}.cls-11,.cls-43{fill:#acacac;}.cls-12{clip-path:url(#clip-path-2);}.cls-13{fill:url(#linear-gradient-2);}.cls-14,.cls-33,.cls-34{fill:#d4d4d4;}.cls-15{fill:url(#linear-gradient-3);}.cls-16{opacity:0.7;fill:url(#linear-gradient-4);}.cls-17{fill:url(#linear-gradient-5);}.cls-18{fill:#232323;}.cls-19{fill:url(#linear-gradient-6);}.cls-20{fill:#c8c8c8;}.cls-21{fill:url(#linear-gradient-7);}.cls-22,.cls-36,.cls-40,.cls-41,.cls-46,.cls-49{opacity:0.3;}.cls-22{fill:url(#linear-gradient-8);}.cls-23,.cls-24,.cls-37{opacity:0.6;}.cls-24{fill:url(#linear-gradient-9);}.cls-25{fill:#9c9c9c;}.cls-26{fill:#a0a0a0;}.cls-27{fill:url(#linear-gradient-10);}.cls-28,.cls-31{fill:#f7f7f7;}.cls-28,.cls-34,.cls-53,.cls-54{opacity:0.2;}.cls-29{fill:url(#linear-gradient-11);}.cls-30{fill:url(#linear-gradient-12);}.cls-32,.cls-49,.cls-50{fill:#212121;}.cls-33{opacity:0.1;}.cls-35{fill:#505050;}.cls-36{fill:url(#linear-gradient-13);}.cls-38{fill:#0f0f0f;}.cls-39{fill:#383838;}.cls-40{fill:url(#linear-gradient-14);}.cls-41{fill:url(#linear-gradient-15);}.cls-42{fill:#7a7a7a;opacity:0.4;}.cls-43{opacity:0.9;}.cls-44{fill:#868686;}.cls-45{fill:url(#linear-gradient-16);}.cls-46{fill:url(#linear-gradient-17);}.cls-47{fill:#313131;}.cls-48{fill:#686868;}.cls-50{opacity:0.8;}.cls-51{fill:url(#linear-gradient-18);}.cls-52{fill:url(#linear-gradient-19);}.cls-53{fill:url(#linear-gradient-20);}.cls-54{fill:#d2d2d2;}.cls-55{fill:#d8d8d8;}</style><linearGradient id="linear-gradient" x1="389.41" y1="-234.03" x2="366.61" y2="-234.03" gradientTransform="matrix(1, 0, 0, -1, -247.87, -97.8)" gradientUnits="userSpaceOnUse"><stop offset="0" stop-color="#212121"/><stop offset="1" stop-color="#0f0f0f"/></linearGradient><clipPath id="clip-path" transform="translate(0.04 0)"><path class="cls-1" d="M134.13,106.4l-9.46-5.49a2.68,2.68,0,0,1-1.11-2.45L133,104A2.66,2.66,0,0,0,134.13,106.4Z"/></clipPath><clipPath id="clip-path-2" transform="translate(0.04 0)"><path class="cls-1" d="M140.24,106.2,113,90.36c-1.44-.84-1.16-6.7.87-7.88l27.28,15.84C139.13,99.49,138.8,105.36,140.24,106.2Z"/></clipPath><linearGradient id="linear-gradient-2" x1="372.84" y1="-195.33" x2="376.59" y2="-189.16" gradientTransform="matrix(1, 0, 0, -1, -247.87, -97.8)" gradientUnits="userSpaceOnUse"><stop offset="0" stop-color="#8f8f8f"/><stop offset="0.58" stop-color="#bdbdbd"/><stop offset="1" stop-color="#ddd"/></linearGradient><linearGradient id="linear-gradient-3" x1="400.16" y1="-196.12" x2="397.06" y2="-201.77" gradientTransform="matrix(1, 0, 0, -1, -247.87, -97.8)" gradientUnits="userSpaceOnUse"><stop offset="0" stop-color="#353535"/><stop offset="1" stop-color="#1b1b1b"/></linearGradient><linearGradient id="linear-gradient-4" x1="400.17" y1="-196.14" x2="398.28" y2="-199.58" gradientTransform="matrix(1, 0, 0, -1, -247.87, -97.8)" gradientUnits="userSpaceOnUse"><stop offset="0" stop-color="#4b4b4b"/><stop offset="1" stop-color="#1b1b1b"/></linearGradient><linearGradient id="linear-gradient-5" x1="404.18" y1="-197.55" x2="400.16" y2="-204.88" xlink:href="#linear-gradient-4"/><linearGradient id="linear-gradient-6" x1="403.8" y1="-197.3" x2="401.23" y2="-201.97" xlink:href="#linear-gradient-4"/><linearGradient id="linear-gradient-7" x1="406.46" y1="-200.31" x2="400.85" y2="-208.54" gradientTransform="matrix(1, 0, 0, -1, -247.87, -97.8)" gradientUnits="userSpaceOnUse"><stop offset="0" stop-color="#d8d8d8"/><stop offset="0.6" stop-color="#a1a1a1"/><stop offset="1" stop-color="#818181"/></linearGradient><linearGradient id="linear-gradient-8" x1="406.05" y1="-241.22" x2="404.2" y2="-243.92" gradientTransform="matrix(1, -0.58, 0, -1, -247.87, 95.57)" xlink:href="#linear-gradient-7"/><linearGradient id="linear-gradient-9" x1="367.88" y1="-189.74" x2="384.44" y2="-175.08" gradientTransform="matrix(1, 0, 0, -1, -247.87, -97.8)" gradientUnits="userSpaceOnUse"><stop offset="0" stop-color="#8f8f8f"/><stop offset="1" stop-color="#d2d2d2"/></linearGradient><linearGradient id="linear-gradient-10" x1="351.86" y1="-151.46" x2="366.92" y2="-127.88" gradientTransform="matrix(1, 0, 0, -1, -247.87, -97.8)" gradientUnits="userSpaceOnUse"><stop offset="0" stop-color="#8f8f8f"/><stop offset="1" stop-color="#c3c3c3"/></linearGradient><linearGradient id="linear-gradient-11" x1="339.99" y1="-112.57" x2="363.08" y2="-112.57" gradientTransform="matrix(1, 0, 0, -1, -247.87, -97.8)" gradientUnits="userSpaceOnUse"><stop offset="0" stop-color="#8f8f8f"/><stop offset="1" stop-color="#bdbdbd"/></linearGradient><linearGradient id="linear-gradient-12" x1="360.49" y1="-160.31" x2="370.01" y2="-143.4" gradientTransform="matrix(1, 0, 0, -1, -247.87, -97.8)" gradientUnits="userSpaceOnUse"><stop offset="0" stop-color="#a6a6a6"/><stop offset="0.01" stop-color="#a5a5a5"/><stop offset="0.15" stop-color="#959595"/><stop offset="0.26" stop-color="#8f8f8f"/><stop offset="0.4" stop-color="#b1b1b1"/><stop offset="0.55" stop-color="#d0d0d0"/><stop offset="0.68" stop-color="#e4e4e4"/><stop offset="0.77" stop-color="#ebebeb"/></linearGradient><linearGradient id="linear-gradient-13" x1="382.65" y1="-151.14" x2="374.92" y2="-167.9" gradientTransform="matrix(1, 0, 0, -1, -247.87, -97.8)" gradientUnits="userSpaceOnUse"><stop offset="0" stop-color="#d8d8d8"/><stop offset="0.09" stop-color="#ccc"/><stop offset="0.72" stop-color="#797979"/><stop offset="1" stop-color="#585858"/></linearGradient><linearGradient id="linear-gradient-14" x1="85.13" y1="91.24" x2="30.14" y2="15.77" gradientTransform="matrix(1, 0, 0, -1, 0.04, 148)" xlink:href="#linear-gradient-7"/><linearGradient id="linear-gradient-15" x1="45.85" y1="69.59" x2="1.48" y2="3.78" gradientTransform="matrix(1, 0, 0, -1, 0.04, 148)" xlink:href="#linear-gradient-7"/><linearGradient id="linear-gradient-16" x1="343.61" y1="-212.57" x2="346.34" y2="-217.11" gradientTransform="matrix(1, 0, 0, -1, -247.87, -97.8)" gradientUnits="userSpaceOnUse"><stop offset="0" stop-color="#474747"/><stop offset="0.65" stop-color="#212121"/></linearGradient><linearGradient id="linear-gradient-17" x1="87.72" y1="46.19" x2="76.96" y2="19.16" gradientTransform="matrix(1, 0, 0, -1, 0.04, 148)" xlink:href="#linear-gradient-7"/><linearGradient id="linear-gradient-18" x1="348.93" y1="-190.3" x2="347.12" y2="-190.3" gradientTransform="matrix(1, 0, 0, -1, -247.87, -97.8)" gradientUnits="userSpaceOnUse"><stop offset="0" stop-color="#b5b5b5"/><stop offset="0.84" stop-color="#acacac"/></linearGradient><linearGradient id="linear-gradient-19" x1="349.09" y1="-186.08" x2="347.31" y2="-189.73" xlink:href="#linear-gradient-16"/><linearGradient id="linear-gradient-20" x1="101.03" y1="58.94" x2="100.37" y2="57.43" gradientTransform="matrix(1, 0, 0, -1, 0.04, 148)" gradientUnits="userSpaceOnUse"><stop offset="0" stop-color="#a5a5a5"/><stop offset="1" stop-color="#868686"/></linearGradient></defs><g id="_0" data-name=" 0"><g id="_4" data-name=" 4"><path class="cls-2" d="M117.32,108.84,83.25,128.7l-9.09-.89L44.39,145.07a12.84,12.84,0,0,1-3.33-.31l-9.3-5.37a.28.28,0,0,1-.17-.36.26.26,0,0,1,.17-.17l29-16.73a1,1,0,0,1,.9,0l4.79,2-7.86-4.89-13.52,9.51L38,128.5l-7.17-4.16L10,136.4A44.49,44.49,0,0,1,0,122.13L67.13,83.39l17.33,10L55.94,109.86l2.07.59,2.7,2.73L95.46,93.12Z" transform="translate(0.04 0)"/><path class="cls-2" d="M140.64,128.06c-3.82-2.21-9.29-2.85-14.08-2l-13.24-7.71a2,2,0,0,0-2,0l-16,9.24a1,1,0,0,0-.42,1.35,1,1,0,0,0,.42.42c5.78,3.45,26.53,15.66,26.53,15.66l-.12-.1a.77.77,0,0,0,1,0l5.41-3.12,3.51,2a2.06,2.06,0,0,0,.87,1.8l1.15.66c.75.42,2.86,1.25,7-2.59,1.82-1.69-.22-3.29-1-3.73h0l-.1-.06c.4-.18.78-.38,1.15-.59C146.13,136.27,146.06,131.2,140.64,128.06Z" transform="translate(0.04 0)"/><g id="_8" data-name=" 8"><path class="cls-3" d="M145.7,132.36a1,1,0,0,1,0,.38c-.05.13,0,.2-.07.3a2,2,0,0,1-.11.35,1.48,1.48,0,0,1-.12.29,2.48,2.48,0,0,1-.17.37,5.09,5.09,0,0,1-.3.5l-.06.08a6,6,0,0,1-.39.49l-.08.09a5.78,5.78,0,0,1-.5.49l-.36.3-.33.26-.43.29-.45.29a11.7,11.7,0,0,1-1.12.56l-.33.15-.93.35-.35.12-.61.17-.46.13-.66.14-.45.09c-.44.08-.89.14-1.34.18h-.42l-.81.05H132l-.59-.07-.54-.07-.62-.11-.49-.1-.74-.18-.41-.11c-.43-.13-.86-.27-1.27-.43l-.6-.26-.3-.13q-.45-.21-.87-.45c-2.34-1.35-3.51-3.12-3.5-4.89v1.83c0,1.77,1.16,3.54,3.5,4.89.28.16.57.31.87.46l.31.13.53.23h.07a11.86,11.86,0,0,0,1.27.43h.1l.3.07c.25.07.49.13.74.18l.2.05.29.05.63.11h.53l.59.06h2.86a3.6,3.6,0,0,0,.8-.06h.42c.46,0,.91-.11,1.35-.19h.07l.38-.08.65-.14.47-.12.61-.18h.13l.21-.08a9.38,9.38,0,0,0,.93-.35l.27-.07c.39-.18.76-.36,1.12-.57l.14-.08.31-.21c.14-.09.29-.18.42-.28l.33-.26.37-.3.07-.06.43-.43.08-.1.22-.26.16-.22.06-.08c.09-.13.18-.27.26-.41v-.09c.07-.12.12-.25.18-.37a1.77,1.77,0,0,0,.1-.22c0-.08,0,0,0-.07s.07-.24.1-.36.05-.15.07-.23a.09.09,0,0,1,0-.07v-.37a1,1,0,0,0,0-.25V132A.38.38,0,0,1,145.7,132.36Z" transform="translate(0.04 0)"/><path class="cls-4" d="M142.23,127.13c-4.65-2.69-12.16-2.68-16.77,0s-4.59,7,.06,9.71,12.15,2.68,16.76,0S146.87,129.81,142.23,127.13Z" transform="translate(0.04 0)"/><path class="cls-5" d="M138.58,131.75S137.27,105.4,137,102a1.7,1.7,0,0,0-.91-1.23l-.45-.22-.14,0-.16-.06a1,1,0,0,0-.23-.06h-.19l-.38-.07h-1.48a4,4,0,0,0-.48.08h0l-.39.11-.18.06a5.05,5.05,0,0,0-.53.24l-.23.14h-.06l-.13.1h0a1.1,1.1,0,0,0-.22.21h0l-.12.17h0a1.14,1.14,0,0,0-.1.19h0a0,0,0,0,0,0,0,.29.29,0,0,0,0,.13h0v.13c-.25,3.45-1.46,29.81-1.46,29.81v.17a.29.29,0,0,0,0,.13v.27l.05.14.05.12a1.09,1.09,0,0,0,.08.15l.06.11a.76.76,0,0,0,.11.14.44.44,0,0,0,.08.11l.14.15.09.09.19.16.09.07a2.7,2.7,0,0,0,.33.22l.45.24H131l.37.14h.13l.29.08h3.24a5.72,5.72,0,0,0,.57-.11h.11q.35-.09.69-.21h.06a3.93,3.93,0,0,0,.66-.3l.31-.19h.07l.11-.08h0l.08-.07.11-.1L138,133h0l.08-.1.11-.14h0l.05-.09.07-.12h0v-.19h0v-.18h0v-.23h0A.92.92,0,0,0,138.58,131.75Z" transform="translate(0.04 0)"/><path class="cls-4" d="M136.32,96.68a5.6,5.6,0,0,0-5.06-.05c-1.43.8-1.48,2.11-.11,2.93a5.57,5.57,0,0,0,5.06.06C137.64,98.82,137.69,97.51,136.32,96.68Z" transform="translate(0.04 0)"/><g class="cls-6"><path class="cls-7" d="M134.13,106.4l-9.46-5.49a2.68,2.68,0,0,1-1.11-2.45L133,104A2.66,2.66,0,0,0,134.13,106.4Z" transform="translate(0.04 0)"/></g><polygon class="cls-8" points="133.07 103.96 123.61 98.46 135.87 91.38 145.33 96.88 133.07 103.96"/><path class="cls-9" d="M145.29,96.88a8.38,8.38,0,0,1-3.79,6.58l-4.65,2.68c-2.1,1.21-3.81.24-3.82-2.18Z" transform="translate(0.04 0)"/><path class="cls-10" d="M127.13,75.28a.86.86,0,0,0-.9.06l-12.35,7.13,27.25,15.85,12.33-7.12a.86.86,0,0,1,.9-.07Z" transform="translate(0.04 0)"/><path class="cls-11" d="M140.24,106.2,113,90.36c-1.44-.84-1.16-6.7.87-7.88l27.28,15.84C139.13,99.49,138.8,105.36,140.24,106.2Z" transform="translate(0.04 0)"/><g class="cls-12"><path class="cls-13" d="M141.13,98.32,113.87,82.47c-2,1.18-2.31,7-.87,7.88l27.24,15.85C138.8,105.36,139.13,99.49,141.13,98.32Z" transform="translate(0.04 0)"/></g><path class="cls-14" d="M153.46,91.2c2.39-1.38,2.41,6.43,0,7.81l-12.33,7.12c-2.38,1.38-2.41-6.44,0-7.81Z" transform="translate(0.04 0)"/><path class="cls-15" d="M155.73,99.89h0l-6.42-3.69a1.75,1.75,0,0,0-1.75.17,5.41,5.41,0,0,0-2.44,4.24,1.74,1.74,0,0,0,.72,1.57l6.42,3.73a1.07,1.07,0,0,1-.16-.14,1.59,1.59,0,0,0,1.9,0,5.37,5.37,0,0,0,2.45-4.23A1.72,1.72,0,0,0,155.73,99.89Zm-.78-.15h0Z" transform="translate(0.04 0)"/><path class="cls-16" d="M155.13,104.48a5.16,5.16,0,0,0,1.17-3,1.55,1.55,0,0,0-.63-1.42l-.56-.33-.05.2H155v-.26l-5.75-3.34a1.18,1.18,0,0,0-.55-.14,2.1,2.1,0,0,0-1,.31,5.13,5.13,0,0,0-2,2.52Z" transform="translate(0.04 0)"/><path class="cls-17" d="M156.23,99a2.24,2.24,0,0,0-2.3.22,7.09,7.09,0,0,0-3.22,5.58,2.23,2.23,0,0,0,.94,2.07l3.11,1.81a2.29,2.29,0,0,1-.94-2.08,7.1,7.1,0,0,1,3.21-5.57,2.28,2.28,0,0,1,2.31-.23Z" transform="translate(0.04 0)"/><path class="cls-18" d="M157,101.06a7.1,7.1,0,0,0-3.21,5.57c0,2.05,1.45,2.89,3.24,1.85a7.11,7.11,0,0,0,3.22-5.58C160.27,100.85,158.82,100,157,101.06Z" transform="translate(0.04 0)"/><path class="cls-19" d="M156.13,99.2a1.43,1.43,0,0,0-.76-.19,2.75,2.75,0,0,0-1.36.42,6.86,6.86,0,0,0-2.81,3.67l2.79,1.61a7.28,7.28,0,0,1,2.94-3.79,3.28,3.28,0,0,1,1.36-.46Z" transform="translate(0.04 0)"/><path class="cls-20" d="M150.62,91.2a.23.23,0,0,0-.31-.08L141,96.52a.22.22,0,0,0-.09.3h0a.21.21,0,0,0,.19.11h.12l9.35-5.4a.22.22,0,0,0,.11-.29Z" transform="translate(0.04 0)"/><path class="cls-21" d="M157,101.9a5.48,5.48,0,0,0-2.49,4.31c0,1.59,1.12,2.23,2.5,1.43a5.46,5.46,0,0,0,2.5-4.32C159.54,101.74,158.42,101.1,157,101.9Z" transform="translate(0.04 0)"/><path class="cls-22" d="M158.62,102.49a2.7,2.7,0,0,1-1.44,1.83c-.8.46-1.44.38-1.44-.16a2.7,2.7,0,0,1,1.44-1.83C158,101.87,158.62,101.94,158.62,102.49Z" transform="translate(0.04 0)"/><path class="cls-23" d="M157,101.9a5.48,5.48,0,0,0-2.49,4.31,2,2,0,0,0,.43,1.37,2,2,0,0,1-.38-1.26,5.27,5.27,0,0,1,2.39-4.13c1.33-.77,2.41-.16,2.41,1.36a5.25,5.25,0,0,1-1.45,3.37,5.48,5.48,0,0,0,1.6-3.6C159.54,101.74,158.42,101.1,157,101.9Z" transform="translate(0.04 0)"/><path class="cls-24" d="M139.64,82.57l-13.3,7.63a4.23,4.23,0,0,0-1.49,2.91c-.32,1.75-.16,3.57.37,4.31l-.7-.4a8.86,8.86,0,0,1-.12-4c.17-.93.63-2.6,1.72-3.23l13.06-7.54ZM115.7,87.9A4.27,4.27,0,0,1,117.19,85l13.35-7.7-.46-.26L117,84.59c-1.1.63-1.55,2.29-1.72,3.23a9.16,9.16,0,0,0,.09,3.9l.67.39a7.05,7.05,0,0,1-.31-4.21Z" transform="translate(0.04 0)"/><path class="cls-25" d="M142.3,100.2a.65.65,0,0,0,0-.51.66.66,0,0,0-.55-.43.68.68,0,0,0-.64.72.69.69,0,0,0,.08.28.67.67,0,0,0,.66.24A.65.65,0,0,0,142.3,100.2Z" transform="translate(0.04 0)"/><path class="cls-26" d="M142,100.5a.6.6,0,0,0,.36-.26.56.56,0,0,0,0-.44.5.5,0,1,0-1-.07.52.52,0,0,0,.13.72A.52.52,0,0,0,142,100.5Z" transform="translate(0.04 0)"/></g><g id="_15" data-name=" 15"><path class="cls-27" d="M118.57,46.35h0l-15-8.74a3.13,3.13,0,0,0-3.16.31l-.44.28-.14.11-.29.21-.16.14-.25.22L99,39l-.23.23-.16.18-.21.24a1.56,1.56,0,0,0-.16.2,2.43,2.43,0,0,0-.2.25l-.15.21a2.48,2.48,0,0,0-.19.26l-.14.22a.83.83,0,0,1-.08.12V41a8.2,8.2,0,0,0-.43.76.11.11,0,0,1,0,.08q-.18.38-.33.75a.58.58,0,0,1-.05.14,7.3,7.3,0,0,0-.26.79.2.2,0,0,1-.05.16,7.78,7.78,0,0,0-.17.81h0v.34a.61.61,0,0,0,0,.19,4.51,4.51,0,0,0,0,.52,4.43,4.43,0,0,0,.2,1.4,2.52,2.52,0,0,0,1.09,1.45l15,8.74-.14-.1a3.06,3.06,0,0,0,3.3-.21A9.76,9.76,0,0,0,120,49.18,3.11,3.11,0,0,0,118.57,46.35Z" transform="translate(0.04 0)"/><path class="cls-5" d="M106.4,18.2a1.38,1.38,0,0,0-.84-1.41,4.66,4.66,0,0,0-4.21,0,1.49,1.49,0,0,0-.86,1.21h0l0,22.34a1.46,1.46,0,0,0,.87,1.22,4.66,4.66,0,0,0,4.21,0,1.49,1.49,0,0,0,.86-1.21L106.43,18Zm-5.69.45a.16.16,0,0,0-.07-.13C100.57,18.48,100.64,18.61,100.71,18.65Z" transform="translate(0.04 0)"/><path class="cls-28" d="M103.88,21.82V42.05a4.05,4.05,0,0,0,1.28-.3v-20A9.07,9.07,0,0,1,103.88,21.82Z" transform="translate(0.04 0)"/><path class="cls-29" d="M115,10.42l-.08.12a2.61,2.61,0,0,1-.17.28.64.64,0,0,0-.1.13l-.21.27a.52.52,0,0,1-.1.11l-.13.15-.31.31a1.29,1.29,0,0,1-.17.16c-.11.1-.21.19-.33.28l-.19.16-.39.28-.19.13-.52.32a5.81,5.81,0,0,0-2-1.88,14,14,0,0,0-12.73-.13,6,6,0,0,0-2.18,2l-.1,0a7.2,7.2,0,0,1-3-3.06L95,16.22h0v.08a2.82,2.82,0,0,0,.21.38l0,.07c.09.14.2.27.31.41l.08.09q.16.18.36.36h0c.15.13.3.26.46.38l.12.08a5.07,5.07,0,0,0,.54.36,7,7,0,0,0,.66.36l.24.11.47.21.3.1.45.16.33.1a2.5,2.5,0,0,1,.45.12l.35.08.45.1.38.06.45.07h2.69l.75-.06h.44l.37-.05H106l.73-.14h.17l.58-.15.18-.05c.23-.07.46-.14.68-.23h.11L109,19l.17-.08c.21-.09.42-.2.62-.31s.32-.19.48-.29l.09-.07.12-.08.22-.16.15-.12.08-.06h0l.13-.12.13-.12.15-.15.09-.1.06-.06h0l.07-.08.15-.2h0a.18.18,0,0,0,0-.07c0-.06.09-.13.14-.2a.41.41,0,0,1,0-.09V16.5l.09-.17c1-2.07,1.91-4.13,2.86-6.2C115.13,10.2,115.13,10.29,115,10.42Z" transform="translate(0.04 0)"/><path class="cls-14" d="M115.63,7.2v.85a.19.19,0,0,1,0,.16l-.06.17-.06.16a1.42,1.42,0,0,1-.08.18,1,1,0,0,1-.07.15l-.09.18a1.09,1.09,0,0,0-.08.15l-.13.2-.09.14-.15.2a.64.64,0,0,1-.1.13c-.1.12-.19.24-.3.35h0c-.11.12-.23.23-.36.35l-.15.13a1.29,1.29,0,0,1-.17.16l-.17.14-.19.14-.19.14-.2.14-.2.13a1.64,1.64,0,0,1-.22.14l-.36.21h0q-.39.22-.81.42l-.2.09-.86.35h-.1l-.73.24-.58.16-.5.13-.6.13-.58.11h-.26c-.31,0-.61.09-.92.12h-.09c-.33,0-.67.06-1,.08h-2.57l-.55-.05-.6-.06-.51-.08-.65-.11-.85-.19h0c-.3-.07-.59-.15-.88-.24l-.26-.08c-.3-.1-.6-.2-.89-.32l-.64-.28-.32-.14c-.31-.15-.62-.32-.9-.49-2.27-1.35-3.39-3.1-3.38-4.84V8.2c0,1.74,1.12,3.49,3.38,4.84q.43.26.9.48l.33.15.63.28h0l.89.32.26.08.3.09.57.15h0l.64.15H100l.64.11a2,2,0,0,0,.34.06h.18l.6.07h3.12a4.86,4.86,0,0,0,1-.07h.1a3.71,3.71,0,0,0,.93-.12h.49l.34-.07.61-.13.5-.13.58-.17.21-.06.51-.18h.11l.86-.35.19-.1c.28-.13.56-.26.82-.41l.28-.16.08,0,.22-.14.2-.13.2-.14.19-.14.18-.15.18-.14.17-.15.12-.1h0l.35-.36h0c.1-.11.2-.23.29-.35h0l.06-.09a1,1,0,0,0,.15-.2l.1-.14.12-.2,0-.08a.09.09,0,0,1,0-.07l.09-.18a.18.18,0,0,1,.07-.16c.07-.06,0-.11.08-.17V9.73a1.09,1.09,0,0,0,.05-.17,1.09,1.09,0,0,0,0-.17V9.11a0,0,0,0,0,0,0V7.2Z" transform="translate(0.04 0)"/><path class="cls-10" d="M112.25,2.11c-4.6-2.74-12.16-2.82-16.89-.17s-4.84,7-.24,9.79,12.16,2.83,16.89.17S116.85,4.86,112.25,2.11Z" transform="translate(0.04 0)"/><path class="cls-30" d="M113.78,39.85a3.11,3.11,0,0,0-.41-.2h-.12l-.39-.12h-.07a4,4,0,0,0-.48-.07h-.66a3.08,3.08,0,0,0-.53.08H111l-.25.06h-.12l-.51.18-.23.1a7.85,7.85,0,0,0-.77.38l-.6.39-.17.12-.44.33-.17.13c-.18.15-.37.31-.55.48h0l-.07.07-.48.48-.18.2-.36.4-.18.23c-.12.14-.23.28-.34.43l-.16.21-.4.57-.06.1c-.15.23-.29.46-.43.69l-.12.21-.27.51-.13.26c0,.08-.16.33-.23.49l-.12.26c-.08.19-.15.37-.22.56a.79.79,0,0,1-.08.19c-.09.25-.17.5-.25.75v.17a5.69,5.69,0,0,0-.16.59l-.06.26a3,3,0,0,1-.1.5.78.78,0,0,0,0,.27,4.43,4.43,0,0,0-.06.51v1a5.29,5.29,0,0,0,1.12,3.55,3.17,3.17,0,0,0,.8.66l22.23,12.92C125.69,68,125,66.57,125,64.5v-1A4.43,4.43,0,0,1,125,63v-.27a3.63,3.63,0,0,1,.1-.5l.06-.26a5.69,5.69,0,0,1,.16-.59v-.17c.08-.25.16-.5.25-.75a.64.64,0,0,1,.08-.2l.22-.55.12-.26c.07-.16.15-.33.23-.49l.13-.26.27-.51.12-.21c.14-.23.28-.46.43-.69l.06-.1.4-.57.16-.21c.11-.15.22-.29.34-.43l.18-.23.36-.4.18-.2.48-.48.07-.07c.19-.17.37-.33.57-.49l.16-.13a4.59,4.59,0,0,1,.44-.33l.17-.12q.3-.21.6-.39a7.85,7.85,0,0,1,.77-.38l.23-.1.51-.18.37-.1h.13l.53-.09h.66a3.93,3.93,0,0,1,.48.06h.07l.39.11.12,0a2,2,0,0,1,.42.2Z" transform="translate(0.04 0)"/><path class="cls-31" d="M110.74,39.6a7.36,7.36,0,0,0-1.63.7,11,11,0,0,0-1.93,1.45l22.24,12.92a10.41,10.41,0,0,1,1.92-1.45,7.36,7.36,0,0,1,1.63-.7Z" transform="translate(0.04 0)"/><path class="cls-14" d="M131.34,53.2a14.47,14.47,0,0,0-6.54,11.33c0,4.17,3,5.85,6.59,3.76A14.47,14.47,0,0,0,137.93,57C137.92,52.81,135,51.13,131.34,53.2Z" transform="translate(0.04 0)"/><path class="cls-32" d="M131.35,54.35A12.24,12.24,0,0,0,125.79,64c0,3.54,2.51,5,5.59,3.19A12.21,12.21,0,0,0,137,57.54C136.94,54,134.43,52.57,131.35,54.35Z" transform="translate(0.04 0)"/><path class="cls-33" d="M131.13,56.54a7.86,7.86,0,0,0-3.57,6.18c0,2.27,1.62,3.19,3.59,2a7.86,7.86,0,0,0,3.57-6.19C134.73,56.31,133.13,55.39,131.13,56.54Z" transform="translate(0.04 0)"/><path class="cls-33" d="M131.31,58.4a4.26,4.26,0,0,0-1.94,3.36c0,1.23.88,1.73,2,1.11a4.33,4.33,0,0,0,1.94-3.36C133.26,58.27,132.39,57.78,131.31,58.4Z" transform="translate(0.04 0)"/><path class="cls-34" d="M131,59.2a1.55,1.55,0,0,0-.71,1.25c0,.45.32.64.72.41a1.6,1.6,0,0,0,.71-1.24C131.72,59.13,131.4,58.94,131,59.2Z" transform="translate(0.04 0)"/><path class="cls-35" d="M130.8,55.8a.7.7,0,0,1-.29.56c-.17.13-.33.08-.35-.11a.7.7,0,0,1,.29-.56C130.63,55.56,130.79,55.61,130.8,55.8Zm3.37-1.28a.56.56,0,0,0-.46.33c-.12.23-.09.43,0,.48s.34-.1.45-.33.1-.43-.08-.48Zm2,2.51c0-.18-.17-.23-.35-.11a.7.7,0,0,0-.29.57c0,.19.17.24.35.11a.68.68,0,0,0,.3-.57Zm-1,4.72c.11-.23.09-.44,0-.48s-.34.1-.45.32-.1.43,0,.48.38-.1.46-.32Zm-3.31,4.15a.7.7,0,0,0,.29-.57c0-.19-.17-.24-.35-.11a.7.7,0,0,0-.29.57C131.53,66,131.68,66,131.86,65.9Zm-3.73,1.16a.57.57,0,0,0,.46-.32c.12-.22.09-.44-.05-.48s-.34.1-.45.32S128,67,128.13,67.06Zm-1.95-2.51c0,.19.17.24.35.11a.7.7,0,0,0,.29-.57c0-.18-.17-.23-.35-.11a.71.71,0,0,0-.28.57Zm1-4.71c-.12.22-.1.43,0,.48s.34-.1.45-.32.1-.44,0-.48-.37.1-.5.32Z" transform="translate(0.04 0)"/><path class="cls-36" d="M125.81,64.56V64a9.19,9.19,0,0,1,.33-2.39l8-8a2.81,2.81,0,0,1,1.78.86Zm2.65,3.36,8.22-8.23a9.74,9.74,0,0,0,.27-2.15,5.39,5.39,0,0,0-.28-1.78L126.22,66.2a2.85,2.85,0,0,0,2.24,1.72Z" transform="translate(0.04 0)"/></g><g id="_4-2" data-name=" 4-2"><g id="_3" data-name=" 3"><path class="cls-32" d="M66.13,113.39l-6.42-3.71a4.62,4.62,0,0,0-4.19,0L35.8,121.07a1.41,1.41,0,0,0-.86,1.27v.91a1.53,1.53,0,0,0,.86,1.28l6.42,3.7a4.62,4.62,0,0,0,4.19,0l19.72-11.39A1.41,1.41,0,0,0,67,115.6v-.94A1.41,1.41,0,0,0,66.13,113.39Z" transform="translate(0.04 0)"/><path class="cls-37" d="M46.47,114.93l-10.63,6.14a1.41,1.41,0,0,0-.86,1.27v.91a1.53,1.53,0,0,0,.86,1.28l6.42,3.7a4.62,4.62,0,0,0,4.19,0h0Z" transform="translate(0.04 0)"/><path class="cls-4" d="M66.13,115.8,46.45,127.2a4.62,4.62,0,0,1-4.19,0l-6.42-3.7a1.28,1.28,0,0,1,0-2.42l19.72-11.39a4.62,4.62,0,0,1,4.19,0l6.42,3.71a1.27,1.27,0,0,1,.76,1.63A1.3,1.3,0,0,1,66.13,115.8Z" transform="translate(0.04 0)"/><polygon class="cls-32" points="54.54 116.11 47.52 120.16 47.52 103.76 54.54 99.7 54.54 116.11"/><polygon class="cls-37" points="54.54 106.78 47.52 110.83 47.52 103.76 54.54 99.7 54.54 106.78"/><polygon class="cls-38" points="47.52 120.16 45.23 118.83 45.23 102.43 47.52 103.75 47.52 120.16"/><polygon points="45.23 115.94 45.23 102.43 47.52 103.75 47.52 110.78 45.23 115.94"/><polygon class="cls-32" points="89.55 85.16 51.28 107.41 51.28 71.15 89.55 48.91 89.55 85.16"/><polygon class="cls-4" points="89.54 48.91 51.28 71.15 49.81 70.3 88.07 48.06 89.54 48.91"/><path class="cls-38" d="M51.26,107.4,48.83,106a4.36,4.36,0,0,1-2.17-3.79c.09-13.94.74-27.59,3.11-31.9l1.49.83Z" transform="translate(0.04 0)"/><polygon class="cls-39" points="88.3 81.34 52.74 102.11 52.74 71.75 88.3 50.98 88.3 81.34"/><polygon class="cls-40" points="52.74 102.11 86.84 82.19 86.84 53.63 52.74 73.55 52.74 102.11"/><polygon class="cls-32" points="50.84 107.67 12.58 129.91 12.58 93.66 50.84 71.41 50.84 107.67"/><polygon class="cls-4" points="50.83 71.42 12.57 93.66 11.1 92.81 49.36 70.57 50.83 71.42"/><path class="cls-38" d="M12.55,129.91l-2.43-1.4A4.35,4.35,0,0,1,8,124.72c.09-13.94.74-27.59,3.11-31.91l1.49.84Z" transform="translate(0.04 0)"/><polygon class="cls-39" points="49.59 103.85 14.03 124.61 14.03 94.25 49.59 73.49 49.59 103.85"/><polygon class="cls-41" points="14.03 124.61 48.13 104.7 48.13 76.14 14.03 96.06 14.03 124.61"/><path class="cls-42" d="M12,123.35v.4l-3.55-2v-.4Zm-3.53-3v.39l3.54,2v-.4Zm0-.93v.39l3.51,2v-.4Zm-.06,2.78v.4L12,124.66v-.4ZM12,125.6v-.4l-3.55-2v.4ZM8.65,114.82v.39L12,117.15v-.4Zm0,.92v.38l3.39,2v-.39Zm-.07,1.83V118L12,120v-.39Zm0-.92V117L12,119v-.39Zm-.06,1.85v.39l3.49,2v-.4Z" transform="translate(0.04 0)"/></g><path class="cls-32" d="M74.13,125.77l-9.54-5.51a1,1,0,0,0-.93,0L33.89,137.45a.34.34,0,0,0-.2.25v1.18a.33.33,0,0,0,.2.27l9.54,5.51a1,1,0,0,0,.93,0l29.77-17.19a.32.32,0,0,0,.19-.27V126A.32.32,0,0,0,74.13,125.77Z" transform="translate(0.04 0)"/><path class="cls-37" d="M44.29,131.42l-10.44,6a.34.34,0,0,0-.2.25v1.18a.33.33,0,0,0,.2.27l9.54,5.51a1,1,0,0,0,.9,0Z" transform="translate(0.04 0)"/><path class="cls-4" d="M74.13,126.31,44.32,143.5a1,1,0,0,1-.93,0L33.85,138a.28.28,0,0,1-.2-.34.29.29,0,0,1,.2-.2l29.77-17.19a1,1,0,0,1,.93,0l9.54,5.51a.28.28,0,0,1,.22.33A.25.25,0,0,1,74.13,126.31Z" transform="translate(0.04 0)"/><path class="cls-43" d="M37.78,137.89l-1.29.74a.45.45,0,0,1-.45,0L35,138a.14.14,0,0,1-.08-.18s0-.07.08-.08l1.29-.75a.51.51,0,0,1,.45,0l1.09.63a.14.14,0,0,1,.08.18S37.82,137.88,37.78,137.89Zm2.07-1.46-1.08-.63a.51.51,0,0,0-.45,0l-1.29.75a.14.14,0,0,0-.08.18s0,.07.08.08l1.08.62a.47.47,0,0,0,.46,0l1.28-.74C40,136.62,40,136.5,39.85,136.43Zm2.08-1.2-1.08-.62a.45.45,0,0,0-.45,0l-1.29.74c-.13.07-.13.19,0,.26l1.08.62a.45.45,0,0,0,.45,0l1.29-.74c.13-.07.13-.19,0-.29ZM44,134l-1.08-.62a.47.47,0,0,0-.46,0l-1.28.74c-.13.07-.13.19,0,.26l1.08.62a.45.45,0,0,0,.45,0l1.29-.74a.14.14,0,0,0,.08-.18s0-.07-.08-.08Zm2.08-1.2L45,132.21a.45.45,0,0,0-.45,0l-1.29.74a.14.14,0,0,0-.08.18s0,.07.08.08l1.09.63a.51.51,0,0,0,.45,0l1.29-.75a.14.14,0,0,0,.11-.16.13.13,0,0,0-.07-.1Zm2.07-1.2L47.08,131a.45.45,0,0,0-.45,0l-1.29.74a.14.14,0,0,0-.08.18s0,.07.08.08l1.08.63a.53.53,0,0,0,.46,0l1.28-.75c.13-.07.13-.19,0-.26Zm2.08-1.2-1.08-.62a.45.45,0,0,0-.45,0l-1.29.74c-.13.07-.13.19,0,.26l1.08.63a.51.51,0,0,0,.45,0l1.29-.75c.13-.07.13-.19,0-.26Zm2.08-1.2-1.08-.62a.53.53,0,0,0-.46,0l-1.28.74c-.13.07-.13.19,0,.26l1.08.63a.51.51,0,0,0,.45,0l1.29-.75a.15.15,0,0,0,.15-.15.14.14,0,0,0-.15-.14ZM54.4,128l-1.09-.62a.51.51,0,0,0-.45,0l-1.29.74a.14.14,0,0,0-.08.18s0,.07.08.08l1.09.63a.51.51,0,0,0,.45,0l1.29-.75c.12-.09.12-.18,0-.26Zm2.74-1.58-1.08-.63a.51.51,0,0,0-.45,0l-2,1.13a.14.14,0,0,0-.08.18s0,.07.08.08l1.08.63a.53.53,0,0,0,.46,0l2-1.13c.17-.07.17-.19,0-.26Zm8.92,1.43L65,127.25a.51.51,0,0,0-.45,0l-1.29.74a.15.15,0,0,0-.07.2.16.16,0,0,0,.07.07l1.08.62a.53.53,0,0,0,.46,0l1.28-.74c.13-.07.13-.19,0-.26Zm2.08-1.2-1.08-.63a.51.51,0,0,0-.45,0l-1.29.74c-.13.08-.13.19,0,.27l1.08.62a.51.51,0,0,0,.45,0l1.29-.74c.13-.07.13-.19,0-.26Zm2.08-1.2-1.08-.63a.53.53,0,0,0-.46,0l-1.28.75c-.13.07-.13.18,0,.26l1.08.62a.51.51,0,0,0,.45,0l1.29-.74a.14.14,0,0,0,.08-.18.11.11,0,0,0-.08-.08ZM68,129l-1.08-.62a.51.51,0,0,0-.45,0l-1.29.74a.14.14,0,0,0-.08.18s0,.07.08.08l1.08.63a.53.53,0,0,0,.46,0l1.28-.75c.17,0,.17-.19,0-.26Zm2.08-1.2L69,127.15a.51.51,0,0,0-.45,0l-1.29.74c-.13.07-.13.19,0,.26l1.08.63a.51.51,0,0,0,.45,0L70,128a.16.16,0,0,0,0-.26Zm2.08-1.2L71,126a.53.53,0,0,0-.46,0l-1.28.74c-.13.07-.13.19,0,.26l1.08.63a.51.51,0,0,0,.45,0l1.29-.74a.15.15,0,0,0,.08-.2.23.23,0,0,0-.07-.07ZM40.38,138.33l-1.08-.63a.51.51,0,0,0-.45,0l-2,1.13c-.13.07-.13.19,0,.26l1.08.63a.51.51,0,0,0,.45,0l2-1.13c.13-.07.13-.19,0-.26Zm2.08-1.2-1.08-.63a.53.53,0,0,0-.46,0l-1.28.75c-.13.07-.13.19,0,.26l1.08.62a.51.51,0,0,0,.45,0l1.29-.74a.14.14,0,0,0,.08-.18s0-.07-.08-.08Zm2.08-1.2-1.09-.63a.51.51,0,0,0-.45,0l-1.29.75a.14.14,0,0,0-.08.18s0,.07.08.08l1.09.62a.51.51,0,0,0,.45,0l1.29-.74a.14.14,0,0,0,.08-.18.15.15,0,0,0-.08-.08Zm2.07-1.2-1.08-.63a.51.51,0,0,0-.45,0l-1.29.75a.14.14,0,0,0-.08.18s0,.07.08.08l1.08.62a.47.47,0,0,0,.46,0l1.28-.74c.13-.07.13-.19,0-.26Zm2.08-1.2-1.08-.63a.51.51,0,0,0-.45,0l-1.29.75c-.13.07-.13.19,0,.26l1.08.62a.45.45,0,0,0,.45,0l1.29-.74c.13-.07.13-.19,0-.26Zm2.08-1.2-1.08-.63a.53.53,0,0,0-.46,0l-1.28.75c-.13.07-.13.19,0,.26l1.08.62a.45.45,0,0,0,.45,0l1.29-.74a.14.14,0,0,0,.08-.18s0-.07-.08-.08Zm2.08-1.2-1.09-.62a.45.45,0,0,0-.45,0l-1.29.74a.14.14,0,0,0-.08.18s0,.07.08.08l1.09.62a.45.45,0,0,0,.45,0l1.29-.74a.14.14,0,0,0,.08-.18s0-.07-.08-.08Zm2.07-1.2-1.08-.62a.45.45,0,0,0-.45,0l-1.29.74a.14.14,0,0,0-.08.18s0,.07.08.08l1.08.63a.53.53,0,0,0,.46,0l1.28-.75c.13-.07.13-.19,0-.26Zm2.08-1.2-1.08-.62a.45.45,0,0,0-.45,0l-1.29.74c-.13.07-.13.19,0,.26l1.08.63a.51.51,0,0,0,.45,0L57,129c.13-.07.13-.19,0-.26Zm2.08-1.2L58,126.91a.47.47,0,0,0-.46,0l-1.28.74c-.13.07-.13.19,0,.26l1.08.63a.51.51,0,0,0,.45,0l1.29-.75a.14.14,0,0,0,.12-.16.14.14,0,0,0-.07-.1ZM41.55,139.81l-1.08-.63a.51.51,0,0,0-.45,0l-1.29.75c-.13.07-.13.19,0,.26l1.08.62a.45.45,0,0,0,.45,0l1.29-.74c.13-.07.13-.19,0-.26Zm2.08-1.2L42.55,138a.53.53,0,0,0-.46,0l-1.28.75c-.13.07-.13.19,0,.26l1.08.62a.45.45,0,0,0,.45,0l1.29-.74a.14.14,0,0,0,.08-.18s0-.07-.08-.08Zm2.08-1.2-1.09-.63a.51.51,0,0,0-.45,0l-1.29.75a.14.14,0,0,0-.08.18s0,.07.08.08l1.09.62a.45.45,0,0,0,.45,0l1.29-.74a.14.14,0,0,0,.08-.18s0-.07-.08-.08Zm2.07-1.2-1.08-.62a.45.45,0,0,0-.45,0l-1.29.74a.14.14,0,0,0-.08.18s0,.07.08.08l1.08.62a.47.47,0,0,0,.46,0l1.28-.74c.13-.07.13-.19,0-.27ZM45.32,142l-1.08-.62a.53.53,0,0,0-.46,0l-1.28.74c-.13.07-.13.19,0,.26l1.08.63a.51.51,0,0,0,.45,0l1.29-.74a.15.15,0,0,0,.07-.2.16.16,0,0,0-.07-.07Zm2.08-1.2-1.09-.62a.51.51,0,0,0-.45,0l-1.29.74a.14.14,0,0,0-.08.18s0,.07.08.08l1.09.63a.51.51,0,0,0,.45,0l1.29-.74a.15.15,0,0,0,.07-.2.12.12,0,0,0-.07-.07Zm2.07-1.19L48.39,139a.51.51,0,0,0-.45,0l-1.29.74c-.12.08-.12.19,0,.26l1.08.63a.53.53,0,0,0,.46,0l1.28-.74c.13-.08.13-.19,0-.26Zm2.08-1.2-1.08-.63a.51.51,0,0,0-.45,0l-1.29.74c-.13.08-.13.19,0,.27l1.08.62a.51.51,0,0,0,.45,0l1.29-.74c.13-.08.13-.19,0-.26Zm13.12-7.58-1.08-.63a.51.51,0,0,0-.45,0l-2,1.13a.15.15,0,0,0-.07.2.16.16,0,0,0,.07.07l1.09.62a.51.51,0,0,0,.45,0l2-1.13c.12-.07.12-.19,0-.26ZM49.86,135l-1.08-.62a.45.45,0,0,0-.45,0l-1.29.74c-.13.07-.13.19,0,.26l1.08.63a.51.51,0,0,0,.45,0l1.29-.75c.13-.07.13-.19,0-.26Zm2.08-1.2-1.08-.62a.47.47,0,0,0-.46,0l-1.28.74c-.13.07-.13.19,0,.26l1.08.63a.51.51,0,0,0,.45,0l1.29-.75a.14.14,0,0,0,.08-.18.15.15,0,0,0-.08-.08Zm2.08-1.2L52.93,132a.45.45,0,0,0-.45,0l-1.29.74a.14.14,0,0,0-.08.18s0,.07.08.08l1.09.63a.51.51,0,0,0,.45,0l1.29-.75a.14.14,0,0,0,.08-.18s0-.07-.08-.08Zm2.07-1.2L55,130.79a.51.51,0,0,0-.45,0l-1.29.74a.14.14,0,0,0-.08.18s0,.07.08.08l1.08.63a.53.53,0,0,0,.46,0l1.28-.75c.13-.07.13-.19,0-.26Zm2-1.21-1.08-.62a.51.51,0,0,0-.45,0l-1.29.74c-.13.07-.13.19,0,.26l1.08.63a.51.51,0,0,0,.45,0l1.29-.75C58.3,130.4,58.3,130.28,58.13,130.2Zm2.75-1.58L59.8,128a.53.53,0,0,0-.46,0l-2,1.13c-.13.07-.13.19,0,.26l1.08.63a.51.51,0,0,0,.45,0l2-1.13a.14.14,0,0,0,.06-.19.12.12,0,0,0-.06-.06ZM44.13,140.51,43,139.88a.51.51,0,0,0-.45,0l-2,1.13a.14.14,0,0,0-.08.18s0,.07.08.08l1.09.63a.51.51,0,0,0,.45,0l2-1.13a.14.14,0,0,0,.08-.18S44.17,140.52,44.13,140.51Zm2.07-1.2-1.08-.63a.51.51,0,0,0-.45,0l-1.29.75c-.12.07-.12.18,0,.26l1.08.62a.53.53,0,0,0,.46,0l1.28-.74c.16-.07.16-.19,0-.26Zm2.08-1.2-1.08-.63a.51.51,0,0,0-.45,0l-1.29.75c-.13.07-.13.19,0,.26l1.08.62a.51.51,0,0,0,.45,0l1.29-.74c.16-.07.16-.17,0-.26Zm2.08-1.2-1.08-.63a.53.53,0,0,0-.46,0l-1.28.75c-.13.07-.13.19,0,.26l1.08.62a.51.51,0,0,0,.45,0l1.29-.74a.15.15,0,0,0,.1-.17.13.13,0,0,0-.07-.09Zm2.08-1.2-1.09-.63a.51.51,0,0,0-.45,0l-1.29.75a.14.14,0,0,0-.08.18s0,.07.08.08l1.09.62a.45.45,0,0,0,.45,0l1.29-.74a.15.15,0,0,0,.1-.17.13.13,0,0,0-.07-.09Zm9.5-3.32-1.08-.63a.51.51,0,0,0-.45,0l-9.62,5.56c-.13.07-.13.19,0,.26l1.08.63a.51.51,0,0,0,.45,0l9.62-5.56c.19-.07.19-.19,0-.26Zm-7.43,2.12-1.08-.63a.51.51,0,0,0-.45,0l-1.29.75a.14.14,0,0,0-.08.18s0,.07.08.08l1.08.62a.47.47,0,0,0,.46,0l1.28-.74c.16-.07.16-.19,0-.26Zm2.08-1.2-1.08-.62a.45.45,0,0,0-.45,0l-1.29.74c-.13.07-.13.19,0,.26l1.08.62a.45.45,0,0,0,.45,0l1.29-.74c.16-.07.16-.19,0-.26Zm2.08-1.2-1.08-.62a.47.47,0,0,0-.46,0l-1.28.74c-.13.07-.13.19,0,.26l1.08.62a.45.45,0,0,0,.45,0l1.29-.74a.15.15,0,0,0,.1-.17.13.13,0,0,0-.07-.09Zm2.08-1.2-1.09-.62a.45.45,0,0,0-.45,0l-1.29.74a.14.14,0,0,0-.08.18s0,.07.08.08l1.09.63a.51.51,0,0,0,.45,0l1.29-.75a.15.15,0,0,0,.1-.17.13.13,0,0,0-.07-.09Zm2.07-1.2-1.08-.62a.45.45,0,0,0-.45,0l-1.29.74a.14.14,0,0,0-.08.18s0,.07.08.08l1.08.63a.53.53,0,0,0,.46,0l1.28-.75c.16-.07.16-.19,0-.26Zm-2.47-5.12L59.26,124a.51.51,0,0,0-.45,0l-1.29.74a.14.14,0,0,0-.08.18s0,.07.08.08l1.09.63a.51.51,0,0,0,.45,0l1.29-.75a.15.15,0,0,0,.1-.17.13.13,0,0,0-.07-.09Zm2.07-1.2-1.08-.62a.51.51,0,0,0-.45,0l-1.29.74a.14.14,0,0,0-.08.18s0,.07.08.08l1.08.63a.53.53,0,0,0,.46,0l1.28-.75c.16-.07.16-.18,0-.26Zm2.08-1.2-1.08-.62a.51.51,0,0,0-.45,0l-1.29.74a.14.14,0,0,0-.08.18s0,.07.08.08l1.08.63a.51.51,0,0,0,.45,0l1.29-.75c.16-.07.16-.18,0-.25Zm1.9,1.1-1.09-.63a.51.51,0,0,0-.45,0l-1.29.75c-.12.07-.12.18,0,.26l1.09.62a.51.51,0,0,0,.45,0l1.29-.74a.15.15,0,0,0,.1-.17.13.13,0,0,0-.07-.09Zm1.84,1-1.06-.61a.42.42,0,0,0-.38,0l-1.81,1a.36.36,0,0,1-.32,0l-1.42-.82a.64.64,0,0,0-.57,0l-3.26,1.88a.17.17,0,0,0-.1.22.14.14,0,0,0,.1.1l2.85,1.65a.68.68,0,0,0,.56,0l5.41-3.13a.18.18,0,0,0,.07-.23.1.1,0,0,0,0,0Z" transform="translate(0.04 0)"/><path class="cls-44" d="M37.78,137.7l-1.29.74a.45.45,0,0,1-.45,0L35,137.82a.14.14,0,0,1-.08-.18s0-.07.08-.08l1.29-.74a.45.45,0,0,1,.45,0l1.09.62a.14.14,0,0,1,.08.18S37.82,137.69,37.78,137.7Zm2.07-1.46-1.08-.62a.45.45,0,0,0-.45,0l-1.29.74a.14.14,0,0,0-.08.18s0,.07.08.08l1.1.58a.47.47,0,0,0,.46,0l1.28-.74c.11,0,.11-.15,0-.26Zm2.08-1.2-1.08-.62a.45.45,0,0,0-.45,0l-1.27.78c-.13.07-.13.19,0,.26l1.08.63a.51.51,0,0,0,.45,0l1.29-.75C42.06,135.2,42.06,135.11,41.93,135Zm2.08-1.2-1.08-.64a.47.47,0,0,0-.46,0l-1.28.74c-.13.07-.13.19,0,.26l1.08.63a.51.51,0,0,0,.45,0l1.29-.75a.14.14,0,0,0,.05-.19l-.05,0Zm2.08-1.2L45,132a.45.45,0,0,0-.45,0l-1.29.74a.14.14,0,0,0-.08.18s0,.07.08.08l1.09.63a.51.51,0,0,0,.45,0l1.29-.75a.14.14,0,0,0,.11-.16.13.13,0,0,0-.07-.1Zm2.07-1.2-1.08-.62a.51.51,0,0,0-.45,0l-1.29.74a.14.14,0,0,0-.08.18s0,.07.08.08l1.08.63a.53.53,0,0,0,.46,0l1.28-.75c.13-.07.13-.19,0-.26Zm2.08-1.2-1.08-.62a.51.51,0,0,0-.45,0l-1.29.74c-.13.07-.13.19,0,.26l1.08.63a.51.51,0,0,0,.45,0l1.29-.75c.13-.07.13-.19,0-.3Zm2.08-1.2-1.08-.62a.53.53,0,0,0-.46,0l-1.28.74c-.13.07-.13.19,0,.26l1.08.63a.51.51,0,0,0,.45,0l1.29-.75c.12-.1.12-.18,0-.26Zm2.08-1.2-1.09-.62a.51.51,0,0,0-.45,0l-1.29.74a.14.14,0,0,0-.08.18s0,.07.08.08l1.09.63a.51.51,0,0,0,.45,0l1.29-.74a.15.15,0,0,0,.08-.2.14.14,0,0,0-.08-.07Zm2.74-1.58-1.08-.63a.51.51,0,0,0-.45,0l-2,1.13a.14.14,0,0,0-.08.18s0,.07.08.08l1.08.63a.53.53,0,0,0,.46,0l2-1.13c.17-.07.17-.19,0-.26Zm8.92,1.43L65,127.06a.51.51,0,0,0-.45,0l-1.29.75c-.12.07-.12.18,0,.26l1.08.62a.53.53,0,0,0,.46,0l1.28-.74c.13-.07.13-.19,0-.26Zm2.08-1.2-1.08-.63a.51.51,0,0,0-.45,0l-1.29.75c-.13.07-.13.18,0,.26l1.08.62a.51.51,0,0,0,.45,0l1.29-.74c.13-.07.13-.19,0-.26Zm2.08-1.2-1.08-.63a.53.53,0,0,0-.46,0l-1.28.75c-.13.07-.13.19,0,.26l1.08.62a.51.51,0,0,0,.45,0l1.29-.74a.15.15,0,0,0,.08-.18.15.15,0,0,0-.08-.08ZM68,128.78l-1.08-.62a.51.51,0,0,0-.45,0l-1.29.74a.14.14,0,0,0-.08.18s0,.07.08.08l1.08.63a.53.53,0,0,0,.46,0l1.28-.74c.17-.08.17-.19,0-.27Zm2.08-1.2L69,127a.51.51,0,0,0-.45,0l-1.29.74c-.13.07-.13.19,0,.26l1.08.63a.51.51,0,0,0,.45,0l1.29-.74a.17.17,0,0,0,0-.27Zm2.08-1.2L71,125.76a.53.53,0,0,0-.46,0l-1.28.74c-.13.08-.13.19,0,.26l1.08.63a.51.51,0,0,0,.45,0l1.29-.74a.15.15,0,0,0,.08-.2.23.23,0,0,0-.07-.07ZM40.38,138.14l-1.08-.63a.51.51,0,0,0-.45,0l-2,1.13c-.13.08-.13.19,0,.26l1.08.63a.51.51,0,0,0,.45,0l2-1.13c.13-.07.13-.2,0-.26Zm2.08-1.2-1.08-.63a.53.53,0,0,0-.46,0l-1.28.75c-.13.07-.13.19,0,.26l1.08.62a.45.45,0,0,0,.45,0l1.29-.74a.14.14,0,0,0,.08-.18s0-.07-.08-.08Zm2.08-1.2-1.09-.63a.51.51,0,0,0-.45,0l-1.29.75a.14.14,0,0,0-.08.18s0,.07.08.08l1.09.62a.45.45,0,0,0,.45,0l1.29-.74a.14.14,0,0,0,.08-.18s0-.07-.08-.08Zm2.07-1.2-1.08-.63a.51.51,0,0,0-.45,0l-1.29.75a.14.14,0,0,0-.08.18s0,.07.08.08l1.08.62a.47.47,0,0,0,.46,0l1.28-.74c.13-.07.13-.19,0-.26Zm2.08-1.2-1.08-.62a.45.45,0,0,0-.45,0l-1.29.74c-.13.07-.13.19,0,.26l1.08.62a.45.45,0,0,0,.45,0l1.29-.74c.13-.07.13-.19,0-.26Zm2.08-1.2-1.08-.62a.47.47,0,0,0-.46,0l-1.28.74c-.13.07-.13.19,0,.26l1.08.62a.45.45,0,0,0,.45,0l1.29-.74a.14.14,0,0,0,.08-.18s0-.07-.08-.08Zm2.08-1.2-1.09-.62a.45.45,0,0,0-.45,0l-1.29.74a.14.14,0,0,0-.08.18s0,.07.08.08l1.09.63a.51.51,0,0,0,.45,0l1.29-.75a.14.14,0,0,0,.08-.18s0-.07-.08-.08Zm2.07-1.2-1.08-.62a.45.45,0,0,0-.45,0l-1.29.74A.14.14,0,0,0,52,130s0,.07.08.08l1.08.63a.53.53,0,0,0,.46,0l1.28-.75c.13-.07.13-.19,0-.26Zm2.08-1.2-1.08-.62a.51.51,0,0,0-.45,0l-1.29.74c-.13.07-.13.19,0,.26l1.08.63a.51.51,0,0,0,.45,0L57,128.8c.13-.07.13-.19,0-.26Zm2.08-1.2L58,126.72a.53.53,0,0,0-.46,0l-1.28.74c-.13.07-.13.19,0,.26l1.08.63a.51.51,0,0,0,.45,0l1.29-.75a.14.14,0,0,0,.12-.16.14.14,0,0,0-.07-.1ZM41.55,139.62,40.47,139a.45.45,0,0,0-.45,0l-1.29.74c-.13.07-.13.19,0,.26l1.08.62a.45.45,0,0,0,.45,0l1.29-.74c.13-.07.13-.19,0-.26Zm2.08-1.2-1.08-.62a.47.47,0,0,0-.46,0l-1.28.74c-.13.07-.13.19,0,.26l1.08.62a.45.45,0,0,0,.45,0l1.29-.74a.14.14,0,0,0,.08-.18.15.15,0,0,0-.08-.08Zm2.08-1.2-1.09-.62a.45.45,0,0,0-.45,0l-1.29.74a.14.14,0,0,0-.08.18s0,.07.08.08l1.09.63a.51.51,0,0,0,.45,0l1.29-.75a.14.14,0,0,0,.13-.15.13.13,0,0,0-.13-.13Zm2.07-1.2-1.08-.62a.45.45,0,0,0-.45,0l-1.29.74a.14.14,0,0,0-.08.18s0,.07.08.08L46,137a.53.53,0,0,0,.46,0l1.28-.75c.13-.08.13-.19,0-.26Zm-2.46,5.78-1.08-.63a.53.53,0,0,0-.46,0l-1.28.74c-.13.08-.13.19,0,.26l1.08.63a.51.51,0,0,0,.45,0l1.29-.74c.12-.08.12-.19,0-.26Zm2.08-1.2L46.31,140a.51.51,0,0,0-.45,0l-1.29.74a.15.15,0,0,0-.07.2.16.16,0,0,0,.07.07l1.09.62a.51.51,0,0,0,.45,0l1.29-.74c.12-.08.12-.19,0-.26Zm2.07-1.2-1.08-.63a.51.51,0,0,0-.45,0l-1.29.74a.15.15,0,0,0-.07.2.16.16,0,0,0,.07.07l1.08.62a.53.53,0,0,0,.46,0l1.28-.74c.13-.07.13-.19,0-.26Zm2.08-1.2-1.08-.63a.51.51,0,0,0-.45,0l-1.29.74c-.13.08-.13.19,0,.27l1.08.62a.51.51,0,0,0,.45,0l1.29-.74c.13-.07.13-.19,0-.26Zm13.12-7.58L63.59,130a.51.51,0,0,0-.45,0l-2,1.13a.15.15,0,0,0-.07.2.16.16,0,0,0,.07.07l1.09.62a.51.51,0,0,0,.45,0l2-1.13c.12-.07.12-.19,0-.26Zm-14.81,4.2-1.08-.62a.45.45,0,0,0-.45,0l-1.29.74c-.13.07-.13.19,0,.26l1.08.63a.51.51,0,0,0,.45,0l1.29-.75c.13-.07.13-.19,0-.26Zm2.08-1.2L50.86,133a.53.53,0,0,0-.46,0l-1.28.74c-.13.07-.13.19,0,.26l1.08.63a.51.51,0,0,0,.45,0l1.29-.75a.14.14,0,0,0,.08-.18s0-.07-.08-.08Zm2.08-1.2-1.09-.62a.51.51,0,0,0-.45,0l-1.29.74a.14.14,0,0,0-.08.18s0,.07.08.08l1.09.63a.51.51,0,0,0,.45,0l1.29-.75a.14.14,0,0,0,.08-.18s0-.07-.08-.08Zm2.11-1.22-1.08-.62a.51.51,0,0,0-.45,0l-1.29.74a.14.14,0,0,0-.08.18s0,.07.08.08l1.08.63a.53.53,0,0,0,.46,0l1.28-.75C56.22,131.41,56.22,131.3,56.13,131.2Zm2.08-1.2-1.08-.6a.51.51,0,0,0-.45,0l-1.29.74c-.13.07-.13.19,0,.26l1.08.63a.51.51,0,0,0,.45,0l1.29-.75c.09-.08.09-.18-.08-.26ZM61,128.42l-1.08-.63a.53.53,0,0,0-.46,0l-2,1.13c-.13.07-.13.19,0,.26l1.08.63a.51.51,0,0,0,.45,0l2-1.13a.13.13,0,0,0,0-.2.12.12,0,0,0-.08,0Zm-16.83,11.9L43,139.69a.51.51,0,0,0-.45,0l-2,1.13c-.12.08-.12.19,0,.26l1.09.63a.51.51,0,0,0,.45,0l2-1.13a.14.14,0,0,0,.08-.18S44.17,140.33,44.13,140.32Zm2.07-1.2-1.08-.63a.51.51,0,0,0-.45,0l-1.29.75a.14.14,0,0,0-.08.18s0,.07.08.08l1.08.62a.47.47,0,0,0,.46,0l1.28-.74c.16-.07.16-.18,0-.26Zm2.08-1.2-1.08-.63a.51.51,0,0,0-.45,0l-1.29.75c-.13.07-.13.19,0,.26l1.08.62a.45.45,0,0,0,.45,0l1.29-.74c.16-.07.16-.19,0-.26Zm2.08-1.2-1.08-.63a.53.53,0,0,0-.46,0l-1.28.75c-.13.07-.13.19,0,.26l1.08.62a.45.45,0,0,0,.45,0l1.29-.74a.15.15,0,0,0,.1-.17.13.13,0,0,0-.07-.09Zm2.08-1.2-1.09-.62a.45.45,0,0,0-.45,0l-1.29.74a.14.14,0,0,0-.08.18s0,.07.08.08l1.09.62a.45.45,0,0,0,.45,0l1.29-.74a.15.15,0,0,0,.1-.17.13.13,0,0,0-.07-.09Zm9.5-3.32-1.08-.62a.45.45,0,0,0-.45,0l-9.62,5.55c-.13.07-.13.19,0,.26l1.08.63a.51.51,0,0,0,.45,0l9.62-5.56c.19-.07.19-.19,0-.26Zm-7.43,2.12-1.08-.62a.45.45,0,0,0-.45,0l-1.29.74a.14.14,0,0,0-.08.18s0,.07.08.08l1.08.62a.47.47,0,0,0,.46,0l1.28-.74c.16-.07.16-.19,0-.26Zm2.08-1.2-1.08-.62a.45.45,0,0,0-.45,0l-1.29.74c-.13.07-.13.19,0,.26l1.08.63a.51.51,0,0,0,.45,0l1.29-.75c.16-.07.16-.18,0-.26Zm2.08-1.2-1.08-.62a.47.47,0,0,0-.46,0l-1.28.74c-.13.07-.13.19,0,.26l1.08.63a.51.51,0,0,0,.45,0l1.29-.75a.15.15,0,0,0,.1-.17.13.13,0,0,0-.07-.09Zm2.08-1.2-1.09-.62a.45.45,0,0,0-.45,0l-1.29.74a.14.14,0,0,0-.08.18s0,.07.08.08l1.09.63a.51.51,0,0,0,.45,0l1.29-.75a.15.15,0,0,0,.1-.17.13.13,0,0,0-.07-.09Zm2.07-1.2-1.08-.62a.51.51,0,0,0-.45,0l-1.29.74a.14.14,0,0,0-.08.18s0,.07.08.08l1.08.63a.53.53,0,0,0,.46,0l1.28-.75c.16-.07.16-.19,0-.26Zm-2.47-5.12-1.09-.62a.51.51,0,0,0-.45,0l-1.29.74a.14.14,0,0,0-.08.18s0,.07.08.08l1.09.63a.51.51,0,0,0,.45,0l1.29-.74a.14.14,0,0,0,.09-.19.16.16,0,0,0-.06-.08Zm2.07-1.2-1.08-.62a.51.51,0,0,0-.45,0l-1.29.74a.14.14,0,0,0-.08.18s0,.07.08.08l1.08.63a.53.53,0,0,0,.46,0l1.28-.74c.16-.08.16-.19,0-.27ZM64.5,122l-1.08-.62a.51.51,0,0,0-.45,0l-1.29.74a.14.14,0,0,0-.08.18s0,.07.08.08l1.08.63a.51.51,0,0,0,.45,0l1.29-.74c.16-.07.16-.19,0-.27Zm1.9,1.1-1.09-.63a.51.51,0,0,0-.45,0l-1.29.75a.14.14,0,0,0-.08.18s0,.07.08.08l1.09.62a.45.45,0,0,0,.45,0l1.29-.74a.15.15,0,0,0,.1-.17.13.13,0,0,0-.07-.09Zm1.84,1-1.06-.61a.42.42,0,0,0-.38,0l-1.81,1a.36.36,0,0,1-.32,0l-1.42-.82a.64.64,0,0,0-.57,0l-3.26,1.88a.18.18,0,0,0-.09.24.2.2,0,0,0,.09.09l2.85,1.64a.61.61,0,0,0,.56,0l5.41-3.13a.18.18,0,0,0,.07-.23.1.1,0,0,0,0,0Z" transform="translate(0.04 0)"/><path class="cls-45" d="M116.39,106.61v-.23a4,4,0,0,0-.09-.48,1.28,1.28,0,0,0-.07-.28c0-.09-.09-.3-.14-.45s-.06-.19-.1-.29,0-.15-.08-.22l-.09-.2-.16-.34c-.06-.13-.13-.26-.2-.39s-.12-.22-.19-.33A2.92,2.92,0,0,0,115,103l-.21-.31-.27-.35-.24-.29-.09-.1c-.13-.14-.26-.28-.4-.41l-7.21-6.83-7.55-7.16a1.24,1.24,0,0,0-.23-.17.53.53,0,0,0-.52,0l-10.39,6-23.29,13.5a.51.51,0,0,1,.52,0,1.24,1.24,0,0,1,.23.17l7.55,7.16,7.21,6.83c.17.16.33.34.49.51l.24.29.27.35.21.31a2.92,2.92,0,0,1,.24.37c.07.11.13.22.19.33s.14.26.2.39l.16.34c.06.14.12.28.17.42s.07.19.1.29.1.3.14.45,0,.18.07.28a4,4,0,0,1,.09.48v.23q0,.34,0,.69v1.68L116.35,109V107.3A5.32,5.32,0,0,0,116.39,106.61Z" transform="translate(0.04 0)"/><path class="cls-38" d="M80.13,121.12l-7.21-6.83-7.55-7.16a1.24,1.24,0,0,0-.23-.17c-.39-.22-.73-.06-.73.42v10.53l18.4,10.62v-1.68A8.47,8.47,0,0,0,80.13,121.12Z" transform="translate(0.04 0)"/><polygon class="cls-39" points="88.76 96.69 72.15 106.35 82.63 116.28 99.24 106.62 88.76 96.69"/><polygon class="cls-46" points="72.84 107.01 82.63 116.28 98.54 107.03 88.76 97.75 72.84 107.01"/><path class="cls-47" d="M91.87,97.51a1.1,1.1,0,0,1-.21.14,1,1,0,0,1-.35.07h-.12a1,1,0,0,1-.25,0l-.19-.08-.18-.07a1.43,1.43,0,0,1-.32-.28.73.73,0,0,1-.16-.77l-.07.16a.73.73,0,0,0,.16.77,1.09,1.09,0,0,0,.33.27h0l.16.07c.07,0,.13.06.19.07h.34a1.05,1.05,0,0,0,.35-.08.74.74,0,0,0,.21-.13h0a.46.46,0,0,0,.13-.18l.07-.15A.66.66,0,0,1,91.87,97.51Z" transform="translate(0.04 0)"/><path class="cls-44" d="M91.83,96.55a1.3,1.3,0,0,0-1.4-.39.67.67,0,0,0-.34.87.69.69,0,0,0,.16.22,1.3,1.3,0,0,0,1.41.4.66.66,0,0,0,.17-1.1Z" transform="translate(0.04 0)"/><path class="cls-47" d="M94.54,100a.6.6,0,0,1-.21.14,1.05,1.05,0,0,1-.35.08h-.12a1,1,0,0,1-.25,0l-.19-.07-.17-.08a1.09,1.09,0,0,1-.33-.27.75.75,0,0,1-.16-.77l-.07.15a.73.73,0,0,0,.16.77,1.09,1.09,0,0,0,.33.27h0l.16.06.19.08h0a.81.81,0,0,0,.22,0h.13a1,1,0,0,0,.34-.07.77.77,0,0,0,.21-.14h0a.46.46,0,0,0,.13-.18l.07-.16A.66.66,0,0,1,94.54,100Z" transform="translate(0.04 0)"/><path class="cls-44" d="M94.5,99.05a1.27,1.27,0,0,0-1.4-.39.67.67,0,0,0-.34.87.69.69,0,0,0,.16.22,1.28,1.28,0,0,0,1.41.39.65.65,0,0,0,.34-.85A.59.59,0,0,0,94.5,99.05Z" transform="translate(0.04 0)"/><path class="cls-47" d="M97.21,102.5a.77.77,0,0,1-.21.14,1,1,0,0,1-.34.07h-.38l-.19-.08a.53.53,0,0,1-.17-.08,1.09,1.09,0,0,1-.33-.27.73.73,0,0,1-.16-.77l-.07.16a.73.73,0,0,0,.16.76,1.75,1.75,0,0,0,.33.28h0l.15.07.2.07h.35a1.05,1.05,0,0,0,.35-.08.48.48,0,0,0,.2-.14h0a.46.46,0,0,0,.13-.18l.07-.15A.72.72,0,0,1,97.21,102.5Z" transform="translate(0.04 0)"/><path class="cls-44" d="M97.13,101.54a1.28,1.28,0,0,0-1.4-.39.67.67,0,0,0-.34.87.69.69,0,0,0,.16.22,1.3,1.3,0,0,0,1.41.4.66.66,0,0,0,.17-1.1Z" transform="translate(0.04 0)"/><path class="cls-47" d="M99.88,105a.49.49,0,0,1-.21.14,1,1,0,0,1-.34.08H99.2a1,1,0,0,1-.24,0l-.2-.07-.17-.08a1.75,1.75,0,0,1-.33-.28.73.73,0,0,1-.16-.76l-.07.15a.73.73,0,0,0,.16.77,1.09,1.09,0,0,0,.33.27h0a.44.44,0,0,0,.16.06l.19.08h.35a1,1,0,0,0,.35-.07.9.9,0,0,0,.2-.14h0a.59.59,0,0,0,.13-.18l.07-.16A.48.48,0,0,1,99.88,105Z" transform="translate(0.04 0)"/><path class="cls-44" d="M99.84,104a1.29,1.29,0,0,0-1.4-.4.67.67,0,0,0-.34.87.69.69,0,0,0,.16.22,1.27,1.27,0,0,0,1.41.4.65.65,0,0,0,.34-.85A.59.59,0,0,0,99.84,104Z" transform="translate(0.04 0)"/><path class="cls-47" d="M72.13,108.76a.56.56,0,0,1-.2.14,1.05,1.05,0,0,1-.35.08h-.37l-.19-.07-.18-.08a1.75,1.75,0,0,1-.33-.28.73.73,0,0,1-.16-.76l-.07.15a.73.73,0,0,0,.16.77,1.4,1.4,0,0,0,.33.27h0l.16.06.19.08h.35a1.05,1.05,0,0,0,.35-.08.63.63,0,0,0,.2-.13h0a.94.94,0,0,0,.12-.18l.07-.16A.46.46,0,0,1,72.13,108.76Z" transform="translate(0.04 0)"/><path class="cls-44" d="M72.13,107.81a1.3,1.3,0,0,0-1.41-.4.67.67,0,0,0-.34.87.69.69,0,0,0,.16.22,1.31,1.31,0,0,0,1.42.4.66.66,0,0,0,.33-.87A.6.6,0,0,0,72.13,107.81Z" transform="translate(0.04 0)"/><path class="cls-47" d="M74.79,111.26a.63.63,0,0,1-.2.13,1.05,1.05,0,0,1-.35.08h-.35l-.19-.08-.18-.08a1.22,1.22,0,0,1-.33-.27.73.73,0,0,1-.16-.77l-.07.16a.74.74,0,0,0,.17.76,1.43,1.43,0,0,0,.32.28h0l.16.06.19.08h0a.89.89,0,0,0,.23,0,.24.24,0,0,0,.12,0,.84.84,0,0,0,.35-.07.6.6,0,0,0,.21-.14h0a.57.57,0,0,0,.12-.18l.07-.15A.72.72,0,0,1,74.79,111.26Z" transform="translate(0.04 0)"/><path class="cls-44" d="M74.76,110.3a1.29,1.29,0,0,0-1.41-.39.67.67,0,0,0-.34.87.69.69,0,0,0,.16.22,1.3,1.3,0,0,0,1.42.39.66.66,0,0,0,.33-.87A.6.6,0,0,0,74.76,110.3Z" transform="translate(0.04 0)"/><path class="cls-47" d="M77.47,113.75a.6.6,0,0,1-.21.14.84.84,0,0,1-.35.07.24.24,0,0,1-.12,0,1,1,0,0,1-.25,0l-.19-.08-.18-.07a1.43,1.43,0,0,1-.32-.28.72.72,0,0,1-.17-.76l-.06.15a.73.73,0,0,0,.16.77,1.18,1.18,0,0,0,.32.27h0l.16.07.19.08h.34a1.05,1.05,0,0,0,.35-.08.74.74,0,0,0,.21-.13h0a.8.8,0,0,0,.13-.19l.06-.15A.62.62,0,0,1,77.47,113.75Z" transform="translate(0.04 0)"/><path class="cls-44" d="M77.43,112.8a1.29,1.29,0,0,0-1.4-.4.65.65,0,0,0-.35.85.66.66,0,0,0,.17.24,1.27,1.27,0,0,0,1.41.4.66.66,0,0,0,.33-.87A.6.6,0,0,0,77.43,112.8Z" transform="translate(0.04 0)"/><path class="cls-47" d="M80.13,116.25a.74.74,0,0,1-.21.13,1.05,1.05,0,0,1-.35.08H79.2l-.19-.08-.18-.08a1.18,1.18,0,0,1-.32-.27.73.73,0,0,1-.16-.77l-.07.15a.73.73,0,0,0,.16.77,1.26,1.26,0,0,0,.33.28h0l.16.06.19.08h0a.81.81,0,0,0,.22,0h.12a.84.84,0,0,0,.35-.07.6.6,0,0,0,.21-.14h0a.46.46,0,0,0,.13-.18l.07-.16A.72.72,0,0,1,80.13,116.25Z" transform="translate(0.04 0)"/><path class="cls-44" d="M80.13,115.29a1.28,1.28,0,0,0-1.4-.39.67.67,0,0,0-.34.87.69.69,0,0,0,.16.22,1.28,1.28,0,0,0,1.41.39.65.65,0,0,0,.34-.85A.59.59,0,0,0,80.13,115.29Z" transform="translate(0.04 0)"/><path class="cls-47" d="M103.13,97.2a.39.39,0,0,0-.08.1l-.17.19-.22.18-.1.08a2.42,2.42,0,0,1-.39.21,2.7,2.7,0,0,1-.57.18.67.67,0,0,1-.2,0l-.4,0h-.25a2.41,2.41,0,0,1-.38,0h-.27l-.36-.08-.33-.1-.31-.11-.32-.16-.29-.15c-.14-.09-.26-.18-.39-.28l-.2-.14a6.14,6.14,0,0,1-.51-.51A2.92,2.92,0,0,1,96.68,95a2.17,2.17,0,0,1,.16-.94h0l-.23.53a2.51,2.51,0,0,0,.55,2.61,3.08,3.08,0,0,0,.51.51l.19.14a3.6,3.6,0,0,0,.4.28h.06a1,1,0,0,0,.23.12l.32.15.31.11.33.11h.08l.28.05.27,0h.63a2.73,2.73,0,0,0,.4,0h.2a3.47,3.47,0,0,0,.57-.19,2.42,2.42,0,0,0,.39-.21l.11-.09a1.2,1.2,0,0,0,.21-.17h0c.07-.06.11-.13.17-.19a.39.39,0,0,0,.08-.1,1.74,1.74,0,0,0,.18-.33l.24-.52A2.37,2.37,0,0,1,103.13,97.2Z" transform="translate(0.04 0)"/><path class="cls-48" d="M102.76,94.2A4.35,4.35,0,0,0,98,92.86c-1.49.65-1.75,2.31-.6,3.7a4.38,4.38,0,0,0,4.78,1.34C103.66,97.28,103.92,95.62,102.76,94.2Z" transform="translate(0.04 0)"/><path class="cls-49" d="M102.3,94.4a3.77,3.77,0,0,0-2.83-1.32,2.77,2.77,0,0,0-1.1.22,1.76,1.76,0,0,0-1.06,1.21,2.19,2.19,0,0,0,.55,1.91,3.79,3.79,0,0,0,2.82,1.31,2.65,2.65,0,0,0,1.11-.22,1.72,1.72,0,0,0,1.06-1.21A2.18,2.18,0,0,0,102.3,94.4Zm.35,1.85a1.59,1.59,0,0,1-1,1.07,2.66,2.66,0,0,1-1,.2A3.62,3.62,0,0,1,98,96.28a2,2,0,0,1-.51-1.72,1.54,1.54,0,0,1,.94-1.06,2.46,2.46,0,0,1,1-.21,3.6,3.6,0,0,1,2.67,1.25,2,2,0,0,1,.51,1.71Z" transform="translate(0.04 0)"/><path class="cls-47" d="M101.64,94.72a2.55,2.55,0,0,0-2.78-.78,1.29,1.29,0,0,0-.65,1.72,1.31,1.31,0,0,0,.31.43,2.53,2.53,0,0,0,2.77.78,1.28,1.28,0,0,0,.68-1.69A1.39,1.39,0,0,0,101.64,94.72Z" transform="translate(0.04 0)"/><path class="cls-50" d="M107.13,98.2l-6,3.47a.32.32,0,0,1-.43-.12.32.32,0,0,1,.1-.43h0l6-3.47a.32.32,0,0,1,.43.1h0a.32.32,0,0,1-.11.44Zm1,.42a.32.32,0,0,0-.43-.12l-6,3.48a.3.3,0,0,0-.11.42h0a.3.3,0,0,0,.27.16.22.22,0,0,0,.16,0l6-3.47a.31.31,0,0,0,.13-.43.05.05,0,0,0,0,0Zm.86.86a.32.32,0,0,0-.43-.12l-6,3.48a.32.32,0,0,0-.12.43.33.33,0,0,0,.28.16h.16l6-3.48a.31.31,0,0,0,.13-.42l0,0Zm.86.86a.32.32,0,0,0-.44-.12h0l-6,3.47a.32.32,0,0,0-.12.44h0a.31.31,0,0,0,.42.12h0l6-3.47a.32.32,0,0,0,.11-.42Z" transform="translate(0.04 0)"/><path class="cls-51" d="M100.2,89a.85.85,0,0,0-.85.85h0v5.4a.85.85,0,0,0,1.7,0V89.8a.85.85,0,0,0-.85-.85Z" transform="translate(0.04 0)"/><path class="cls-52" d="M102.07,90.42a1.89,1.89,0,1,1-1.89-1.9,1.89,1.89,0,0,1,1.89,1.9Z" transform="translate(0.04 0)"/><circle class="cls-53" cx="100.71" cy="89.89" r="1.07"/></g><polygon class="cls-54" points="29.91 99.65 14.53 108.53 14.53 96.02 29.91 87.14 29.91 99.65"/><polygon class="cls-55" points="47.74 89.36 32.36 98.24 32.36 85.73 47.74 76.85 47.74 89.36"/><polygon class="cls-55" points="29.91 114.7 14.53 123.58 14.53 111.07 29.91 102.19 29.91 114.7"/><polygon class="cls-54" points="47.74 104.41 32.36 113.29 32.36 100.78 47.74 91.9 47.74 104.41"/><polygon class="cls-54" points="68.64 77.19 53.26 86.07 53.26 73.56 68.64 64.68 68.64 77.19"/><polygon class="cls-55" points="86.46 66.9 71.08 75.78 71.08 63.27 86.46 54.38 86.46 66.9"/><polygon class="cls-55" points="68.64 92.24 53.26 101.12 53.26 88.61 68.64 79.73 68.64 92.24"/><polygon class="cls-54" points="86.46 81.95 71.08 90.83 71.08 78.32 86.46 69.44 86.46 81.95"/></g></g></svg>