<svg id="Layer_1" data-name="Layer 1" xmlns="http://www.w3.org/2000/svg" viewBox="0 0 1616.39 1077.59"><defs><style>.cls-1,.cls-25{fill:#fff;}.cls-2{fill:#f8f8f8;}.cls-3{fill:#d7d7d7;}.cls-22,.cls-4{fill:#727272;}.cls-4{opacity:0.5;}.cls-5{fill:#868686;}.cls-6{fill:#2c2c2c;}.cls-7{fill:#4d4d4d;}.cls-8{fill:#999;}.cls-9{fill:#b7b7b7;}.cls-10{fill:#ccc;}.cls-11{fill:#393939;}.cls-12{fill:#1e1e1e;}.cls-13{fill:#878787;}.cls-14{fill:#c1c1c1;}.cls-15{fill:#adadad;}.cls-16{fill:#787878;}.cls-17{fill:#232323;}.cls-18{fill:#777;}.cls-19{fill:#696969;}.cls-20{fill:#d3d3d3;}.cls-21{fill:#333;}.cls-23{fill:#b5b5b5;}.cls-24{fill:#3d3d3d;}.cls-25{opacity:0.3;}.cls-26{fill:#4f4f4f;}</style></defs><rect class="cls-1" width="1616.39" height="1077.59"/><path class="cls-2" d="M1205.25,731C942.44,593.77,781.83,345.56,682.55,79.83a537.43,537.43,0,0,1-22-77.42H1920V899.34c-115.31-13.49-231.58-30.72-349.74-51.52C1438.86,824.45,1322.05,792.33,1205.25,731Z" transform="translate(-303.61 -2.41)"/><path class="cls-1" d="M660.51,2.41a537.43,537.43,0,0,0,22,77.42C781.83,345.56,942.44,593.77,1205.25,731c116.8,61.32,233.61,93.44,365,116.81,118.16,20.8,234.43,38,349.74,51.52V1080H303.61V2.41Z" transform="translate(-303.61 -2.41)"/><path class="cls-3" d="M947.66,946.49c68.49-.61,198.21-9.12,79.91-129.88-178.66-175.27,185.36-249.86,368.8-250.49,135.38-.47,396.22,20.84,523.63,32V1080H652.34C639.12,978.63,884.43,947.05,947.66,946.49Z" transform="translate(-303.61 -2.41)"/><path class="cls-4" d="M1447.6,835.71a152.58,152.58,0,0,0-23.11,1.78l199.77-115.88L1440.32,615.19,996.56,872.68l184,106.3,181.24-105.13a29.33,29.33,0,0,0-2.5,11.55c0,27.44,39.53,49.69,88.29,49.69s88.28-22.25,88.28-49.69S1496.36,835.71,1447.6,835.71Z" transform="translate(-303.61 -2.41)"/><path class="cls-4" d="M1623.41,779.55c-45.62,0-82.6,20.81-82.6,46.49s37,46.49,82.6,46.49S1706,851.71,1706,826,1669,779.55,1623.41,779.55Z" transform="translate(-303.61 -2.41)"/><circle class="cls-5" cx="875.99" cy="189.61" r="130.81"/><circle class="cls-5" cx="622.01" cy="267.3" r="103.21"/><circle class="cls-5" cx="1297.38" cy="206.88" r="103.21"/><circle class="cls-5" cx="900.65" cy="678.14" r="51.6" transform="translate(-495.33 396.84) rotate(-22.66)"/><circle class="cls-5" cx="653.91" cy="776.22" r="25.8"/><circle class="cls-5" cx="1639.7" cy="450.34" r="79.3" transform="translate(468.42 1910.32) rotate(-74.68)"/><polygon class="cls-6" points="1275.89 719.67 1128.25 633.77 1128.25 423.24 1275.89 509.14 1275.89 719.67"/><polygon class="cls-7" points="1275.89 719.67 1285.74 713.98 1285.74 503.46 1275.89 509.14 1275.89 719.67"/><polygon class="cls-6" points="1134.85 637.47 1125 631.78 1125 421.26 1134.85 426.94 1134.85 637.47"/><polygon class="cls-6" points="876.17 951.8 722.44 863.58 722.44 653.05 876.17 741.27 876.17 951.8"/><polygon class="cls-7" points="876.17 951.8 886.01 946.12 886.01 735.59 876.17 741.27 876.17 951.8"/><polygon class="cls-6" points="727.36 866.42 717.51 860.73 717.51 650.21 727.36 655.89 727.36 866.42"/><polygon class="cls-8" points="875.84 768.98 1319.54 511.62 1319.54 501.1 875.84 758.47 875.84 768.98"/><polygon class="cls-9" points="875.84 758.47 691.84 652.17 691.84 662.04 875.84 768.34 875.84 758.47"/><polygon class="cls-10" points="1319.54 501.1 1135.6 394.68 691.84 652.17 875.84 758.47 1319.54 501.1"/><polygon class="cls-7" points="779.64 665.76 856.62 621.32 829.39 605.6 752.41 650.04 779.64 665.76"/><polygon class="cls-6" points="752.41 650.04 752.41 656.13 779.64 671.85 779.64 665.76 752.41 650.04"/><polygon class="cls-11" points="856.62 621.32 856.62 627.41 779.64 671.85 779.64 665.76 856.62 621.32"/><polygon class="cls-7" points="1091.24 486.04 1168.21 441.6 1140.98 425.88 1064.01 470.32 1091.24 486.04"/><polygon class="cls-6" points="1064.01 470.32 1064.01 476.41 1091.24 492.13 1091.24 486.04 1064.01 470.32"/><polygon class="cls-11" points="1168.21 441.6 1168.21 447.69 1091.24 492.13 1091.24 486.04 1168.21 441.6"/><polygon class="cls-11" points="825.62 625.38 788.4 646.87 788.4 469.75 825.62 448.26 825.62 625.38"/><polygon class="cls-6" points="782.44 473.21 782.44 643.43 788.4 646.87 788.4 476.65 782.44 473.21"/><polygon class="cls-11" points="1137.7 446.6 1100.48 468.08 1100.48 290.96 1137.7 269.47 1137.7 446.6"/><polygon class="cls-6" points="1094.52 294.42 1094.52 464.64 1100.48 468.08 1100.48 297.86 1094.52 294.42"/><polygon class="cls-12" points="1170.86 165.68 756.86 403.47 756.86 628.29 1170.86 390.5 1170.86 165.68"/><polygon class="cls-11" points="756.86 403.47 750.9 399.95 750.9 624.77 756.86 628.29 756.86 403.47"/><polygon class="cls-7" points="1164.9 162.16 1170.86 165.68 756.86 403.47 750.9 399.95 1164.9 162.16"/><polygon class="cls-1" points="897.49 436.07 897.49 329.65 763.01 406.93 763.01 513.35 897.49 436.07"/><path class="cls-8" d="M1197.21,396.15c-1.33-2.7-5.56-1-5.77,4-2.41-.48-4.55.42-5,5.22-2.06-2.75-5.09,1.24-5.09,3.61-1.63.14-4,4.58-2.19,5.86-.92,2.54-.69,4.19.2,5.16-2.27,2.27-2.35,5.8-.61,7.11a8.53,8.53,0,0,0-2,7.11c.23,1,1,2,2.13,1.85a15.27,15.27,0,0,0-2,6.46c0,10.66,13,1.43,18.46-2.68,1.25-.95,4.59-3.37,5.72-4.5V392.22C1199.81,392.25,1198.21,393,1197.21,396.15Z" transform="translate(-303.61 -2.41)"/><path class="cls-8" d="M1092,476.26c1.92-3.66,1.84-7.46-.67-7.07,1-2.21,1.24-4.33.21-5.95,2-3.77-.62-5.61-2.41-3.69,0-2.62-3.35-3.16-5.62,2.5-.55-4.67-2.91-2.93-5.57.67-.24-5.29-4.9-1.72-6.38,3-1.27-2.59-3.45-.51-4.94,1.41v46.49c7.58-4.52,15.16-9,22.69-13.64a2.94,2.94,0,0,1,1.85-.42A15.71,15.71,0,0,0,1094,491c0-1.78-1-4.09-2.17-4.63a10.16,10.16,0,0,0,2.35-4.75C1094.8,478.12,1093.79,476.54,1092,476.26Z" transform="translate(-303.61 -2.41)"/><polygon class="cls-10" points="860.24 452.47 800.04 487.22 800.04 430.85 860.24 396.1 860.24 452.47"/><polygon class="cls-8" points="853.23 456.51 807.05 483.17 807.05 447.57 853.23 420.92 853.23 456.51"/><polygon class="cls-9" points="853.23 422.77 807.05 449.43 807.05 447.57 853.23 420.92 853.23 422.77"/><polygon class="cls-9" points="853.23 428.59 807.05 455.24 807.05 453.39 853.23 426.73 853.23 428.59"/><polygon class="cls-9" points="853.23 434.77 807.05 461.43 807.05 459.58 853.23 432.92 853.23 434.77"/><polygon class="cls-9" points="853.23 440.59 807.05 467.25 807.05 465.39 853.23 438.74 853.23 440.59"/><polygon class="cls-9" points="853.23 446.5 807.05 473.16 807.05 471.31 853.23 444.65 853.23 446.5"/><polygon class="cls-9" points="853.23 452.69 807.05 479.35 807.05 477.5 853.23 450.84 853.23 452.69"/><polygon class="cls-8" points="869.19 390.93 791.09 436.02 791.09 439.59 869.19 394.5 869.19 390.93"/><polygon class="cls-9" points="791.09 436.02 830.14 377.92 869.19 390.93 791.09 436.02"/><path class="cls-10" d="M1137.8,402.67c0,3-1.81,6.44-4,7.73s-4-.08-4-3,1.81-6.44,4-7.73S1137.8,399.7,1137.8,402.67Z" transform="translate(-303.61 -2.41)"/><polygon class="cls-8" points="834.18 428.23 826.1 432.9 826.1 430.52 834.18 425.85 834.18 428.23"/><path class="cls-9" d="M1178.31,429.59a17.74,17.74,0,0,0,1.75-4.33c.77-3.67-.72-4.59-2.69-3.9.44-1.76.5-3.46-.58-4a1.89,1.89,0,0,0-1.56.18c1.09-2.17,1.5-5.05.82-6.48s-2.28-1.38-3.64-.1c0-1.78-.3-3.18-2.09-1.86a6.48,6.48,0,0,0-1.79,2.38,1.63,1.63,0,0,0-.59-1.11c-.71-.51-1.84-.08-2.65,1.18a5.23,5.23,0,0,0-.59,4.71,5.1,5.1,0,0,0-2.41,2c-1.25,2.07-.89,3.6-.1,4.56-1.21,1.13-2.33,2.69-2.18,4.39a2.51,2.51,0,0,0,1.66,2.34,10.93,10.93,0,0,0-2.6,4.18c-.59,1.94.32,2.73,1.45,2.95-1,1.84-1.42,4-.69,5.46a1.79,1.79,0,0,0,1.61,1,8.32,8.32,0,0,0-1.8,4.68c-.09,2.23,1.07,2.62,2.41,2.32-.84,2.38-.85,4.9.41,5.88,1.08.85,3.14.09,4.51-1.68,1,.43,2.65-.2,3.82-1a7.63,7.63,0,0,0,2.86-5.43,6.83,6.83,0,0,0,2.72-1.94c2.54-2.87,3.24-7,2.09-9.1a7.61,7.61,0,0,0,1.74-5.05C1180.1,430.3,1179.31,429.48,1178.31,429.59Z" transform="translate(-303.61 -2.41)"/><path class="cls-9" d="M1088.21,481.61a4.34,4.34,0,0,1-1.74-2.32c-.77-2.78.71-5.42,2.69-7a5.25,5.25,0,0,1,.57-4.64,5.41,5.41,0,0,1,1.57-1.62c-1.1-.91-1.5-3.32-.83-5.53.73-2.38,2.29-4,3.65-4.31,0-1.73.3-3.52,2.09-4.27a1.62,1.62,0,0,1,1.79.31,5.08,5.08,0,0,1,.58-1.79c.71-1.33,1.84-2.2,2.65-1.88,1.06.43,1.11,2.22.6,4,.86-.71,1.92-1.08,2.41-.83,1.24.63.88,2.57.09,4.45,1.22-.28,2.33,0,2.19,1.86a9.4,9.4,0,0,1-1.66,4.26,2.34,2.34,0,0,1,2.6,1.18c.59,1.26-.33,3.11-1.46,4.63,1,.71,1.42,2.37.7,4.65a8.81,8.81,0,0,1-1.61,2.84c1,.11,1.73.95,1.8,2.6a6.68,6.68,0,0,1-2.42,5.11c.85,1.41.86,3.92-.41,6.36-1.08,2.09-3.13,3.71-4.51,3.52a9.75,9.75,0,0,1-3.82,3.39c-1.67.74-2.7-.33-2.85-2.14a4.77,4.77,0,0,1-2.72,1.2c-2.55.08-3.25-3.21-2.09-6.68-1.1-.13-1.88-1.11-1.75-3A7.49,7.49,0,0,1,1088.21,481.61Z" transform="translate(-303.61 -2.41)"/><polygon class="cls-9" points="897.49 436.07 763.01 513.35 763.01 508.38 897.49 431.1 897.49 436.07"/><polygon class="cls-10" points="763.15 512.79 763.15 616.83 897.27 539.68 897.27 435.65 763.15 512.79"/><polygon class="cls-9" points="763.15 587.57 763.15 598.73 897.27 521.67 897.27 510.51 763.15 587.57"/><path class="cls-1" d="M1078.84,573v-32.7c0-8,4.94-17.47,11-21h0c6-3.49,11,.25,11,8.29v32.76Z" transform="translate(-303.61 -2.41)"/><path class="cls-9" d="M1082.1,537.73v30.33l6.5-3.75V523.36A20.42,20.42,0,0,0,1082.1,537.73Z" transform="translate(-303.61 -2.41)"/><path class="cls-9" d="M1098.35,528.34c0-5.58-3.23-8.3-7.31-6.5V562.9l7.31-4.22Z" transform="translate(-303.61 -2.41)"/><path class="cls-1" d="M1165.43,522.89v-32.7c0-8,4.94-17.47,11-20.95h0c6-3.48,11,.25,11,8.29v32.76Z" transform="translate(-303.61 -2.41)"/><path class="cls-9" d="M1168.69,487.67V518l6.5-3.75V473.3A20.42,20.42,0,0,0,1168.69,487.67Z" transform="translate(-303.61 -2.41)"/><path class="cls-9" d="M1184.94,478.29c0-5.59-3.23-8.31-7.31-6.51v41.06l7.31-4.22Z" transform="translate(-303.61 -2.41)"/><path class="cls-1" d="M1121.67,547v-32.7c0-8,4.93-17.47,11-20.95h0c6-3.48,11,.25,11,8.29v32.76Z" transform="translate(-303.61 -2.41)"/><path class="cls-9" d="M1124.92,511.76v30.33l6.5-3.75v-41A20.46,20.46,0,0,0,1124.92,511.76Z" transform="translate(-303.61 -2.41)"/><path class="cls-9" d="M1141.17,502.38c0-5.59-3.22-8.31-7.31-6.51v41.06l7.31-4.22Z" transform="translate(-303.61 -2.41)"/><polygon class="cls-8" points="763.15 598.47 763.15 619.03 897.27 541.96 897.27 521.4 763.15 598.47"/><path class="cls-10" d="M1291.43,457.4a27.69,27.69,0,0,1,3.57-11.71c-2,.33-3.45-1.61-3.86-3.35-1.07-4.54.6-9,3.53-12.9-3.14-2.37-3-8.77,1.11-12.87-1.61-1.77-2-4.77-.36-9.36-3.33-2.33,1-10.37,4-10.63,0-4.29,5.5-11.53,9.22-6.55.91-8.69,4.78-10.31,9.14-9.44.39-9.13,8-12.12,10.47-7.22,1.8-5.75,4.71-7.07,7-7.12v-5.82l-134.49,77.64v6.49c2.45-3.15,6-6.56,8.12-2.31,2.42-7.69,10.08-13.54,10.47-4.87,4.36-5.9,8.23-8.75,9.13-1.1,3.72-9.28,9.23-8.39,9.23-4.1,2.94-3.14,7.29-.12,4,6.06,1.67,2.66,1.25,6.14-.36,9.77,4.12-.65,4.25,5.6,1.1,11.6,2.94.46,4.6,3.05,3.53,8.82a16.77,16.77,0,0,1-3.85,7.8c2,.89,3.57,4.68,3.56,7.6,0,19.36-27.52,35.21-37.35,39.11a29.22,29.22,0,0,1-7.54,2v18.51l134.49-77.19V447.71a64,64,0,0,1-6.47,5.67C1319,460.83,1291.47,476.72,1291.43,457.4Z" transform="translate(-303.61 -2.41)"/><path class="cls-9" d="M1328.21,373.37c-2.42-4.9-10.08-1.91-10.47,7.22-4.36-.87-8.23.75-9.14,9.44-3.72-5-9.22,2.26-9.22,6.55-2.94.26-7.29,8.3-4,10.63-1.68,4.59-1.25,7.59.36,9.36-4.12,4.1-4.25,10.5-1.11,12.87-2.93,3.86-4.6,8.36-3.53,12.9.41,1.74,1.87,3.68,3.86,3.35a27.69,27.69,0,0,0-3.57,11.71c0,19.32,27.53,3.43,37.36-4a64,64,0,0,0,6.47-5.67V366.25C1332.92,366.3,1330,367.62,1328.21,373.37Z" transform="translate(-303.61 -2.41)"/><path class="cls-9" d="M1245.66,483.83c0-2.92-1.57-6.71-3.56-7.6a16.77,16.77,0,0,0,3.85-7.8c1.07-5.77-.59-8.36-3.53-8.82,3.15-6,3-12.25-1.1-11.6,1.61-3.63,2-7.11.36-9.77,3.33-6.18-1-9.2-4-6.06,0-4.29-5.51-5.18-9.23,4.1-.9-7.65-4.77-4.8-9.13,1.1-.39-8.67-8-2.82-10.47,4.87-2.09-4.25-5.67-.84-8.12,2.31V524.9a29.22,29.22,0,0,0,7.54-2C1218.14,519,1245.62,503.19,1245.66,483.83Z" transform="translate(-303.61 -2.41)"/><polygon class="cls-8" points="1031.65 437.48 897.16 515.13 897.16 541.96 1031.65 464.32 1031.65 437.48"/><polygon class="cls-8" points="947.41 486.11 943.8 488.2 943.8 442.55 947.41 440.46 947.41 486.11"/><polygon class="cls-8" points="934.85 495.6 933.04 496.64 933.04 450.99 934.85 449.95 934.85 495.6"/><polygon class="cls-8" points="923.82 501.97 922.01 503.01 922.01 457.36 923.82 456.31 923.82 501.97"/><polygon class="cls-8" points="912.76 508.35 910.95 509.39 910.95 463.74 912.76 462.7 912.76 508.35"/><polygon class="cls-8" points="901.73 514.72 899.92 515.76 899.92 470.11 901.73 469.07 901.73 514.72"/><polygon class="cls-8" points="945.42 443.84 897.16 471.7 897.16 474.11 945.42 446.25 945.42 443.84"/><polygon class="cls-8" points="945.42 477.21 897.16 505.07 897.16 507.48 945.42 479.62 945.42 477.21"/><path class="cls-8" d="M1252.71,439.47a8.38,8.38,0,0,1-3.49,6.68c-1.93,1.11-3.5-.07-3.5-2.65a8.39,8.39,0,0,1,3.5-6.68C1251.15,435.71,1252.71,436.89,1252.71,439.47Z" transform="translate(-303.61 -2.41)"/><polygon class="cls-8" points="981.4 466.49 985.01 464.4 985.01 418.75 981.4 420.84 981.4 466.49"/><polygon class="cls-8" points="993.96 461.47 995.77 460.43 995.77 414.77 993.96 415.82 993.96 461.47"/><polygon class="cls-8" points="1004.99 455.1 1006.8 454.06 1006.8 408.4 1004.99 409.45 1004.99 455.1"/><polygon class="cls-8" points="1016.05 448.72 1017.86 447.67 1017.86 402.02 1016.05 403.06 1016.05 448.72"/><polygon class="cls-8" points="1027.08 442.35 1028.89 441.3 1028.89 395.65 1027.08 396.69 1027.08 442.35"/><polygon class="cls-8" points="983.39 421.92 1031.65 394.06 1031.65 396.47 983.39 424.33 983.39 421.92"/><polygon class="cls-8" points="983.39 455.29 1031.65 427.43 1031.65 429.84 983.39 457.7 983.39 455.29"/><path class="cls-8" d="M1283.32,421.79c0,2.58,1.57,3.76,3.5,2.65a8.38,8.38,0,0,0,3.49-6.68c0-2.58-1.56-3.76-3.49-2.64S1283.32,419.22,1283.32,421.79Z" transform="translate(-303.61 -2.41)"/><polygon class="cls-1" points="1031.65 437.48 897.16 515.13 897.16 519.15 1031.65 441.51 1031.65 437.48"/><polygon class="cls-10" points="1166.05 386.72 1166.05 281.08 1031.56 358.4 1031.56 464 1166.05 386.72"/><path class="cls-9" d="M1469.63,304.89a20,20,0,0,0-6.88,4c-2-1.74-5.19-1.41-7.32.48.11-2.11-.61-4.16-3-4.93-4.71-1.53-6.49,3.8-7.14,8.08-4.55-2.55-9.14,2.34-7.54,7.81-5.7-.2-8.12,4.92-4.34,9.54-5.17,1.82-5.31,7.29-.51,9.82-2.35,1.73-7.34,6-2.43,10.82-4.25,2.64-4.51,9,0,12.49-4.64,3.68-7.32,9.82-2.09,12.55-6.7,9.22,9.77,19.83,20.48,8.95,0,0,.06-.1.1-.15,8.08-3.62,16.38-10.91,20.62-18.72Z" transform="translate(-303.61 -2.41)"/><polygon class="cls-13" points="1031.57 464.39 1166.05 387.11 1166.05 358.4 1031.57 435.68 1031.57 464.39"/><path class="cls-8" d="M1422.06,398.06c-1-.84-2.25-.57-3.58.14.54-3.49-1.88-5.55-4.3-3.86.91-2.55.64-4.36-1.23-5.18-3.33-1.46-7.39,5-7.57,5v-5.73L1397,393.3V344.22l6.74-3.89-21.14-6.92-47.45,27.4v81.36l24.28-14,6.83-3.95,4.69-2.71a11.21,11.21,0,0,0-1.5,5.19c-.25,5.81,4.29,6.46,8,3.07,2.42,2.72,9.93-.2,12.51-7.34a3,3,0,0,0,1.48-.13c.43,4.6,4.49,5,7.88,1.84,2.42,2.72,9.92-.2,12.5-7.34,3.19.73,8.85-5.78,10.61-10.78C1423.53,402.83,1423.62,399.42,1422.06,398.06ZM1366.29,362l25-14.46v47.34a2,2,0,0,0-.26,0c-2-.06-4.21,2.35-5.66,5.22l-19.13,11Z" transform="translate(-303.61 -2.41)"/><path class="cls-8" d="M1461,366.67c2.68-3.89,4.32-8.91-1.46-11.08a6.83,6.83,0,0,0-8,2.45,5.78,5.78,0,0,0-4.85-1.43c-2.36.57-2.84,3-2.94,5.31-1.43-1.34-3.36-2.38-5-.88-1.29,1.21-.79,2.72.24,4.09-2.45.25-4.78,1.2-5.15,3.51-.42,2.56,2.17,3.77,4.82,4.4-1.93,2.22-3.14,5-1.52,7.74,2,3.32,5.66,2.38,8.54.65a7.47,7.47,0,0,0,9.46,3.5,8.5,8.5,0,0,0,4.81-11.3c2-.46,3.74-1.86,3.34-4.2A3.22,3.22,0,0,0,1461,366.67Z" transform="translate(-303.61 -2.41)"/><rect class="cls-8" x="1361.55" y="386.33" width="35.33" height="2.74" transform="translate(-312.67 739.17) rotate(-30)"/><rect class="cls-8" x="1065.9" y="390.37" width="1.6" height="17.45"/><rect class="cls-8" x="1071.36" y="386.75" width="1.6" height="17.45"/><rect class="cls-8" x="1076.73" y="383.08" width="1.79" height="17.45"/><rect class="cls-8" x="1082.09" y="379.87" width="1.6" height="17.45"/><polygon class="cls-10" points="1031.65 359.04 1031.65 252.62 897.16 329.9 897.16 436.32 1031.65 359.04"/><polygon class="cls-9" points="897.16 416.13 1031.65 338.86 1031.65 327.76 897.16 405.04 897.16 416.13"/><polygon class="cls-1" points="986.76 365.46 940.8 391.99 940.8 330.45 986.76 303.91 986.76 365.46"/><polygon class="cls-9" points="961.81 379.86 944.57 389.81 944.57 332.58 961.81 322.63 961.81 379.86"/><polygon class="cls-9" points="983.14 367.54 965.9 377.5 965.9 320.26 983.14 310.31 983.14 367.54"/><path class="cls-1" d="M1213.9,389.86V357.35c0-8,4.91-17.37,10.9-20.84h0c6-3.46,10.91.25,10.91,8.25v32.57Z" transform="translate(-303.61 -2.41)"/><path class="cls-9" d="M1217.14,354.84V385l6.46-3.74V340.55A20.29,20.29,0,0,0,1217.14,354.84Z" transform="translate(-303.61 -2.41)"/><path class="cls-9" d="M1233.3,345.51c0-5.56-3.21-8.26-7.27-6.47v40.83l7.27-4.2Z" transform="translate(-303.61 -2.41)"/><path class="cls-1" d="M1300,340.08V307.57c0-8,4.91-17.38,10.9-20.84h0c6-3.46,10.91.25,10.91,8.25v32.57Z" transform="translate(-303.61 -2.41)"/><path class="cls-9" d="M1303.25,305.06v30.16l6.46-3.73V290.77A20.29,20.29,0,0,0,1303.25,305.06Z" transform="translate(-303.61 -2.41)"/><path class="cls-9" d="M1319.41,295.73c0-5.56-3.21-8.26-7.28-6.47v40.83l7.28-4.2Z" transform="translate(-303.61 -2.41)"/><polygon class="cls-8" points="897.16 435.66 1031.65 358.39 1031.65 338.59 897.16 415.87 897.16 435.66"/><polygon class="cls-9" points="972.36 296.1 955.19 306.11 955.19 315.54 972.36 305.53 972.36 296.1"/><polygon class="cls-9" points="1031.58 358.02 1166.03 280.76 1166.03 175.43 1031.58 252.69 1031.58 358.02"/><path class="cls-1" d="M1440.58,271.33c1.11,6.07.78,16.75,2,24.85l19.26-11.12c0-.08,0-.15,0-.23a16.16,16.16,0,0,0,2.27-17.64c6.06-4.79,7.55-17.82,1.52-18.6,3.23-7.77,2.18-14.94-2.71-15.88,4-10.67-2.92-16.85-9.32-9.38a3.13,3.13,0,0,0-2.73-2.28c-2.71-.21-5.36,2.7-7.61,6.14-1.33-3.07-4.67-3.63-7.93.55-3.66,4.67-3.51,10.28-1.48,12.94C1434,252.49,1438.67,260.92,1440.58,271.33Z" transform="translate(-303.61 -2.41)"/><path class="cls-1" d="M1345,336c-2.19,7.31-2.8,14.81,2.27,15a1.36,1.36,0,0,1,0,.2l19.26-11.12c1.25-9.54.91-19.84,2-27.18,1.91-12.62,6.55-26.4,6.7-38.38,2-5,2.18-10.79-1.48-11.24-3.26-.4-6.6,4-7.93,8.6-2.25-.83-4.9-.68-7.62,2.67a14.43,14.43,0,0,0-2.72,5.42c-6.41-.07-13.31,14.08-9.32,20.15-4.89,6.58-5.94,15-2.71,19C1337.49,326.86,1339,338.17,1345,336Z" transform="translate(-303.61 -2.41)"/><polygon class="cls-10" points="1149.26 241.24 1062.75 291.18 1062.75 301.4 1046.51 310.78 1046.51 348.01 1068.25 335.46 1068.25 334.85 1149.26 288.07 1149.26 241.24"/><polygon class="cls-8" points="1085.47 324.9 1070.36 333.62 1070.36 301.84 1085.47 293.12 1085.47 324.9"/><polygon class="cls-9" points="1083.99 295.86 1071.87 302.86 1071.87 331.8 1083.99 324.8 1083.99 295.86"/><polygon class="cls-8" points="1077.51 301.95 1073.7 304.14 1073.7 313.23 1077.51 311.03 1077.51 301.95"/><polygon class="cls-8" points="1082.92 299.17 1079.12 301.37 1079.12 310.45 1082.92 308.25 1082.92 299.17"/><polygon class="cls-8" points="1077.51 313.23 1073.7 315.43 1073.7 328.88 1077.51 326.68 1077.51 313.23"/><polygon class="cls-8" points="1082.92 310.45 1079.12 312.65 1079.12 326.1 1082.92 323.9 1082.92 310.45"/><polygon class="cls-8" points="1141.19 292.73 1107.96 311.92 1107.96 280.13 1141.19 260.95 1141.19 292.73"/><polygon class="cls-9" points="1141.19 263.51 1107.96 282.15 1107.96 283.94 1141.19 265.3 1141.19 263.51"/><polygon class="cls-9" points="1141.19 268.31 1107.96 286.95 1107.96 288.74 1141.19 270.1 1141.19 268.31"/><polygon class="cls-9" points="1141.19 272.83 1107.96 291.47 1107.96 293.26 1141.19 274.62 1141.19 272.83"/><polygon class="cls-9" points="1141.19 277.63 1107.96 296.27 1107.96 298.06 1141.19 279.42 1141.19 277.63"/><polygon class="cls-9" points="1141.19 282.35 1107.96 301 1107.96 302.79 1141.19 284.14 1141.19 282.35"/><polygon class="cls-9" points="1141.19 287.16 1107.96 305.8 1107.96 307.59 1141.19 288.95 1141.19 287.16"/><polygon class="cls-9" points="1097.55 317.92 1092.85 320.64 1092.85 274.75 1097.55 272.04 1097.55 317.92"/><polygon class="cls-9" points="1063.06 337.38 1058.36 340.1 1058.36 294.21 1063.06 291.5 1063.06 337.38"/><polygon class="cls-13" points="1153.89 239.78 1157.64 237.61 1103.46 225.74 1049.27 300.18 1055.27 296.72 1104.58 228.97 1153.89 239.78"/><polygon class="cls-8" points="1153.89 239.78 1104.58 228.97 1055.27 296.72 1103.46 268.9 1153.89 239.78"/><polygon class="cls-8" points="1031.58 359.27 1166.03 282.01 1166.03 277.5 1031.58 354.76 1031.58 359.27"/><polygon class="cls-13" points="1157.64 237.61 1049.27 299.89 1049.27 303.28 1157.64 241 1157.64 237.61"/><polygon class="cls-1" points="954.08 638.84 1021.5 599.83 1046.46 614.21 978.92 653.22 954.08 638.84"/><polygon class="cls-9" points="978.92 656.76 954.08 642.34 954.08 638.84 978.92 653.22 978.92 656.76"/><polygon class="cls-8" points="978.92 653.22 978.92 656.76 1046.46 617.53 1046.46 614.21 978.92 653.22"/><polygon class="cls-10" points="987.66 648.18 988.93 647.45 964.06 633.08 962.78 633.8 987.66 648.18"/><polygon class="cls-10" points="997.5 642.5 998.76 641.76 973.9 627.4 972.62 628.12 997.5 642.5"/><polygon class="cls-10" points="1007.32 636.81 1008.58 636.08 983.71 621.71 982.43 622.43 1007.32 636.81"/><polygon class="cls-10" points="1017.06 631.14 1018.33 630.41 993.46 616.04 992.18 616.77 1017.06 631.14"/><polygon class="cls-10" points="958.88 641.62 957.62 640.89 1025.14 601.88 1026.42 602.6 958.88 641.62"/><polygon class="cls-10" points="963.78 644.59 962.53 643.88 1030.13 604.8 1031.41 605.54 963.78 644.59"/><polygon class="cls-10" points="968.9 647.45 967.64 646.72 1035.15 607.69 1036.44 608.42 968.9 647.45"/><polygon class="cls-10" points="973.99 650.52 972.62 649.85 1040.37 610.7 1041.63 611.43 973.99 650.52"/><polygon class="cls-10" points="1026.64 625.58 1027.91 624.85 1003.04 610.48 1001.76 611.21 1026.64 625.58"/><polygon class="cls-10" points="1036.12 620.12 1037.38 619.39 1012.51 605.02 1011.23 605.75 1036.12 620.12"/><path class="cls-11" d="M1165.27,659.9l42.58,24.52a3.44,3.44,0,0,1,.05,5.92l-36.34,21.87a15.89,15.89,0,0,1-16.14.14L1117.1,690.2a5.27,5.27,0,0,1-.08-9.08l35-21.09A13,13,0,0,1,1165.27,659.9Z" transform="translate(-303.61 -2.41)"/><rect class="cls-11" x="1203.65" y="682" width="5.92" height="4.74" transform="translate(2109.6 1366.34) rotate(180)"/><rect class="cls-11" x="1114.47" y="679.75" width="10.52" height="5.55" transform="translate(1935.84 1362.65) rotate(180)"/><path class="cls-7" d="M1165.27,654.68l42.58,24.52a3.44,3.44,0,0,1,.05,5.92L1171.56,707a15.87,15.87,0,0,1-16.14.15L1117.1,685a5.26,5.26,0,0,1-.08-9.07l35-21.1A13,13,0,0,1,1165.27,654.68Z" transform="translate(-303.61 -2.41)"/><path class="cls-11" d="M1191.87,674.94l10.18,5.86a.82.82,0,0,1,0,1.42l-8.69,5.23a3.79,3.79,0,0,1-3.85,0l-9.16-5.29a1.27,1.27,0,0,1,0-2.18l8.38-5A3.11,3.11,0,0,1,1191.87,674.94Z" transform="translate(-303.61 -2.41)"/><path class="cls-11" d="M1161.18,657.12l10.17,5.86a.82.82,0,0,1,0,1.41l-8.69,5.23a3.81,3.81,0,0,1-3.86,0l-9.16-5.3a1.26,1.26,0,0,1,0-2.17l8.38-5A3.09,3.09,0,0,1,1161.18,657.12Z" transform="translate(-303.61 -2.41)"/><path class="cls-11" d="M1202.46,681.26a50.77,50.77,0,0,0-18-21,31.18,31.18,0,0,0-25.73-3.46v6.6s9.28-.59,16.48,4.33,12.34,15.58,12.34,15.58Z" transform="translate(-303.61 -2.41)"/><path class="cls-11" d="M1193.2,686.7a50.77,50.77,0,0,0-18-21,31.18,31.18,0,0,0-25.73-3.46l1,.56,12.17,6.79s4.84-3.55,10.78.55c7.19,4.94,6.32,10.69,6.32,10.69Z" transform="translate(-303.61 -2.41)"/><polygon class="cls-1" points="844.39 666.73 822.31 680.12 816.54 676.83 838.66 663.52 844.39 666.73"/><polygon class="cls-14" points="850.9 671.14 847.04 673.51 843.3 671.33 847.21 669.04 850.9 671.14"/><polygon class="cls-14" points="845.27 674.52 841.41 676.89 837.67 674.71 841.58 672.42 845.27 674.52"/><polygon class="cls-14" points="839.68 677.83 835.82 680.2 832.09 678.03 836 675.74 839.68 677.83"/><polygon class="cls-14" points="833.9 681.37 830.04 683.74 826.3 681.56 830.21 679.27 833.9 681.37"/><polygon class="cls-14" points="857.96 675.2 854.1 677.57 850.36 675.39 854.27 673.1 857.96 675.2"/><polygon class="cls-14" points="852.33 678.58 848.47 680.95 844.73 678.77 848.64 676.48 852.33 678.58"/><polygon class="cls-14" points="846.75 681.89 842.88 684.26 839.15 682.08 843.05 679.79 846.75 681.89"/><polygon class="cls-14" points="840.96 685.42 837.1 687.8 833.36 685.62 837.27 683.33 840.96 685.42"/><polygon class="cls-14" points="865.13 679.33 861.26 681.71 857.53 679.53 861.44 677.24 865.13 679.33"/><polygon class="cls-14" points="859.5 682.71 855.64 685.09 851.9 682.91 855.81 680.62 859.5 682.71"/><polygon class="cls-14" points="853.91 686.02 850.05 688.4 846.32 686.22 850.22 683.93 853.91 686.02"/><polygon class="cls-14" points="848.13 689.56 844.27 691.93 840.53 689.75 844.44 687.46 848.13 689.56"/><polygon class="cls-14" points="872.04 683.33 868.17 685.7 864.44 683.52 868.35 681.23 872.04 683.33"/><polygon class="cls-14" points="866.41 686.71 862.54 689.08 858.81 686.9 862.72 684.61 866.41 686.71"/><polygon class="cls-14" points="860.82 690.02 856.96 692.39 853.22 690.22 857.13 687.92 860.82 690.02"/><polygon class="cls-14" points="855.04 693.55 851.18 695.93 847.44 693.75 851.35 691.46 855.04 693.55"/><polygon class="cls-15" points="880.53 688.26 871.04 694.01 867.31 691.84 876.84 686.16 880.53 688.26"/><polygon class="cls-16" points="869.32 694.95 859.67 700.86 855.94 698.68 865.63 692.86 869.32 694.95"/><path class="cls-11" d="M1232.21,717h0c6,0,10.43-4.53,12.42-8.41a13.61,13.61,0,0,0,1-11c-2.5-7.14-11.27-13.88-27.59-21.21-8-3.58-15.94-9.58-23-14.88-9.89-7.43-18.42-13.84-25-12.48A9.28,9.28,0,0,0,1164,654l2.61,1.47a6.34,6.34,0,0,1,4.15-3.47c5.22-1.07,13.63,5.24,22.55,11.95,7.18,5.39,15.31,11.5,23.57,15.21,15.31,6.88,23.81,13.25,26,19.47a10.56,10.56,0,0,1-.84,8.68c-1.61,3.13-5.13,6.78-9.77,6.79h0c-5,0-9.78-4.25-13.93-12.28-6.13-11.85-21.19-20.51-21.83-20.87l-1.48,2.6c.15.09,14.93,8.6,20.64,19.64C1221.57,714.63,1227.92,717,1232.21,717Z" transform="translate(-303.61 -2.41)"/><path class="cls-8" d="M1388.28,535.36l-72.37,41.78c-1.61.93-2.93-.07-2.93-2.22V517.13a7.08,7.08,0,0,1,2.93-5.61l72.37-41.78c1.61-.93,2.93.07,2.93,2.22v57.8A7,7,0,0,1,1388.28,535.36Z" transform="translate(-303.61 -2.41)"/><polygon class="cls-8" points="1010.46 574.92 1014.29 577.09 1013.97 572.67 1010.46 574.92"/><polygon class="cls-8" points="1090.48 469.4 1086.56 467.18 1085.17 474.88 1090.48 469.4"/><path class="cls-9" d="M1392.24,537.61l-72.36,41.78c-1.61.93-2.93-.06-2.93-2.21v-57.8a7,7,0,0,1,2.93-5.6L1392.24,472c1.62-.93,2.94.06,2.94,2.21V532A7,7,0,0,1,1392.24,537.61Z" transform="translate(-303.61 -2.41)"/><polygon class="cls-12" points="1089.03 528.61 1015.87 570.85 1015.87 514.89 1089.03 472.65 1089.03 528.61"/><path class="cls-12" d="M1360.72,553.73l-9.32,5.38c-.48.28-.87,0-.87-.66h0a2.11,2.11,0,0,1,.87-1.68l9.32-5.38c.48-.28.88,0,.88.66h0A2.12,2.12,0,0,1,1360.72,553.73Z" transform="translate(-303.61 -2.41)"/><polygon class="cls-1" points="1085.17 530.84 1019.57 568.71 1019.57 517.71 1085.17 479.83 1085.17 530.84"/><path class="cls-8" d="M1452.25,580l-69.89,40.35a8.16,8.16,0,0,1-7.31-.3l-53.45-30.86c-2.15-1.24-2.39-3.14-.52-4.22L1391,544.59c1.86-1.08,5.15-.94,7.31.3l53.44,30.86C1453.88,577,1454.11,578.89,1452.25,580Z" transform="translate(-303.61 -2.41)"/><rect class="cls-8" x="1016.22" y="579.7" width="4.8" height="4.8"/><rect class="cls-8" x="1145.1" y="571.16" width="4.8" height="4.8"/><path class="cls-1" d="M1452.25,575.56l-69.89,40.35a8.16,8.16,0,0,1-7.31-.3l-53.45-30.86c-2.15-1.25-2.39-3.14-.52-4.22L1391,540.18c1.86-1.08,5.15-.94,7.31.3l53.44,30.86C1453.88,572.58,1454.11,574.48,1452.25,575.56Z" transform="translate(-303.61 -2.41)"/><polygon class="cls-10" points="1126.63 560.67 1057.36 600.66 1022.22 580.37 1091.48 540.38 1126.63 560.67"/><polygon class="cls-10" points="1122.74 584.4 1098.23 598.55 1085.12 590.98 1109.63 576.83 1122.74 584.4"/><polygon class="cls-8" points="1025.25 580.29 1030.08 577.5 1033.56 579.5 1028.72 582.29 1025.25 580.29"/><polygon class="cls-8" points="1030.3 583.21 1035.13 580.41 1038.61 582.42 1033.78 585.21 1030.3 583.21"/><polygon class="cls-8" points="1035.35 586.12 1041.88 582.36 1045.36 584.36 1038.83 588.13 1035.35 586.12"/><polygon class="cls-8" points="1097.86 550.03 1101.01 548.21 1109.54 553.14 1106.39 554.96 1097.86 550.03"/><polygon class="cls-8" points="1040.41 589.04 1046.93 585.27 1050.41 587.28 1043.88 591.05 1040.41 589.04"/><polygon class="cls-8" points="1045.46 591.96 1054.09 586.98 1057.57 588.98 1048.94 593.97 1045.46 591.96"/><polygon class="cls-8" points="1098.34 561.43 1111.22 553.99 1114.7 556 1101.82 563.43 1098.34 561.43"/><polygon class="cls-8" points="1050.51 594.88 1055.35 592.08 1058.83 594.09 1053.99 596.88 1050.51 594.88"/><polygon class="cls-8" points="1031.29 576.8 1036.13 574.01 1039.6 576.01 1034.77 578.8 1031.29 576.8"/><polygon class="cls-8" points="1036.35 579.72 1041.18 576.92 1044.66 578.93 1039.82 581.72 1036.35 579.72"/><polygon class="cls-8" points="1037.4 573.27 1042.23 570.48 1045.71 572.49 1040.88 575.28 1037.4 573.27"/><polygon class="cls-8" points="1042.45 576.19 1047.29 573.4 1050.77 575.4 1045.93 578.2 1042.45 576.19"/><polygon class="cls-8" points="1043.44 569.78 1048.28 566.99 1051.76 569 1046.92 571.79 1043.44 569.78"/><polygon class="cls-8" points="1048.5 572.7 1053.33 569.91 1056.81 571.91 1051.97 574.71 1048.5 572.7"/><polygon class="cls-8" points="1049.54 566.26 1054.37 563.47 1057.85 565.48 1053.01 568.27 1049.54 566.26"/><polygon class="cls-8" points="1054.59 569.18 1059.42 566.39 1062.9 568.4 1058.07 571.19 1054.59 569.18"/><polygon class="cls-8" points="1055.58 562.77 1060.42 559.98 1063.89 561.99 1059.06 564.78 1055.58 562.77"/><polygon class="cls-8" points="1060.63 565.69 1065.47 562.9 1068.95 564.91 1064.11 567.7 1060.63 565.69"/><polygon class="cls-8" points="1061.69 559.25 1066.52 556.46 1070 558.46 1065.17 561.25 1061.69 559.25"/><polygon class="cls-8" points="1066.74 562.16 1071.58 559.37 1075.05 561.38 1070.22 564.17 1066.74 562.16"/><polygon class="cls-8" points="1043.25 581.57 1048.08 578.77 1051.56 580.78 1046.72 583.57 1043.25 581.57"/><polygon class="cls-8" points="1048.3 584.48 1053.13 581.69 1056.61 583.7 1051.78 586.49 1048.3 584.48"/><polygon class="cls-8" points="1049.36 578.04 1054.19 575.25 1057.67 577.25 1052.83 580.05 1049.36 578.04"/><polygon class="cls-8" points="1054.41 580.96 1059.24 578.16 1062.72 580.17 1057.88 582.96 1054.41 580.96"/><polygon class="cls-8" points="1055.4 574.55 1060.23 571.76 1063.71 573.76 1058.88 576.56 1055.4 574.55"/><polygon class="cls-8" points="1060.45 577.47 1065.29 574.67 1068.77 576.68 1063.93 579.47 1060.45 577.47"/><polygon class="cls-8" points="1061.49 571.03 1066.33 568.24 1069.8 570.25 1064.97 573.04 1061.49 571.03"/><polygon class="cls-8" points="1066.55 573.95 1071.38 571.16 1074.86 573.17 1070.02 575.96 1066.55 573.95"/><polygon class="cls-8" points="1067.54 567.54 1072.37 564.75 1075.85 566.76 1071.01 569.55 1067.54 567.54"/><polygon class="cls-8" points="1072.59 570.46 1077.42 567.67 1080.9 569.68 1076.07 572.47 1072.59 570.46"/><polygon class="cls-8" points="1073.64 564.01 1078.48 561.22 1081.95 563.23 1077.12 566.02 1073.64 564.01"/><polygon class="cls-8" points="1078.7 566.93 1083.53 564.14 1087.01 566.15 1082.17 568.94 1078.7 566.93"/><polygon class="cls-8" points="1079.71 560.51 1084.55 557.72 1088.02 559.73 1083.19 562.52 1079.71 560.51"/><polygon class="cls-8" points="1084.76 563.43 1089.6 560.64 1093.08 562.65 1088.24 565.44 1084.76 563.43"/><polygon class="cls-8" points="1055.76 586.01 1060.59 583.22 1064.07 585.23 1059.23 588.02 1055.76 586.01"/><polygon class="cls-8" points="1061.87 582.49 1066.7 579.7 1070.18 581.7 1065.34 584.49 1061.87 582.49"/><polygon class="cls-8" points="1067.91 579 1072.75 576.21 1076.22 578.21 1071.39 581 1067.91 579"/><polygon class="cls-8" points="1074 575.48 1078.84 572.69 1082.31 574.7 1077.48 577.49 1074 575.48"/><polygon class="cls-8" points="1080.05 571.99 1084.88 569.2 1088.36 571.21 1083.52 574 1080.05 571.99"/><polygon class="cls-8" points="1086.15 568.46 1090.99 565.67 1094.47 567.68 1089.63 570.47 1086.15 568.46"/><polygon class="cls-8" points="1092.22 564.96 1097.06 562.17 1100.53 564.18 1095.7 566.97 1092.22 564.96"/><polygon class="cls-8" points="1085.82 556.99 1090.65 554.2 1094.13 556.2 1089.3 558.99 1085.82 556.99"/><polygon class="cls-8" points="1090.87 559.9 1095.71 557.11 1099.18 559.12 1094.35 561.91 1090.87 559.9"/><polygon class="cls-8" points="1091.86 553.5 1096.7 550.71 1100.17 552.71 1095.34 555.5 1091.86 553.5"/><polygon class="cls-8" points="1096.92 556.41 1101.75 553.62 1105.23 555.63 1100.39 558.42 1096.92 556.41"/><polygon class="cls-8" points="1067.73 555.76 1072.57 552.97 1076.05 554.97 1071.21 557.76 1067.73 555.76"/><polygon class="cls-8" points="1072.79 558.67 1077.62 555.88 1081.1 557.89 1076.27 560.68 1072.79 558.67"/><polygon class="cls-8" points="1073.92 552.19 1078.75 549.39 1082.23 551.4 1077.4 554.19 1073.92 552.19"/><polygon class="cls-8" points="1078.97 555.1 1083.81 552.31 1087.28 554.32 1082.45 557.11 1078.97 555.1"/><polygon class="cls-8" points="1079.96 548.7 1084.8 545.9 1088.28 547.91 1083.44 550.7 1079.96 548.7"/><polygon class="cls-8" points="1085.02 551.61 1089.85 548.82 1093.33 550.83 1088.49 553.62 1085.02 551.61"/><polygon class="cls-8" points="1086.07 545.17 1090.91 542.38 1094.38 544.39 1089.55 547.18 1086.07 545.17"/><polygon class="cls-8" points="1091.13 548.09 1095.96 545.3 1099.44 547.3 1094.6 550.1 1091.13 548.09"/><polygon class="cls-8" points="1056.56 591.38 1061.39 588.59 1064.87 590.6 1060.04 593.39 1056.56 591.38"/><polygon class="cls-8" points="1062.67 587.86 1067.5 585.07 1070.98 587.08 1066.14 589.87 1062.67 587.86"/><polygon class="cls-8" points="1094.35 569.57 1099.19 566.77 1102.66 568.78 1097.83 571.57 1094.35 569.57"/><polygon class="cls-8" points="1100.4 566.08 1105.23 563.28 1108.71 565.29 1103.87 568.08 1100.4 566.08"/><polygon class="cls-8" points="1106.51 562.55 1111.34 559.76 1114.82 561.76 1109.98 564.56 1106.51 562.55"/><polygon class="cls-8" points="1112.49 559.1 1116.17 556.97 1119.65 558.97 1115.96 561.1 1112.49 559.1"/><polygon class="cls-8" points="1068.78 584.33 1093.18 570.24 1096.66 572.25 1072.25 586.34 1068.78 584.33"/><polygon class="cls-12" points="1027.78 591.39 1020.91 587.42 1020.91 585.21 1027.78 589.18 1027.78 591.39"/><polygon class="cls-12" points="1035.74 595.99 1028.86 592.02 1028.86 589.81 1035.74 593.78 1035.74 595.99"/><polygon class="cls-16" points="1019.57 522.58 1085.17 484.66 1085.17 479.83 1019.57 517.75 1019.57 522.58"/><polygon class="cls-16" points="1019.57 568.75 1085.17 530.83 1085.17 516.41 1019.57 554.33 1019.57 568.75"/><polygon class="cls-10" points="1070.76 523.71 1070.76 494.51 1035.16 514.97 1035.16 544.16 1070.76 523.71"/><path class="cls-9" d="M1374.37,503.82a5.1,5.1,0,0,0-1.82,1.05,1.49,1.49,0,0,0-1.94.12,1.16,1.16,0,0,0-.8-1.3c-1.24-.41-1.71,1-1.88,2.14-1.21-.68-2.42.62-2,2.07-1.51-.06-2.15,1.3-1.15,2.52a1.35,1.35,0,0,0-.13,2.6c-.63.46-2,1.58-.65,2.87a2,2,0,0,0,0,3.3c-1.23,1-1.93,2.6-.55,3.32-1.77,2.44,2.59,5.25,5.42,2.37l0,0a12.4,12.4,0,0,0,5.46-5Z" transform="translate(-303.61 -2.41)"/><polygon class="cls-13" points="1035.16 544.16 1070.76 523.71 1070.76 516.21 1035.16 536.67 1035.16 544.16"/><path class="cls-8" d="M1361.77,528.48c-.25-.22-.59-.15-.94,0,.14-.92-.5-1.47-1.14-1,.24-.68.17-1.16-.33-1.37-.88-.39-2,1.33-2,1.33V526l-2.21,1.27v-13l1.78-1-5.59-3.07-12.57,7.26v22.77l6.43-3.71,1.81-1.05,1.24-.71a2.93,2.93,0,0,0-.39,1.37c-.07,1.54,1.13,1.71,2.1.81.64.72,2.63,0,3.31-1.94a.67.67,0,0,0,.39,0c.12,1.22,1.19,1.32,2.09.49.64.72,2.63,0,3.31-1.94.84.19,2.34-1.53,2.81-2.86C1362.16,529.75,1362.19,528.84,1361.77,528.48ZM1347,518.93l6.63-3.83v12.53h-.07c-.53,0-1.11.62-1.5,1.38l-5.06,2.92Z" transform="translate(-303.61 -2.41)"/><path class="cls-8" d="M1372.07,520.17c.71-1,1.15-2.36-.38-2.93a1.8,1.8,0,0,0-2.12.65,1.54,1.54,0,0,0-1.29-.38c-.62.15-.75.8-.78,1.41-.37-.36-.89-.64-1.31-.24s-.2.72.07,1.08c-.65.07-1.27.32-1.37.93s.58,1,1.28,1.17a1.71,1.71,0,0,0-.4,2c.52.88,1.5.63,2.26.17a2,2,0,0,0,2.5.93,2.25,2.25,0,0,0,1.28-3c.53-.13,1-.5.88-1.12A.84.84,0,0,0,1372.07,520.17Z" transform="translate(-303.61 -2.41)"/><rect class="cls-8" x="1345.75" y="525.38" width="9.35" height="0.73" transform="translate(-385.56 743.23) rotate(-30)"/><rect class="cls-8" x="1044.25" y="524.67" width="0.42" height="4.62"/><rect class="cls-8" x="1045.7" y="523.72" width="0.42" height="4.62"/><rect class="cls-8" x="1047.12" y="522.74" width="0.47" height="4.62"/><rect class="cls-8" x="1048.54" y="521.89" width="0.42" height="4.62"/><path class="cls-1" d="M1371,530.89,1357,539l0,0,0,0-14,8.08a4.09,4.09,0,0,0-1.68,3.23v5.24c0,1.24.76,1.82,1.68,1.28l14-8.08,0,0h0l14-8.08a4.07,4.07,0,0,0,1.69-3.23v-5.25C1372.66,530.92,1371.9,530.35,1371,530.89Z" transform="translate(-303.61 -2.41)"/><path class="cls-12" d="M1370.59,531.63l-14.74,8.51,0,0,0,0-12.5,7.21a3.65,3.65,0,0,0-1.5,2.88V555c0,1.1.68,1.62,1.5,1.14l12.5-7.22,0,0,0,0,14.74-8.51a3.62,3.62,0,0,0,1.51-2.88v-4.68C1372.1,531.66,1371.42,531.15,1370.59,531.63Z" transform="translate(-303.61 -2.41)"/><path class="cls-1" d="M1356.2,542.23a.91.91,0,0,0-.37.71v3.12c0,.28.17.41.37.29a.89.89,0,0,0,.37-.72v-3.12C1356.57,542.24,1356.41,542.11,1356.2,542.23Z" transform="translate(-303.61 -2.41)"/><path class="cls-1" d="M1357.54,541.46a.89.89,0,0,0-.38.71v3.12c0,.28.17.4.38.29a.92.92,0,0,0,.37-.72v-3.12C1357.91,541.47,1357.74,541.34,1357.54,541.46Z" transform="translate(-303.61 -2.41)"/><path class="cls-1" d="M1361,539.81v3.31c0,.2.16.23.29,0l1.9-2.64c.16-.22.16-.52,0-.56l-2-.48C1361.13,539.46,1361,539.64,1361,539.81Z" transform="translate(-303.61 -2.41)"/><path class="cls-1" d="M1368.87,536.69l-1.27-.87c-.07-.05-.16.11-.16.27v1.28l-1.16-.79c-.07-.05-.16.11-.16.28v3.3c0,.2.1.27.19.11l1.13-2v1.17c0,.2.11.26.19.11l1.24-2.26C1369,537.06,1369,536.76,1368.87,536.69Z" transform="translate(-303.61 -2.41)"/><path class="cls-1" d="M1345,550.47l1.28-2.34c.07-.13.16-.08.16.09v1.27l1.16-2.13c.07-.12.16-.07.16.09v3.31c0,.2-.11.39-.19.33l-1.13-.74v1.17c0,.2-.11.39-.19.33L1345,551C1344.9,551,1344.9,550.66,1345,550.47Z" transform="translate(-303.61 -2.41)"/><path class="cls-1" d="M1353,544.46v3.3c0,.21-.16.42-.29.39l-1.9-.44c-.16,0-.16-.34,0-.56l2-2.73C1352.81,544.27,1353,544.29,1353,544.46Z" transform="translate(-303.61 -2.41)"/><path class="cls-8" d="M1333,529.83l-4.14,2.39c-.5.29-.92,0-.92-.7V526a2.26,2.26,0,0,1,.92-1.77l4.14-2.38c.51-.3.92,0,.92.69v5.52A2.19,2.19,0,0,1,1333,529.83Z" transform="translate(-303.61 -2.41)"/><path class="cls-12" d="M1332.78,529.67l-3.71,2.14c-.51.3-.93,0-.93-.69v-5a2.24,2.24,0,0,1,.93-1.77l3.71-2.14c.5-.29.92,0,.92.7v4.95A2.24,2.24,0,0,1,1332.78,529.67Z" transform="translate(-303.61 -2.41)"/><polygon class="cls-1" points="1028.95 525.87 1025.67 527.77 1025.67 523.39 1028.95 521.49 1028.95 525.87"/><path class="cls-8" d="M1333,539.33l-4.14,2.39c-.5.29-.92,0-.92-.7v-5.51a2.26,2.26,0,0,1,.92-1.77l4.14-2.38c.51-.3.92,0,.92.69v5.52A2.19,2.19,0,0,1,1333,539.33Z" transform="translate(-303.61 -2.41)"/><path class="cls-12" d="M1332.78,539.17l-3.71,2.14c-.51.3-.93,0-.93-.69v-5a2.2,2.2,0,0,1,.93-1.76l3.71-2.15c.5-.29.92,0,.92.7v4.95A2.22,2.22,0,0,1,1332.78,539.17Z" transform="translate(-303.61 -2.41)"/><polygon class="cls-1" points="1028.95 535.37 1025.67 537.27 1025.67 532.89 1028.95 530.99 1028.95 535.37"/><rect class="cls-12" x="1027.14" y="530.99" width="0.34" height="6.05"/><polygon class="cls-12" points="1029.45 532.72 1024.83 535.39 1024.83 535.73 1029.45 533.06 1029.45 532.72"/><path class="cls-8" d="M1333,548.76l-4.14,2.38c-.5.3-.92,0-.92-.69v-5.52a2.24,2.24,0,0,1,.92-1.76l4.14-2.39c.51-.29.92,0,.92.7V547A2.23,2.23,0,0,1,1333,548.76Z" transform="translate(-303.61 -2.41)"/><path class="cls-12" d="M1332.78,548.6l-3.71,2.14c-.51.29-.93,0-.93-.7v-4.95a2.22,2.22,0,0,1,.93-1.76l3.71-2.14c.5-.3.92,0,.92.69v5A2.26,2.26,0,0,1,1332.78,548.6Z" transform="translate(-303.61 -2.41)"/><polygon class="cls-1" points="1028.95 544.8 1025.67 546.69 1025.67 542.31 1028.95 540.41 1028.95 544.8"/><rect class="cls-12" x="1026.6" y="541.51" width="0.26" height="4.64"/><rect class="cls-12" x="1027.73" y="540.95" width="0.26" height="4.64"/><polygon class="cls-12" points="1029.08 541.69 1025.54 543.74 1025.54 544 1029.08 541.95 1029.08 541.69"/><polygon class="cls-12" points="1029.08 543.28 1025.54 545.32 1025.54 545.58 1029.08 543.54 1029.08 543.28"/><path class="cls-17" d="M1391.15,808.05l-2.1,20.7s-9.78,10.46-23.32,1.33c-8.08-5.44-22.25-13.92-26.75-23.16s-3.09-14.78.84-17.24,23.84,9.14,23.84,9.14Z" transform="translate(-303.61 -2.41)"/><path class="cls-17" d="M1362.12,791.67s11-65.74,14.76-78c5.17-17,9.31-23.91,20.29-28.31,6.48-2.6,21.49-.53,37,2.83,2,13.95.08,29.69-7.42,41.66-5.26-2.85-10.47-5.68-15.37-8.37a93.5,93.5,0,0,0-5.28,18.66c-1.87,10.64-5,27.33-5.5,38.35s-1.56,27.34-1.56,27.34-11.46,9.59-25.81,4C1359.1,804.29,1362.12,791.67,1362.12,791.67Z" transform="translate(-303.61 -2.41)"/><path class="cls-6" d="M1443.35,861.6h0a9.16,9.16,0,0,0,9.13-9.13V768.15a9.16,9.16,0,0,0-9.13-9.14h0a9.16,9.16,0,0,0-9.14,9.14v84.32A9.16,9.16,0,0,0,1443.35,861.6Z" transform="translate(-303.61 -2.41)"/><path class="cls-9" d="M1385.54,772.19c0,17,25.88,30.75,57.81,30.75s57.81-13.77,57.81-30.75-25.88-30.75-57.81-30.75S1385.54,755.2,1385.54,772.19Z" transform="translate(-303.61 -2.41)"/><rect class="cls-9" x="1385.54" y="766.39" width="115.62" height="6.69" transform="translate(2583.08 1537.05) rotate(180)"/><path class="cls-1" d="M1385.54,766.39c0,17,25.88,30.75,57.81,30.75s57.81-13.77,57.81-30.75-25.88-30.76-57.81-30.76S1385.54,749.4,1385.54,766.39Z" transform="translate(-303.61 -2.41)"/><path class="cls-5" d="M1388.27,763.05c0,16.18,24.66,29.3,55.08,29.3s55.08-13.12,55.08-29.3-24.66-29.3-55.08-29.3S1388.27,746.87,1388.27,763.05Z" transform="translate(-303.61 -2.41)"/><polygon class="cls-5" points="1191.9 741.82 1194.82 760.64 1084.66 760.64 1087.58 741.82 1191.9 741.82"/><ellipse class="cls-15" cx="1139.74" cy="746.47" rx="52.92" ry="28.15"/><ellipse class="cls-15" cx="1139.74" cy="746.47" rx="52.92" ry="28.15"/><path class="cls-6" d="M1497.55,905.09c0,5.66,3.44,12.24,7.69,14.7s7.7-.15,7.7-5.82-3.45-12.25-7.7-14.7S1497.55,899.42,1497.55,905.09Z" transform="translate(-303.61 -2.41)"/><polygon class="cls-6" points="1191.02 899.75 1196.96 896.27 1206.64 917.79 1200.46 921.36 1191.02 899.75"/><path class="cls-11" d="M1491.33,908.68c0,5.66,3.44,12.25,7.69,14.7s7.7-.15,7.7-5.82-3.45-12.25-7.7-14.7S1491.33,903,1491.33,908.68Z" transform="translate(-303.61 -2.41)"/><path class="cls-6" d="M1509.69,901.6h0a6.4,6.4,0,0,0-2.35-8.75l-121.58-70.18A6.4,6.4,0,0,0,1377,825h0a6.41,6.41,0,0,0,2.34,8.75l121.58,70.17A6.42,6.42,0,0,0,1509.69,901.6Z" transform="translate(-303.61 -2.41)"/><path class="cls-6" d="M1385.76,903.94l121.58-70.17a6.4,6.4,0,0,0,2.35-8.75h0a6.41,6.41,0,0,0-8.76-2.35l-121.58,70.18a6.4,6.4,0,0,0-2.34,8.75h0A6.41,6.41,0,0,0,1385.76,903.94Z" transform="translate(-303.61 -2.41)"/><path class="cls-6" d="M1378.35,834.86c0,5.66,3.44,12.25,7.69,14.7s7.7-.15,7.7-5.82-3.45-12.25-7.7-14.7S1378.35,829.19,1378.35,834.86Z" transform="translate(-303.61 -2.41)"/><polygon class="cls-6" points="1071.82 829.53 1077.76 826.04 1087.44 847.57 1081.26 851.13 1071.82 829.53"/><path class="cls-11" d="M1372.13,838.45c0,5.67,3.44,12.25,7.69,14.7s7.7-.15,7.7-5.81-3.45-12.25-7.7-14.71S1372.13,832.78,1372.13,838.45Z" transform="translate(-303.61 -2.41)"/><path class="cls-6" d="M1385.84,906.88c0,5.67,3.45,12.25,7.7,14.71s7.69-.16,7.69-5.82-3.44-12.25-7.69-14.71S1385.84,901.21,1385.84,906.88Z" transform="translate(-303.61 -2.41)"/><polygon class="cls-6" points="1079.32 901.55 1085.26 898.07 1094.94 919.59 1088.76 923.15 1079.32 901.55"/><path class="cls-11" d="M1379.62,910.47c0,5.67,3.45,12.25,7.7,14.71s7.69-.15,7.69-5.82-3.44-12.25-7.69-14.7S1379.62,904.81,1379.62,910.47Z" transform="translate(-303.61 -2.41)"/><path class="cls-6" d="M1502.4,838.86c0,5.66,3.45,12.25,7.7,14.7s7.7-.15,7.7-5.82-3.45-12.25-7.7-14.7S1502.4,833.19,1502.4,838.86Z" transform="translate(-303.61 -2.41)"/><polygon class="cls-6" points="1195.88 833.53 1201.82 830.04 1211.5 851.57 1205.32 855.13 1195.88 833.53"/><path class="cls-11" d="M1496.19,842.45c0,5.67,3.44,12.25,7.69,14.7s7.7-.15,7.7-5.81-3.45-12.26-7.7-14.71S1496.19,836.78,1496.19,842.45Z" transform="translate(-303.61 -2.41)"/><path class="cls-6" d="M1360,826.68l-2.11,20.71s-9.77,10.45-23.32,1.32c-8.07-5.44-22.24-13.91-26.75-23.16s-3.09-14.77.85-17.23,23.84,9.14,23.84,9.14Z" transform="translate(-303.61 -2.41)"/><path class="cls-18" d="M1520.31,662.19s-5.87,6.42-24.57-2.93c-21.75-10.87-34.4-13.48-34.4-13.48l3.52-16.42,36.1,2.07Z" transform="translate(-303.61 -2.41)"/><path class="cls-19" d="M1463.17,564.59s12.46-4.83,21.65,3.08,26.5,49.74,29.54,55.4,11.31,17.73-.43,27.74c-9.62,8.19-21.41-10-25.22-16.53-4.82-8.21-18.15-33.48-18.15-33.48Z" transform="translate(-303.61 -2.41)"/><path class="cls-6" d="M1331,810.31s11-65.74,14.75-78c5.17-17,9.32-23.92,20.3-28.32,15.88-6.36,83.08,15.3,83.08,15.3l48.41,2.51s2.49,19.67-11.4,29.7-47,20-70.94,7.42c-11.42-6-22.71-11.46-33.72-17.49-3.1,19.44-11.92,82.95-11.92,82.95s-13.1,9.67-27.45,4.06C1328,822.92,1331,810.31,1331,810.31Z" transform="translate(-303.61 -2.41)"/><path class="cls-20" d="M1347.86,623.75a183.92,183.92,0,0,0-24.41-8.08c-12-2.86-24.33,3-22.83,8.08s10.21,5.65,15.37,7,13.52,5.68,21.18,8.2S1347.86,623.75,1347.86,623.75Z" transform="translate(-303.61 -2.41)"/><path class="cls-20" d="M1443,511.87c7.2-5,21-3.44,27.06,9.25,3.32,7-1.38,25.92-2.12,39.19-.6,10.7,3,16.88,3,16.88l-9.18,3.78c-9.18,3.78-18.75,0-18.75,0l.3-16.32s-9.88-1.47-11.61-3c-4.16-3.82-6.37-15.17-4.44-29.81C1430.16,510,1440.39,513.71,1443,511.87Z" transform="translate(-303.61 -2.41)"/><path class="cls-17" d="M1496.87,708.14v7.11s-20.48,17.55-47.94,13-36.61-18.1-36.61-18.1l2-7.34Z" transform="translate(-303.61 -2.41)"/><path class="cls-16" d="M1501.69,695.69c4.31,15.79-30.34,27-49.37,26.26-17.32-.65-38.66-7.09-40.47-23.11,3.9-19.18,15.07-48.77,6.73-66.58-5.42-11.56,4.56-30.86,8-38.4s16.5-15.21,16.5-15.21,18.7,2.32,25.93-6.81c10.41,2,20.35,10.34,25.66,48.2.94,6.64,1.4,32.89,2.45,48.23.63,9.21,2.77,7.17,1.7,15.1C1497.67,692,1500.65,690.35,1501.69,695.69Z" transform="translate(-303.61 -2.41)"/><path class="cls-11" d="M1425.14,512.28c5.33,1.62,10.24-6.87,12.3-7.79,7.93-3.56,25.55-9.78,33.83,1.11,6.81,3.94,18,10.31,12,33.55-3.9,15-11,14.09-15.23,26-7.47-1.31-10.73-2.9-15-7.13a17,17,0,0,1-4.69-9.91s5-9.92,1.13-13.46c-4.14-3.77-7.92,2.46-9.34,4.64C1426.12,529.15,1423.25,518.5,1425.14,512.28Z" transform="translate(-303.61 -2.41)"/><path class="cls-1" d="M1443.15,575.26l-4.26,6.13s14.4,7.79,25.67,3.32c10.17-4,14.76-7.66,14.76-7.66s-4.08-7.46-9.92-7.45c-3.44,0-8.26,4-12.06,4.9C1448.93,576.58,1443.15,575.26,1443.15,575.26Z" transform="translate(-303.61 -2.41)"/><path class="cls-19" d="M1332.57,634.76c.17-8.31,8.7-21.61,17.2-16.72,10.84,6.24,33.74,16,33.74,16s11.92-11.7,19.06-21.1c12.39-16.36,24-22.49,29.9-21.27,9.55,2,18.39,17.25,9.09,32.46s-29.31,35.06-48,42.63-38.27-10.39-50.86-17.57C1338.39,646.75,1332.36,645,1332.57,634.76Z" transform="translate(-303.61 -2.41)"/><path class="cls-16" d="M1411.19,603s4,7.63,7,10.26,7.28,6,7.28,6-9.2,13.48-18.45,16.25-16.37-8.76-16.37-8.76S1406.47,606.85,1411.19,603Z" transform="translate(-303.61 -2.41)"/><path class="cls-6" d="M1442.12,521.5s-17,5.47-25.77-2.91,16.29-14.54,16.29-14.54Z" transform="translate(-303.61 -2.41)"/><path class="cls-21" d="M1485.78,531.19l-2.56,8s-15.17,5.49-34.29-7.63c-18.7-12.83-19.08-23-19.08-23l4.61-7.35Z" transform="translate(-303.61 -2.41)"/><path class="cls-6" d="M1481.4,535.67c-14.6-1-34.51-12.53-44.46-25.77s-6.18-23.17,8.42-22.18,34.51,12.52,44.46,25.76S1496,536.65,1481.4,535.67Z" transform="translate(-303.61 -2.41)"/><path class="cls-11" d="M1481.48,532.79c-13.73-.93-32.44-11.77-41.8-24.22s-5.81-21.78,7.92-20.86,32.44,11.78,41.8,24.23S1495.21,533.72,1481.48,532.79Z" transform="translate(-303.61 -2.41)"/><path class="cls-5" d="M1470.64,755.77V689.59c0-23.18,14.21-50.34,31.59-60.38l16.5-9.52c17.37-10,31.59.72,31.59,23.89v66.18Z" transform="translate(-303.61 -2.41)"/><polygon class="cls-5" points="1236.11 615.88 1249.61 623.91 1237.53 631.93 1236.11 615.88"/><polygon class="cls-5" points="1180.18 761.17 1167.02 753.36 1182.58 738.04 1180.18 761.17"/><path class="cls-22" d="M1483.79,763.58V697.4c0-23.17,14.22-50.34,31.6-60.37l16.49-9.52c17.38-10,31.6.71,31.6,23.88v66.18Z" transform="translate(-303.61 -2.41)"/><path class="cls-6" d="M1533.53,691.72c0,14,1.39,44.12,1.18,51.1-.47,15.13,8.9,62.62-51.42,64.3-6,.17-30.72-1.43-35.07-4.29,9.91-.47,26.94-4.16,40.53-11.6,39.16-3.61,35-33.53,34.42-52.22-.61-21.8-.07-39.58,0-46.88C1523.27,682.7,1533.53,682.26,1533.53,691.72Z" transform="translate(-303.61 -2.41)"/><polygon class="cls-1" points="1165.89 282.8 762.88 515.48 762.88 511.92 1165.93 279.15 1165.89 282.8"/><polygon class="cls-1" points="899.08 541 895.91 542.75 895.91 330.58 899.08 328.75 899.08 541"/><polygon class="cls-1" points="1033.17 463.47 1030 465.27 1030 253.82 1033.17 251.99 1033.17 463.47"/><circle class="cls-23" cx="614.62" cy="239.16" r="17.57"/><rect class="cls-9" x="597.04" y="187.91" width="35.15" height="51.25"/><path class="cls-9" d="M918.23,231.68c-9.71,0-17.58,4.43-17.58,9.89s7.87,9.89,17.58,9.89,17.57-4.43,17.57-9.89S927.93,231.68,918.23,231.68Z" transform="translate(-303.61 -2.41)"/><path class="cls-10" d="M918.23,148.19c-30.77,0-55.71,14-55.71,31.35s24.94,31.35,55.71,31.35,55.7-14,55.7-31.35S949,148.19,918.23,148.19Z" transform="translate(-303.61 -2.41)"/><rect class="cls-10" x="558.91" y="168.94" width="111.41" height="8.19"/><path class="cls-1" d="M918.23,140c-30.77,0-55.71,14-55.71,31.35s24.94,31.35,55.71,31.35,55.7-14,55.7-31.35S949,140,918.23,140Z" transform="translate(-303.61 -2.41)"/><path class="cls-23" d="M918.23,195.66c-24.68,0-44.76-10.9-44.76-24.31S893.55,147,918.23,147,963,158,963,171.35,942.9,195.66,918.23,195.66Zm0-45.81c-23.13,0-42,9.64-42,21.5s18.82,21.51,42,21.51,41.94-9.65,41.94-21.51S941.36,149.85,918.23,149.85Z" transform="translate(-303.61 -2.41)"/><path class="cls-10" d="M959.39,289.36l-35.08,20.25c-5.19,3-9.44-.22-9.44-7.14V255.7c0-6.92,4.25-15,9.44-18l35.08-20.25c5.19-3,9.44.21,9.44,7.14v46.76C968.83,278.24,964.58,286.36,959.39,289.36Z" transform="translate(-303.61 -2.41)"/><polygon class="cls-10" points="614.62 307.72 700.43 357.2 747.57 264.01 661.23 214.19 614.62 307.72"/><polygon class="cls-1" points="705.57 285.95 619.22 236.25 652.32 217.11 738.68 266.81 705.57 285.95"/><polygon class="cls-23" points="707.36 353.5 611.26 298.01 611.26 252.66 707.36 308.14 707.36 353.5"/><polygon class="cls-12" points="649.62 314.27 620.26 297.32 620.26 288.18 649.62 305.13 649.62 314.27"/><path class="cls-12" d="M1045.74,339.18l-35.07,20.25c-5.19,3-9.44-.21-9.44-7.14V305.53c0-6.93,4.25-15,9.44-18l35.07-20.25c5.2-3,9.45.22,9.45,7.14v46.77C1055.19,328.06,1050.94,336.18,1045.74,339.18Z" transform="translate(-303.61 -2.41)"/><polygon class="cls-12" points="700.43 357.2 710.49 362.77 757.29 269.35 747.57 264.01 700.43 357.2"/><path class="cls-24" d="M1063.64,274.25a10.05,10.05,0,0,0-1.76.79l-35.07,20.25c-5.19,3-8.69,10.84-9.44,18l-6.4,44.32c0,6.92,4.25,10.14,9.45,7.14l35.07-20.25c5.19-3,9.44-11.12,9.44-18.05V279.73A10.85,10.85,0,0,0,1063.64,274.25Z" transform="translate(-303.61 -2.41)"/><path class="cls-12" d="M1050.27,289c4.07,2.56,6.64,8.15,6.64,16,0,14.82-9,32-20.11,38.44-4.08,2.35-7.86,2.91-11,2,3.56,2.24,8.28,2.16,13.46-.84,11.11-6.41,20.12-23.62,20.12-38.43C1059.35,296.79,1055.73,290.64,1050.27,289Z" transform="translate(-303.61 -2.41)"/><path class="cls-11" d="M1036.8,343.48c11.11-6.42,20.11-23.62,20.11-38.44,0-7.89-2.57-13.48-6.64-16-3.17-.95-7-.39-11,2-11.11,6.42-20.11,23.62-20.11,38.44,0,7.89,2.57,13.48,6.65,16C1028.94,346.39,1032.72,345.83,1036.8,343.48Z" transform="translate(-303.61 -2.41)"/><path class="cls-1" d="M1052.39,311.09c0,9.69-5.89,20.94-13.16,25.14s-13.15-.26-13.15-10,5.89-20.94,13.15-25.13S1052.39,301.41,1052.39,311.09Z" transform="translate(-303.61 -2.41)"/><path class="cls-12" d="M1043,306.14a9.75,9.75,0,0,1,1.33,5.31c0,6.38-3.88,13.79-8.67,16.55a6.5,6.5,0,0,1-3.79,1c1.53,2.4,4.24,3,7.34,1.24,4.79-2.76,8.67-10.17,8.67-16.55C1047.9,309.11,1045.9,306.36,1043,306.14Z" transform="translate(-303.61 -2.41)"/><path class="cls-11" d="M1035.68,328c4.79-2.76,8.67-10.17,8.67-16.55a9.75,9.75,0,0,0-1.33-5.31,6.53,6.53,0,0,0-3.79,1c-4.78,2.76-8.66,10.17-8.66,16.55a9.84,9.84,0,0,0,1.32,5.31A6.5,6.5,0,0,0,1035.68,328Z" transform="translate(-303.61 -2.41)"/><path class="cls-1" d="M1020.74,349a3.56,3.56,0,0,1,.55,2.09,7.73,7.73,0,0,1-3.23,6.18,2.58,2.58,0,0,1-1.24.39,1.89,1.89,0,0,0,2.69.35,7.76,7.76,0,0,0,3.23-6.18C1022.74,350,1021.92,349,1020.74,349Z" transform="translate(-303.61 -2.41)"/><path class="cls-10" d="M1021.29,351.1a3.56,3.56,0,0,0-.55-2.09,2.6,2.6,0,0,0-1.23.38,7.75,7.75,0,0,0-3.24,6.19,3.58,3.58,0,0,0,.55,2.09,2.58,2.58,0,0,0,1.24-.39A7.73,7.73,0,0,0,1021.29,351.1Z" transform="translate(-303.61 -2.41)"/><path class="cls-1" d="M1057.64,279a3.58,3.58,0,0,1,.55,2.09,7.75,7.75,0,0,1-3.24,6.19,2.64,2.64,0,0,1-1.23.38,1.87,1.87,0,0,0,2.68.36,7.74,7.74,0,0,0,3.24-6.18C1059.64,280,1058.81,278.93,1057.64,279Z" transform="translate(-303.61 -2.41)"/><path class="cls-10" d="M1058.19,281.05a3.58,3.58,0,0,0-.55-2.09,2.58,2.58,0,0,0-1.24.39,7.74,7.74,0,0,0-3.24,6.18,3.54,3.54,0,0,0,.56,2.09,2.64,2.64,0,0,0,1.23-.38A7.75,7.75,0,0,0,1058.19,281.05Z" transform="translate(-303.61 -2.41)"/><path class="cls-1" d="M1057.64,328.07a3.54,3.54,0,0,1,.55,2.09,7.74,7.74,0,0,1-3.24,6.18,2.55,2.55,0,0,1-1.23.39,1.88,1.88,0,0,0,2.68.35,7.74,7.74,0,0,0,3.24-6.18C1059.64,329.1,1058.81,328,1057.64,328.07Z" transform="translate(-303.61 -2.41)"/><path class="cls-10" d="M1058.19,330.16a3.54,3.54,0,0,0-.55-2.09,2.67,2.67,0,0,0-1.24.38,7.75,7.75,0,0,0-3.24,6.19,3.58,3.58,0,0,0,.56,2.09,2.55,2.55,0,0,0,1.23-.39A7.74,7.74,0,0,0,1058.19,330.16Z" transform="translate(-303.61 -2.41)"/><path class="cls-1" d="M1021.29,300.78a3.59,3.59,0,0,1,.56,2.1,7.74,7.74,0,0,1-3.24,6.18,2.7,2.7,0,0,1-1.24.39,1.89,1.89,0,0,0,2.69.35,7.73,7.73,0,0,0,3.23-6.18C1023.29,301.82,1022.47,300.76,1021.29,300.78Z" transform="translate(-303.61 -2.41)"/><path class="cls-10" d="M1021.85,302.88a3.59,3.59,0,0,0-.56-2.1,2.66,2.66,0,0,0-1.23.39,7.74,7.74,0,0,0-3.24,6.18,3.59,3.59,0,0,0,.55,2.1,2.7,2.7,0,0,0,1.24-.39A7.74,7.74,0,0,0,1021.85,302.88Z" transform="translate(-303.61 -2.41)"/><path class="cls-16" d="M1041.22,315.05c0,2.77-1.69,6-3.76,7.18s-3.76-.07-3.76-2.84,1.68-6,3.76-7.18S1041.22,312.28,1041.22,315.05Z" transform="translate(-303.61 -2.41)"/><path class="cls-12" d="M1067.49,274h.13l-16.43-7.58v8.65l-30.77,17.77c-5.2,3-9.45,11.12-9.45,18v46.77l6.4-44.32c.75-7.2,4.25-15,9.44-18L1061.88,275a10.05,10.05,0,0,1,1.76-.79,10.85,10.85,0,0,1,1.29,5.48v46.76l6.4-44.31C1072.32,277.38,1070.36,274.65,1067.49,274Z" transform="translate(-303.61 -2.41)"/><circle class="cls-12" cx="1582.86" cy="185.7" r="68.7" transform="translate(732.68 1680.35) rotate(-76.63)"/><path class="cls-25" d="M1538.47,205.31c0-34.32,23.21-62.14,57.53-62.14,5.84,0,23.8.83,29.16,2.33a62.13,62.13,0,0,0-102,47.63c0,28.47,19.48,52.47,45.6,59.82C1546.91,244.26,1538.47,224.44,1538.47,205.31Z" transform="translate(-303.61 -2.41)"/><path class="cls-26" d="M1644.64,180.28c-.13,25.3-15.31,54.32-34,65.05s-34-.66-34-25.73,15.24-54.2,34-65S1644.77,155.21,1644.64,180.28Z" transform="translate(-303.61 -2.41)"/><path class="cls-11" d="M1590.4,229.06c0,3.32-2,7.17-4.5,8.6s-4.5-.09-4.5-3.4,2-7.17,4.5-8.6S1590.4,225.74,1590.4,229.06Z" transform="translate(-303.61 -2.41)"/><path class="cls-1" d="M1588.91,229.92a7.21,7.21,0,0,1-3,5.75c-1.66,1-3-.06-3-2.27a7.21,7.21,0,0,1,3-5.75C1587.56,226.69,1588.91,227.71,1588.91,229.92Z" transform="translate(-303.61 -2.41)"/><path class="cls-11" d="M1639.7,200.14c0,3.32-2,7.17-4.5,8.6s-4.51-.08-4.51-3.4,2-7.17,4.51-8.6S1639.7,196.83,1639.7,200.14Z" transform="translate(-303.61 -2.41)"/><path class="cls-1" d="M1638.2,201a7.2,7.2,0,0,1-3,5.75c-1.67,1-3-.06-3-2.27a7.18,7.18,0,0,1,3-5.75C1636.86,197.77,1638.2,198.79,1638.2,201Z" transform="translate(-303.61 -2.41)"/><path class="cls-11" d="M1628.35,207.52c0,13.07-7.95,28.26-17.75,33.92s-17.76-.35-17.76-13.42,8-28.26,17.76-33.92S1628.35,194.44,1628.35,207.52Z" transform="translate(-303.61 -2.41)"/><path class="cls-1" d="M1625.78,209.69c0,10.3-6.27,22.27-14,26.74s-14-.28-14-10.58,6.26-22.28,14-26.74S1625.78,199.38,1625.78,209.69Z" transform="translate(-303.61 -2.41)"/><path class="cls-12" d="M1623.2,212.84c0,7.31-4.44,15.81-9.93,19s-9.93-.19-9.93-7.5,4.45-15.81,9.93-19S1623.2,205.53,1623.2,212.84Z" transform="translate(-303.61 -2.41)"/><path class="cls-16" d="M1618.82,216.54c0,2.59-1.58,5.6-3.52,6.72s-3.52-.07-3.52-2.66,1.58-5.6,3.52-6.72S1618.82,214,1618.82,216.54Z" transform="translate(-303.61 -2.41)"/><path class="cls-10" d="M1582.86,124.12c-41.13,0-74.48,18.77-74.48,41.92S1541.73,208,1582.86,208s74.48-18.77,74.48-41.92S1624,124.12,1582.86,124.12Z" transform="translate(-303.61 -2.41)"/><rect class="cls-10" x="1204.77" y="114.59" width="148.96" height="49.04"/><path class="cls-1" d="M1582.86,75.08c-41.13,0-74.48,18.76-74.48,41.92s33.35,41.92,74.48,41.92,74.48-18.77,74.48-41.92S1624,75.08,1582.86,75.08Z" transform="translate(-303.61 -2.41)"/><path class="cls-23" d="M1582.86,92.38c29,0,52.88,12.33,56,28.18a18.48,18.48,0,0,0,.37-3.57c0-17.53-25.25-31.74-56.4-31.74s-56.4,14.21-56.4,31.74a18.49,18.49,0,0,0,.38,3.57C1530,104.71,1553.86,92.38,1582.86,92.38Z" transform="translate(-303.61 -2.41)"/><path class="cls-10" d="M1582.86,148.74c29,0,52.88-12.33,56-28.18-3.15-15.85-27-28.18-56-28.18s-52.87,12.33-56,28.18C1530,136.41,1553.86,148.74,1582.86,148.74Z" transform="translate(-303.61 -2.41)"/><path class="cls-1" d="M1582.86,186.71c-39.72,0-72.17-17.5-74.35-39.54a23.21,23.21,0,0,0-.13,2.37c0,23.15,33.35,41.92,74.48,41.92s74.48-18.77,74.48-41.92a23.21,23.21,0,0,0-.12-2.37C1655,169.21,1622.58,186.71,1582.86,186.71Z" transform="translate(-303.61 -2.41)"/><path class="cls-23" d="M1564.57,137.05c-9.9,0-17.66-4.52-17.66-10.3s7.76-10.29,17.66-10.29,17.65,4.52,17.65,10.29S1574.47,137.05,1564.57,137.05Zm0-19c-8.68,0-16,4-16,8.65s7.34,8.66,16,8.66,16-4,16-8.66S1573.25,118.1,1564.57,118.1Z" transform="translate(-303.61 -2.41)"/><polygon class="cls-23" points="1306.98 101.12 1282.46 115.28 1277.79 112.7 1302.31 98.54 1306.98 101.12"/><polygon class="cls-23" points="1299.73 96.71 1275.21 110.86 1270.54 108.29 1295.06 94.13 1299.73 96.71"/><polygon class="cls-23" points="1314.33 105.07 1289.81 119.23 1285.13 116.65 1309.66 102.5 1314.33 105.07"/><polygon class="cls-23" points="1327.08 112.34 1273.58 143.4 1267.68 140.15 1321.18 109.09 1327.08 112.34"/><path class="cls-9" d="M1120.78,226.55l-28.68,16.56c-4.59,2.64-8.34-.19-8.34-6.31V198.56c0-6.11,3.75-13.28,8.34-15.93l28.68-16.56c4.59-2.65,8.34.19,8.34,6.3v38.25C1129.12,216.73,1125.37,223.9,1120.78,226.55Z" transform="translate(-303.61 -2.41)"/><polygon class="cls-9" points="786.36 242.99 783.2 241.12 783.2 238.47 788.24 240.26 786.36 242.99"/><path class="cls-10" d="M1124.36,228.53l-28.69,16.56c-4.58,2.65-8.33-.19-8.33-6.3V200.54c0-6.11,3.75-13.28,8.33-15.92l28.69-16.56c4.58-2.65,8.33.19,8.33,6.3V212.6C1132.69,218.72,1128.94,225.88,1124.36,228.53Z" transform="translate(-303.61 -2.41)"/><ellipse class="cls-12" cx="1094.05" cy="239.7" rx="3.39" ry="1.92" transform="translate(141.42 1150.07) rotate(-66.94)"/><path class="cls-24" d="M1096,239.33a3.24,3.24,0,0,1-1.36,2.59c-.75.44-1.36,0-1.36-1a3.26,3.26,0,0,1,1.36-2.6C1095.42,237.87,1096,238.33,1096,239.33Z" transform="translate(-303.61 -2.41)"/><path class="cls-12" d="M1096.26,192.18a5.27,5.27,0,0,1-2.21,4.21c-1.22.71-2.2,0-2.2-1.66a5.28,5.28,0,0,1,2.2-4.22C1095.27,189.81,1096.26,190.56,1096.26,192.18Z" transform="translate(-303.61 -2.41)"/><path class="cls-24" d="M1096,193.09a3.24,3.24,0,0,1-1.36,2.59c-.75.43-1.36,0-1.36-1a3.24,3.24,0,0,1,1.36-2.59C1095.42,191.63,1096,192.09,1096,193.09Z" transform="translate(-303.61 -2.41)"/><path class="cls-12" d="M1129.12,219.23a5.29,5.29,0,0,1-2.21,4.22c-1.21.7-2.2,0-2.2-1.67a5.29,5.29,0,0,1,2.2-4.21C1128.13,216.86,1129.12,217.61,1129.12,219.23Z" transform="translate(-303.61 -2.41)"/><path class="cls-24" d="M1128.89,220.14a3.24,3.24,0,0,1-1.36,2.59c-.75.44-1.36,0-1.36-1a3.27,3.27,0,0,1,1.36-2.6C1128.28,218.68,1128.89,219.14,1128.89,220.14Z" transform="translate(-303.61 -2.41)"/><path class="cls-12" d="M1129.12,173a5.27,5.27,0,0,1-2.21,4.21c-1.21.71-2.2,0-2.2-1.66a5.31,5.31,0,0,1,2.2-4.22C1128.13,170.62,1129.12,171.37,1129.12,173Z" transform="translate(-303.61 -2.41)"/><path class="cls-24" d="M1128.89,173.9a3.24,3.24,0,0,1-1.36,2.59c-.75.43-1.36,0-1.36-1a3.24,3.24,0,0,1,1.36-2.59C1128.28,172.44,1128.89,172.9,1128.89,173.9Z" transform="translate(-303.61 -2.41)"/><path class="cls-23" d="M1218.37,244.69,1123,189.63l-28.46,16.43,95.37,55.06c6.78,3.91,18.72,3.42,26.55-1.1S1225.14,248.61,1218.37,244.69Z" transform="translate(-303.61 -2.41)"/><rect class="cls-23" x="913.42" y="242.23" width="5.82" height="7.65"/><path class="cls-1" d="M1218.37,238.89,1123,183.83l-28.46,16.43,95.37,55.06c6.78,3.91,18.72,3.42,26.55-1.1S1225.14,242.81,1218.37,238.89Z" transform="translate(-303.61 -2.41)"/><path class="cls-9" d="M1094.54,200.26v22.92s6.81-.75,13.69-1.69c4.69-.64,12.11-.54,14.71,1l67,38.66v-5.8Z" transform="translate(-303.61 -2.41)"/><polygon class="cls-10" points="911.76 218.07 915.03 215.96 916.88 210.37 909.97 214.04 911.76 218.07"/><path class="cls-10" d="M1197,170.92v22.24c0,9.49,5.82,20.62,12.94,24.72h0c7.12,4.11,12.94-.29,12.94-9.78V185.86Z" transform="translate(-303.61 -2.41)"/><path class="cls-9" d="M1193.56,173.12v22.24c0,9.49,5.82,20.62,12.94,24.73h0c7.12,4.11,12.94-.29,12.94-9.78V188.06Z" transform="translate(-303.61 -2.41)"/><polygon class="cls-1" points="893.36 168.51 889.95 170.71 915.83 185.65 919.24 183.45 893.36 168.51"/><polygon class="cls-9" points="908.47 238.68 884.48 224.83 884.48 197.47 908.47 211.32 908.47 238.68"/><polygon class="cls-9" points="889.57 249.88 865.58 236.03 865.58 208.67 889.57 222.52 889.57 249.88"/><polygon class="cls-23" points="908.47 211.32 889.57 222.52 865.58 208.67 884.48 197.47 908.47 211.32"/><polygon class="cls-9" points="889.95 212.95 820.31 172.75 820.31 155.77 889.95 195.98 889.95 212.95"/><polygon class="cls-10" points="926.68 174.77 889.95 195.98 889.95 212.95 926.68 191.75 926.68 174.77"/><path class="cls-9" d="M1286.7,173.17l-41.09-24.74,4.54-7.42s27.83,6,31.93,11.79C1290.25,164.35,1286.7,173.17,1286.7,173.17Z" transform="translate(-303.61 -2.41)"/><polygon class="cls-12" points="965.52 152.55 856 89.46 823.21 160.21 931.78 222.82 965.52 152.55"/><path class="cls-24" d="M1277.18,175.08c-.09,18.89-11.43,40.57-25.43,48.59s-25.43-.5-25.43-19.23,11.39-40.48,25.43-48.59S1277.28,156.35,1277.18,175.08Z" transform="translate(-303.61 -2.41)"/><path class="cls-12" d="M1263.39,158.39c3.81,3,6.17,8.82,6.13,16.69-.09,16.25-9.83,34.88-21.86,41.76-4.28,2.45-8.25,3.09-11.61,2.21,4,3.17,9.53,3.38,15.7-.16,12-6.89,21.78-25.52,21.86-41.76C1273.66,166.73,1269.55,160,1263.39,158.39Z" transform="translate(-303.61 -2.41)"/><path class="cls-11" d="M1247.66,216.84c12-6.88,21.77-25.51,21.86-41.76,0-7.87-2.32-13.65-6.13-16.69-3.38-.89-7.36-.25-11.64,2.22-12.07,7-21.85,25.66-21.85,41.76,0,7.87,2.34,13.64,6.15,16.68C1239.41,219.93,1243.38,219.29,1247.66,216.84Z" transform="translate(-303.61 -2.41)"/><path class="cls-10" d="M1249.71,167c-.47.27-.94.58-1.4.9l7.75,4.47-13,32.54-9.62-5.49c.53,11,7.58,15.94,16.22,11,9-5.19,16.26-19.11,16.26-31.09S1258.69,161.84,1249.71,167Z" transform="translate(-303.61 -2.41)"/><path class="cls-12" d="M1257.38,171.68l-8-4.43c-8.78,5.22-15.85,19.54-15.85,31.76a12.52,12.52,0,0,0,.19,2.54l8.5,4.33Z" transform="translate(-303.61 -2.41)"/><path class="cls-24" d="M1262.2,181.88c0,9-5.5,19.37-12.25,23.26s-12.52-.45-12.49-9.41,5.5-19.37,12.25-23.27S1262.22,172.92,1262.2,181.88Z" transform="translate(-303.61 -2.41)"/><path class="cls-9" d="M1255.63,173.75c1.83,1.46,3,4.23,3,8,0,7.73-4.7,16.71-10.5,20.06a7.22,7.22,0,0,1-5.92,1c1.91,1.52,4.57,1.61,7.53-.09,5.79-3.35,10.49-12.33,10.49-20.05C1260.2,177.86,1258.39,174.67,1255.63,173.75Z" transform="translate(-303.61 -2.41)"/><path class="cls-10" d="M1248.1,201.83c5.8-3.35,10.5-12.33,10.5-20.06,0-3.79-1.14-6.56-3-8a7.18,7.18,0,0,0-5.92,1c-5.8,3.35-10.5,12.33-10.5,20.05,0,3.79,1.14,6.57,3,8A7.22,7.22,0,0,0,1248.1,201.83Z" transform="translate(-303.61 -2.41)"/><path class="cls-12" d="M1168.92,112.73c-.1,18.9-11.44,40.57-25.43,48.59s-25.43-.5-25.43-19.23,11.38-40.48,25.43-48.59S1169,94,1168.92,112.73Z" transform="translate(-303.61 -2.41)"/><path class="cls-10" d="M1111.17,141l115.15,67s8.11-34.22,21.79-45.73c14.57-12.28,34-11.73,34-11.73L1166.08,83s-22.59-2.26-39.26,19.68C1117.63,114.81,1111.17,141,1111.17,141Z" transform="translate(-303.61 -2.41)"/><path class="cls-1" d="M1230.59,205.56c.64-18.28,12.94-39.68,28.06-48.4s27.41-1.53,28,16l4.27-2.47c-.65-20.36-14.85-28.74-32.32-18.65s-31.68,34.87-32.33,56Z" transform="translate(-303.61 -2.41)"/><path class="cls-10" d="M1115.43,138.55c.65-18.29,12.94-39.68,28.06-48.41s27.41-1.53,28.06,16l4.26-2.46c-.65-20.36-14.85-28.75-32.32-18.66s-31.67,34.87-32.32,56Z" transform="translate(-303.61 -2.41)"/><path class="cls-1" d="M1256.29,184c0,5.44-3.31,11.75-7.39,14.11s-7.38-.15-7.38-5.58,3.31-11.76,7.38-14.11S1256.29,178.57,1256.29,184Z" transform="translate(-303.61 -2.41)"/><path class="cls-16" d="M1252.43,186.24c0,2.59-1.58,5.61-3.53,6.74s-3.52-.07-3.52-2.67,1.58-5.62,3.52-6.74S1252.43,183.64,1252.43,186.24Z" transform="translate(-303.61 -2.41)"/><path class="cls-9" d="M1217.82,197.57l-96.29-56.17c-1.36-.8-2.36-2.33-2.23-3.41l.06-.55c.13-1.08,1.35-1.31,2.71-.51l96.28,56.18c1.36.79,2.37,2.32,2.24,3.4l-.07.55C1220.4,198.14,1219.18,198.37,1217.82,197.57Z" transform="translate(-303.61 -2.41)"/><polygon class="cls-10" points="879.37 236.98 882.63 234.87 884.48 229.28 877.57 232.95 879.37 236.98"/><path class="cls-10" d="M1164.58,189.82v22.25c0,9.49,5.82,20.61,12.94,24.72h0c7.11,4.11,12.94-.29,12.94-9.78V204.77Z" transform="translate(-303.61 -2.41)"/><path class="cls-23" d="M1161.17,192v22.24c0,9.49,5.82,20.62,12.94,24.73h0c7.11,4.11,12.94-.29,12.94-9.78V207Z" transform="translate(-303.61 -2.41)"/><polygon class="cls-1" points="860.97 187.41 857.55 189.62 883.43 204.56 886.85 202.36 860.97 187.41"/><polygon class="cls-10" points="908.47 238.68 889.57 249.88 889.57 222.52 908.47 211.32 908.47 238.68"/><path class="cls-12" d="M1169.59,226.77c0,3,1.83,6.52,4.09,7.82s4.09-.08,4.09-3.09-1.83-6.52-4.09-7.82S1169.59,223.76,1169.59,226.77Z" transform="translate(-303.61 -2.41)"/><path class="cls-24" d="M1170,228.45a6.05,6.05,0,0,0,2.52,4.82c1.4.8,2.52-.05,2.52-1.91a6,6,0,0,0-2.52-4.81C1171.14,225.74,1170,226.59,1170,228.45Z" transform="translate(-303.61 -2.41)"/><path class="cls-1" d="M1170.92,229.2a3,3,0,0,0,1.27,2.43c.7.41,1.27,0,1.27-1a3.07,3.07,0,0,0-1.27-2.43C1171.48,227.84,1170.92,228.27,1170.92,229.2Z" transform="translate(-303.61 -2.41)"/><path class="cls-17" d="M1600.08,418.34s-1.43,9.81,3.77,10.75,10.51-14.36,10.51-14.36Z" transform="translate(-303.61 -2.41)"/><path class="cls-17" d="M1639.41,455.31s12.59-6.58,25.73.73,22.42,24.42,28,34.56c3.38,6.08,7.93,9.14,7.19,15.39-.79,6.64-2.31,18.57-5.73,24.74-7.59,13.73-16,37.4-16,37.4l-21.41-8.71Z" transform="translate(-303.61 -2.41)"/><path class="cls-17" d="M1600.61,835.25s-21.58-9.62-32.26-10.08-11.71,12.08,0,21.8,20.68,11,30.26,15c8.64,3.55,11.74,3.82,18.64-.65,9.19-6,1.82-21.72,1.82-21.72Z" transform="translate(-303.61 -2.41)"/><path class="cls-17" d="M1663,798.27s-17.14-7.17-27.82-7.63-14.51,8.77-2.8,18.49S1651.45,821,1661,825c8.64,3.55,11.7,3.76,18.63-.64,9.45-6,2.07-21.76,1.83-21.73Z" transform="translate(-303.61 -2.41)"/><path class="cls-6" d="M1599.25,585.61s-18.84,101.78-18.84,133.74c0,56.36.5,115.71.5,115.71s9.34,9.81,18.43,9.83c20.46.05,22.53-10.24,22.53-10.24s.28-67.16,2.06-97.67c1.25-21.23,2.48-51.13,11-75.8.25,25.34.18,33.46,2.26,61,1.54,20.35,10,75,10.48,78.54,6.48,7.83,26.59,13.24,36.78,1.77-.8-9-6.45-72.09-5.72-104.81.68-30.05,8.35-101.23-8.84-115.1C1655,570.63,1599.25,585.61,1599.25,585.61Z" transform="translate(-303.61 -2.41)"/><path class="cls-20" d="M1623.46,394.39c13.06-2.48,27.27-2.54,32,16.55,3.72,15-5.36,28.42-6.13,42.26-.63,11.15,3.11,17.59,3.11,17.59l-9.57,3.95c-9.57,3.94-19.54,0-19.54,0l.31-17s-10.3-1.53-12.11-3.18c-4.34-4-8.48-15-7.54-30.35C1605.29,402.7,1614.29,396.12,1623.46,394.39Z" transform="translate(-303.61 -2.41)"/><path class="cls-11" d="M1590.91,521.34c-5.65-12.06-2.41-23.55,1.19-31.41s31.26-17.62,31.26-17.62,17.39-4.78,24.93-14.3c5.23-2,26.41-.88,31.76,33.67,1.7,11.05.31,47.19-.3,75.35-.41,19,.87,46.48,2.13,58.73-12.24,12.62-42.72,21.76-58.38,17.57-9.35-2.51-26.3-6.74-32.58-14.44-.73-7.18,1.74-24.33,5.16-48.09C1598.32,565.18,1595.48,531.11,1590.91,521.34Z" transform="translate(-303.61 -2.41)"/><path class="cls-17" d="M1613,476.59s18.16,2.81,29.9-1.85c10.61-4.22,13.48-14.61,13.48-14.61s-5.07-6.13-7.08-5.58c-7.4,2-20.74,8.66-27.65,13.33C1613.32,473.47,1613,476.59,1613,476.59Z" transform="translate(-303.61 -2.41)"/><path class="cls-20" d="M1582.86,599.55s1.26,7.09,4.54,11.65a34.89,34.89,0,0,0,6.45,6.17,8.62,8.62,0,0,0-5.57,5.28c-1.56,4.29,1.07,4.53,4.58,3s12.85-5.83,14-9.74-6.11-16.66-10.4-23.68S1582.86,599.55,1582.86,599.55Z" transform="translate(-303.61 -2.41)"/><path class="cls-17" d="M1600.3,486.38c-7-3.95-20,12-26.88,26.34-5.43,11.39-13.94,30.89-19.59,40.21-3.26,5.39-5,10.94-2.88,16.84a44.8,44.8,0,0,0,8.06,12.71c8.29,9,22.24,24.71,22.24,24.71s10.21,4,16.63-4c4.59-5.71,2-18.53,2-18.53L1581.25,560s22.76-13.41,28-41.09C1613.25,498.27,1609.3,491.46,1600.3,486.38Z" transform="translate(-303.61 -2.41)"/><path class="cls-17" d="M1627.26,432.1c-.59-2.92-1.63-5.28-4.34-6.38-4.62-1.87-19.07-5.82-19.07-5.82l.13,4.29s13.56,2.78,17.58,4.94c2.9,1.56,2.26,8.13,4.21,8.13S1628,436,1627.26,432.1Z" transform="translate(-303.61 -2.41)"/><path class="cls-1" d="M957.28,566.75a2.41,2.41,0,0,1-1.26-4.47l12.34-7.54a2.41,2.41,0,1,1,2.52,4.11l-12.34,7.55A2.4,2.4,0,0,1,957.28,566.75Zm-4-7.24a2.41,2.41,0,0,1-2.41-2.41V542.63a2.41,2.41,0,1,1,4.82,0V557.1A2.41,2.41,0,0,1,953.23,559.51ZM982,551.66a2.41,2.41,0,0,1-1.25-4.47l12.34-7.55a2.41,2.41,0,0,1,2.51,4.12l-12.34,7.55A2.38,2.38,0,0,1,982,551.66Zm24.68-15.09a2.41,2.41,0,0,1-1.26-4.47l12.34-7.55a2.41,2.41,0,0,1,2.52,4.12l-12.34,7.54A2.41,2.41,0,0,1,1006.64,536.57Zm-53.41-6a2.41,2.41,0,0,1-2.41-2.41V513.7a2.41,2.41,0,1,1,4.82,0v14.47A2.41,2.41,0,0,1,953.23,530.58Zm0-28.93a2.41,2.41,0,0,1-2.41-2.41V484.77a2.41,2.41,0,0,1,4.82,0v14.47A2.41,2.41,0,0,1,953.23,501.65Zm0-28.93a2.41,2.41,0,0,1-2.41-2.41V455.84a2.41,2.41,0,1,1,4.82,0v14.47A2.41,2.41,0,0,1,953.23,472.72Zm0-28.93a2.41,2.41,0,0,1-2.41-2.41V426.91a2.41,2.41,0,1,1,4.82,0v14.47A2.41,2.41,0,0,1,953.23,443.79Zm0-28.93a2.41,2.41,0,0,1-2.41-2.41V398a2.41,2.41,0,1,1,4.82,0v14.47A2.41,2.41,0,0,1,953.23,414.86Zm0-28.93a2.41,2.41,0,0,1-2.41-2.41V369.05a2.41,2.41,0,1,1,4.82,0v14.47A2.41,2.41,0,0,1,953.23,385.93Z" transform="translate(-303.61 -2.41)"/><path class="cls-1" d="M1502.58,420.73a2.41,2.41,0,0,1-1.26-4.47l12.34-7.55a2.41,2.41,0,1,1,2.52,4.11l-12.34,7.55A2.41,2.41,0,0,1,1502.58,420.73Zm24.68-15.1a2.41,2.41,0,0,1-1.26-4.46l12.35-7.55a2.41,2.41,0,1,1,2.51,4.11l-12.34,7.55A2.4,2.4,0,0,1,1527.26,405.63Zm24.68-15.09a2.41,2.41,0,0,1-1.25-4.47l12.34-7.54a2.41,2.41,0,1,1,2.51,4.11l-12.34,7.55A2.38,2.38,0,0,1,1551.94,390.54Zm14.33-20.89a2.41,2.41,0,0,1-2.41-2.41V352.77a2.41,2.41,0,0,1,4.82,0v14.47A2.4,2.4,0,0,1,1566.27,369.65Zm0-28.93a2.41,2.41,0,0,1-2.41-2.41V323.84a2.41,2.41,0,0,1,4.82,0v14.47A2.4,2.4,0,0,1,1566.27,340.72Zm0-28.93a2.41,2.41,0,0,1-2.41-2.41V294.91a2.41,2.41,0,1,1,4.82,0v14.47A2.4,2.4,0,0,1,1566.27,311.79Zm0-28.93a2.41,2.41,0,0,1-2.41-2.41V266a2.41,2.41,0,0,1,4.82,0v14.47A2.4,2.4,0,0,1,1566.27,282.86Z" transform="translate(-303.61 -2.41)"/></svg>