<svg xmlns="http://www.w3.org/2000/svg" xmlns:xlink="http://www.w3.org/1999/xlink" viewBox="0 0 99.88 95.04"><defs><style>.cls-1{mask:url(#mask);filter:url(#luminosity-noclip-3);}.cls-2,.cls-4{mix-blend-mode:multiply;}.cls-2{fill:url(#_ÂÁ_Ï_ÌÌ_È_ËÂÌÚ_26);}.cls-3{mask:url(#mask-2);filter:url(#luminosity-noclip-4);}.cls-4{fill:url(#_ÂÁ_Ï_ÌÌ_È_ËÂÌÚ_3);}.cls-5{fill:none;}.cls-6{isolation:isolate;}.cls-7{fill:#949494;}.cls-8{fill:url(#linear-gradient);}.cls-9{fill:url(#linear-gradient-2);}.cls-10{fill:url(#linear-gradient-3);}.cls-11{clip-path:url(#clip-path);}.cls-12{fill:#b9b9b9;fill-opacity:0;}.cls-13{fill:url(#_ÂÁ_Ï_ÌÌ_È_ËÂÌÚ_14);}.cls-14{fill:url(#_ÂÁ_Ï_ÌÌ_È_ËÂÌÚ_14-2);}.cls-15{fill:url(#_ÂÁ_Ï_ÌÌ_È_ËÂÌÚ_14-3);}.cls-16{fill:url(#_ÂÁ_Ï_ÌÌ_È_ËÂÌÚ_14-4);}.cls-17{fill:url(#_ÂÁ_Ï_ÌÌ_È_ËÂÌÚ_14-5);}.cls-18{fill:url(#_ÂÁ_Ï_ÌÌ_È_ËÂÌÚ_14-6);}.cls-19{fill:url(#_ÂÁ_Ï_ÌÌ_È_ËÂÌÚ_14-7);}.cls-20{fill:url(#_ÂÁ_Ï_ÌÌ_È_ËÂÌÚ_14-8);}.cls-21{fill:url(#_ÂÁ_Ï_ÌÌ_È_ËÂÌÚ_14-9);}.cls-22{fill:url(#_ÂÁ_Ï_ÌÌ_È_ËÂÌÚ_14-10);}.cls-23{fill:url(#_ÂÁ_Ï_ÌÌ_È_ËÂÌÚ_14-11);}.cls-24{fill:url(#_ÂÁ_Ï_ÌÌ_È_ËÂÌÚ_14-12);}.cls-25{fill:url(#_ÂÁ_Ï_ÌÌ_È_ËÂÌÚ_14-13);}.cls-26{fill:url(#_ÂÁ_Ï_ÌÌ_È_ËÂÌÚ_14-14);}.cls-27{fill:url(#_ÂÁ_Ï_ÌÌ_È_ËÂÌÚ_14-15);}.cls-28{fill:url(#_ÂÁ_Ï_ÌÌ_È_ËÂÌÚ_14-16);}.cls-29{fill:url(#_ÂÁ_Ï_ÌÌ_È_ËÂÌÚ_9);}.cls-30{fill:url(#_ÂÁ_Ï_ÌÌ_È_ËÂÌÚ_14-17);}.cls-31{fill:url(#_ÂÁ_Ï_ÌÌ_È_ËÂÌÚ_14-18);}.cls-32{fill:url(#_ÂÁ_Ï_ÌÌ_È_ËÂÌÚ_14-19);}.cls-33{fill:url(#_ÂÁ_Ï_ÌÌ_È_ËÂÌÚ_14-20);}.cls-34{fill:url(#_ÂÁ_Ï_ÌÌ_È_ËÂÌÚ_14-21);}.cls-35{fill:url(#_ÂÁ_Ï_ÌÌ_È_ËÂÌÚ_14-22);}.cls-36{fill:url(#_ÂÁ_Ï_ÌÌ_È_ËÂÌÚ_14-23);}.cls-37{fill:url(#_ÂÁ_Ï_ÌÌ_È_ËÂÌÚ_14-24);}.cls-38{fill:url(#_ÂÁ_Ï_ÌÌ_È_ËÂÌÚ_14-25);}.cls-39{fill:url(#_ÂÁ_Ï_ÌÌ_È_ËÂÌÚ_14-26);}.cls-40{fill:url(#_ÂÁ_Ï_ÌÌ_È_ËÂÌÚ_14-27);}.cls-41{fill:url(#_ÂÁ_Ï_ÌÌ_È_ËÂÌÚ_14-28);}.cls-42{fill:url(#_ÂÁ_Ï_ÌÌ_È_ËÂÌÚ_14-29);}.cls-43{fill:url(#_ÂÁ_Ï_ÌÌ_È_ËÂÌÚ_11);}.cls-44{fill:url(#_ÂÁ_Ï_ÌÌ_È_ËÂÌÚ_14-30);}.cls-45{fill:url(#_ÂÁ_Ï_ÌÌ_È_ËÂÌÚ_14-31);}.cls-46{fill:url(#_ÂÁ_Ï_ÌÌ_È_ËÂÌÚ_14-32);}.cls-47{fill:url(#_ÂÁ_Ï_ÌÌ_È_ËÂÌÚ_14-33);}.cls-48{fill:url(#_ÂÁ_Ï_ÌÌ_È_ËÂÌÚ_14-34);}.cls-49{fill:url(#_ÂÁ_Ï_ÌÌ_È_ËÂÌÚ_14-35);}.cls-50{fill:url(#_ÂÁ_Ï_ÌÌ_È_ËÂÌÚ_14-36);}.cls-51{fill:url(#_ÂÁ_Ï_ÌÌ_È_ËÂÌÚ_14-37);}.cls-52{fill:url(#_ÂÁ_Ï_ÌÌ_È_ËÂÌÚ_14-38);}.cls-53{fill:url(#_ÂÁ_Ï_ÌÌ_È_ËÂÌÚ_14-39);}.cls-54{fill:url(#_ÂÁ_Ï_ÌÌ_È_ËÂÌÚ_14-40);}.cls-55{fill:url(#_ÂÁ_Ï_ÌÌ_È_ËÂÌÚ_14-41);}.cls-56{fill:url(#_ÂÁ_Ï_ÌÌ_È_ËÂÌÚ_14-42);}.cls-57{fill:url(#_ÂÁ_Ï_ÌÌ_È_ËÂÌÚ_14-43);}.cls-58{fill:url(#_ÂÁ_Ï_ÌÌ_È_ËÂÌÚ_9-2);}.cls-59{fill:url(#_ÂÁ_Ï_ÌÌ_È_ËÂÌÚ_14-44);}.cls-60{fill:url(#_ÂÁ_Ï_ÌÌ_È_ËÂÌÚ_14-45);}.cls-61{fill:url(#_ÂÁ_Ï_ÌÌ_È_ËÂÌÚ_14-46);}.cls-62{fill:url(#_ÂÁ_Ï_ÌÌ_È_ËÂÌÚ_14-47);}.cls-63{fill:url(#_ÂÁ_Ï_ÌÌ_È_ËÂÌÚ_14-48);}.cls-64{fill:url(#_ÂÁ_Ï_ÌÌ_È_ËÂÌÚ_8);}.cls-65{fill:url(#_ÂÁ_Ï_ÌÌ_È_ËÂÌÚ_8-2);}.cls-66{fill:url(#_ÂÁ_Ï_ÌÌ_È_ËÂÌÚ_11-2);}.cls-67{fill:url(#_ÂÁ_Ï_ÌÌ_È_ËÂÌÚ_11-3);}.cls-68{fill:url(#_ÂÁ_Ï_ÌÌ_È_ËÂÌÚ_11-4);}.cls-69{fill:url(#_ÂÁ_Ï_ÌÌ_È_ËÂÌÚ_11-5);}.cls-70{fill:url(#_ÂÁ_Ï_ÌÌ_È_ËÂÌÚ_11-6);}.cls-71{fill:url(#_ÂÁ_Ï_ÌÌ_È_ËÂÌÚ_11-7);}.cls-72{fill:url(#_ÂÁ_Ï_ÌÌ_È_ËÂÌÚ_11-8);}.cls-73{fill:url(#_ÂÁ_Ï_ÌÌ_È_ËÂÌÚ_11-9);}.cls-74{fill:url(#_ÂÁ_Ï_ÌÌ_È_ËÂÌÚ_11-10);}.cls-75{fill:url(#_ÂÁ_Ï_ÌÌ_È_ËÂÌÚ_11-11);}.cls-76{fill:url(#_ÂÁ_Ï_ÌÌ_È_ËÂÌÚ_11-12);}.cls-77{fill:url(#_ÂÁ_Ï_ÌÌ_È_ËÂÌÚ_11-13);}.cls-78{fill:url(#_ÂÁ_Ï_ÌÌ_È_ËÂÌÚ_11-14);}.cls-79{fill:url(#_ÂÁ_Ï_ÌÌ_È_ËÂÌÚ_11-15);}.cls-80{fill:url(#_ÂÁ_Ï_ÌÌ_È_ËÂÌÚ_11-16);}.cls-81{fill:url(#_ÂÁ_Ï_ÌÌ_È_ËÂÌÚ_11-17);}.cls-82{fill:url(#_ÂÁ_Ï_ÌÌ_È_ËÂÌÚ_11-18);}.cls-83{fill:url(#_ÂÁ_Ï_ÌÌ_È_ËÂÌÚ_11-19);}.cls-84{fill:url(#_ÂÁ_Ï_ÌÌ_È_ËÂÌÚ_11-20);}.cls-85{fill:url(#_ÂÁ_Ï_ÌÌ_È_ËÂÌÚ_11-21);}.cls-86{fill:url(#_ÂÁ_Ï_ÌÌ_È_ËÂÌÚ_11-22);}.cls-87{fill:url(#_ÂÁ_Ï_ÌÌ_È_ËÂÌÚ_11-23);}.cls-88{fill:url(#_ÂÁ_Ï_ÌÌ_È_ËÂÌÚ_11-24);}.cls-89{fill:url(#_ÂÁ_Ï_ÌÌ_È_ËÂÌÚ_11-25);}.cls-90{fill:url(#_ÂÁ_Ï_ÌÌ_È_ËÂÌÚ_11-26);}.cls-91{fill:url(#_ÂÁ_Ï_ÌÌ_È_ËÂÌÚ_11-27);}.cls-92{fill:url(#_ÂÁ_Ï_ÌÌ_È_ËÂÌÚ_11-28);}.cls-93{fill:url(#_ÂÁ_Ï_ÌÌ_È_ËÂÌÚ_11-29);}.cls-94{fill:url(#_ÂÁ_Ï_ÌÌ_È_ËÂÌÚ_11-30);}.cls-95{fill:url(#_ÂÁ_Ï_ÌÌ_È_ËÂÌÚ_11-31);}.cls-96{fill:url(#_ÂÁ_Ï_ÌÌ_È_ËÂÌÚ_11-32);}.cls-97{fill:url(#_ÂÁ_Ï_ÌÌ_È_ËÂÌÚ_12);}.cls-98{fill:url(#_ÂÁ_Ï_ÌÌ_È_ËÂÌÚ_12-2);}.cls-99{fill:url(#_ÂÁ_Ï_ÌÌ_È_ËÂÌÚ_11-33);}.cls-100{fill:url(#_ÂÁ_Ï_ÌÌ_È_ËÂÌÚ_8-3);}.cls-101{fill:url(#_ÂÁ_Ï_ÌÌ_È_ËÂÌÚ_9-3);}.cls-102{fill:url(#_ÂÁ_Ï_ÌÌ_È_ËÂÌÚ_9-4);}.cls-103{fill:url(#_ÂÁ_Ï_ÌÌ_È_ËÂÌÚ_9-5);}.cls-104{fill:url(#_ÂÁ_Ï_ÌÌ_È_ËÂÌÚ_9-6);}.cls-105{fill:url(#_ÂÁ_Ï_ÌÌ_È_ËÂÌÚ_8-4);}.cls-106{fill:url(#_ÂÁ_Ï_ÌÌ_È_ËÂÌÚ_8-5);}.cls-107{fill:url(#_ÂÁ_Ï_ÌÌ_È_ËÂÌÚ_8-6);}.cls-108{fill:url(#_ÂÁ_Ï_ÌÌ_È_ËÂÌÚ_7);}.cls-109{mask:url(#mask-3);}.cls-110,.cls-112,.cls-113{mix-blend-mode:screen;}.cls-110{fill:url(#_ÂÁ_Ï_ÌÌ_È_ËÂÌÚ_5);}.cls-111{mask:url(#mask-4);}.cls-112,.cls-113{opacity:0.5;}.cls-112{fill:url(#_ÂÁ_Ï_ÌÌ_È_ËÂÌÚ_2);}.cls-113{fill:#fff;}.cls-114{filter:url(#luminosity-noclip-2);}.cls-115{filter:url(#luminosity-noclip);}</style><filter id="luminosity-noclip" x="31.53" y="-8240" width="29.14" height="32766" filterUnits="userSpaceOnUse" color-interpolation-filters="sRGB"><feFlood flood-color="#fff" result="bg"/><feBlend in="SourceGraphic" in2="bg"/></filter><mask id="mask" x="31.53" y="-8240" width="29.14" height="32766" maskUnits="userSpaceOnUse"><g class="cls-115"/></mask><radialGradient id="_ÂÁ_Ï_ÌÌ_È_ËÂÌÚ_26" cx="45.44" cy="15.16" r="16.28" gradientTransform="translate(5.44 3.89) scale(0.89 0.9)" gradientUnits="userSpaceOnUse"><stop offset="0" stop-color="#fff"/><stop offset="0.38" stop-color="#9c9c9c"/><stop offset="1"/></radialGradient><filter id="luminosity-noclip-2" x="47" y="-8240" width="3.75" height="32766" filterUnits="userSpaceOnUse" color-interpolation-filters="sRGB"><feFlood flood-color="#fff" result="bg"/><feBlend in="SourceGraphic" in2="bg"/></filter><mask id="mask-2" x="47" y="-8240" width="3.75" height="32766" maskUnits="userSpaceOnUse"><g class="cls-114"/></mask><linearGradient id="_ÂÁ_Ï_ÌÌ_È_ËÂÌÚ_3" x1="48.87" y1="47.22" x2="48.87" y2="29.79" gradientUnits="userSpaceOnUse"><stop offset="0"/><stop offset="0.9" stop-color="#fff"/></linearGradient><linearGradient id="linear-gradient" x1="0.12" y1="26.04" x2="100" y2="26.04" gradientTransform="translate(100 96.06) rotate(180)" gradientUnits="userSpaceOnUse"><stop offset="0" stop-color="#303030"/><stop offset="0.41" stop-color="#2e2e2e"/><stop offset="1" stop-color="#2c2c2c"/></linearGradient><linearGradient id="linear-gradient-2" x1="7.41" y1="37.99" x2="92.7" y2="37.99" gradientTransform="translate(100 96.06) rotate(180)" gradientUnits="userSpaceOnUse"><stop offset="0" stop-color="#3f3f3f"/><stop offset="0.63" stop-color="#3d3d3d"/><stop offset="1" stop-color="#3b3b3b"/></linearGradient><linearGradient id="linear-gradient-3" x1="9.33" y1="38.95" x2="90.79" y2="38.95" gradientTransform="translate(100 96.06) rotate(180)" gradientUnits="userSpaceOnUse"><stop offset="0" stop-color="#3a3a3a"/><stop offset="0.63" stop-color="#373737"/><stop offset="1" stop-color="#363636"/></linearGradient><clipPath id="clip-path"><path class="cls-5" d="M7.53,55.29a17.06,17.06,0,0,1,1.19-3.62,19.73,19.73,0,0,1,2.16-3.47,25.71,25.71,0,0,1,3-3.26,34.09,34.09,0,0,1,3.78-3,48,48,0,0,1,4.51-2.61,55.38,55.38,0,0,1,5.14-2.18c3.48-1.16,2.18-.76,5.63-1.72,3.74-.85,2.36-.57,6-1.22,3.92-.52,2.49-.35,6.27-.69,3.82-.16,2.36-.13,6.38-.13,3.82.16,2.36.06,6.33.41,3.74.49,2.32.27,6.16,1,3.57.81,2.23.47,5.85,1.48,3.32,1.1,2.08.65,5.4,2a48.3,48.3,0,0,1,4.83,2.41,36.37,36.37,0,0,1,4.16,2.79,29.52,29.52,0,0,1,3.4,3.12,23.3,23.3,0,0,1,2.55,3.37,19,19,0,0,1,1.61,3.6,14.63,14.63,0,0,1,.48,7.34,17.16,17.16,0,0,1-1.19,3.61,21.23,21.23,0,0,1-2.11,3.48,25,25,0,0,1-3,3.25,34.2,34.2,0,0,1-3.79,3,41.19,41.19,0,0,1-4.51,2.6,52.69,52.69,0,0,1-5.13,2.19c-3.48,1.16-2.19.76-5.64,1.72-3.74.85-2.36.56-6,1.22-3.91.51-2.48.35-6.26.68-3.82.16-2.36.14-6.38.14-3.82-.17-2.36-.07-6.33-.42a56.85,56.85,0,0,1-6.17-1c-3.56-.81-2.22-.46-5.84-1.47a49.15,49.15,0,0,1-5.4-2,48.22,48.22,0,0,1-4.83-2.4,38.83,38.83,0,0,1-4.17-2.79,30.35,30.35,0,0,1-3.39-3.12,24,24,0,0,1-2.55-3.38A17.89,17.89,0,0,1,8,62.57a14.61,14.61,0,0,1-.49-7.28Z"/></clipPath><linearGradient id="_ÂÁ_Ï_ÌÌ_È_ËÂÌÚ_14" x1="70.99" y1="63.18" x2="72.37" y2="63.18" gradientUnits="userSpaceOnUse"><stop offset="0" stop-color="#8e8e8e"/><stop offset="1" stop-color="#7e7e7e"/></linearGradient><linearGradient id="_ÂÁ_Ï_ÌÌ_È_ËÂÌÚ_14-2" x1="69.68" y1="64.18" x2="72.37" y2="64.18" xlink:href="#_ÂÁ_Ï_ÌÌ_È_ËÂÌÚ_14"/><linearGradient id="_ÂÁ_Ï_ÌÌ_È_ËÂÌÚ_14-3" x1="69.68" y1="65.48" x2="70.63" y2="65.48" xlink:href="#_ÂÁ_Ï_ÌÌ_È_ËÂÌÚ_14"/><linearGradient id="_ÂÁ_Ï_ÌÌ_È_ËÂÌÚ_14-4" x1="72.86" y1="67.55" x2="73.55" y2="67.55" xlink:href="#_ÂÁ_Ï_ÌÌ_È_ËÂÌÚ_14"/><linearGradient id="_ÂÁ_Ï_ÌÌ_È_ËÂÌÚ_14-5" x1="69.79" y1="67.99" x2="73.19" y2="67.99" xlink:href="#_ÂÁ_Ï_ÌÌ_È_ËÂÌÚ_14"/><linearGradient id="_ÂÁ_Ï_ÌÌ_È_ËÂÌÚ_14-6" x1="68.2" y1="68.61" x2="70.04" y2="68.61" xlink:href="#_ÂÁ_Ï_ÌÌ_È_ËÂÌÚ_14"/><linearGradient id="_ÂÁ_Ï_ÌÌ_È_ËÂÌÚ_14-7" x1="68.2" y1="70.11" x2="70.04" y2="70.11" xlink:href="#_ÂÁ_Ï_ÌÌ_È_ËÂÌÚ_14"/><linearGradient id="_ÂÁ_Ï_ÌÌ_È_ËÂÌÚ_14-8" x1="68.27" y1="71.27" x2="70.04" y2="71.27" xlink:href="#_ÂÁ_Ï_ÌÌ_È_ËÂÌÚ_14"/><linearGradient id="_ÂÁ_Ï_ÌÌ_È_ËÂÌÚ_14-9" x1="66.03" y1="70.9" x2="68.31" y2="70.9" xlink:href="#_ÂÁ_Ï_ÌÌ_È_ËÂÌÚ_14"/><linearGradient id="_ÂÁ_Ï_ÌÌ_È_ËÂÌÚ_14-10" x1="63.26" y1="70.43" x2="66.12" y2="70.43" xlink:href="#_ÂÁ_Ï_ÌÌ_È_ËÂÌÚ_14"/><linearGradient id="_ÂÁ_Ï_ÌÌ_È_ËÂÌÚ_14-11" x1="62.34" y1="71.46" x2="63.55" y2="71.46" xlink:href="#_ÂÁ_Ï_ÌÌ_È_ËÂÌÚ_14"/><linearGradient id="_ÂÁ_Ï_ÌÌ_È_ËÂÌÚ_14-12" x1="60.44" y1="72.22" x2="62.61" y2="72.22" xlink:href="#_ÂÁ_Ï_ÌÌ_È_ËÂÌÚ_14"/><linearGradient id="_ÂÁ_Ï_ÌÌ_È_ËÂÌÚ_14-13" x1="60.39" y1="71.24" x2="60.82" y2="71.24" xlink:href="#_ÂÁ_Ï_ÌÌ_È_ËÂÌÚ_14"/><linearGradient id="_ÂÁ_Ï_ÌÌ_È_ËÂÌÚ_14-14" x1="58.23" y1="69.88" x2="60.77" y2="69.88" xlink:href="#_ÂÁ_Ï_ÌÌ_È_ËÂÌÚ_14"/><linearGradient id="_ÂÁ_Ï_ÌÌ_È_ËÂÌÚ_14-15" x1="55.51" y1="69.9" x2="58.29" y2="69.9" xlink:href="#_ÂÁ_Ï_ÌÌ_È_ËÂÌÚ_14"/><linearGradient id="_ÂÁ_Ï_ÌÌ_È_ËÂÌÚ_14-16" x1="54.19" y1="69.95" x2="55.62" y2="69.95" xlink:href="#_ÂÁ_Ï_ÌÌ_È_ËÂÌÚ_14"/><linearGradient id="_ÂÁ_Ï_ÌÌ_È_ËÂÌÚ_9" x1="58.41" y1="65.88" x2="67.97" y2="65.88" gradientUnits="userSpaceOnUse"><stop offset="0" stop-color="#a1a1a1"/><stop offset="0.49" stop-color="#8e8e8e"/><stop offset="1" stop-color="#7e7e7e"/></linearGradient><linearGradient id="_ÂÁ_Ï_ÌÌ_È_ËÂÌÚ_14-17" x1="34.61" y1="59.32" x2="36.17" y2="59.32" xlink:href="#_ÂÁ_Ï_ÌÌ_È_ËÂÌÚ_14"/><linearGradient id="_ÂÁ_Ï_ÌÌ_È_ËÂÌÚ_14-18" x1="35.97" y1="59.63" x2="40.41" y2="59.63" xlink:href="#_ÂÁ_Ï_ÌÌ_È_ËÂÌÚ_14"/><linearGradient id="_ÂÁ_Ï_ÌÌ_È_ËÂÌÚ_14-19" x1="41.41" y1="61.94" x2="43.01" y2="61.94" xlink:href="#_ÂÁ_Ï_ÌÌ_È_ËÂÌÚ_14"/><linearGradient id="_ÂÁ_Ï_ÌÌ_È_ËÂÌÚ_14-20" x1="40.26" y1="59.94" x2="43.01" y2="59.94" xlink:href="#_ÂÁ_Ï_ÌÌ_È_ËÂÌÚ_14"/><linearGradient id="_ÂÁ_Ï_ÌÌ_È_ËÂÌÚ_14-21" x1="41.41" y1="63.56" x2="44.28" y2="63.56" xlink:href="#_ÂÁ_Ï_ÌÌ_È_ËÂÌÚ_14"/><linearGradient id="_ÂÁ_Ï_ÌÌ_È_ËÂÌÚ_14-22" x1="44.15" y1="62.8" x2="46.78" y2="62.8" xlink:href="#_ÂÁ_Ï_ÌÌ_È_ËÂÌÚ_14"/><linearGradient id="_ÂÁ_Ï_ÌÌ_È_ËÂÌÚ_14-23" x1="46.6" y1="61.81" x2="50.26" y2="61.81" xlink:href="#_ÂÁ_Ï_ÌÌ_È_ËÂÌÚ_14"/><linearGradient id="_ÂÁ_Ï_ÌÌ_È_ËÂÌÚ_14-24" x1="55.76" y1="67.32" x2="56.81" y2="67.32" xlink:href="#_ÂÁ_Ï_ÌÌ_È_ËÂÌÚ_14"/><linearGradient id="_ÂÁ_Ï_ÌÌ_È_ËÂÌÚ_14-25" x1="52.82" y1="66.35" x2="56.13" y2="66.35" xlink:href="#_ÂÁ_Ï_ÌÌ_È_ËÂÌÚ_14"/><linearGradient id="_ÂÁ_Ï_ÌÌ_È_ËÂÌÚ_14-26" x1="52.82" y1="65.65" x2="53.44" y2="65.65" xlink:href="#_ÂÁ_Ï_ÌÌ_È_ËÂÌÚ_14"/><linearGradient id="_ÂÁ_Ï_ÌÌ_È_ËÂÌÚ_14-27" x1="50.02" y1="63.07" x2="52.13" y2="63.07" xlink:href="#_ÂÁ_Ï_ÌÌ_È_ËÂÌÚ_14"/><linearGradient id="_ÂÁ_Ï_ÌÌ_È_ËÂÌÚ_14-28" x1="51.92" y1="64.03" x2="54.97" y2="64.03" xlink:href="#_ÂÁ_Ï_ÌÌ_È_ËÂÌÚ_14"/><linearGradient id="_ÂÁ_Ï_ÌÌ_È_ËÂÌÚ_14-29" x1="56.31" y1="64.18" x2="58.02" y2="64.18" xlink:href="#_ÂÁ_Ï_ÌÌ_È_ËÂÌÚ_14"/><linearGradient id="_ÂÁ_Ï_ÌÌ_È_ËÂÌÚ_11" x1="56.08" y1="63.55" x2="57.55" y2="63.55" gradientUnits="userSpaceOnUse"><stop offset="0" stop-color="#727272"/><stop offset="1" stop-color="#606060"/></linearGradient><linearGradient id="_ÂÁ_Ï_ÌÌ_È_ËÂÌÚ_14-30" x1="56.08" y1="62.83" x2="58.02" y2="62.83" xlink:href="#_ÂÁ_Ï_ÌÌ_È_ËÂÌÚ_14"/><linearGradient id="_ÂÁ_Ï_ÌÌ_È_ËÂÌÚ_14-31" x1="54.08" y1="62.52" x2="54.97" y2="62.52" xlink:href="#_ÂÁ_Ï_ÌÌ_È_ËÂÌÚ_14"/><linearGradient id="_ÂÁ_Ï_ÌÌ_È_ËÂÌÚ_14-32" x1="54.08" y1="60.62" x2="57.14" y2="60.62" xlink:href="#_ÂÁ_Ï_ÌÌ_È_ËÂÌÚ_14"/><linearGradient id="_ÂÁ_Ï_ÌÌ_È_ËÂÌÚ_14-33" x1="57.07" y1="60.62" x2="61.21" y2="60.62" xlink:href="#_ÂÁ_Ï_ÌÌ_È_ËÂÌÚ_14"/><linearGradient id="_ÂÁ_Ï_ÌÌ_È_ËÂÌÚ_14-34" x1="65.22" y1="61.5" x2="65.75" y2="61.5" xlink:href="#_ÂÁ_Ï_ÌÌ_È_ËÂÌÚ_14"/><linearGradient id="_ÂÁ_Ï_ÌÌ_È_ËÂÌÚ_14-35" x1="62.62" y1="61.32" x2="63.7" y2="61.32" xlink:href="#_ÂÁ_Ï_ÌÌ_È_ËÂÌÚ_14"/><linearGradient id="_ÂÁ_Ï_ÌÌ_È_ËÂÌÚ_14-36" x1="61.08" y1="60.55" x2="62.99" y2="60.55" xlink:href="#_ÂÁ_Ï_ÌÌ_È_ËÂÌÚ_14"/><linearGradient id="_ÂÁ_Ï_ÌÌ_È_ËÂÌÚ_14-37" x1="59.31" y1="56.99" x2="60.58" y2="56.99" xlink:href="#_ÂÁ_Ï_ÌÌ_È_ËÂÌÚ_14"/><linearGradient id="_ÂÁ_Ï_ÌÌ_È_ËÂÌÚ_14-38" x1="60.23" y1="55.74" x2="64.91" y2="55.74" xlink:href="#_ÂÁ_Ï_ÌÌ_È_ËÂÌÚ_14"/><linearGradient id="_ÂÁ_Ï_ÌÌ_È_ËÂÌÚ_14-39" x1="64.24" y1="54.67" x2="64.91" y2="54.67" xlink:href="#_ÂÁ_Ï_ÌÌ_È_ËÂÌÚ_14"/><linearGradient id="_ÂÁ_Ï_ÌÌ_È_ËÂÌÚ_14-40" x1="58.36" y1="52.63" x2="60.08" y2="52.63" xlink:href="#_ÂÁ_Ï_ÌÌ_È_ËÂÌÚ_14"/><linearGradient id="_ÂÁ_Ï_ÌÌ_È_ËÂÌÚ_14-41" x1="58.36" y1="50.83" x2="61.43" y2="50.83" xlink:href="#_ÂÁ_Ï_ÌÌ_È_ËÂÌÚ_14"/><linearGradient id="_ÂÁ_Ï_ÌÌ_È_ËÂÌÚ_14-42" x1="51.9" y1="47.93" x2="52.6" y2="47.93" xlink:href="#_ÂÁ_Ï_ÌÌ_È_ËÂÌÚ_14"/><linearGradient id="_ÂÁ_Ï_ÌÌ_È_ËÂÌÚ_14-43" x1="48.04" y1="47.75" x2="49.4" y2="47.75" xlink:href="#_ÂÁ_Ï_ÌÌ_È_ËÂÌÚ_14"/><linearGradient id="_ÂÁ_Ï_ÌÌ_È_ËÂÌÚ_9-2" x1="41.12" y1="54.64" x2="57.51" y2="54.64" xlink:href="#_ÂÁ_Ï_ÌÌ_È_ËÂÌÚ_9"/><linearGradient id="_ÂÁ_Ï_ÌÌ_È_ËÂÌÚ_14-44" x1="37.98" y1="55.94" x2="38.72" y2="55.94" xlink:href="#_ÂÁ_Ï_ÌÌ_È_ËÂÌÚ_14"/><linearGradient id="_ÂÁ_Ï_ÌÌ_È_ËÂÌÚ_14-45" x1="33.93" y1="54.5" x2="38.4" y2="54.5" xlink:href="#_ÂÁ_Ï_ÌÌ_È_ËÂÌÚ_14"/><linearGradient id="_ÂÁ_Ï_ÌÌ_È_ËÂÌÚ_14-46" x1="33.93" y1="53.27" x2="35.02" y2="53.27" xlink:href="#_ÂÁ_Ï_ÌÌ_È_ËÂÌÚ_14"/><linearGradient id="_ÂÁ_Ï_ÌÌ_È_ËÂÌÚ_14-47" x1="39.27" y1="51.7" x2="41.52" y2="51.7" xlink:href="#_ÂÁ_Ï_ÌÌ_È_ËÂÌÚ_14"/><linearGradient id="_ÂÁ_Ï_ÌÌ_È_ËÂÌÚ_14-48" x1="39.12" y1="49.82" x2="41.52" y2="49.82" xlink:href="#_ÂÁ_Ï_ÌÌ_È_ËÂÌÚ_14"/><linearGradient id="_ÂÁ_Ï_ÌÌ_È_ËÂÌÚ_8" x1="41.51" y1="54.34" x2="57.12" y2="54.34" gradientUnits="userSpaceOnUse"><stop offset="0" stop-color="#868686"/><stop offset="0.53" stop-color="#727272"/><stop offset="1" stop-color="#606060"/></linearGradient><linearGradient id="_ÂÁ_Ï_ÌÌ_È_ËÂÌÚ_8-2" x1="58.8" y1="66.27" x2="67.59" y2="66.27" xlink:href="#_ÂÁ_Ï_ÌÌ_È_ËÂÌÚ_8"/><linearGradient id="_ÂÁ_Ï_ÌÌ_È_ËÂÌÚ_11-2" x1="70.13" y1="65.2" x2="72.37" y2="65.2" xlink:href="#_ÂÁ_Ï_ÌÌ_È_ËÂÌÚ_11"/><linearGradient id="_ÂÁ_Ï_ÌÌ_È_ËÂÌÚ_11-3" x1="73.19" y1="69.61" x2="73.55" y2="69.61" xlink:href="#_ÂÁ_Ï_ÌÌ_È_ËÂÌÚ_11"/><linearGradient id="_ÂÁ_Ï_ÌÌ_È_ËÂÌÚ_11-4" x1="70.04" y1="70.24" x2="73.19" y2="70.24" xlink:href="#_ÂÁ_Ï_ÌÌ_È_ËÂÌÚ_11"/><linearGradient id="_ÂÁ_Ï_ÌÌ_È_ËÂÌÚ_11-5" x1="68.66" y1="70.24" x2="70.04" y2="70.24" xlink:href="#_ÂÁ_Ï_ÌÌ_È_ËÂÌÚ_11"/><linearGradient id="_ÂÁ_Ï_ÌÌ_È_ËÂÌÚ_11-6" x1="68.27" y1="73.44" x2="70.04" y2="73.44" xlink:href="#_ÂÁ_Ï_ÌÌ_È_ËÂÌÚ_11"/><linearGradient id="_ÂÁ_Ï_ÌÌ_È_ËÂÌÚ_11-7" x1="66.03" y1="73.17" x2="68.27" y2="73.17" xlink:href="#_ÂÁ_Ï_ÌÌ_È_ËÂÌÚ_11"/><linearGradient id="_ÂÁ_Ï_ÌÌ_È_ËÂÌÚ_11-8" x1="63.55" y1="72.69" x2="66.03" y2="72.69" xlink:href="#_ÂÁ_Ï_ÌÌ_È_ËÂÌÚ_11"/><linearGradient id="_ÂÁ_Ï_ÌÌ_È_ËÂÌÚ_11-9" x1="62.61" y1="73.7" x2="63.55" y2="73.7" xlink:href="#_ÂÁ_Ï_ÌÌ_È_ËÂÌÚ_11"/><linearGradient id="_ÂÁ_Ï_ÌÌ_È_ËÂÌÚ_11-10" x1="60.44" y1="74.45" x2="62.61" y2="74.45" xlink:href="#_ÂÁ_Ï_ÌÌ_È_ËÂÌÚ_11"/><linearGradient id="_ÂÁ_Ï_ÌÌ_È_ËÂÌÚ_11-11" x1="60.39" y1="73.45" x2="60.45" y2="73.45" xlink:href="#_ÂÁ_Ï_ÌÌ_È_ËÂÌÚ_11"/><linearGradient id="_ÂÁ_Ï_ÌÌ_È_ËÂÌÚ_11-12" x1="58.23" y1="72.15" x2="60.39" y2="72.15" xlink:href="#_ÂÁ_Ï_ÌÌ_È_ËÂÌÚ_11"/><linearGradient id="_ÂÁ_Ï_ÌÌ_È_ËÂÌÚ_11-13" x1="55.51" y1="72.17" x2="58.23" y2="72.17" xlink:href="#_ÂÁ_Ï_ÌÌ_È_ËÂÌÚ_11"/><linearGradient id="_ÂÁ_Ï_ÌÌ_È_ËÂÌÚ_11-14" x1="54.19" y1="72.08" x2="55.51" y2="72.08" xlink:href="#_ÂÁ_Ï_ÌÌ_È_ËÂÌÚ_11"/><linearGradient id="_ÂÁ_Ï_ÌÌ_È_ËÂÌÚ_11-15" x1="55.76" y1="67.74" x2="56.36" y2="67.74" xlink:href="#_ÂÁ_Ï_ÌÌ_È_ËÂÌÚ_11"/><linearGradient id="_ÂÁ_Ï_ÌÌ_È_ËÂÌÚ_11-16" x1="52.82" y1="68.43" x2="55.76" y2="68.43" xlink:href="#_ÂÁ_Ï_ÌÌ_È_ËÂÌÚ_11"/><linearGradient id="_ÂÁ_Ï_ÌÌ_È_ËÂÌÚ_11-17" x1="41.41" y1="65.76" x2="44.28" y2="65.76" xlink:href="#_ÂÁ_Ï_ÌÌ_È_ËÂÌÚ_11"/><linearGradient id="_ÂÁ_Ï_ÌÌ_È_ËÂÌÚ_11-18" x1="44.28" y1="65.06" x2="46.78" y2="65.06" xlink:href="#_ÂÁ_Ï_ÌÌ_È_ËÂÌÚ_11"/><linearGradient id="_ÂÁ_Ï_ÌÌ_È_ËÂÌÚ_11-19" x1="46.78" y1="64.07" x2="50.02" y2="64.07" xlink:href="#_ÂÁ_Ï_ÌÌ_È_ËÂÌÚ_11"/><linearGradient id="_ÂÁ_Ï_ÌÌ_È_ËÂÌÚ_11-20" x1="50.02" y1="65.32" x2="51.92" y2="65.32" xlink:href="#_ÂÁ_Ï_ÌÌ_È_ËÂÌÚ_11"/><linearGradient id="_ÂÁ_Ï_ÌÌ_È_ËÂÌÚ_11-21" x1="51.92" y1="64.42" x2="57.15" y2="64.42" xlink:href="#_ÂÁ_Ï_ÌÌ_È_ËÂÌÚ_11"/><linearGradient id="_ÂÁ_Ï_ÌÌ_È_ËÂÌÚ_11-22" x1="57.14" y1="61.47" x2="61.21" y2="61.47" xlink:href="#_ÂÁ_Ï_ÌÌ_È_ËÂÌÚ_11"/><linearGradient id="_ÂÁ_Ï_ÌÌ_È_ËÂÌÚ_11-23" x1="61.21" y1="61.13" x2="63" y2="61.13" xlink:href="#_ÂÁ_Ï_ÌÌ_È_ËÂÌÚ_11"/><linearGradient id="_ÂÁ_Ï_ÌÌ_È_ËÂÌÚ_11-24" x1="59.77" y1="57.46" x2="60.58" y2="57.46" xlink:href="#_ÂÁ_Ï_ÌÌ_È_ËÂÌÚ_11"/><linearGradient id="_ÂÁ_Ï_ÌÌ_È_ËÂÌÚ_11-25" x1="60.58" y1="57.77" x2="64.91" y2="57.77" xlink:href="#_ÂÁ_Ï_ÌÌ_È_ËÂÌÚ_11"/><linearGradient id="_ÂÁ_Ï_ÌÌ_È_ËÂÌÚ_11-26" x1="58.82" y1="51.76" x2="61.43" y2="51.76" xlink:href="#_ÂÁ_Ï_ÌÌ_È_ËÂÌÚ_11"/><linearGradient id="_ÂÁ_Ï_ÌÌ_È_ËÂÌÚ_11-27" x1="39.12" y1="50.67" x2="41.06" y2="50.67" xlink:href="#_ÂÁ_Ï_ÌÌ_È_ËÂÌÚ_11"/><linearGradient id="_ÂÁ_Ï_ÌÌ_È_ËÂÌÚ_11-28" x1="40.26" y1="61.91" x2="42.57" y2="61.91" xlink:href="#_ÂÁ_Ï_ÌÌ_È_ËÂÌÚ_11"/><linearGradient id="_ÂÁ_Ï_ÌÌ_È_ËÂÌÚ_11-29" x1="35.97" y1="61.89" x2="40.26" y2="61.89" xlink:href="#_ÂÁ_Ï_ÌÌ_È_ËÂÌÚ_11"/><linearGradient id="_ÂÁ_Ï_ÌÌ_È_ËÂÌÚ_11-30" x1="34.61" y1="61.42" x2="35.97" y2="61.42" xlink:href="#_ÂÁ_Ï_ÌÌ_È_ËÂÌÚ_11"/><linearGradient id="_ÂÁ_Ï_ÌÌ_È_ËÂÌÚ_11-31" x1="37.99" y1="56.46" x2="38.27" y2="56.46" xlink:href="#_ÂÁ_Ï_ÌÌ_È_ËÂÌÚ_11"/><linearGradient id="_ÂÁ_Ï_ÌÌ_È_ËÂÌÚ_11-32" x1="33.93" y1="56.31" x2="38" y2="56.31" xlink:href="#_ÂÁ_Ï_ÌÌ_È_ËÂÌÚ_11"/><linearGradient id="_ÂÁ_Ï_ÌÌ_È_ËÂÌÚ_12" x1="53.24" y1="66.24" x2="73.11" y2="66.24" gradientUnits="userSpaceOnUse"><stop offset="0" stop-color="#d6d6d6"/><stop offset="0.21" stop-color="#d1d1d1"/><stop offset="0.45" stop-color="#c3c3c3"/><stop offset="0.72" stop-color="#ababab"/><stop offset="0.99" stop-color="#8a8a8a"/><stop offset="1" stop-color="#898989"/></linearGradient><linearGradient id="_ÂÁ_Ï_ÌÌ_È_ËÂÌÚ_12-2" x1="34.38" y1="55.22" x2="64.49" y2="55.22" xlink:href="#_ÂÁ_Ï_ÌÌ_È_ËÂÌÚ_12"/><linearGradient id="_ÂÁ_Ï_ÌÌ_È_ËÂÌÚ_11-33" x1="51.92" y1="66.25" x2="54.97" y2="66.25" xlink:href="#_ÂÁ_Ï_ÌÌ_È_ËÂÌÚ_11"/><linearGradient id="_ÂÁ_Ï_ÌÌ_È_ËÂÌÚ_8-3" x1="47.68" y1="47.88" x2="52.58" y2="56.36" xlink:href="#_ÂÁ_Ï_ÌÌ_È_ËÂÌÚ_8"/><linearGradient id="_ÂÁ_Ï_ÌÌ_È_ËÂÌÚ_9-3" x1="47.15" y1="46.67" x2="52.11" y2="55.26" xlink:href="#_ÂÁ_Ï_ÌÌ_È_ËÂÌÚ_9"/><linearGradient id="_ÂÁ_Ï_ÌÌ_È_ËÂÌÚ_9-4" x1="46.92" y1="43.71" x2="52.06" y2="52.61" xlink:href="#_ÂÁ_Ï_ÌÌ_È_ËÂÌÚ_9"/><linearGradient id="_ÂÁ_Ï_ÌÌ_È_ËÂÌÚ_9-5" x1="46.87" y1="41.06" x2="52.01" y2="49.96" xlink:href="#_ÂÁ_Ï_ÌÌ_È_ËÂÌÚ_9"/><linearGradient id="_ÂÁ_Ï_ÌÌ_È_ËÂÌÚ_9-6" x1="48.08" y1="54.1" x2="50.2" y2="57.76" xlink:href="#_ÂÁ_Ï_ÌÌ_È_ËÂÌÚ_9"/><linearGradient id="_ÂÁ_Ï_ÌÌ_È_ËÂÌÚ_8-4" x1="47" y1="44.54" x2="52.15" y2="53.46" xlink:href="#_ÂÁ_Ï_ÌÌ_È_ËÂÌÚ_8"/><linearGradient id="_ÂÁ_Ï_ÌÌ_È_ËÂÌÚ_8-5" x1="47" y1="41.86" x2="52.15" y2="50.78" xlink:href="#_ÂÁ_Ï_ÌÌ_È_ËÂÌÚ_8"/><linearGradient id="_ÂÁ_Ï_ÌÌ_È_ËÂÌÚ_8-6" x1="46.31" y1="40.38" x2="51.11" y2="48.71" xlink:href="#_ÂÁ_Ï_ÌÌ_È_ËÂÌÚ_8"/><linearGradient id="_ÂÁ_Ï_ÌÌ_È_ËÂÌÚ_7" x1="29.89" y1="23.73" x2="68.37" y2="23.73" gradientUnits="userSpaceOnUse"><stop offset="0" stop-color="#d6d6d6"/><stop offset="0.24" stop-color="#d2d2d2"/><stop offset="0.46" stop-color="#c7c7c7"/><stop offset="0.68" stop-color="#b5b5b5"/><stop offset="0.89" stop-color="#9b9b9b"/><stop offset="1" stop-color="#898989"/></linearGradient><filter id="luminosity-noclip-3" x="31.53" y="2.88" width="29.14" height="29.25" filterUnits="userSpaceOnUse" color-interpolation-filters="sRGB"><feFlood flood-color="#fff" result="bg"/><feBlend in="SourceGraphic" in2="bg"/></filter><mask id="mask-3" x="31.53" y="2.88" width="29.14" height="29.25" maskUnits="userSpaceOnUse"><g class="cls-1"><ellipse class="cls-2" cx="46.1" cy="17.5" rx="14.57" ry="14.63"/></g></mask><radialGradient id="_ÂÁ_Ï_ÌÌ_È_ËÂÌÚ_5" cx="45.44" cy="15.16" r="16.28" gradientTransform="translate(5.44 3.89) scale(0.89 0.9)" gradientUnits="userSpaceOnUse"><stop offset="0" stop-color="#e1e1e1"/><stop offset="1" stop-color="#d6d6d6"/></radialGradient><filter id="luminosity-noclip-4" x="47" y="29.79" width="3.75" height="17.43" filterUnits="userSpaceOnUse" color-interpolation-filters="sRGB"><feFlood flood-color="#fff" result="bg"/><feBlend in="SourceGraphic" in2="bg"/></filter><mask id="mask-4" x="47" y="29.79" width="3.75" height="17.43" maskUnits="userSpaceOnUse"><g class="cls-3"><path class="cls-4" d="M48.87,47.22h0A1.88,1.88,0,0,1,47,45.34V31.67a1.88,1.88,0,0,1,1.87-1.88h0a1.88,1.88,0,0,1,1.88,1.88V45.34A1.88,1.88,0,0,1,48.87,47.22Z"/></g></mask><linearGradient id="_ÂÁ_Ï_ÌÌ_È_ËÂÌÚ_2" x1="48.87" y1="47.22" x2="48.87" y2="29.79" gradientUnits="userSpaceOnUse"><stop offset="0" stop-color="#fff"/><stop offset="0.9" stop-color="#fff"/></linearGradient></defs><g class="cls-6"><g id="Layer_1" data-name="Layer 1"><g id="Layer_1-2" data-name="Layer 1"><polygon class="cls-7" points="0.28 62.98 0.83 60.85 1.67 58.74 2.77 56.68 4.13 54.67 5.76 52.73 7.63 50.86 11.89 46.92 12.21 46.54 13.81 44.94 15.6 43.42 17.59 41.98 19.77 40.63 22.1 39.38 24.6 38.23 27.24 37.19 30 36.27 32.88 35.47 35.84 34.8 38.9 34.25 42.01 33.84 45.16 33.57 48.34 33.43 51.54 33.43 54.72 33.57 57.87 33.84 60.98 34.25 64.03 34.8 67 35.47 69.88 36.27 72.64 37.19 75.28 38.23 77.77 39.38 80.11 40.63 82.28 41.98 84.27 43.42 86.07 44.94 87.67 46.54 87.98 46.92 92.25 50.86 94.12 52.73 95.75 54.67 97.11 56.68 98.21 58.74 99.04 60.85 99.6 62.98 99.88 65.13 99.88 67.29 99.6 69.44 99.04 71.58 98.21 73.68 97.11 75.74 95.75 77.75 94.12 79.69 92.25 81.56 90.15 83.35 87.82 85.03 85.28 86.61 82.54 88.08 79.62 89.43 76.53 90.64 73.29 91.72 69.92 92.66 66.44 93.45 62.87 94.08 59.23 94.56 55.53 94.88 51.81 95.04 48.07 95.04 44.34 94.88 40.65 94.56 37.01 94.08 33.43 93.45 29.95 92.66 26.59 91.72 23.35 90.64 20.26 89.43 17.34 88.08 14.6 86.61 12.06 85.03 9.73 83.35 7.63 81.56 5.76 79.69 4.13 77.75 2.77 75.74 1.67 73.68 0.83 71.58 0.28 69.44 0 67.29 0 65.13 0.28 62.98"/><polygon class="cls-8" points="92.25 50.86 85.91 45 87.5 46.59 88.87 48.24 90.03 49.95 90.97 51.7 91.68 53.49 92.15 55.31 92.39 57.13 92.39 58.97 92.15 60.8 91.68 62.61 90.97 64.4 90.03 66.15 88.87 67.86 87.5 69.51 85.91 71.1 84.12 72.61 82.14 74.05 79.98 75.39 77.65 76.64 75.17 77.78 72.54 78.82 69.79 79.73 66.93 80.53 63.97 81.2 60.93 81.74 57.84 82.15 54.7 82.42 51.53 82.56 48.35 82.56 45.18 82.42 42.04 82.15 38.95 81.74 35.91 81.2 32.95 80.53 30.09 79.73 27.34 78.82 24.71 77.78 22.23 76.64 19.9 75.39 17.74 74.05 15.76 72.61 13.97 71.1 12.38 69.51 11 67.86 9.84 66.15 8.91 64.4 8.2 62.61 7.73 60.8 7.49 58.97 7.49 57.13 7.73 55.31 8.2 53.49 8.91 51.7 9.84 49.95 11 48.24 12.38 46.59 13.97 45 7.63 50.86 5.76 52.73 4.13 54.67 2.77 56.68 1.67 58.74 0.83 60.85 0.28 62.98 0 65.13 0 67.29 0.28 69.44 0.83 71.58 1.67 73.68 2.77 75.74 4.13 77.75 5.76 79.69 7.63 81.56 9.73 83.35 12.06 85.03 14.6 86.61 17.34 88.08 20.26 89.43 23.35 90.64 26.59 91.72 29.95 92.66 33.43 93.45 37.01 94.08 40.65 94.56 44.34 94.88 48.07 95.04 51.81 95.04 55.53 94.88 59.23 94.56 62.87 94.08 66.44 93.45 69.92 92.66 73.29 91.72 76.53 90.64 79.62 89.43 82.54 88.08 85.28 86.61 87.82 85.03 90.15 83.35 92.25 81.56 94.12 79.69 95.75 77.75 97.11 75.74 98.21 73.68 99.04 71.58 99.6 69.44 99.88 67.29 99.88 65.13 99.6 62.98 99.04 60.85 98.21 58.74 97.11 56.68 95.75 54.67 94.12 52.73 92.25 50.86"/><path class="cls-9" d="M80.11,40.63,82.28,42l2,1.44,1.8,1.52,1.6,1.6,1.38,1.66,1.17,1.71.94,1.76.71,1.8.48,1.82.23,1.84V59l-.23,1.84-.48,1.82-.71,1.79-.94,1.76L89.06,67.9l-1.39,1.66-1.6,1.59-1.8,1.53-2,1.44L80.1,75.47l-2.34,1.25-2.48,1.15-2.64,1-2.76,1-2.88.8-3,.67-3,.55-3.11.4-3.15.28-3.18.14h-3.2l-3.18-.14L42,82.25l-3.1-.4-3-.55-3-.67L30,79.83l-2.76-.92-2.64-1-2.5-1.15-2.33-1.25L17.6,74.16l-2-1.44-1.79-1.53-1.6-1.59-1.33-1.7L9.66,66.18l-.94-1.76L8,62.63l-.48-1.82L7.3,59V57.13l.23-1.84L8,53.47l.71-1.8.94-1.76,1.22-1.71,1.38-1.66,1.6-1.6,1.79-1.52,2-1.44,2.18-1.35,2.33-1.26,2.5-1.15,2.64-1,2.76-.92,2.87-.8,3-.68,3-.54,3.12-.41,3.15-.28,3.18-.13h3.2l3.18.13,3.15.28,3.11.41,3,.54,3,.68,2.88.8,2.76.92,2.64,1,2.49,1.15Zm-8.58-3.37-2.65-.88-2.73-.76L63.32,35l-2.9-.52-3-.39-3-.26-3-.13h-3l-3,.13-3,.26-3,.39L36.51,35l-2.82.64L31,36.38l-2.63.88-2.51,1-2.37,1.09-2.23,1.2-2,1.26-1.89,1.37-1.71,1.45-1.52,1.52-1.32,1.57-1.11,1.64-.89,1.7-.68,1.71L9.61,54.5l-.23,1.72V58l.23,1.75.45,1.73.68,1.71.89,1.67,1.11,1.64,1.32,1.59,1.52,1.5,1.71,1.5,1.89,1.37,2.06,1.28,2.23,1.19,2.41,1,2.51,1,2.63.87,2.73.76,2.82.64,2.91.52,3,.39,3,.26,3,.13h3l3-.13,3-.26,3-.39,2.9-.52,2.83-.64,2.67-.77,2.63-.87,2.51-1,2.37-1.1,2.23-1.19,2.06-1.28,1.91-1.31,1.71-1.45,1.52-1.55,1.32-1.57,1.11-1.64.89-1.67.68-1.71.45-1.73L90.5,58V56.22l-.23-1.75-.45-1.73-.68-1.68-.89-1.67-1.11-1.64-1.32-1.57L84.3,44.66l-1.71-1.45L80.7,41.84l-2.06-1.28-2.23-1.2L74,38.27Z"/><polygon class="cls-10" points="9.21 56.22 9.21 57.98 9.44 59.74 9.89 61.48 10.57 63.19 11.47 64.87 12.59 66.51 13.91 68.1 15.43 69.62 17.15 71.08 19.05 72.45 21.12 73.74 23.36 74.94 25.74 76.03 28.26 77.03 30.9 77.91 33.64 78.67 36.48 79.31 39.39 79.83 42.36 80.22 45.38 80.48 48.42 80.62 51.46 80.62 54.5 80.48 57.52 80.22 60.49 79.83 63.4 79.31 66.24 78.67 68.98 77.91 71.62 77.03 74.14 76.03 76.52 74.94 78.76 73.74 80.83 72.45 82.73 71.08 84.45 69.62 85.97 68.1 87.3 66.51 88.41 64.87 89.31 63.19 89.99 61.48 90.44 59.74 90.67 57.98 90.67 56.22 90.44 54.47 89.99 52.73 89.31 51.01 88.41 49.33 87.3 47.69 85.97 46.11 84.45 44.58 82.73 43.13 80.83 41.75 78.76 40.47 76.52 39.27 74.14 38.17 71.62 37.18 68.98 36.3 66.24 35.53 63.4 34.89 60.49 34.37 57.52 33.98 54.5 33.72 51.46 33.59 48.42 33.59 45.38 33.72 42.36 33.98 39.39 34.37 36.48 34.89 33.64 35.53 30.9 36.3 28.26 37.18 25.74 38.17 23.36 39.27 21.12 40.47 19.05 41.75 17.15 43.13 15.43 44.58 13.91 46.11 12.59 47.69 11.47 49.33 10.57 51.01 9.89 52.73 9.44 54.47 9.21 56.22"/><g class="cls-11"><path class="cls-12" d="M20.58,18.41l-4.94,2.86h0V19.81l.06-.35.07-.34.1-.32.07-.17.13-.26.16-.24.08-.11.19-.2.13-.1h0l.18-.11.19-.1.16-.06.27-.07h.89l.33.07.33.1.33.13.23.11h0l.34.18.35.21.34.24Zm8.8-5.08-4.94,2.85h0V15h0v-.25l.06-.36.07-.33.1-.32.06-.16h0l.13-.26.15-.24h0l.08-.11.19-.2.13-.11.18-.11.19-.1.16-.06.27-.07h.89l.33.07.33.1.33.13.23.1h0l.34.18.35.21.34.24Zm9-5.21L33.44,11h0V9.78h0V9.52l.06-.35.07-.34.1-.32.07-.17.14-.28L34,7.82h0l.09-.11.19-.2.13-.11.18-.11.19-.1L35,7.13l.26-.07h.89l.33.07.33.1.33.13.23.11h0l.34.18.35.22.34.23Zm-29,20.94V69l.07.35.11.31.13.29.16.25.18.21.21.18.23.14,4.76,2.75.26.1.27.07h.92l.33-.1.35-.14.33-.18.78-.45L42.88,58.62v.1l.15.36.16.36.18.33.18.33.2.31.21.29.22.28.23.27.24.25.25.24.26.22.27.21.27.19.29.17,2,1.15-.67,1.73-.76,2,.07.32v.09l.1.29.14.27.17.25.05.06.19.21h.06l.2.15h1.7l.29-.07.28-.11h.08l.28-.15.27-.19v-.07l.75-2,.42-1.08,1.69,1,.29.16.29.52.31.12.33.12.33.1.33.08.35.06.35,0h1.87l.39,0,.4-.07.4-.09.41-.1.42-.12.41-.14.43-.16.43-.17.43-.19.44-.22.44-.23.44-.24.44-.26.43-.25.42-.27.42-.29.42-.29.42-.31.41-.32.4-.34.4-.34.4-.36.39-.37.39-.38.38-.38.37-.4.37-.41.36-.42.35-.42.35-.44.34-.44.34-.45.32-.45.32-.47.32-.47.3-.47.29-.49.29-.48.28-.49.27-.5.26-.5.25-.51.24-.5.23-.52.23-.51.21-.52.2-.52.19-.52.18-.52.17-.52.16-.52.15-.52.13-.53.12-.52.18-.56.1-.52.09-.52.07-.52L76.2,45V40.53l-.11-.47L76,39.61l-.13-.42-.1-.42-.11-.41L75.54,38l-.14-.38-.15-.36-.17-.36-.17-.33-.19-.33-.2-.31-.2-.29-.22-.28-.22-.27-.24-.25-.25-.24-.26-.22h.81l.15-.07.11-.08.09-.1V34l.18-.52.15-.53.11-.53.15-.66v-1.7l-.07-.54v-.11l-.11-.53-.14-.52-.18-.51v-.11l-.21-.49-.29-.52-.06-.11-.27-.45-.3-.43-.07-.09-.32-.4-.08-.09-.34-.36-.09-.08L72,24.39l-.12-.07-.09-.08L71.44,24l-.09-.06-.1-.07-.11-.07-.26-.21-.09-.06-.1-.06-.1-.06h0l.18-.46v-.05l-.15-.31v-.06l-.06-.06-.09-.06-.12-.07-.13-.07-.17-.17h-.17L69.72,22l-.16,0-.16-.05h-.52l-.32.13h0l-.18.46v.08H68l-.39-.06H65.48l-.5.07h-.12l-.51.12h-.11l-.5.15-.5.18-.11.05-.49.22-.47.26-.45.28-.1.07-.44.32-.41.35-.4.38-.36.4-.08.09-.34.42-.31.45-.28.47-.25.49v.11l-.22.5v.25l0,.15.09.16.12.16.16.18.18.19.15.13h-.2l-.41.12-.42.14-.42.16-.43.17-.43.19-.42.21V6.61l-.08-.34L56.36,6l-.14-.27-.34-.24-.2-.2-.21-.19L50.71,2.33l-.24-.13-.26-.09h-1l-.39-.33-.4-.31L48,1.19,47.6,1,47.19.73l-.11,0-.4-.19L46.27.33,45.88.18,45.45.06H43.67l-.33.09L43,.27l-.13.08L42.57.5l-.28.19-.13.1L41.88,1l-.24.26-.22.28-.09.12-.2.31L41,2.3l-.08.14-.14.36-.12.38-.09.41-.05.47V6l.07.5.06.35-.45.27-.28-.24-.39-.3-.41-.28-.41-.24-.4-.22h-.11l-.41-.19-.4-.15L37,5.38l-.39-.09-.38-.06h-1.4l-.34.08-.32.12L34,5.49l-.3.16-.29.18-.13.1L33,6.15l-.24.25-.22.28-.1.13-.19.3-.17.34L32,7.59l-.13.35-.12.38-.1.41-.06.42v2l.06.49.07.36-.58.33-.27-.26-.39-.31-.41-.27-.4-.25-.4-.22-.11,0-.41-.19-.4-.15-.4-.13-.39-.09H25.79l-.34.09-.32.12-.15.06-.3.15-.29.19-.13.1-.26.22-.24.25-.22.28-.1.12-.19.31-.17.34-.06.13-.14.36-.12.39-.09.4-.07.43v2l.06.5.07.35-.36.21-.28-.23-.39-.3-.41-.28-.4-.25-.4-.22h-.11L20,15.93l-.4-.15-.4-.13-.39-.08-.38-.06h-1l-.35.05-.34.08-.32.12-.15.06-.3.16-.29.18-.13.1-.26.22-.24.25-.22.28-.1.12-.19.31-.17.34-.06.14-.14.35-.12.39-.09.4-.07.43v2l.06.49.07.36-.91.52-.34.22-.35.25-.33.29-.32.32-.31.34-.29.36-.27.38-.26.4-.23.41-.21.42-.18.43-.21.39-.13.44-.11.43-.07.43v.3Zm37.91-26L42.35,5.84h0V4.6h0V4l.08-.34.09-.31.07-.16h0l.14-.26.15-.26.08-.1.2-.2.12-.11h0l.17-.12.24-.07h0L43.88,2l.27-.07H45l.32.08.33.1.34.13.22.1h0l.34.19.34.21.34.24Z"/></g></g><polygon class="cls-13" points="71.11 62.67 72.37 63.71 71.87 63.37 70.99 62.64 71.11 62.67"/><polygon class="cls-14" points="72.37 63.71 70.13 64.99 69.68 64.62 71.87 63.37 72.37 63.71"/><path class="cls-15" d="M69.68,64.62l.45.37a2.85,2.85,0,0,1,.5,1.36l-.37-.07a2.62,2.62,0,0,0-.14-.82A3.19,3.19,0,0,0,69.68,64.62Z"/><polygon class="cls-16" points="73.55 67.01 73.19 68.26 72.86 67.72 73.11 66.84 73.55 67.01"/><polygon class="cls-17" points="72.86 67.72 73.19 68.26 70.04 68.26 69.79 67.72 72.86 67.72"/><path class="cls-18" d="M69.79,67.72l.25.54a4.91,4.91,0,0,1-1.38,1.23l-.46-.35a6.29,6.29,0,0,0,1-.72A5.34,5.34,0,0,0,69.79,67.72Z"/><polygon class="cls-19" points="68.66 69.49 70.04 71.09 69.55 70.7 68.2 69.14 68.66 69.49"/><polygon class="cls-20" points="70.04 71.09 68.27 71.83 68.31 71.22 69.55 70.7 70.04 71.09"/><polygon class="cls-21" points="68.31 71.22 68.27 71.83 66.03 70.56 66.12 69.98 68.31 71.22"/><path class="cls-22" d="M66.12,70l-.09.57a11.4,11.4,0,0,1-2.48.32l-.29-.53A11.86,11.86,0,0,0,66.12,70Z"/><polygon class="cls-23" points="63.27 70.34 63.55 70.87 62.61 72.57 62.34 72.01 63.27 70.34"/><polygon class="cls-24" points="62.34 72.01 62.61 72.57 60.44 72.39 60.82 71.88 62.34 72.01"/><polygon class="cls-25" points="60.77 70.09 60.82 71.88 60.44 72.39 60.39 70.56 60.77 70.09"/><path class="cls-26" d="M58.83,69.46a9,9,0,0,0,1.94.63l-.38.47a9.1,9.1,0,0,1-2.16-.78l.06-.58C58.65,69.38,58.62,69.37,58.83,69.46Z"/><polygon class="cls-27" points="58.29 69.2 58.23 69.78 55.51 70.61 55.62 70.01 58.29 69.2"/><polygon class="cls-28" points="55.62 70.01 55.51 70.61 54.19 69.6 54.7 69.3 55.62 70.01"/><path class="cls-29" d="M67.27,64.8a2.64,2.64,0,0,1,.5.65,1.89,1.89,0,0,1,.13.33,2.58,2.58,0,0,1,.07.34c0,.16,0,.2,0,.34a2.14,2.14,0,0,1-.09.34,2,2,0,0,1-.37.64,3.49,3.49,0,0,1-1,.8h0l-.08,0a2.76,2.76,0,0,0,.83-.76,1.83,1.83,0,0,0,.28-.6,1.49,1.49,0,0,0,0-.63,1.72,1.72,0,0,0-.25-.62,2.9,2.9,0,0,0-.53-.58,4.58,4.58,0,0,0-1.69-.82A7.29,7.29,0,0,0,63,64a6.2,6.2,0,0,0-3,.79,3.18,3.18,0,0,0-.65.51,2.35,2.35,0,0,0-.41.58,1.49,1.49,0,0,0-.15.62,1.57,1.57,0,0,0,.12.63,2,2,0,0,0,.39.6,2.72,2.72,0,0,0,.65.53,3.6,3.6,0,0,1-.76-.51,2.65,2.65,0,0,1-.54-.64,1.78,1.78,0,0,1-.23-.67,1.26,1.26,0,0,1,0-.34,3,3,0,0,1,.06-.34,2.39,2.39,0,0,1,.34-.65,3.1,3.1,0,0,1,.61-.59,5.51,5.51,0,0,1,2-.86,8.13,8.13,0,0,1,3.47,0A5.14,5.14,0,0,1,67.27,64.8Z"/><polygon class="cls-30" points="35.1 58.37 36.17 59.69 35.97 60.27 34.61 58.62 35 58.42 35 58.42 35.1 58.37"/><polygon class="cls-31" points="40.41 58.99 40.26 59.56 35.97 60.27 36.17 59.69 40.41 58.99"/><polygon class="cls-32" points="43.01 60.48 41.86 62.96 41.41 63.4 42.57 60.89 43.01 60.48"/><path class="cls-33" d="M41.4,59.68a13.41,13.41,0,0,0,1.61.81l-.44.4a10.76,10.76,0,0,1-2.31-1.33l.15-.57A10.41,10.41,0,0,0,41.4,59.68Z"/><polygon class="cls-34" points="44.15 63.56 44.28 64.16 41.41 63.4 41.86 62.96 44.15 63.56"/><polygon class="cls-35" points="46.6 61.45 46.78 62.01 44.28 64.16 44.15 63.56 46.6 61.45"/><path class="cls-36" d="M50.26,61.62l-.24.55A19.64,19.64,0,0,1,46.78,62l-.18-.56c.64.08.83.1,1.51.15C49,61.65,49.45,61.64,50.26,61.62Z"/><path class="cls-37" d="M56.81,68l-.45.27a3.61,3.61,0,0,1-.39-.65,2.71,2.71,0,0,1-.21-.78l.37-.49a2.76,2.76,0,0,0,.18.81A3.46,3.46,0,0,0,56.81,68Z"/><polygon class="cls-38" points="56.13 66.36 55.76 66.85 52.82 66.33 53.24 65.85 56.13 66.36"/><polygon class="cls-39" points="53.44 64.97 53.24 65.85 52.82 66.33 53.1 65.07 53.44 64.97"/><polygon class="cls-40" points="50.26 61.62 52.13 63.94 51.92 64.52 50.02 62.17 50.26 61.62"/><polygon class="cls-41" points="54.55 63.55 54.97 64.03 51.92 64.52 52.13 63.94 54.55 63.55"/><path class="cls-42" d="M57,64.27a3.7,3.7,0,0,0-.5.64h-.2a4.56,4.56,0,0,1,1.24-1.16c.61-.38.56-.36.2-.11A4.47,4.47,0,0,0,57,64.27Z"/><path class="cls-43" d="M56.31,64.91h-.23V62.18l1.47,1.57A4.86,4.86,0,0,0,56.31,64.91Z"/><polygon class="cls-44" points="58.02 63.46 57.55 63.74 56.08 62.18 56.57 61.92 58.02 63.46"/><polygon class="cls-45" points="54.49 61.46 54.97 64.03 54.55 63.55 54.08 61.01 54.49 61.46"/><path class="cls-46" d="M57.07,59.78l.07.58a13.25,13.25,0,0,1-2.65,1.1L54.08,61c.52-.16.6-.18,1.09-.36A11.61,11.61,0,0,0,57.07,59.78Z"/><polygon class="cls-47" points="61.08 60.85 61.21 61.45 57.14 60.36 57.06 59.78 61.08 60.85"/><polygon class="cls-48" points="65.59 60.69 65.75 62.43 65.38 62.35 65.22 60.57 65.59 60.69"/><path class="cls-49" d="M63.7,60.47l-.83,1.68-.25,0,.8-1.62Z"/><path class="cls-50" d="M63,59.94l-1.78,1.51-.13-.6,1.41-1.2Z"/><path class="cls-51" d="M60.23,55.83l.35.49a4.48,4.48,0,0,1-.81,1.83l-.46-.26a5.93,5.93,0,0,0,.39-.59,4.07,4.07,0,0,0,.46-1.14C60.18,56.07,60.17,56.14,60.23,55.83Z"/><polygon class="cls-52" points="64.49 55.16 64.91 55.64 60.58 56.32 60.23 55.83 64.49 55.16"/><polygon class="cls-53" points="64.59 53.82 64.91 55.64 64.49 55.16 64.24 53.71 64.59 53.82"/><path class="cls-54" d="M58.36,51.71l.46.32a6.85,6.85,0,0,1,.89.95,4.47,4.47,0,0,1,.37.58h-.23a7.14,7.14,0,0,0-.4-.66A6.87,6.87,0,0,0,58.36,51.71Z"/><polygon class="cls-55" points="61.43 49.92 58.83 52.03 58.36 51.71 60.93 49.63 61.43 49.92"/><polygon class="cls-56" points="52.26 46.73 52.6 49.24 52.25 49.18 51.9 46.63 52.26 46.73"/><polygon class="cls-57" points="49.4 46.5 48.31 48.97 48.04 48.99 49.11 46.58 49.4 46.5"/><path class="cls-58" d="M55.66,58.25a6,6,0,0,0,.53-.49l.32-.38a4.39,4.39,0,0,0,.32-.53,3.34,3.34,0,0,0,.2-.55,2.34,2.34,0,0,0,.09-.55,2.66,2.66,0,0,0-.18-1.11,2.94,2.94,0,0,0-.26-.54,4.6,4.6,0,0,0-.38-.52,4.67,4.67,0,0,0-.5-.49,6,6,0,0,0-1.34-.88,9,9,0,0,0-1.65-.65,12.4,12.4,0,0,0-3.73-.47,12.14,12.14,0,0,0-3.69.61,8.83,8.83,0,0,0-1.6.71,6.1,6.1,0,0,0-1.22.92,4.11,4.11,0,0,0-.44.51,3.61,3.61,0,0,0-.33.53,3.34,3.34,0,0,0-.2.55,2.74,2.74,0,0,0-.09.55,3.57,3.57,0,0,0,0,.56,3.75,3.75,0,0,0,.15.55,3.36,3.36,0,0,0,.26.54,4.83,4.83,0,0,0,1.67,1.58l-.1-.05a7.66,7.66,0,0,1-.7-.46,5.67,5.67,0,0,1-.59-.51,3.89,3.89,0,0,1-.46-.53,4.65,4.65,0,0,1-.34-.56,3.08,3.08,0,0,1-.21-.57,2.8,2.8,0,0,1-.09-.58,2.33,2.33,0,0,1,0-.58,2.48,2.48,0,0,1,.15-.58,3.77,3.77,0,0,1,.28-.57,3.83,3.83,0,0,1,.4-.54,5.58,5.58,0,0,1,1.16-1,8.58,8.58,0,0,1,1.6-.81,12.69,12.69,0,0,1,3.81-.79,15,15,0,0,1,2,0,11.68,11.68,0,0,1,3.74.93,8.22,8.22,0,0,1,1.51.87c.26.21.33.27.58.5a4.69,4.69,0,0,1,.46.54,3.87,3.87,0,0,1,.34.55,3.1,3.1,0,0,1,.21.58,2.82,2.82,0,0,1,.1.58,3.69,3.69,0,0,1,0,.58,3.37,3.37,0,0,1-.16.58,4.07,4.07,0,0,1-.27.56,6,6,0,0,1-.4.55,5.21,5.21,0,0,1-.53.52,6.35,6.35,0,0,1-1.15.79A6.27,6.27,0,0,0,55.66,58.25Z"/><path class="cls-59" d="M38.72,56.91l-.45.18A4.5,4.5,0,0,1,38,56a3.84,3.84,0,0,1,0-.76l.4-.46a3.68,3.68,0,0,0,0,.74A4.17,4.17,0,0,0,38.72,56.91Z"/><polygon class="cls-60" points="38.4 54.79 38 55.25 33.93 54.19 34.38 53.75 38.4 54.79"/><polygon class="cls-61" points="35.02 52.34 34.38 53.75 33.93 54.19 34.73 52.42 35.02 52.34"/><path class="cls-62" d="M41.06,51.11c.62-.37.56-.34.15-.08a8.45,8.45,0,0,0-1.41,1.12c-.18.19-.12.13-.38.43h-.15A8.12,8.12,0,0,1,41.06,51.11Z"/><polygon class="cls-63" points="39.61 48.53 41.52 50.83 41.06 51.11 39.12 48.78 39.61 48.53"/><path class="cls-64" d="M56.94,54.64a3,3,0,0,1,.15.55,2.7,2.7,0,0,1,0,.56,2.86,2.86,0,0,1-.09.55,3.34,3.34,0,0,1-.2.55,3.76,3.76,0,0,1-.49.74h0l-.27-.3a6.12,6.12,0,0,0-1.23-.93,9,9,0,0,0-1.6-.71,11.7,11.7,0,0,0-1.79-.44,13.46,13.46,0,0,0-3.8-.07,13.19,13.19,0,0,0-1.83.37,9.77,9.77,0,0,0-1.65.65,6.88,6.88,0,0,0-1.34.88,4.73,4.73,0,0,0-.54.55,3.73,3.73,0,0,1-.42-.61,2.83,2.83,0,0,1-.23-.54,3,3,0,0,1-.12-.55,2.62,2.62,0,0,1,0-.56,3,3,0,0,1,.12-.55,4.38,4.38,0,0,1,.23-.54,4.05,4.05,0,0,1,.35-.53,5.44,5.44,0,0,1,1.06-1,8.22,8.22,0,0,1,1.48-.81,11.67,11.67,0,0,1,3.6-.81,12.18,12.18,0,0,1,1.91,0,11.6,11.6,0,0,1,3.6.81,7.6,7.6,0,0,1,1.48.81,5,5,0,0,1,1.06,1,4.05,4.05,0,0,1,.35.53A2.1,2.1,0,0,1,56.94,54.64Z"/><path class="cls-65" d="M67.26,65.6a1.7,1.7,0,0,1,.28.61,1.49,1.49,0,0,1,0,.63,1.64,1.64,0,0,1-.25.61,3,3,0,0,1-.5.56,2.63,2.63,0,0,1-.73.44l-.16.07a7,7,0,0,0-5.45,0,4,4,0,0,1-.46-.21.42.42,0,0,1-.14-.08,3.25,3.25,0,0,1-.63-.55,2.12,2.12,0,0,1-.35-.61,1.36,1.36,0,0,1-.08-.63,1.38,1.38,0,0,1,.18-.61,2.77,2.77,0,0,1,1.12-1.08,5.85,5.85,0,0,1,1.94-.65,7.5,7.5,0,0,1,3.16.2,4.49,4.49,0,0,1,1.65.86A2.57,2.57,0,0,1,67.26,65.6Z"/><path class="cls-66" d="M70.13,65l2.24-1.28v3l-1.74-.35A2.88,2.88,0,0,0,70.13,65Z"/><polygon class="cls-67" points="73.55 67.01 73.55 70.96 73.19 72.21 73.19 68.26 73.55 67.01"/><rect class="cls-68" x="70.04" y="68.26" width="3.15" height="3.95"/><path class="cls-69" d="M70,71.09l-1.38-1.6A4.91,4.91,0,0,0,70,68.26v3.95h0Z"/><path class="cls-70" d="M70,75l-1.77.75v-4L70,71.09Z"/><polygon class="cls-71" points="68.27 71.83 68.27 75.79 66.03 74.51 66.03 70.56 68.27 71.83"/><path class="cls-72" d="M63.55,74.83v-4A11.73,11.73,0,0,0,66,70.55v4A12.78,12.78,0,0,1,63.55,74.83Z"/><polygon class="cls-73" points="63.55 70.87 63.55 74.83 62.61 76.52 62.61 72.57 63.55 70.87"/><polygon class="cls-74" points="62.61 72.57 62.61 76.52 60.44 76.34 60.44 72.39 62.61 72.57"/><path class="cls-75" d="M60.44,76.34c-.07-2.3,0-1,0-5.78C60.46,72.86,60.44,71.6,60.44,76.34Z"/><path class="cls-76" d="M60.39,70.56v4a9.58,9.58,0,0,1-2.16-.77v-4A9.47,9.47,0,0,0,60.39,70.56Z"/><polygon class="cls-77" points="58.23 69.78 58.23 73.74 55.51 74.56 55.51 70.61 58.23 69.78"/><path class="cls-78" d="M55.51,70.61v4l-1.32-1v-4Z"/><path class="cls-79" d="M56.1,67.88a2.75,2.75,0,0,0,.26.4l-.6.36V66.85A2.67,2.67,0,0,0,56.1,67.88Z"/><path class="cls-80" d="M55.76,66.85v1.79l-1.57,1v.92l-1.37-.24v-4Z"/><path class="cls-81" d="M44.28,64.16v4l-2.87-.76V63.4Z"/><polygon class="cls-82" points="46.78 62.01 46.78 65.97 44.28 68.11 44.28 64.16 46.78 62.01"/><path class="cls-83" d="M50,62.17v4A19.85,19.85,0,0,1,46.78,66V62A19.81,19.81,0,0,0,50,62.17Z"/><polygon class="cls-84" points="51.92 64.52 51.92 68.47 50.02 66.12 50.02 62.17 51.92 64.52"/><path class="cls-85" d="M57.14,60.36a10.32,10.32,0,0,0,0,1.3c-.69.32-.45.2-1.07.52v2.74l-2.64,0-.34.1-.28,1.26v2l-.9.14v-4L55,64l-.48-2.57A13.45,13.45,0,0,0,57.14,60.36Z"/><path class="cls-86" d="M61.21,61.45v.87c-.49.08-.8.17-1.16.26l-2.27-1.2-.63.28a10.6,10.6,0,0,1,0-1.3Z"/><path class="cls-87" d="M61.21,62.32v-.87L63,59.94v1.45h0l-.38.78A11.1,11.1,0,0,0,61.21,62.32Z"/><path class="cls-88" d="M60.41,57a4.54,4.54,0,0,0,.17-.64v2.27l-.81-.44A4.83,4.83,0,0,0,60.41,57Z"/><path class="cls-89" d="M64.91,55.64v4l-2,.31-2.35-1.31V56.32Z"/><path class="cls-90" d="M58.82,52l2.61-2.11v3.69l-1.35,0,0,0A6,6,0,0,0,58.82,52Z"/><path class="cls-91" d="M39.12,48.78l1.94,2.33a8.35,8.35,0,0,0-1.79,1.46h-.15Z"/><path class="cls-92" d="M42.57,60.89,41.41,63.4v.87a9.94,9.94,0,0,1-1.15-.76V59.56A10.89,10.89,0,0,0,42.57,60.89Z"/><polygon class="cls-93" points="40.26 59.56 40.26 63.51 35.97 64.22 35.97 60.27 40.26 59.56"/><polygon class="cls-94" points="35.97 60.27 35.97 64.22 34.61 62.57 34.61 58.62 35.97 60.27"/><path class="cls-95" d="M38.27,57.09l-.28.12V55.7A4.1,4.1,0,0,0,38.27,57.09Z"/><path class="cls-96" d="M38,55.25c0,.29,0,.08,0,2-3.19,1.29-2.84,1.14-3,1.21h0l-1.07-.28v-4Z"/><path class="cls-97" d="M68,66.29a1.67,1.67,0,0,0-.13-.68,2,2,0,0,0-.42-.65,4.18,4.18,0,0,0-1.64-1,7.57,7.57,0,0,0-3.39-.4,6,6,0,0,0-3,1.09,2.67,2.67,0,0,0-.57.6,1.77,1.77,0,0,0-.31.65,1.22,1.22,0,0,0,0,.34,1.27,1.27,0,0,0,0,.34,1.85,1.85,0,0,0,.27.67,3,3,0,0,0,.58.64A5.6,5.6,0,0,0,62,68.92a7.33,7.33,0,0,0,4.56-.68h0a4.87,4.87,0,0,0,.53-.35,2.72,2.72,0,0,0,.58-.6,1.89,1.89,0,0,0,.3-.66A1.27,1.27,0,0,0,68,66.29Zm-.71-3.39a9.5,9.5,0,0,1,1,.5L71,62.64l.88.73-2.19,1.25a3.11,3.11,0,0,1,.49,1,3,3,0,0,1,.09.66l2.85.56-.25.88H69.79a5,5,0,0,1-.4.49,5.48,5.48,0,0,1-1.19.93l1.35,1.56-1.24.52L66.12,70a12,12,0,0,1-2,.33l-.84,0L62.34,72l-1.52-.13,0-1.79a9.89,9.89,0,0,1-1.83-.57l-.65-.32L55.62,70l-.92-.71L56.81,68a5,5,0,0,1-.34-.51,2.52,2.52,0,0,1-.26-.65,3,3,0,0,1-.08-.49l-2.89-.51.2-.88,3.07-.06a4.41,4.41,0,0,1,.5-.64,4.92,4.92,0,0,1,1-.81l-1.45-1.54,1.21-.54,2.27,1.2c.44-.11.56-.15,1-.23a12.37,12.37,0,0,1,1.81-.2l.83-1.68,1.52.1.16,1.78A10.65,10.65,0,0,1,67.26,62.9Z"/><path class="cls-98" d="M45.42,59.47a13,13,0,0,0,3.9.57,12.79,12.79,0,0,0,3.89-.57,9.36,9.36,0,0,0,1.71-.71,6.6,6.6,0,0,0,1.2-.82,5.21,5.21,0,0,0,.53-.52,6,6,0,0,0,.4-.55,4.07,4.07,0,0,0,.27-.56,3.37,3.37,0,0,0,.16-.58,3.69,3.69,0,0,0,0-.58,2.82,2.82,0,0,0-.1-.58A3.1,3.1,0,0,0,57.2,54a3.87,3.87,0,0,0-.34-.55,4.69,4.69,0,0,0-.46-.54c-.25-.23-.32-.29-.58-.5a7.69,7.69,0,0,0-1.51-.87,11.81,11.81,0,0,0-3.74-.93,13.81,13.81,0,0,0-4,.21,11.89,11.89,0,0,0-1.84.54,8.58,8.58,0,0,0-1.6.81,5.58,5.58,0,0,0-1.16,1,3.83,3.83,0,0,0-.4.54,3.77,3.77,0,0,0-.28.57,2.36,2.36,0,0,0-.15.58,2.19,2.19,0,0,0,0,.58,2.8,2.8,0,0,0,.09.58,3.08,3.08,0,0,0,.21.57,4.65,4.65,0,0,0,.34.56,4.73,4.73,0,0,0,.46.53,6.38,6.38,0,0,0,1.43,1h0A9.66,9.66,0,0,0,45.42,59.47Zm8.77-9.86c.61.18.86.27,1.38.47l3.58-1.48,1.78,1-2.57,2.08A6.29,6.29,0,0,1,59.53,53c.14.22.12.18.32.54l4.39.16.25,1.45-4.26.67a4,4,0,0,1-.15.62,4.84,4.84,0,0,1-.23.57,4.94,4.94,0,0,1-.54.87l3.18,1.76-1.41,1.2-4-1.07c-.38.2-.44.24-.87.45a14.48,14.48,0,0,1-2.12.78l.47,2.54-2.42.39-1.87-2.32c-.82,0-1.24,0-2.15,0-.69-.05-.9-.08-1.51-.15l-2.45,2.11L41.86,63,43,60.49a11.48,11.48,0,0,1-1.9-1,8.17,8.17,0,0,1-.7-.5l-4.24.7L35.1,58.37,38,57.21h0l.73-.3a4.72,4.72,0,0,1-.29-.94,3.8,3.8,0,0,1-.06-.59,4.76,4.76,0,0,1,0-.59l-4-1L35,52.34l4.4.24a5.43,5.43,0,0,1,.51-.55,9.22,9.22,0,0,1,1.59-1.2l-1.91-2.29,2-.84,3.1,1.82A18.52,18.52,0,0,1,48.31,49L49.4,46.5l2.5.12.35,2.56A16.38,16.38,0,0,1,54.19,49.61Z"/><polygon class="cls-99" points="54.97 64.94 53.44 64.97 53.1 65.07 52.82 66.33 52.82 68.33 51.92 68.47 51.92 64.52 54.97 64.03 54.97 64.94"/><polygon class="cls-100" points="42.76 53.94 43.01 54.07 43.27 54.2 43.66 54.38 43.75 54.43 43.77 54.44 44.18 54.58 44.36 54.64 44.77 54.77 44.93 54.82 44.94 54.83 44.95 54.83 44.99 54.84 45.09 54.86 45.46 54.94 45.59 54.97 46.21 55.09 46.24 55.09 46.27 55.1 46.36 55.11 46.55 55.14 46.82 55.17 46.93 55.18 47.57 55.23 47.62 55.23 47.67 55.24 47.82 55.24 48.06 55.25 48.24 55.25 48.33 55.25 48.99 55.24 49.04 55.24 49.11 55.24 49.32 55.23 49.59 55.2 49.7 55.2 49.75 55.19 50.41 55.12 50.47 55.11 50.55 55.1 50.82 55.05 51.1 55.01 51.14 55 51.17 54.99 51.8 54.85 51.86 54.84 51.95 54.82 52.27 54.73 52.53 54.66 52.53 54.66 52.57 54.65 53.13 54.46 53.17 54.45 53.27 54.41 53.63 54.27 53.8 54.2 53.84 54.18 54.11 54.06 54.35 53.94 54.39 53.92 54.47 53.88 54.55 53.84 54.86 53.68 54.95 53.62 55 53.59 55.19 53.47 55.4 53.33 55.45 53.29 55.63 53.16 55.9 52.97 55.94 52.94 55.97 52.91 56.08 52.81 56.28 52.63 56.34 52.57 56.62 52.28 56.74 52.17 56.74 52.17 56.76 52.14 56.81 52.07 56.97 51.85 57.03 51.77 57.3 51.37 57.32 51.34 57.34 51.31 57.35 51.29 57.37 51.25 57.46 51.01 57.5 50.91 57.64 50.56 57.67 50.46 57.71 50.36 57.73 50.14 57.75 50.02 57.78 49.72 57.79 49.56 57.81 49.41 57.81 49.81 57.71 50.69 57.65 51.23 57.46 51.76 57.11 52.59 56.82 53.05 56.25 53.8 55.87 54.19 55.13 54.83 54.7 55.11 53.84 55.63 53.23 55.89 53.23 55.89 52.84 56.06 52.5 56.17 51.49 56.46 50.4 56.65 49.27 56.72 48.14 56.67 47.04 56.52 46.01 56.26 45.7 56.15 45 55.88 44.66 55.75 43.76 55.25 43.35 54.99 42.56 54.36 42.19 53.99 41.57 53.25 41.27 52.79 40.86 51.98 40.82 51.85 40.85 51.9 40.89 51.98 40.91 52.02 41.07 52.33 41.09 52.37 41.13 52.44 41.2 52.59 41.31 52.72 41.33 52.73 41.61 53.05 41.64 53.08 41.84 53.28 41.94 53.36 42.05 53.45 42.35 53.66 42.53 53.79 42.69 53.9 42.76 53.94"/><polygon class="cls-101" points="43.09 52.31 43.3 52.42 43.61 52.58 43.68 52.62 43.7 52.63 44.19 52.77 44.39 52.84 44.79 52.97 44.86 53 44.95 53.03 44.96 53.04 44.98 53.04 45.43 53.12 45.59 53.15 46.09 53.26 46.14 53.27 46.22 53.29 46.34 53.32 46.54 53.33 46.77 53.34 46.87 53.35 47.47 53.41 47.5 53.41 47.55 53.42 47.81 53.46 47.95 53.45 48.14 53.44 48.18 53.44 48.19 53.44 48.83 53.43 48.89 53.43 48.89 53.43 49.27 53.44 49.32 53.44 49.61 53.39 50.23 53.32 50.33 53.31 50.67 53.28 50.83 53.27 51.03 53.22 51.52 53.1 51.72 53.06 52.03 53 52.28 52.95 52.41 52.9 52.73 52.78 53.05 52.67 53.3 52.59 53.64 52.49 53.69 52.46 53.83 52.39 54.27 52.16 54.45 52.08 54.8 51.92 54.84 51.9 54.85 51.9 54.86 51.9 54.92 51.85 55.35 51.55 55.47 51.47 55.74 51.29 55.82 51.24 55.85 51.22 55.9 51.19 56.09 50.99 56.26 50.83 56.32 50.78 56.39 50.71 56.49 50.62 56.62 50.49 56.66 50.46 56.74 50.39 56.94 50.08 56.97 50.04 56.98 50.02 57.03 49.95 57.23 49.68 57.26 49.63 57.35 49.51 57.45 49.24 57.47 49.19 57.61 48.82 57.64 48.75 57.67 48.67 57.71 48.87 57.75 49.12 57.78 49.25 57.81 49.41 57.79 49.56 57.78 49.72 57.75 50.02 57.73 50.14 57.71 50.36 57.67 50.46 57.64 50.56 57.5 50.91 57.46 51.01 57.37 51.25 57.35 51.29 57.34 51.31 57.32 51.34 57.3 51.37 57.03 51.77 56.97 51.85 56.81 52.07 56.76 52.14 56.74 52.17 56.74 52.17 56.62 52.28 56.34 52.57 56.28 52.63 56.08 52.81 55.97 52.91 55.94 52.94 55.9 52.97 55.63 53.16 55.45 53.29 55.4 53.33 55.19 53.47 55 53.59 54.95 53.62 54.86 53.68 54.55 53.84 54.47 53.88 54.39 53.92 54.35 53.94 54.11 54.06 53.84 54.18 53.8 54.2 53.63 54.27 53.27 54.41 53.17 54.45 53.13 54.46 52.57 54.65 52.53 54.66 52.53 54.66 52.27 54.73 51.95 54.82 51.86 54.84 51.8 54.85 51.17 54.99 51.14 55 51.1 55.01 50.82 55.05 50.55 55.1 50.47 55.11 50.41 55.12 49.75 55.19 49.7 55.2 49.59 55.2 49.32 55.23 49.11 55.24 49.04 55.24 48.99 55.24 48.33 55.25 48.24 55.25 48.06 55.25 47.82 55.24 47.67 55.24 47.62 55.23 47.57 55.23 46.93 55.18 46.82 55.17 46.55 55.14 46.36 55.11 46.27 55.1 46.24 55.09 46.21 55.09 45.59 54.97 45.46 54.94 45.09 54.86 44.99 54.84 44.95 54.83 44.94 54.83 44.93 54.82 44.77 54.77 44.36 54.64 44.18 54.58 43.77 54.44 43.75 54.43 43.66 54.38 43.27 54.2 43.01 54.07 42.76 53.94 42.69 53.9 42.53 53.79 42.35 53.66 42.05 53.45 41.94 53.36 41.84 53.28 41.64 53.08 41.61 53.05 41.33 52.73 41.31 52.72 41.2 52.59 41.13 52.44 41.09 52.37 41.07 52.33 40.91 52.02 40.89 51.98 40.85 51.9 40.82 51.85 40.81 51.8 40.79 51.66 40.77 51.55 40.72 51.3 40.71 51.2 40.68 51.08 40.71 50.93 40.74 50.76 40.75 50.69 40.77 50.57 40.8 50.41 40.81 50.32 40.82 50.34 40.87 50.42 40.98 50.63 41.04 50.75 41.09 50.79 41.29 51 41.4 51.12 41.57 51.3 41.71 51.46 41.73 51.47 41.94 51.61 42.15 51.75 42.35 51.9 42.58 52.07 42.61 52.09 42.73 52.15 43.09 52.31"/><polygon class="cls-102" points="42.7 49.45 43.15 49.67 43.2 49.69 43.27 49.73 43.48 49.83 43.65 49.92 43.7 49.95 43.7 49.95 43.7 49.95 43.7 49.95 43.7 49.95 43.72 49.95 44.06 50.05 44.32 50.13 44.36 50.15 44.51 50.2 44.81 50.31 44.92 50.34 44.95 50.36 44.96 50.36 44.97 50.36 45.55 50.47 45.57 50.47 46.08 50.58 46.23 50.61 46.31 50.63 46.33 50.64 46.33 50.64 46.34 50.64 46.36 50.64 46.76 50.67 46.92 50.68 47.41 50.73 47.62 50.75 47.75 50.77 47.77 50.77 47.8 50.78 47.81 50.78 47.85 50.78 47.99 50.77 48.33 50.76 48.78 50.75 49.05 50.75 49.25 50.76 49.27 50.76 49.29 50.76 49.32 50.76 49.37 50.76 49.4 50.75 49.76 50.7 50.15 50.66 50.48 50.62 50.69 50.6 50.78 50.6 50.83 50.59 50.85 50.59 51.18 50.5 51.48 50.44 51.87 50.35 52.05 50.32 52.17 50.29 52.22 50.29 52.23 50.28 52.28 50.27 52.32 50.26 52.54 50.17 52.74 50.1 53.19 49.95 53.33 49.91 53.49 49.86 53.55 49.84 53.59 49.83 53.6 49.82 53.64 49.81 53.67 49.8 53.69 49.78 53.7 49.77 53.75 49.75 53.81 49.72 53.91 49.67 54.39 49.43 54.49 49.38 54.7 49.29 54.84 49.23 54.86 49.22 54.92 49.17 54.95 49.15 54.96 49.14 54.97 49.14 55.45 48.8 55.51 48.76 55.64 48.68 55.8 48.58 55.83 48.56 55.86 48.54 55.9 48.51 55.91 48.5 55.94 48.47 55.97 48.44 56 48.41 56.22 48.19 56.34 48.07 56.36 48.06 56.41 48.01 56.65 47.79 56.69 47.75 56.74 47.71 56.74 47.71 56.77 47.67 57.02 47.29 57.03 47.27 57.24 46.98 57.27 46.94 57.31 46.88 57.32 46.87 57.32 46.87 57.35 46.83 57.37 46.77 57.38 46.76 57.4 46.7 57.47 46.51 57.5 46.42 57.62 46.12 57.67 45.99 57.72 46.25 57.74 46.35 57.78 46.59 57.81 46.73 57.8 46.79 57.77 47.09 57.76 47.25 57.73 47.48 57.71 47.69 57.71 47.69 57.63 47.91 57.54 48.14 57.46 48.34 57.37 48.57 57.35 48.61 57.3 48.69 57.25 48.76 57.09 49 56.97 49.17 56.8 49.41 56.76 49.47 56.74 49.49 56.42 49.81 56.28 49.95 56.02 50.19 55.97 50.23 55.9 50.29 55.55 50.54 55.41 50.64 55.06 50.88 55 50.91 54.91 50.97 54.86 51 54.77 51.05 54.51 51.19 54.38 51.24 53.93 51.47 53.87 51.49 53.78 51.53 53.64 51.59 53.46 51.66 53.31 51.72 53.23 51.75 52.67 51.94 52.62 51.96 52.53 51.98 52.28 52.06 52.03 52.12 52.01 52.13 51.99 52.14 51.32 52.29 51.28 52.3 51.21 52.31 50.83 52.38 50.83 52.38 50.62 52.41 50.13 52.48 50.08 52.48 49.91 52.5 49.89 52.51 49.85 52.51 49.4 52.55 49.32 52.55 49.19 52.56 48.48 52.58 48.47 52.58 47.97 52.57 47.81 52.57 47.76 52.57 47.12 52.53 47.06 52.52 46.58 52.47 46.36 52.44 46.34 52.44 45.83 52.35 45.7 52.33 45.26 52.23 45.04 52.18 44.96 52.16 44.63 52.07 44.44 52.01 44.05 51.88 43.84 51.8 43.7 51.75 43.56 51.69 43.3 51.58 42.98 51.41 42.78 51.32 42.62 51.23 42.61 51.22 42.33 51.04 42.08 50.87 41.9 50.74 41.77 50.63 41.71 50.59 41.66 50.54 41.53 50.42 41.37 50.24 41.22 50.08 41.12 49.97 41.04 49.88 40.95 49.73 40.86 49.57 40.75 49.37 40.69 49.26 40.62 49.11 40.59 49 40.56 48.87 40.51 48.63 40.49 48.52 40.45 48.31 40.46 48.24 40.47 48.16 40.51 47.87 40.52 47.77 40.55 47.54 40.55 47.52 40.55 47.5 40.57 47.48 40.58 47.45 40.63 47.34 40.71 47.46 40.8 47.62 40.91 47.82 40.97 47.94 41.04 48.07 41.16 48.18 41.26 48.3 41.47 48.51 41.55 48.6 41.71 48.78 41.82 48.85 41.9 48.91 42.24 49.14 42.33 49.21 42.54 49.36 42.61 49.41 42.66 49.44 42.68 49.45 42.7 49.45"/><polygon class="cls-103" points="43.06 46.95 43.31 47.06 43.41 47.12 43.5 47.16 43.7 47.27 43.76 47.29 43.85 47.31 44.06 47.38 44.09 47.39 44.3 47.45 44.44 47.5 44.62 47.56 44.67 47.58 44.96 47.68 45.05 47.7 45.16 47.72 45.16 47.72 45.7 47.82 45.71 47.82 45.85 47.85 46.07 47.9 46.09 47.91 46.21 47.93 46.32 47.96 46.34 47.96 46.37 47.96 46.53 47.98 46.65 47.98 47 48.01 47.06 48.01 47.15 48.02 47.3 48.04 47.42 48.05 47.66 48.08 47.67 48.08 47.76 48.09 47.81 48.1 48.21 48.08 48.4 48.08 48.48 48.07 48.5 48.07 48.56 48.07 48.62 48.08 48.85 48.08 49.05 48.08 49.2 48.08 49.32 48.08 49.77 48.02 49.81 48.02 49.91 48 50.04 47.99 50.41 47.95 50.42 47.95 50.63 47.93 50.83 47.92 50.98 47.88 50.98 47.88 51.33 47.79 51.56 47.74 51.88 47.67 51.95 47.66 52.02 47.64 52.28 47.6 52.56 47.49 52.68 47.45 52.73 47.43 53.13 47.29 53.32 47.23 53.41 47.2 53.64 47.14 53.94 46.98 53.96 46.96 54.05 46.92 54.29 46.8 54.52 46.69 54.79 46.57 54.83 46.55 54.86 46.54 54.88 46.53 55.06 46.39 55.17 46.31 55.2 46.3 55.41 46.15 55.56 46.05 55.56 46.05 55.63 46 55.77 45.92 55.9 45.84 55.95 45.78 55.99 45.74 56.03 45.7 56.05 45.68 56.23 45.51 56.4 45.34 56.43 45.32 56.46 45.29 56.51 45.24 56.53 45.22 56.72 45.05 56.74 45.03 56.8 44.93 56.85 44.86 56.96 44.7 57.32 44.34 57.55 44.09 57.81 43.75 57.81 43.77 57.81 43.82 57.81 43.97 57.81 44 57.81 44.02 57.81 44.02 57.8 44.04 57.8 44.04 57.8 44.05 57.81 44.06 57.79 44.24 57.78 44.34 57.76 44.48 57.73 44.86 57.72 44.91 57.71 45.01 57.69 45.07 57.57 45.37 57.48 45.6 57.45 45.69 57.41 45.8 57.4 45.81 57.4 45.82 57.36 45.91 57.35 45.93 57.28 46.03 57.28 46.04 57.18 46.19 57.15 46.24 57.02 46.42 56.86 46.65 56.8 46.73 56.8 46.74 56.74 46.81 56.63 46.92 56.51 47.05 56.37 47.18 56.13 47.41 56.11 47.43 56.05 47.48 56.03 47.49 55.93 47.59 55.92 47.59 55.9 47.61 55.87 47.64 55.74 47.73 55.68 47.78 55.66 47.79 55.16 48.13 55.01 48.23 54.98 48.25 54.86 48.32 54.82 48.34 54.72 48.4 54.63 48.45 54.05 48.73 53.92 48.79 53.89 48.8 53.82 48.84 53.78 48.85 53.64 48.92 53.54 48.96 53.45 48.99 53.42 49 53.24 49.06 53.22 49.07 52.81 49.22 52.71 49.25 52.4 49.34 52.28 49.38 52.15 49.42 52.14 49.42 52.11 49.43 51.97 49.46 51.46 49.58 50.98 49.67 50.89 49.69 50.83 49.7 50.77 49.71 50.66 49.73 50.15 49.8 50.05 49.81 49.61 49.85 49.58 49.85 49.52 49.86 49.34 49.88 49.32 49.88 49.13 49.88 49.04 49.89 48.81 49.9 48.62 49.9 48.17 49.9 47.97 49.9 47.9 49.9 47.81 49.89 47.76 49.89 47.62 49.88 47.51 49.87 47.5 49.87 47.2 49.86 46.8 49.81 46.51 49.78 46.46 49.78 46.34 49.76 46.26 49.75 46.25 49.75 46.24 49.74 46.11 49.72 45.84 49.68 45.49 49.6 45.18 49.54 45.03 49.5 45.01 49.5 44.96 49.48 44.86 49.45 44.56 49.37 44.28 49.28 43.97 49.17 43.9 49.15 43.83 49.12 43.82 49.12 43.72 49.08 43.7 49.07 43.6 49.03 43.41 48.95 43.21 48.85 42.89 48.7 42.78 48.63 42.73 48.61 42.69 48.59 42.61 48.54 42.59 48.53 42.42 48.42 42.29 48.34 41.99 48.13 41.91 48.06 41.82 48 41.78 47.97 41.77 47.95 41.75 47.95 41.71 47.91 41.69 47.89 41.68 47.88 41.6 47.81 41.55 47.75 41.29 47.48 41.23 47.42 41.13 47.3 41.11 47.28 41.07 47.24 41.07 47.23 41.04 47.2 41.02 47.17 41.02 47.16 41 47.14 41 47.13 40.99 47.13 40.99 47.12 40.79 46.77 40.77 46.73 40.72 46.62 40.63 46.46 40.63 46.45 40.62 46.44 40.61 46.4 40.61 46.39 40.56 46.18 40.53 46.03 40.52 46.01 40.51 45.94 40.47 45.72 40.46 45.71 40.46 45.69 40.45 45.64 40.45 45.63 40.45 45.6 40.46 45.58 40.5 45.28 40.5 45.27 40.53 44.98 40.54 44.88 40.55 44.87 40.55 44.84 40.55 44.83 40.63 44.66 40.65 44.69 40.75 44.85 40.75 44.85 40.87 45.08 40.93 45.18 40.95 45.21 40.95 45.22 40.96 45.24 41.04 45.39 41.12 45.47 41.15 45.5 41.16 45.51 41.22 45.57 41.31 45.67 41.47 45.84 41.54 45.91 41.62 46 41.69 46.08 41.71 46.11 41.9 46.23 41.91 46.23 41.95 46.26 42.09 46.36 42.19 46.43 42.33 46.53 42.51 46.66 42.56 46.71 42.61 46.74 42.79 46.82 42.89 46.87 43.01 46.92 43.06 46.95"/><polygon class="cls-104" points="45.7 56.15 46.01 56.26 47.04 56.52 48.14 56.67 49.27 56.72 50.4 56.65 51.49 56.46 52.5 56.17 52.84 56.06 53.23 55.89 52.9 56.18 52.31 56.53 52.02 56.7 51.41 56.97 50.72 57.16 50.54 57.22 49.89 57.33 49.22 57.37 48.54 57.34 47.88 57.25 47.26 57.09 47.02 57.02 46.38 56.78 45.83 56.47 45.5 56.28 45 55.89 45 55.88 45.7 56.15"/><polygon class="cls-105" points="42.98 51.41 43.3 51.58 43.56 51.69 43.7 51.75 43.84 51.8 44.05 51.88 44.44 52.01 44.63 52.07 44.96 52.16 45.04 52.18 45.26 52.23 45.7 52.33 45.83 52.35 46.34 52.44 46.36 52.44 46.58 52.47 47.06 52.52 47.12 52.53 47.76 52.57 47.81 52.57 47.97 52.57 48.47 52.58 48.48 52.58 49.19 52.56 49.32 52.55 49.4 52.55 49.85 52.51 49.89 52.51 49.91 52.5 50.08 52.48 50.13 52.48 50.62 52.41 50.83 52.38 50.83 52.38 51.21 52.31 51.28 52.3 51.32 52.29 51.99 52.14 52.01 52.13 52.03 52.12 52.28 52.06 52.53 51.98 52.62 51.96 52.67 51.94 53.23 51.75 53.31 51.72 53.46 51.66 53.64 51.59 53.78 51.53 53.87 51.49 53.93 51.47 54.38 51.24 54.51 51.19 54.77 51.05 54.86 51 54.91 50.97 55 50.91 55.06 50.88 55.41 50.64 55.55 50.54 55.9 50.29 55.97 50.23 56.02 50.19 56.28 49.95 56.42 49.81 56.74 49.49 56.76 49.47 56.8 49.41 56.97 49.17 57.09 49 57.25 48.76 57.3 48.69 57.35 48.61 57.37 48.57 57.46 48.34 57.54 48.14 57.63 47.91 57.71 47.69 57.71 47.69 57.73 47.48 57.76 47.25 57.77 47.09 57.8 46.79 57.81 46.73 57.81 46.9 57.81 47.39 57.81 47.64 57.81 47.65 57.78 47.85 57.77 47.95 57.74 48.3 57.72 48.46 57.71 48.59 57.67 48.67 57.64 48.75 57.61 48.82 57.47 49.19 57.45 49.24 57.35 49.51 57.26 49.63 57.23 49.68 57.03 49.95 56.98 50.02 56.97 50.04 56.94 50.08 56.74 50.39 56.66 50.46 56.62 50.49 56.49 50.62 56.39 50.71 56.32 50.78 56.26 50.83 56.09 50.99 55.9 51.19 55.85 51.22 55.82 51.24 55.74 51.29 55.47 51.47 55.35 51.55 54.92 51.85 54.86 51.9 54.85 51.9 54.84 51.9 54.8 51.92 54.45 52.08 54.27 52.16 53.83 52.39 53.69 52.46 53.64 52.49 53.3 52.59 53.05 52.67 52.73 52.78 52.41 52.9 52.28 52.95 52.03 53 51.72 53.06 51.52 53.1 51.03 53.22 50.83 53.27 50.67 53.28 50.33 53.31 50.23 53.32 49.61 53.39 49.32 53.44 49.27 53.44 48.89 53.43 48.89 53.43 48.83 53.43 48.19 53.44 48.18 53.44 48.14 53.44 47.95 53.45 47.81 53.46 47.55 53.42 47.5 53.41 47.47 53.41 46.87 53.35 46.77 53.34 46.54 53.33 46.34 53.32 46.22 53.29 46.14 53.27 46.09 53.26 45.59 53.15 45.43 53.12 44.98 53.04 44.96 53.04 44.95 53.03 44.86 53 44.79 52.97 44.39 52.84 44.19 52.77 43.7 52.63 43.68 52.62 43.61 52.58 43.3 52.42 43.09 52.31 42.73 52.15 42.61 52.09 42.58 52.07 42.35 51.9 42.15 51.75 41.94 51.61 41.73 51.47 41.71 51.46 41.57 51.3 41.4 51.12 41.29 51 41.09 50.79 41.04 50.75 40.98 50.63 40.87 50.42 40.82 50.34 40.81 50.32 40.76 50.23 40.67 50.06 40.62 49.98 40.6 49.91 40.56 49.68 40.55 49.63 40.48 49.31 40.45 49.18 40.45 49.07 40.45 48.58 40.45 48.31 40.49 48.52 40.51 48.63 40.56 48.87 40.59 49 40.62 49.11 40.69 49.26 40.75 49.37 40.86 49.57 40.95 49.73 41.04 49.88 41.12 49.97 41.22 50.08 41.37 50.24 41.53 50.42 41.66 50.54 41.71 50.59 41.77 50.63 41.9 50.74 42.08 50.87 42.33 51.04 42.61 51.22 42.62 51.23 42.78 51.32 42.98 51.41"/><polygon class="cls-106" points="42.89 48.7 43.21 48.85 43.41 48.95 43.6 49.03 43.7 49.07 43.72 49.08 43.82 49.12 43.83 49.12 43.9 49.15 43.97 49.17 44.28 49.28 44.56 49.37 44.86 49.45 44.96 49.48 45.01 49.5 45.03 49.5 45.18 49.54 45.49 49.6 45.84 49.68 46.11 49.72 46.24 49.74 46.25 49.75 46.26 49.75 46.34 49.76 46.46 49.78 46.51 49.78 46.8 49.81 47.2 49.86 47.5 49.87 47.51 49.87 47.62 49.88 47.76 49.89 47.81 49.89 47.9 49.9 47.97 49.9 48.17 49.9 48.62 49.9 48.81 49.9 49.04 49.89 49.13 49.88 49.32 49.88 49.34 49.88 49.52 49.86 49.58 49.85 49.61 49.85 50.05 49.81 50.15 49.8 50.66 49.73 50.77 49.71 50.83 49.7 50.89 49.69 50.98 49.67 51.46 49.58 51.97 49.46 52.11 49.43 52.14 49.42 52.15 49.42 52.28 49.38 52.4 49.34 52.71 49.25 52.81 49.22 53.22 49.07 53.24 49.06 53.42 49 53.45 48.99 53.54 48.96 53.64 48.92 53.78 48.85 53.82 48.84 53.89 48.8 53.92 48.79 54.05 48.73 54.63 48.45 54.72 48.4 54.82 48.34 54.86 48.32 54.98 48.25 55.01 48.23 55.16 48.13 55.66 47.79 55.68 47.78 55.74 47.73 55.87 47.64 55.9 47.61 55.92 47.59 55.93 47.59 56.03 47.49 56.05 47.48 56.11 47.43 56.13 47.41 56.37 47.18 56.51 47.05 56.63 46.92 56.74 46.81 56.8 46.74 56.8 46.73 56.86 46.65 57.02 46.42 57.15 46.24 57.18 46.19 57.28 46.04 57.28 46.03 57.35 45.93 57.36 45.91 57.4 45.82 57.4 45.81 57.41 45.8 57.45 45.69 57.48 45.6 57.57 45.37 57.69 45.07 57.71 45.01 57.72 44.91 57.73 44.86 57.76 44.48 57.78 44.34 57.79 44.24 57.81 44.06 57.81 44.96 57.8 45.05 57.79 45.08 57.79 45.09 57.78 45.24 57.75 45.53 57.73 45.72 57.72 45.83 57.71 45.91 57.7 45.93 57.67 45.99 57.62 46.12 57.5 46.42 57.47 46.51 57.4 46.7 57.38 46.76 57.37 46.77 57.35 46.83 57.32 46.87 57.32 46.87 57.31 46.88 57.27 46.94 57.24 46.98 57.03 47.27 57.02 47.29 56.77 47.67 56.74 47.71 56.74 47.71 56.69 47.75 56.65 47.79 56.41 48.01 56.36 48.06 56.34 48.07 56.22 48.19 56 48.41 55.97 48.44 55.94 48.47 55.91 48.5 55.9 48.51 55.86 48.54 55.83 48.56 55.8 48.58 55.64 48.68 55.51 48.76 55.45 48.8 54.97 49.14 54.96 49.14 54.95 49.15 54.92 49.17 54.86 49.22 54.84 49.23 54.7 49.29 54.49 49.38 54.39 49.43 53.91 49.67 53.81 49.72 53.75 49.75 53.7 49.77 53.69 49.78 53.67 49.8 53.64 49.81 53.6 49.82 53.59 49.83 53.55 49.84 53.49 49.86 53.33 49.91 53.19 49.95 52.74 50.1 52.54 50.17 52.32 50.26 52.28 50.27 52.23 50.28 52.22 50.29 52.17 50.29 52.05 50.32 51.87 50.35 51.48 50.44 51.18 50.5 50.85 50.59 50.83 50.59 50.78 50.6 50.69 50.6 50.48 50.62 50.15 50.66 49.76 50.7 49.4 50.75 49.37 50.76 49.32 50.76 49.29 50.76 49.27 50.76 49.25 50.76 49.05 50.75 48.78 50.75 48.33 50.76 47.99 50.77 47.85 50.78 47.81 50.78 47.8 50.78 47.77 50.77 47.75 50.77 47.62 50.75 47.41 50.73 46.92 50.68 46.76 50.67 46.36 50.64 46.34 50.64 46.33 50.64 46.33 50.64 46.31 50.63 46.23 50.61 46.08 50.58 45.57 50.47 45.55 50.47 44.97 50.36 44.96 50.36 44.95 50.36 44.92 50.34 44.81 50.31 44.51 50.2 44.36 50.15 44.32 50.13 44.06 50.05 43.72 49.95 43.7 49.95 43.7 49.95 43.7 49.95 43.7 49.95 43.7 49.95 43.65 49.92 43.48 49.83 43.27 49.73 43.2 49.69 43.15 49.67 42.7 49.45 42.68 49.45 42.66 49.44 42.61 49.41 42.54 49.36 42.33 49.21 42.24 49.14 41.9 48.91 41.82 48.85 41.71 48.78 41.55 48.6 41.47 48.51 41.26 48.3 41.16 48.18 41.04 48.07 40.97 47.94 40.91 47.82 40.8 47.62 40.71 47.46 40.63 47.34 40.62 47.3 40.6 47.22 40.57 47.09 40.54 46.92 40.49 46.71 40.45 46.51 40.45 46.16 40.45 45.64 40.46 45.69 40.46 45.71 40.47 45.72 40.51 45.94 40.52 46.01 40.53 46.03 40.56 46.18 40.61 46.39 40.61 46.4 40.62 46.44 40.63 46.45 40.63 46.46 40.72 46.62 40.77 46.73 40.79 46.77 40.99 47.12 40.99 47.13 41 47.13 41 47.14 41.02 47.16 41.02 47.17 41.04 47.2 41.07 47.23 41.07 47.24 41.11 47.28 41.13 47.3 41.23 47.42 41.29 47.48 41.55 47.75 41.6 47.81 41.68 47.88 41.69 47.89 41.71 47.91 41.75 47.95 41.77 47.95 41.78 47.97 41.82 48 41.91 48.06 41.99 48.13 42.29 48.34 42.42 48.42 42.59 48.53 42.61 48.54 42.69 48.59 42.73 48.61 42.78 48.63 42.89 48.7"/><polygon class="cls-107" points="42.99 45.99 43.15 46.09 43.31 46.17 43.7 46.36 43.78 46.4 44.21 46.58 44.49 46.7 44.59 46.73 44.96 46.84 45.22 46.94 45.53 47.02 46 47.14 46.02 47.14 46.34 47.19 46.73 47.28 46.8 47.29 47.18 47.34 47.63 47.4 47.81 47.4 48.3 47.45 48.48 47.47 48.75 47.47 49.32 47.47 49.9 47.45 50.17 47.44 50.34 47.42 50.83 47.36 51.01 47.35 51.45 47.29 51.83 47.23 51.9 47.21 52.28 47.11 52.59 47.06 52.62 47.05 53.07 46.92 53.38 46.83 53.64 46.73 53.99 46.61 54.09 46.57 54.36 46.45 54.78 46.26 54.86 46.21 55.22 46.02 55.38 45.93 55.39 45.93 55.53 45.83 55.9 45.58 55.95 45.55 56.24 45.31 56.3 45.26 56.33 45.24 56.35 45.22 56.35 45.22 56.38 45.19 56.44 45.15 56.45 45.14 56.68 44.95 56.87 44.79 56.96 44.7 56.85 44.86 56.8 44.93 56.74 45.03 56.72 45.05 56.53 45.22 56.51 45.24 56.46 45.29 56.43 45.32 56.4 45.34 56.23 45.51 56.05 45.68 56.03 45.7 55.99 45.74 55.95 45.78 55.9 45.84 55.77 45.92 55.63 46 55.56 46.05 55.56 46.05 55.41 46.15 55.2 46.3 55.17 46.31 55.06 46.39 54.88 46.53 54.86 46.54 54.83 46.55 54.79 46.57 54.52 46.69 54.29 46.8 54.05 46.92 53.96 46.96 53.94 46.98 53.64 47.14 53.41 47.2 53.32 47.23 53.13 47.29 52.73 47.43 52.68 47.45 52.56 47.49 52.28 47.6 52.02 47.64 51.95 47.66 51.88 47.67 51.56 47.74 51.33 47.79 50.98 47.88 50.98 47.88 50.83 47.92 50.63 47.93 50.42 47.95 50.41 47.95 50.04 47.99 49.91 48 49.81 48.02 49.77 48.02 49.32 48.08 49.2 48.08 49.05 48.08 48.85 48.08 48.62 48.08 48.56 48.07 48.5 48.07 48.48 48.07 48.4 48.08 48.21 48.08 47.81 48.1 47.76 48.09 47.67 48.08 47.66 48.08 47.42 48.05 47.3 48.04 47.15 48.02 47.06 48.01 47 48.01 46.65 47.98 46.53 47.98 46.37 47.96 46.34 47.96 46.32 47.96 46.21 47.93 46.09 47.91 46.07 47.9 45.85 47.85 45.71 47.82 45.7 47.82 45.16 47.72 45.16 47.72 45.05 47.7 44.96 47.68 44.67 47.58 44.62 47.56 44.44 47.5 44.3 47.45 44.09 47.39 44.06 47.38 43.85 47.31 43.76 47.29 43.7 47.27 43.5 47.16 43.41 47.12 43.31 47.06 43.06 46.95 43.01 46.92 42.89 46.87 42.79 46.82 42.61 46.74 42.56 46.71 42.51 46.66 42.33 46.53 42.19 46.43 42.09 46.36 41.95 46.26 41.91 46.23 41.9 46.23 41.71 46.11 41.69 46.08 41.62 46 41.54 45.91 41.47 45.84 41.31 45.67 41.22 45.57 41.16 45.51 41.15 45.5 41.12 45.47 41.04 45.39 40.96 45.24 40.95 45.22 40.95 45.21 40.93 45.18 40.87 45.08 40.75 44.85 40.75 44.85 40.65 44.69 40.63 44.66 40.62 44.63 40.59 44.49 40.59 44.47 40.58 44.44 40.57 44.38 40.52 44.15 40.51 44.11 40.51 44.11 40.49 44.01 40.48 43.98 40.45 43.83 40.45 43.76 40.49 43.82 40.91 44.3 41.13 44.55 41.61 44.99 42.04 45.34 42.24 45.49 42.55 45.72 42.61 45.75 42.99 45.99"/><polygon class="cls-108" points="42.24 45.49 42.04 45.34 41.61 44.99 41.13 44.55 40.91 44.3 40.49 43.82 40.45 43.76 40.37 43.65 40.03 43.14 39.96 43 39.71 42.47 39.67 42.37 39.51 41.82 39.47 41.65 39.44 41.5 39.38 40.95 39.34 40.52 39.37 39.96 39.43 38.71 39.45 38.35 39.46 38.34 39.46 38.11 39.46 38.07 39.41 37.82 39.29 37.55 39.12 37.25 38.16 35.99 35.34 32.62 34.11 30.93 33.54 30.06 32.4 28.16 31.94 27.2 31.13 25.43 30.67 23.97 30.35 22.91 30.1 21.61 29.97 20.52 29.89 19.41 29.96 18.01 30.01 16.92 30.24 15.55 30.47 14.48 30.85 13.16 31.26 12.13 31.79 10.9 32.34 9.93 33 8.79 33.81 7.72 34.46 6.87 35.53 5.78 36.27 5.03 37.13 4.32 38.24 3.49 39.13 2.9 39.8 2.51 40.72 2 41.72 1.55 42.28 1.31 43.27 0.95 44.31 0.65 44.92 0.51 45.88 0.3 46.87 0.14 47.87 0.04 48.9 0 49.92 0.02 50.93 0.09 51.93 0.22 52.9 0.41 53.45 0.53 54.52 0.8 55.53 1.14 56.49 1.53 57.09 1.79 58.05 2.27 58.69 2.64 59.63 3.21 60.46 3.83 61.6 4.7 62.4 5.43 63.45 6.49 64.17 7.33 64.96 8.37 65.56 9.29 66.24 10.45 66.7 11.44 67.24 12.69 67.55 13.73 67.94 15.06 68.17 16.42 68.3 17.51 68.37 18.91 68.32 20.01 68.24 21.11 67.99 22.42 67.76 23.49 67.29 24.96 66.89 25.98 66.09 27.73 65.55 28.68 64.43 30.54 63.18 32.25 62.58 33.04 59.87 36.28 59.12 37.25 58.99 37.48 58.88 37.75 58.82 37.94 58.8 38.03 58.81 38.41 58.85 39.01 58.92 40.26 58.89 40.82 58.86 41.25 58.83 41.39 58.71 41.94 58.67 42.12 58.63 42.23 58.42 42.76 58.35 42.91 58.05 43.42 57.93 43.59 57.81 43.75 57.81 43.75 57.55 44.09 57.32 44.34 56.96 44.7 56.87 44.79 56.68 44.95 56.43 45.15 56.38 45.19 56.35 45.22 56.35 45.22 56.35 45.22 56.33 45.24 56.3 45.26 56.24 45.31 55.95 45.55 55.9 45.58 55.53 45.83 55.39 45.93 55.38 45.93 55.22 46.02 54.86 46.21 54.78 46.26 54.36 46.45 54.09 46.57 53.99 46.61 53.64 46.73 53.38 46.83 53.07 46.92 52.62 47.05 52.59 47.06 52.28 47.11 51.9 47.21 51.83 47.23 51.45 47.29 51.01 47.35 50.83 47.36 50.34 47.42 50.17 47.44 49.9 47.45 49.32 47.47 48.75 47.47 48.48 47.47 48.3 47.45 47.81 47.4 47.63 47.4 47.18 47.34 46.8 47.29 46.73 47.28 46.34 47.19 46.02 47.14 46 47.14 45.53 47.02 45.22 46.94 44.96 46.84 44.59 46.73 44.49 46.7 44.21 46.58 43.78 46.4 43.7 46.36 43.31 46.17 43.15 46.09 42.99 45.99 42.61 45.75 42.55 45.72 42.24 45.49"/><g class="cls-109"><ellipse class="cls-110" cx="46.1" cy="17.5" rx="14.57" ry="14.63"/></g><g class="cls-111"><path class="cls-112" d="M48.87,47.22h0A1.88,1.88,0,0,1,47,45.34V31.67a1.88,1.88,0,0,1,1.87-1.88h0a1.88,1.88,0,0,1,1.88,1.88V45.34A1.88,1.88,0,0,1,48.87,47.22Z"/></g><path class="cls-113" d="M54.93,19.49c-.25-.17-.46,0-.47.27s0,.34,0,.51a.72.72,0,0,1-.77-.05h0a3.29,3.29,0,0,1-1.13-1.72c0-.12-.13-.2-.2-.18s0,.05-.06.1a.75.75,0,0,1-1.1.28A3.23,3.23,0,0,1,50,17c-.05-.12-.13-.2-.2-.18s0,.05-.06.1a.75.75,0,0,1-1.1.28,3.32,3.32,0,0,1-1.13-1.73c0-.11-.13-.19-.2-.17s-.05.05-.06.1a.75.75,0,0,1-1.1.28h0a3.3,3.3,0,0,1-1.12-1.72c0-.12-.13-.2-.2-.18a.11.11,0,0,0-.06.11.76.76,0,0,1-1.1.28,2.34,2.34,0,0,1-.76-.9c0-.18,0-.36,0-.55a1.07,1.07,0,0,0-.47-.85c-.25-.13-.44,0-.42.37.17,4.19,1.75,7.27,3.27,10.24a32.54,32.54,0,0,1,3,7.31v0l.06.17,0,0c0,.05,0,.09.07.14l0,0a.48.48,0,0,0,.09.11v0a.75.75,0,0,0,.14.12h0a.3.3,0,0,0,.14.05h.12L49,30.4l0,0,.06-.1h0a7,7,0,0,1,3-3.66c1.52-1.11,3.1-2.26,3.27-6.24A1.07,1.07,0,0,0,54.93,19.49Zm-3.49,5.89a7.84,7.84,0,0,0-2.76,3A39.35,39.35,0,0,0,45.91,22c-1.38-2.69-2.58-5-2.93-8.18a2.63,2.63,0,0,0,.7.71h0a.89.89,0,0,0,1.25-.19,3.55,3.55,0,0,0,1.23,1.71h0a.9.9,0,0,0,1.25-.2,3.5,3.5,0,0,0,1.24,1.71h0a.9.9,0,0,0,1.25-.2,3.65,3.65,0,0,0,1.24,1.72h0a.89.89,0,0,0,1.24-.2,3.59,3.59,0,0,0,1.24,1.72h0a1,1,0,0,0,.71.15A5.79,5.79,0,0,1,51.44,25.38Z"/></g></g></svg>