<svg id="Layer_1" data-name="Layer 1" xmlns="http://www.w3.org/2000/svg" xmlns:xlink="http://www.w3.org/1999/xlink" viewBox="0 0 476.71 379.18"><defs><style>.cls-1{opacity:0.4;}.cls-2,.cls-3,.cls-4{fill:#fff;}.cls-3{opacity:0.2;}.cls-24,.cls-27,.cls-3,.cls-4{isolation:isolate;}.cls-27,.cls-4{opacity:0.5;}.cls-5{fill:#cfcfcf;}.cls-6{fill:url(#radial-gradient);}.cls-7{fill:url(#linear-gradient);}.cls-8{fill:url(#radial-gradient-2);}.cls-9{fill:url(#radial-gradient-3);}.cls-10{fill:url(#linear-gradient-2);}.cls-11{fill:url(#radial-gradient-4);}.cls-12{fill:url(#radial-gradient-5);}.cls-13{fill:url(#linear-gradient-3);}.cls-14{fill:url(#radial-gradient-6);}.cls-15{fill:url(#radial-gradient-7);}.cls-16{fill:url(#linear-gradient-4);}.cls-17{fill:url(#radial-gradient-8);}.cls-18{fill:url(#radial-gradient-9);}.cls-19{fill:url(#linear-gradient-5);}.cls-20{fill:#9b9b9b;}.cls-21{fill:url(#linear-gradient-6);}.cls-22,.cls-27{fill:#121212;}.cls-23{fill:#686868;}.cls-24{opacity:0.3;}.cls-25{fill:#f1f1f1;}.cls-26{fill:#767676;}.cls-28{fill:url(#radial-gradient-10);}.cls-29{fill:url(#linear-gradient-8);}.cls-30{fill:url(#radial-gradient-11);}.cls-31{fill:url(#linear-gradient-9);}.cls-32{fill:url(#radial-gradient-12);}.cls-33{fill:url(#linear-gradient-10);}</style><radialGradient id="radial-gradient" cx="142.33" cy="133.12" r="39.73" gradientTransform="translate(-32.38 174.72)" gradientUnits="userSpaceOnUse"><stop offset="0" stop-color="#343434"/><stop offset="1" stop-color="#121212"/></radialGradient><linearGradient id="linear-gradient" x1="118.2" y1="118.71" x2="188.51" y2="118.71" gradientTransform="translate(-32.38 174.72)" gradientUnits="userSpaceOnUse"><stop offset="0" stop-color="#f1f1f1"/><stop offset="0.24" stop-color="#f0f0f0"/><stop offset="0.46" stop-color="#ebebeb"/><stop offset="0.67" stop-color="#e1e1e1"/><stop offset="0.88" stop-color="#d0d0d0"/><stop offset="1" stop-color="#c4c4c4"/></linearGradient><radialGradient id="radial-gradient-2" cx="85.22" cy="92.01" r="71.82" gradientTransform="translate(-32.38 174.72)" gradientUnits="userSpaceOnUse"><stop offset="0" stop-color="#a7a7a7"/><stop offset="0.27" stop-color="#9f9f9f"/><stop offset="0.64" stop-color="#898989"/><stop offset="1" stop-color="#686868"/></radialGradient><radialGradient id="radial-gradient-3" cx="440.82" cy="207.34" r="39.73" gradientTransform="matrix(1, 0, 0, -1, -32.38, 472.72)" xlink:href="#radial-gradient"/><linearGradient id="linear-gradient-2" x1="416.68" y1="-47.08" x2="486.98" y2="-47.08" xlink:href="#linear-gradient"/><radialGradient id="radial-gradient-4" cx="383.69" cy="166.22" r="71.82" gradientTransform="matrix(1, 0, 0, -1, -32.38, 472.72)" xlink:href="#radial-gradient-2"/><radialGradient id="radial-gradient-5" cx="440.82" cy="373.12" r="39.73" gradientTransform="matrix(1, 0, 0, -1, -32.38, 472.72)" xlink:href="#radial-gradient"/><linearGradient id="linear-gradient-3" x1="416.68" y1="118.71" x2="486.98" y2="118.71" xlink:href="#linear-gradient"/><radialGradient id="radial-gradient-6" cx="383.69" cy="332.01" r="71.82" gradientTransform="matrix(1, 0, 0, -1, -32.38, 472.72)" xlink:href="#radial-gradient-2"/><radialGradient id="radial-gradient-7" cx="142.33" cy="207.34" r="39.73" gradientTransform="matrix(1, 0, 0, -1, -32.38, 472.72)" xlink:href="#radial-gradient"/><linearGradient id="linear-gradient-4" x1="118.2" y1="-47.08" x2="188.51" y2="-47.08" xlink:href="#linear-gradient"/><radialGradient id="radial-gradient-8" cx="85.22" cy="166.22" r="71.82" gradientTransform="matrix(1, 0, 0, -1, -32.38, 472.72)" xlink:href="#radial-gradient-2"/><radialGradient id="radial-gradient-9" cx="434.92" cy="2.23" r="142.96" gradientTransform="translate(-169.25 201.93)" gradientUnits="userSpaceOnUse"><stop offset="0" stop-color="#686868"/><stop offset="1" stop-color="#343434"/></radialGradient><linearGradient id="linear-gradient-5" x1="389.97" y1="-99.19" x2="523.26" y2="-17.98" gradientTransform="translate(-169.25 201.93)" xlink:href="#linear-gradient"/><linearGradient id="linear-gradient-6" x1="79.02" y1="1208.02" x2="157.36" y2="1190.27" gradientTransform="matrix(0.87, 0.5, 0, 1.15, 149.42, -1207.99)" gradientUnits="userSpaceOnUse"><stop offset="0" stop-color="#373737"/><stop offset="1" stop-color="#505050"/></linearGradient><radialGradient id="radial-gradient-10" cx="419" cy="171.8" r="51.47" gradientTransform="translate(-169.25 201.93)" xlink:href="#radial-gradient-2"/><linearGradient id="linear-gradient-8" x1="428.71" y1="155.29" x2="509.35" y2="203.36" gradientTransform="translate(-169.25 201.93)" gradientUnits="userSpaceOnUse"><stop offset="0" stop-color="#f1f1f1"/><stop offset="0.2" stop-color="#f0f0f0"/><stop offset="0.39" stop-color="#ebebeb"/><stop offset="0.57" stop-color="#e1e1e1"/><stop offset="0.74" stop-color="#d0d0d0"/><stop offset="0.84" stop-color="#c4c4c4"/></linearGradient><radialGradient id="radial-gradient-11" cx="568.25" cy="68.05" r="51.47" gradientTransform="translate(-169.25 201.93)" xlink:href="#radial-gradient-2"/><linearGradient id="linear-gradient-9" x1="577.96" y1="51.55" x2="658.59" y2="99.62" xlink:href="#linear-gradient-8"/><radialGradient id="radial-gradient-12" cx="269.76" cy="68.05" r="51.47" gradientTransform="translate(-169.25 201.93)" xlink:href="#radial-gradient-2"/><linearGradient id="linear-gradient-10" x1="279.49" y1="51.54" x2="360.12" y2="99.61" xlink:href="#linear-gradient-8"/></defs><g class="cls-1"><path class="cls-2" d="M472.18,172.08l-36.92-21.32,36.92-21.31.32.19,36.58,21.12Zm-34.34-21.32,34.34,19.81,34.22-19.81-34.22-19.84Z" transform="translate(-32.38 -67.28)"/><path class="cls-2" d="M400.92,172.08,364,150.76l36.91-21.31,36.92,21.31Zm-34.3-21.32,34.3,19.81,34.31-19.81-34.31-19.84Z" transform="translate(-32.38 -67.28)"/><path class="cls-2" d="M436.54,192.64l-.34-.19-36.58-21.13L436.55,150l36.91,21.31Zm-34.31-21.32,34.31,19.78,34.3-19.81-34.3-19.81Z" transform="translate(-32.38 -67.28)"/><path class="cls-2" d="M472.18,213.2l-.33-.19-36.58-21.12,36.91-21.32.32.18,36.58,21.14Zm-34.34-21.31,34.34,19.8,34.22-19.8-34.22-19.81Z" transform="translate(-32.38 -67.28)"/><path class="cls-2" d="M329.71,172.08l-.33-.19L292.8,150.76l36.92-21.31.32.19,36.58,21.12ZM295.4,150.76l34.31,19.81L364,150.76l-34.3-19.84Z" transform="translate(-32.38 -67.28)"/><path class="cls-2" d="M365.32,192.64,328.4,171.32,365.32,150l36.91,21.31ZM331,171.32l34.3,19.78,34.29-19.81L365.3,151.48Z" transform="translate(-32.38 -67.28)"/><path class="cls-2" d="M400.92,213.2l-.32-.19L364,191.89l36.91-21.32.33.18,36.58,21.14Zm-34.3-21.31,34.3,19.8,34.31-19.8-34.31-19.81Z" transform="translate(-32.38 -67.28)"/><path class="cls-2" d="M436.54,233.76l-.34-.19-36.58-21.13,36.92-21.34.33.19,36.58,21.12Zm-34.31-21.32,34.31,19.81,34.3-19.81-34.3-19.8Z" transform="translate(-32.38 -67.28)"/><path class="cls-2" d="M472.18,254.31l-.33-.19L435.27,233l36.91-21.31L509.09,233ZM437.84,233l34.34,19.8L506.4,233l-34.22-19.8Z" transform="translate(-32.38 -67.28)"/><path class="cls-2" d="M258.48,172.08l-.32-.19-36.58-21.13,36.9-21.31.33.19,36.58,21.12Zm-34.3-21.32,34.3,19.81,34.34-19.81-34.34-19.84Z" transform="translate(-32.38 -67.28)"/><path class="cls-2" d="M294.09,192.63l-.31-.19-36.59-21.12L294.11,150l.33.19L331,171.32Zm-34.31-21.31,34.31,19.78,34.31-19.8-34.31-19.8Z" transform="translate(-32.38 -67.28)"/><path class="cls-2" d="M329.71,213.2l-.33-.19L292.8,191.88l36.92-21.31,36.91,21.32ZM295.4,191.88l34.31,19.81,34.3-19.8-34.3-19.81Z" transform="translate(-32.38 -67.28)"/><path class="cls-2" d="M365.32,233.76,328.4,212.44l36.92-21.34.32.19,36.58,21.12ZM331,212.44l34.3,19.81,34.3-19.81-34.3-19.8Z" transform="translate(-32.38 -67.28)"/><path class="cls-2" d="M400.92,254.31l-.32-.19L364,233l36.91-21.31.33.19L437.84,233ZM366.62,233l34.3,19.8L435.23,233l-34.31-19.8Z" transform="translate(-32.38 -67.28)"/><path class="cls-2" d="M436.54,274.88l-.32-.19-36.58-21.13,36.91-21.31.33.18,36.58,21.13Zm-34.31-21.32,34.31,19.81,34.3-19.81-34.3-19.8Z" transform="translate(-32.38 -67.28)"/><path class="cls-2" d="M472.18,295.44l-.33-.19-36.58-21.13,36.91-21.32.32.19,36.58,21.13Zm-34.34-21.32,34.34,19.81,34.22-19.81-34.22-19.81Z" transform="translate(-32.38 -67.28)"/><path class="cls-2" d="M187.27,172.08l-.33-.19-36.58-21.13,36.92-21.31.32.19,36.58,21.12ZM153,150.76l34.31,19.81,34.3-19.81-34.3-19.84Z" transform="translate(-32.38 -67.28)"/><path class="cls-2" d="M222.88,192.63,186,171.32,222.88,150l.32.19,36.58,21.12Zm-34.3-21.31,34.3,19.78,34.3-19.8-34.3-19.8Z" transform="translate(-32.38 -67.28)"/><path class="cls-2" d="M258.49,213.2l-.33-.19-36.58-21.13,36.9-21.31.33.18,36.58,21.13Zm-34.31-21.32,34.31,19.81,34.33-19.81-34.34-19.8Z" transform="translate(-32.38 -67.28)"/><path class="cls-2" d="M294.09,233.76l-.31-.19-36.59-21.13,36.9-21.34.33.2L331,212.42Zm-34.31-21.32,34.3,19.81,34.31-19.81-34.3-19.81Z" transform="translate(-32.38 -67.28)"/><path class="cls-2" d="M329.71,254.31,292.82,233l36.91-21.31L366.64,233ZM295.4,233l34.31,19.8L364,233l-34.3-19.8Z" transform="translate(-32.38 -67.28)"/><path class="cls-2" d="M365.32,274.88l-.33-.19-36.58-21.13,36.92-21.31.32.18,36.58,21.13ZM331,253.56l34.3,19.81,34.3-19.81-34.3-19.8Z" transform="translate(-32.38 -67.28)"/><path class="cls-2" d="M400.92,295.44,364,274.12l36.91-21.32.33.19,36.58,21.13Zm-34.3-21.32,34.3,19.81,34.31-19.81-34.31-19.81Z" transform="translate(-32.38 -67.28)"/><path class="cls-2" d="M436.54,316l-.32-.19-36.58-21.12,36.91-21.31.33.19,36.58,21.12Zm-34.31-21.31,34.31,19.8,34.3-19.8-34.3-19.8Z" transform="translate(-32.38 -67.28)"/><path class="cls-2" d="M472.18,336.56l-.33-.19-36.58-21.13,36.91-21.31.33.18,36.58,21.13Zm-34.34-21.32,34.34,19.82,34.22-19.82-34.22-19.8Z" transform="translate(-32.38 -67.28)"/><path class="cls-2" d="M116.05,172.08l-.33-.19L79.14,150.76l36.91-21.31.33.19L153,150.76ZM81.74,150.76l34.31,19.81,34.29-19.81L116,130.92Z" transform="translate(-32.38 -67.28)"/><path class="cls-2" d="M151.65,192.63l-.32-.19-36.58-21.12L151.67,150l.33.19,36.58,21.12Zm-34.3-21.31,34.3,19.78L186,171.3l-34.31-19.8Z" transform="translate(-32.38 -67.28)"/><path class="cls-2" d="M187.27,213.2l-.33-.19-36.58-21.13,36.91-21.31,36.91,21.31ZM153,191.88l34.31,19.81,34.3-19.81-34.3-19.8Z" transform="translate(-32.38 -67.28)"/><path class="cls-2" d="M222.88,233.76,186,212.44l36.92-21.34.32.2,36.58,21.12Zm-34.3-21.32,34.3,19.81,34.3-19.81-34.3-19.81Z" transform="translate(-32.38 -67.28)"/><path class="cls-2" d="M258.49,254.31l-.33-.19L221.58,233l36.92-21.31.32.19L295.4,233ZM224.19,233l34.3,19.8L292.82,233l-34.3-19.8Z" transform="translate(-32.38 -67.28)"/><path class="cls-2" d="M294.09,274.88l-36.91-21.32,36.91-21.31L331,253.56Zm-34.31-21.32,34.3,19.81,34.31-19.81-34.31-19.8Z" transform="translate(-32.38 -67.28)"/><path class="cls-2" d="M329.71,295.44l-.33-.19L292.8,274.12l36.91-21.32.33.19,36.58,21.13ZM295.4,274.12l34.31,19.81L364,274.12l-34.3-19.81Z" transform="translate(-32.38 -67.28)"/><path class="cls-2" d="M365.32,316l-.33-.19-36.58-21.12,36.92-21.31,36.91,21.31ZM331,294.68l34.3,19.8,34.3-19.8-34.3-19.8Z" transform="translate(-32.38 -67.28)"/><path class="cls-2" d="M400.93,336.56,364,315.24l36.91-21.31.33.18,36.58,21.13Zm-34.3-21.32,34.3,19.82,34.31-19.81-34.32-19.8Z" transform="translate(-32.38 -67.28)"/><path class="cls-2" d="M436.54,357.12l-.32-.19L399.64,335.8l36.91-21.32.33.19,36.58,21.13ZM402.23,335.8l34.31,19.81,34.3-19.81L436.54,316Z" transform="translate(-32.38 -67.28)"/><path class="cls-2" d="M472.18,377.67l-.31-.19-36.59-21.12,36.9-21.3.33.19,36.58,21.12Zm-34.34-21.31,34.34,19.8,34.22-19.8-34.22-19.8Z" transform="translate(-32.38 -67.28)"/><path class="cls-2" d="M116.05,213.2l-.33-.19L79.14,191.88l36.91-21.31.32.18L153,191.88Zm-34.3-21.32,34.3,19.81,34.31-19.81-34.31-19.8Z" transform="translate(-32.38 -67.28)"/><path class="cls-2" d="M151.65,233.76l-.32-.19-36.58-21.13,36.9-21.34.33.19,36.58,21.13Zm-34.3-21.32,34.3,19.81L186,212.44l-34.31-19.81Z" transform="translate(-32.38 -67.28)"/><path class="cls-2" d="M187.27,254.31l-.32-.19L150.37,233l36.91-21.31L224.2,233ZM153,233l34.31,19.8,34.3-19.8-34.3-19.8Z" transform="translate(-32.38 -67.28)"/><path class="cls-2" d="M222.88,274.88l-.33-.19L186,253.57l36.92-21.31.32.19,36.58,21.12Zm-34.3-21.31,34.3,19.81,34.3-19.81-34.3-19.8Z" transform="translate(-32.38 -67.28)"/><path class="cls-2" d="M258.49,295.44l-36.92-21.32,36.92-21.32,36.91,21.32Zm-34.3-21.32,34.3,19.81,34.33-19.81-34.3-19.81Z" transform="translate(-32.38 -67.28)"/><path class="cls-2" d="M294.09,316l-36.91-21.31,36.91-21.31.33.19L331,294.68Zm-34.31-21.31,34.3,19.8,34.31-19.8-34.3-19.8Z" transform="translate(-32.38 -67.28)"/><path class="cls-2" d="M329.71,336.55l-.32-.19-36.58-21.12,36.91-21.31.33.18,36.58,21.13ZM295.4,315.24l34.31,19.82,34.3-19.8-34.3-19.8Z" transform="translate(-32.38 -67.28)"/><path class="cls-2" d="M365.32,357.12l-.33-.19-36.58-21.14,36.92-21.31,36.91,21.32ZM331,335.79l34.3,19.82,34.3-19.81L365.32,316Z" transform="translate(-32.38 -67.28)"/><path class="cls-2" d="M400.93,377.67l-.33-.19L364,356.36l36.91-21.3.32.19,36.58,21.12Zm-34.3-21.31,34.3,19.8,34.31-19.8-34.31-19.8Z" transform="translate(-32.38 -67.28)"/><path class="cls-2" d="M436.54,398.23l-36.92-21.31,36.92-21.31.33.18,36.58,21.13Zm-34.31-21.31,34.31,19.8,34.3-19.8-34.3-19.8Z" transform="translate(-32.38 -67.28)"/><path class="cls-2" d="M472.18,418.84l-.31-.19-36.59-21.13,36.9-21.36.33.19,36.58,21.12Zm-34.34-21.37,34.34,19.82,34.22-19.82-34.22-19.8Z" transform="translate(-32.38 -67.28)"/><path class="cls-2" d="M116.05,254.31,79.13,233l36.92-21.31.32.19L153,233ZM81.75,233l34.3,19.8L150.36,233l-34.31-19.8Z" transform="translate(-32.38 -67.28)"/><path class="cls-2" d="M151.65,274.88l-.32-.19-36.58-21.12,36.92-21.31.33.19,36.58,21.12Zm-34.3-21.32,34.3,19.81L186,253.56l-34.31-19.8Z" transform="translate(-32.38 -67.28)"/><path class="cls-2" d="M187.27,295.44l-.32-.19-36.58-21.13,36.91-21.32.33.19,36.58,21.13ZM153,274.12l34.31,19.81,34.3-19.81-34.3-19.81Z" transform="translate(-32.38 -67.28)"/><path class="cls-2" d="M222.88,316l-.33-.19L186,294.68l36.91-21.31,36.9,21.31Zm-34.3-21.31,34.3,19.8,34.3-19.8-34.3-19.8Z" transform="translate(-32.38 -67.28)"/><path class="cls-2" d="M258.49,336.55l-36.92-21.31,36.92-21.31,36.91,21.31Zm-34.3-21.31,34.3,19.82,34.33-19.82-34.3-19.8Z" transform="translate(-32.38 -67.28)"/><path class="cls-2" d="M294.09,357.12l-36.91-21.33,36.91-21.31.33.19L331,335.79Zm-34.31-21.33,34.3,19.82,34.31-19.82L294.08,316Z" transform="translate(-32.38 -67.28)"/><path class="cls-2" d="M329.71,377.67l-.31-.13-36.58-21.12,36.89-21.36.33.2,36.58,21.12ZM295.4,356.36l34.31,19.8,34.3-19.8-34.3-19.81Z" transform="translate(-32.38 -67.28)"/><path class="cls-2" d="M365.32,398.23,365,398l-36.58-21.12,36.91-21.31.33.18,36.58,21.13ZM331,376.92l34.3,19.8,34.3-19.8-34.3-19.8Z" transform="translate(-32.38 -67.28)"/><path class="cls-2" d="M400.93,418.84l-.33-.19L364,397.52l37-21.31,36.91,21.31Zm-34.3-21.32,34.3,19.81,34.31-19.81-34.31-19.8Z" transform="translate(-32.38 -67.28)"/><path class="cls-2" d="M116.05,295.44,79.13,274.11l36.92-21.31.32.19L153,274.12Zm-34.3-21.33,34.3,19.82,34.31-19.81-34.31-19.81Z" transform="translate(-32.38 -67.28)"/><path class="cls-2" d="M151.67,316l-.34-.19-36.58-21.12,36.92-21.31.33.19,36.58,21.12Zm-34.31-21.31,34.31,19.8,34.3-19.8-34.32-19.8Z" transform="translate(-32.38 -67.28)"/><path class="cls-2" d="M187.27,336.55l-.32-.19-36.58-21.12,36.91-21.31.33.18,36.58,21.13ZM153,315.24l34.31,19.82,34.3-19.8-34.3-19.8Z" transform="translate(-32.38 -67.28)"/><path class="cls-2" d="M222.88,357.12,186,335.79l36.91-21.31,36.9,21.31Zm-34.3-21.33,34.3,19.82,34.3-19.82L222.88,316Z" transform="translate(-32.38 -67.28)"/><path class="cls-2" d="M258.49,377.67l-.33-.19-36.58-21.12,36.91-21.3,36.91,21.32Zm-34.3-21.31,34.3,19.8,34.33-19.8-34.3-19.81Z" transform="translate(-32.38 -67.28)"/><path class="cls-2" d="M294.11,398.23l-36.93-21.31,36.91-21.31.33.18L331,376.92Zm-34.33-21.31,34.3,19.8,34.31-19.8-34.32-19.8Z" transform="translate(-32.38 -67.28)"/><path class="cls-2" d="M329.71,418.84l-.32-.19-36.58-21.13,36.91-21.31.33.19,36.58,21.12ZM295.4,397.52l34.31,19.81L364,397.52l-34.3-19.8Z" transform="translate(-32.38 -67.28)"/><path class="cls-2" d="M116.05,336.55l-.33-.19L79.14,315.24l36.92-21.31.32.18L153,315.24Zm-34.3-21.31,34.3,19.82,34.31-19.8-34.31-19.82Z" transform="translate(-32.38 -67.28)"/><path class="cls-2" d="M151.67,357.12l-36.93-21.33,36.93-21.31.31.19,36.58,21.12Zm-34.31-21.33,34.31,19.82L186,335.79,151.67,316Z" transform="translate(-32.38 -67.28)"/><path class="cls-2" d="M187.27,377.67l-.32-.19-36.58-21.12,36.9-21.3,36.92,21.32ZM153,356.36l34.31,19.8,34.3-19.8-34.3-19.81Z" transform="translate(-32.38 -67.28)"/><path class="cls-2" d="M222.88,398.23,186,376.92l36.91-21.31.33.18,36.58,21.13Zm-34.3-21.31,34.3,19.8,34.3-19.8-34.3-19.8Z" transform="translate(-32.38 -67.28)"/><path class="cls-2" d="M258.49,418.84l-.33-.19-36.58-21.12,36.92-21.31,36.92,21.31Zm-34.3-21.31,34.3,19.81,34.33-19.87-34.3-19.8Z" transform="translate(-32.38 -67.28)"/><path class="cls-2" d="M116.05,377.67l-.33-.19L79.14,356.36l36.91-21.3,37,21.32Zm-34.3-21.31,34.3,19.8,34.31-19.8-34.31-19.81Z" transform="translate(-32.38 -67.28)"/><path class="cls-2" d="M151.67,398.23l-.34-.19-36.58-21.12,36.93-21.31.32.18,36.58,21.13Zm-34.31-21.31,34.31,19.8,34.3-19.8-34.3-19.8Z" transform="translate(-32.38 -67.28)"/><path class="cls-2" d="M187.27,418.84l-36.91-21.31,36.91-21.31,36.92,21.31ZM153,397.53l34.3,19.81,34.3-19.81-34.3-19.8Z" transform="translate(-32.38 -67.28)"/><path class="cls-2" d="M116.05,418.84l-.33-.19L79.14,397.53l36.91-21.31.33.19L153,397.53Zm-34.3-21.31,34.3,19.8,34.31-19.8-34.31-19.86Z" transform="translate(-32.38 -67.28)"/></g><path class="cls-2" d="M79.48,308.57a13,13,0,0,0-2,1.47c-.29-9.05-6.82-12.65-14.87-8-6.55,3.79-12.11,11.9-14.1,19.83A9,9,0,0,0,43,323.24c-5.9,3.4-10.62,11.63-10.62,18.41s4.72,9.51,10.62,6.12l36.58-21.09a17.32,17.32,0,0,0,7.85-13.58C87.33,308.1,83.81,306.07,79.48,308.57Z" transform="translate(-32.38 -67.28)"/><path class="cls-2" d="M362.9,364a7.55,7.55,0,0,1-3.44,6c-1.9,1.1-3.45.21-3.45-2a7.59,7.59,0,0,1,3.45-6C361.37,361,362.9,361.84,362.9,364Z" transform="translate(-32.38 -67.28)"/><path class="cls-2" d="M374.06,357.59a7.61,7.61,0,0,1-3.43,6c-1.91,1.1-3.45.2-3.45-2a7.6,7.6,0,0,1,3.45-5.9C372.53,354.51,374.06,355.39,374.06,357.59Z" transform="translate(-32.38 -67.28)"/><path class="cls-2" d="M385.24,351.14a7.56,7.56,0,0,1-3.45,6c-1.9,1.11-3.44.22-3.44-2a7.64,7.64,0,0,1,3.44-6C383.68,348,385.24,349,385.24,351.14Z" transform="translate(-32.38 -67.28)"/><path class="cls-2" d="M396.4,344.7a7.61,7.61,0,0,1-3.44,6c-1.9,1.1-3.45.21-3.45-2a7.59,7.59,0,0,1,3.45-6C394.86,341.61,396.4,342.5,396.4,344.7Z" transform="translate(-32.38 -67.28)"/><path class="cls-2" d="M202.1,425.6a7.62,7.62,0,0,1-3.45,6c-1.91,1.09-3.44.21-3.44-2a7.61,7.61,0,0,1,3.44-6C200.55,422.52,202.1,423.41,202.1,425.6Z" transform="translate(-32.38 -67.28)"/><path class="cls-2" d="M211.6,420.12a7.62,7.62,0,0,1-3.45,6c-1.9,1.1-3.44.21-3.44-2a7.61,7.61,0,0,1,3.44-6C210.05,417,211.6,417.92,211.6,420.12Z" transform="translate(-32.38 -67.28)"/><path class="cls-2" d="M202.1,414.64a7.59,7.59,0,0,1-3.45,6c-1.91,1.1-3.44.21-3.44-2a7.55,7.55,0,0,1,3.44-6C200.55,411.55,202.1,412.44,202.1,414.64Z" transform="translate(-32.38 -67.28)"/><path class="cls-2" d="M211.6,409.15a7.6,7.6,0,0,1-3.45,5.9c-1.9,1.1-3.44.22-3.44-2a7.64,7.64,0,0,1,3.44-6C210.05,406.06,211.6,407,211.6,409.15Z" transform="translate(-32.38 -67.28)"/><polygon class="cls-2" points="137.8 83.38 130.91 87.35 130.91 79.4 137.8 75.43 137.8 83.38"/><polygon class="cls-2" points="147.36 77.78 140.47 81.76 140.47 73.81 147.36 69.83 147.36 77.78"/><polygon class="cls-2" points="137.86 93.69 130.97 97.67 130.97 89.72 137.86 85.74 137.86 93.69"/><polygon class="cls-2" points="147.36 88.21 140.47 92.19 140.47 84.23 147.36 80.25 147.36 88.21"/><path class="cls-3" d="M451.23,71.76a13.57,13.57,0,0,0-3.38,2.89c-.15-6.63-4.91-9.28-10.77-5.9a19.65,19.65,0,0,0-5.18,4.52c-2.62-4.55-8-5.61-14.29-2-8.82,5.08-16,17.46-16,27.63a18.6,18.6,0,0,0,.17,2.36,6,6,0,0,0-4.47.9,16.87,16.87,0,0,0-7.64,13.23c0,4.86,3.42,6.83,7.64,4.4l53.88-31.11A16.23,16.23,0,0,0,458.57,76C458.57,71.31,455.27,69.43,451.23,71.76Z" transform="translate(-32.38 -67.28)"/><path class="cls-4" d="M460.82,80.18a12.75,12.75,0,0,0-3.36,2.89c-.16-6.64-4.92-9.29-10.79-5.9a19.6,19.6,0,0,0-5.17,4.56c-2.6-4.56-8-5.61-14.28-2-8.81,5.08-16,17.46-16,27.63a18.58,18.58,0,0,0,.15,2.36,5.91,5.91,0,0,0-4.46.9,16.86,16.86,0,0,0-7.64,13.22c0,4.86,3.41,6.83,7.63,4.4l53.87-31.07a16.19,16.19,0,0,0,7.34-12.71C468.16,79.77,464.88,77.89,460.82,80.18Z" transform="translate(-32.38 -67.28)"/><path class="cls-2" d="M470.43,88.68a13.36,13.36,0,0,0-3.38,2.89c-.15-6.63-4.91-9.28-10.77-5.9a19.65,19.65,0,0,0-5.18,4.52c-2.61-4.56-8-5.61-14.29-2-8.81,5.08-16,17.46-16,27.63a18.6,18.6,0,0,0,.17,2.36,6.09,6.09,0,0,0-4.47.91,16.87,16.87,0,0,0-7.64,13.22c0,4.87,3.42,6.84,7.64,4.41l53.88-31.1a16.27,16.27,0,0,0,7.34-12.71C477.77,88.24,474.47,86.34,470.43,88.68Z" transform="translate(-32.38 -67.28)"/><path class="cls-2" d="M157.55,326.28a1.61,1.61,0,0,1-.83-.22,1.68,1.68,0,0,1-.83-1.44V303.27a1.68,1.68,0,0,1,.83-1.44l18.49-10.68a1.68,1.68,0,0,1,2.5,1.45v21.34a1.67,1.67,0,0,1-.84,1.45L158.39,326A1.68,1.68,0,0,1,157.55,326.28Zm1.67-22v17.49L174.37,313V295.5Z" transform="translate(-32.38 -67.28)"/><polygon class="cls-5" points="112.48 363.19 85.82 347.79 112.48 332.4 139.13 347.79 112.48 363.19"/><path class="cls-2" d="M144.86,420.93a2.2,2.2,0,0,1-1-.27L117.2,405.32a2,2,0,0,1-.8-2.71l0-.05a2,2,0,0,1,.77-.78l26.66-15.34a2.09,2.09,0,0,1,2,0l26.66,15.34a2,2,0,0,1,.8,2.71l0,.05a2,2,0,0,1-.77.78l-26.66,15.34A2,2,0,0,1,144.86,420.93Zm-22.6-17.43,22.6,13.05,22.61-13.05-22.61-13Z" transform="translate(-32.38 -67.28)"/><polygon class="cls-6" points="139.13 324.21 112.48 339.6 112.48 308.82 139.13 293.42 139.13 324.21"/><polygon class="cls-7" points="112.48 308.82 85.82 293.42 112.48 278.03 139.13 293.42 112.48 308.82"/><polygon class="cls-8" points="112.48 339.6 85.82 324.21 85.82 293.42 112.48 308.82 112.48 339.6"/><polygon class="cls-2" points="102.88 322.97 95.43 318.66 95.43 310.06 102.88 314.36 102.88 322.97"/><polygon class="cls-5" points="410.95 197.39 384.3 182 410.95 166.61 437.61 182 410.95 197.39"/><path class="cls-2" d="M443.33,255.14a2,2,0,0,1-1-.27l-26.66-15.34a2,2,0,0,1-.82-2.71l0,0a1.93,1.93,0,0,1,.8-.8l26.66-15.34a2,2,0,0,1,2,0L471,235.94a2,2,0,0,1,.82,2.71l0,0a1.93,1.93,0,0,1-.8.8l-26.65,15.34A2,2,0,0,1,443.33,255.14Zm-22.6-17.41,22.6,13,22.61-13-22.61-13Z" transform="translate(-32.38 -67.28)"/><polygon class="cls-9" points="437.61 158.42 410.95 173.8 410.95 143.03 437.61 127.64 437.61 158.42"/><polygon class="cls-10" points="410.95 143.03 384.3 127.64 410.95 112.25 437.61 127.64 410.95 143.03"/><polygon class="cls-11" points="410.95 173.8 384.3 158.42 384.3 127.64 410.95 143.03 410.95 173.8"/><polygon class="cls-2" points="401.36 157.18 393.9 152.88 393.9 144.27 401.36 148.57 401.36 157.18"/><polygon class="cls-2" points="403.51 127.72 410.91 123.33 418.41 127.55 411.01 131.95 403.51 127.72"/><polygon class="cls-5" points="410.95 363.19 384.3 347.79 410.95 332.4 437.61 347.79 410.95 363.19"/><path class="cls-2" d="M443.33,420.93a2,2,0,0,1-1-.27l-26.66-15.34a2,2,0,0,1-.8-2.71l0-.05a2,2,0,0,1,.77-.78l26.66-15.34a2.09,2.09,0,0,1,2,0L471,401.78a2,2,0,0,1,.81,2.71l0,.05a2,2,0,0,1-.78.78l-26.65,15.34A2,2,0,0,1,443.33,420.93Zm-22.6-17.43,22.6,13.05,22.61-13.05-22.61-13Z" transform="translate(-32.38 -67.28)"/><polygon class="cls-12" points="437.61 324.21 410.95 339.6 410.95 308.82 437.61 293.42 437.61 324.21"/><polygon class="cls-13" points="410.95 308.82 384.3 293.42 410.95 278.03 437.61 293.42 410.95 308.82"/><polygon class="cls-14" points="410.95 339.6 384.3 324.21 384.3 293.42 410.95 308.82 410.95 339.6"/><polygon class="cls-2" points="401.36 322.97 393.9 318.66 393.9 310.06 401.36 314.36 401.36 322.97"/><polygon class="cls-5" points="112.48 197.39 85.82 182 112.48 166.61 139.13 182 112.48 197.39"/><path class="cls-2" d="M144.86,255.14a2,2,0,0,1-1-.27L117.2,239.53a2,2,0,0,1,0-3.54l26.66-15.34a2,2,0,0,1,2,0L172.53,236a2,2,0,0,1,.81,2.71v0a2.08,2.08,0,0,1-.8.81l-26.66,15.34A2.11,2.11,0,0,1,144.86,255.14Zm-22.6-17.41,22.6,13,22.61-13-22.61-13Z" transform="translate(-32.38 -67.28)"/><polygon class="cls-15" points="139.13 158.42 112.48 173.8 112.48 143.03 139.13 127.64 139.13 158.42"/><polygon class="cls-16" points="112.48 143.03 85.82 127.64 112.48 112.25 139.13 127.64 112.48 143.03"/><polygon class="cls-17" points="112.48 173.8 85.82 158.42 85.82 127.64 112.48 143.03 112.48 173.8"/><polygon class="cls-2" points="102.88 157.18 95.43 152.88 95.43 144.27 102.88 148.57 102.88 157.18"/><rect class="cls-2" x="346.11" y="238.8" width="89.52" height="4.05" transform="translate(-100.42 160.34) rotate(-29.99)"/><path class="cls-5" d="M287.8,373.39l-68.35-39.51c-2.52-1.45-2.2-4,.69-5.65l72.47-41.94c2.89-1.68,7.27-1.85,9.77-.4l68.32,39.49c2.5,1.46,2.18,4-.71,5.66l-72.45,42C294.68,374.65,290.32,374.83,287.8,373.39Z" transform="translate(-32.38 -67.28)"/><path class="cls-2" d="M292.06,360.41a10.83,10.83,0,0,1-5.27-1.18l-68.31-39.51a4.91,4.91,0,0,1-2.7-4.21,6,6,0,0,1,3.39-4.95l72.47-41.95c3.54-2,8.68-2.2,11.8-.41l68.37,39.47a4.93,4.93,0,0,1,2.7,4.2,6,6,0,0,1-3.41,5l-72.45,41.94A13.63,13.63,0,0,1,292.06,360.41Zm-3.24-4.72c1.88,1.08,5.5.89,7.75-.4l72.46-42c1-.58,1.38-1.18,1.38-1.44s-.22-.43-.68-.7l-68.37-39.46c-1.87-1.08-5.5-.9-7.74.4L221.16,314c-1,.59-1.38,1.18-1.38,1.44s.21.42.68.69Z" transform="translate(-32.38 -67.28)"/><path class="cls-18" d="M292.74,165.62s-37.53,3.54-60.18,5.31l59.95,170.76L371.88,296h0l.14-.08h0a4.4,4.4,0,0,0,1.62-3.9V125a12.09,12.09,0,0,0-1.37-5.33Z" transform="translate(-32.38 -67.28)"/><path class="cls-19" d="M368.75,115.64,299,75.36a3.18,3.18,0,0,0-3.18-.27h0L216.2,121l3.8,13.92,20,56.85,3.76,2.17,128.63-74.25A9.88,9.88,0,0,0,368.75,115.64Z" transform="translate(-32.38 -67.28)"/><path class="cls-20" d="M289.19,341.54l-69.76-40.26c-2.71-1.57-4.9-5.77-4.9-9.44V125c0-3.63,2.19-5.29,4.9-3.72l69.76,40.3c2.71,1.55,4.9,5.77,4.9,9.44V337.83C294.09,341.44,291.9,343.11,289.19,341.54Z" transform="translate(-32.38 -67.28)"/><path class="cls-2" d="M290.68,160.7l-69.75-40.27a2.91,2.91,0,0,0-3.86.28,3.63,3.63,0,0,1,2.36.55l69.76,40.34c2.71,1.55,4.9,5.77,4.9,9.44V337.83a5.14,5.14,0,0,1-1,3.43c1.51-.24,2.53-1.8,2.53-4.28V170.08C295.59,166.46,293.4,162.26,290.68,160.7Z" transform="translate(-32.38 -67.28)"/><path class="cls-21" d="M284.8,331.52l-61-35.21c-2.36-1.37-4.29-5-4.29-8.2v-155c0-3.17,1.92-4.62,4.29-3.25l61,35.2c2.36,1.37,4.29,5,4.29,8.26v155C289.09,331.41,287.17,332.87,284.8,331.52Z" transform="translate(-32.38 -67.28)"/><path class="cls-21" d="M284.8,331.52l-61-35.21c-2.36-1.37-4.29-5-4.29-8.2v-155c0-3.17,1.92-4.62,4.29-3.25l61,35.2c2.36,1.37,4.29,5,4.29,8.26v155C289.09,331.41,287.17,332.87,284.8,331.52Z" transform="translate(-32.38 -67.28)"/><path class="cls-22" d="M284.8,331.52l-61-35.21c-2.36-1.37-4.29-5-4.29-8.2v-155c0-3.17,1.92-4.62,4.29-3.25l61,35.2c2.36,1.37,4.29,5,4.29,8.26v155C289.09,331.41,287.17,332.87,284.8,331.52Z" transform="translate(-32.38 -67.28)"/><path class="cls-23" d="M286.79,330.34l-61-35.2c-2.36-1.37-4.3-5-4.3-8.26v-155a5,5,0,0,1,.62-2.6c-1.54,0-2.61,1.41-2.61,3.77v155c0,3.17,1.92,6.84,4.29,8.21l61,35.23c1.57.9,2.92.57,3.68-.66A3.35,3.35,0,0,1,286.79,330.34Z" transform="translate(-32.38 -67.28)"/><path class="cls-22" d="M284.8,260.33l-22.66-13.09L226,268.11l63.1,36.44v-36C289.09,265.37,287.17,261.7,284.8,260.33Z" transform="translate(-32.38 -67.28)"/><path class="cls-22" d="M284.8,228.56l-22.66-13.08L226,236.34l63.1,36.44v-36C289.09,233.58,287.17,229.93,284.8,228.56Z" transform="translate(-32.38 -67.28)"/><path class="cls-22" d="M284.8,196.8l-22.66-13.09L226,204.59,289.09,241V205C289.09,201.84,287.17,198.18,284.8,196.8Z" transform="translate(-32.38 -67.28)"/><path class="cls-22" d="M284.8,165l-22.66-13.09L226,172.82l63.1,36.43v-36C289.09,170.07,287.17,166.4,284.8,165Z" transform="translate(-32.38 -67.28)"/><path class="cls-22" d="M284.8,165l-50.17-29L226,141l63.1,36.43v-4.25C289.09,170.07,287.17,166.4,284.8,165Z" transform="translate(-32.38 -67.28)"/><polygon class="cls-20" points="256.71 110.2 193.62 73.77 193.62 93.85 256.71 130.28 256.71 110.2"/><polygon class="cls-20" points="256.71 141.97 193.62 105.54 193.62 125.61 256.71 162.04 256.71 141.97"/><polygon class="cls-20" points="256.71 173.73 193.62 137.29 193.62 157.38 256.71 193.8 256.71 173.73"/><polygon class="cls-20" points="256.71 205.5 193.62 169.06 193.62 189.14 256.71 225.57 256.71 205.5"/><polygon class="cls-20" points="256.71 237.25 193.62 200.83 193.62 220.9 256.71 257.34 256.71 237.25"/><path class="cls-22" d="M283.53,190.4,236,163a5.84,5.84,0,0,1-2.43-4.64V153c0-1.8,1.09-2.61,2.43-1.84l47.53,27.44a5.78,5.78,0,0,1,2.42,4.64v5.38C286,190.35,284.87,191.18,283.53,190.4Z" transform="translate(-32.38 -67.28)"/><path class="cls-24" d="M238.4,161.94a5.84,5.84,0,0,1-2.43-4.65v-5.37a3.46,3.46,0,0,1,.09-.78h0c-1.34-.76-2.43,0-2.43,1.84v5.38a5.82,5.82,0,0,0,2.43,4.64l47.53,27.44a1.47,1.47,0,0,0,2-.22,1.37,1.37,0,0,0,.32-.84Z" transform="translate(-32.38 -67.28)"/><path class="cls-2" d="M268.62,175.67,240,159.15a2.1,2.1,0,0,1-.86-1.62h0c0-.64.39-.92.86-.65l28.61,16.52a2.05,2.05,0,0,1,.85,1.64h0C269.47,175.65,269.09,176,268.62,175.67Z" transform="translate(-32.38 -67.28)"/><path class="cls-22" d="M283.53,222,236,194.53a5.82,5.82,0,0,1-2.43-4.64v-5.38c0-1.79,1.09-2.6,2.43-1.84l47.53,27.45a5.88,5.88,0,0,1,2.42,4.64v5.38C286,221.93,284.87,222.75,283.53,222Z" transform="translate(-32.38 -67.28)"/><path class="cls-24" d="M238.4,193.46a5.84,5.84,0,0,1-2.43-4.65v-5.37a3.46,3.46,0,0,1,.09-.78h0c-1.34-.77-2.43,0-2.43,1.84v5.42a5.84,5.84,0,0,0,2.43,4.64L283.59,222a1.45,1.45,0,0,0,2-.22,1.4,1.4,0,0,0,.32-.85Z" transform="translate(-32.38 -67.28)"/><path class="cls-2" d="M268.62,207.24,240,190.72a2.1,2.1,0,0,1-.86-1.63h0c0-.62.39-.92.86-.65L268.62,205a2.06,2.06,0,0,1,.85,1.63h0C269.47,207.22,269.09,207.51,268.62,207.24Z" transform="translate(-32.38 -67.28)"/><path class="cls-22" d="M283.53,253.84,236,226.39a5.82,5.82,0,0,1-2.43-4.64v-5.38c0-1.78,1.09-2.6,2.43-1.82L283.53,242a5.88,5.88,0,0,1,2.42,4.64V252C286,253.79,284.87,254.61,283.53,253.84Z" transform="translate(-32.38 -67.28)"/><path class="cls-24" d="M238.4,225.32a5.89,5.89,0,0,1-2.43-4.64V215.3a3.31,3.31,0,0,1,.09-.77h0c-1.34-.78-2.43,0-2.43,1.83v5.42a5.84,5.84,0,0,0,2.43,4.64l47.53,27.44a1.45,1.45,0,0,0,2-.22,1.4,1.4,0,0,0,.32-.85Z" transform="translate(-32.38 -67.28)"/><path class="cls-25" d="M268.62,239.1,240,222.58a2.13,2.13,0,0,1-.86-1.64h0c0-.62.39-.92.86-.65l28.61,16.52a2.06,2.06,0,0,1,.85,1.63h0C269.47,239.08,269.09,239.37,268.62,239.1Z" transform="translate(-32.38 -67.28)"/><path class="cls-22" d="M283.53,286,236,258.55a5.78,5.78,0,0,1-2.43-4.64v-5.38c0-1.78,1.09-2.61,2.43-1.83l47.53,27.44a5.86,5.86,0,0,1,2.42,4.63v5.38C286,286,284.87,286.76,283.53,286Z" transform="translate(-32.38 -67.28)"/><path class="cls-24" d="M238.4,257.52a5.89,5.89,0,0,1-2.43-4.64V247.5a3.22,3.22,0,0,1,.09-.76h0c-1.34-.78-2.43,0-2.43,1.83V254a5.8,5.8,0,0,0,2.43,4.63L283.59,286a1.45,1.45,0,0,0,2-.22A1.38,1.38,0,0,0,286,285Z" transform="translate(-32.38 -67.28)"/><path class="cls-26" d="M268.62,271.26,240,254.74a2.06,2.06,0,0,1-.86-1.64h0c0-.63.39-.92.86-.65L268.62,269a2.06,2.06,0,0,1,.85,1.63h0C269.47,271.25,269.09,271.53,268.62,271.26Z" transform="translate(-32.38 -67.28)"/><path class="cls-22" d="M283.53,317.51,236,290.07a5.78,5.78,0,0,1-2.43-4.64v-5.38c0-1.78,1.09-2.61,2.43-1.83l47.53,27.43A5.91,5.91,0,0,1,286,310.3v5.37C286,317.47,284.87,318.28,283.53,317.51Z" transform="translate(-32.38 -67.28)"/><path class="cls-24" d="M238.4,289a5.9,5.9,0,0,1-2.4-4.6V279a3.31,3.31,0,0,1,.09-.77h0c-1.34-.77-2.43,0-2.43,1.83v5.38a5.78,5.78,0,0,0,2.43,4.64l47.53,27.45a1.47,1.47,0,0,0,2-.22,1.37,1.37,0,0,0,.32-.84Z" transform="translate(-32.38 -67.28)"/><path class="cls-25" d="M268.62,302.78,240,286.26a2.06,2.06,0,0,1-.86-1.65h0c0-.62.39-.92.86-.64l28.61,16.52a2,2,0,0,1,.85,1.62h0C269.47,302.76,269.09,303.05,268.62,302.78Z" transform="translate(-32.38 -67.28)"/><polygon class="cls-27" points="193.62 73.77 198.58 76.64 198.58 96.71 193.62 93.85 193.62 73.77"/><polygon class="cls-27" points="193.62 105.54 198.58 108.41 198.58 128.48 193.62 125.61 193.62 105.54"/><polygon class="cls-27" points="193.62 137.29 198.58 140.16 198.58 160.25 193.62 157.38 193.62 137.29"/><polygon class="cls-27" points="193.62 169.06 198.58 171.93 198.58 192.01 193.62 189.14 193.62 169.06"/><polygon class="cls-27" points="193.62 200.83 198.58 203.69 198.58 223.77 193.62 220.9 193.62 200.83"/><ellipse class="cls-25" cx="275" cy="177.72" rx="0.83" ry="1.43" transform="matrix(0.87, -0.5, 0.5, 0.87, -84.36, 93.4)"/><path class="cls-26" d="M278.52,180.11c0,.65-.46.91-1,.58a2.21,2.21,0,0,1-1-1.73c0-.65.45-.91,1-.58A2.23,2.23,0,0,1,278.52,180.11Z" transform="translate(-32.38 -67.28)"/><path class="cls-25" d="M282.78,182.58c0,.64-.45.89-1,.58a2.25,2.25,0,0,1-1-1.75c0-.64.45-.9,1-.58A2.25,2.25,0,0,1,282.78,182.58Z" transform="translate(-32.38 -67.28)"/><path class="cls-26" d="M274.25,209.4c0,.64-.45.9-1,.58a2.23,2.23,0,0,1-1-1.74c0-.65.45-.9,1-.59A2.32,2.32,0,0,1,274.25,209.4Z" transform="translate(-32.38 -67.28)"/><path class="cls-25" d="M278.52,211.87c0,.63-.46.89-1,.57a2.23,2.23,0,0,1-1-1.74c0-.64.45-.9,1-.58A2.25,2.25,0,0,1,278.52,211.87Z" transform="translate(-32.38 -67.28)"/><path class="cls-2" d="M282.78,214.32c0,.65-.45.91-1,.59a2.25,2.25,0,0,1-1-1.75c0-.63.45-.89,1-.57A2.21,2.21,0,0,1,282.78,214.32Z" transform="translate(-32.38 -67.28)"/><path class="cls-2" d="M274.25,241.39c0,.64-.45.9-1,.58a2.25,2.25,0,0,1-1-1.75c0-.63.45-.89,1-.58A2.25,2.25,0,0,1,274.25,241.39Z" transform="translate(-32.38 -67.28)"/><path class="cls-26" d="M278.52,243.85c0,.64-.46.9-1,.59a2.25,2.25,0,0,1-1-1.75c0-.64.45-.9,1-.58A2.23,2.23,0,0,1,278.52,243.85Z" transform="translate(-32.38 -67.28)"/><path class="cls-2" d="M282.78,246.31c0,.65-.45.91-1,.58a2.23,2.23,0,0,1-1-1.74c0-.64.45-.9,1-.59A2.25,2.25,0,0,1,282.78,246.31Z" transform="translate(-32.38 -67.28)"/><path class="cls-2" d="M274.25,272.91c0,.64-.45.9-1,.58a2.23,2.23,0,0,1-1-1.74c0-.65.45-.91,1-.59A2.26,2.26,0,0,1,274.25,272.91Z" transform="translate(-32.38 -67.28)"/><path class="cls-25" d="M278.52,275.38c0,.63-.46.89-1,.57a2.23,2.23,0,0,1-1-1.74c0-.64.45-.9,1-.58A2.25,2.25,0,0,1,278.52,275.38Z" transform="translate(-32.38 -67.28)"/><path class="cls-25" d="M282.78,277.83c0,.65-.45.91-1,.59a2.25,2.25,0,0,1-1-1.75c0-.63.45-.89,1-.57A2.18,2.18,0,0,1,282.78,277.83Z" transform="translate(-32.38 -67.28)"/><path class="cls-2" d="M274.25,304.86c0,.64-.45.9-1,.58a2.23,2.23,0,0,1-1-1.74c0-.64.45-.9,1-.58A2.23,2.23,0,0,1,274.25,304.86Z" transform="translate(-32.38 -67.28)"/><path class="cls-26" d="M278.52,307.33c0,.64-.46.9-1,.58a2.25,2.25,0,0,1-1-1.75c0-.63.45-.89,1-.58A2.25,2.25,0,0,1,278.52,307.33Z" transform="translate(-32.38 -67.28)"/><path class="cls-25" d="M282.78,309.78c0,.65-.45.91-1,.58a2.21,2.21,0,0,1-1-1.73c0-.65.45-.91,1-.58A2.21,2.21,0,0,1,282.78,309.78Z" transform="translate(-32.38 -67.28)"/><path class="cls-22" d="M304.62,319V176.85l.3-.16,59.39-34.3V284.52l-.3.17Zm1.18-141.44V317l57.34-33.11V144.43Z" transform="translate(-32.38 -67.28)"/><path class="cls-22" d="M348.87,206.34l-26.63,15.34c-1.8,1-3.25-.07-3.25-2.45V204.5a7.77,7.77,0,0,1,3.25-6.19L348.87,183c1.78-1,3.23.07,3.23,2.45v14.76A7.77,7.77,0,0,1,348.87,206.34Z" transform="translate(-32.38 -67.28)"/><path class="cls-20" d="M349.46,182.65a4.33,4.33,0,0,1,.25,1.47V198.9a7.76,7.76,0,0,1-3.25,6.18l-26.63,15.34a3.83,3.83,0,0,1-.65.3,1.9,1.9,0,0,0,2.35,1.3,1.66,1.66,0,0,0,.66-.34l26.63-15.34a7.78,7.78,0,0,0,3.24-6.19V185.39C352.1,183.3,351,182.19,349.46,182.65Z" transform="translate(-32.38 -67.28)"/><path class="cls-2" d="M344,197.45a.54.54,0,0,1,.77.08.5.5,0,0,1,.12.44v3.36a1.92,1.92,0,0,1-.89,1.53c-.49.3-.89.06-.89-.5V199A2,2,0,0,1,344,197.45Z" transform="translate(-32.38 -67.28)"/><path class="cls-25" d="M340.19,200.08c.48-.3.88-.06.88.51v2.95a2,2,0,0,1-.88,1.53.56.56,0,0,1-.79-.1.54.54,0,0,1-.11-.41v-2.95A1.94,1.94,0,0,1,340.19,200.08Z" transform="translate(-32.38 -67.28)"/><path class="cls-26" d="M336.36,199a.54.54,0,0,1,.77.08.54.54,0,0,1,.12.44v6.22a2,2,0,0,1-.89,1.55.55.55,0,0,1-.77-.08.56.56,0,0,1-.12-.43v-6.23A2,2,0,0,1,336.36,199Z" transform="translate(-32.38 -67.28)"/><path class="cls-25" d="M332.54,197.61c.5-.28.9-.06.9.52v9.81a2,2,0,0,1-.9,1.54.55.55,0,0,1-.78-.06.57.57,0,0,1-.12-.44v-9.82A2,2,0,0,1,332.54,197.61Z" transform="translate(-32.38 -67.28)"/><path class="cls-25" d="M328.72,200.84a.54.54,0,0,1,.77.08.5.5,0,0,1,.12.44v8.78a2,2,0,0,1-.89,1.55c-.5.28-.89.06-.89-.51v-8.79A2,2,0,0,1,328.72,200.84Z" transform="translate(-32.38 -67.28)"/><path class="cls-2" d="M324.89,207.06a.57.57,0,0,1,.79.09.61.61,0,0,1,.11.43v4.72a2,2,0,0,1-.9,1.55c-.48.28-.88.06-.88-.51v-4.72A2,2,0,0,1,324.89,207.06Z" transform="translate(-32.38 -67.28)"/><path class="cls-26" d="M343.12,195.75c0,.55.39.79.88.5a1.91,1.91,0,0,0,.88-1.52c0-.55-.4-.78-.88-.51A2,2,0,0,0,343.12,195.75Z" transform="translate(-32.38 -67.28)"/><ellipse class="cls-2" cx="343.98" cy="192.06" rx="1.24" ry="0.72" transform="translate(-26.72 326.65) rotate(-60)"/><rect class="cls-2" x="408.93" y="49.02" width="4.06" height="78.63"/><path class="cls-5" d="M289.57,445.49,248.84,422c-2.49-1.45-2.18-4,.71-5.64l39.32-22.69c2.89-1.68,7.25-1.85,9.76-.41l40.72,23.51c2.5,1.44,2.18,4-.71,5.63l-39.32,22.71C296.43,446.75,292.06,446.93,289.57,445.49Z" transform="translate(-32.38 -67.28)"/><path class="cls-2" d="M293.82,435.92a10.94,10.94,0,0,1-5.4-1.3h0l-40.74-23.51a5.2,5.2,0,0,1-2.84-4.45,6.24,6.24,0,0,1,3.54-5.19l39.33-22.75c3.63-2.1,8.83-2.28,12.06-.4l40.73,23.52a5.16,5.16,0,0,1,2.85,4.45,6.22,6.22,0,0,1-3.54,5.18l-39.33,22.71A13.51,13.51,0,0,1,293.82,435.92Zm-3.09-5.28c1.79,1,5.26.85,7.44-.4l39.31-22.7c1-.58,1.18-1.09,1.18-1.18a1.62,1.62,0,0,0-.53-.44l-40.67-23.54c-1.8-1-5.27-.85-7.44.4l-39.32,22.7a2.65,2.65,0,0,0-1.23,1.18,1.41,1.41,0,0,0,.53.44Z" transform="translate(-32.38 -67.28)"/><path class="cls-23" d="M341,391.93h0V377.87H309.51l-10.88-6.29c-2.51-1.44-6.87-1.26-9.76.42l-10.16,5.9H247.16v14.45a2.83,2.83,0,0,0,1.68,2.61l40.73,23.52c2.49,1.44,6.86,1.26,9.75-.4l39.32-22.84C340.3,394.32,341.12,393.08,341,391.93Z" transform="translate(-32.38 -67.28)"/><path class="cls-28" d="M294.09,370.59a11.2,11.2,0,0,0-5.22,1.38l-10.16,5.9H247.16v14.46a2.84,2.84,0,0,0,1.68,2.61l40.73,23.51a8.76,8.76,0,0,0,4.52,1Z" transform="translate(-32.38 -67.28)"/><path class="cls-25" d="M250.74,377.81H247.2v14.46a2.83,2.83,0,0,0,1.68,2.61l1.9,1.09Z" transform="translate(-32.38 -67.28)"/><path class="cls-20" d="M290.2,418.7a11.11,11.11,0,0,0,7.79-.09V402.2H290.2Z" transform="translate(-32.38 -67.28)"/><path class="cls-29" d="M289.57,404l-40.73-23.52c-2.49-1.44-2.18-4,.71-5.63l39.32-22.7c2.89-1.67,7.25-1.84,9.76-.4l40.72,23.5c2.5,1.45,2.18,4-.71,5.63l-39.32,22.71C296.43,405.26,292.06,405.44,289.57,404Z" transform="translate(-32.38 -67.28)"/><path class="cls-2" d="M338.64,378.12l-39.32,22.7c-2.89,1.67-7.26,1.86-9.75.41l-40.73-23.51a3.67,3.67,0,0,1-1.24-1.11c-.86,1.38-.47,2.88,1.24,3.87L289.57,404c2.49,1.44,6.86,1.26,9.75-.41l39.32-22.71c2.24-1.28,2.93-3.1,1.95-4.52A5.24,5.24,0,0,1,338.64,378.12Z" transform="translate(-32.38 -67.28)"/><path class="cls-25" d="M326,395.63a3.62,3.62,0,0,1-1.64,2.85c-.91.53-1.65.1-1.65-1a3.6,3.6,0,0,1,1.65-2.85C325.31,394.16,326,394.58,326,395.63Z" transform="translate(-32.38 -67.28)"/><path class="cls-25" d="M331.34,392.58a3.65,3.65,0,0,1-1.66,2.84c-.9.53-1.64.11-1.64-.94a3.65,3.65,0,0,1,1.64-2.86C330.58,391.1,331.34,391.53,331.34,392.58Z" transform="translate(-32.38 -67.28)"/><path class="cls-25" d="M336.62,389.52a3.6,3.6,0,0,1-1.64,2.84c-.91.53-1.65.11-1.65-.94a3.69,3.69,0,0,1,1.65-2.86C335.89,388,336.62,388.47,336.62,389.52Z" transform="translate(-32.38 -67.28)"/><path class="cls-20" d="M292,389.41l-19.06-11c-1.18-.68-1-1.86.32-2.64l18.41-10.62a5.11,5.11,0,0,1,4.57-.19l19,11c1.18.68,1,1.86-.33,2.63L296.5,389.22A5,5,0,0,1,292,389.41Z" transform="translate(-32.38 -67.28)"/><path class="cls-25" d="M293.8,380.21l-2.63-1.49c-.17-.09-.14-.26,0-.36l2.53-1.48a.72.72,0,0,1,.64,0L297,378.4c.17.1.15.26,0,.37l-2.55,1.46A.66.66,0,0,1,293.8,380.21Z" transform="translate(-32.38 -67.28)"/><path class="cls-23" d="M272.92,378.42h0l.28-.19,18.4-10.62a5,5,0,0,1,4.57-.19l19,11c1.07-.77,1.18-1.82,0-2.44l-19.06-11a5.09,5.09,0,0,0-4.56.19l-18.41,10.62C271.9,376.56,271.76,377.74,272.92,378.42Z" transform="translate(-32.38 -67.28)"/><path class="cls-5" d="M438.81,341.74l-40.72-23.51c-2.5-1.44-2.18-4,.7-5.62l39.33-22.71c2.88-1.66,7.24-1.85,9.74-.41L488.59,313c2.5,1.44,2.18,4-.7,5.63l-39.31,22.7C445.68,343,441.31,343.19,438.81,341.74Z" transform="translate(-32.38 -67.28)"/><path class="cls-2" d="M443.07,332.17a11,11,0,0,1-5.41-1.29h0l-40.73-23.51a5.22,5.22,0,0,1-2.84-4.45,6.22,6.22,0,0,1,3.54-5.18L437,275c3.63-2.11,8.81-2.27,12.06-.41l40.72,23.52a5.2,5.2,0,0,1,2.85,4.45,6.22,6.22,0,0,1-3.54,5.18l-39.29,22.7A13.32,13.32,0,0,1,443.07,332.17Zm-3.1-5.3c1.79,1,5.27.85,7.43-.4l39.33-22.7c1-.57,1.18-1.09,1.18-1.18a1.22,1.22,0,0,0-.53-.45l-40.72-23.51c-1.79-1-5.27-.85-7.43.4L399.9,301.74c-1,.56-1.18,1.08-1.18,1.18a1.28,1.28,0,0,0,.53.45Z" transform="translate(-32.38 -67.28)"/><path class="cls-23" d="M490.26,288.18h0V274.12H458.75l-10.89-6.32c-2.5-1.45-6.86-1.26-9.74.4l-10.18,5.9H396.41v14.44a2.84,2.84,0,0,0,1.68,2.62l40.72,23.51c2.5,1.44,6.87,1.26,9.75-.4l39.33-22.7C489.55,290.59,490.36,289.34,490.26,288.18Z" transform="translate(-32.38 -67.28)"/><path class="cls-30" d="M443.34,266.86a11.21,11.21,0,0,0-5.22,1.36l-10.18,5.9H396.41v14.45a2.84,2.84,0,0,0,1.68,2.62l40.72,23.5a8.7,8.7,0,0,0,4.53,1Z" transform="translate(-32.38 -67.28)"/><path class="cls-25" d="M400,274.08h-3.54v14.44a2.82,2.82,0,0,0,1.67,2.62l1.89,1.09Z" transform="translate(-32.38 -67.28)"/><path class="cls-20" d="M439.44,315a11.09,11.09,0,0,0,7.8-.08V298.48h-7.8Z" transform="translate(-32.38 -67.28)"/><path class="cls-31" d="M438.81,300.25l-40.72-23.52c-2.5-1.44-2.18-4,.7-5.63l39.33-22.7c2.88-1.66,7.24-1.84,9.74-.4l40.73,23.52c2.5,1.44,2.18,4-.7,5.63l-39.31,22.7C445.68,301.51,441.31,301.69,438.81,300.25Z" transform="translate(-32.38 -67.28)"/><path class="cls-2" d="M487.89,274.37l-39.31,22.71c-2.88,1.67-7.24,1.85-9.74.41L398.11,274a3.8,3.8,0,0,1-1.25-1.11c-.86,1.38-.47,2.88,1.25,3.87l40.73,23.52c2.5,1.44,6.86,1.26,9.74-.4l39.33-22.7c2.25-1.3,2.93-3.11,1.95-4.54A5.39,5.39,0,0,1,487.89,274.37Z" transform="translate(-32.38 -67.28)"/><path class="cls-25" d="M475.29,291.88a3.66,3.66,0,0,1-1.65,2.85c-.91.53-1.65.1-1.65-1a3.61,3.61,0,0,1,1.65-2.84A1,1,0,0,1,475.29,291.88Z" transform="translate(-32.38 -67.28)"/><path class="cls-25" d="M480.57,288.83a3.62,3.62,0,0,1-1.64,2.85c-.91.52-1.65.1-1.65-.95a3.66,3.66,0,0,1,1.65-2.85C479.84,287.35,480.57,287.78,480.57,288.83Z" transform="translate(-32.38 -67.28)"/><path class="cls-25" d="M485.87,285.77a3.66,3.66,0,0,1-1.65,2.86c-.91.52-1.64.09-1.64-1a3.62,3.62,0,0,1,1.64-2.84C485.16,284.32,485.87,284.72,485.87,285.77Z" transform="translate(-32.38 -67.28)"/><path class="cls-20" d="M441.22,285.68l-19.06-11c-1.18-.68-1-1.86.33-2.63l18.4-10.62a5,5,0,0,1,4.57-.19l19.05,11c1.18.68,1,1.86-.33,2.64L445.79,285.5A5.11,5.11,0,0,1,441.22,285.68Z" transform="translate(-32.38 -67.28)"/><path class="cls-25" d="M443.05,276.46l-2.64-1.52a.21.21,0,0,1-.09-.28.2.2,0,0,1,.09-.09L443,273.1a.7.7,0,0,1,.63,0l2.64,1.52c.16.09.14.26,0,.37l-2.55,1.47A.67.67,0,0,1,443.05,276.46Z" transform="translate(-32.38 -67.28)"/><path class="cls-23" d="M422.16,274.67h.06a1.31,1.31,0,0,1,.27-.19l18.4-10.62a5,5,0,0,1,4.57-.19l19,11c1.09-.77,1.18-1.82,0-2.44l-19-11a5,5,0,0,0-4.57.19L422.43,272C421.14,272.81,421,274,422.16,274.67Z" transform="translate(-32.38 -67.28)"/><path class="cls-5" d="M140.34,341.74,99.61,318.23c-2.5-1.44-2.19-4,.7-5.62l39.32-22.71c2.89-1.66,7.26-1.85,9.76-.41L190.16,313c2.5,1.44,2.18,4-.7,5.63L150,341.34C147.2,343,142.84,343.19,140.34,341.74Z" transform="translate(-32.38 -67.28)"/><path class="cls-2" d="M144.58,332.17a10.93,10.93,0,0,1-5.4-1.29h0L98.45,307.37a5.17,5.17,0,0,1-2.84-4.45,6.22,6.22,0,0,1,3.54-5.18L138.47,275c3.65-2.11,8.83-2.27,12.07-.41l40.73,23.52a5.22,5.22,0,0,1,2.84,4.45,6.22,6.22,0,0,1-3.54,5.18l-39.35,22.7A13.53,13.53,0,0,1,144.58,332.17Zm-3.09-5.3c1.8,1,5.27.85,7.44-.4l39.33-22.7c1-.57,1.18-1.09,1.18-1.18a1.44,1.44,0,0,0-.53-.45l-40.73-23.51c-1.79-1-5.27-.85-7.44.4l-39.32,22.71c-1,.56-1.18,1.08-1.18,1.18a1.42,1.42,0,0,0,.52.45l40.73,23.5Z" transform="translate(-32.38 -67.28)"/><path class="cls-23" d="M191.79,288.18h0V274.12H160.28l-10.89-6.32c-2.5-1.45-6.87-1.26-9.76.4l-10.16,5.9H97.94v14.44a2.82,2.82,0,0,0,1.67,2.62l40.73,23.51c2.5,1.44,6.86,1.26,9.74-.4l39.33-22.7C191.08,290.59,191.88,289.34,191.79,288.18Z" transform="translate(-32.38 -67.28)"/><path class="cls-32" d="M144.86,266.86a11.25,11.25,0,0,0-5.23,1.36l-10.16,5.9H97.94v14.45a2.82,2.82,0,0,0,1.67,2.62l40.73,23.5a8.67,8.67,0,0,0,4.52,1Z" transform="translate(-32.38 -67.28)"/><path class="cls-25" d="M101.5,274.08H98v14.44a2.84,2.84,0,0,0,1.68,2.62l1.89,1.09Z" transform="translate(-32.38 -67.28)"/><path class="cls-20" d="M141,315a11.09,11.09,0,0,0,7.8-.08V298.48H141Z" transform="translate(-32.38 -67.28)"/><path class="cls-33" d="M140.34,300.25,99.61,276.73c-2.5-1.44-2.19-4,.7-5.63l39.32-22.7c2.89-1.66,7.26-1.84,9.76-.4l40.77,23.52c2.5,1.44,2.18,4-.7,5.63L150,299.85C147.2,301.51,142.84,301.69,140.34,300.25Z" transform="translate(-32.38 -67.28)"/><path class="cls-2" d="M189.41,274.37,150,297.08c-2.88,1.67-7.25,1.85-9.75.41L99.57,274a3.61,3.61,0,0,1-1.25-1.11c-.87,1.38-.48,2.88,1.25,3.87l40.72,23.52c2.5,1.44,6.87,1.26,9.75-.4l39.33-22.7c2.24-1.3,2.91-3.11,1.94-4.54A5.35,5.35,0,0,1,189.41,274.37Z" transform="translate(-32.38 -67.28)"/><path class="cls-25" d="M176.8,291.88a3.62,3.62,0,0,1-1.64,2.85c-.91.53-1.64.1-1.64-1a3.62,3.62,0,0,1,1.64-2.84C176.07,290.41,176.8,290.83,176.8,291.88Z" transform="translate(-32.38 -67.28)"/><path class="cls-25" d="M182.1,288.83a3.66,3.66,0,0,1-1.65,2.85c-.9.52-1.64.1-1.64-.95a3.62,3.62,0,0,1,1.64-2.85C181.35,287.35,182.1,287.78,182.1,288.83Z" transform="translate(-32.38 -67.28)"/><path class="cls-25" d="M187.38,285.77a3.65,3.65,0,0,1-1.64,2.86c-.9.52-1.64.09-1.64-1a3.62,3.62,0,0,1,1.64-2.84A1,1,0,0,1,187.38,285.77Z" transform="translate(-32.38 -67.28)"/><path class="cls-20" d="M142.74,285.68l-19.05-11c-1.18-.68-1-1.86.33-2.63l18.39-10.62a5,5,0,0,1,4.57-.19l19.06,11c1.18.68,1,1.86-.33,2.64l-18.4,10.62A5.11,5.11,0,0,1,142.74,285.68Z" transform="translate(-32.38 -67.28)"/><path class="cls-25" d="M144.56,276.46l-2.63-1.52c-.17-.1-.14-.26,0-.37l2.55-1.47a.68.68,0,0,1,.62,0l2.65,1.52a.21.21,0,0,1,.09.28.2.2,0,0,1-.09.09l-2.55,1.47A.72.72,0,0,1,144.56,276.46Z" transform="translate(-32.38 -67.28)"/><path class="cls-23" d="M123.69,274.67h0l.28-.19,18.4-10.62a5,5,0,0,1,4.56-.19l19,11c1.09-.77,1.18-1.82.06-2.44l-19.06-11a5,5,0,0,0-4.56.19L124,272C122.66,272.81,122.52,274,123.69,274.67Z" transform="translate(-32.38 -67.28)"/></svg>