<svg xmlns="http://www.w3.org/2000/svg" xmlns:xlink="http://www.w3.org/1999/xlink" viewBox="0 0 1616.39 1077.59"><defs><style>.cls-1{isolation:isolate;}.cls-2{fill:#fff;}.cls-3{fill:#f8f8f8;}.cls-4{fill:#d7d7d7;}.cls-10,.cls-11,.cls-12,.cls-13,.cls-14,.cls-15,.cls-16,.cls-28,.cls-5,.cls-6,.cls-66,.cls-7,.cls-8,.cls-9,.cls-90,.cls-91{mix-blend-mode:multiply;}.cls-5{fill:url(#radial-gradient);}.cls-6{fill:url(#radial-gradient-2);}.cls-7{fill:url(#radial-gradient-3);}.cls-8{fill:url(#radial-gradient-4);}.cls-9{fill:url(#radial-gradient-5);}.cls-10{fill:url(#radial-gradient-6);}.cls-11{fill:url(#radial-gradient-7);}.cls-12{fill:url(#radial-gradient-8);}.cls-13{fill:url(#radial-gradient-9);}.cls-14{fill:url(#radial-gradient-10);}.cls-15{fill:url(#radial-gradient-11);}.cls-16{fill:url(#radial-gradient-12);}.cls-17{fill:#979797;}.cls-18{fill:#646464;}.cls-19{fill:#d8d8d8;}.cls-20{fill:#a8a8a8;}.cls-21{fill:#7b7b7b;}.cls-22{fill:#cdcdcd;}.cls-23{fill:#909090;}.cls-24{fill:#9a9a9a;}.cls-25{fill:#767676;}.cls-26{fill:#d4d4d4;}.cls-27{fill:#d2d2d2;}.cls-28{fill:#e0e0e0;opacity:0.3;}.cls-29{fill:#b0b0b0;}.cls-30{fill:#949494;}.cls-31{fill:#cacaca;}.cls-32{fill:#8e8e8e;}.cls-33{fill:#7d7d7d;}.cls-34{fill:#bfbfbf;}.cls-35{fill:#898989;}.cls-36{fill:#adadad;}.cls-37{fill:#787878;}.cls-38{fill:#5a5a5a;}.cls-39{fill:#515151;}.cls-40{fill:#3b3b3b;}.cls-41{fill:#b6b6b6;}.cls-42{fill:#414141;}.cls-43{fill:#929292;}.cls-44{fill:#f6f6f6;}.cls-45{fill:#505050;}.cls-46{fill:#636363;}.cls-47{fill:#2b2b2b;}.cls-48{fill:#383838;}.cls-49{fill:#6a6a6a;}.cls-50{fill:#c3c3c3;}.cls-51{fill:#e9e9e9;}.cls-52{fill:#575757;}.cls-53{fill:#333;}.cls-54{fill:#818181;}.cls-55{fill:#c6c6c6;}.cls-56{fill:#9e9e9e;}.cls-57{fill:#828282;}.cls-58{fill:#8f8f8f;}.cls-59{fill:#757575;}.cls-60{fill:#a4a4a4;}.cls-61{fill:#dbdbdb;}.cls-62{fill:#b9b9b9;}.cls-63{fill:#353535;}.cls-64{fill:#5b5b5b;}.cls-65{fill:#393939;}.cls-66{fill:#e2e2e2;}.cls-67{fill:#f2f2f2;}.cls-68{fill:#fdfdfd;}.cls-69{fill:#444;}.cls-70{fill:#a0a0a0;}.cls-71{fill:#d6d6d6;}.cls-72{fill:url(#linear-gradient);}.cls-73{fill:#efefef;}.cls-74{fill:#2d2d2d;}.cls-75{fill:#2e2e2e;}.cls-76{fill:#1b1b1b;}.cls-77{opacity:0.4;}.cls-78{fill:#a3a3a3;}.cls-79{fill:url(#linear-gradient-2);}.cls-80{fill:#d9d9d9;}.cls-81{fill:#838383;}.cls-82{fill:#7e7e7e;}.cls-83{fill:#282828;}.cls-84{fill:#1c1c1c;}.cls-85{fill:#232323;}.cls-86{fill:#292929;}.cls-87{fill:#363636;}.cls-88{fill:#737373;}.cls-89{fill:#9d9d9d;}.cls-90,.cls-91{opacity:0.6;}.cls-90{fill:url(#radial-gradient-13);}.cls-91{fill:url(#radial-gradient-14);}.cls-92{fill:#cbcbcb;}.cls-93{fill:#fafafa;}</style><radialGradient id="radial-gradient" cx="1776.37" cy="861.11" r="100.3" gradientTransform="translate(-400.1 441.03) scale(0.97 0.58)" gradientUnits="userSpaceOnUse"><stop offset="0" stop-color="#8f8f8f"/><stop offset="0.14" stop-color="#939393" stop-opacity="0.96"/><stop offset="0.32" stop-color="#9f9f9f" stop-opacity="0.86"/><stop offset="0.51" stop-color="#b3b3b3" stop-opacity="0.68"/><stop offset="0.71" stop-color="#cfcfcf" stop-opacity="0.43"/><stop offset="0.93" stop-color="#f2f2f2" stop-opacity="0.12"/><stop offset="1" stop-color="#fff" stop-opacity="0"/></radialGradient><radialGradient id="radial-gradient-2" cx="1522.83" cy="809.45" r="100.3" gradientTransform="translate(-400.1 434.65) scale(0.97 0.58)" gradientUnits="userSpaceOnUse"><stop offset="0" stop-color="#8f8f8f"/><stop offset="1" stop-color="#fff" stop-opacity="0"/></radialGradient><radialGradient id="radial-gradient-3" cx="1692.21" cy="715.94" r="63.47" gradientTransform="translate(-400.1 423.09) scale(0.97 0.58)" xlink:href="#radial-gradient-2"/><radialGradient id="radial-gradient-4" cx="1910.74" cy="834.84" r="72.55" gradientTransform="translate(-400.1 437.78) scale(0.97 0.58)" xlink:href="#radial-gradient-2"/><radialGradient id="radial-gradient-5" cx="2071.78" cy="802.86" r="107.07" gradientTransform="translate(-400.1 433.83) scale(0.97 0.58)" xlink:href="#radial-gradient-2"/><radialGradient id="radial-gradient-6" cx="2011.8" cy="822.12" r="107.07" gradientTransform="translate(-400.1 436.21) scale(0.97 0.58)" xlink:href="#radial-gradient-2"/><radialGradient id="radial-gradient-7" cx="2011.8" cy="838.06" r="107.07" gradientTransform="translate(-400.1 438.18) scale(0.97 0.58)" xlink:href="#radial-gradient-2"/><radialGradient id="radial-gradient-8" cx="2145.63" cy="872.17" r="107.07" gradientTransform="translate(-400.1 442.4) scale(0.97 0.58)" xlink:href="#radial-gradient-2"/><radialGradient id="radial-gradient-9" cx="1974.1" cy="794.64" r="107.07" gradientTransform="translate(-400.1 432.81) scale(0.97 0.58)" xlink:href="#radial-gradient-2"/><radialGradient id="radial-gradient-10" cx="1869.45" cy="811.46" r="72.55" gradientTransform="translate(-400.1 434.89) scale(0.97 0.58)" xlink:href="#radial-gradient-2"/><radialGradient id="radial-gradient-11" cx="1760.41" cy="725.52" r="72.55" gradientTransform="translate(-400.1 424.27) scale(0.97 0.58)" xlink:href="#radial-gradient-2"/><radialGradient id="radial-gradient-12" cx="1739.86" cy="701.36" r="72.55" gradientTransform="translate(-400.1 421.28) scale(0.97 0.58)" xlink:href="#radial-gradient-2"/><linearGradient id="linear-gradient" x1="278.59" y1="663.51" x2="337.92" y2="663.51" gradientTransform="matrix(-1, 0, 0, 1, 1430.49, 0)" gradientUnits="userSpaceOnUse"><stop offset="0" stop-color="#e7e7e7"/><stop offset="1" stop-color="#c5c5c5"/></linearGradient><linearGradient id="linear-gradient-2" x1="1389.85" y1="428.23" x2="1512.17" y2="428.23" gradientTransform="translate(-383.53 -2.41)" gradientUnits="userSpaceOnUse"><stop offset="0" stop-color="#999"/><stop offset="0.53" stop-color="#a7a7a7"/><stop offset="1" stop-color="#acacac"/></linearGradient><radialGradient id="radial-gradient-13" cx="113.73" cy="948.51" r="64.15" gradientTransform="matrix(-0.97, 0, 0, 0.58, 1592.49, 451.84)" xlink:href="#radial-gradient"/><radialGradient id="radial-gradient-14" cx="158.57" cy="906.82" r="64.15" gradientTransform="matrix(-0.97, 0, 0, 0.58, 1592.49, 446.68)" xlink:href="#radial-gradient"/></defs><g class="cls-1"><g id="Layer_1" data-name="Layer 1"><rect class="cls-2" width="1616.39" height="1077.59"/><path class="cls-3" d="M1205.25,731C942.44,593.77,781.83,345.56,682.55,79.83a537.43,537.43,0,0,1-22-77.42H1920V899.34c-115.31-13.49-231.58-30.72-349.74-51.52C1438.86,824.45,1322.05,792.33,1205.25,731Z" transform="translate(-303.61 -2.41)"/><path class="cls-2" d="M660.51,2.41a537.43,537.43,0,0,0,22,77.42C781.83,345.56,942.44,593.77,1205.25,731c116.8,61.32,233.61,93.44,365,116.81,118.16,20.8,234.43,38,349.74,51.52V1080H303.61V2.41Z" transform="translate(-303.61 -2.41)"/><path class="cls-4" d="M947.66,946.49c68.49-.61,198.21-9.12,79.91-129.88-178.66-175.27,185.36-249.86,368.8-250.49,135.38-.47,396.22,20.84,523.63,32V1080H652.34C639.12,978.63,884.43,947.05,947.66,946.49Z" transform="translate(-303.61 -2.41)"/><path class="cls-5" d="M1422.61,936.41c0,32.39-44.93,58.65-100.34,58.65s-100.34-26.26-100.34-58.65,44.92-58.67,100.34-58.67S1422.61,904,1422.61,936.41Z" transform="translate(-303.61 -2.41)"/><path class="cls-6" d="M1176.77,900.3c0,32.4-44.93,58.66-100.34,58.66S976.09,932.7,976.09,900.3s44.92-58.66,100.34-58.66S1176.77,867.91,1176.77,900.3Z" transform="translate(-303.61 -2.41)"/><path class="cls-7" d="M1304.16,835c0,20.5-28.43,37.12-63.5,37.12s-63.5-16.62-63.5-37.12,28.43-37.12,63.5-37.12S1304.16,814.45,1304.16,835Z" transform="translate(-303.61 -2.41)"/><path class="cls-8" d="M1525.13,918c0,23.43-32.49,42.43-72.58,42.43S1380,941.47,1380,918s32.49-42.43,72.57-42.43S1525.13,894.61,1525.13,918Z" transform="translate(-303.61 -2.41)"/><path class="cls-9" d="M1715.81,895.7c0,34.58-48,62.61-107.12,62.61s-107.11-28-107.11-62.61,48-62.63,107.11-62.63S1715.81,861.12,1715.81,895.7Z" transform="translate(-303.61 -2.41)"/><path class="cls-10" d="M1657.66,909.16c0,34.58-48,62.61-107.12,62.61s-107.11-28-107.11-62.61,48-62.63,107.11-62.63S1657.66,874.57,1657.66,909.16Z" transform="translate(-303.61 -2.41)"/><path class="cls-11" d="M1657.66,920.31c0,34.58-48,62.61-107.12,62.61s-107.11-28-107.11-62.61,48-62.63,107.11-62.63S1657.66,885.72,1657.66,920.31Z" transform="translate(-303.61 -2.41)"/><path class="cls-12" d="M1787.42,944.14c0,34.58-48,62.61-107.12,62.61s-107.11-28-107.11-62.61,48-62.63,107.11-62.63S1787.42,909.55,1787.42,944.14Z" transform="translate(-303.61 -2.41)"/><path class="cls-13" d="M1621.1,890c0,34.58-48,62.62-107.12,62.62s-107.11-28-107.11-62.62,48-62.63,107.11-62.63S1621.1,855.37,1621.1,890Z" transform="translate(-303.61 -2.41)"/><path class="cls-14" d="M1485.09,901.71c0,23.43-32.49,42.42-72.57,42.42s-72.58-19-72.58-42.42,32.49-42.44,72.58-42.44S1485.09,878.28,1485.09,901.71Z" transform="translate(-303.61 -2.41)"/><path class="cls-15" d="M1379.37,841.64c0,23.43-32.5,42.43-72.58,42.43s-72.57-19-72.57-42.43,32.48-42.43,72.57-42.43S1379.37,818.21,1379.37,841.64Z" transform="translate(-303.61 -2.41)"/><path class="cls-16" d="M1359.44,824.75c0,23.43-32.49,42.43-72.57,42.43s-72.58-19-72.58-42.43,32.49-42.43,72.58-42.43S1359.44,801.32,1359.44,824.75Z" transform="translate(-303.61 -2.41)"/><polygon class="cls-17" points="1267.05 927.86 1358.71 874.94 1358.71 592.04 1267.05 644.96 1267.05 927.86"/><polygon class="cls-18" points="1001.87 774.11 1267.05 927.21 1267.04 644.99 1000.33 491.81 1001.87 774.11"/><polygon class="cls-19" points="1092.02 438.87 1358.71 592.06 1267.01 645 1000.33 491.81 1092.02 438.87"/><polygon class="cls-18" points="1272.8 678.15 1352.95 631.87 1352.95 645.09 1272.8 691.38 1272.8 678.15"/><polygon class="cls-18" points="1272.8 698.51 1352.95 652.23 1352.95 665.45 1272.8 711.73 1272.8 698.51"/><polygon class="cls-18" points="1272.8 864.32 1352.95 818.03 1352.95 831.25 1272.8 877.53 1272.8 864.32"/><polygon class="cls-18" points="1272.8 884.67 1352.95 838.39 1352.95 851.62 1272.8 897.89 1272.8 884.67"/><path class="cls-20" d="M1249.72,813.34h0V799.51l9.93,5,17.46-10.09c5.68-3.27,14.91-3.27,20.59,0L1473.1,895.71l10-4.88v13.68h0c.22,2.31-1.17,4.66-4.22,6.42l-23.16,13.38c-5.68,3.27-14.9,3.27-20.59,0L1254,819.69C1250.93,817.94,1249.53,815.63,1249.72,813.34Z" transform="translate(-303.61 -2.41)"/><path class="cls-21" d="M1473.1,895.71l10-4.88v13.68h0c.22,2.31-1.17,4.66-4.22,6.42l-23.16,13.38a21.11,21.11,0,0,1-10,2.44V879.89Z" transform="translate(-303.61 -2.41)"/><path class="cls-22" d="M1455.71,909.68c-5.68,3.29-14.9,3.29-20.59,0L1254,805.08c-5.69-3.29-5.69-8.6,0-11.88l23.15-13.37c5.68-3.29,14.91-3.29,20.59,0l181.18,104.6c5.68,3.28,5.68,8.6,0,11.89Z" transform="translate(-303.61 -2.41)"/><path class="cls-23" d="M1191.28,471.83l11.85-6.76a3.25,3.25,0,0,1,.81-.46h0a5,5,0,0,1,4.23.68l341,196.86a14.63,14.63,0,0,1,6.62,11.47V935.45c0,2.12-.74,3.6-1.93,4.29a4.58,4.58,0,0,1-.56.25l-11.79,6.78L1539,934l3.52,1.46L1208.18,742.42a14.63,14.63,0,0,1-6.63-11.48V479Z" transform="translate(-303.61 -2.41)"/><path class="cls-22" d="M1203.13,465.07a3.25,3.25,0,0,1,.81-.46h0a5,5,0,0,1,4.23.68l341,196.86a13,13,0,0,1,4.17,4.16L1325.38,810.08l-117.2-67.66a14.63,14.63,0,0,1-6.63-11.48V479l-10.27-7.14Z" transform="translate(-303.61 -2.41)"/><path class="cls-20" d="M1189.3,737.94a14.6,14.6,0,0,0,6.62,11.47l341,196.86c3.66,2.11,6.62.4,6.62-3.82V680.6a14.61,14.61,0,0,0-6.62-11.46l-341-196.86c-3.66-2.12-6.62-.4-6.62,3.82Z" transform="translate(-303.61 -2.41)"/><polygon class="cls-3" points="892.12 716.35 1233.47 913.43 1233.47 677.73 892.12 480.65 892.12 716.35"/><polygon class="cls-2" points="895.46 482.58 895.46 713.75 1233.47 908.91 1233.47 913.43 892.12 716.35 892.12 480.65 895.46 482.58"/><polygon class="cls-24" points="931.77 841.97 955.56 828.38 955.56 729.74 931.77 729.74 931.77 841.97"/><polygon class="cls-25" points="931.77 841.97 917.93 833.63 917.93 729.74 931.77 729.74 931.77 841.97"/><path class="cls-26" d="M1229,652.81h0c7-4,16.56-3.41,27.17,2.71,21.24,12.26,38.47,42.09,38.47,66.63,0,12-4.11,20.48-10.78,24.61a18.66,18.66,0,0,1-1.84.93l0,0-57.7,30.13-59.74-94.33Z" transform="translate(-303.61 -2.41)"/><path class="cls-24" d="M1173,679.93h0c9.85-2.45,19.37-3.47,29.24,2.51,21,12.7,38.47,42.09,38.47,66.62,0,11.23-3.64,19.35-9.58,23.74v0c-54.52,39-110.47,118.26-110.47,118.26s-48.23-88.35-119.3-189.23C1088.33,701.83,1173,679.93,1173,679.93Z" transform="translate(-303.61 -2.41)"/><path class="cls-25" d="M1125.37,861.38c0,54.45-38.23,76.52-85.38,49.3s-85.38-93.43-85.38-147.89,38.23-76.51,85.38-49.28S1125.37,806.94,1125.37,861.38Z" transform="translate(-303.61 -2.41)"/><path class="cls-27" d="M1115.91,810.85l-59.68,30.4-34.39-57.1,59.34-34.64A207,207,0,0,1,1115.91,810.85Z" transform="translate(-303.61 -2.41)"/><path class="cls-2" d="M1063.62,825.73c0,15.08-10.58,21.18-23.63,13.65s-23.63-25.86-23.63-40.93,10.58-21.18,23.63-13.64S1063.62,810.66,1063.62,825.73Z" transform="translate(-303.61 -2.41)"/><path class="cls-28" d="M1049.5,779.89c-43.09-24.88-78.72-8.57-84.52,36-6.61-17.81-10.37-36-10.37-53.1,0-54.45,38.23-76.51,85.38-49.28s85.38,93.43,85.38,147.87a102.1,102.1,0,0,1-.85,13.3C1110.05,835.66,1081.88,798.58,1049.5,779.89Z" transform="translate(-303.61 -2.41)"/><polygon class="cls-29" points="1094.6 821.1 1080.29 812.84 1080.29 697.52 1094.6 705.79 1094.6 821.1"/><polygon class="cls-30" points="1108.91 812.84 1094.6 821.1 1094.6 705.79 1108.91 697.52 1108.91 812.84"/><polygon class="cls-31" points="1094.6 705.79 1080.29 697.52 1094.6 689.26 1108.92 697.52 1094.6 705.79"/><polygon class="cls-32" points="1127.65 840.26 1113.35 832 1113.35 692.96 1127.65 701.22 1127.65 840.26"/><polygon class="cls-33" points="1141.97 832 1127.64 840.26 1127.64 701.22 1141.97 692.96 1141.97 832"/><polygon class="cls-34" points="1127.65 701.22 1113.34 692.96 1127.65 684.7 1141.97 692.96 1127.65 701.22"/><polygon class="cls-35" points="1160.71 859.13 1146.39 850.87 1146.39 687.45 1160.71 695.71 1160.71 859.13"/><polygon class="cls-24" points="1175.02 850.87 1160.71 859.13 1160.71 695.71 1175.02 687.45 1175.02 850.87"/><polygon class="cls-36" points="1160.71 695.71 1146.39 687.45 1160.71 679.19 1175.03 687.45 1160.71 695.71"/><polygon class="cls-37" points="1160.67 859.36 1146.36 851.09 1146.36 687.67 1160.67 695.93 1160.67 859.36"/><polygon class="cls-38" points="1174.98 851.09 1160.67 859.36 1160.67 695.93 1174.98 687.67 1174.98 851.09"/><polygon class="cls-30" points="1160.67 695.93 1146.35 687.67 1160.67 679.4 1174.99 687.67 1160.67 695.93"/><polygon class="cls-39" points="1193.77 878.48 1179.46 870.21 1179.46 681.93 1193.77 690.19 1193.77 878.48"/><polygon class="cls-40" points="1208.07 870.21 1193.77 878.48 1193.77 690.19 1208.07 681.93 1208.07 870.21"/><polygon class="cls-25" points="1193.77 690.2 1179.46 681.93 1193.77 673.66 1208.08 681.93 1193.77 690.2"/><path class="cls-41" d="M1279,582.24l-1.68-2.57,8.67-7.37c13.18-7.56,24.82-5.64,41.27,3.85,17.27,10,32.53,27.33,41.82,45.77,6,11.81,9.46,24.06,9.46,35.12,0,13.07-2,19.33-9.08,25.37l-10.26,6.1-7.51-1.88c-7.26-.25-15.58-2.82-24.43-7.92a100.94,100.94,0,0,1-23.82-19.63c-16.32-18-27.45-41.54-27.45-61.25A37.55,37.55,0,0,1,1279,582.24Z" transform="translate(-303.61 -2.41)"/><path class="cls-42" d="M1311.36,611.12c0,12.92,10.48,29.45,23.4,36.92s23.4,3,23.4-9.91-10.48-29.44-23.4-36.9S1311.36,598.2,1311.36,611.12Z" transform="translate(-303.61 -2.41)"/><path class="cls-43" d="M1325.26,619.14c0,5.25,4.26,12,9.5,15s9.49,1.22,9.5-4-4.25-12-9.5-15S1325.26,613.9,1325.26,619.14Z" transform="translate(-303.61 -2.41)"/><path class="cls-18" d="M1268.37,603.42c0,28.32,23,64.54,51.28,80.88s51.27,6.65,51.27-21.67-23-64.52-51.27-80.88S1268.37,575.1,1268.37,603.42Z" transform="translate(-303.61 -2.41)"/><path class="cls-44" d="M1282.12,611.36c0,20.73,16.8,47.23,37.53,59.2s37.53,4.86,37.53-15.86-16.8-47.23-37.53-59.21S1282.12,590.63,1282.12,611.36Z" transform="translate(-303.61 -2.41)"/><path class="cls-18" d="M1296.25,619.52c0,12.92,10.48,29.45,23.4,36.91s23.4,3,23.4-9.89-10.48-29.45-23.4-36.91S1296.25,606.59,1296.25,619.52Z" transform="translate(-303.61 -2.41)"/><path class="cls-44" d="M1310.15,627.55c0,5.24,4.25,12,9.5,15s9.5,1.24,9.5-4-4.26-12-9.5-15S1310.15,622.3,1310.15,627.55Z" transform="translate(-303.61 -2.41)"/><polygon class="cls-29" points="948.24 655.94 923.7 670.11 933.96 674.75 959.15 660.2 948.24 655.94"/><polygon class="cls-29" points="948.24 684.34 923.7 698.5 933.96 682.02 959.15 667.48 948.24 684.34"/><path class="cls-45" d="M1261,663.64l58.43-33.74a.37.37,0,0,1,.14-.07l.06,0h0a1.63,1.63,0,0,1,1.44.21,5,5,0,0,1,2.24,3.89,1.46,1.46,0,0,1-.77,1.49v0l-85,49-3.21-5.43Z" transform="translate(-303.61 -2.41)"/><path class="cls-46" d="M1233.81,680.41a4.94,4.94,0,0,0,2.24,3.89c1.24.72,2.25.14,2.25-1.29a5,5,0,0,0-2.25-3.89C1234.81,678.4,1233.81,679,1233.81,680.41Z" transform="translate(-303.61 -2.41)"/><path class="cls-47" d="M1568.52,570.18s1.5,6.7,1.19,8.78-1.4,5.67-10,4.3-21.42-5.06-23.28-8.76,4.19-5.53,12.62-2.94a11,11,0,0,0,9.09-1.77Z" transform="translate(-303.61 -2.41)"/><path class="cls-48" d="M1603.62,510c-16.7-9.84-44.18-24.16-47.79-14.15-5.22,14.49-.06,74.59-.06,74.59s7.52,4.58,14.54.78c1.15-24,1.92-52.07,1.92-52.07s14.64,17.32,31.39,23.57Z" transform="translate(-303.61 -2.41)"/><polygon class="cls-20" points="1246.75 538.74 1246.75 603.46 1254.66 620.51 1284.2 625.08 1305.83 612.6 1305.83 547.88 1246.75 538.74"/><polygon class="cls-49" points="1270.6 542.43 1246.75 538.74 1246.75 603.46 1254.66 620.51 1270.6 622.98 1270.6 542.43"/><polygon class="cls-21" points="1254.66 555.8 1254.66 620.51 1284.2 625.08 1284.2 560.37 1254.66 555.8"/><polygon class="cls-22" points="1268.37 526.26 1297.91 530.83 1305.83 547.88 1284.2 560.37 1254.66 555.8 1246.75 538.74 1268.37 526.26"/><path class="cls-50" d="M1613,412.72c-.9-14.82-1.12-36-1.18-42.28h0c.14-1.92,2.58-8.11,3.19-10.41.25-1-7.14-4.51-7.14-4.51s-1.38-10.17-1.6-11.82-2.11-1.29-2.32,3.19a109.57,109.57,0,0,0,.55,12.61,3.14,3.14,0,0,1-.5,2.24s-.66-3.81-.21-5.43-1.64-1.74-2.53,1.34-.4,4.76.65,8.22A37.32,37.32,0,0,1,1603,371c.16,1.83.44,5.08.61,7.44.46,6.2.5,5.65-.25,22.39-.1,2.26,1.55,19.48,2,23.25l-3.32-7.83A188,188,0,0,0,1613.84,463l10.11-3.42S1616.38,426.37,1613,412.72Z" transform="translate(-303.61 -2.41)"/><path class="cls-2" d="M1605.35,438c2.75,15.17,5.45,24.94,5.45,24.94l13.15-3.42s-2-12.29-4.43-25.4C1614.79,436.13,1610.07,436.78,1605.35,438Z" transform="translate(-303.61 -2.41)"/><polygon class="cls-51" points="1190.56 491.86 1247.92 515.1 1271.34 488.38 1219.49 465.2 1190.56 491.86"/><path class="cls-47" d="M1562.35,534.09s-.72,6.46-1.54,8.2-2.68,4.6-9,.62-15.25-11.37-15.67-15.26,4.82-3.58,10.65,1.43a8.14,8.14,0,0,0,7.58,1.34Z" transform="translate(-303.61 -2.41)"/><path class="cls-47" d="M1542.63,589.13s2,6.58,1.89,8.66-1,5.77-9.65,5.09-21.76-3.33-23.91-6.88,3.74-5.85,12.35-3.92a11,11,0,0,0,8.92-2.5Z" transform="translate(-303.61 -2.41)"/><path class="cls-52" d="M1586.25,533.24s-58.13-32.07-62.18-17.2,5.87,74.36,5.87,74.36,7.87,4,14.56-.38c-.75-24-2.23-52-2.23-52s23.12,23.32,43.69,22.38,46.2-19.72,31.53-43.51C1600.13,515.56,1586.25,533.24,1586.25,533.24Z" transform="translate(-303.61 -2.41)"/><path class="cls-2" d="M1599.65,454.38s-12.56,4.4-17.18,16.3-10,36.68-10,36.68l-1.58,8.4s-5.1,38.12,41.45,28.15c18.79-4,12.09-13.69,12.53-16.77s-1.75-13,.08-26.19,6.11-57.58-18-53.84C1595.36,450.85,1599.65,454.38,1599.65,454.38Z" transform="translate(-303.61 -2.41)"/><path class="cls-50" d="M1579.68,424.91s-.06.11-.15.31c-.48,1.06-1.9,4.62-1.2,7.84.83,3.84-3.11,5.46-3.11,5.46s-1,1,.85,1.62a16.49,16.49,0,0,1,2.73,1.08s1.51,7.31,2.23,8.51,4,1,6.84,1,5.12,4.63,5.39,7.09c8.12-1.85,14.54-8.89,14.54-8.89l-2.64-6.41S1595.17,413.92,1579.68,424.91Z" transform="translate(-303.61 -2.41)"/><path class="cls-53" d="M1588.46,440.49s-5.07-8.12-3.73-12.53-5.59-1.78-5.59-1.78-6.39-5.38-4.49-10.88a4,4,0,0,0,3.22.82l-1.27-2.58s6.42.78,8.31.43a7.66,7.66,0,0,1-2.64-2.77s7,1.09,10.48,1.15,11.58-.61,14,6.22c4.29,5.74,6.65,21.89-.48,26.55-4.24,3-6.78,1.83-6.78,1.83s-3.1-7.51-3.55-10.43-7.05-4.37-5.85,1.13a11.72,11.72,0,0,1,.43,4.32Z" transform="translate(-303.61 -2.41)"/><path class="cls-50" d="M1579.9,495.88s-9,21-9.54,24c-6.12-2.25-32.56-8.54-38.74-9.67l-.06-.1a30.64,30.64,0,0,0-4.44-5.37,6.1,6.1,0,0,1-2.34-4.73c-.1-1.16-2.61-2.41-2.77.68a9.67,9.67,0,0,0,1.35,5.35l-10.1-3.86s2.58,9.7,15.54,14.71a.35.35,0,0,1,0,.06s17.64,8.47,30.14,12.65,20.93,7.38,25.6-.29,14-33.63,14-33.63Z" transform="translate(-303.61 -2.41)"/><path class="cls-2" d="M1575,504.52s6.35-30.95,9.23-35.67,14.93-6.06,19.06,4-6.48,37.91-6.48,37.91Z" transform="translate(-303.61 -2.41)"/><polygon class="cls-3" points="811.75 360.56 949.3 414.39 890 421.46 811.75 360.56"/><polygon class="cls-22" points="890.96 421.34 881.78 447.01 811.75 360.56 890.96 421.34"/><polygon class="cls-20" points="871.29 427.25 881.78 447.01 811.75 360.56 871.29 427.25"/><polygon class="cls-3" points="811.75 360.56 830.27 451.24 871.29 427.25 811.75 360.56"/><polygon class="cls-26" points="863.67 268.53 1001.22 322.37 941.91 329.43 863.67 268.53"/><polygon class="cls-29" points="942.87 329.31 933.69 354.99 863.67 268.53 942.87 329.31"/><polygon class="cls-54" points="923.2 335.22 933.69 354.99 863.67 268.53 923.2 335.22"/><polygon class="cls-26" points="863.67 268.53 882.18 359.22 923.2 335.22 863.67 268.53"/><path class="cls-54" d="M1245.7,896.56l7.63,0a52.47,52.47,0,0,1,13.61-10.91c28.31-16.34,74.21-16.34,102.52,0a53.63,53.63,0,0,1,12.94,10.13l8.28,0v19.55c0,10.7-7.09,21.4-21.23,29.56-28.31,16.35-74.21,16.35-102.52,0-14.15-8.16-21.22-18.86-21.23-29.57V896.56Z" transform="translate(-303.61 -2.41)"/><path class="cls-55" d="M1387.1,895.71l3.58,0v19.55c0,10.7-7.09,21.4-21.23,29.56l-.19.1V924.13C1379.18,919.4,1382.89,906.21,1387.1,895.71Z" transform="translate(-303.61 -2.41)"/><path class="cls-56" d="M1368.47,924.49c.27-.11.53-.23.8-.36V944.9c-15.89,9.11-37.25,13.1-57.94,12V936.28C1330.76,936.93,1351.2,932.12,1368.47,924.49Z" transform="translate(-303.61 -2.41)"/><path class="cls-57" d="M1245.7,896.56l7.63,0a52.47,52.47,0,0,1,13.61-10.91c28.31-16.34,74.21-16.34,102.52,0a53.63,53.63,0,0,1,12.94,10.13l4.7,0c-4.21,10.5-7.92,23.69-17.83,28.42v0c-.27.13-.53.25-.8.36-17.27,7.63-37.71,12.44-57.14,11.79v0c-16.22-.54-31.73-4.89-44.12-14.56v0a62.21,62.21,0,0,1-16.68-20.08,62.21,62.21,0,0,0,16.68,20.08V945l-.27-.15c-14.15-8.16-21.22-18.86-21.23-29.57V896.56Z" transform="translate(-303.61 -2.41)"/><path class="cls-58" d="M1311.33,936.28v20.59c-16.09-.88-31.75-4.85-44.12-11.92V921.72C1279.6,931.39,1295.11,935.74,1311.33,936.28Z" transform="translate(-303.61 -2.41)"/><path class="cls-59" d="M1266.94,926.16c28.31,16.35,74.21,16.35,102.52,0s28.31-42.84,0-59.19-74.21-16.34-102.52,0S1238.63,909.82,1266.94,926.16Z" transform="translate(-303.61 -2.41)"/><path class="cls-60" d="M1266.94,867c28.31-16.34,74.21-16.34,102.52,0l.06,0c28.25,16.35,28.23,42.82-.06,59.15a2.25,2.25,0,0,1-.21.12l-51.19-29.56-51.32-29.63Z" transform="translate(-303.61 -2.41)"/><path class="cls-61" d="M1383.13,877.93c13.49,15.66,8.93,35.18-13.67,48.23a2.25,2.25,0,0,1-.21.12l-51.19-29.56Z" transform="translate(-303.61 -2.41)"/><path class="cls-24" d="M1266.94,926.16c-28.24-16.3-28.31-42.71-.2-59.07l51.32,29.63L1267,926.2Z" transform="translate(-303.61 -2.41)"/><path class="cls-20" d="M1318.06,896.72l51.19,29.56c-28.3,16.21-74,16.19-102.25-.08Z" transform="translate(-303.61 -2.41)"/><path class="cls-62" d="M1318.06,896.72l51.19,29.56c-15.86,9.08-37.17,13.07-57.83,12Z" transform="translate(-303.61 -2.41)"/><path class="cls-63" d="M1155.28,749.51a18.12,18.12,0,0,1-1.25,4.39,20.72,20.72,0,0,0-1.17,5.64,58.08,58.08,0,0,1,10.92,8.68c5,5.32,8.68,5.9,12.44,5,1.79-.36,2.24-3.85.9-5.37S1163,757.39,1163.51,753C1161.36,750.85,1155.28,749.51,1155.28,749.51Z" transform="translate(-303.61 -2.41)"/><path class="cls-64" d="M1176.22,771.55c-3.76.89-6.67.38-12.44-5.25-4.26-4.17-9.85-7.39-10.75-8.28-.12.87-.17,1.78-.17,1.78a49.12,49.12,0,0,1,9.72,7.65c5.86,6.06,9.88,6.67,13.64,5.78,1.31-.26,1.89-2.19,1.59-3.8A2.39,2.39,0,0,1,1176.22,771.55Z" transform="translate(-303.61 -2.41)"/><path class="cls-65" d="M1134.8,693.6s13.27,9.15,29.8,18.06c-8.16,13.26-9.19,35.06-8.63,39,5.09,4.77,8.79,2.15,8.79,2.15s17-37.61,19.28-43.59-32.77-33.3-32.77-33.3Z" transform="translate(-303.61 -2.41)"/><path class="cls-63" d="M1149.67,785.49s-1,6.94-2,13.29.54,12.19,5.16,14.36c4.35.13,8.7-3.8,7.21-11.14s-.92-13.6-1-17.06S1149.67,785.49,1149.67,785.49Z" transform="translate(-303.61 -2.41)"/><path class="cls-65" d="M1111.15,708.1s8.15,4.6,26.68,17.67c5.52,4.07,5.73,36.35,11.07,59.25,4,7.15,10.57-.47,10.57-.47s.87-50.66-3.44-66.64c-1.66-6.18-26-21.63-26-21.63Z" transform="translate(-303.61 -2.41)"/><path class="cls-66" d="M1165.21,671.92a4,4,0,0,0,1.5-1.56l-3.13,1.75A13.33,13.33,0,0,0,1165.21,671.92Z" transform="translate(-303.61 -2.41)"/><path class="cls-67" d="M1171.45,663c-9.88,3.45-25.86-19.81-28.88-22.32-1.45-1.2-1.85-3.29-1.92-5.89h-7.38c1.87,8,4.72,15.64,5.77,17.07,1.93,2.63,24,24,29.37,15.83C1165.09,666,1172.1,666.83,1171.45,663Z" transform="translate(-303.61 -2.41)"/><path class="cls-65" d="M1132.12,702.09c-.67-7.32-1.53-14.52.26-17.84,1.52-2.85-.84-12.89-.84-12.89l-34.6,1.35s-4.82,9.94.55,24.06c3.07,8.07,7.75,10.22,29,21.14C1125.38,711.3,1124,700.2,1132.12,702.09Z" transform="translate(-303.61 -2.41)"/><path class="cls-68" d="M1142.07,669.55s4.93-55.25-10.2-61-29,8-34.93,21.35-3.82,42.25-3.87,48.44C1113.84,692.59,1142.65,676.41,1142.07,669.55Z" transform="translate(-303.61 -2.41)"/><path class="cls-50" d="M1136.13,586.4s3.77,6.05.39,19.17c-2.75,10.64-3.08,13.64-7.51,14.08s-14-2.55-15.33-11c-1.32-.29-5.06-5.34-2.93-9.38s3.63.38,3.63.38-.09-8.78,6.12-12S1136.13,586.4,1136.13,586.4Z" transform="translate(-303.61 -2.41)"/><path class="cls-69" d="M1121.54,597c0-.52,4.74,6.21,12.31,4a4.65,4.65,0,0,1-3.2-2.62,6.69,6.69,0,0,0,6.89,2.24,10,10,0,0,1-2.75-1.59,7.49,7.49,0,0,0,5.65.42c-1.75-.75-1.49-1.9-1.49-1.9s1.55,1.54,4.54-1.08c-1.22-.16-1.1-5.75-5.5-9.78s-9-8-14.88-7c1.45-1.51,1.23-1.86,3.32-1.53-2.36-1.3-7.53-.28-9,1.89-4.58-1.75-10.27,5.2-7.42,21.89,0-.42.43-3.13,2.06-3.64s3,2.66,2.61,3.46-.55,5.57-.55,5.57l2.1,1.1s-.65-4.14.83-5.39S1121.26,603.31,1121.54,597Z" transform="translate(-303.61 -2.41)"/><polygon class="cls-70" points="834.22 707.8 883.97 679.07 883.97 676.96 803.73 688.09 803.73 690.2 834.22 707.8"/><polygon class="cls-71" points="834.22 705.69 883.97 676.96 853.49 659.36 803.73 688.09 834.22 705.69"/><path class="cls-72" d="M1151.22,682c-2.1-.15-4.49.36-8.19.43s-3.57-2-3.72-5c-1.17.87-1.87,3.2-3.76,4.57s-2.79,0-2.79,0l-.39.3c-13.41-2.37-25.46-12.91-27.58-16.09s.87-16.79,1.39-25.69c0,0-2-8-9.21-3.91s-3.42,33.13-3.42,36.4,26.62,15,39.19,16.16a17.33,17.33,0,0,0,7.25,2.5C1150.82,691.4,1153.33,682.09,1151.22,682Z" transform="translate(-303.61 -2.41)"/><path class="cls-50" d="M1151.22,682c-2.1-.15-4.49.36-8.19.43s-3.57-2-3.72-5c-1.17.87-1.87,3.2-3.76,4.57s-2.79,0-2.79,0l-.39.3c-13.41-2.37-25.46-12.91-27.58-16.09-1.41-2.12-.63-8.51.23-15.17.73-5.86,4.88-13.25,4-22.67,0,0-.64-10.2-7.81-6.14-3.69,2.09-6.9,15.06-8.69,25.91a142.47,142.47,0,0,0-1,24.66c0,3.26,28.58,15.22,41.15,16.37a17.33,17.33,0,0,0,7.25,2.5C1150.82,691.4,1153.33,682.09,1151.22,682Z" transform="translate(-303.61 -2.41)"/><path class="cls-67" d="M1128.19,679.37c-11-3.78-21.59-10.51-23.4-13.22-1.41-2.12-.63-8.51.23-15.17.73-5.86,4.88-13.25,4-22.67,0,0-.64-10.2-7.81-6.14-3.69,2.09-6.9,15.06-8.69,25.91a142.47,142.47,0,0,0-1,24.66c0,2.7,19.42,12.91,33.29,16.47C1124.56,686.9,1126,681.68,1128.19,679.37Z" transform="translate(-303.61 -2.41)"/><polygon class="cls-2" points="883.97 641.77 834.22 705.69 832.59 704.82 832.59 669.63 882.35 640.9 883.97 641.77"/><polygon class="cls-73" points="883.97 676.96 834.22 705.69 834.22 670.49 883.97 641.77 883.97 676.96"/><path class="cls-20" d="M1459.33,462.78h0v-8.5l-6.11,3.07-10.72-6.19a14,14,0,0,0-12.64,0l-107.74,62.2-6.13-3v8.4h0c-.14,1.41.72,2.85,2.59,3.94l14.23,8.21a13.94,13.94,0,0,0,12.64,0l111.27-64.25C1458.59,465.6,1459.45,464.18,1459.33,462.78Z" transform="translate(-303.61 -2.41)"/><path class="cls-21" d="M1322.13,513.36l-6.13-3v8.4h0c-.14,1.41.72,2.85,2.59,3.94l14.23,8.21a12.77,12.77,0,0,0,6.14,1.5V503.65Z" transform="translate(-303.61 -2.41)"/><path class="cls-22" d="M1332.82,522a13.94,13.94,0,0,0,12.64,0l111.27-64.24c3.49-2,3.49-5.29,0-7.3l-14.22-8.22a14,14,0,0,0-12.64,0l-111.28,64.25c-3.49,2-3.49,5.28,0,7.3Z" transform="translate(-303.61 -2.41)"/><path class="cls-23" d="M1495.22,253l-7.28-4.15a2,2,0,0,0-.49-.29h0a3.06,3.06,0,0,0-2.6.42l-209.41,120.9a9,9,0,0,0-4.07,7V537.77a2.89,2.89,0,0,0,1.19,2.64,2.07,2.07,0,0,0,.34.15l7.24,4.16,1.51-7.83-2.16.9,205.36-118.57a9,9,0,0,0,4.07-7.05V257.41Z" transform="translate(-303.61 -2.41)"/><path class="cls-22" d="M1487.94,248.88a2,2,0,0,0-.49-.29h0a3.06,3.06,0,0,0-2.6.42l-209.41,120.9a8,8,0,0,0-2.56,2.56l140,88.31,72-41.56a9,9,0,0,0,4.07-7.05V257.41l6.31-4.38Z" transform="translate(-303.61 -2.41)"/><path class="cls-20" d="M1496.44,416.47a9,9,0,0,1-4.07,7L1283,544.42c-2.24,1.29-4.06.24-4.06-2.35V381.25a9,9,0,0,1,4.06-7L1492.37,253.3c2.25-1.29,4.07-.24,4.07,2.35Z" transform="translate(-303.61 -2.41)"/><polygon class="cls-3" points="1188.87 402.28 979.23 523.32 979.23 378.56 1188.87 257.52 1188.87 402.28"/><polygon class="cls-2" points="1186.82 258.7 1186.82 400.68 979.23 520.54 979.23 523.32 1188.87 402.28 1188.87 257.52 1186.82 258.7"/><path class="cls-74" d="M1282.42,875.73s-7.38-2.12-8.79-2.12-5-.1-5.46,1.06-1.52,19.27-.41,23,13.55,4.75,16.18,3.54c1.82-3.34-4.14-7.49-6.58-8.7s.61-8.19,4.05-8.19S1282.42,875.73,1282.42,875.73Z" transform="translate(-303.61 -2.41)"/><path class="cls-69" d="M1268.13,874.73a1.07,1.07,0,0,1,.46-.46c2.57-.34,4.45,1.09,4,2.19s-3.16,18.25,1,22.71c2.14,2.28,7.83,2.26,8.12,2.53-11.54,0-13.51-2.36-14-4C1266.61,894,1267.62,875.89,1268.13,874.73Z" transform="translate(-303.61 -2.41)"/><path class="cls-67" d="M1306.86,772.41s-8.26,8.72-9.25,38.74c1.65,5.75,15.89,2.46,17.7,0s0-7.71,0-7.71h-7.22l2.18-14.43Z" transform="translate(-303.61 -2.41)"/><path class="cls-75" d="M1278.91,873.53l40.48,6.67c2.32-3.17-4.51-18.75-6.83-23.83-7.32-13.65,3.9-26.34,3.9-26.34l18.3-5.28s10,47.68,13.37,58.08c6.07,18.58-52.44,8.18-69.78,5.15C1278.72,885.5,1282,876.85,1278.91,873.53Z" transform="translate(-303.61 -2.41)"/><path class="cls-74" d="M1304.93,892.07s-7.38-2.12-8.79-2.12-5-.1-5.46,1-1.52,19.27-.41,23,13.56,4.76,16.18,3.54c1.82-3.33-4.14-7.48-6.57-8.69s.6-8.19,4-8.19S1304.93,892.07,1304.93,892.07Z" transform="translate(-303.61 -2.41)"/><path class="cls-69" d="M1290.68,891a1.09,1.09,0,0,1,.46-.44c2.57-.35,4.45,1.08,4,2.18s-3.16,18.26,1,22.71c2.14,2.28,7.83,2.26,8.12,2.54-11.53,0-13.51-2.36-14-4C1289.16,910.27,1290.17,892.17,1290.68,891Z" transform="translate(-303.61 -2.41)"/><path class="cls-65" d="M1301,890l40.22-2.4c2.31-3.17-10.15-16.43-12.47-21.5-10.86-20.51-9.22-29.77-9.22-29.77l33.78-1.33s10.34,41.14,13.06,56.31c3.44,19.24-32.6,6.27-64.35,13.29C1302.35,902.05,1304.37,892.84,1301,890Z" transform="translate(-303.61 -2.41)"/><path class="cls-50" d="M1339,736s5.4-.38,7.82,5.71a4.52,4.52,0,0,1,.25,2.72c-.42,1.71.32,4.3,1.09,6.19,1.4,3.55-1,9.78-3.23,12.85a5.1,5.1,0,0,1-5.12-1l-1.64,6.5-14.49-3.25s1.59-5.19-.37-13.07-1.43-11.85,3.67-14.65,12-2,12-2" transform="translate(-303.61 -2.41)"/><path class="cls-76" d="M1344.14,726.14s-3.72,2.66-15.33,3.81-11.78,9.22-10.08,13.28c-3.41,1.38,4.38,13.78,4.51,18.68a14.56,14.56,0,0,0,11.67-1,10.61,10.61,0,0,0,.66-8.24c-1.6-4.3,1-8.61,2.77-7.48.38.24,1.1,7.11,1.4,7.18a3.51,3.51,0,0,0,.86,0c.51-.13-.2-1.87.27-4.86.22-1.43,2-4.47,1.88-5.26a29.34,29.34,0,0,0-1.44-4.17l2.48-.48s2.76.19,2.66-2.44a24.59,24.59,0,0,0-2.31-8.94" transform="translate(-303.61 -2.41)"/><path class="cls-68" d="M1357.59,780.68s-6.37-7.52-19.72-12.49a64.86,64.86,0,0,0-13.33-3.15,20.58,20.58,0,0,0-18.52,8.35c-2.2,2.89-5.25,10.64-.91,21.46s3.17,24.2,3.92,29.63c1,6.89-.75,25.63-.75,25.63s.4,1.43,10.1,3.32l5.06,1c10.06,1.26,21.59,1.84,36-5.42-1.42-8-4.74-25.46-6.27-32.94s4.42-35.37,4.42-35.37" transform="translate(-303.61 -2.41)"/><path class="cls-50" d="M1398.62,746.44a25.54,25.54,0,0,0,2.57-7c.47-3.18,1.45-5.79,3.29-7.64a63.62,63.62,0,0,1,7.49-6c.59-.22,2.37.29.71,1.83s-4.08,3.7-4.06,5c0,.77,4.08,5.23,2.29,8.61s-1.07.75-6.31,8.86C1399.81,754.63,1398.62,746.44,1398.62,746.44Z" transform="translate(-303.61 -2.41)"/><path class="cls-67" d="M1342.07,778.67s3.53-5.5,15.36-.33,24.23.21,24.23.21,12.77-30,15.2-32.45c8.49,3.64,10,4.25,10,4.25s-8.83,30.78-13.69,38.8-24.88,8.8-35.45,7.9S1339.14,786.64,1342.07,778.67Z" transform="translate(-303.61 -2.41)"/><g class="cls-77"><polygon class="cls-78" points="1007.09 493.59 1130.83 422.15 1130.83 421.13 1007.09 492.57 1007.09 493.59"/><polygon class="cls-78" points="1007.09 482.25 1130.83 410.81 1130.83 409.78 1007.09 481.22 1007.09 482.25"/><polygon class="cls-78" points="1007.09 470.9 1130.83 399.46 1130.83 398.44 1007.09 469.88 1007.09 470.9"/><polygon class="cls-78" points="1007.09 459.56 1130.83 388.12 1130.83 387.09 1007.09 458.53 1007.09 459.56"/><polygon class="cls-78" points="1007.09 448.21 1130.83 376.77 1130.83 375.75 1007.09 447.19 1007.09 448.21"/><polygon class="cls-78" points="1007.09 436.87 1130.83 365.43 1130.83 364.4 1007.09 435.85 1007.09 436.87"/><polygon class="cls-78" points="1007.09 425.52 1130.83 354.08 1130.83 353.06 1007.09 424.5 1007.09 425.52"/><polygon class="cls-78" points="1007.09 413.48 1130.83 342.04 1130.83 341.02 1007.09 412.46 1007.09 413.48"/><polygon class="cls-78" points="1007.09 402.14 1130.83 330.7 1130.83 329.67 1007.09 401.12 1007.09 402.14"/><polygon class="cls-78" points="1007.09 390.8 1130.83 319.35 1130.83 318.33 1007.09 389.77 1007.09 390.8"/></g><polygon class="cls-79" points="1007.87 493.74 1025.3 406.65 1040.56 426.53 1054.74 394.71 1068.43 385.66 1082.33 361.99 1095.27 411.93 1111.65 381.11 1127.15 424.11 1128.64 423.58 1111.92 377.22 1095.78 407.61 1082.9 357.9 1067.26 384.54 1053.48 393.65 1040.2 423.47 1024.44 402.94 1006.32 493.44 1007.87 493.74"/><polygon class="cls-80" points="1007.86 493.76 1025.22 413.17 1040.47 438.34 1054.59 407.57 1068.25 409.22 1082.55 386.11 1095.44 411.34 1111.63 386.72 1127.17 424.15 1128.63 423.54 1111.94 383.37 1095.62 408.2 1082.68 382.89 1067.44 407.53 1053.63 405.86 1040.28 434.97 1024.52 408.95 1006.32 493.43 1007.86 493.76"/><polygon class="cls-81" points="1007.83 493.87 1025.41 446.43 1040.88 447.3 1054.36 415.94 1067.88 430.55 1082.85 411.98 1095.71 417.63 1111.67 401.38 1127.24 424.29 1128.55 423.4 1111.9 398.9 1095.35 415.74 1082.38 410.05 1067.8 428.14 1053.86 413.08 1039.87 445.66 1024.33 444.78 1006.35 493.31 1007.83 493.87"/><polygon class="cls-82" points="1007.78 493.98 1025.37 462.57 1040.92 460.77 1054.56 429.68 1068.07 433.56 1082.66 419.32 1095.58 429.76 1111.88 413.69 1127.45 424.49 1128.35 423.2 1111.7 411.65 1095.48 427.65 1082.57 417.2 1067.62 431.79 1053.67 427.78 1039.84 459.31 1024.38 461.09 1006.4 493.21 1007.78 493.98"/><path class="cls-30" d="M1430.17,425.86c0,1.28.75,2.32,1.67,2.32s1.67-1,1.67-2.32-.75-2.31-1.67-2.31S1430.17,424.59,1430.17,425.86Z" transform="translate(-303.61 -2.41)"/><path class="cls-30" d="M1413.79,415.89c0,1.28.75,2.31,1.67,2.31s1.67-1,1.67-2.31-.74-2.31-1.67-2.31S1413.79,414.62,1413.79,415.89Z" transform="translate(-303.61 -2.41)"/><path class="cls-30" d="M1413.79,402.24c0,1.28.75,2.31,1.67,2.31s1.67-1,1.67-2.31-.74-2.31-1.67-2.31S1413.79,401,1413.79,402.24Z" transform="translate(-303.61 -2.41)"/><path class="cls-30" d="M1413.79,387.61c0,1.28.75,2.31,1.67,2.31s1.67-1,1.67-2.31-.74-2.31-1.67-2.31S1413.79,386.34,1413.79,387.61Z" transform="translate(-303.61 -2.41)"/><path class="cls-30" d="M1413.79,381.49c0,1.28.75,2.32,1.67,2.32s1.67-1,1.67-2.32-.74-2.3-1.67-2.3S1413.79,380.22,1413.79,381.49Z" transform="translate(-303.61 -2.41)"/><ellipse class="cls-30" cx="1082.78" cy="360.21" rx="1.67" ry="2.31"/><path class="cls-30" d="M1384.1,386.81c0,1.27.75,2.31,1.67,2.31s1.67-1,1.67-2.31-.75-2.31-1.67-2.31S1384.1,385.53,1384.1,386.81Z" transform="translate(-303.61 -2.41)"/><path class="cls-30" d="M1384.75,413.58c0,1.28.74,2.31,1.67,2.31s1.67-1,1.67-2.31-.75-2.31-1.67-2.31S1384.75,412.31,1384.75,413.58Z" transform="translate(-303.61 -2.41)"/><path class="cls-30" d="M1384.75,421.24c0,1.27.74,2.31,1.67,2.31s1.67-1,1.67-2.31-.75-2.31-1.67-2.31S1384.75,420,1384.75,421.24Z" transform="translate(-303.61 -2.41)"/><path class="cls-30" d="M1369.85,435.17c0,1.27.75,2.31,1.67,2.31s1.67-1,1.67-2.31-.75-2.31-1.67-2.31S1369.85,433.89,1369.85,435.17Z" transform="translate(-303.61 -2.41)"/><path class="cls-30" d="M1369.85,431.15c0,1.27.75,2.31,1.67,2.31s1.67-1,1.67-2.31-.75-2.31-1.67-2.31S1369.85,429.87,1369.85,431.15Z" transform="translate(-303.61 -2.41)"/><path class="cls-30" d="M1369.85,410.62c0,1.28.75,2.31,1.67,2.31s1.67-1,1.67-2.31-.75-2.31-1.67-2.31S1369.85,409.34,1369.85,410.62Z" transform="translate(-303.61 -2.41)"/><path class="cls-30" d="M1369.85,387.61c0,1.28.75,2.31,1.67,2.31s1.67-1,1.67-2.31-.75-2.31-1.67-2.31S1369.85,386.34,1369.85,387.61Z" transform="translate(-303.61 -2.41)"/><path class="cls-30" d="M1356,396.84c0,1.27.74,2.31,1.67,2.31s1.67-1,1.67-2.31-.75-2.31-1.67-2.31S1356,395.56,1356,396.84Z" transform="translate(-303.61 -2.41)"/><path class="cls-30" d="M1356,409c0,1.28.74,2.31,1.67,2.31s1.67-1,1.67-2.31-.75-2.31-1.67-2.31S1356,407.69,1356,409Z" transform="translate(-303.61 -2.41)"/><path class="cls-30" d="M1356,417.12c0,1.28.74,2.31,1.67,2.31s1.67-1,1.67-2.31-.75-2.31-1.67-2.31S1356,415.84,1356,417.12Z" transform="translate(-303.61 -2.41)"/><path class="cls-30" d="M1356,431.82c0,1.28.74,2.31,1.67,2.31s1.67-1,1.67-2.31-.75-2.31-1.67-2.31S1356,430.54,1356,431.82Z" transform="translate(-303.61 -2.41)"/><path class="cls-30" d="M1342.12,462.81c0,1.27.75,2.31,1.67,2.31s1.68-1,1.68-2.31-.75-2.31-1.68-2.31S1342.12,461.53,1342.12,462.81Z" transform="translate(-303.61 -2.41)"/><path class="cls-30" d="M1342.12,448.79c0,1.28.75,2.31,1.67,2.31s1.68-1,1.68-2.31-.75-2.31-1.68-2.31S1342.12,447.52,1342.12,448.79Z" transform="translate(-303.61 -2.41)"/><path class="cls-30" d="M1342.12,438.42c0,1.28.75,2.31,1.67,2.31s1.68-1,1.68-2.31-.75-2.31-1.68-2.31S1342.12,437.15,1342.12,438.42Z" transform="translate(-303.61 -2.41)"/><path class="cls-30" d="M1342.12,427.2c0,1.28.75,2.31,1.67,2.31s1.68-1,1.68-2.31-.75-2.31-1.68-2.31S1342.12,425.92,1342.12,427.2Z" transform="translate(-303.61 -2.41)"/><path class="cls-30" d="M1326.83,406.86c0,1.27.75,2.31,1.67,2.31s1.67-1,1.67-2.31-.74-2.31-1.67-2.31S1326.83,405.59,1326.83,406.86Z" transform="translate(-303.61 -2.41)"/><path class="cls-30" d="M1326.83,412.93c0,1.27.75,2.31,1.67,2.31s1.67-1,1.67-2.31-.74-2.31-1.67-2.31S1326.83,411.66,1326.83,412.93Z" transform="translate(-303.61 -2.41)"/><path class="cls-30" d="M1326.83,448.42c0,1.28.75,2.31,1.67,2.31s1.67-1,1.67-2.31-.74-2.31-1.67-2.31S1326.83,447.15,1326.83,448.42Z" transform="translate(-303.61 -2.41)"/><path class="cls-30" d="M1326.83,464.28c0,1.27.75,2.31,1.67,2.31s1.67-1,1.67-2.31-.74-2.31-1.67-2.31S1326.83,463,1326.83,464.28Z" transform="translate(-303.61 -2.41)"/><path class="cls-30" d="M1309,495.45c0,1.28.75,2.31,1.68,2.31s1.67-1,1.67-2.31-.75-2.31-1.67-2.31S1309,494.18,1309,495.45Z" transform="translate(-303.61 -2.41)"/><path class="cls-30" d="M1397.22,418.62c0,1.27.74,2.31,1.67,2.31s1.67-1,1.67-2.31-.75-2.31-1.67-2.31S1397.22,417.34,1397.22,418.62Z" transform="translate(-303.61 -2.41)"/><path class="cls-30" d="M1397.85,412.5c0,1.28.75,2.31,1.67,2.31s1.67-1,1.67-2.31-.74-2.31-1.67-2.31S1397.85,411.22,1397.85,412.5Z" transform="translate(-303.61 -2.41)"/><path class="cls-30" d="M1397.85,430.54c0,1.28.75,2.32,1.67,2.32s1.67-1,1.67-2.32-.74-2.31-1.67-2.31S1397.85,429.27,1397.85,430.54Z" transform="translate(-303.61 -2.41)"/><path class="cls-50" d="M1403.79,348.16s-3.46-1.51-4.17-3.28-.63-2-1.56-3.2-2.28-3.46-3.62-4.13-1.27,1.64-.57,2.33a5.59,5.59,0,0,1,1,2.28s-7-4-8.79-4-.33,1.77,0,1.89c-1.9-.75-2.49-.34-2.65-.25s-.26,1.18,1,1.73c-.67-.44-2.17.33.88,2.57-1.58-.95-1.7.57-.61,1.54.92.81,5.08,4.82,9.42,5.2a17.53,17.53,0,0,1,7.17,2.15Z" transform="translate(-303.61 -2.41)"/><path class="cls-42" d="M1403.3,345.4s31.78,10,34.46,13.45c2.46,2.95,20.27-34.2,24.33-35.84s10.61,7.25,6.25,18.41c-8.73,22.34-27.6,34.57-31.68,32.54l-37.91-19A19.45,19.45,0,0,1,1403.3,345.4Z" transform="translate(-303.61 -2.41)"/><path class="cls-83" d="M1460.82,514.24s-1.08,2.06-2.59,4.32-5.62,2.3-6.58,3.52-.84,5.18-.84,5.18a16.53,16.53,0,0,0,10.35-1.74c4.84-2.8,9-4.83,9-4.83s0-5.31-.39-6.26S1460.82,514.24,1460.82,514.24Z" transform="translate(-303.61 -2.41)"/><path class="cls-84" d="M1461.16,524.22c4.78-2.76,8.87-4.77,9-4.83,0,.76,0,1.3,0,1.3s-4.15,2-9,4.83a16.53,16.53,0,0,1-10.35,1.74s0-.54,0-1.29A16.54,16.54,0,0,0,1461.16,524.22Z" transform="translate(-303.61 -2.41)"/><path class="cls-85" d="M1484.22,409.25s-10.41,35.14-11.46,44.27,2,39.15-2.61,60.74c-6.33,3.24-8.68,1.75-8.68,1.75l-1.1-2.81s-4.37-48.68-4.15-60,2.19-43.44,2.19-43.44Z" transform="translate(-303.61 -2.41)"/><path class="cls-83" d="M1478.68,521s-1,2.08-2.49,4.37-5.74,3.95-6.68,5.2-.73,5.2-.73,5.2,6.57.84,11.36-2.08a40.5,40.5,0,0,0,8-6.45s-.1-5.31-.52-6.24S1478.68,521,1478.68,521Z" transform="translate(-303.61 -2.41)"/><path class="cls-84" d="M1468.78,534.06s6.57.84,11.36-2.07a40.93,40.93,0,0,0,8-6.41c0,.92.05,1.61.05,1.61a40.5,40.5,0,0,1-8,6.45c-4.79,2.92-11.36,2.08-11.36,2.08s0-.78,0-1.76Z" transform="translate(-303.61 -2.41)"/><path class="cls-86" d="M1499.8,415.48s-9.68,35.49-10.54,44.64,3.7,39.82-.49,61.5c-6.26,3.38-8.89,2.64-8.89,2.64l-2.18-2.64s-4.92-50.27-4.94-61.63,1.24-43.47,1.24-43.47Z" transform="translate(-303.61 -2.41)"/><path class="cls-87" d="M1482.22,316.36s18.84,5.64,25.23,19-1.88,30.64-1.69,35-.76,48.81-.76,48.81l-33.85.62-3.6-8.11L1463,417.7l-7.27-6.85s2.79-39.94,2.23-48.21-4.17-30.17,3.22-40.53C1466.85,318.44,1480.51,315.78,1482.22,316.36Z" transform="translate(-303.61 -2.41)"/><path class="cls-73" d="M1489.41,318.53s7.27,5.92,6.55,9.87S1471,353,1470,358.85c-4.32-8.27,1.19-33.07,3.7-37.78S1489.41,318.53,1489.41,318.53Z" transform="translate(-303.61 -2.41)"/><polygon class="cls-36" points="1186.37 305.22 1187.58 319.12 1175.64 327.02 1173.29 323.82 1172.36 316.12 1186.37 305.22"/><path class="cls-50" d="M1468,295.69s-3.53,21.24,7.37,26.32c4.51.94,14.06-5.27,13.87-12.22,3.76-.76,3.76-7.9,1.88-9.4s-2.64,2.44-2.64,2.44,1.79-9.59-3.85-9.68S1468,295.69,1468,295.69Z" transform="translate(-303.61 -2.41)"/><path class="cls-88" d="M1485.36,296.44s-8.83,4.7-13.53,3.94-6.2-3.19-6.95-5.73,14.78-22.74,27.45-7.8c5.72,1.88,4,21.23-2,24.42-.11-.56-.28-1.77-.28-1.77a7.66,7.66,0,0,0,1.78-5.07c-.28-2.68-.94-3.48-1.5-3.53s-1.74,1.93-1.93,3a10.49,10.49,0,0,0-.09,2.3l-1.41.23a15,15,0,0,0-.38-3.29C1486.16,302.31,1483.77,298.27,1485.36,296.44Z" transform="translate(-303.61 -2.41)"/><path class="cls-89" d="M1479.25,329.43l2.13,4.31-2.63,1.69-2.78,15-5.93,8.46s-2.14-3.06-1.6-10.35c4.29-7.24,7.53-13.54,7.53-13.54l-.7-3.47Z" transform="translate(-303.61 -2.41)"/><path class="cls-50" d="M1487.61,418.76l7.34,2.43s-3.56,4.44-3,6.49a7.33,7.33,0,0,1-.84,5.18l-7.51-9.61A13.05,13.05,0,0,0,1487.61,418.76Z" transform="translate(-303.61 -2.41)"/><path class="cls-42" d="M1485.24,420.37s13.15-34.4,17-37.29c3.36-2.66-4.59-30.14-6.32-34.71s4.23-21.88,12.27-11.22,11.78,46.72,9.4,51.22S1494,426.71,1494,426.71A37.84,37.84,0,0,1,1485.24,420.37Z" transform="translate(-303.61 -2.41)"/><path class="cls-90" d="M1418,997.49c0,20.72,28.73,37.51,64.18,37.51s64.17-16.79,64.17-37.51S1517.66,960,1482.22,960,1418,976.76,1418,997.49Z" transform="translate(-303.61 -2.41)"/><path class="cls-91" d="M1374.56,968.35c0,20.72,28.73,37.52,64.18,37.52s64.18-16.8,64.18-37.52-28.74-37.51-64.18-37.51S1374.56,947.63,1374.56,968.35Z" transform="translate(-303.61 -2.41)"/><path class="cls-64" d="M1471.34,994.91c2,.57,2.34,4,2.91,7.09a66.36,66.36,0,0,0,8.26.74c2.17-2.81,4.35-6,6.51-6.22s5.93,2.48,9.51,4.77a51.67,51.67,0,0,0,7.44-2.17c-.09-.25.1-3,0-3.3-1-2.79-2.46-3.15-1-4s7.41-.06,12.63.58a22.1,22.1,0,0,0,3.77-4.29v-3.3c-3.75-1.93-8.58-1-8.27-2.2s5.9-2.5,10.77-3.76c-.14-1.6.38-2.89-.35-4.45-5.31-.34-12.21-.86-13.21-2s2.28-4,5-6.68v-3.3c-1-.58-4.93.33-6-.18-4.65,1.54-9.68,3.42-11.59,2.86s-2.35-4-2.9-7.09a66.88,66.88,0,0,0-8.26-.74c-2.18,2.8-4.37,6-6.52,6.21s-13.37-3.59-17-5.88v3.29c1.11,3,2.6,6.37,1,7.29s-11.16,1.06-16.38.42c0,0,0,3.22,0,3.29,4,2.07,8.59,4.26,8.25,5.49s-6-.77-10.76.47c-.09,0,.1,3.27,0,3.3a14.13,14.13,0,0,0,1.28,4.76c5.31.32,11.29.54,12.28,1.68s-2.35.82-4.94,3.39a30.25,30.25,0,0,0,0,3.3q1.32.94,2.85,1.83c1,.59,2.07,1.13,3.17,1.64C1464.4,996.22,1469.44,994.35,1471.34,994.91Zm-.6-7c-7.59-4.39-7.6-11.49,0-15.88s19.91-4.39,27.5,0,7.59,11.49,0,15.88S1478.34,992.33,1470.74,988Z" transform="translate(-303.61 -2.41)"/><path class="cls-37" d="M1471.34,991.61c2,.58,2.34,4,2.91,7.09a66.37,66.37,0,0,0,8.26.75c2.17-2.81,4.35-6,6.51-6.22s5.93,2.48,9.51,4.77a51.68,51.68,0,0,0,7.44-2.18c-1.11-3-2.6-6.36-1-7.28s7.41-.06,12.63.57a21.53,21.53,0,0,0,3.77-4.29c-4-2.07-8.61-4.25-8.27-5.49s5.9-2.5,10.77-3.76a14.35,14.35,0,0,0-1.28-4.77c-5.32-.32-11.28-.54-12.28-1.68s2.28-4,5-6.69c-.89-.63-1.83-1.24-2.84-1.83s-2.09-1.13-3.18-1.65c-4.65,1.55-9.68,3.43-11.59,2.87s-2.35-4-2.9-7.09a65,65,0,0,0-8.26-.74c-2.18,2.8-4.37,6-6.52,6.21s-5.93-2.47-9.51-4.77a54.37,54.37,0,0,0-7.44,2.18c1.11,3,2.6,6.36,1,7.29s-7.39.06-12.62-.59a21.2,21.2,0,0,0-3.76,4.3c4,2.07,8.59,4.26,8.25,5.49s-5.88,2.5-10.76,3.76a14.12,14.12,0,0,0,1.28,4.77c5.31.32,11.29.54,12.28,1.68s-2.28,4-4.94,6.68a32.53,32.53,0,0,0,2.85,1.84c1,.59,2.07,1.13,3.17,1.64C1464.4,992.93,1469.44,991.06,1471.34,991.61Zm-.6-7c-7.59-4.38-7.6-11.48,0-15.87s19.91-4.39,27.5,0,7.59,11.49,0,15.87S1478.34,989,1470.74,984.65Z" transform="translate(-303.61 -2.41)"/><path class="cls-64" d="M1426.18,963.44c1.24.36,1.47,2.52,1.82,4.45a40.52,40.52,0,0,0,5.19.46c1.36-1.76,2.73-3.78,4.08-3.9s3.72,1.56,6,3a32.79,32.79,0,0,0,4.67-1.36c-.06-.16.06-2.88,0-3-.66-1.75-.92-1.41-.63-1.53,1-.47,4.64,0,7.92.36a13.24,13.24,0,0,0,2.36-2.69v-3c-2.35-1.21-5.38.31-5.19-.4s3.71-1.58,6.76-2.37c-.09-1,0-3,0-3-3.34-.21-7.88-.3-8.51-1s1.44-2.51,3.11-4.2v-3c-.64-.37-3.09,1.17-3.78.85-2.91,1-6.07,2.15-7.26,1.8s-1.48-2.53-1.83-4.45a42.42,42.42,0,0,0-5.18-.46c-1.36,1.76-2.73,3.77-4.09,3.89s-8.38-3.22-10.63-4.66v3c.7,1.89,1.63,4,.63,4.57s-7-.31-10.28-.71c0,0,0,3,0,3,2.49,1.3,5.4,2.67,5.18,3.44s-3.73-1.45-6.74-.67c-.07,0,0,3,0,3a8.59,8.59,0,0,0,.8,3c3.33.21,7.07.34,7.7,1.06s-1.48-.47-3.1,1.15c-.08.07,0,3,0,3,.55.39,1.14.78,1.78,1.15s1.31.71,2,1C1421.82,964.27,1425,963.09,1426.18,963.44Zm-.38-4.37c-4.76-2.75-4.77-7.2,0-10s12.49-2.75,17.25,0,4.77,7.21,0,10S1430.57,961.82,1425.8,959.07Z" transform="translate(-303.61 -2.41)"/><path class="cls-37" d="M1426.18,960.4c1.24.36,1.47,2.53,1.82,4.45a42.41,42.41,0,0,0,5.19.46c1.36-1.76,2.73-3.77,4.08-3.9s3.72,1.56,6,3a32.81,32.81,0,0,0,4.67-1.37c-.7-1.89-1.63-4-.63-4.57s4.64,0,7.92.37a13.56,13.56,0,0,0,2.36-2.7c-2.49-1.3-5.4-2.67-5.19-3.44s3.71-1.58,6.76-2.36a8.83,8.83,0,0,0-.81-3c-3.33-.21-7.07-.35-7.7-1.06s1.44-2.51,3.11-4.19c-.56-.4-1.14-.78-1.78-1.15s-1.31-.71-2-1c-2.91,1-6.07,2.14-7.26,1.79s-1.48-2.52-1.83-4.45a42.42,42.42,0,0,0-5.18-.46c-1.36,1.76-2.73,3.77-4.09,3.9s-3.72-1.56-6-3a34.59,34.59,0,0,0-4.67,1.37c.7,1.89,1.63,4,.63,4.57s-4.64,0-7.91-.36a13.62,13.62,0,0,0-2.37,2.69c2.49,1.3,5.4,2.67,5.18,3.44s-3.69,1.58-6.74,2.37a8.54,8.54,0,0,0,.8,3c3.33.21,7.07.35,7.7,1.06s-1.43,2.51-3.1,4.19a20.22,20.22,0,0,0,1.78,1.15c.64.37,1.31.71,2,1C1421.82,961.23,1425,960.05,1426.18,960.4Zm-.38-4.36c-4.76-2.76-4.77-7.21,0-10s12.49-2.75,17.25,0,4.77,7.2,0,10S1430.57,958.78,1425.8,956Z" transform="translate(-303.61 -2.41)"/><path class="cls-92" d="M1645.85,931.87v-9.76h4.34a26.64,26.64,0,0,1,5.91-4.53c13.67-7.89,35.82-7.89,49.49,0a26.57,26.57,0,0,1,5.9,4.53h4.35v9.76c0,5.16-3.42,10.34-10.25,14.28-13.67,7.89-35.82,7.89-49.49,0C1649.26,942.21,1645.85,937,1645.85,931.87Z" transform="translate(-303.61 -2.41)"/><path class="cls-93" d="M1656.1,936.4c13.67,7.89,35.82,7.89,49.49,0s13.66-20.68,0-28.57-35.82-7.89-49.49,0S1642.43,928.51,1656.1,936.4Z" transform="translate(-303.61 -2.41)"/><path class="cls-22" d="M1648.76,761.65c4.09-22.51,32.16-85.7,32.16-85.7s27.95,63.2,32,85.7c7,38.7,0,157.29,0,157.29h0c0,4.74-3.14,9.48-9.4,13.1-12.52,7.23-32.84,7.23-45.38,0-6.28-3.63-9.41-8.39-9.39-13.14C1648.64,916.83,1641.81,800,1648.76,761.65Z" transform="translate(-303.61 -2.41)"/><path class="cls-24" d="M1647.61,765.41c.19-1.32.39-2.57.61-3.76,4.08-22.51,32.15-85.7,32.15-85.7s28,63.2,32,85.7c.22,1.18.41,2.43.6,3.74s.33,2.45.48,3.76c-.2,4.75-3.41,9.47-9.69,13.09-13,7.48-34,7.48-46.94,0-6.29-3.63-9.5-8.36-9.69-13.11C1647.29,767.84,1647.45,766.6,1647.61,765.41Z" transform="translate(-303.61 -2.41)"/><polygon class="cls-26" points="1316.25 968.66 1354.25 853.38 1350.88 851.36 1318.27 884.78 1312.88 966.64 1316.25 968.66"/><polygon class="cls-24" points="1354.25 929.11 1354.25 853.38 1321.65 886.81 1316.25 968.66 1354.25 929.11"/><polygon class="cls-26" points="1439.61 968.66 1401.61 853.38 1404.99 851.36 1437.59 884.78 1442.98 966.64 1439.61 968.66"/><polygon class="cls-24" points="1401.61 929.11 1401.61 853.38 1434.21 886.81 1439.61 968.66 1401.61 929.11"/><rect class="cls-93" x="1369.7" y="873.96" width="16.87" height="52.48"/><rect class="cls-93" x="1369.7" y="804.3" width="16.87" height="57.52"/></g></g></svg>