<svg id="Layer_1" data-name="Layer 1" xmlns="http://www.w3.org/2000/svg" viewBox="0 0 207.37 247.02"><defs><style>.cls-1{fill:#1b1b1b;}.cls-2{fill:#262626;}.cls-3{opacity:0.3;}.cls-4{fill:#fff;}.cls-5{fill:#424242;}.cls-6{fill:#727272;}.cls-7{fill:#d1d1d1;}.cls-8{fill:#aeaeae;}.cls-9{fill:#8b8b8b;}.cls-10{fill:#484848;}.cls-11{fill:#9a9a9a;}.cls-12{fill:#c8c8c8;}.cls-13{fill:#b2b2b2;}.cls-14{fill:#141414;}.cls-15{fill:#686868;}.cls-16{fill:#a8a8a8;}.cls-17{fill:#c4c4c4;}.cls-18{fill:#dedede;}.cls-19{fill:#545454;}.cls-20{fill:#696969;}.cls-21{fill:#414141;}.cls-22{fill:#9d9d9d;}.cls-23{fill:#080808;}.cls-24{fill:#676767;}.cls-25{fill:#b7b7b7;}.cls-26{fill:#c2c2c2;}</style></defs><path d="M188.57,72.81c1.07-21.26,4.68-43.56,8.6-45.53a1.51,1.51,0,0,1,.93-.08v0l.19.1a1.7,1.7,0,0,1,.39.18l40.08,23.1-6.18,77.07-39.86-22.7C188.28,102,187.57,92.11,188.57,72.81Z" transform="translate(-39.63 -19.66)"/><path class="cls-1" d="M215.94,74.12a6.91,6.91,0,0,0,3.12,5.4c1.72,1,3.13.18,3.13-1.81a6.92,6.92,0,0,0-3.13-5.41C217.33,71.32,215.94,72.11,215.94,74.12Z" transform="translate(-39.63 -19.66)"/><path class="cls-1" d="M197.39,63.41a6.9,6.9,0,0,0,3.12,5.4c1.72,1,3.12.17,3.13-1.82a6.9,6.9,0,0,0-3.13-5.4C198.79,60.59,197.39,61.4,197.39,63.41Z" transform="translate(-39.63 -19.66)"/><path d="M231.62,93.4c-1.09,21.24-1.74,36.18,2.22,34.21s6.47-19.46,7.55-40.73.32-38.19-3.63-36.25S232.7,72.14,231.62,93.4Z" transform="translate(-39.63 -19.66)"/><path d="M148.26,170.31a4.37,4.37,0,1,1,8.74,0v2.59h-.84a4.37,4.37,0,0,1-7,0h-.86Z" transform="translate(-39.63 -19.66)"/><path class="cls-2" d="M148.26,172.9a4.37,4.37,0,1,0,4.38-4.37A4.4,4.4,0,0,0,148.26,172.9Z" transform="translate(-39.63 -19.66)"/><path d="M150.09,172.85a2.54,2.54,0,1,0,2.55-2.54A2.54,2.54,0,0,0,150.09,172.85Z" transform="translate(-39.63 -19.66)"/><path d="M224.7,170.31a4.37,4.37,0,0,1,8.74,0v2.59h-.86a4.34,4.34,0,0,1-7,0h-.87Z" transform="translate(-39.63 -19.66)"/><path class="cls-2" d="M224.7,172.9a4.37,4.37,0,1,0,4.37-4.37A4.38,4.38,0,0,0,224.7,172.9Z" transform="translate(-39.63 -19.66)"/><path d="M226.54,172.85a2.54,2.54,0,1,0,5.08,0,2.54,2.54,0,1,0-5.08,0Z" transform="translate(-39.63 -19.66)"/><rect x="148.26" y="169.52" width="5.08" height="10.5"/><path d="M185.69,163.29V144.36c0-1.52,2.13-2.78,4.73-2.78s4.74,1.26,4.74,2.78v18.93h38.28v3.14c0,1.49-2.17,2.71-4.81,2.71H195.16v19.35c0,1.52-2.13,2.76-4.74,2.76s-4.73-1.24-4.73-2.76V169.14H152.22c-2.64,0-4.81-1.22-4.81-2.71v-3.14Z" transform="translate(-39.63 -19.66)"/><path d="M185.69,185.35V166H152.22c-2.64,0-4.81-1.24-4.81-2.72s2.17-2.76,4.81-2.76h33.47V141.21c0-1.52,2.13-2.78,4.73-2.78s4.74,1.26,4.74,2.78v19.32h33.47c2.64,0,4.81,1.23,4.81,2.76s-2.17,2.72-4.81,2.72H195.16v19.34c0,1.53-2.13,2.74-4.74,2.74S185.69,186.88,185.69,185.35Z" transform="translate(-39.63 -19.66)"/><path d="M193.79,136.49a6.81,6.81,0,0,0-3.33-.8l-1.28.08a6.72,6.72,0,0,0-2.12.72c-1.87,1.08-1.87,2.82,0,3.92a7.58,7.58,0,0,0,6.73,0C195.66,139.31,195.66,137.58,193.79,136.49Z" transform="translate(-39.63 -19.66)"/><path d="M187.06,140.41a7.58,7.58,0,0,0,6.73,0,2.5,2.5,0,0,0,1.39-1.84v25.06h0a2.34,2.34,0,0,1-1.4,1.93,7.28,7.28,0,0,1-6.73,0,2.21,2.21,0,0,1-1.4-2V138.44A2.42,2.42,0,0,0,187.06,140.41Z" transform="translate(-39.63 -19.66)"/><path d="M194.09,126.35a7.65,7.65,0,0,0-3.63-.9l-1.38.09a7.7,7.7,0,0,0-2.34.81c-2,1.18-2,3.08,0,4.24a8.07,8.07,0,0,0,7.35,0C196.13,129.43,196.13,127.53,194.09,126.35Z" transform="translate(-39.63 -19.66)"/><path d="M186.74,130.59a8.07,8.07,0,0,0,7.35,0,2.66,2.66,0,0,0,1.52-2v10.5h0a2.6,2.6,0,0,1-1.53,2.13,8.07,8.07,0,0,1-7.35,0,2.52,2.52,0,0,1-1.51-2.25v-10.5A2.55,2.55,0,0,0,186.74,130.59Z" transform="translate(-39.63 -19.66)"/><path d="M169.65,111.1c11.55-6.68,21.07-10.06,22.46-8.09l41.73,24.58-44.94,26.9S147,130.53,147,129.73C147,126.66,157.15,118.32,169.65,111.1Z" transform="translate(-39.63 -19.66)"/><path d="M188.57,153.72c0,3.09,10.13-.27,22.62-7.5s22.65-15.57,22.65-18.63-10.13.27-22.65,7.5S188.57,150.65,188.57,153.72Z" transform="translate(-39.63 -19.66)"/><path class="cls-3" d="M247,236.4l-17.19-9.92,6.95-4c4.42-2.55,4.42-6.72,0-9.29l-119.3-68.86c-4.43-2.56-11.67-2.56-16.09,0L43,178c-4.43,2.56-4.43,6.75,0,9.3l119.3,68.87c4.09,2.37,10.58,2.55,15.05.53l17.25,10Z" transform="translate(-39.63 -19.66)"/><path class="cls-4" d="M145.85,166.55s-6.07,8.83-10.61,13.06c-1.85,1.73,1.24,7.09,1.37,7.22.42.39,5.62-.5,9.85-4a28.78,28.78,0,0,0,6.29-7.27s7.51-3.7,10.05-7.55c.33-2.82-3.07-8.53-3.07-8.53Z" transform="translate(-39.63 -19.66)"/><path class="cls-4" d="M188.26,180.65s.78,4.61,0,6.87a119.58,119.58,0,0,1-8.26,16.3c-2.71,3.91-10.54,1.71-12,.94s-3.57-4.5-.94-7.27a35.08,35.08,0,0,0,8.1-14.48Z" transform="translate(-39.63 -19.66)"/><path class="cls-5" d="M176.45,98c-20.7,7.15-41.09,24.91-46.34,27.38s-1.88,13.51,1.23,17.31c5,6.12,10.62,19.66,11.7,24.37s21.08-1.6,17.19-9-13-22.31-13-22.31,30.49-7.3,41.83-12.39a59.32,59.32,0,0,0,7.52-12.66S181.28,97.64,176.45,98Z" transform="translate(-39.63 -19.66)"/><path class="cls-6" d="M188.8,114s-19.72,27.14-23,31.93-1.31,13.13-.08,15.44c6.14,11.47,5.27,11.13,7.51,20.36s18.16,5,16.36-3.79-1.67-12.2-7.11-24.25c1.11-.79,25.45-18.11,29.77-24.9,4.08-6.4,4.37-16.18,4.37-16.18L203,105.5Z" transform="translate(-39.63 -19.66)"/><path class="cls-7" d="M157.45,78.44c3.05-.86,6.45-2.91,8.63-3.3.37-.42,1-4.16,2.43-7.18,2.11,1,11.36,4.47,11.36,4.47s-3.31,10.38-6,12.39c-3.51,2.64-11,2.2-11,2.2l-4.34-4.68S156.84,79.41,157.45,78.44Z" transform="translate(-39.63 -19.66)"/><path class="cls-8" d="M166.08,75.14s4.61-2.46,6.82,5.72C170.31,75.14,166.08,75.14,166.08,75.14Z" transform="translate(-39.63 -19.66)"/><path class="cls-9" d="M199.59,41.74c2.51,2.76,2.45,13.77,12,18.27,3.28-23.33-12-24.13-12-24.13S198.41,41.12,199.59,41.74Z" transform="translate(-39.63 -19.66)"/><path d="M201.19,38.73c0,2-.93,3.59-2.08,3.59S197,40.71,197,38.73s.93-3.59,2.09-3.59S201.19,36.74,201.19,38.73Z" transform="translate(-39.63 -19.66)"/><path d="M180.62,42.67c9.89.59,6.43,12,5.76,16.93-.3,2.22-.84,6.38-1.7,10-1.62,6.77-17.79,2.74-16.92-2.43.17-1.06,1.19-6.29,1.52-9.57C169.74,53.08,170.46,42.06,180.62,42.67Z" transform="translate(-39.63 -19.66)"/><path class="cls-8" d="M196.81,43.67a17.62,17.62,0,0,0,1.88,3.9l5.06,4.09-4,9.72-5,3.42h-9.26l-5-3-1.7-5.71,3.71-6.26L188,46l5.86-1.47A3,3,0,0,1,196.81,43.67Z" transform="translate(-39.63 -19.66)"/><path class="cls-1" d="M217.46,60.09s-4.87-6.72-18.77-12.52c5.64,9.35-6.2,17.55-13.19,14.33-5.2-2.39-1.93-10.42.29-12.09-2.6-1.76-6.69-.33-6.69-.33s-7.4,8.29-3.46,25c3,12.53.42,22.48-.35,24.68-1.2,3.41,3.55,19.29,13.67,16.33,14.25-4.17,32.09,11.47,29.49-10-1.49-12.33-3.56-28.84-3.56-28.84Z" transform="translate(-39.63 -19.66)"/><path class="cls-9" d="M189.71,77.81l-7.29-3.76c-2.06-1.07-3.66,0-3.56,2.28l.49,10.31a8.11,8.11,0,0,0,4,6.15l7.3,3.77c2.06,1.07,3.66,0,3.56-2.28L193.67,84A8.13,8.13,0,0,0,189.71,77.81ZM189,79.89c.79.41,1.49,2,1.56,3.49s-.51,2.43-1.3,2-1.48-2-1.55-3.49S188.24,79.48,189,79.89Zm-5.48-.84a3.36,3.36,0,0,1,1.63,2.54c0,1-.61,1.38-1.47.94A3.32,3.32,0,0,1,182.09,80C182,79,182.7,78.61,183.55,79.05Zm3.23,12c-2.82-1.46-5.15-3.55-5.2-4.68l10.22,5.27C191.85,92.82,189.6,92.56,186.78,91.1Z" transform="translate(-39.63 -19.66)"/><polygon class="cls-10" points="139.15 77.01 138.73 73 154.8 81.57 139.15 77.01"/><path class="cls-7" d="M174.4,32a18.6,18.6,0,0,0-2.05,10.74c.12.86,1.35,1.62,1.35,1.62a7.86,7.86,0,0,0,0,3.55c.44,1.6,2.69,9.42,3.83,10.35a5.81,5.81,0,0,0,5.06.89,24,24,0,0,0,11-8.61,7.49,7.49,0,0,0,.54-2.78s2.22-.59,2.71-4.1c2.38-2.93.37-6.29.37-6.29l-6.78-8.11-8.8-1Z" transform="translate(-39.63 -19.66)"/><path class="cls-9" d="M195.56,40.79c-2.71.32-4.9,4.19-4.9,4.19s-2-.1-3.21-3.6A5.33,5.33,0,0,0,184,37.67c-1.69-.46-3.64,1.09-8.06-1.45-6.13-3.53,1.22-13.78,12.46-12.51C200,25,199.53,37,199.54,39.77c0,4-2.73,3.9-2.73,3.9S197.61,40.54,195.56,40.79Z" transform="translate(-39.63 -19.66)"/><polygon points="6.62 169.56 3.32 167.66 3.32 89.31 77.83 46.3 81.13 48.2 6.62 169.56"/><polygon class="cls-1" points="81.13 126.55 6.62 169.56 6.62 91.21 81.13 48.2 81.13 126.55"/><polygon points="122.62 236.53 119.31 234.63 119.31 156.28 193.83 113.26 197.13 115.17 122.62 236.53"/><polygon class="cls-1" points="197.13 193.51 122.62 236.53 122.62 158.19 197.13 115.17 197.13 193.51"/><path class="cls-11" d="M238.56,136.2a8.43,8.43,0,0,0-1.8-1.37L117.46,66c-4.43-2.56-11.67-2.56-16.09,0L43,99.68a8.4,8.4,0,0,0-1.8,1.36H39.63v3.49c.09,1.62,1.18,3.21,3.31,4.44l119.3,68.88c4.42,2.55,11.66,2.55,16.09,0l58.42-33.73c2.18-1.26,3.28-2.93,3.31-4.59h0V136.2Z" transform="translate(-39.63 -19.66)"/><path class="cls-12" d="M178.34,174.59c-4.43,2.56-11.67,2.56-16.09,0L43,105.71c-4.43-2.55-4.43-6.73,0-9.28L101.37,62.7c4.42-2.56,11.66-2.56,16.09,0l119.3,68.87c4.42,2.56,4.42,6.74,0,9.29Z" transform="translate(-39.63 -19.66)"/><polygon points="154.93 245.41 132.31 232.35 132.31 175.5 154.93 188.56 154.93 245.41"/><polygon points="204.59 216.73 154.93 245.41 154.93 188.56 204.59 159.89 204.59 216.73"/><polygon class="cls-1" points="154.93 188.56 132.31 175.5 181.97 146.82 204.59 159.89 154.93 188.56"/><polygon class="cls-13" points="153.1 239.77 134.13 228.82 134.13 181.14 153.1 192.09 153.1 239.77"/><path class="cls-1" d="M182.25,214.85c0,2.17-1.53,3.05-3.41,2a7.5,7.5,0,0,1-3.41-5.9c0-2.18,1.52-3.06,3.41-2A7.55,7.55,0,0,1,182.25,214.85Z" transform="translate(-39.63 -19.66)"/><polygon class="cls-1" points="151.47 218.33 135.76 209.25 135.76 207.7 151.47 216.77 151.47 218.33"/><polygon class="cls-1" points="151.47 224.55 135.76 215.48 135.76 213.92 151.47 222.99 151.47 224.55"/><polygon class="cls-1" points="151.47 227.03 135.76 217.97 135.76 216.41 151.47 225.48 151.47 227.03"/><polygon class="cls-1" points="151.47 229.53 135.76 220.45 135.76 218.9 151.47 227.96 151.47 229.53"/><polygon points="143.99 209.53 145.18 210.22 146.51 207.66 145.31 206.97 143.99 208.48 143.99 209.53"/><polygon points="146.51 207.66 145.18 209.17 145.18 210.22 146.51 210.2 148.74 208.91 148.74 206.37 146.51 207.66"/><polygon class="cls-1" points="147.54 205.68 148.74 206.37 146.51 207.66 145.31 206.97 147.54 205.68"/><polygon points="146.74 211.13 147.93 211.82 149.27 209.25 148.07 208.57 146.74 210.07 146.74 211.13"/><polygon points="149.27 209.25 147.93 210.76 147.93 211.82 149.27 211.8 151.51 210.5 151.51 207.96 149.27 209.25"/><polygon class="cls-1" points="150.31 207.27 151.51 207.96 149.27 209.25 148.07 208.57 150.31 207.27"/><polygon points="132.81 231.7 132.81 229.53 137.33 229.74 137.33 231.91 134.25 232.53 132.81 231.7"/><polygon class="cls-14" points="140.83 227.72 137.39 225.73 133.88 227.75 132.81 229.53 134.25 230.36 137.33 229.74 140.83 227.72"/><polygon points="140.83 229.88 140.83 227.72 137.33 229.74 137.33 231.91 140.83 229.88"/><polygon points="132.81 228.11 132.81 225.95 137.33 226.15 137.33 228.32 134.25 228.94 132.81 228.11"/><polygon class="cls-14" points="140.83 224.13 137.39 222.14 133.88 224.16 132.81 225.95 134.25 226.77 137.33 226.15 140.83 224.13"/><polygon points="140.83 226.29 140.83 224.13 137.33 226.15 137.33 228.32 140.83 226.29"/><polygon points="138.71 231.51 138.71 229.34 143.22 229.55 143.22 231.72 140.14 232.34 138.71 231.51"/><polygon class="cls-14" points="146.73 227.53 143.28 225.54 139.77 227.56 138.71 229.34 140.14 230.18 143.22 229.55 146.73 227.53"/><polygon points="146.73 229.69 146.73 227.53 143.22 229.55 143.22 231.72 146.73 229.69"/><polygon class="cls-3" points="169.52 167.54 157.55 160.63 181.41 146.86 193.38 153.78 169.52 167.54"/><polygon class="cls-15" points="158.36 160.09 158.36 159.62 193.65 152.3 193.65 152.77 169.68 166.62 158.36 160.09"/><polygon class="cls-16" points="158.36 159.62 182.34 145.78 193.65 152.3 169.68 166.16 158.36 159.62"/><polygon class="cls-15" points="162.56 161.22 163.86 160.47 165.38 161.35 164.09 162.1 162.56 161.22"/><polygon class="cls-17" points="168.51 158.76 173.97 155.61 180.38 159.3 174.9 162.46 168.51 158.76"/><polygon class="cls-17" points="180.88 151.82 186.35 148.66 192.75 152.36 187.28 155.52 180.88 151.82"/><polygon class="cls-1" points="166.16 162.86 167.27 162.22 167.27 162.49 166.15 163.13 166.16 162.86"/><polygon points="164.85 162.11 166.1 162.6 166.16 162.86 166.15 163.13 164.85 162.38 164.85 162.11"/><polygon points="164.85 162.11 165.97 161.46 167.27 162.22 166.16 162.86 164.85 162.11"/><polygon class="cls-18" points="165.84 162.44 166.06 162.31 165.5 161.99 165.28 162.11 165.84 162.44"/><polygon class="cls-1" points="166 159.67 167.76 158.66 167.76 158.93 165.99 159.94 166 159.67"/><polygon points="164.69 158.92 165.95 159.41 166 159.67 165.99 159.94 164.69 159.19 164.69 158.92"/><polygon points="164.69 158.92 166.46 157.91 167.76 158.66 166 159.67 164.69 158.92"/><polygon class="cls-18" points="165.68 159.25 165.89 159.13 165.33 158.8 165.12 158.93 165.68 159.25"/><polygon class="cls-1" points="180.13 151.01 181.25 150.37 181.25 150.64 180.13 151.28 180.13 151.01"/><polygon points="178.84 150.26 180.09 150.75 180.13 151.01 180.13 151.28 178.83 150.53 178.84 150.26"/><polygon points="178.84 150.26 179.94 149.62 181.25 150.37 180.13 151.01 178.84 150.26"/><polygon class="cls-18" points="179.82 150.59 180.03 150.47 179.47 150.14 179.26 150.27 179.82 150.59"/><polygon class="cls-1" points="162.17 160.64 163.99 159.59 163.99 160.03 162.16 161.08 162.17 160.64"/><polygon class="cls-12" points="162.16 160.88 163.99 159.82 163.99 160.03 162.16 161.08 162.16 160.88"/><polygon points="160.03 159.41 162.09 160.21 162.17 160.64 162.16 161.08 160.03 159.85 160.03 159.41"/><polygon class="cls-11" points="160.03 159.65 162.16 160.88 162.16 161.08 160.03 159.85 160.03 159.65"/><polygon points="160.03 159.41 161.86 158.36 163.99 159.59 162.17 160.64 160.03 159.41"/><polygon class="cls-18" points="162.21 160.27 162.81 159.92 161.25 159.02 160.65 159.37 162.21 160.27"/><polygon class="cls-1" points="173.65 153.65 178.01 151.12 178.01 151.56 173.64 154.08 173.65 153.65"/><polygon class="cls-12" points="173.65 153.88 178.01 151.35 178.01 151.56 173.64 154.08 173.65 153.88"/><polygon points="171.51 152.41 173.57 153.21 173.65 153.65 173.64 154.08 171.5 152.85 171.51 152.41"/><polygon class="cls-11" points="171.51 152.65 173.65 153.88 173.64 154.08 171.5 152.85 171.51 152.65"/><polygon points="171.51 152.41 175.88 149.89 178.01 151.12 173.65 153.65 171.51 152.41"/><polygon class="cls-18" points="173.69 153.27 174.29 152.93 172.73 152.03 172.13 152.37 173.69 153.27"/><polygon points="172.08 163.56 173.91 162.51 173.9 162.95 172.08 164.01 172.08 163.56"/><polygon points="169.95 162.32 172 163.13 172.08 163.56 172.08 164.01 169.94 162.77 169.95 162.32"/><polygon points="169.95 162.32 171.77 161.28 173.91 162.51 172.08 163.56 169.95 162.32"/><polygon class="cls-18" points="172.09 162.42 172.69 162.07 171.79 161.55 171.19 161.9 172.09 162.42"/><polygon points="168.37 161.93 170.92 160.46 170.91 161.07 168.36 162.54 168.37 161.93"/><polygon points="165.39 160.21 168.26 161.32 168.37 161.93 168.36 162.54 165.38 160.82 165.39 160.21"/><polygon points="165.39 160.21 167.94 158.74 170.92 160.46 168.37 161.93 165.39 160.21"/><polygon points="180.25 155.26 182.81 153.79 182.8 154.41 180.25 155.88 180.25 155.26"/><polygon points="177.27 153.54 180.15 154.66 180.25 155.26 180.25 155.88 177.27 154.16 177.27 153.54"/><polygon points="177.27 153.54 179.83 152.07 182.81 153.79 180.25 155.26 177.27 153.54"/><polygon points="169.96 156.44 171.74 155.42 171.73 155.85 169.95 156.88 169.96 156.44"/><polygon points="167.88 155.24 169.89 156.02 169.96 156.44 169.95 156.88 167.88 155.67 167.88 155.24"/><polygon points="167.88 155.24 169.66 154.22 171.74 155.42 169.96 156.44 167.88 155.24"/><polygon points="181.55 158.46 183.37 157.41 183.37 157.85 181.54 158.9 181.55 158.46"/><polygon points="179.41 157.23 181.47 158.03 181.55 158.46 181.54 158.9 179.41 157.67 179.41 157.23"/><polygon points="179.41 157.23 181.24 156.18 183.37 157.41 181.55 158.46 179.41 157.23"/><polygon class="cls-18" points="181.56 157.32 182.15 156.97 181.26 156.45 180.66 156.8 181.56 157.32"/><polygon points="169.81 164.46 170.92 163.81 170.92 164.09 169.8 164.73 169.81 164.46"/><polygon points="167.7 163.24 169.47 164.03 169.81 164.46 169.8 164.73 167.69 163.51 167.7 163.24"/><polygon points="167.7 163.24 168.81 162.6 170.92 163.81 169.81 164.46 167.7 163.24"/><polygon points="183.34 147.93 184.46 147.29 184.45 147.56 183.34 148.2 183.34 147.93"/><polygon points="181.23 146.72 183.01 147.5 183.34 147.93 183.34 148.2 181.22 146.98 181.23 146.72"/><polygon points="181.23 146.72 182.34 146.07 184.46 147.29 183.34 147.93 181.23 146.72"/><polygon points="164.28 158.41 162.56 157.43 162.57 157.84 164.28 158.83 164.28 158.41"/><polygon points="167.52 156.55 164.8 157.75 164.28 158.41 164.28 158.83 167.53 156.96 167.52 156.55"/><polygon points="167.52 156.55 165.81 155.55 162.56 157.43 164.28 158.41 167.52 156.55"/><polygon points="181.37 149.44 183.2 148.38 183.19 148.82 181.36 149.88 181.37 149.44"/><polygon points="179.24 148.21 181.29 149 181.37 149.44 181.36 149.88 179.23 148.64 179.24 148.21"/><polygon points="179.24 148.21 181.06 147.15 183.2 148.38 181.37 149.44 179.24 148.21"/><polygon class="cls-18" points="181.38 148.29 181.97 147.94 181.08 147.43 180.48 147.77 181.38 148.29"/><polygon points="184.39 157.03 185.51 156.39 185.51 156.65 184.39 157.3 184.39 157.03"/><polygon points="182.28 155.81 184.06 156.6 184.39 157.03 184.39 157.3 182.28 156.08 182.28 155.81"/><polygon points="182.28 155.81 183.4 155.16 185.51 156.39 184.39 157.03 182.28 155.81"/><polygon points="185.85 156.18 186.97 155.53 186.96 155.81 185.84 156.45 185.85 156.18"/><polygon points="183.74 154.96 185.51 155.75 185.85 156.18 185.84 156.45 183.73 155.23 183.74 154.96"/><polygon points="183.74 154.96 184.85 154.31 186.97 155.53 185.85 156.18 183.74 154.96"/><polygon class="cls-15" points="166.52 163.76 167.04 163.46 168.68 164.4 168.16 164.71 166.52 163.76"/><polygon class="cls-1" points="174.84 160.7 179.03 158.29 179 159.3 174.82 161.71 174.84 160.7"/><polygon class="cls-12" points="174.83 161.24 179.02 158.83 179 159.3 174.82 161.71 174.83 161.24"/><polygon points="169.95 157.88 174.66 159.71 174.84 160.7 174.82 161.71 169.94 158.89 169.95 157.88"/><polygon class="cls-11" points="169.94 158.41 174.83 161.24 174.82 161.71 169.94 158.89 169.94 158.41"/><polygon points="169.95 157.88 174.13 155.46 179.03 158.29 174.84 160.7 169.95 157.88"/><polygon class="cls-1" points="175.51 159.51 176.89 158.72 173.3 156.65 171.93 157.44 175.51 159.51"/><polygon class="cls-1" points="187.32 153.9 191.51 151.49 191.49 152.5 187.31 154.91 187.32 153.9"/><polygon class="cls-12" points="187.32 154.44 191.5 152.03 191.49 152.5 187.31 154.91 187.32 154.44"/><polygon points="182.43 151.08 187.15 152.9 187.32 153.9 187.31 154.91 182.42 152.09 182.43 151.08"/><polygon class="cls-11" points="182.43 151.62 187.32 154.44 187.31 154.91 182.42 152.09 182.43 151.62"/><polygon points="182.43 151.08 186.61 148.66 191.51 151.49 187.32 153.9 182.43 151.08"/><path class="cls-3" d="M214.82,174.78a.58.58,0,0,0,.57,0c.16-.09.16-.23,0-.33a.64.64,0,0,0-.57,0C214.66,174.55,214.66,174.69,214.82,174.78Z" transform="translate(-39.63 -19.66)"/><path class="cls-19" d="M215.43,173.82v.78h0c0,.05,0,.09-.1.13a.47.47,0,0,1-.46,0c-.06,0-.09-.08-.09-.13h0v-.78Z" transform="translate(-39.63 -19.66)"/><path class="cls-9" d="M214.87,174a.47.47,0,0,0,.46,0c.13-.07.13-.19,0-.26a.53.53,0,0,0-.46,0C214.74,173.76,214.74,173.88,214.87,174Z" transform="translate(-39.63 -19.66)"/><path class="cls-3" d="M215.58,175.2a.66.66,0,0,0,.58,0c.16-.09.16-.24,0-.34a.73.73,0,0,0-.58,0A.18.18,0,0,0,215.58,175.2Z" transform="translate(-39.63 -19.66)"/><path class="cls-19" d="M216.19,174.24V175h0a.17.17,0,0,1-.09.14.53.53,0,0,1-.46,0,.19.19,0,0,1-.1-.14h0v-.77Z" transform="translate(-39.63 -19.66)"/><path class="cls-9" d="M215.64,174.37a.53.53,0,0,0,.46,0,.15.15,0,0,0,0-.27.53.53,0,0,0-.46,0C215.51,174.18,215.51,174.29,215.64,174.37Z" transform="translate(-39.63 -19.66)"/><path class="cls-3" d="M216.39,175.68a.66.66,0,0,0,.58,0,.17.17,0,0,0,0-.33.66.66,0,0,0-.58,0A.18.18,0,0,0,216.39,175.68Z" transform="translate(-39.63 -19.66)"/><path class="cls-19" d="M217,174.72v.78h0a.14.14,0,0,1-.1.13.51.51,0,0,1-.45,0,.14.14,0,0,1-.1-.13h0v-.78Z" transform="translate(-39.63 -19.66)"/><path class="cls-9" d="M216.45,174.85a.45.45,0,0,0,.45,0c.14-.07.14-.19,0-.26a.51.51,0,0,0-.45,0C216.32,174.66,216.32,174.78,216.45,174.85Z" transform="translate(-39.63 -19.66)"/><path class="cls-3" d="M217.16,176.09a.6.6,0,0,0,.58,0c.15-.08.15-.23,0-.32a.66.66,0,0,0-.58,0C217,175.86,217,176,217.16,176.09Z" transform="translate(-39.63 -19.66)"/><path class="cls-19" d="M217.77,175.14v.77h0a.14.14,0,0,1-.1.13.47.47,0,0,1-.46,0,.15.15,0,0,1-.09-.13h0v-.77Z" transform="translate(-39.63 -19.66)"/><path class="cls-9" d="M217.21,175.27a.53.53,0,0,0,.46,0c.14-.07.14-.19,0-.27a.53.53,0,0,0-.46,0C217.09,175.08,217.09,175.2,217.21,175.27Z" transform="translate(-39.63 -19.66)"/><path class="cls-3" d="M223.64,168.17a.66.66,0,0,0,.58,0,.18.18,0,0,0,0-.33.66.66,0,0,0-.58,0A.17.17,0,0,0,223.64,168.17Z" transform="translate(-39.63 -19.66)"/><path class="cls-19" d="M224.25,167.21V168h0a.17.17,0,0,1-.09.13.53.53,0,0,1-.46,0,.17.17,0,0,1-.1-.13h0v-.78Z" transform="translate(-39.63 -19.66)"/><path class="cls-9" d="M223.7,167.34a.47.47,0,0,0,.46,0,.14.14,0,0,0,0-.26.53.53,0,0,0-.46,0C223.57,167.15,223.57,167.27,223.7,167.34Z" transform="translate(-39.63 -19.66)"/><path class="cls-3" d="M224.41,168.58a.58.58,0,0,0,.57,0c.16-.09.16-.23,0-.33a.71.71,0,0,0-.57,0C224.25,168.35,224.25,168.49,224.41,168.58Z" transform="translate(-39.63 -19.66)"/><path class="cls-19" d="M225,167.62v.78h0a.17.17,0,0,1-.1.13.53.53,0,0,1-.46,0,.17.17,0,0,1-.09-.13h0v-.78Z" transform="translate(-39.63 -19.66)"/><path class="cls-9" d="M224.46,167.76a.53.53,0,0,0,.46,0c.13-.08.13-.2,0-.27a.53.53,0,0,0-.46,0C224.33,167.56,224.33,167.68,224.46,167.76Z" transform="translate(-39.63 -19.66)"/><path class="cls-3" d="M207.46,177.4a.64.64,0,0,0,.57,0,.17.17,0,0,0,0-.33.64.64,0,0,0-.57,0A.17.17,0,0,0,207.46,177.4Z" transform="translate(-39.63 -19.66)"/><path class="cls-19" d="M208.07,176.44v.77h0a.17.17,0,0,1-.1.14.53.53,0,0,1-.46,0,.17.17,0,0,1-.09-.14h0v-.77Z" transform="translate(-39.63 -19.66)"/><path class="cls-9" d="M207.51,176.57a.47.47,0,0,0,.46,0c.13-.07.13-.19,0-.26a.47.47,0,0,0-.46,0C207.38,176.38,207.38,176.5,207.51,176.57Z" transform="translate(-39.63 -19.66)"/><path class="cls-3" d="M208.23,177.82a.71.71,0,0,0,.57,0c.16-.1.16-.25,0-.34a.64.64,0,0,0-.57,0C208.07,177.57,208.07,177.72,208.23,177.82Z" transform="translate(-39.63 -19.66)"/><path class="cls-19" d="M208.84,176.85v.78h0c0,.05,0,.09-.1.13a.47.47,0,0,1-.46,0c-.06,0-.09-.08-.09-.13h0v-.78Z" transform="translate(-39.63 -19.66)"/><path class="cls-9" d="M208.28,177a.53.53,0,0,0,.46,0c.13-.08.13-.2,0-.27a.53.53,0,0,0-.46,0C208.15,176.79,208.15,176.91,208.28,177Z" transform="translate(-39.63 -19.66)"/><path class="cls-3" d="M209.32,173.15a.66.66,0,0,0,.58,0,.18.18,0,0,0,0-.33.66.66,0,0,0-.58,0A.18.18,0,0,0,209.32,173.15Z" transform="translate(-39.63 -19.66)"/><path class="cls-19" d="M209.93,172.19V173h0a.17.17,0,0,1-.09.13.55.55,0,0,1-.47,0,.17.17,0,0,1-.09-.13h0v-.78Z" transform="translate(-39.63 -19.66)"/><path class="cls-9" d="M209.37,172.33a.55.55,0,0,0,.47,0,.15.15,0,0,0,0-.28.55.55,0,0,0-.47,0A.15.15,0,0,0,209.37,172.33Z" transform="translate(-39.63 -19.66)"/><path class="cls-3" d="M210.09,173.57a.64.64,0,0,0,.57,0c.16-.1.16-.24,0-.34a.64.64,0,0,0-.57,0C209.93,173.33,209.93,173.48,210.09,173.57Z" transform="translate(-39.63 -19.66)"/><path class="cls-19" d="M210.7,172.61v.77h0a.14.14,0,0,1-.1.13.53.53,0,0,1-.46,0,.15.15,0,0,1-.09-.13h0v-.77Z" transform="translate(-39.63 -19.66)"/><path class="cls-9" d="M210.14,172.73a.47.47,0,0,0,.46,0c.13-.07.13-.18,0-.26a.53.53,0,0,0-.46,0C210,172.55,210,172.66,210.14,172.73Z" transform="translate(-39.63 -19.66)"/><path class="cls-3" d="M216.17,169a.64.64,0,0,0,.57,0c.16-.1.16-.24,0-.33a.64.64,0,0,0-.57,0C216,168.75,216,168.89,216.17,169Z" transform="translate(-39.63 -19.66)"/><path class="cls-19" d="M216.78,168v.77h0a.14.14,0,0,1-.1.13.47.47,0,0,1-.46,0,.15.15,0,0,1-.09-.13h0V168Z" transform="translate(-39.63 -19.66)"/><path class="cls-9" d="M216.22,168.16a.53.53,0,0,0,.46,0c.13-.07.13-.19,0-.27a.53.53,0,0,0-.46,0C216.1,168,216.1,168.09,216.22,168.16Z" transform="translate(-39.63 -19.66)"/><path class="cls-3" d="M216.94,169.4a.64.64,0,0,0,.57,0,.17.17,0,0,0,0-.33.64.64,0,0,0-.57,0A.17.17,0,0,0,216.94,169.4Z" transform="translate(-39.63 -19.66)"/><path class="cls-19" d="M217.54,168.44v.78h0a.17.17,0,0,1-.09.13.53.53,0,0,1-.46,0,.19.19,0,0,1-.1-.13h0v-.78Z" transform="translate(-39.63 -19.66)"/><path class="cls-9" d="M217,168.57a.47.47,0,0,0,.46,0c.13-.07.13-.19,0-.26a.47.47,0,0,0-.46,0C216.86,168.38,216.86,168.5,217,168.57Z" transform="translate(-39.63 -19.66)"/><path class="cls-11" d="M212.78,188a2.26,2.26,0,0,0-1-1.76l-14.4-8.31-.33.2,14.73,10.46a1,1,0,0,0,.43.14l0,.09.34-.22A.8.8,0,0,0,212.78,188Z" transform="translate(-39.63 -19.66)"/><path class="cls-12" d="M211.44,186.39,197,178.08v2.34l14.4,8.32c.56.32,1,.06,1-.59A2.24,2.24,0,0,0,211.44,186.39Z" transform="translate(-39.63 -19.66)"/><polygon points="164.57 163.3 164.57 164.59 164.8 164.45 164.81 163.17 164.57 163.3"/><polygon class="cls-1" points="160.84 161.14 162.41 162.28 164.57 163.3 164.81 163.17 161.07 161.01 160.84 161.14"/><polygon points="160.84 161.14 160.84 162.43 164.57 164.59 164.57 163.3 160.84 161.14"/><polygon points="161.22 161.68 161.22 162.3 164.2 164.03 164.2 163.42 161.22 161.68"/><polygon points="168.14 165.36 168.14 166.64 168.37 166.51 168.37 165.22 168.14 165.36"/><polygon class="cls-1" points="165.63 163.91 167.2 165.05 168.14 165.36 168.37 165.22 165.87 163.77 165.63 163.91"/><polygon points="165.63 163.91 165.63 165.2 168.14 166.64 168.14 165.36 165.63 163.91"/><polygon points="166 164.45 166 165.07 167.76 166.09 167.76 165.47 166 164.45"/><path class="cls-3" d="M196.44,195.43a11,11,0,0,0-10,0c-2.76,1.6-2.76,4.18,0,5.77a11,11,0,0,0,10,0C199.21,199.61,199.21,197,196.44,195.43Z" transform="translate(-39.63 -19.66)"/><path class="cls-12" d="M191.5,187.08c-2,.31-3,.46-4.21,1.32a11.33,11.33,0,0,0-2.63,5.93,6.85,6.85,0,0,0,13.67,0,8.17,8.17,0,0,0-2.75-6.06A6.36,6.36,0,0,0,191.5,187.08Z" transform="translate(-39.63 -19.66)"/><path class="cls-4" d="M194.9,187.79a7.48,7.48,0,0,0-6.8,0c-1.89,1.08-1.89,2.84,0,3.92a7.48,7.48,0,0,0,6.8,0C196.77,190.63,196.77,188.87,194.9,187.79Z" transform="translate(-39.63 -19.66)"/><path d="M193.87,189.17a5.21,5.21,0,0,0-4.74,0,2.05,2.05,0,0,0-.87.86,2.09,2.09,0,0,0,.87.85,5.21,5.21,0,0,0,4.74,0,2.06,2.06,0,0,0,.86-.85A2,2,0,0,0,193.87,189.17Z" transform="translate(-39.63 -19.66)"/><path class="cls-13" d="M193.87,188.15a5.21,5.21,0,0,0-4.74,0c-.89.51-1.17,1.23-.87,1.88a2.05,2.05,0,0,1,.87-.86,5.21,5.21,0,0,1,4.74,0,2,2,0,0,1,.86.86C195,189.38,194.75,188.66,193.87,188.15Z" transform="translate(-39.63 -19.66)"/><path class="cls-20" d="M175.45,182.6c7.12-1.85,10.57,3,13.89-2.61S177.51,178.77,175.45,182.6Z" transform="translate(-39.63 -19.66)"/><path class="cls-15" d="M178.09,181a21.35,21.35,0,0,0-2.1,1.1C176.71,181.7,177.41,181.33,178.09,181Z" transform="translate(-39.63 -19.66)"/><path class="cls-21" d="M178.09,181c5.87-2.57,10.51-.48,10.8-1S184.69,177.93,178.09,181Z" transform="translate(-39.63 -19.66)"/><path class="cls-20" d="M187.51,172c.38,4.1-2,8,4.64,7.45S193.36,172.21,187.51,172Z" transform="translate(-39.63 -19.66)"/><path class="cls-21" d="M189.25,172.78c3.7,2.48,2.19,6.45,2.77,6.42S193.6,175.49,189.25,172.78Z" transform="translate(-39.63 -19.66)"/><path class="cls-15" d="M189.25,172.78a8.77,8.77,0,0,0-1.44-.75A11.35,11.35,0,0,1,189.25,172.78Z" transform="translate(-39.63 -19.66)"/><path class="cls-20" d="M194.84,182.32c-2.53,6.19,4.72-1.74,13.18-3.3C205.36,177.62,197.4,176.12,194.84,182.32Z" transform="translate(-39.63 -19.66)"/><path class="cls-21" d="M195.06,182.78c-.25.61,2.38-3.58,12.35-3.76C198,178.57,195.3,182.19,195.06,182.78Z" transform="translate(-39.63 -19.66)"/><path d="M191.56,189a.85.85,0,0,0-.86.85v1.52a5,5,0,0,0,1.7,0v-1.51A.85.85,0,0,0,191.56,189Z" transform="translate(-39.63 -19.66)"/><path class="cls-9" d="M191.51,179.34c-1.94,0-3.49,2.7-3.49,6s1.55,6,3.49,6,3.49-2.69,3.49-6S193.44,179.34,191.51,179.34Z" transform="translate(-39.63 -19.66)"/><path class="cls-20" d="M192.1,184.77c-5.21-2.77-2.72,6,.08,9.9C194.08,193,197.28,187.54,192.1,184.77Z" transform="translate(-39.63 -19.66)"/><path class="cls-21" d="M191.6,184.85c-.51-.28.77,2.51.71,9.4C193.37,188.74,192.1,185.12,191.6,184.85Z" transform="translate(-39.63 -19.66)"/><path class="cls-20" d="M193,183.59c-7.06,0,2.59,3.46,5.53,10.25C199.64,191,200.07,183.52,193,183.59Z" transform="translate(-39.63 -19.66)"/><path class="cls-21" d="M192.53,183.94c-.7,0,4.23.75,5.89,9.38C197.53,185,193.2,183.93,192.53,183.94Z" transform="translate(-39.63 -19.66)"/><path class="cls-20" d="M183.76,192.28c4.41-4.93,9.43-3.05,9.12-8.87S183.4,188.37,183.76,192.28Z" transform="translate(-39.63 -19.66)"/><path class="cls-15" d="M184.91,189.83a14.69,14.69,0,0,0-1,1.81C184.24,191,184.58,190.38,184.91,189.83Z" transform="translate(-39.63 -19.66)"/><path class="cls-21" d="M184.91,189.83c3.13-4.9,7.7-5.65,7.67-6.16S188.35,184.18,184.91,189.83Z" transform="translate(-39.63 -19.66)"/><path class="cls-22" d="M177.35,174.85c6.9,2.63,5.65,10.33,12.69,6.28S182,171.94,177.35,174.85Z" transform="translate(-39.63 -19.66)"/><path class="cls-15" d="M180.54,174.8a13.94,13.94,0,0,0-2.39-.15A19.89,19.89,0,0,1,180.54,174.8Z" transform="translate(-39.63 -19.66)"/><path class="cls-20" d="M180.54,174.8c6.61,1,8.49,6.43,9.09,6.1S188.13,175.72,180.54,174.8Z" transform="translate(-39.63 -19.66)"/><path class="cls-22" d="M190.94,182.51c5.28,3.46,6.46-5.3,14.68-7.13C198.85,171.08,185,177.45,190.94,182.51Z" transform="translate(-39.63 -19.66)"/><path class="cls-20" d="M191.34,182.27c.71.4,3.86-8.23,14.06-7C195.87,173.45,190.66,181.87,191.34,182.27Z" transform="translate(-39.63 -19.66)"/><path class="cls-22" d="M191.06,181.53c-10.18-3.94-13.62,5.61-13.59,10.4C182.85,185.06,199.49,184.8,191.06,181.53Z" transform="translate(-39.63 -19.66)"/><path class="cls-20" d="M179.58,187.7c4.21-5.52,11.65-5.55,11-5.9S183.63,181.88,179.58,187.7Z" transform="translate(-39.63 -19.66)"/><path class="cls-15" d="M179.58,187.7a12.7,12.7,0,0,0-2.11,4.23A16.71,16.71,0,0,1,179.58,187.7Z" transform="translate(-39.63 -19.66)"/><path class="cls-22" d="M193.41,182.16c-7.65,4.41,4.92,2.16,12.24,7.73C205.14,186.12,201,177.75,193.41,182.16Z" transform="translate(-39.63 -19.66)"/><path class="cls-20" d="M193.09,182.84c-.74.43,5.07-1.79,12.15,6.54C199.14,180.87,193.84,182.41,193.09,182.84Z" transform="translate(-39.63 -19.66)"/><path d="M136.44,80.9a2.26,2.26,0,0,0-.26-.16c-2.24-1.3-6.78-.77-10.13,1.17a8.16,8.16,0,0,0-2.55,2.14h-.7v1.81h0A2.14,2.14,0,0,0,124,87.75c2.24,1.3,6.78.78,10.14-1.16,2.09-1.21,3.23-2.69,3.25-3.94h0V80.83Z" transform="translate(-39.63 -19.66)"/><path d="M134.17,84.76c-3.36,1.94-7.9,2.46-10.14,1.17s-1.33-3.92,2-5.86,7.89-2.46,10.13-1.16S137.52,82.82,134.17,84.76Z" transform="translate(-39.63 -19.66)"/><path d="M131.42,86l.39-.13-7.62-4.4c-.07.08-.15.15-.21.23l3.57,2.06-.57.33a2.16,2.16,0,0,0-1.41.31c-.47.27-.68.6-.53.81l-1.15.66.14.1.16.08,1.15-.66a2.22,2.22,0,0,0,1.41-.31c.47-.28.67-.6.53-.81l.57-.33Z" transform="translate(-39.63 -19.66)"/><path class="cls-23" d="M127.2,84.05l-.23.07a2,2,0,0,0-1.31.29,1.39,1.39,0,0,0-.32.23l-.22.07V85h0a.21.21,0,0,0,.12.2,1.69,1.69,0,0,0,1.42-.23c.35-.21.55-.45.54-.62h0Z" transform="translate(-39.63 -19.66)"/><path class="cls-24" d="M126.66,84.67a1.74,1.74,0,0,1-1.42.24c-.28-.16-.09-.53.42-.82a1.72,1.72,0,0,1,1.41-.24C127.35,84,127.17,84.38,126.66,84.67Z" transform="translate(-39.63 -19.66)"/><path d="M183.88,232c-2.39,0-5.34-1-8.76-3.06-16-9.53-43.18-43.6-40.43-77.57,1.06-13-4-28.46-8.08-40.86-4.13-12.57-7.12-21.66-2.93-24.24a.46.46,0,0,1,.64.16.46.46,0,0,1-.16.63c-3.56,2.19-.37,11.91,3.33,23.16,4.1,12.47,9.2,28,8.13,41.22-2.72,33.59,24.16,67.28,40,76.71,4.88,2.9,8.83,3.67,11.14,2.17a.48.48,0,0,1,.65.13.47.47,0,0,1-.14.65A6.09,6.09,0,0,1,183.88,232Z" transform="translate(-39.63 -19.66)"/><path d="M132,94.23v-2a2.68,2.68,0,0,1,2.59,0l13.27-7.67a2.85,2.85,0,0,1,2.54-.09l42.73,24.62a2.85,2.85,0,0,1,2.7,0v2h0a1,1,0,0,1-.61.85l-15.25,8.81a2.78,2.78,0,0,1-2.52.1l-45-25.91a.74.74,0,0,1-.42-.63Z" transform="translate(-39.63 -19.66)"/><path d="M132,94.23v-2a2.68,2.68,0,0,1,2.59,0l13.27-7.67a2.85,2.85,0,0,1,2.54-.09l42.73,24.62a2.85,2.85,0,0,1,2.7,0v2h0a1,1,0,0,1-.61.85l-15.25,8.81a2.78,2.78,0,0,1-2.52.1l-45-25.91a.74.74,0,0,1-.42-.63Z" transform="translate(-39.63 -19.66)"/><path d="M132.39,92.87l45,25.92a2.84,2.84,0,0,0,2.52-.1l15.25-8.83c.74-.42.82-1.09.18-1.46l-45-25.92a2.79,2.79,0,0,0-2.54.1l-15.25,8.8C131.83,91.83,131.74,92.49,132.39,92.87Z" transform="translate(-39.63 -19.66)"/><polygon points="111.08 72.63 112.82 73.61 114.69 72.52 112.96 71.53 111.08 72.63"/><polygon points="115.44 72.52 117.17 73.53 119.06 72.43 117.32 71.44 115.44 72.52"/><polygon points="113.31 71.32 115.06 72.31 116.94 71.22 115.22 70.23 113.31 71.32"/><polygon points="111.21 70.09 112.95 71.09 114.83 70.01 113.11 69 111.21 70.09"/><polygon points="134.49 83.58 144.88 89.57 146.77 88.47 136.39 82.49 134.49 83.58"/><polygon points="136.09 97.5 137.82 98.52 139.43 97.58 137.68 96.59 136.09 97.5"/><polygon points="126.43 91.95 134.96 96.87 136.57 95.95 128.03 91.02 126.43 91.95"/><polygon points="116.43 86.21 124.97 91.11 126.57 90.19 118.03 85.27 116.43 86.21"/><polygon points="106.51 80.49 115.05 85.39 116.65 84.47 108.11 79.55 106.51 80.49"/><polygon points="99.84 76.62 105.79 80.06 107.39 79.14 101.45 75.69 99.84 76.62"/><polygon points="147.4 91.02 149.14 92.03 151.03 90.93 149.29 89.93 147.4 91.02"/><polygon points="145.28 89.8 147.01 90.8 148.9 89.71 147.16 88.71 145.28 89.8"/><polygon points="134.38 93.63 136.11 94.63 138 93.53 136.27 92.54 134.38 93.63"/><polygon points="132.16 92.35 133.91 93.35 135.8 92.27 134.07 91.26 132.16 92.35"/><polygon points="129.99 91.11 131.72 92.09 133.62 91 131.88 90 129.99 91.11"/><polygon points="127.82 89.86 129.57 90.86 131.46 89.77 129.73 88.78 127.82 89.86"/><polygon points="126.22 78.82 127.96 79.82 129.85 78.72 128.11 77.72 126.22 78.82"/><polygon points="117.82 73.99 121.84 76.28 123.71 75.2 119.72 72.88 117.82 73.99"/><polygon points="143.1 91.06 144.99 89.95 148.85 92.2 146.96 93.3 143.1 91.06"/><polygon points="140.97 89.84 142.7 90.83 144.58 89.73 142.85 88.75 140.97 89.84"/><polygon points="138.76 88.57 140.49 89.57 142.39 88.47 140.65 87.47 138.76 88.57"/><polygon points="136.57 87.32 138.31 88.3 140.2 87.21 138.47 86.21 136.57 87.32"/><polygon points="134.42 86.05 136.15 87.06 138.05 85.97 136.31 84.96 134.42 86.05"/><polygon points="124.04 80.08 125.78 81.08 127.66 80 125.93 79 124.04 80.08"/><polygon points="140.92 92.33 142.8 91.24 146.66 93.47 144.77 94.55 140.92 92.33"/><polygon points="138.78 91.09 140.51 92.09 142.4 91 140.67 90 138.78 91.09"/><polygon points="136.57 89.82 138.31 90.83 140.2 89.73 138.47 88.73 136.57 89.82"/><polygon points="134.39 88.57 136.12 89.57 138 88.47 136.29 87.47 134.39 88.57"/><polygon points="132.24 87.32 133.97 88.31 135.85 87.24 134.13 86.24 132.24 87.32"/><polygon points="121.86 81.33 123.59 82.35 125.48 81.25 123.75 80.24 121.86 81.33"/><polygon points="115.64 75.25 117.53 74.15 121.53 76.46 119.65 77.55 117.48 76.31 115.31 77.57 113.46 76.5 115.64 75.25 115.64 75.25"/><polygon points="139.26 93.89 141.15 92.8 144.49 94.72 142.59 95.81 139.26 93.89"/><polygon points="136.58 92.35 138.33 93.35 140.22 92.27 138.5 91.26 136.58 92.35"/><polygon points="134.4 91.08 136.12 92.09 138.01 91 136.29 89.98 134.4 91.08"/><polygon points="132.22 89.84 133.95 90.83 135.84 89.73 134.09 88.73 132.22 89.84"/><polygon points="130.05 88.59 131.79 89.58 133.67 88.49 131.95 87.5 130.05 88.59"/><polygon points="125.72 88.65 127.45 89.65 129.35 88.55 127.62 87.55 125.72 88.65"/><polygon points="132.31 84.85 134.05 85.85 135.93 84.75 134.19 83.76 132.31 84.85"/><polygon points="130.12 86.11 131.86 87.11 133.74 86.01 132.01 85.02 130.12 86.11"/><polygon points="127.93 87.38 129.68 88.37 131.56 87.27 129.83 86.28 127.93 87.38"/><polygon points="132.43 82.4 134.16 83.39 136.05 82.31 134.32 81.3 132.43 82.4"/><polygon points="130.25 83.65 131.97 84.64 133.87 83.58 132.14 82.57 130.25 83.65"/><polygon points="128.06 84.92 129.79 85.93 131.68 84.82 129.94 83.82 128.06 84.92"/><polygon points="125.87 86.18 127.62 87.18 129.5 86.09 127.76 85.09 125.87 86.18"/><polygon points="130.3 81.17 132.03 82.16 133.92 81.08 132.2 80.08 130.3 81.17"/><polygon points="128.11 82.44 129.85 83.42 131.73 82.34 130.01 81.33 128.11 82.44"/><polygon points="125.93 83.71 127.66 84.69 129.56 83.62 127.82 82.6 125.93 83.71"/><polygon points="123.75 84.96 125.48 85.96 127.37 84.85 125.64 83.87 123.75 84.96"/><polygon points="128.25 80 129.98 80.99 131.88 79.9 130.14 78.9 128.25 80"/><polygon points="126.07 81.25 127.8 82.24 129.69 81.16 127.95 80.15 126.07 81.25"/><polygon points="123.89 82.52 125.61 83.5 127.5 82.42 125.78 81.42 123.89 82.52"/><polygon points="121.69 83.78 123.44 84.77 125.32 83.67 123.59 82.69 121.69 83.78"/><polygon points="119.67 82.6 121.42 83.62 123.29 82.52 121.55 81.5 119.67 82.6"/><polygon points="111.28 77.78 115.28 80.08 117.17 79 113.16 76.67 111.28 77.78"/><polygon points="138.67 96.08 140.4 97.08 142.29 95.98 140.57 94.98 138.67 96.08"/><polygon points="136.54 94.86 138.28 95.85 140.17 94.76 138.43 93.76 136.54 94.86"/><polygon points="121.55 86.23 123.29 87.21 125.19 86.11 123.45 85.12 121.55 86.23"/><polygon points="123.69 87.44 125.42 88.44 127.31 87.35 125.59 86.36 123.69 87.44"/><polygon points="119.51 85.05 121.25 86.05 123.15 84.95 121.42 83.96 119.51 85.05"/><polygon points="117.49 83.88 119.22 84.88 121.11 83.78 119.38 82.78 117.49 83.88"/><polygon points="124.2 77.65 125.94 78.67 127.82 77.57 126.09 76.58 124.2 77.65"/><polygon points="122.01 78.92 123.75 79.93 125.65 78.83 123.91 77.83 122.01 78.92"/><polygon points="119.84 80.19 121.56 81.17 123.46 80.08 121.72 79.09 119.84 80.19"/><polygon points="117.65 81.45 119.39 82.44 121.28 81.36 119.53 80.36 117.65 81.45"/><polygon points="115.47 82.71 117.19 83.71 119.1 82.61 117.36 81.63 115.47 82.71"/><polygon points="122.18 76.5 123.91 77.48 125.79 76.4 124.06 75.41 122.18 76.5"/><polygon points="108.89 76.42 110.63 77.41 112.51 76.33 110.78 75.33 108.89 76.42"/><polygon points="106.78 75.2 108.52 76.2 110.42 75.08 108.67 74.1 106.78 75.2"/><polygon points="104.68 73.98 106.41 74.98 108.28 73.89 106.56 72.88 104.68 73.98"/><polygon points="106.72 77.68 108.44 78.67 110.33 77.59 108.6 76.58 106.72 77.68"/><polygon points="104.6 76.46 106.34 77.46 108.23 76.35 106.48 75.37 104.6 76.46"/><polygon points="102.5 75.24 104.23 76.25 106.1 75.16 104.38 74.15 102.5 75.24"/><polygon points="108.79 68.78 110.52 69.78 112.42 68.69 110.67 67.69 108.79 68.78"/><polygon points="106.68 67.57 108.41 68.57 110.3 67.45 108.57 66.47 106.68 67.57"/><polygon points="104.57 66.36 106.3 67.34 108.19 66.27 106.46 65.25 104.57 66.36"/><polygon points="106.6 70.03 108.34 71.04 110.23 69.95 108.5 68.94 106.6 70.03"/><polygon points="104.5 68.82 106.22 69.82 108.11 68.72 106.38 67.75 104.5 68.82"/><polygon points="104.39 71.33 106.1 72.33 108.02 71.24 106.28 70.23 104.39 71.33"/><polygon points="102.27 70.11 104.01 71.11 105.89 70.01 104.17 69.02 102.27 70.11"/><polygon points="104.27 66.52 106.01 67.51 101.89 69.88 100.16 68.9 104.27 66.52"/><polygon points="102.2 72.59 103.93 73.59 105.83 72.5 104.09 71.5 102.2 72.59"/><polygon points="100.11 71.37 101.83 72.36 103.72 71.28 101.98 70.28 100.11 71.37"/><polygon points="97.95 72.61 99.83 71.53 103.67 73.74 101.79 74.83 97.95 72.61"/><polygon points="99.86 69.07 101.6 70.06 97.57 72.39 95.82 71.41 99.86 69.07"/><polygon points="119.99 77.76 121.72 78.75 123.62 77.66 121.89 76.67 119.99 77.76"/><polygon points="117.8 79.01 119.54 80 121.43 78.92 119.69 77.92 117.8 79.01"/><polygon points="115.73 77.81 117.45 78.82 119.34 77.72 117.62 76.72 115.73 77.81"/><polygon points="115.62 80.28 117.36 81.28 119.26 80.19 117.53 79.2 115.62 80.28"/><polygon points="113.45 81.56 115.18 82.55 117.07 81.45 115.33 80.45 113.45 81.56"/><polygon points="111.36 80.36 113.09 81.33 114.99 80.24 113.24 79.24 111.36 80.36"/><polygon points="109.09 79.04 111.09 80.19 112.98 79.09 110.98 77.94 109.09 79.04"/><polygon points="96.19 72.71 99.38 74.55 99.66 74.39 96.47 72.55 96.19 72.71"/><polygon points="95.53 73.09 98.73 74.94 99 74.76 95.81 72.93 95.53 73.09"/><polygon points="94.87 73.49 98.08 75.33 98.35 75.16 95.14 73.31 94.87 73.49"/><polygon class="cls-25" points="96.17 74.22 96.75 74.57 97.03 74.4 96.46 74.06 96.17 74.22"/><path d="M181.91,230.1c-7.16,0-19.82-13.43-29.29-27.8C142.54,187,134,167,142.92,161c7.21-4.8,1.2-16-5.18-27.78-7.68-14.24-16.38-30.37-2.82-38.3a.46.46,0,0,1,.63.17.45.45,0,0,1-.16.63c-12.79,7.48-4.68,22.52,3.17,37.06,6.58,12.2,12.79,23.72,4.87,29s-.65,23.85,10,40c11.86,18,25.53,30.05,30.47,26.85a.47.47,0,0,1,.64.13.46.46,0,0,1-.14.64A4.37,4.37,0,0,1,181.91,230.1Z" transform="translate(-39.63 -19.66)"/><path class="cls-7" d="M151,97c-1.22-.2-3-8.08-2.38-10.28s5.93-6.43,7.84-7.82,6.76.35,6.76.35c1.57,1.68-.29,9-.29,9s-2.55,6.44-4.29,5.91,1.39-5.72-.35-6.32S154,90.61,154,90.61,152.24,97.14,151,97Z" transform="translate(-39.63 -19.66)"/><path class="cls-7" d="M207.5,83.48c.49,7.42.37,13.29.37,13.29-5.94-1.47-12.27-1.54-17.67-3.94-2-.46-9.61.11-14.45,2.37-1.05.48-8.41,6.44-7.72,8,5.5,12.22,21.11-1.92,21.7-2.16,10.81,6.64,24.82,15.76,31,4.13,1.68-2.72.06-22.36.06-22.36L214,79.66A45.93,45.93,0,0,0,207.5,83.48Z" transform="translate(-39.63 -19.66)"/><path d="M213.29,59.91c9.73-1.85,9.17,10.09,9.73,15,.25,2.22.21,10.73.32,14.42.16,5-16.72,5.54-17,1.8-.21-2.72-.45-8-.32-11.24C206.22,75.4,203.29,61.82,213.29,59.91Z" transform="translate(-39.63 -19.66)"/><path class="cls-3" d="M112.34,78.87a3.41,3.41,0,0,1,0-6.39,9.17,9.17,0,0,1,3.24-1.07l1.8-.11a10,10,0,0,1,4.94,1.18,3.41,3.41,0,0,1,0,6.39,10.11,10.11,0,0,1-5,1.19A10.27,10.27,0,0,1,112.34,78.87Z" transform="translate(-39.63 -19.66)"/><path class="cls-4" d="M122.05,61.57a9.42,9.42,0,0,0-4.66-1.11l-1.77.11a8.57,8.57,0,0,0-3,1c-2.6,1.48-2.6,3.94,0,5.43a10.38,10.38,0,0,0,9.43,0C124.65,65.51,124.65,63.08,122.05,61.57Z" transform="translate(-39.63 -19.66)"/><path class="cls-26" d="M112.32,65.84a4.24,4.24,0,0,1,.91-.68,7.57,7.57,0,0,1,2.61-.86l1.55-.14a8.69,8.69,0,0,1,4,1,3.86,3.86,0,0,1,.92.68c1.29-1.25,1-2.92-.92-4a8.93,8.93,0,0,0-4-1l-1.55.12a8.53,8.53,0,0,0-2.61.86C111.34,62.89,111,64.59,112.32,65.84Z" transform="translate(-39.63 -19.66)"/><path d="M112.32,65.84a5.2,5.2,0,0,0,.91.73,9.17,9.17,0,0,0,8.2,0,4.62,4.62,0,0,0,.92-.73,3.86,3.86,0,0,0-.92-.68,8.69,8.69,0,0,0-4-1l-1.55.14a7.57,7.57,0,0,0-2.61.86A4.24,4.24,0,0,0,112.32,65.84Z" transform="translate(-39.63 -19.66)"/><path class="cls-4" d="M112.62,67a10.38,10.38,0,0,0,9.43,0,3.36,3.36,0,0,0,2-2.54V75.55h0a3.31,3.31,0,0,1-2,2.71,10.44,10.44,0,0,1-9.43,0,3.28,3.28,0,0,1-1.94-2.9V66.57l0-2.25A3.3,3.3,0,0,0,112.62,67Z" transform="translate(-39.63 -19.66)"/><path class="cls-4" d="M124,75.84h3.07a2.56,2.56,0,0,0,2.56-2.54V68a2.57,2.57,0,0,0-2.56-2.57H124v1.7h3.07a.87.87,0,0,1,.85.87V73.3a.86.86,0,0,1-.85.85H124Z" transform="translate(-39.63 -19.66)"/><path d="M96.45,129.45a1.45,1.45,0,0,1,1.44,0l7.33-4.26a1.57,1.57,0,0,1,1.4,0l23.64,13.6a1.6,1.6,0,0,1,1.5,0v1.69h0c0,.17-.11.34-.35.46L123,145.83a1.6,1.6,0,0,1-1.41.06l-24.9-14.34a.42.42,0,0,1-.23-.34Z" transform="translate(-39.63 -19.66)"/><path class="cls-1" d="M96.68,129.84l24.9,14.33a1.6,1.6,0,0,0,1.41,0l8.42-4.9c.42-.23.47-.59.1-.8l-24.89-14.35a1.58,1.58,0,0,0-1.4.06L96.79,129C96.38,129.23,96.33,129.61,96.68,129.84Z" transform="translate(-39.63 -19.66)"/><path d="M143.73,104.42l-54-31.19a.66.66,0,0,0-.71,0v0l-1.57.92,1.1,1.55.3-.26v36.73a2.22,2.22,0,0,0,1,1.68l52.72,30.45.37,1.72,1.51-.9h0a.72.72,0,0,0,.29-.63V106.11A2.11,2.11,0,0,0,143.73,104.42Z" transform="translate(-39.63 -19.66)"/><path d="M142.2,145.91l-54-31.19a2.15,2.15,0,0,1-1-1.69V74.7c0-.63.42-.89,1-.58l54,31.18a2.19,2.19,0,0,1,1,1.69v38.33C143.18,146,142.73,146.19,142.2,145.91Z" transform="translate(-39.63 -19.66)"/><polygon points="80.93 106.79 80.92 122.14 83.55 120.66 83.56 101.75 82.56 102.22 80.93 106.79"/><polygon points="61.63 95.66 61.63 110.99 80.92 122.14 80.93 106.79 61.63 95.66"/><polygon points="63.26 91.09 61.63 95.65 80.93 106.79 82.56 102.22 63.26 91.09"/><polygon class="cls-1" points="64.25 90.62 63.27 91.08 82.56 102.22 83.56 101.75 64.25 90.62"/><polygon points="52 99.37 52 97.85 55.16 97.99 55.16 99.5 53 99.94 52 99.37"/><polygon class="cls-14" points="57.62 96.58 55.21 95.19 52.75 96.6 52 97.85 53 98.43 55.16 97.99 57.62 96.58"/><polygon points="57.62 98.1 57.62 96.58 55.16 97.99 55.16 99.5 57.62 98.1"/><path d="M167.83,248.83c-18.61,0-43.13-39.77-50.76-53C98,162.76,83.3,123.66,91.86,118.17a.46.46,0,1,1,.5.78c-7.1,4.55,5.06,41,25.51,76.41,17.14,29.7,40.59,58.76,55,51.32a.46.46,0,1,1,.43.82A11.82,11.82,0,0,1,167.83,248.83Z" transform="translate(-39.63 -19.66)"/><rect class="cls-1" x="37.48" width="2.5" height="46.5"/><rect x="25.14" y="73.09" width="19.98" height="19.14"/><rect class="cls-1" x="25.14" y="71.47" width="19.98" height="19.14"/><rect x="37.48" y="46.5" width="2.5" height="38.52"/><rect x="32.77" y="70.71" width="4.71" height="17.44"/><polygon points="37.48 49.36 30.88 49.36 30.88 27.57 37.48 18.18 37.48 49.36"/><polygon points="37.48 70.71 30.88 70.71 30.88 48.93 37.48 39.53 37.48 70.71"/><path d="M176.14,251.44c-7.25,0-17.64-7.32-31-21.83C106,186.9,57.77,100.15,64.61,84.58a4.28,4.28,0,0,1,4.25-2.69.47.47,0,1,1,0,.93A3.37,3.37,0,0,0,65.46,85c-6.59,15,42.25,102.49,80.4,144,14.8,16.11,26.2,23.42,33,21.1a.47.47,0,0,1,.59.29.45.45,0,0,1-.29.59A9.14,9.14,0,0,1,176.14,251.44Z" transform="translate(-39.63 -19.66)"/><path d="M70.51,83.33H68.88a.47.47,0,0,1-.41-.28,1.54,1.54,0,0,1,0-1.37.48.48,0,0,1,.43-.28h1.62Z" transform="translate(-39.63 -19.66)"/><path d="M199.35,159a1.67,1.67,0,0,1-1.66,1.65H172.12a1.67,1.67,0,0,1-1.66-1.65v-1.56h28.89Z" transform="translate(-39.63 -19.66)"/><path class="cls-1" d="M132.49,126.86h25.56a1.66,1.66,0,0,1,1.66,1.66v9.73a1.66,1.66,0,0,1-1.66,1.66H132.49a1.65,1.65,0,0,1-1.65-1.65v-9.73A1.66,1.66,0,0,1,132.49,126.86Z"/><path d="M147.39,145.09h75V108.94A1.92,1.92,0,0,0,220.5,107H149.31a1.92,1.92,0,0,0-1.92,1.91Z" transform="translate(-39.63 -19.66)"/><path d="M147.39,146.53a1.93,1.93,0,0,0,1.92,1.92H220.5a1.93,1.93,0,0,0,1.92-1.92V110.38a1.93,1.93,0,0,0-1.92-1.92H149.31a1.93,1.93,0,0,0-1.92,1.92Z" transform="translate(-39.63 -19.66)"/><rect x="113.48" y="117.75" width="18.83" height="7.46"/><rect class="cls-13" x="115.97" y="120.81" width="4.62" height="2.26"/><polygon points="120.14 123.77 116.43 123.77 116.43 124.81 117.5 126.06 119.07 126.06 120.14 124.81 120.14 123.77"/><polygon class="cls-14" points="120.14 121.1 116.43 121.1 116.43 123.77 117.5 125.02 119.07 125.02 120.14 123.77 120.14 121.1"/><path d="M170.23,251.25c-8.34,0-14.65-2.44-18.78-7.28-11.45-13.4-5-42.26.71-67.73,2.7-12,5.24-23.39,5.24-31a.47.47,0,0,1,.46-.47.46.46,0,0,1,.46.47c0,7.7-2.55,19.11-5.25,31.19-5.66,25.26-12.06,53.88-.92,66.93,4.47,5.23,11.32,7.47,20.95,6.86a.46.46,0,0,1,.49.44.47.47,0,0,1-.44.49C172.15,251.22,171.17,251.25,170.23,251.25Z" transform="translate(-39.63 -19.66)"/><rect x="134.98" y="118.84" width="20.6" height="16.71"/><rect x="134.98" y="114.69" width="20.6" height="4.15"/><rect class="cls-1" x="134.98" y="113.98" width="20.6" height="0.71"/></svg>