<svg id="Layer_1" data-name="Layer 1" xmlns="http://www.w3.org/2000/svg" xmlns:xlink="http://www.w3.org/1999/xlink" viewBox="0 0 139.87 117.15"><defs><style>.cls-1,.cls-37{fill:#e6e6e6;}.cls-2{fill:url(#New_Gradient_Swatch_copy_2);}.cls-23,.cls-24,.cls-3{fill:#f2f2f2;}.cls-4{fill:#828282;}.cls-5{fill:url(#New_Gradient_Swatch_copy_12);}.cls-6{fill:#cdcdcd;}.cls-7{fill:#b4b4b4;}.cls-8{fill:#9b9b9b;}.cls-9{fill:#c3c3c3;}.cls-10{fill:#d7d7d7;}.cls-11{fill:#afafaf;}.cls-12{fill:#d8d8d8;}.cls-13{fill:url(#New_Gradient_Swatch_copy_6);}.cls-14{fill:url(#linear-gradient);}.cls-15{fill:#f7f7f7;}.cls-16{fill:#fefefe;}.cls-17{opacity:0.6;}.cls-18,.cls-24{opacity:0.3;}.cls-19,.cls-33{opacity:0.1;}.cls-20{fill:#b3b3b3;}.cls-21{fill:#343434;}.cls-22{fill:#404040;}.cls-23,.cls-37{opacity:0.2;}.cls-25{fill:#282828;}.cls-26{fill:url(#New_Gradient_Swatch_copy_10);}.cls-27{fill:#bbb;}.cls-28{fill:#c7c7c7;}.cls-29{opacity:0.15;}.cls-30{fill:#6c6c6c;}.cls-31{fill:#949494;}.cls-32{fill:#787878;}.cls-34{fill:#3e3e3e;}.cls-35{fill:#2a2a2a;}.cls-36{fill:#1a1a1a;}.cls-38{fill:#ebebeb;}.cls-39{fill:#898989;}.cls-40{fill:#626262;}.cls-41{fill:none;}.cls-42{fill:#545454;}.cls-43{fill:url(#New_Gradient_Swatch_copy_3);}.cls-44{fill:url(#New_Gradient_Swatch_copy_3-2);}.cls-45{fill:#dbdbdb;}.cls-46{fill:url(#New_Gradient_Swatch_copy_10-2);}.cls-47{fill:url(#New_Gradient_Swatch_copy_8);}.cls-48{fill:#d3d3d3;}.cls-49{opacity:0.5;}.cls-50{fill:url(#New_Gradient_Swatch_copy_5);}.cls-51{fill:url(#New_Gradient_Swatch_copy_6-2);}.cls-52{fill:url(#linear-gradient-2);}.cls-53{fill:url(#linear-gradient-3);}.cls-54{fill:url(#New_Gradient_Swatch_copy_5-2);}.cls-55{fill:url(#New_Gradient_Swatch_copy_5-3);}.cls-56{fill:#1f1f1f;}.cls-57{fill:url(#New_Gradient_Swatch_copy_3-3);}.cls-58{fill:url(#New_Gradient_Swatch_3);}.cls-59{fill:url(#New_Gradient_Swatch_3-2);}.cls-60{fill:url(#New_Gradient_Swatch_copy_2-2);}</style><linearGradient id="New_Gradient_Swatch_copy_2" y1="55.68" x2="139.87" y2="55.68" gradientUnits="userSpaceOnUse"><stop offset="0" stop-color="#d8d8d8"/><stop offset="1" stop-color="#e6e6e6"/></linearGradient><linearGradient id="New_Gradient_Swatch_copy_12" x1="14.58" y1="57.24" x2="121.43" y2="57.24" gradientUnits="userSpaceOnUse"><stop offset="0" stop-color="#818181"/><stop offset="0.99" stop-color="gray"/></linearGradient><linearGradient id="New_Gradient_Swatch_copy_6" x1="37.57" y1="76.96" x2="59.95" y2="76.96" gradientUnits="userSpaceOnUse"><stop offset="0" stop-color="#767676"/><stop offset="0.99" stop-color="#747474"/></linearGradient><linearGradient id="linear-gradient" x1="25.45" y1="30.16" x2="28.06" y2="83.91" gradientUnits="userSpaceOnUse"><stop offset="0" stop-color="#a4a4a4"/><stop offset="0.99" stop-color="#d4d4d4"/></linearGradient><linearGradient id="New_Gradient_Swatch_copy_10" x1="71.7" y1="65.49" x2="74.96" y2="72.65" gradientUnits="userSpaceOnUse"><stop offset="0" stop-color="#828282"/><stop offset="1" stop-color="#b4b4b4"/></linearGradient><linearGradient id="New_Gradient_Swatch_copy_3" x1="68.87" y1="86.76" x2="73.17" y2="86.76" gradientUnits="userSpaceOnUse"><stop offset="0" stop-color="#888"/><stop offset="1" stop-color="#b9b9b9"/></linearGradient><linearGradient id="New_Gradient_Swatch_copy_3-2" x1="54.39" y1="94.04" x2="62.86" y2="94.04" xlink:href="#New_Gradient_Swatch_copy_3"/><linearGradient id="New_Gradient_Swatch_copy_10-2" x1="95.41" y1="99.34" x2="107.65" y2="99.34" xlink:href="#New_Gradient_Swatch_copy_10"/><linearGradient id="New_Gradient_Swatch_copy_8" x1="85.29" y1="96.4" x2="108.97" y2="96.4" gradientUnits="userSpaceOnUse"><stop offset="0" stop-color="#b4b4b4"/><stop offset="1" stop-color="#d8d8d8"/></linearGradient><linearGradient id="New_Gradient_Swatch_copy_5" x1="87.93" y1="83.83" x2="95.73" y2="83.83" gradientUnits="userSpaceOnUse"><stop offset="0" stop-color="#494949"/><stop offset="0.99" stop-color="#474747"/></linearGradient><linearGradient id="New_Gradient_Swatch_copy_6-2" x1="86.95" y1="85.21" x2="88.02" y2="85.21" xlink:href="#New_Gradient_Swatch_copy_6"/><linearGradient id="linear-gradient-2" x1="29.9" y1="99.15" x2="41.55" y2="99.15" gradientUnits="userSpaceOnUse"><stop offset="0" stop-color="#b4b4b4"/><stop offset="1" stop-color="#828282"/></linearGradient><linearGradient id="linear-gradient-3" x1="28.65" y1="96.28" x2="51.19" y2="96.28" gradientUnits="userSpaceOnUse"><stop offset="0" stop-color="#d8d8d8"/><stop offset="1" stop-color="#b4b4b4"/></linearGradient><linearGradient id="New_Gradient_Swatch_copy_5-2" x1="9252.49" y1="497.8" x2="9255.89" y2="497.8" gradientTransform="matrix(-0.99, -0.1, -0.1, 0.99, 9301.62, 519.97)" xlink:href="#New_Gradient_Swatch_copy_5"/><linearGradient id="New_Gradient_Swatch_copy_5-3" x1="9250.31" y1="495.8" x2="9255.91" y2="495.8" gradientTransform="matrix(-0.99, -0.1, -0.1, 0.99, 9301.62, 519.97)" xlink:href="#New_Gradient_Swatch_copy_5"/><linearGradient id="New_Gradient_Swatch_copy_3-3" x1="56.92" y1="79.75" x2="65.46" y2="79.75" xlink:href="#New_Gradient_Swatch_copy_3"/><linearGradient id="New_Gradient_Swatch_3" x1="42.71" y1="88.22" x2="51.27" y2="88.22" gradientUnits="userSpaceOnUse"><stop offset="0" stop-color="#9b9b9b"/><stop offset="1" stop-color="#d8d8d8"/></linearGradient><linearGradient id="New_Gradient_Swatch_3-2" x1="45.41" y1="86.18" x2="42.65" y2="95.76" xlink:href="#New_Gradient_Swatch_3"/><linearGradient id="New_Gradient_Swatch_copy_2-2" x1="42.03" y1="90.02" x2="47.09" y2="90.02" xlink:href="#New_Gradient_Swatch_copy_2"/></defs><ellipse class="cls-1" cx="68.01" cy="108.09" rx="64.41" ry="9.06"/><path class="cls-2" d="M125.17,21.58A45.85,45.85,0,0,0,70,17a15.57,15.57,0,0,1-17.49-.45l-.29-.21A33.09,33.09,0,1,0,40.72,75.56,15.53,15.53,0,0,1,57,81.94a45.86,45.86,0,0,0,76.93-2.76C144.54,61.48,140.57,35.32,125.17,21.58Z" transform="translate(0 -9.85)"/><circle class="cls-3" cx="30.81" cy="24" r="14.62"/><circle class="cls-3" cx="98.36" cy="14.61" r="8.47"/><path class="cls-4" d="M68.88,38.75a.88.88,0,1,1-.87-.87A.87.87,0,0,1,68.88,38.75Z" transform="translate(0 -9.85)"/><path class="cls-4" d="M68.6,39.34a.84.84,0,0,1-1.19-1.18A.84.84,0,0,1,68.6,39.34Z" transform="translate(0 -9.85)"/><rect class="cls-5" x="14.58" y="26.35" width="106.84" height="61.77" rx="2.08"/><rect class="cls-3" x="18.98" y="30.22" width="98.12" height="53.59"/><path class="cls-6" d="M64.25,43.4h-7a.86.86,0,0,0-.83.66l-.27,1.13h9.2l-.27-1.13A.85.85,0,0,0,64.25,43.4Z" transform="translate(0 -9.85)"/><path class="cls-7" d="M57.06,43.4H50a.85.85,0,0,0-.82.66L49,45.19h9.2l-.27-1.13A.85.85,0,0,0,57.06,43.4Z" transform="translate(0 -9.85)"/><path class="cls-8" d="M49.86,43.4h-7a.85.85,0,0,0-.82.66l-.27,1.13H51l-.27-1.13A.86.86,0,0,0,49.86,43.4Z" transform="translate(0 -9.85)"/><path class="cls-4" d="M42.67,43.4h-8.1v1.79h9.19l-.27-1.13A.85.85,0,0,0,42.67,43.4Z" transform="translate(0 -9.85)"/><polygon class="cls-9" points="117.14 41.24 34.57 41.24 34.57 35.34 117.14 35.32 117.14 41.24"/><rect class="cls-3" x="37.7" y="37.1" width="59.85" height="2.35"/><rect class="cls-3" x="103.11" y="37.1" width="5.69" height="2.35"/><rect class="cls-1" x="70.62" y="44.18" width="20.65" height="10.8"/><path class="cls-9" d="M103.57,55.24h0A5.12,5.12,0,0,0,99,58l4.55,2.65Z" transform="translate(0 -9.85)"/><path class="cls-10" d="M99,58a5.11,5.11,0,0,0,.18,5.15l4.37-2.5Z" transform="translate(0 -9.85)"/><path class="cls-9" d="M108.08,58a5.15,5.15,0,0,0-4.51-2.77l0,5.36Z" transform="translate(0 -9.85)"/><path class="cls-11" d="M108.08,58l-4.53,2.59,4.31,2.51a5.13,5.13,0,0,0,.79-2.74A5.2,5.2,0,0,0,108.08,58Z" transform="translate(0 -9.85)"/><path class="cls-8" d="M99,63.48a5.14,5.14,0,0,0,4.35,2.4h0l0-4.9Z" transform="translate(0 -9.85)"/><path class="cls-11" d="M103.53,65.5a5.16,5.16,0,0,0,4.33-2.39l-4.31-2.51Z" transform="translate(0 -9.85)"/><rect class="cls-12" x="45.82" y="44.18" width="14.08" height="1.05"/><rect class="cls-12" x="37.57" y="47.67" width="17.7" height="1.11"/><rect class="cls-12" x="39.97" y="50.43" width="19.98" height="0.66"/><rect class="cls-12" x="37.57" y="51.6" width="22.38" height="0.66"/><rect class="cls-12" x="37.57" y="52.77" width="22.38" height="0.66"/><rect class="cls-12" x="37.57" y="53.94" width="19.34" height="0.66"/><rect class="cls-12" x="39.97" y="55.11" width="19.98" height="0.66"/><rect class="cls-12" x="37.57" y="56.29" width="22.38" height="0.66"/><rect class="cls-12" x="37.57" y="57.46" width="22.38" height="0.66"/><rect class="cls-12" x="37.57" y="58.63" width="22.38" height="0.66"/><rect class="cls-12" x="37.57" y="59.8" width="22.38" height="0.66"/><rect class="cls-12" x="37.57" y="60.97" width="22.38" height="0.66"/><rect class="cls-12" x="37.57" y="62.15" width="16.18" height="0.66"/><rect class="cls-12" x="51.57" y="63.32" width="8.38" height="0.66"/><rect class="cls-12" x="53.04" y="64.49" width="6.27" height="0.66"/><path class="cls-13" d="M58.83,78.08H38.69A1.12,1.12,0,0,1,37.57,77h0a1.12,1.12,0,0,1,1.12-1.12H58.83A1.12,1.12,0,0,1,60,77h0A1.12,1.12,0,0,1,58.83,78.08Z" transform="translate(0 -9.85)"/><rect class="cls-8" x="81.05" y="64.99" width="30.93" height="1.05"/><rect class="cls-12" x="62.93" y="68.48" width="38.86" height="1.11"/><rect class="cls-12" x="68.21" y="71.24" width="43.87" height="0.66"/><rect class="cls-12" x="62.93" y="72.41" width="49.15" height="0.66"/><rect class="cls-12" x="62.93" y="73.59" width="49.15" height="0.66"/><rect class="cls-12" x="62.93" y="74.76" width="42.46" height="0.66"/><rect class="cls-12" x="68.21" y="75.93" width="43.87" height="0.66"/><rect class="cls-12" x="62.93" y="77.1" width="49.15" height="0.66"/><rect class="cls-12" x="62.93" y="78.27" width="49.15" height="0.66"/><rect class="cls-12" x="62.93" y="79.44" width="49.15" height="0.66"/><rect class="cls-12" x="62.93" y="80.62" width="49.15" height="0.66"/><rect class="cls-14" x="18.94" y="30.25" width="15.62" height="53.59"/><rect class="cls-15" x="23.25" y="34.01" width="6.68" height="6.13"/><rect class="cls-16" x="20.37" y="42.17" width="1.87" height="2.36"/><rect class="cls-16" x="22.56" y="42.17" width="10.51" height="2.36"/><rect class="cls-16" x="20.37" y="45.77" width="12.7" height="0.53"/><rect class="cls-16" x="20.37" y="47.78" width="12.7" height="0.53"/><path class="cls-16" d="M21.16,59.92a.37.37,0,0,1-.36.37.38.38,0,0,1-.37-.37.37.37,0,0,1,.37-.36A.36.36,0,0,1,21.16,59.92Z" transform="translate(0 -9.85)"/><path class="cls-16" d="M22.1,59.92a.36.36,0,1,1-.72,0,.36.36,0,1,1,.72,0Z" transform="translate(0 -9.85)"/><circle class="cls-16" cx="22.68" cy="50.07" r="0.36"/><circle class="cls-16" cx="23.62" cy="50.07" r="0.36"/><path class="cls-16" d="M24.93,59.92a.38.38,0,0,1-.37.37.37.37,0,0,1-.36-.37.36.36,0,0,1,.36-.36A.37.37,0,0,1,24.93,59.92Z" transform="translate(0 -9.85)"/><circle class="cls-16" cx="25.5" cy="50.07" r="0.36"/><circle class="cls-16" cx="26.45" cy="50.07" r="0.36"/><path class="cls-16" d="M27.75,59.92a.37.37,0,0,1-.36.37.38.38,0,0,1-.37-.37.37.37,0,0,1,.37-.36A.36.36,0,0,1,27.75,59.92Z" transform="translate(0 -9.85)"/><path class="cls-16" d="M28.69,59.92a.37.37,0,0,1-.36.37.38.38,0,0,1-.37-.37.37.37,0,0,1,.37-.36A.36.36,0,0,1,28.69,59.92Z" transform="translate(0 -9.85)"/><path class="cls-16" d="M29.63,59.92a.36.36,0,1,1-.72,0,.36.36,0,0,1,.72,0Z" transform="translate(0 -9.85)"/><circle class="cls-16" cx="30.21" cy="50.07" r="0.36"/><path class="cls-16" d="M21.16,61.32a.37.37,0,0,1-.36.37.38.38,0,0,1-.37-.37A.37.37,0,0,1,20.8,61,.36.36,0,0,1,21.16,61.32Z" transform="translate(0 -9.85)"/><path class="cls-16" d="M22.1,61.32a.36.36,0,1,1-.72,0,.36.36,0,1,1,.72,0Z" transform="translate(0 -9.85)"/><path class="cls-16" d="M23.05,61.32a.38.38,0,0,1-.37.37.37.37,0,0,1-.36-.37.36.36,0,0,1,.36-.36A.37.37,0,0,1,23.05,61.32Z" transform="translate(0 -9.85)"/><path class="cls-16" d="M24,61.32a.38.38,0,0,1-.37.37.37.37,0,0,1-.36-.37.36.36,0,0,1,.36-.36A.37.37,0,0,1,24,61.32Z" transform="translate(0 -9.85)"/><path class="cls-16" d="M24.93,61.32a.38.38,0,0,1-.37.37.37.37,0,0,1-.36-.37.36.36,0,0,1,.36-.36A.37.37,0,0,1,24.93,61.32Z" transform="translate(0 -9.85)"/><path class="cls-16" d="M25.87,61.32a.37.37,0,1,1-.73,0,.37.37,0,0,1,.73,0Z" transform="translate(0 -9.85)"/><path class="cls-16" d="M26.81,61.32a.37.37,0,1,1-.73,0,.37.37,0,0,1,.73,0Z" transform="translate(0 -9.85)"/><path class="cls-16" d="M27.75,61.32a.37.37,0,0,1-.36.37.38.38,0,0,1-.37-.37.37.37,0,0,1,.37-.36A.36.36,0,0,1,27.75,61.32Z" transform="translate(0 -9.85)"/><path class="cls-16" d="M28.69,61.32a.37.37,0,0,1-.36.37.38.38,0,0,1-.37-.37.37.37,0,0,1,.37-.36A.36.36,0,0,1,28.69,61.32Z" transform="translate(0 -9.85)"/><path class="cls-16" d="M29.63,61.32a.36.36,0,1,1-.72,0,.36.36,0,0,1,.72,0Z" transform="translate(0 -9.85)"/><path class="cls-16" d="M30.57,61.32a.36.36,0,1,1-.72,0,.36.36,0,0,1,.72,0Z" transform="translate(0 -9.85)"/><path class="cls-16" d="M31.62,67.26h-9.8a1.38,1.38,0,0,1-1.39-1.38h0a1.39,1.39,0,0,1,1.39-1.39h9.8A1.38,1.38,0,0,1,33,65.88h0A1.38,1.38,0,0,1,31.62,67.26Z" transform="translate(0 -9.85)"/><rect class="cls-6" x="64.35" y="44.11" width="31.19" height="18.98"/><path class="cls-4" d="M68,55.91a1,1,0,1,1-1-1A1,1,0,0,1,68,55.91Z" transform="translate(0 -9.85)"/><path class="cls-3" d="M67.53,55.68l-.23.13v-.12a.08.08,0,0,0-.07-.07h-.67a.08.08,0,0,0-.07.07v.44a.07.07,0,0,0,.07.07h.67a.07.07,0,0,0,.07-.07V56l.23.13Z" transform="translate(0 -9.85)"/><path class="cls-4" d="M68,59.21a1,1,0,0,1-1.94,0,1,1,0,1,1,1.94,0Z" transform="translate(0 -9.85)"/><path class="cls-3" d="M66.82,59a0,0,0,0,0,0-.06l-.06-.15a0,0,0,0,0-.06,0l-.1,0h0a.14.14,0,0,0-.07.2,1.39,1.39,0,0,0,.72.71.15.15,0,0,0,.2-.06h0l0-.1a.06.06,0,0,0,0-.06l-.14-.06a.07.07,0,0,0-.07,0l0,.09a1.22,1.22,0,0,1-.46-.47Z" transform="translate(0 -9.85)"/><path class="cls-4" d="M68,62.5a1,1,0,0,1-1.94,0,1,1,0,1,1,1.94,0Z" transform="translate(0 -9.85)"/><polygon class="cls-3" points="66.71 53.08 66.71 52.22 67.57 52.65 66.71 53.08"/><g class="cls-17"><polygon class="cls-3" points="91.92 56.05 91.92 62.88 91.9 62.88 91.9 56.05 91.02 55.17 91.02 44.33 91.04 44.33 91.04 55.16 91.92 56.05"/><polygon class="cls-3" points="91.48 51.63 91.48 53.2 89.72 53.2 89.72 55.16 91.04 56.49 91.04 62.88 91.02 62.88 91.02 56.49 89.7 55.17 89.7 53.17 91.46 53.17 91.46 51.65 88.16 51.65 88.16 44.33 88.18 44.33 88.18 51.63 91.48 51.63"/><polygon class="cls-3" points="90.38 51.2 90.38 55.17 90.36 55.17 90.36 51.21 89.48 50.55 89.48 46.79 89.5 46.79 89.5 50.53 90.38 51.2"/></g><g class="cls-18"><polygon class="cls-3" points="93.03 62.22 93 62.22 92.98 55.26 91.95 54.23 91.95 48.82 90.66 47.53 90.66 44.33 90.68 44.33 90.68 47.52 91.97 48.81 91.97 54.22 93 55.25 93 55.26 93.03 62.22"/><polygon class="cls-3" points="92.48 46.23 92.48 52.69 88.62 52.69 88.62 53.96 91.45 53.96 91.45 62.22 91.43 62.22 91.43 53.98 88.59 53.98 88.59 52.67 92.46 52.67 92.46 46.23 92.48 46.23"/><polygon class="cls-3" points="89.91 44.32 89.91 55.52 88.36 55.52 88.36 62.88 88.34 62.88 88.34 55.5 89.88 55.5 89.88 44.32 89.91 44.32"/><polygon class="cls-3" points="93 47.77 93 49.07 92.98 49.07 92.98 47.78 91.69 46.49 91.69 44.33 91.71 44.33 91.71 46.49 93 47.77"/></g><path class="cls-3" d="M89.49,56.58a0,0,0,1,1,0,.08,0,0,0,0,1,0-.08A0,0,0,0,1,89.49,56.58Z" transform="translate(0 -9.85)"/><path class="cls-3" d="M89.54,56.62a0,0,0,0,1-.05.05.06.06,0,0,1-.06-.05.06.06,0,0,1,.06-.06A.06.06,0,0,1,89.54,56.62Zm-.1,0a0,0,0,0,0,0,.05.05.05,0,1,0,0-.1A0,0,0,0,0,89.44,56.62Z" transform="translate(0 -9.85)"/><path class="cls-3" d="M90.67,57.33a0,0,0,0,1,0,.08,0,0,0,0,1,0-.08A0,0,0,0,1,90.67,57.33Z" transform="translate(0 -9.85)"/><path class="cls-3" d="M90.72,57.37a.06.06,0,0,1,0,.06.06.06,0,0,1-.06-.06.06.06,0,0,1,.06,0A0,0,0,0,1,90.72,57.37Zm-.1,0a0,0,0,0,0,0,.05,0,0,0,0,0,0-.1A0,0,0,0,0,90.62,57.37Z" transform="translate(0 -9.85)"/><path class="cls-3" d="M92,58.62s0,0,0,0,0,0,0,0a0,0,0,0,1,0-.08Z" transform="translate(0 -9.85)"/><path class="cls-3" d="M92,58.66a0,0,0,0,1-.05.05s-.06,0-.06-.05A.06.06,0,0,1,92,58.6.06.06,0,0,1,92,58.66Zm-.1,0a.05.05,0,0,0,0,.05s0,0,0-.05a0,0,0,0,0,0,0A0,0,0,0,0,91.91,58.66Z" transform="translate(0 -9.85)"/><path class="cls-3" d="M90.36,61a0,0,0,1,1,0,.08,0,0,0,0,1,0-.08A0,0,0,0,1,90.36,61Z" transform="translate(0 -9.85)"/><path class="cls-3" d="M90.42,61a.06.06,0,0,1-.06.06.06.06,0,0,1,0-.06,0,0,0,0,1,0,0A.06.06,0,0,1,90.42,61Zm-.11,0a.05.05,0,0,0,0,.05,0,0,0,0,0,0-.05.05.05,0,0,0,0,0A.06.06,0,0,0,90.31,61Z" transform="translate(0 -9.85)"/><path class="cls-3" d="M90.37,61.46s0,0,0,0a0,0,0,1,1-.08,0S90.35,61.46,90.37,61.46Z" transform="translate(0 -9.85)"/><path class="cls-3" d="M90.43,61.49a.06.06,0,0,1-.06.06.06.06,0,0,1-.05-.06,0,0,0,0,1,.05-.05A.06.06,0,0,1,90.43,61.49Zm-.11,0a.05.05,0,0,0,.1,0,.05.05,0,0,0-.1,0Z" transform="translate(0 -9.85)"/><circle class="cls-3" cx="90.37" cy="53.19" r="0.04"/><path class="cls-3" d="M90.43,63a.06.06,0,0,1-.06.05,0,0,0,0,1-.05-.05.06.06,0,0,1,.05-.06A.06.06,0,0,1,90.43,63Zm-.11,0a.06.06,0,0,0,.05.05.05.05,0,0,0,0-.05,0,0,0,0,0,0,0A.05.05,0,0,0,90.32,63Z" transform="translate(0 -9.85)"/><circle class="cls-3" cx="91.47" cy="53.19" r="0.04"/><path class="cls-3" d="M91.53,63a.06.06,0,0,1-.06.05,0,0,0,0,1,0-.05.06.06,0,0,1,0-.06A.06.06,0,0,1,91.53,63Zm-.11,0a.06.06,0,0,0,0,.05.05.05,0,0,0,0-.05,0,0,0,0,0,0,0A.05.05,0,0,0,91.42,63Z" transform="translate(0 -9.85)"/><path class="cls-3" d="M88.17,61.46a0,0,0,0,1,0,0s0,0,0,0,0,0,0,0S88.14,61.46,88.17,61.46Z" transform="translate(0 -9.85)"/><path class="cls-3" d="M88.22,61.49a.06.06,0,0,1,0,.06.06.06,0,0,1-.06-.06.06.06,0,0,1,.06-.05A0,0,0,0,1,88.22,61.49Zm-.1,0a0,0,0,0,0,0,0,0,0,0,0,0,0,0,0,0,0,0,0,0,0A0,0,0,0,0,88.12,61.49Z" transform="translate(0 -9.85)"/><path class="cls-3" d="M89.49,60.36a0,0,0,0,1,0,0s0,0,0,0,0,0,0,0A0,0,0,0,1,89.49,60.36Z" transform="translate(0 -9.85)"/><path class="cls-3" d="M89.54,60.4a0,0,0,0,1-.05.05.06.06,0,0,1-.06-.05.06.06,0,0,1,.06-.06A.06.06,0,0,1,89.54,60.4Zm-.1,0a.05.05,0,0,0,.1,0,0,0,0,0,0-.1,0Z" transform="translate(0 -9.85)"/><path class="cls-3" d="M89.49,58.46a.12.12,0,0,1,.12.11.12.12,0,0,1-.12.12.12.12,0,0,1-.12-.12A.11.11,0,0,1,89.49,58.46Z" transform="translate(0 -9.85)"/><path class="cls-3" d="M89.65,58.57a.16.16,0,0,1-.16.17.17.17,0,0,1-.17-.17.17.17,0,0,1,.17-.16A.16.16,0,0,1,89.65,58.57Zm-.31,0a.15.15,0,1,0,.3,0,.15.15,0,0,0-.3,0Z" transform="translate(0 -9.85)"/><circle class="cls-3" cx="88.17" cy="46.23" r="0.12"/><path class="cls-3" d="M88.34,56.08a.17.17,0,0,1-.34,0,.17.17,0,0,1,.34,0Zm-.32,0a.15.15,0,0,0,.3,0,.15.15,0,0,0-.3,0Z" transform="translate(0 -9.85)"/><path class="cls-3" d="M88.94,61.38a.11.11,0,0,1,.12.11.12.12,0,0,1-.12.12.11.11,0,0,1-.11-.12A.11.11,0,0,1,88.94,61.38Z" transform="translate(0 -9.85)"/><path class="cls-3" d="M89.11,61.49a.16.16,0,0,1-.17.17.16.16,0,0,1-.16-.17.16.16,0,0,1,.16-.16A.16.16,0,0,1,89.11,61.49Zm-.31,0a.14.14,0,0,0,.14.15.14.14,0,0,0,.15-.15.14.14,0,0,0-.15-.14A.14.14,0,0,0,88.8,61.49Z" transform="translate(0 -9.85)"/><path class="cls-3" d="M91,60a.12.12,0,0,1,.12.11.12.12,0,0,1-.24,0A.12.12,0,0,1,91,60Z" transform="translate(0 -9.85)"/><path class="cls-3" d="M91.19,60.08a.17.17,0,0,1-.34,0,.17.17,0,0,1,.34,0Zm-.32,0a.15.15,0,1,0,.3,0,.15.15,0,0,0-.3,0Z" transform="translate(0 -9.85)"/><path class="cls-3" d="M91.92,66.45a.11.11,0,0,1,.11.12.12.12,0,0,1-.11.12.12.12,0,0,1-.12-.12A.12.12,0,0,1,91.92,66.45Z" transform="translate(0 -9.85)"/><path class="cls-3" d="M92.08,66.57a.17.17,0,0,1-.16.17.17.17,0,1,1,0-.34A.17.17,0,0,1,92.08,66.57Zm-.31,0a.15.15,0,0,0,.15.15.15.15,0,0,0,0-.3A.15.15,0,0,0,91.77,66.57Z" transform="translate(0 -9.85)"/><path class="cls-3" d="M88.35,71.21a.11.11,0,0,1,.12.11.12.12,0,0,1-.12.12.11.11,0,0,1-.11-.12A.11.11,0,0,1,88.35,71.21Z" transform="translate(0 -9.85)"/><path class="cls-3" d="M88.52,71.32a.18.18,0,0,1-.17.17.17.17,0,0,1-.16-.17.16.16,0,0,1,.16-.16A.17.17,0,0,1,88.52,71.32Zm-.31,0a.15.15,0,0,0,.14.15.15.15,0,0,0,.15-.15.15.15,0,0,0-.15-.14A.14.14,0,0,0,88.21,71.32Z" transform="translate(0 -9.85)"/><path class="cls-3" d="M88.94,65.3a.07.07,0,0,1,.07.07.07.07,0,0,1-.07.06.06.06,0,0,1-.06-.06A.07.07,0,0,1,88.94,65.3Z" transform="translate(0 -9.85)"/><path class="cls-3" d="M89,65.37a.09.09,0,1,1-.09-.09A.09.09,0,0,1,89,65.37Zm-.17,0a.09.09,0,0,0,.08.08.08.08,0,0,0,.08-.08.07.07,0,0,0-.08-.08A.08.08,0,0,0,88.86,65.37Z" transform="translate(0 -9.85)"/><path class="cls-3" d="M92.26,64.32a.06.06,0,0,1,.06.06s0,.07-.06.07a.07.07,0,0,1-.06-.07A.06.06,0,0,1,92.26,64.32Z" transform="translate(0 -9.85)"/><path class="cls-3" d="M92.35,64.38a.09.09,0,1,1-.09-.09A.09.09,0,0,1,92.35,64.38Zm-.17,0a.08.08,0,0,0,.16,0,.08.08,0,0,0-.16,0Z" transform="translate(0 -9.85)"/><path class="cls-3" d="M93,66.53a.07.07,0,0,1,.06.07.06.06,0,0,1-.06.06.07.07,0,0,1-.07-.06A.07.07,0,0,1,93,66.53Z" transform="translate(0 -9.85)"/><path class="cls-3" d="M93.09,66.6a.09.09,0,0,1-.09.09.09.09,0,1,1,0-.18A.09.09,0,0,1,93.09,66.6Zm-.17,0a.08.08,0,0,0,.08.08.09.09,0,0,0,.08-.08.08.08,0,0,0-.08-.08A.07.07,0,0,0,92.92,66.6Z" transform="translate(0 -9.85)"/><polygon class="cls-3" points="89.41 46.69 89.49 46.49 89.56 46.69 89.41 46.69"/><polygon class="cls-3" points="89.41 49.55 89.49 49.35 89.56 49.55 89.41 49.55"/><polygon class="cls-3" points="89.41 49.8 89.49 49.6 89.56 49.8 89.41 49.8"/><polygon class="cls-3" points="89.41 50.05 89.49 49.85 89.56 50.05 89.41 50.05"/><polygon class="cls-3" points="88.03 45.91 88.17 45.56 88.3 45.91 88.03 45.91"/><polygon class="cls-3" points="92.4 46.17 92.47 45.97 92.55 46.17 92.4 46.17"/><polygon class="cls-3" points="92.4 46.87 92.47 46.67 92.55 46.87 92.4 46.87"/><polygon class="cls-3" points="92.4 47.13 92.47 46.93 92.55 47.13 92.4 47.13"/><polygon class="cls-3" points="92.4 47.39 92.47 47.19 92.55 47.39 92.4 47.39"/><polygon class="cls-3" points="92.4 47.66 92.47 47.46 92.55 47.66 92.4 47.66"/><polygon class="cls-3" points="90.28 58.41 90.36 58.61 90.44 58.41 90.28 58.41"/><polygon class="cls-3" points="90.28 55.55 90.36 55.75 90.44 55.55 90.28 55.55"/><polygon class="cls-3" points="90.28 55.3 90.36 55.51 90.44 55.3 90.28 55.3"/><polygon class="cls-3" points="90.28 55.06 90.36 55.26 90.44 55.06 90.28 55.06"/><polygon class="cls-3" points="91.82 60.87 91.9 61.07 91.98 60.87 91.82 60.87"/><polygon class="cls-3" points="91.82 58.01 91.9 58.21 91.98 58.01 91.82 58.01"/><polygon class="cls-3" points="91.82 57.76 91.9 57.96 91.98 57.76 91.82 57.76"/><polygon class="cls-3" points="91.82 57.52 91.9 57.72 91.98 57.52 91.82 57.52"/><polygon class="cls-3" points="88.21 62.25 88.35 62.6 88.48 62.25 88.21 62.25"/><polygon class="cls-3" points="92.88 59.65 93.01 59.99 93.14 59.65 92.88 59.65"/><polygon class="cls-3" points="88.27 60.78 88.35 60.98 88.42 60.78 88.27 60.78"/><polygon class="cls-3" points="88.27 60.08 88.35 60.28 88.42 60.08 88.27 60.08"/><polygon class="cls-3" points="88.27 59.82 88.35 60.02 88.42 59.82 88.27 59.82"/><polygon class="cls-3" points="88.27 59.56 88.35 59.76 88.42 59.56 88.27 59.56"/><polygon class="cls-3" points="88.27 59.29 88.35 59.49 88.42 59.29 88.27 59.29"/><g class="cls-17"><polygon class="cls-3" points="75.87 60.57 64.47 60.57 64.47 60.53 75.86 60.53 77.33 59.06 95.41 59.06 95.41 59.1 77.34 59.1 75.87 60.57"/><polygon class="cls-3" points="83.23 59.83 80.62 59.83 80.62 56.89 77.34 56.89 75.14 59.1 64.47 59.1 64.47 59.06 75.12 59.06 77.33 56.85 80.66 56.85 80.66 59.79 83.2 59.79 83.2 54.28 95.41 54.28 95.41 54.32 83.23 54.32 83.23 59.83"/><polygon class="cls-3" points="83.96 57.99 77.34 57.99 77.34 57.96 83.94 57.96 85.04 56.49 91.3 56.49 91.3 56.52 85.06 56.52 83.96 57.99"/></g><g class="cls-18"><polygon class="cls-3" points="65.58 62.4 65.58 62.37 77.18 62.32 78.9 60.6 87.93 60.6 90.08 58.45 95.41 58.45 95.41 58.49 90.09 58.49 87.94 60.64 78.91 60.64 77.19 62.36 77.19 62.36 65.58 62.4"/><polygon class="cls-3" points="92.24 61.5 81.47 61.5 81.47 55.05 79.36 55.05 79.36 59.78 65.58 59.78 65.58 59.74 79.32 59.74 79.32 55.01 81.5 55.01 81.5 61.46 92.24 61.46 92.24 61.5"/><polygon class="cls-3" points="95.42 57.2 76.75 57.2 76.75 54.62 64.47 54.62 64.47 54.58 76.78 54.58 76.78 57.16 95.42 57.16 95.42 57.2"/><polygon class="cls-3" points="89.66 62.36 87.51 62.36 87.51 62.32 89.65 62.32 91.8 60.17 95.41 60.17 95.41 60.21 91.81 60.21 89.66 62.36"/></g><path class="cls-3" d="M91.41,66.36a.07.07,0,0,1-.07.06.06.06,0,0,1-.06-.06.07.07,0,0,1,.06-.07A.07.07,0,0,1,91.41,66.36Z" transform="translate(0 -9.85)"/><path class="cls-3" d="M91.34,66.45a.09.09,0,0,1-.09-.09.09.09,0,0,1,.09-.1.1.1,0,0,1,.1.1A.1.1,0,0,1,91.34,66.45Zm0-.18a.09.09,0,0,0-.08.09.09.09,0,0,0,.08.08.08.08,0,0,0,.08-.08A.08.08,0,0,0,91.34,66.27Z" transform="translate(0 -9.85)"/><path class="cls-3" d="M90.16,68.32a.07.07,0,0,1-.07.07s-.06,0-.06-.07a.06.06,0,0,1,.06-.06A.07.07,0,0,1,90.16,68.32Z" transform="translate(0 -9.85)"/><path class="cls-3" d="M90.09,68.42a.1.1,0,0,1-.09-.1.09.09,0,1,1,.18,0A.1.1,0,0,1,90.09,68.42Zm0-.18a.09.09,0,0,0-.08.08.08.08,0,0,0,.08.08.07.07,0,0,0,.08-.08A.08.08,0,0,0,90.09,68.24Z" transform="translate(0 -9.85)"/><path class="cls-3" d="M88,70.47a.06.06,0,0,1-.06.06s-.07,0-.07-.06,0-.06.07-.06A.06.06,0,0,1,88,70.47Z" transform="translate(0 -9.85)"/><path class="cls-3" d="M88,70.56a.09.09,0,1,1,0-.18.09.09,0,1,1,0,.18Zm0-.17a.08.08,0,1,0,0,.16.08.08,0,1,0,0-.16Z" transform="translate(0 -9.85)"/><path class="cls-3" d="M84,67.81a.07.07,0,0,1-.06.07.07.07,0,0,1-.07-.07.07.07,0,0,1,.07-.06A.06.06,0,0,1,84,67.81Z" transform="translate(0 -9.85)"/><path class="cls-3" d="M84,67.91a.1.1,0,0,1-.09-.1.09.09,0,0,1,.18,0A.1.1,0,0,1,84,67.91Zm0-.18a.08.08,0,0,0-.08.08.07.07,0,0,0,.08.08.08.08,0,0,0,.08-.08A.09.09,0,0,0,84,67.73Z" transform="translate(0 -9.85)"/><path class="cls-3" d="M83.28,67.83a.07.07,0,0,1-.07.06.06.06,0,0,1-.06-.06.07.07,0,0,1,.06-.07A.07.07,0,0,1,83.28,67.83Z" transform="translate(0 -9.85)"/><path class="cls-3" d="M83.21,67.92a.09.09,0,0,1,0-.18.09.09,0,1,1,0,.18Zm0-.17a.08.08,0,0,0-.08.08.09.09,0,0,0,.08.08.09.09,0,0,0,.09-.08A.08.08,0,0,0,83.21,67.75Z" transform="translate(0 -9.85)"/><path class="cls-3" d="M80.71,67.83a.07.07,0,0,1-.07.07.07.07,0,0,1-.06-.07.06.06,0,0,1,.06-.06A.07.07,0,0,1,80.71,67.83Z" transform="translate(0 -9.85)"/><path class="cls-3" d="M80.64,67.92a.09.09,0,1,1,.09-.09A.09.09,0,0,1,80.64,67.92Zm0-.17a.09.09,0,0,0-.08.08.08.08,0,0,0,.08.08.07.07,0,0,0,.08-.08A.08.08,0,0,0,80.64,67.75Z" transform="translate(0 -9.85)"/><path class="cls-3" d="M80.71,69.66a.07.07,0,0,1-.07.07.07.07,0,0,1-.06-.07.06.06,0,0,1,.06-.06A.07.07,0,0,1,80.71,69.66Z" transform="translate(0 -9.85)"/><path class="cls-3" d="M80.64,69.76a.1.1,0,0,1-.09-.1.09.09,0,0,1,.18,0A.1.1,0,0,1,80.64,69.76Zm0-.18a.09.09,0,0,0-.08.08.09.09,0,0,0,.08.09.08.08,0,0,0,.08-.09A.08.08,0,0,0,80.64,69.58Z" transform="translate(0 -9.85)"/><circle class="cls-3" cx="83.21" cy="54.3" r="0.06"/><path class="cls-3" d="M83.21,64.24a.09.09,0,1,1,0-.18.09.09,0,1,1,0,.18Zm0-.17a.09.09,0,0,0-.08.08.08.08,0,0,0,.08.08.08.08,0,0,0,.09-.08A.09.09,0,0,0,83.21,64.07Z" transform="translate(0 -9.85)"/><path class="cls-3" d="M85.11,66.36a.06.06,0,0,1-.06.06.07.07,0,0,1-.07-.06.07.07,0,0,1,.07-.07A.07.07,0,0,1,85.11,66.36Z" transform="translate(0 -9.85)"/><path class="cls-3" d="M85.05,66.45a.09.09,0,1,1,0-.18.09.09,0,0,1,0,.18Zm0-.17a.07.07,0,0,0-.08.08.08.08,0,0,0,.08.08.09.09,0,0,0,.08-.08A.08.08,0,0,0,85.05,66.28Z" transform="translate(0 -9.85)"/><path class="cls-3" d="M88.28,66.36a.19.19,0,0,1-.2.19.19.19,0,0,1-.19-.19.2.2,0,1,1,.39,0Z" transform="translate(0 -9.85)"/><path class="cls-3" d="M88.08,66.63a.28.28,0,0,1,0-.55.28.28,0,1,1,0,.55Zm0-.52a.25.25,0,1,0,.25.25A.25.25,0,0,0,88.08,66.11Z" transform="translate(0 -9.85)"/><path class="cls-3" d="M92.43,64.16a.19.19,0,0,1-.19.19.19.19,0,0,1-.2-.19.2.2,0,1,1,.39,0Z" transform="translate(0 -9.85)"/><path class="cls-3" d="M92.24,64.44a.28.28,0,1,1,.27-.28A.28.28,0,0,1,92.24,64.44Zm0-.53a.25.25,0,1,0,0,.49.25.25,0,0,0,0-.49Z" transform="translate(0 -9.85)"/><path class="cls-3" d="M83.41,65.45a.19.19,0,0,1-.2.19.19.19,0,0,1-.19-.19.2.2,0,1,1,.39,0Z" transform="translate(0 -9.85)"/><path class="cls-3" d="M83.21,65.73a.28.28,0,1,1,.28-.28A.28.28,0,0,1,83.21,65.73Zm0-.53a.25.25,0,1,0,.25.25A.25.25,0,0,0,83.21,65.2Z" transform="translate(0 -9.85)"/><path class="cls-3" d="M85.76,68.91a.2.2,0,1,1-.39,0,.19.19,0,0,1,.2-.19A.19.19,0,0,1,85.76,68.91Z" transform="translate(0 -9.85)"/><path class="cls-3" d="M85.57,69.19a.28.28,0,1,1,.27-.28A.28.28,0,0,1,85.57,69.19Zm0-.52a.25.25,0,1,0,.24.24A.25.25,0,0,0,85.57,68.67Z" transform="translate(0 -9.85)"/><path class="cls-3" d="M75,70.41a.2.2,0,0,1-.2.19.19.19,0,0,1-.19-.19.19.19,0,0,1,.19-.2A.2.2,0,0,1,75,70.41Z" transform="translate(0 -9.85)"/><path class="cls-3" d="M74.75,70.68a.28.28,0,0,1,0-.55.28.28,0,1,1,0,.55Zm0-.52a.25.25,0,1,0,.25.25A.25.25,0,0,0,74.75,70.16Z" transform="translate(0 -9.85)"/><path class="cls-3" d="M67,64.46a.2.2,0,1,1-.19-.19A.2.2,0,0,1,67,64.46Z" transform="translate(0 -9.85)"/><path class="cls-3" d="M66.83,64.74a.28.28,0,1,1,0-.55.28.28,0,0,1,0,.55Zm0-.52a.25.25,0,1,0,.24.24A.25.25,0,0,0,66.83,64.22Z" transform="translate(0 -9.85)"/><path class="cls-3" d="M76.86,65.45a.11.11,0,0,1-.11.11.11.11,0,0,1,0-.22A.11.11,0,0,1,76.86,65.45Z" transform="translate(0 -9.85)"/><path class="cls-3" d="M76.75,65.6a.15.15,0,0,1,0-.3.15.15,0,1,1,0,.3Zm0-.28a.13.13,0,0,0,0,.26.13.13,0,1,0,0-.26Z" transform="translate(0 -9.85)"/><path class="cls-3" d="M78.5,71a.1.1,0,0,1-.1.11.11.11,0,1,1,0-.22A.1.1,0,0,1,78.5,71Z" transform="translate(0 -9.85)"/><path class="cls-3" d="M78.4,71.13a.15.15,0,0,1,0-.3.15.15,0,0,1,0,.3Zm0-.28a.13.13,0,1,0,0,.26.13.13,0,1,0,0-.26Z" transform="translate(0 -9.85)"/><path class="cls-3" d="M74.81,72.2a.1.1,0,0,1-.1.11.11.11,0,0,1-.11-.11.11.11,0,0,1,.11-.1A.1.1,0,0,1,74.81,72.2Z" transform="translate(0 -9.85)"/><path class="cls-3" d="M74.71,72.36a.15.15,0,0,1-.15-.16.15.15,0,0,1,.15-.15.15.15,0,0,1,.15.15A.16.16,0,0,1,74.71,72.36Zm0-.29a.13.13,0,0,0-.14.13.14.14,0,0,0,.14.14.13.13,0,0,0,.13-.14A.13.13,0,0,0,74.71,72.07Z" transform="translate(0 -9.85)"/><polygon class="cls-3" points="91.47 56.38 91.8 56.5 91.47 56.63 91.47 56.38"/><polygon class="cls-3" points="86.7 56.38 87.03 56.5 86.7 56.63 86.7 56.38"/><polygon class="cls-3" points="86.29 56.38 86.62 56.5 86.29 56.63 86.29 56.38"/><polygon class="cls-3" points="85.88 56.38 86.21 56.5 85.88 56.63 85.88 56.38"/><polygon class="cls-3" points="92.78 54.08 93.36 54.3 92.78 54.52 92.78 54.08"/><polygon class="cls-3" points="92.34 61.36 92.68 61.48 92.34 61.61 92.34 61.36"/><polygon class="cls-3" points="91.18 61.36 91.51 61.48 91.18 61.61 91.18 61.36"/><polygon class="cls-3" points="90.74 61.36 91.07 61.48 90.74 61.61 90.74 61.36"/><polygon class="cls-3" points="90.3 61.36 90.63 61.48 90.3 61.61 90.3 61.36"/><polygon class="cls-3" points="89.86 61.36 90.2 61.48 89.86 61.61 89.86 61.36"/><polygon class="cls-3" points="71.93 57.83 71.59 57.96 71.93 58.09 71.93 57.83"/><polygon class="cls-3" points="76.7 57.83 76.36 57.96 76.7 58.09 76.7 57.83"/><polygon class="cls-3" points="77.11 57.83 76.78 57.96 77.11 58.09 77.11 57.83"/><polygon class="cls-3" points="77.52 57.83 77.19 57.96 77.52 58.09 77.52 57.83"/><polygon class="cls-3" points="67.83 60.4 67.5 60.53 67.83 60.66 67.83 60.4"/><polygon class="cls-3" points="72.6 60.4 72.27 60.53 72.6 60.66 72.6 60.4"/><polygon class="cls-3" points="73.01 60.4 72.68 60.53 73.01 60.66 73.01 60.4"/><polygon class="cls-3" points="73.42 60.4 73.09 60.53 73.42 60.66 73.42 60.4"/><polygon class="cls-3" points="65.52 54.38 64.94 54.6 65.52 54.83 65.52 54.38"/><polygon class="cls-3" points="69.87 62.15 69.29 62.38 69.87 62.6 69.87 62.15"/><polygon class="cls-3" points="67.98 54.47 67.64 54.6 67.98 54.73 67.98 54.47"/><polygon class="cls-3" points="69.14 54.47 68.81 54.6 69.14 54.73 69.14 54.47"/><polygon class="cls-3" points="69.58 54.47 69.25 54.6 69.58 54.73 69.58 54.47"/><polygon class="cls-3" points="70.02 54.47 69.69 54.6 70.02 54.73 70.02 54.47"/><polygon class="cls-3" points="70.46 54.47 70.13 54.6 70.46 54.73 70.46 54.47"/><rect class="cls-9" x="73.69" y="53.17" width="2.04" height="4.5"/><polygon class="cls-19" points="75.72 56.33 73.69 53.84 75.72 53.17 75.72 56.33"/><path class="cls-9" d="M74.92,58.07h-.41A1.9,1.9,0,0,0,72.72,60c.1,1,.17,2,.3,2.6a4.93,4.93,0,0,0,1.24,1.36.76.76,0,0,0,.45.07.78.78,0,0,0,.46-.07,5.27,5.27,0,0,0,1.24-1.36c.13-.63.2-1.58.3-2.6A1.94,1.94,0,0,0,74.92,58.07Z" transform="translate(0 -9.85)"/><path class="cls-20" d="M73,62.11h0l-.06,0a1.52,1.52,0,0,1-.38-.69,1.31,1.31,0,0,1,0-.33.59.59,0,0,1,.09-.39c.13-.11.19,0,.21.07l0,.06,0,.16v.1Z" transform="translate(0 -9.85)"/><path class="cls-20" d="M76.62,60.81s0-.29.24-.13.09.6,0,.72-.27.74-.47.7Z" transform="translate(0 -9.85)"/><path class="cls-21" d="M76.77,59.3l-.11,1.41-.11,1.37,0,.45A4.41,4.41,0,0,1,75.46,64c-.46.4-.74.37-.75.37s-.28,0-.74-.37a4.41,4.41,0,0,1-1-1.44l0-.44-.08-1,0-.32,0-.28-.09-1.16h0a1.26,1.26,0,0,1,.37-.7l.1.16.29.39,0,.2-.13.77s0,.13-.12.27a1.94,1.94,0,0,1-.1.24v.68a.55.55,0,0,0,.06.18,3.79,3.79,0,0,1,.39.73q.06.12.12.27h0v0c.1.25.74.35.88.29s.08-.17.08-.28h.25c0,.11,0,.26.08.28s.78,0,.87-.29l0,0h0q.06-.15.12-.27a3.79,3.79,0,0,1,.39-.73.37.37,0,0,0,.05-.18l0-.68-.22-.51-.17-1h0s.1-.23.22-.45l.09-.15h0A1.16,1.16,0,0,1,76.77,59.3Z" transform="translate(0 -9.85)"/><path class="cls-22" d="M75.93,62.28c0-.36-.85-.41-.85-.41l-.37.16-.37-.16s-.86.05-.85.41l.13.22a.24.24,0,0,1,.25-.31c0,.09.29.12.84.11h0c.56,0,.86,0,.85-.11a.24.24,0,0,1,.25.31Z" transform="translate(0 -9.85)"/><path class="cls-21" d="M76.32,58.55a.93.93,0,0,1,0,.22.84.84,0,0,1-.27.38.86.86,0,0,1-.43.2h-.09l-.78.06h0l-1.32-.07-.54,0h-.27a2.33,2.33,0,0,1,.89-1.38,2.38,2.38,0,0,1,2.08-.31,1.59,1.59,0,0,1,.42.19l0,0A.78.78,0,0,1,76.32,58.55Z" transform="translate(0 -9.85)"/><path class="cls-23" d="M75.54,57.62a1.85,1.85,0,0,1,0,.23,3.11,3.11,0,0,1-.34.94,3.18,3.18,0,0,1-.46.63,3.29,3.29,0,0,1-1.57,1l-.38.08-.09-1.16h-.09a2.33,2.33,0,0,1,.89-1.38A2.38,2.38,0,0,1,75.54,57.62Z" transform="translate(0 -9.85)"/><path class="cls-24" d="M76.37,60.86a1.39,1.39,0,0,1-.2.76.93.93,0,0,1-.9,0,1.07,1.07,0,0,1-.27-.51,1,1,0,0,1-.06-.46.57.57,0,0,1,.41-.21,2.34,2.34,0,0,1,.38,0,1.16,1.16,0,0,1,.61.16S76.37,60.7,76.37,60.86Z" transform="translate(0 -9.85)"/><path class="cls-24" d="M73.06,60.86a1.49,1.49,0,0,0,.19.76,1,1,0,0,0,.91,0,1.16,1.16,0,0,0,.27-.51,1,1,0,0,0,.06-.46.59.59,0,0,0-.42-.21,2.13,2.13,0,0,0-.37,0,1.16,1.16,0,0,0-.61.16S73.05,60.7,73.06,60.86Z" transform="translate(0 -9.85)"/><path class="cls-25" d="M76.41,60.7s0-.05,0-.07l0-.05h0a1.48,1.48,0,0,0-1-.15.7.7,0,0,0-.45.23.37.37,0,0,0,0,.16h0a.39.39,0,0,0-.18,0,.38.38,0,0,0-.17,0h0a.37.37,0,0,0,0-.16.7.7,0,0,0-.45-.23,1.48,1.48,0,0,0-1,.15h0l0,.05s0,0,0,.07a.86.86,0,0,0,0,.16,1.4,1.4,0,0,0,.22.79.84.84,0,0,0,.53.15h0a.75.75,0,0,0,.39-.1,1.41,1.41,0,0,0,.34-.77h0a.36.36,0,0,1,.19,0,.32.32,0,0,1,.19,0h0a1.42,1.42,0,0,0,.35.77.75.75,0,0,0,.39.1h0a.84.84,0,0,0,.53-.15,1.4,1.4,0,0,0,.21-.79A.43.43,0,0,0,76.41,60.7Zm-2,.45a1.16,1.16,0,0,1-.27.51,1,1,0,0,1-.91,0,1.49,1.49,0,0,1-.19-.76c0-.16,0-.23,0-.25a1.16,1.16,0,0,1,.61-.16,2.13,2.13,0,0,1,.37,0,.59.59,0,0,1,.42.21A1,1,0,0,1,74.43,61.15Zm1.74.47a.93.93,0,0,1-.9,0,1.07,1.07,0,0,1-.27-.51,1,1,0,0,1-.06-.46.57.57,0,0,1,.41-.21,2.34,2.34,0,0,1,.38,0,1.16,1.16,0,0,1,.61.16s0,.09,0,.25A1.39,1.39,0,0,1,76.17,61.62Z" transform="translate(0 -9.85)"/><path class="cls-26" d="M82,73l-2-6.13A1.32,1.32,0,0,0,79,66h0l-2.91-.89-.16-.88-1,.23L74.7,66l-.23-1.6-1-.22-.18.87L70.4,66h0a1.36,1.36,0,0,0-.91.87l-2,6.13H69.9l.73-1.81L70.7,73h8l.08-1.85L79.51,73Z" transform="translate(0 -9.85)"/><polygon class="cls-3" points="74.47 54.56 74.23 55.83 73.31 55.21 73.43 54.24 74.47 54.56"/><polygon class="cls-3" points="74.93 54.56 75.16 55.83 76.09 55.21 75.97 54.24 74.93 54.56"/><path class="cls-19" d="M74.67,70.92c0,.68,0,1.35,0,2h.1c0-.68,0-1.35,0-2,0-.41,0-.82,0-1.23s0-.83,0-1.24c0-.82,0-1.65,0-2.47h0c0,.82,0,1.65,0,2.47,0,.41,0,.83,0,1.24S74.68,70.51,74.67,70.92Z" transform="translate(0 -9.85)"/><path class="cls-27" d="M18.91,67h0c-.21,0-.44-.57-.5-.78a2.13,2.13,0,0,1,0-.35c0-.17,0-.36.1-.42a.15.15,0,0,1,.15,0h0c.08,0,.1.18.1.18l0,.26v0h0Z" transform="translate(0 -9.85)"/><path class="cls-27" d="M22.68,65.64s.05-.32.25-.14.1.65.07.77-.3.81-.52.77Z" transform="translate(0 -9.85)"/><path class="cls-28" d="M22.86,64.74c0,.24-.05.48-.09.71h0c0,.26-.08.51-.12.74h0c0,.31-.11.59-.16.84s-.06.28-.09.41a.6.6,0,0,1-.08.21,3,3,0,0,1-1.68,1.14,2.85,2.85,0,0,1-1.58-1.14.9.9,0,0,1-.08-.21l-.09-.4c-.05-.26-.11-.55-.16-.85a.17.17,0,0,1,0-.07,1.43,1.43,0,0,1,0-.22c0-.15-.05-.3-.07-.46l0-.21-.06-.5a2.58,2.58,0,0,1,.15-.78,2,2,0,0,1,.27-.5,1.91,1.91,0,0,1,1.53-.8h.44a2.13,2.13,0,0,1,1,.32,1.53,1.53,0,0,1,.35.32l.11.13A2.56,2.56,0,0,1,22.86,64.74Z" transform="translate(0 -9.85)"/><path class="cls-22" d="M22.45,63.21h0a.9.9,0,0,0-.41-.83l0,0a2.16,2.16,0,0,0-.34-.17,2.62,2.62,0,0,0-2.34.32A3.19,3.19,0,0,0,18.21,64l.16,0c0,.07.43,2.63.44,2.68l.51.62a1.36,1.36,0,0,0,.83.48,4.73,4.73,0,0,0,.54,0,4.12,4.12,0,0,0,.51,0A1.35,1.35,0,0,0,22,67.3c.24-.28.54-.64.54-.63L23,64A1,1,0,0,0,22.45,63.21Z" transform="translate(0 -9.85)"/><path class="cls-23" d="M21.66,62.19l0,.18a3.59,3.59,0,0,1-1,1.9,3.53,3.53,0,0,1-1.72,1l-.31.06S18.37,64,18.37,64l-.16,0a3.19,3.19,0,0,1,1.11-1.49A2.62,2.62,0,0,1,21.66,62.19Z" transform="translate(0 -9.85)"/><polygon class="cls-28" points="19.68 63.1 21.84 63.1 21.76 58.03 19.68 58.03 19.68 63.1"/><path class="cls-28" d="M14.35,78.39c.55,1.85,2,6.7,2.21,7.46.14.51.43.82,1,.72s.56-.5.47-1c-.13-.78-1.2-5.74-1.56-7.58Z" transform="translate(0 -9.85)"/><path class="cls-29" d="M17.17,81.52c-.28-1.36-.57-2.73-.72-3.52l-2.1.39c.22.73.57,1.91.93,3.13Z" transform="translate(0 -9.85)"/><path class="cls-30" d="M17.93,71.29a2.48,2.48,0,0,0-1.44-.86c-.93.85-2,5.59-2.28,7.36a2.15,2.15,0,0,0,.11,1.15l.23.74,2.16-.34c-.06-.71-.09-1-.1-1.11Z" transform="translate(0 -9.85)"/><polygon class="cls-31" points="14.77 70.98 17.13 70.43 16.85 68.97 14.35 69.6 14.77 70.98"/><path class="cls-32" d="M16.77,81.4h8.07L25.46,73l-1.73-3.5-1.44-.12-3.08.13-2.72.89a13.86,13.86,0,0,0-.2,3,17.47,17.47,0,0,0,.6,3.21L17,78.29Z" transform="translate(0 -9.85)"/><polygon class="cls-31" points="19.21 59.69 19.27 58.78 22.18 58.73 22.29 59.56 19.21 59.69"/><path class="cls-28" d="M28.68,64.17l-.13-1.88.37-.87.64-1.59.23.14-.15,1.21,1.17.85,0,.46a4,4,0,0,1-.61,1.64h0Z" transform="translate(0 -9.85)"/><path class="cls-28" d="M29.59,63.4c-.47-.11-.79.18-.9.66L27.4,68.58l-3.65,1.16a2.47,2.47,0,0,0-.3,2.1,1.83,1.83,0,0,0,1.34,1.43l4.44-2.79.36-.28.06-.38.52-5.68C30.25,63.69,30.05,63.51,29.59,63.4Z" transform="translate(0 -9.85)"/><path class="cls-19" d="M27.4,68.58l-.19,0v3.21l2-1.36.36-.28.06-.38A3.43,3.43,0,0,0,27.4,68.58Z" transform="translate(0 -9.85)"/><path class="cls-32" d="M29,70.77l-.64.42-3.64,2.4a2.52,2.52,0,0,1-1.45-1.68,3,3,0,0,1,.5-2.38l2.62-.68,1-.27a1.76,1.76,0,0,1,.76.17,1.28,1.28,0,0,1,.49.4C28.89,69.48,29.27,70.48,29,70.77Z" transform="translate(0 -9.85)"/><path class="cls-31" d="M29,70.77l-.71.6h-.2a2.06,2.06,0,0,0-1.7-2.52l.07-.16.94-.12a1.83,1.83,0,0,1,.8.18,1.28,1.28,0,0,1,.49.4C28.89,69.48,29.27,70.48,29,70.77Z" transform="translate(0 -9.85)"/><path class="cls-28" d="M22.48,116.19h1.89v0a15.42,15.42,0,0,1-.12-2.57c.06-1.52.22-5,.35-7.79H22l.44,7.91Z" transform="translate(0 -9.85)"/><g class="cls-33"><path d="M24.27,112.8c.08-1.72.23-5,.32-7H22l.34,6Z" transform="translate(0 -9.85)"/></g><path class="cls-21" d="M22.35,115.31l0,1.37h0v.41h1.81v-.19l.09.1a.31.31,0,0,0,.21.09l1.54,0v-.23s-.07,0-.07,0a.54.54,0,0,0-.18-.45,9.93,9.93,0,0,1-1.07-.71,1.88,1.88,0,0,1-.28-.33s-.17,0-.14.19-.24.2-.57.15-.47-.36-.47-.36C23,115.08,22.34,115,22.35,115.31Z" transform="translate(0 -9.85)"/><path class="cls-28" d="M16.86,116.19,17,113.7l1-7.89H15.43c0,2.82-.12,6.29-.16,7.81a16.46,16.46,0,0,1-.29,2.57Z" transform="translate(0 -9.85)"/><g class="cls-33"><path d="M17.15,112.8l.85-7H15.43c0,2-.08,4.27-.12,6Z" transform="translate(0 -9.85)"/></g><path class="cls-21" d="M14.77,116.7s-.24-.35.18-1.27c.19-.44.54-.42.87-.39a1,1,0,0,1,.88.41c.24.39.36,0,.49.74,0,.31,0,.56-.05.54v.36H14.68v-.36Z" transform="translate(0 -9.85)"/><path class="cls-34" d="M17.83,110.09,20.4,88.9h.31s.73,15.78,1.06,21.2h2.87c.53-7.68.86-21.29.28-27.92l-.08-.77H16.77l-.18.74-.49,2.27a14.11,14.11,0,0,0-.32,2.67c-.08,3,.2,8.19-.23,13.19-.2,2.32-.44,6.44-.56,9.82Z" transform="translate(0 -9.85)"/><polygon class="cls-34" points="24.47 101.1 22.79 101.37 21.59 101.1 21.38 99.03 24.84 99.03 24.89 100.59 24.47 101.1"/><polygon class="cls-34" points="17.44 101.24 15.88 101.32 14.71 100.91 14.74 98.84 18.19 99.24 17.92 100.79 17.44 101.24"/><polygon class="cls-35" points="24.93 72.47 16.56 72.47 16.77 71.54 24.84 71.54 24.93 72.47"/><path class="cls-28" d="M114.93,69.91c.58.74,1.59.5,2.7,0l0-3.8-2.38,0Z" transform="translate(0 -9.85)"/><polygon class="cls-19" points="117.62 59.98 117.58 56.31 115.2 56.27 115.16 58.59 117.62 59.98"/><path class="cls-28" d="M118.29,64.43a3.26,3.26,0,0,1-.11.79c-.2.69-.64.83-.7,1a4.13,4.13,0,0,1-.72,1.53,5.38,5.38,0,0,1-1,.74l-.37,0a.36.36,0,0,1-.27-.12,10.25,10.25,0,0,1-.94-1.17,2.93,2.93,0,0,1-.3-.73l0-.64v-.13l-.09-.5h0v-.06l-.1-.9a2,2,0,0,1,2.19-2.13h.7a2.1,2.1,0,0,1,.46.08,2,2,0,0,1,1.3,1.79C118.28,64.18,118.29,64.34,118.29,64.43Z" transform="translate(0 -9.85)"/><path class="cls-25" d="M115,66.87l-.53.23-.07.4a3.28,3.28,0,0,1-.52-1,2.89,2.89,0,0,0,.46,1.5.89.89,0,0,0,.75.53l.6,0a.89.89,0,0,0,.53-.12,7.54,7.54,0,0,0,.79-.58.88.88,0,0,0,.31-.51c.07-.35.09-.65.16-1.15l-.17,0a3,3,0,0,1-.46.85l-.06.05-.6.39-.12-.39-.72-.25-.2,0Z" transform="translate(0 -9.85)"/><path class="cls-28" d="M114.68,67.28a.57.57,0,0,0,0,.33.43.43,0,0,0,.24.16c.07,0,.1-.07.13-.12s.1,0,.11,0,.09.17.18.16a1.62,1.62,0,0,0,.43-.16.15.15,0,0,0,.08-.14.46.46,0,0,0,0-.21l-.54-.1-.16,0-.15,0Z" transform="translate(0 -9.85)"/><path class="cls-25" d="M118.53,63.92c0,.1,0,.2,0,.31a.5.5,0,0,0-.22-.24,3.9,3.9,0,0,0-1.3-.36h-.17c-.79,0-1.05.42-1.66.43s-.62-.24-.85-.29-.45.29-.45.29a4.54,4.54,0,0,0-.11,1.14l-.07-.34a2.08,2.08,0,0,1,0-1c-.45-1.05,1-2.08,2-2.06a3,3,0,0,1,1.34.33A3.24,3.24,0,0,1,118.53,63.92Z" transform="translate(0 -9.85)"/><path class="cls-25" d="M117,63.63c.16,0,.24.52.06,1.21a1.25,1.25,0,0,1,.29.46,2.75,2.75,0,0,1,0,.92l.17,0,.43-.08a5.78,5.78,0,0,0,.6-1.86C118.32,63.77,117,63.63,117,63.63Z" transform="translate(0 -9.85)"/><path class="cls-27" d="M117.52,66.65a1.11,1.11,0,0,0,.56-.6c.18-.46.11-.84-.14-.88s-.41.24-.41.24l-.13,1.18A.12.12,0,0,0,117.52,66.65Z" transform="translate(0 -9.85)"/><path class="cls-23" d="M117,62.61a3.07,3.07,0,0,1-.19,1,3.51,3.51,0,0,1-3,2.2v-.13l-.09-.5h0l-.07-.34a2.08,2.08,0,0,1,0-1c-.45-1.05,1-2.08,2-2.06a3,3,0,0,1,1.34.33s0,.08,0,.12S117,62.47,117,62.61Z" transform="translate(0 -9.85)"/><path class="cls-36" d="M117.1,65.23s0-.06,0-.08l0-.06h0a1.68,1.68,0,0,0-1.16-.19.79.79,0,0,0-.52.26.44.44,0,0,0,0,.18s0,.08,0,.12a1.66,1.66,0,0,0,.38.88.86.86,0,0,0,.45.13h0a1,1,0,0,0,.6-.16,1.55,1.55,0,0,0,.26-.9Zm-.29,1a1,1,0,0,1-1,0,1.18,1.18,0,0,1-.3-.59,1.15,1.15,0,0,1-.06-.53.74.74,0,0,1,.48-.23,2,2,0,0,1,.43,0,1.25,1.25,0,0,1,.69.19.53.53,0,0,1,0,.29A1.58,1.58,0,0,1,116.81,66.27Z" transform="translate(0 -9.85)"/><path class="cls-23" d="M117.05,65.41a1.58,1.58,0,0,1-.24.86,1,1,0,0,1-1,0,1.18,1.18,0,0,1-.3-.59,1.15,1.15,0,0,1-.06-.53.74.74,0,0,1,.48-.23,2,2,0,0,1,.43,0,1.25,1.25,0,0,1,.69.19A.53.53,0,0,1,117.05,65.41Z" transform="translate(0 -9.85)"/><path class="cls-36" d="M114.93,65.46a.43.43,0,0,0,0-.11.34.34,0,0,0-.07-.18,1.35,1.35,0,0,0-1-.18.71.71,0,0,0-.48.26,1.55,1.55,0,0,0,.35,1.13.83.83,0,0,0,.41.1,1.08,1.08,0,0,0,.62-.13c.13-.1.16-.47.16-.58S114.94,65.56,114.93,65.46Zm0,.3a1.25,1.25,0,0,1,0,.36.33.33,0,0,1-.09.18,1.07,1.07,0,0,1-1,0,1.56,1.56,0,0,1-.34-1.06.64.64,0,0,1,.45-.24,1.74,1.74,0,0,1,.32,0,1,1,0,0,1,.59.18A1,1,0,0,1,114.89,65.76Z" transform="translate(0 -9.85)"/><path class="cls-23" d="M114.89,65.76a1.25,1.25,0,0,1,0,.36.33.33,0,0,1-.09.18,1.07,1.07,0,0,1-1,0,1.56,1.56,0,0,1-.34-1.06.64.64,0,0,1,.45-.24,1.74,1.74,0,0,1,.32,0,1,1,0,0,1,.59.18A1,1,0,0,1,114.89,65.76Z" transform="translate(0 -9.85)"/><path class="cls-36" d="M114.92,65.47l0-.1a.47.47,0,0,1,.51,0l0,.1A.45.45,0,0,0,114.92,65.47Z" transform="translate(0 -9.85)"/><path class="cls-36" d="M117.74,65.21l-.66-.06v.08l.57,0Z" transform="translate(0 -9.85)"/><path class="cls-28" d="M112.9,114.59a14,14,0,0,0,.11-2.44c-.06-1.43-.22-4.7-.35-7.37h2.41l-.39,7.49v3.19l-1.8.93h-.51l-.86-.08,1.11-1.25A1.38,1.38,0,0,0,112.9,114.59Z" transform="translate(0 -9.85)"/><path class="cls-28" d="M112.9,114.59a14,14,0,0,0,.11-2.44c-.06-1.43-.22-4.7-.35-7.37h2.41l-.39,7.49v3.19l-1.8.93h-.51l-.86-.08,1.11-1.25A1.38,1.38,0,0,0,112.9,114.59Z" transform="translate(0 -9.85)"/><path class="cls-25" d="M114.7,114.18l.1.07-.08,1.42-.7.44-.13-.2-.19.31a1.16,1.16,0,0,1-.28.34l-1.45,1-.13.07a2.21,2.21,0,0,1-1.35.12.46.46,0,0,1-.21-.64,13,13,0,0,1,1.2-1.41c.39-.37.7-.7.85-.86a1.07,1.07,0,0,0,.15-.22c.06-.1.15-.29.31-.61a.28.28,0,0,1,.32-.15l.29.06a.58.58,0,0,1,.41.35,2.13,2.13,0,0,1,.06.45C114.22,114.69,114.69,114.42,114.7,114.18Z" transform="translate(0 -9.85)"/><path class="cls-28" d="M120.76,104.78c.06,2.67.14,6,.18,7.39a14.46,14.46,0,0,0,.29,2.44,1.56,1.56,0,0,0,.32.47l1.21,1.28-.86.06h-.51l-1.87-1-.24-3.2-.93-7.47Z" transform="translate(0 -9.85)"/><path class="cls-25" d="M119.41,114l-.1.06.07,1.42.7.51.12-.17.2.3a1.36,1.36,0,0,0,.29.37l1.45,1.15a.39.39,0,0,0,.14.08,2.28,2.28,0,0,0,1.35.25.42.42,0,0,0,.22-.61,16.64,16.64,0,0,0-1.2-1.51c-.39-.41-.71-.77-.86-.94a1.14,1.14,0,0,1-.15-.23l-.31-.64a.3.3,0,0,0-.32-.18l-.29,0a.51.51,0,0,0-.41.31,1.23,1.23,0,0,0-.06.44C119.89,114.53,119.41,114.22,119.41,114Z" transform="translate(0 -9.85)"/><path class="cls-34" d="M111.12,85.59c.13,2.64.54,8.25.81,13.79.15,3.32.74,11.52.8,14.2l1.12.35,1.35-.35.09-25,.57.1,3,24.91,1,.31,1.37-.35c-.11-2.67-.48-10.88-.58-14.26-.16-5.58-.22-11.2-.34-13.73l-.73-3.36-.16-.7h-8l0,.71Z" transform="translate(0 -9.85)"/><path class="cls-35" d="M112.92,81.93a15.1,15.1,0,0,0,2.93.24l.05.9a12.1,12.1,0,0,1-3-.26Z" transform="translate(0 -9.85)"/><path class="cls-28" d="M101.44,82.68s0,0,0-.05a.33.33,0,0,1,0-.17.15.15,0,0,1,0-.09.08.08,0,0,1,0,0s0,0,0,0,.15-.18.23-.26.31-.35.47-.52l.06-.06,0,0,0,0,.1-.14.2-.28.19-.3.11-.17a3,3,0,0,1-.67.4.72.72,0,0,1-.24-.1s1-1.24,1-1.24a11.57,11.57,0,0,1,1.3-.48l4.74-2.57.74,1.87s-4.55,1.65-4.62,1.82a13.93,13.93,0,0,1-1.35,1.65c-.06.12-1.34,1-1.5,1.18a.41.41,0,0,1-.23.11.16.16,0,0,1-.11,0l0,0h0l-.09.05a.41.41,0,0,1-.16,0,.2.2,0,0,1-.16-.07.15.15,0,0,1,0-.13.17.17,0,0,1-.11-.06C101.39,82.91,101.39,82.82,101.44,82.68Z" transform="translate(0 -9.85)"/><g class="cls-33"><path d="M105,78.73l4.1-2.22.74,1.87s-3.25,1.19-4.57,1.78Z" transform="translate(0 -9.85)"/></g><path class="cls-7" d="M105.56,78.23l-.5.23s0,0,0,.08l.7,1.7c.07.08.52-.15.52-.15S105.61,78.26,105.56,78.23Z" transform="translate(0 -9.85)"/><path class="cls-21" d="M112.07,70.24l-2.73,5.81-4,2.2.91,2c1.64-.74,2.89-1.32,4.48-2.07.71-.39,2.91-5.52,2.91-5.52A16.12,16.12,0,0,0,112.07,70.24Z" transform="translate(0 -9.85)"/><path class="cls-12" d="M115,68.86c.07.2-.25.93.88,1a1.83,1.83,0,0,0,1.82-1.11l3,1.12s-.39,3.56-.48,4a10.86,10.86,0,0,0-.88,4.15,15.4,15.4,0,0,0,.1,3.49,12.76,12.76,0,0,1-8,0l.95-7.75L112.7,70Z" transform="translate(0 -9.85)"/><polygon class="cls-8" points="115.93 61.16 115.19 61.12 113.55 69.7 114.14 70.82 115.21 69.84 115.93 61.16"/><polygon class="cls-8" points="116.61 59.87 114.85 59.77 115.19 61.12 115.93 61.16 116.61 59.87"/><polygon class="cls-37" points="115.93 61.16 115.19 61.12 113.8 68.52 115.44 65.38 115.93 61.16"/><polygon class="cls-38" points="117.63 58.73 115.98 59.82 117.08 60.79 117.88 58.95 117.63 58.73"/><polygon class="cls-38" points="115.49 59.81 114.98 59.01 114.58 59.2 114.33 60.55 115.49 59.81"/><path class="cls-21" d="M119.88,78l.88,7.07a6.54,6.54,0,0,1-4.62,1.27,75.84,75.84,0,0,1-.32-8.43l0-.35a28.51,28.51,0,0,1,2-8.73l.69.24h0l2.19.8Z" transform="translate(0 -9.85)"/><path class="cls-21" d="M114.86,68.92a19.83,19.83,0,0,0-1.71,7h0c-.07.49-.18,6.93-.48,10.15a2.75,2.75,0,0,1-2-.46s.62-6.28.65-6.71.76-8.7.76-8.7Z" transform="translate(0 -9.85)"/><path class="cls-39" d="M117.59,70.92l.86.35a15.32,15.32,0,0,0-2.53,5.87c0,.16,0,.29-.07.39a28,28,0,0,1,1.78-9l.94.46.1,2Z" transform="translate(0 -9.85)"/><path class="cls-39" d="M114.86,68.92c-1.34,2.55-1.76,8-1.76,8l-.39-5.5,1.06-.45h-1l1.24-1.68Z" transform="translate(0 -9.85)"/><polygon class="cls-39" points="119.85 63.75 117.58 63.53 117.61 63.35 119.88 63.56 119.85 63.75"/><path class="cls-7" d="M124.94,87.52l.62,6.66a.17.17,0,0,1,0,.07.36.36,0,0,1-.33.33l-9.12.85a.37.37,0,0,1-.39-.26s0,0,0-.07l-.62-6.66v-.07a.36.36,0,0,1,.33-.33l9.12-.85a.37.37,0,0,1,.39.26A.64.64,0,0,0,124.94,87.52Z" transform="translate(0 -9.85)"/><path class="cls-40" d="M125,87.65l.28,3a.38.38,0,0,1-.25.39,19.94,19.94,0,0,1-9.29.86.37.37,0,0,1-.32-.33l-.28-3v-.08a.38.38,0,0,1,.34-.33l9.11-.85a.37.37,0,0,1,.39.27A.14.14,0,0,1,125,87.65Z" transform="translate(0 -9.85)"/><path class="cls-7" d="M124.94,87.52l.28,3A.39.39,0,0,1,125,91a20.2,20.2,0,0,1-9.29.86.37.37,0,0,1-.32-.33l-.28-3v-.07a.36.36,0,0,1,.33-.33l9.12-.85a.37.37,0,0,1,.39.26A.64.64,0,0,0,124.94,87.52Z" transform="translate(0 -9.85)"/><path class="cls-41" d="M115.55,88.15" transform="translate(0 -9.85)"/><path class="cls-6" d="M124.92,87.45l-9.84.92a.36.36,0,0,1,.33-.33l9.12-.85A.37.37,0,0,1,124.92,87.45Z" transform="translate(0 -9.85)"/><path class="cls-8" d="M117.88,91.79l.19,2.09A.11.11,0,0,1,118,94l-.37,0a.11.11,0,0,1-.13-.11l-.2-2.1A.71.71,0,0,1,117.88,91.79Z" transform="translate(0 -9.85)"/><path class="cls-40" d="M125.55,94.25a.36.36,0,0,1-.33.33l-9.12.85a.37.37,0,0,1-.39-.26Z" transform="translate(0 -9.85)"/><path class="cls-6" d="M117.78,93.41h-.12l-.27-.22-.2-2.1a.14.14,0,0,1,.11-.13l.37,0a.14.14,0,0,1,.14.12l.19,2.09Z" transform="translate(0 -9.85)"/><path class="cls-4" d="M118,92.85l-.74.07-.08-.78.75-.07Zm-.69,0,.62-.06-.06-.66-.62,0Z" transform="translate(0 -9.85)"/><path class="cls-4" d="M117.68,93s0,0,0,0l0-.46a0,0,0,0,1,0,0s0,0,0,0l0,.46A0,0,0,0,1,117.68,93Z" transform="translate(0 -9.85)"/><path class="cls-8" d="M123.42,91.27l.19,2.09a.12.12,0,0,1-.11.14l-.37,0a.11.11,0,0,1-.13-.11l-.2-2.09A.68.68,0,0,1,123.42,91.27Z" transform="translate(0 -9.85)"/><path class="cls-6" d="M123.32,92.89l-.12,0-.27-.23-.2-2.09a.14.14,0,0,1,.11-.14l.37,0a.12.12,0,0,1,.14.11l.19,2.09Z" transform="translate(0 -9.85)"/><path class="cls-4" d="M123.58,92.34l-.74.07-.08-.79.75-.07Zm-.69,0,.62-.06-.06-.66-.62.06Z" transform="translate(0 -9.85)"/><path class="cls-4" d="M123.22,92.47s0,0,0,0l0-.46a0,0,0,0,1,0,0,0,0,0,0,1,0,0l0,.45S123.24,92.47,123.22,92.47Z" transform="translate(0 -9.85)"/><path class="cls-7" d="M121.93,87.43h0a.13.13,0,0,1-.14-.08l-.27-.63a.26.26,0,0,0-.27-.22l-2.71.25a.26.26,0,0,0-.23.27l-.15.67a.16.16,0,0,1-.13.11h0a.14.14,0,0,1-.15-.13l-.05-.46a.89.89,0,0,1,.8-1l2.43-.23a.88.88,0,0,1,1,.8l0,.46A.14.14,0,0,1,121.93,87.43Z" transform="translate(0 -9.85)"/><polygon class="cls-42" points="118.13 77.93 118.13 77.93 118.13 77.93 118.13 77.93 118.13 77.93"/><path class="cls-4" d="M118.37,87.76l-.86.08v-.11s0-.08.12-.08l.61-.06c.07,0,.13,0,.13.06Z" transform="translate(0 -9.85)"/><path class="cls-4" d="M122.44,87.38l-.87.08v-.11s0-.08.12-.08l.62-.06a.11.11,0,0,1,.13.06Z" transform="translate(0 -9.85)"/><rect class="cls-4" x="118.62" y="86.07" width="2.47" height="0.62" rx="0.12" transform="translate(-7.5 1.64) rotate(-5.32)"/><path class="cls-28" d="M120.17,83.48c-.06.19-.25.63-.27.69a1.33,1.33,0,0,1-.29.35l-.59.37a2,2,0,0,0-.35,1.31l.38,0a4,4,0,0,1-.16.78h0a.65.65,0,0,0,0,.18.14.14,0,0,0,.06.15.26.26,0,0,0,.32,0,.3.3,0,0,0,.1-.14l.08-.18.12-.35-.06-.19c.11.27.2.55.29.82,0,.05.09.06.15.05a.58.58,0,0,0,.18,0c.06,0,.15,0,.14-.12a.72.72,0,0,0,.28,0l.35-.14a.4.4,0,0,0,.15-.14,3.17,3.17,0,0,0,.21-.41,3.89,3.89,0,0,0,.19-.42,1.14,1.14,0,0,0,0-.45L121.3,85l0-.23a.6.6,0,0,1,0-.23,3.19,3.19,0,0,1,.21-.59Z" transform="translate(0 -9.85)"/><polygon class="cls-7" points="121.53 74.47 119.95 74.06 120.09 73.53 121.68 73.93 121.53 74.47"/><path class="cls-21" d="M120.72,69.82l.62.24a57.12,57.12,0,0,1,1.59,8.21l-1,5.58a10.49,10.49,0,0,1-2.09-.53s.54-4.34.51-5c0-1.56-.26-3.37-.26-3.37S120.54,71.23,120.72,69.82Z" transform="translate(0 -9.85)"/><path class="cls-7" d="M73.06,95.32,72.74,95l-7.35,7.35-2.72-7.11L57,95.14v24.23H71.88l-6.32-16.56Zm-15.65,23.6V95.69h5l8.86,23.23Z" transform="translate(0 -9.85)"/><path class="cls-4" d="M83.21,95.43H50.8a.31.31,0,0,1,0-.62H83.21a.31.31,0,0,1,0,.62Z" transform="translate(0 -9.85)"/><path class="cls-25" d="M70.94,94.81H67.58A1.32,1.32,0,0,1,66.32,94a1.34,1.34,0,0,1,.32-1.48l4.06-3.9a.17.17,0,0,1,.24,0,.17.17,0,0,1,0,.23l-4.07,3.9a1,1,0,0,0-.24,1.12,1,1,0,0,0,1,.64h3.36a.17.17,0,0,1,.17.16A.18.18,0,0,1,70.94,94.81Z" transform="translate(0 -9.85)"/><path class="cls-25" d="M80.75,94.81H73.89a.17.17,0,0,1-.17-.17.16.16,0,0,1,.17-.16h6.86a.16.16,0,0,1,.16.16A.17.17,0,0,1,80.75,94.81Z" transform="translate(0 -9.85)"/><path class="cls-43" d="M68.93,83.19l2,7.81a1.85,1.85,0,0,0,1.78,1.4L69.82,81.11A1.86,1.86,0,0,0,68.93,83.19Z" transform="translate(0 -9.85)"/><path class="cls-25" d="M73.17,92.35l-2.9-11.42h0a1.77,1.77,0,0,0-.45.18L72.69,92.4A1.57,1.57,0,0,0,73.17,92.35Z" transform="translate(0 -9.85)"/><path class="cls-44" d="M62.67,94.8H54.58a.17.17,0,0,1-.19-.15V93.43a.17.17,0,0,1,.19-.15h8.09a.17.17,0,0,1,.19.15v1.22A.17.17,0,0,1,62.67,94.8Z" transform="translate(0 -9.85)"/><rect class="cls-15" x="54.58" y="83.42" width="0.47" height="1.53"/><rect class="cls-15" x="55.34" y="83.42" width="0.47" height="1.53"/><rect class="cls-15" x="61.45" y="83.42" width="0.47" height="1.53"/><rect class="cls-15" x="62.2" y="83.42" width="0.47" height="1.53"/><rect class="cls-15" x="56.23" y="83.56" width="0.9" height="1.25"/><path class="cls-4" d="M61.82,93.28H54.49a.1.1,0,0,1-.1-.08v-.61a.1.1,0,0,1,.1-.08h7.33a.09.09,0,0,1,.1.08v.61A.09.09,0,0,1,61.82,93.28Z" transform="translate(0 -9.85)"/><rect class="cls-45" x="55.34" y="82.74" width="5.72" height="0.61"/><rect class="cls-7" x="55.41" y="82.79" width="0.61" height="0.5"/><rect class="cls-1" x="61.26" y="82.74" width="0.12" height="0.61"/><rect class="cls-1" x="61.56" y="82.74" width="0.12" height="0.61"/><rect class="cls-32" x="54.39" y="81.9" width="8.46" height="0.76"/><rect class="cls-15" x="61.76" y="81.95" width="0.91" height="0.67"/><rect class="cls-1" x="60.04" y="81.95" width="0.19" height="0.67"/><rect class="cls-1" x="54.58" y="81.95" width="0.19" height="0.67"/><rect class="cls-1" x="55.55" y="81.95" width="3.75" height="0.67"/><polygon class="cls-7" points="106.38 109.59 106.61 109.59 101.37 94.34 100.56 94.34 106.38 109.59"/><polygon class="cls-7" points="99.03 109.59 99.27 109.59 97.48 94.34 96.67 94.34 99.03 109.59"/><polygon class="cls-7" points="84.96 109.59 84.72 109.59 89.97 94.34 90.77 94.34 84.96 109.59"/><polygon class="cls-7" points="93.48 109.59 93.24 109.59 93.86 94.34 94.66 94.34 93.48 109.59"/><path class="cls-46" d="M97.82,103.1,101,96.54a4.4,4.4,0,0,1,4-2.48h2.71l-2.5,7.3a4.82,4.82,0,0,1-4.56,3.26H95.41A2.66,2.66,0,0,0,97.82,103.1Z" transform="translate(0 -9.85)"/><path class="cls-47" d="M90.12,94.06h6.65l3.38-4.55a4,4,0,0,1,3-1.33h1c1.84,0,4.08.26,4.53,3.33l.26,2.55h-4a4.4,4.4,0,0,0-4,2.48l-3.17,6.56a2.66,2.66,0,0,1-2.41,1.52H85.29v-1.21C85.29,99.89,87.74,94.06,90.12,94.06Z" transform="translate(0 -9.85)"/><path class="cls-25" d="M85.29,105H95.41a3.1,3.1,0,0,0,2.75-1.67L101.32,97a4.06,4.06,0,0,1,3.62-2.2h4a.36.36,0,1,0,0-.72h-4a4.8,4.8,0,0,0-4.29,2.6L97.49,103a2.32,2.32,0,0,1-2.08,1.26H85.29C85.08,104.27,85.08,105,85.29,105Z" transform="translate(0 -9.85)"/><polygon class="cls-28" points="95.8 89.63 82.7 86.38 81.93 89.23 94.58 94.14 95.8 89.63"/><polygon class="cls-48" points="94.45 89 93.58 89.03 80.98 90.22 80.98 93.18 94.45 94.4 94.45 89"/><path class="cls-48" d="M83.5,116.43l-.26-2.19,0-.44,0-8.69-.86-3.77h0A1.38,1.38,0,0,0,81,100.08c-.82,0-1.78.89-1.62,1.72h0l2.44,12.51c0,.28.1.55.14.8a9.38,9.38,0,0,1,.12,1.36,20.58,20.58,0,0,1-.48,2.41c-.56.4-1.1.79-1,.88s2-.36,2-.42a11.71,11.71,0,0,0,.3-1.3,2,2,0,0,1,.39-.84l.18-.23A.65.65,0,0,0,83.5,116.43Z" transform="translate(0 -9.85)"/><path class="cls-34" d="M83.38,115.38s-.86,2.4-1.24,3.17a.6.6,0,0,1-.54.33,6.08,6.08,0,0,0-1.08.74.16.16,0,0,0,0,.28,5,5,0,0,0,2.12-.5l.35-1.72.26-.24a7.44,7.44,0,0,1,.39,1.61.31.31,0,0,0,.19,0,7.67,7.67,0,0,1-.08-2A2.73,2.73,0,0,0,83.38,115.38Z" transform="translate(0 -9.85)"/><path class="cls-48" d="M97,101.37A7.07,7.07,0,0,0,95,97l-3.1.71-.15,3.91a3.27,3.27,0,0,0,2.7,2.63C96.72,104.48,97.09,102.09,97,101.37Z" transform="translate(0 -9.85)"/><path class="cls-28" d="M83.77,97.68a1.48,1.48,0,0,0-1.46-1.5,1.45,1.45,0,0,0-1.33.87h0l-5.14,11.51a13.4,13.4,0,0,1-1,1.94A15.74,15.74,0,0,1,73,112.32c-.16.1-1,0-1,.21s1.6.82,1.85.83a16.52,16.52,0,0,0,1.22-1.29l.44-.28a.27.27,0,0,0,.07-.08l1.61-2.66,5.14-7.78,1.25-3h0A1.46,1.46,0,0,0,83.77,97.68Z" transform="translate(0 -9.85)"/><path class="cls-34" d="M76.49,110.4s-1.78,1.69-2.48,2.2c-.22.16-.53-.09-.88-.3a2.81,2.81,0,0,0-1.06.06c-.14.08-.16.23,0,.36s1.81.9,2,.72l.77-.89.3-.22c-.15.31-.33.64-.59,1.08a.24.24,0,0,0,.15.09,14.44,14.44,0,0,1,1.19-1.77h0A2.87,2.87,0,0,0,76.49,110.4Z" transform="translate(0 -9.85)"/><path class="cls-34" d="M97,101.37a7.05,7.05,0,0,0-1.94-4.43l-3.46.69,0,.81-6-1.5v6.5l8.92.81C96.72,104.48,97.09,102.09,97,101.37Z" transform="translate(0 -9.85)"/><polygon class="cls-19" points="91.58 88.59 91.58 89.19 85.53 89.79 85.53 87.09 91.58 88.59"/><path class="cls-28" d="M92.89,89.27a25.16,25.16,0,0,1-1.8-5l-1.88.84c.56,1.74,1.44,4.09,1.68,5.33Z" transform="translate(0 -9.85)"/><g class="cls-33"><path d="M91.09,84.26l-1.88.84.43,1.3Z" transform="translate(0 -9.85)"/></g><path class="cls-32" d="M90.12,87.85l2-1.79a4.5,4.5,0,0,1,2.53,2.82l.42,8.06-3.46.69-2.31-4.25a3.55,3.55,0,0,1-.16-2.32Z" transform="translate(0 -9.85)"/><path class="cls-28" d="M93.79,87.82c-.49-.59-2.07-.2-2.67.41l-1,1-3,2.2-6.56,1.1-2.36.68-2.4,1.24h.4l2-.42h1.19l1-.46,7,0A22.5,22.5,0,0,0,93.36,90,1.6,1.6,0,0,0,93.79,87.82Z" transform="translate(0 -9.85)"/><path class="cls-25" d="M88.15,80.43s-1.32,1-.52,1.81c.55.51,1.81.27,2.58.05a1.17,1.17,0,0,0,.87-1c0-.4-.16-.68-1-.57C88.47,80.91,88.15,80.43,88.15,80.43Z" transform="translate(0 -9.85)"/><path class="cls-28" d="M87,83.66l.07.09a1.75,1.75,0,0,1,.23.57,5.09,5.09,0,0,0,.48,1.51,10.14,10.14,0,0,0,2.28,0l1.62-1.66a2,2,0,0,0,.22-.45,2.14,2.14,0,0,0,.14-1c-.12-1.19-.92-1.91-2.6-1.79a1.78,1.78,0,0,0-1.82,1.6.71.71,0,0,1-.31.58,1.89,1.89,0,0,1-.28.17C86.82,83.37,86.88,83.53,87,83.66Z" transform="translate(0 -9.85)"/><path class="cls-49" d="M88.67,82.66c1.36.86,1,1.31,1.07,2a4.34,4.34,0,0,0,1.93,2.75s4.69-3.69,3.57-4.18c-1.39-.6-1.71-1.14-1.9-1.61a3.11,3.11,0,0,0-.26-.59c-.15-.24-1-.92-2.78-.36s-2.15-.21-2.15-.21S86.93,81.58,88.67,82.66Z" transform="translate(0 -9.85)"/><path class="cls-50" d="M89.06,82.58a2.51,2.51,0,0,1,1,1.81,4.43,4.43,0,0,0,1.66,3s5-3.69,3.9-4.18c-1.4-.6-1.71-1.14-1.9-1.61a3.91,3.91,0,0,0-.26-.59c-.15-.24-1.08-1.1-2.87-.54s-2.39,0-2.39,0S87.27,81.1,89.06,82.58Z" transform="translate(0 -9.85)"/><path class="cls-23" d="M87,83.29a1.89,1.89,0,0,0,.28-.17.71.71,0,0,0,.31-.58,1.48,1.48,0,0,1,.48-1.07c-.37-.71.07-1,.07-1s.66.58,2.39,0,2.72.3,2.87.54h0a1.12,1.12,0,0,1,.09,1c-.35,1-1,2.31-3.86,2.39a4.65,4.65,0,0,1-2.59-.67L87,83.66C86.88,83.53,86.82,83.37,87,83.29Z" transform="translate(0 -9.85)"/><path class="cls-6" d="M88.6,85.67a1.88,1.88,0,0,1-.95-.25.1.1,0,0,1,0-.15.1.1,0,0,1,.15,0,1.76,1.76,0,0,0,2.38-.66c1.44-1.83.92-3,.62-3.42s-.67-.59-.82-.54a.11.11,0,1,1-.07-.21c.3-.1.77.17,1.08.62s.9,1.74-.64,3.69A2.17,2.17,0,0,1,88.6,85.67Z" transform="translate(0 -9.85)"/><path class="cls-51" d="M87.56,85.6l-.43-.21A.32.32,0,0,1,87,85h0a.33.33,0,0,1,.42-.15l.44.21a.33.33,0,0,1,.15.43h0A.34.34,0,0,1,87.56,85.6Z" transform="translate(0 -9.85)"/><polygon class="cls-8" points="31.81 109.45 31.59 109.45 36.41 92.5 37.15 92.5 31.81 109.45"/><polygon class="cls-8" points="38.56 109.45 38.34 109.45 39.98 92.5 40.72 92.5 38.56 109.45"/><polygon class="cls-8" points="51.49 109.45 51.71 109.45 46.89 92.5 46.15 92.5 51.49 109.45"/><polygon class="cls-8" points="43.66 109.45 43.88 109.45 43.31 92.5 42.57 92.5 43.66 109.45"/><path class="cls-52" d="M39.25,102.82l-3-6.4A4.17,4.17,0,0,0,32.48,94H29.9l2.38,7.12a4.6,4.6,0,0,0,4.34,3.18h4.93A2.55,2.55,0,0,1,39.25,102.82Z" transform="translate(0 -9.85)"/><path class="cls-53" d="M46.58,94H40.26L37,89.56a3.81,3.81,0,0,0-2.85-1.29h-1c-1.75,0-3.89.25-4.31,3.24L28.65,94h3.83a4.17,4.17,0,0,1,3.76,2.42l3,6.4a2.55,2.55,0,0,0,2.3,1.48h9.64v-1.17C51.19,99.69,48.85,94,46.58,94Z" transform="translate(0 -9.85)"/><path class="cls-25" d="M51.19,104.66H41.55A2.92,2.92,0,0,1,38.94,103l-3-6.19a3.83,3.83,0,0,0-3.44-2.15H28.65a.35.35,0,0,1-.36-.35.36.36,0,0,1,.36-.35h3.83a4.56,4.56,0,0,1,4.08,2.54l3,6.19a2.2,2.2,0,0,0,2,1.23h9.64C51.38,104,51.38,104.66,51.19,104.66Z" transform="translate(0 -9.85)"/><path class="cls-28" d="M42.58,86.25a17.65,17.65,0,0,0,1.94-4.52l2.38.78a43.55,43.55,0,0,0-1.78,4.81Z" transform="translate(0 -9.85)"/><g class="cls-33"><path d="M43.62,84.26a24.5,24.5,0,0,0,.92-2.52l2.36.77c-.23.6-.22.57-.5,1.26Z" transform="translate(0 -9.85)"/></g><path class="cls-28" d="M43,80a2.79,2.79,0,0,0,.87,1.62,5.53,5.53,0,0,0,.56.19s.93.41,1,.42.22.4.4.76a1.1,1.1,0,0,0,1,.61,3.85,3.85,0,0,0,1.1-.12,12.57,12.57,0,0,0,.6-1.63s.25-.25.26-.32a.21.21,0,0,0,0-.16l-.3-.32a1.06,1.06,0,0,1-.08-.83,1.48,1.48,0,0,0-.14-1,.71.71,0,0,0-.13-.29,3.51,3.51,0,0,0-.73-.7,5.77,5.77,0,0,0-3.06,0l-.07,0-.26.1-.22.1a1.22,1.22,0,0,0-.7.82,2.94,2.94,0,0,0,0,.35C43,79.74,43,79.87,43,80Z" transform="translate(0 -9.85)"/><path class="cls-54" d="M46.1,78.81a2,2,0,0,0,0,1.1.82.82,0,0,0-.52.84c.07.37.17.71.18.74l-1.16.44-.33.58c-.78-1.08-1.61-1.77-1.55-3,.54-.55,3.17-.69,3.43-.7Z" transform="translate(0 -9.85)"/><path class="cls-55" d="M42.74,79.71v.13h0a1.09,1.09,0,0,1,.28-.22,5.55,5.55,0,0,1,1.66-.45c.66-.1,1.24-.13,1.36-.14h0c.42-.52,1.44.24,2.19.19h0c.09-.51.25-1.27.25-1.27a13.35,13.35,0,0,0-2.29-.66,4.41,4.41,0,0,0-2.26.32,1.91,1.91,0,0,0-1.19,1.54A2.15,2.15,0,0,0,42.74,79.71Z" transform="translate(0 -9.85)"/><path class="cls-27" d="M45.4,81.68s-.07-.9-.35-.91-.75.21-.64.65a2.06,2.06,0,0,0,.41.79c.08.09.53.33.61,0Z" transform="translate(0 -9.85)"/><path class="cls-28" d="M54.15,109.72l2.3.53s-1.56,5.93-.86,6.63c0,.2,2.14,1.86,1.9,2a23.58,23.58,0,0,1-4.67-1.81s.92-2.52.93-2.56Z" transform="translate(0 -9.85)"/><path class="cls-21" d="M55.44,116s.76,1.11.85,1.29a6.55,6.55,0,0,0,1.32.87c.75.44.8.86.83,1h0a.07.07,0,0,1,0,.1l0,.15s-2.34-.51-3.25-.86c0,0-.62-.75-.81-.23l-1.9-.5.17-.58h.1a4.71,4.71,0,0,1,.42-1.44h.1s0,.31.53.5,1.05.26,1.15.15.06-.07.06-.07A.49.49,0,0,1,55.44,116Z" transform="translate(0 -9.85)"/><path class="cls-21" d="M54.08,102.73,43,102.26V97.18l13.71,2.3a1.59,1.59,0,0,1,1.42,1.75s-1.77,13.51-1.84,14.06l-1.3.48-1.68-.48L54,104Z" transform="translate(0 -9.85)"/><path class="cls-28" d="M61.53,111.59l.37,1.33c.27,1,.87,3.75,1.74,4.12.17.12-1.76,1.83-1.89,1.72s-.88-2.92-.9-3l-.64-1.76c-.19-.5-.39-1-.61-1.49l-.42-1Z" transform="translate(0 -9.85)"/><path class="cls-21" d="M63.44,116.84s1,.87,1.15,1a6.37,6.37,0,0,0,1.49.5c.84.23,1,.63,1.07.78h0a.07.07,0,0,1,.07.08v.15s-2.4.12-3.36,0c0,0-.79-.57-.84,0h-2v-.6l.1,0a4.84,4.84,0,0,1,0-1.5l.08,0s0,.34.66.34,1.08,0,1.14-.15l0-.07A.51.51,0,0,1,63.44,116.84Z" transform="translate(0 -9.85)"/><path class="cls-34" d="M40.23,100.21a22.13,22.13,0,0,1,.64-4.32l5.49.64.36,1.3,10.67,2.44c.12,0,1.11.26,1.28.88l4.69,15.08-1.25.48-1.78-.48-4.16-10.74-.64-2s-10,.36-12.9-.22A3.32,3.32,0,0,1,40.23,100.21Z" transform="translate(0 -9.85)"/><polygon class="cls-56" points="46.36 86.63 46.55 87.39 40.67 86.86 40.87 86.04 46.36 86.63"/><path class="cls-28" d="M42.82,86.35a1,1,0,0,1,.6-.62,2.33,2.33,0,0,1,1,.13l5.36,2.9,6.42-.27c.43,0,.4,1,0,1.1L49,90.74,43.5,88.05A1.41,1.41,0,0,1,42.82,86.35Z" transform="translate(0 -9.85)"/><path class="cls-28" d="M55.71,89.57l1.22.61h1.31a14.21,14.21,0,0,0,1.82-.25c0-.26-1.74-.24-1.74-.24l-1-.83c.19,0,.28,0,.78.13.24,0,.43-.22.43-.22l-1.27-.39a3.46,3.46,0,0,0-1,0,1.18,1.18,0,0,0-.4.18Z" transform="translate(0 -9.85)"/><polygon class="cls-57" points="65.38 80.49 56.92 79.71 56.99 79.02 65.46 79.8 65.38 80.49"/><polygon class="cls-15" points="65.2 80.39 64.29 80.31 64.35 79.78 65.26 79.86 65.2 80.39"/><polygon class="cls-15" points="62.75 80.2 62.56 80.19 62.63 79.59 62.82 79.6 62.75 80.2"/><polygon class="cls-15" points="57.3 79.7 57.11 79.68 57.18 79.08 57.37 79.1 57.3 79.7"/><path class="cls-28" d="M57.66,89.85s1.08-.7,1.48-.56c.18.07-1.06.62-1.06.62Z" transform="translate(0 -9.85)"/><path class="cls-28" d="M57.79,89.71s.57-.67.87-.57c.14,0-.67.72-.67.72Z" transform="translate(0 -9.85)"/><path class="cls-58" d="M51,88.61l-1.41.06-5.17-3c-.31-.17-1,.11-1,.11a1,1,0,0,0-.6.62,1.78,1.78,0,0,0,.53,2s4,1.76,5.25,2.36a1.41,1.41,0,0,0,.83.13l1.84-.27Z" transform="translate(0 -9.85)"/><polygon class="cls-15" points="52.2 80.76 51.13 80.93 50.89 78.57 51.97 78.58 52.2 80.76"/><path class="cls-59" d="M46.79,86.83a4.27,4.27,0,0,1,.72,3c-.13,1.63-1.13,6.69-1.13,6.69l-5.49-.64.16-2.59,0-4.67A5.38,5.38,0,0,1,42.34,85a4.2,4.2,0,0,1,1.15-.92C44.06,83.76,45.76,85,46.79,86.83Z" transform="translate(0 -9.85)"/><polygon class="cls-4" points="43.35 74.29 46.02 75.9 46.32 74.83 43.64 73.39 43.35 74.29"/><polygon class="cls-15" points="43.35 74.29 46.02 75.9 46.09 74.54 43.64 73.39 43.35 74.29"/><path class="cls-28" d="M52.34,97.92l-2.17-.74h0a.18.18,0,0,0-.05-.07l-4.26-4.93s-1-4.32-1.28-5.81a1.1,1.1,0,0,0-.67-.9A1.21,1.21,0,0,0,42.31,87s1.48,6,1.48,6l5.41,4.7a1.75,1.75,0,0,0,.8.91l1.73.22,2.09.69.26-.09Z" transform="translate(0 -9.85)"/><path class="cls-60" d="M43.06,85.26a1.65,1.65,0,0,1,1.76,1.3c.41,1.46,1,5.62,1,5.62l1.23,1.29-1.45,1.31L43.7,93.06l-1.61-5.74C41.84,86.4,42.38,85.29,43.06,85.26Z" transform="translate(0 -9.85)"/><polygon class="cls-15" points="46.01 85.47 45.17 84.79 46.88 82.97 47.59 83.78 46.01 85.47"/></svg>