<svg id="Layer_1" data-name="Layer 1" xmlns="http://www.w3.org/2000/svg" viewBox="0 0 164.93 156.87"><defs><style>.cls-1{fill:#313131;}</style></defs><title>Logo</title><path class="cls-1" d="M66.63,154.92a29.86,29.86,0,0,0,21.5,0l48.7-18.72a13,13,0,0,0,2.69-22.81L118.86,99.2a4.48,4.48,0,0,0-4.15-.49L77.38,113.06,42.93,99.82V55.05L77.38,41.81l37.33,14.35a4.49,4.49,0,1,0,3.22-8.39h0L81.87,33.91V13a4,4,0,0,1,5.39-3.73l50.47,19.4a12.57,12.57,0,0,1,8,11.66V69.1a14.81,14.81,0,1,0,9,.07V40.31a21.59,21.59,0,0,0-13.77-20L90.49.91A13,13,0,0,0,73.71,8.43,12.84,12.84,0,0,0,72.86,13V33.91l-36,13.86A4.5,4.5,0,0,0,34,52v48.58L15.26,113.39A4,4,0,0,1,9,110.09V40.31a12.57,12.57,0,0,1,8-11.66l9.93-3.81a14.78,14.78,0,1,0-3.26-9.24v.85l-9.91,3.82A21.59,21.59,0,0,0,0,40.27v69.78a13,13,0,0,0,20.32,10.7L39,107.9,75.77,122A4.47,4.47,0,0,0,79,122l36.73-14.12,18.71,12.85a4,4,0,0,1-.83,7L84.9,146.48a21,21,0,0,1-15,0l-16.65-6.41v-.53a14.84,14.84,0,1,0-3.07,9ZM150.18,89A5.81,5.81,0,1,1,156,83.22h0A5.81,5.81,0,0,1,150.18,89ZM38.44,9.79A5.81,5.81,0,1,1,33,17.7h0a5.84,5.84,0,0,1,5.39-7.91Zm0,135.62a5.82,5.82,0,1,1,5.82-5.82,5.92,5.92,0,0,1-.29,1.82h0a5.82,5.82,0,0,1-5.53,4.05Z" transform="translate(0 -0.05)"/></svg>