<svg xmlns="http://www.w3.org/2000/svg" xmlns:xlink="http://www.w3.org/1999/xlink" viewBox="0 0 465.5 346.28"><defs><style>.cls-1{fill:none;}.cls-2{isolation:isolate;}.cls-3{fill:#929292;}.cls-14,.cls-3,.cls-56{mix-blend-mode:lighten;}.cls-4{fill:url(#_ÂÁ_Ï_ÌÌ_È_ËÂÌÚ_6);}.cls-5{fill:url(#_ÂÁ_Ï_ÌÌ_È_ËÂÌÚ_5);}.cls-18,.cls-6{fill:#fff;}.cls-10,.cls-11,.cls-12,.cls-13,.cls-56,.cls-59,.cls-6,.cls-60,.cls-61,.cls-62,.cls-63,.cls-64,.cls-67,.cls-68,.cls-69,.cls-70,.cls-71,.cls-72,.cls-75,.cls-76,.cls-77,.cls-78,.cls-79,.cls-8,.cls-80,.cls-9{opacity:0.5;}.cls-7{fill:#101010;}.cls-8{fill:url(#_ÂÁ_Ï_ÌÌ_È_ËÂÌÚ_2);}.cls-9{fill:url(#_ÂÁ_Ï_ÌÌ_È_ËÂÌÚ_2-2);}.cls-10{fill:url(#_ÂÁ_Ï_ÌÌ_È_ËÂÌÚ_2-3);}.cls-11{fill:url(#_ÂÁ_Ï_ÌÌ_È_ËÂÌÚ_2-4);}.cls-12{fill:url(#_ÂÁ_Ï_ÌÌ_È_ËÂÌÚ_2-5);}.cls-13{fill:url(#_ÂÁ_Ï_ÌÌ_È_ËÂÌÚ_2-6);}.cls-15,.cls-36,.cls-37{fill:#b5b5b5;}.cls-16{fill:url(#_ÂÁ_Ï_ÌÌ_È_ËÂÌÚ_8);}.cls-17{fill:url(#_ÂÁ_Ï_ÌÌ_È_ËÂÌÚ_5-2);}.cls-19{fill:#454545;}.cls-20{fill:#b7b7b7;}.cls-21{fill:#9d9d9d;}.cls-22{fill:#212121;}.cls-23{fill:url(#_ÂÁ_Ï_ÌÌ_È_ËÂÌÚ_5-3);}.cls-24{fill:url(#_ÂÁ_Ï_ÌÌ_È_ËÂÌÚ_5-4);}.cls-25{fill:url(#_ÂÁ_Ï_ÌÌ_È_ËÂÌÚ_8-2);}.cls-26,.cls-35{fill:#494949;}.cls-27{fill:url(#_ÂÁ_Ï_ÌÌ_È_ËÂÌÚ_8-3);}.cls-28{fill:url(#_ÂÁ_Ï_ÌÌ_È_ËÂÌÚ_5-5);}.cls-29{fill:url(#_ÂÁ_Ï_ÌÌ_È_ËÂÌÚ_5-6);}.cls-30{fill:url(#_ÂÁ_Ï_ÌÌ_È_ËÂÌÚ_5-7);}.cls-31{fill:url(#_ÂÁ_Ï_ÌÌ_È_ËÂÌÚ_8-4);}.cls-32{fill:#c5c5c5;}.cls-33{fill:url(#_ÂÁ_Ï_ÌÌ_È_ËÂÌÚ_5-8);}.cls-34,.cls-35{opacity:0.51;}.cls-36{opacity:0.1;}.cls-37{opacity:0.4;}.cls-38{fill:url(#_ÂÁ_Ï_ÌÌ_È_ËÂÌÚ_5-9);}.cls-39{fill:url(#_ÂÁ_Ï_ÌÌ_È_ËÂÌÚ_5-10);}.cls-40{fill:url(#_ÂÁ_Ï_ÌÌ_È_ËÂÌÚ_8-5);}.cls-41{fill:url(#_ÂÁ_Ï_ÌÌ_È_ËÂÌÚ_8-6);}.cls-42{fill:url(#_ÂÁ_Ï_ÌÌ_È_ËÂÌÚ_5-11);}.cls-43{fill:url(#_ÂÁ_Ï_ÌÌ_È_ËÂÌÚ_5-12);}.cls-44{opacity:0.11;}.cls-45{clip-path:url(#clip-path);}.cls-46{fill:url(#_ÂÁ_Ï_ÌÌ_È_ËÂÌÚ_5-13);}.cls-47{fill:url(#_ÂÁ_Ï_ÌÌ_È_ËÂÌÚ_5-14);}.cls-48{fill:url(#_ÂÁ_Ï_ÌÌ_È_ËÂÌÚ_5-15);}.cls-49{fill:url(#_ÂÁ_Ï_ÌÌ_È_ËÂÌÚ_8-7);}.cls-50{fill:url(#_ÂÁ_Ï_ÌÌ_È_ËÂÌÚ_8-8);}.cls-51{fill:url(#_ÂÁ_Ï_ÌÌ_È_ËÂÌÚ_5-16);}.cls-52{fill:url(#_ÂÁ_Ï_ÌÌ_È_ËÂÌÚ_5-17);}.cls-53{clip-path:url(#clip-path-2);}.cls-54{fill:url(#_ÂÁ_Ï_ÌÌ_È_ËÂÌÚ_5-18);}.cls-55{fill:url(#_ÂÁ_Ï_ÌÌ_È_ËÂÌÚ_5-19);}.cls-56{fill:url(#_ÂÁ_Ï_ÌÌ_È_ËÂÌÚ_7);}.cls-57{fill:url(#_ÂÁ_Ï_ÌÌ_È_ËÂÌÚ_6-2);}.cls-58{fill:url(#_ÂÁ_Ï_ÌÌ_È_ËÂÌÚ_5-20);}.cls-59{fill:url(#_ÂÁ_Ï_ÌÌ_È_ËÂÌÚ_2-7);}.cls-60{fill:url(#_ÂÁ_Ï_ÌÌ_È_ËÂÌÚ_2-8);}.cls-61{fill:url(#_ÂÁ_Ï_ÌÌ_È_ËÂÌÚ_2-9);}.cls-62{fill:url(#_ÂÁ_Ï_ÌÌ_È_ËÂÌÚ_2-10);}.cls-63{fill:url(#_ÂÁ_Ï_ÌÌ_È_ËÂÌÚ_2-11);}.cls-64{fill:url(#_ÂÁ_Ï_ÌÌ_È_ËÂÌÚ_2-12);}.cls-65{fill:url(#_ÂÁ_Ï_ÌÌ_È_ËÂÌÚ_6-3);}.cls-66{fill:url(#_ÂÁ_Ï_ÌÌ_È_ËÂÌÚ_5-21);}.cls-67{fill:url(#_ÂÁ_Ï_ÌÌ_È_ËÂÌÚ_2-13);}.cls-68{fill:url(#_ÂÁ_Ï_ÌÌ_È_ËÂÌÚ_2-14);}.cls-69{fill:url(#_ÂÁ_Ï_ÌÌ_È_ËÂÌÚ_2-15);}.cls-70{fill:url(#_ÂÁ_Ï_ÌÌ_È_ËÂÌÚ_2-16);}.cls-71{fill:url(#_ÂÁ_Ï_ÌÌ_È_ËÂÌÚ_2-17);}.cls-72{fill:url(#_ÂÁ_Ï_ÌÌ_È_ËÂÌÚ_2-18);}.cls-73{fill:url(#_ÂÁ_Ï_ÌÌ_È_ËÂÌÚ_6-4);}.cls-74{fill:url(#_ÂÁ_Ï_ÌÌ_È_ËÂÌÚ_5-22);}.cls-75{fill:url(#_ÂÁ_Ï_ÌÌ_È_ËÂÌÚ_2-19);}.cls-76{fill:url(#_ÂÁ_Ï_ÌÌ_È_ËÂÌÚ_2-20);}.cls-77{fill:url(#_ÂÁ_Ï_ÌÌ_È_ËÂÌÚ_2-21);}.cls-78{fill:url(#_ÂÁ_Ï_ÌÌ_È_ËÂÌÚ_2-22);}.cls-79{fill:url(#_ÂÁ_Ï_ÌÌ_È_ËÂÌÚ_2-23);}.cls-80{fill:url(#_ÂÁ_Ï_ÌÌ_È_ËÂÌÚ_2-24);}</style><linearGradient id="_ÂÁ_Ï_ÌÌ_È_ËÂÌÚ_6" x1="186.33" y1="108.28" x2="252.61" y2="108.28" gradientUnits="userSpaceOnUse"><stop offset="0.25" stop-color="#6b6b6b"/><stop offset="0.46" stop-color="gray"/><stop offset="0.89" stop-color="#b6b6b6"/><stop offset="1" stop-color="#c5c5c5"/></linearGradient><linearGradient id="_ÂÁ_Ï_ÌÌ_È_ËÂÌÚ_5" x1="186.33" y1="90.16" x2="279.34" y2="90.16" gradientUnits="userSpaceOnUse"><stop offset="0" stop-color="#c5c5c5"/><stop offset="0.31" stop-color="#cacaca"/><stop offset="0.68" stop-color="#d8d8d8"/><stop offset="1" stop-color="#ebebeb"/></linearGradient><linearGradient id="_ÂÁ_Ï_ÌÌ_È_ËÂÌÚ_2" x1="204.09" y1="90.16" x2="261.59" y2="90.16" gradientUnits="userSpaceOnUse"><stop offset="0" stop-color="#b5b5b5"/><stop offset="0.21" stop-color="#b0b0b0"/><stop offset="0.46" stop-color="#a2a2a2"/><stop offset="0.73" stop-color="#8a8a8a"/><stop offset="1" stop-color="#6b6b6b"/></linearGradient><linearGradient id="_ÂÁ_Ï_ÌÌ_È_ËÂÌÚ_2-2" x1="232.84" y1="70.25" x2="261.59" y2="70.25" xlink:href="#_ÂÁ_Ï_ÌÌ_È_ËÂÌÚ_2"/><linearGradient id="_ÂÁ_Ï_ÌÌ_È_ËÂÌÚ_2-3" x1="204.09" y1="70.25" x2="232.84" y2="70.25" xlink:href="#_ÂÁ_Ï_ÌÌ_È_ËÂÌÚ_2"/><linearGradient id="_ÂÁ_Ï_ÌÌ_È_ËÂÌÚ_2-4" x1="204.09" y1="66.94" x2="261.59" y2="66.94" xlink:href="#_ÂÁ_Ï_ÌÌ_È_ËÂÌÚ_2"/><linearGradient id="_ÂÁ_Ï_ÌÌ_È_ËÂÌÚ_2-5" x1="232.84" y1="86.85" x2="261.59" y2="86.85" xlink:href="#_ÂÁ_Ï_ÌÌ_È_ËÂÌÚ_2"/><linearGradient id="_ÂÁ_Ï_ÌÌ_È_ËÂÌÚ_2-6" x1="204.09" y1="86.85" x2="232.84" y2="86.85" xlink:href="#_ÂÁ_Ï_ÌÌ_È_ËÂÌÚ_2"/><linearGradient id="_ÂÁ_Ï_ÌÌ_È_ËÂÌÚ_8" x1="2865.63" y1="189.02" x2="3012.19" y2="189.02" gradientTransform="translate(-2743.73)" gradientUnits="userSpaceOnUse"><stop offset="0" stop-color="#6b6b6b"/><stop offset="0.19" stop-color="#707070"/><stop offset="0.41" stop-color="#7e7e7e"/><stop offset="0.66" stop-color="#969696"/><stop offset="0.91" stop-color="#b7b7b7"/><stop offset="1" stop-color="#c5c5c5"/></linearGradient><linearGradient id="_ÂÁ_Ï_ÌÌ_È_ËÂÌÚ_5-2" x1="2914.88" y1="184.13" x2="3061.52" y2="184.13" gradientTransform="translate(-2743.73)" xlink:href="#_ÂÁ_Ï_ÌÌ_È_ËÂÌÚ_5"/><linearGradient id="_ÂÁ_Ï_ÌÌ_È_ËÂÌÚ_5-3" x1="2905.36" y1="172.85" x2="2942.9" y2="172.85" gradientTransform="translate(-2743.73)" xlink:href="#_ÂÁ_Ï_ÌÌ_È_ËÂÌÚ_5"/><linearGradient id="_ÂÁ_Ï_ÌÌ_È_ËÂÌÚ_5-4" x1="2908.3" y1="166.08" x2="3012.07" y2="166.08" gradientTransform="translate(-2743.73)" xlink:href="#_ÂÁ_Ï_ÌÌ_È_ËÂÌÚ_5"/><linearGradient id="_ÂÁ_Ï_ÌÌ_È_ËÂÌÚ_8-2" x1="2908.3" y1="192.69" x2="2926.12" y2="192.69" xlink:href="#_ÂÁ_Ï_ÌÌ_È_ËÂÌÚ_8"/><linearGradient id="_ÂÁ_Ï_ÌÌ_È_ËÂÌÚ_8-3" x1="264.59" y1="189.02" x2="411.16" y2="189.02" gradientTransform="matrix(-1, 0, 0, 1, 751.4, 0)" xlink:href="#_ÂÁ_Ï_ÌÌ_È_ËÂÌÚ_8"/><linearGradient id="_ÂÁ_Ï_ÌÌ_È_ËÂÌÚ_5-5" x1="313.84" y1="184.13" x2="460.48" y2="184.13" gradientTransform="matrix(-1, 0, 0, 1, 751.4, 0)" xlink:href="#_ÂÁ_Ï_ÌÌ_È_ËÂÌÚ_5"/><linearGradient id="_ÂÁ_Ï_ÌÌ_È_ËÂÌÚ_5-6" x1="304.33" y1="172.85" x2="341.86" y2="172.85" gradientTransform="matrix(-1, 0, 0, 1, 751.4, 0)" xlink:href="#_ÂÁ_Ï_ÌÌ_È_ËÂÌÚ_5"/><linearGradient id="_ÂÁ_Ï_ÌÌ_È_ËÂÌÚ_5-7" x1="307.26" y1="166.08" x2="411.03" y2="166.08" gradientTransform="matrix(-1, 0, 0, 1, 751.4, 0)" xlink:href="#_ÂÁ_Ï_ÌÌ_È_ËÂÌÚ_5"/><linearGradient id="_ÂÁ_Ï_ÌÌ_È_ËÂÌÚ_8-4" x1="307.26" y1="192.69" x2="325.08" y2="192.69" gradientTransform="matrix(-1, 0, 0, 1, 751.4, 0)" xlink:href="#_ÂÁ_Ï_ÌÌ_È_ËÂÌÚ_8"/><linearGradient id="_ÂÁ_Ï_ÌÌ_È_ËÂÌÚ_5-8" x1="274.57" y1="224.72" x2="274.57" y2="167.56" xlink:href="#_ÂÁ_Ï_ÌÌ_È_ËÂÌÚ_5"/><linearGradient id="_ÂÁ_Ï_ÌÌ_È_ËÂÌÚ_5-9" x1="274.57" y1="177.33" x2="274.57" y2="120.17" xlink:href="#_ÂÁ_Ï_ÌÌ_È_ËÂÌÚ_5"/><linearGradient id="_ÂÁ_Ï_ÌÌ_È_ËÂÌÚ_5-10" x1="2602.18" y1="246.64" x2="2707.79" y2="246.64" gradientTransform="translate(-2278.69)" xlink:href="#_ÂÁ_Ï_ÌÌ_È_ËÂÌÚ_5"/><linearGradient id="_ÂÁ_Ï_ÌÌ_È_ËÂÌÚ_8-5" x1="2602.18" y1="273.72" x2="2620.32" y2="273.72" gradientTransform="translate(-2278.69)" xlink:href="#_ÂÁ_Ï_ÌÌ_È_ËÂÌÚ_8"/><linearGradient id="_ÂÁ_Ï_ÌÌ_È_ËÂÌÚ_8-6" x1="2616.33" y1="304.17" x2="2765.48" y2="304.17" gradientTransform="translate(-2278.69)" xlink:href="#_ÂÁ_Ï_ÌÌ_È_ËÂÌÚ_8"/><linearGradient id="_ÂÁ_Ï_ÌÌ_È_ËÂÌÚ_5-11" x1="2666.45" y1="299.19" x2="2815.68" y2="299.19" gradientTransform="translate(-2278.69)" xlink:href="#_ÂÁ_Ï_ÌÌ_È_ËÂÌÚ_5"/><linearGradient id="_ÂÁ_Ï_ÌÌ_È_ËÂÌÚ_5-12" x1="2691.72" y1="307.66" x2="2729.92" y2="307.66" gradientTransform="translate(-2278.69)" xlink:href="#_ÂÁ_Ï_ÌÌ_È_ËÂÌÚ_5"/><clipPath id="clip-path" transform="translate(-71.61 -40.52)"><polygon id="SVGID" class="cls-1" points="416.36 189.43 328.24 240.31 339.16 304.73 427.22 253.89 416.36 189.43"/></clipPath><linearGradient id="_ÂÁ_Ï_ÌÌ_È_ËÂÌÚ_5-13" x1="2609.43" y1="266.12" x2="2758.66" y2="266.12" gradientTransform="translate(-2278.69)" xlink:href="#_ÂÁ_Ï_ÌÌ_È_ËÂÌÚ_5"/><linearGradient id="_ÂÁ_Ï_ÌÌ_È_ËÂÌÚ_5-14" x1="2599.61" y1="255.16" x2="2637.81" y2="255.16" gradientTransform="translate(-2278.69)" xlink:href="#_ÂÁ_Ï_ÌÌ_È_ËÂÌÚ_5"/><linearGradient id="_ÂÁ_Ï_ÌÌ_È_ËÂÌÚ_5-15" x1="1.14" y1="246.64" x2="106.75" y2="246.64" gradientTransform="matrix(-1, 0, 0, 1, 286.37, 0)" xlink:href="#_ÂÁ_Ï_ÌÌ_È_ËÂÌÚ_5"/><linearGradient id="_ÂÁ_Ï_ÌÌ_È_ËÂÌÚ_8-7" x1="1.14" y1="273.72" x2="19.28" y2="273.72" gradientTransform="matrix(-1, 0, 0, 1, 286.37, 0)" xlink:href="#_ÂÁ_Ï_ÌÌ_È_ËÂÌÚ_8"/><linearGradient id="_ÂÁ_Ï_ÌÌ_È_ËÂÌÚ_8-8" x1="15.29" y1="304.17" x2="164.45" y2="304.17" gradientTransform="matrix(-1, 0, 0, 1, 286.37, 0)" xlink:href="#_ÂÁ_Ï_ÌÌ_È_ËÂÌÚ_8"/><linearGradient id="_ÂÁ_Ï_ÌÌ_È_ËÂÌÚ_5-16" x1="65.41" y1="299.19" x2="214.64" y2="299.19" gradientTransform="matrix(-1, 0, 0, 1, 286.37, 0)" xlink:href="#_ÂÁ_Ï_ÌÌ_È_ËÂÌÚ_5"/><linearGradient id="_ÂÁ_Ï_ÌÌ_È_ËÂÌÚ_5-17" x1="90.68" y1="307.66" x2="128.88" y2="307.66" gradientTransform="matrix(-1, 0, 0, 1, 286.37, 0)" xlink:href="#_ÂÁ_Ï_ÌÌ_È_ËÂÌÚ_5"/><clipPath id="clip-path-2" transform="translate(-71.61 -40.52)"><polygon id="SVGID-2" data-name="SVGID" class="cls-1" points="192.36 189.43 280.48 240.31 269.55 304.73 181.49 253.89 192.36 189.43"/></clipPath><linearGradient id="_ÂÁ_Ï_ÌÌ_È_ËÂÌÚ_5-18" x1="8.39" y1="266.12" x2="157.63" y2="266.12" gradientTransform="matrix(-1, 0, 0, 1, 286.37, 0)" xlink:href="#_ÂÁ_Ï_ÌÌ_È_ËÂÌÚ_5"/><linearGradient id="_ÂÁ_Ï_ÌÌ_È_ËÂÌÚ_5-19" x1="-1.43" y1="255.16" x2="36.77" y2="255.16" gradientTransform="matrix(-1, 0, 0, 1, 286.37, 0)" xlink:href="#_ÂÁ_Ï_ÌÌ_È_ËÂÌÚ_5"/><linearGradient id="_ÂÁ_Ï_ÌÌ_È_ËÂÌÚ_7" x1="232.75" y1="153.74" x2="232.75" gradientUnits="userSpaceOnUse"><stop offset="0" stop-color="#b5b5b5"/><stop offset="0.15" stop-color="#8f8f8f"/><stop offset="0.34" stop-color="#656565"/><stop offset="0.52" stop-color="#434343"/><stop offset="0.7" stop-color="#2b2b2b"/><stop offset="0.86" stop-color="#1d1d1d"/><stop offset="1" stop-color="#181818"/></linearGradient><linearGradient id="_ÂÁ_Ï_ÌÌ_È_ËÂÌÚ_6-2" x1="186.33" y1="315.16" x2="252.61" y2="315.16" xlink:href="#_ÂÁ_Ï_ÌÌ_È_ËÂÌÚ_6"/><linearGradient id="_ÂÁ_Ï_ÌÌ_È_ËÂÌÚ_5-20" x1="186.33" y1="297.05" x2="279.34" y2="297.05" xlink:href="#_ÂÁ_Ï_ÌÌ_È_ËÂÌÚ_5"/><linearGradient id="_ÂÁ_Ï_ÌÌ_È_ËÂÌÚ_2-7" x1="204.09" y1="297.05" x2="261.59" y2="297.05" xlink:href="#_ÂÁ_Ï_ÌÌ_È_ËÂÌÚ_2"/><linearGradient id="_ÂÁ_Ï_ÌÌ_È_ËÂÌÚ_2-8" x1="232.84" y1="277.14" x2="261.59" y2="277.14" xlink:href="#_ÂÁ_Ï_ÌÌ_È_ËÂÌÚ_2"/><linearGradient id="_ÂÁ_Ï_ÌÌ_È_ËÂÌÚ_2-9" x1="204.09" y1="277.14" x2="232.84" y2="277.14" xlink:href="#_ÂÁ_Ï_ÌÌ_È_ËÂÌÚ_2"/><linearGradient id="_ÂÁ_Ï_ÌÌ_È_ËÂÌÚ_2-10" x1="204.09" y1="273.83" x2="261.59" y2="273.83" xlink:href="#_ÂÁ_Ï_ÌÌ_È_ËÂÌÚ_2"/><linearGradient id="_ÂÁ_Ï_ÌÌ_È_ËÂÌÚ_2-11" x1="232.84" y1="293.74" x2="261.59" y2="293.74" xlink:href="#_ÂÁ_Ï_ÌÌ_È_ËÂÌÚ_2"/><linearGradient id="_ÂÁ_Ï_ÌÌ_È_ËÂÌÚ_2-12" x1="204.09" y1="293.74" x2="232.84" y2="293.74" xlink:href="#_ÂÁ_Ï_ÌÌ_È_ËÂÌÚ_2"/><linearGradient id="_ÂÁ_Ï_ÌÌ_È_ËÂÌÚ_6-3" x1="368.68" y1="212.89" x2="434.96" y2="212.89" xlink:href="#_ÂÁ_Ï_ÌÌ_È_ËÂÌÚ_6"/><linearGradient id="_ÂÁ_Ï_ÌÌ_È_ËÂÌÚ_5-21" x1="368.68" y1="194.78" x2="461.69" y2="194.78" xlink:href="#_ÂÁ_Ï_ÌÌ_È_ËÂÌÚ_5"/><linearGradient id="_ÂÁ_Ï_ÌÌ_È_ËÂÌÚ_2-13" x1="386.44" y1="194.78" x2="443.93" y2="194.78" xlink:href="#_ÂÁ_Ï_ÌÌ_È_ËÂÌÚ_2"/><linearGradient id="_ÂÁ_Ï_ÌÌ_È_ËÂÌÚ_2-14" x1="415.19" y1="174.87" x2="443.93" y2="174.87" xlink:href="#_ÂÁ_Ï_ÌÌ_È_ËÂÌÚ_2"/><linearGradient id="_ÂÁ_Ï_ÌÌ_È_ËÂÌÚ_2-15" x1="386.44" y1="174.87" x2="415.19" y2="174.87" xlink:href="#_ÂÁ_Ï_ÌÌ_È_ËÂÌÚ_2"/><linearGradient id="_ÂÁ_Ï_ÌÌ_È_ËÂÌÚ_2-16" x1="386.44" y1="171.56" x2="443.93" y2="171.56" xlink:href="#_ÂÁ_Ï_ÌÌ_È_ËÂÌÚ_2"/><linearGradient id="_ÂÁ_Ï_ÌÌ_È_ËÂÌÚ_2-17" x1="415.19" y1="191.47" x2="443.93" y2="191.47" xlink:href="#_ÂÁ_Ï_ÌÌ_È_ËÂÌÚ_2"/><linearGradient id="_ÂÁ_Ï_ÌÌ_È_ËÂÌÚ_2-18" x1="386.44" y1="191.47" x2="415.19" y2="191.47" xlink:href="#_ÂÁ_Ï_ÌÌ_È_ËÂÌÚ_2"/><linearGradient id="_ÂÁ_Ï_ÌÌ_È_ËÂÌÚ_6-4" x1="3.81" y1="212.89" x2="70.08" y2="212.89" xlink:href="#_ÂÁ_Ï_ÌÌ_È_ËÂÌÚ_6"/><linearGradient id="_ÂÁ_Ï_ÌÌ_È_ËÂÌÚ_5-22" x1="3.81" y1="194.78" x2="96.82" y2="194.78" xlink:href="#_ÂÁ_Ï_ÌÌ_È_ËÂÌÚ_5"/><linearGradient id="_ÂÁ_Ï_ÌÌ_È_ËÂÌÚ_2-19" x1="21.56" y1="194.78" x2="79.06" y2="194.78" xlink:href="#_ÂÁ_Ï_ÌÌ_È_ËÂÌÚ_2"/><linearGradient id="_ÂÁ_Ï_ÌÌ_È_ËÂÌÚ_2-20" x1="50.31" y1="174.87" x2="79.06" y2="174.87" xlink:href="#_ÂÁ_Ï_ÌÌ_È_ËÂÌÚ_2"/><linearGradient id="_ÂÁ_Ï_ÌÌ_È_ËÂÌÚ_2-21" x1="21.56" y1="174.87" x2="50.31" y2="174.87" xlink:href="#_ÂÁ_Ï_ÌÌ_È_ËÂÌÚ_2"/><linearGradient id="_ÂÁ_Ï_ÌÌ_È_ËÂÌÚ_2-22" x1="21.56" y1="171.56" x2="79.06" y2="171.56" xlink:href="#_ÂÁ_Ï_ÌÌ_È_ËÂÌÚ_2"/><linearGradient id="_ÂÁ_Ï_ÌÌ_È_ËÂÌÚ_2-23" x1="50.31" y1="191.47" x2="79.06" y2="191.47" xlink:href="#_ÂÁ_Ï_ÌÌ_È_ËÂÌÚ_2"/><linearGradient id="_ÂÁ_Ï_ÌÌ_È_ËÂÌÚ_2-24" x1="21.56" y1="191.47" x2="50.31" y2="191.47" xlink:href="#_ÂÁ_Ï_ÌÌ_È_ËÂÌÚ_2"/></defs><g class="cls-2"><g id="_ÎÓÈ_1" data-name="—ÎÓÈ_1"><path class="cls-3" d="M304.44,179.91l-50.31-29,50.31-29.05,50.32,29.05Zm-48.89-29,48.89,28.23,48.89-28.23-48.89-28.22Z" transform="translate(-71.61 -40.52)"/><polygon class="cls-4" points="279.34 99.54 279.34 90.16 232.84 115.82 186.33 90.16 186.33 99.54 232.84 126.39 279.34 99.54"/><polygon class="cls-5" points="232.84 117.01 186.33 90.16 232.84 63.31 279.34 90.16 232.84 117.01"/><polygon class="cls-6" points="232.84 116.23 187 89.77 186.33 90.16 232.84 117.01 279.34 90.16 278.67 89.77 232.84 116.23"/><polygon class="cls-7" points="232.84 106.76 204.09 90.16 232.84 73.56 261.58 90.16 232.84 106.76"/><polygon class="cls-8" points="232.84 106.76 204.09 90.16 232.84 73.56 261.58 90.16 232.84 106.76"/><polygon class="cls-9" points="232.84 50.34 261.58 66.94 261.58 90.16 232.84 73.56 232.84 50.34"/><polygon class="cls-10" points="232.84 73.56 204.09 90.16 204.09 66.94 232.84 50.34 232.84 73.56"/><polygon class="cls-11" points="232.84 83.54 204.09 66.94 232.84 50.34 261.58 66.94 232.84 83.54"/><polygon class="cls-12" points="232.84 83.54 232.84 106.76 261.58 90.16 261.58 66.94 232.84 83.54"/><polygon class="cls-13" points="204.09 66.94 204.09 90.16 232.84 106.76 232.84 83.54 204.09 66.94"/><g class="cls-14"><path class="cls-15" d="M177.67,238.68a8.08,8.08,0,0,1-4-1.08l-46.7-27a2.34,2.34,0,0,1,0-4.06l84.5-48.79a.49.49,0,0,1,.47,0L262.41,187a2.35,2.35,0,0,1,0,4.07L181.73,237.6A8.12,8.12,0,0,1,177.67,238.68Zm34-80-84.27,48.65a1.41,1.41,0,0,0,0,2.44l46.71,27a7.32,7.32,0,0,0,7.17,0l80.68-46.59a1.39,1.39,0,0,0,.7-1.22,1.41,1.41,0,0,0-.7-1.22Z" transform="translate(-71.61 -40.52)"/></g><path class="cls-16" d="M268.46,173.85l-4.9,2.56L214.41,148a3.58,3.58,0,0,0-3.21.14l-84.79,49c-.81-.46-4.51-2.24-4.51-2.24l1.8,4.68h0a1.05,1.05,0,0,0,.5.56L176,230a3.61,3.61,0,0,0,3.21-.13L266,179.78a1.57,1.57,0,0,0,.73-.78h0Z" transform="translate(-71.61 -40.52)"/><path class="cls-17" d="M267.71,174.66,178.79,226a3.65,3.65,0,0,1-3.29.13L122.44,195.5c-.84-.49-.74-1.34.24-1.9l88.91-51.34a3.65,3.65,0,0,1,3.29-.13l53.06,30.63C268.79,173.25,268.68,174.1,267.71,174.66Z" transform="translate(-71.61 -40.52)"/><path class="cls-18" d="M267.71,174.15l-88.92,51.33a3.65,3.65,0,0,1-3.29.14L122.44,195a1.08,1.08,0,0,1-.51-.58.89.89,0,0,0,.51,1.09l53.06,30.63a3.65,3.65,0,0,0,3.29-.13l88.92-51.34c.65-.38.9-.89.75-1.33A1.6,1.6,0,0,1,267.71,174.15Z" transform="translate(-71.61 -40.52)"/><path class="cls-19" d="M152,214.89v-1c0-.1.06-.14.13-.1l3.44,2a.31.31,0,0,1,.12.24v1c0,.09-.06.14-.12.1l-3.44-2A.31.31,0,0,1,152,214.89Z" transform="translate(-71.61 -40.52)"/><path class="cls-19" d="M157.11,217.86v-1c0-.09.06-.13.13-.09l3.44,2a.28.28,0,0,1,.12.24v1c0,.09-.05.14-.12.1l-3.44-2A.31.31,0,0,1,157.11,217.86Z" transform="translate(-71.61 -40.52)"/><path class="cls-20" d="M152.36,202.46l73.89-42.66a1.61,1.61,0,0,1,1.59,0L254.15,175a.56.56,0,0,1,0,1l-73.86,42.64a1.61,1.61,0,0,1-1.59,0l-26.34-15.21A.56.56,0,0,1,152.36,202.46Z" transform="translate(-71.61 -40.52)"/><path class="cls-21" d="M152.36,203.44l.26.16,73.63-42.51a1.61,1.61,0,0,1,1.59,0l26,15.07.26-.15a.56.56,0,0,0,0-1L227.84,159.8a1.61,1.61,0,0,0-1.59,0l-73.89,42.66A.56.56,0,0,0,152.36,203.44Z" transform="translate(-71.61 -40.52)"/><polygon class="cls-22" points="158.22 123.14 90.16 162.44 86.78 161.09 155.36 121.49 158.22 123.14"/><polygon class="cls-22" points="165.21 127.18 105.01 161.94 102.16 160.29 162.36 125.53 165.21 127.18"/><polygon class="cls-22" points="169.77 129.81 98.89 170.74 96.04 169.09 166.92 128.16 169.77 129.81"/><polygon class="cls-22" points="174.33 132.44 103.45 173.37 100.59 171.72 171.47 130.79 174.33 132.44"/><polygon class="cls-22" points="178.88 135.07 108 176 105.15 174.35 176.03 133.43 178.88 135.07"/><polygon class="cls-22" points="90.16 162.44 87.3 164.09 84.45 162.44 87.3 160.79 90.16 162.44"/><polygon class="cls-22" points="108.47 159.94 94.3 168.12 91.44 166.48 105.72 158.23 108.47 159.94"/><path class="cls-23" d="M178.66,183.34l19.93-11.5a.86.86,0,0,0,0-1.63L185,162.35a3.11,3.11,0,0,0-2.82,0l-19.92,11.5a.86.86,0,0,0,0,1.63l13.62,7.86A3.11,3.11,0,0,0,178.66,183.34Z" transform="translate(-71.61 -40.52)"/><path class="cls-21" d="M162.22,174.52,182.14,163a3.11,3.11,0,0,1,2.82,0l13.63,7.87a1.26,1.26,0,0,1,.49.48c.2-.39,0-.84-.49-1.15L185,162.35a3.11,3.11,0,0,0-2.82,0l-19.92,11.5c-.54.31-.7.75-.49,1.15A1.19,1.19,0,0,1,162.22,174.52Z" transform="translate(-71.61 -40.52)"/><path class="cls-24" d="M268.32,172.54l-11.24-66.69.91-.38-1.36-.78h0a1,1,0,0,0-1,.07l-89.83,51.86a2.56,2.56,0,0,0-1.16,2.29l11.33,67.21a.87.87,0,0,0,.47.69h0l1.33.76.23-1.24-.08,0,89.29-51.55A2.55,2.55,0,0,0,268.32,172.54Z" transform="translate(-71.61 -40.52)"/><path class="cls-25" d="M166.26,158.46l-1.48-.66a2,2,0,0,0-.19,1.12l11.33,67.21a.87.87,0,0,0,.47.69h0l1.33.76.23-1.24-.08,0,4.52-2.61Z" transform="translate(-71.61 -40.52)"/><path class="cls-26" d="M268.57,175.63l-89.83,51.86c-.7.4-1.29.17-1.41-.55L166,159.73a2.56,2.56,0,0,1,1.16-2.29L257,105.58c.7-.4,1.29-.17,1.41.55l11.33,67.21A2.56,2.56,0,0,1,268.57,175.63Z" transform="translate(-71.61 -40.52)"/><g class="cls-14"><path class="cls-15" d="M431,238.68A8.12,8.12,0,0,1,427,237.6h0L346.31,191a2.34,2.34,0,0,1,0-4.07l50.52-29.17a.49.49,0,0,1,.47,0l84.5,48.79a2.35,2.35,0,0,1,0,4.06l-46.7,27A8.12,8.12,0,0,1,431,238.68Zm-3.59-1.89a7.34,7.34,0,0,0,7.18,0l46.7-27a1.41,1.41,0,0,0,0-2.44l-84.27-48.65-.16.09-50.13,28.94a1.41,1.41,0,0,0-.7,1.22,1.39,1.39,0,0,0,.7,1.22Z" transform="translate(-71.61 -40.52)"/></g><path class="cls-27" d="M340.25,173.85l4.9,2.56L394.31,148a3.58,3.58,0,0,1,3.21.14l84.78,49c.81-.46,4.51-2.24,4.51-2.24L485,199.56h0a1.15,1.15,0,0,1-.5.56L432.73,230a3.59,3.59,0,0,1-3.2-.13l-86.76-50.09A1.57,1.57,0,0,1,342,179h0Z" transform="translate(-71.61 -40.52)"/><path class="cls-28" d="M341,174.66,429.92,226a3.65,3.65,0,0,0,3.29.13l53.06-30.63c.84-.49.74-1.34-.23-1.9l-88.92-51.34a3.65,3.65,0,0,0-3.29-.13l-53.06,30.63C339.93,173.25,340,174.1,341,174.66Z" transform="translate(-71.61 -40.52)"/><path class="cls-18" d="M341,174.15l88.91,51.33a3.66,3.66,0,0,0,3.29.14L486.27,195a1.1,1.1,0,0,0,.52-.58.9.9,0,0,1-.52,1.09l-53.06,30.63a3.65,3.65,0,0,1-3.29-.13L341,174.66c-.66-.38-.91-.89-.75-1.33A1.56,1.56,0,0,0,341,174.15Z" transform="translate(-71.61 -40.52)"/><path class="cls-19" d="M456.74,214.89v-1c0-.1-.05-.14-.12-.1l-3.44,2a.29.29,0,0,0-.13.24v1c0,.09.06.14.13.1l3.44-2A.3.3,0,0,0,456.74,214.89Z" transform="translate(-71.61 -40.52)"/><path class="cls-19" d="M451.6,217.86v-1c0-.09-.06-.13-.13-.09l-3.43,2a.29.29,0,0,0-.13.24v1c0,.09.06.14.13.1l3.43-2A.31.31,0,0,0,451.6,217.86Z" transform="translate(-71.61 -40.52)"/><path class="cls-20" d="M456.36,202.46,382.47,159.8a1.61,1.61,0,0,0-1.59,0L354.56,175a.57.57,0,0,0,0,1l73.86,42.64a1.61,1.61,0,0,0,1.59,0l26.35-15.21A.56.56,0,0,0,456.36,202.46Z" transform="translate(-71.61 -40.52)"/><path class="cls-21" d="M456.36,203.44l-.27.16-73.62-42.51a1.61,1.61,0,0,0-1.59,0l-26.05,15.07-.27-.15a.57.57,0,0,1,0-1l26.32-15.23a1.61,1.61,0,0,1,1.59,0l73.89,42.66A.56.56,0,0,1,456.36,203.44Z" transform="translate(-71.61 -40.52)"/><polygon class="cls-22" points="307.28 123.14 375.35 162.44 378.72 161.09 310.14 121.49 307.28 123.14"/><polygon class="cls-22" points="300.29 127.18 360.49 161.94 363.34 160.29 303.14 125.53 300.29 127.18"/><polygon class="cls-22" points="295.73 129.81 366.61 170.74 369.46 169.09 298.58 128.16 295.73 129.81"/><polygon class="cls-22" points="291.17 132.44 362.05 173.37 364.91 171.72 294.03 130.79 291.17 132.44"/><polygon class="cls-22" points="286.62 135.07 357.5 176 360.35 174.35 289.47 133.43 286.62 135.07"/><polygon class="cls-22" points="375.35 162.44 378.2 164.09 381.05 162.44 378.2 160.79 375.35 162.44"/><polygon class="cls-22" points="357.03 159.94 371.2 168.12 374.06 166.48 359.78 158.23 357.03 159.94"/><path class="cls-29" d="M430.05,183.34l-19.92-11.5a.86.86,0,0,1,0-1.63l13.62-7.86a3.11,3.11,0,0,1,2.82,0l19.93,11.5a.86.86,0,0,1,0,1.63l-13.63,7.86A3.11,3.11,0,0,1,430.05,183.34Z" transform="translate(-71.61 -40.52)"/><path class="cls-21" d="M446.5,174.52,426.57,163a3.11,3.11,0,0,0-2.82,0l-13.62,7.87a1.19,1.19,0,0,0-.49.48c-.21-.39-.05-.84.49-1.15l13.62-7.86a3.11,3.11,0,0,1,2.82,0l19.93,11.5c.53.31.69.75.48,1.15A1.16,1.16,0,0,0,446.5,174.52Z" transform="translate(-71.61 -40.52)"/><path class="cls-30" d="M340.39,172.54l11.24-66.69-.9-.38,1.35-.78h0a1,1,0,0,1,1.05.07L443,156.63a2.57,2.57,0,0,1,1.17,2.29L432.8,226.13a.88.88,0,0,1-.48.69h0l-1.32.76-.23-1.24.07,0-89.28-51.55A2.54,2.54,0,0,1,340.39,172.54Z" transform="translate(-71.61 -40.52)"/><path class="cls-31" d="M442.46,158.46l1.48-.66a2.18,2.18,0,0,1,.19,1.12L432.8,226.13a.88.88,0,0,1-.48.69h0l-1.32.76-.23-1.24.07,0-4.52-2.61Z" transform="translate(-71.61 -40.52)"/><path class="cls-26" d="M340.15,175.63,430,227.49c.69.4,1.28.17,1.41-.55l11.33-67.21a2.54,2.54,0,0,0-1.17-2.29l-89.83-51.86c-.69-.4-1.29-.17-1.41.55L339,173.34A2.54,2.54,0,0,0,340.15,175.63Z" transform="translate(-71.61 -40.52)"/><polygon class="cls-32" points="232.75 214.25 149.11 165.96 232.75 117.67 316.39 165.96 232.75 214.25"/><polygon class="cls-26" points="232.75 201.06 171.95 165.96 232.75 130.85 293.55 165.96 232.75 201.06"/><polygon class="cls-18" points="232.75 133.23 291.49 167.15 293.55 165.96 232.75 130.85 171.95 165.96 174.01 167.15 232.75 133.23"/><polygon class="cls-33" points="316.39 165.96 316.39 193.33 232.75 241.62 232.75 214.25 316.39 165.96"/><polygon class="cls-22" points="149.11 165.96 149.11 193.33 232.75 241.62 232.75 214.25 149.11 165.96"/><g class="cls-34"><polygon class="cls-26" points="154.77 178.25 154.77 186.87 227.09 228.62 227.09 220 154.77 178.25"/></g><polygon class="cls-18" points="232.75 212.68 150.47 165.17 149.11 165.96 232.75 214.25 316.39 165.96 315.03 165.17 232.75 212.68"/><polygon class="cls-26" points="303.85 185.14 303.85 190.04 245.3 223.84 245.3 218.94 303.85 185.14"/><polygon class="cls-35" points="149.11 165.96 149.11 193.33 232.75 241.62 232.75 214.25 149.11 165.96"/><polygon class="cls-15" points="208.33 212.79 193.19 204.05 193.19 205.85 208.33 214.6 208.33 212.79"/><polygon class="cls-15" points="191 202.81 186.9 200.44 186.9 202.24 191 204.61 191 202.81"/><polygon class="cls-15" points="171.78 191.71 163.38 186.86 163.38 188.67 171.78 193.51 171.78 191.71"/><polygon class="cls-15" points="179.44 196.13 173.37 192.63 173.37 194.43 179.44 197.94 179.44 196.13"/><polygon class="cls-15" points="185.13 199.42 181.03 197.05 181.03 198.86 185.13 201.23 185.13 199.42"/><polygon class="cls-15" points="232.84 142.91 230.18 141.37 232.84 139.84 235.49 141.37 232.84 142.91"/><polygon class="cls-36" points="238.15 145.97 235.49 144.44 238.15 142.91 240.8 144.44 238.15 145.97"/><polygon class="cls-37" points="243.46 149.04 240.8 147.51 243.46 145.97 246.12 147.51 243.46 149.04"/><polygon class="cls-15" points="248.77 152.11 246.12 150.57 248.77 149.04 251.43 150.57 248.77 152.11"/><polygon class="cls-37" points="254.08 155.17 251.43 153.64 254.08 152.11 256.74 153.64 254.08 155.17"/><polygon class="cls-15" points="259.4 158.24 256.74 156.71 259.4 155.17 262.05 156.71 259.4 158.24"/><polygon class="cls-15" points="264.71 161.31 262.05 159.77 264.71 158.24 267.36 159.77 264.71 161.31"/><polygon class="cls-15" points="270.02 164.37 267.36 162.84 270.02 161.31 272.68 162.84 270.02 164.37"/><polygon class="cls-36" points="275.33 167.44 272.68 165.91 275.33 164.37 277.99 165.91 275.33 167.44"/><polygon class="cls-15" points="227.5 145.99 224.85 144.45 227.5 142.92 230.16 144.45 227.5 145.99"/><polygon class="cls-15" points="232.81 149.05 230.16 147.52 232.81 145.99 235.47 147.52 232.81 149.05"/><polygon class="cls-15" points="238.13 152.12 235.47 150.59 238.13 149.05 240.78 150.59 238.13 152.12"/><polygon class="cls-15" points="243.44 155.19 240.78 153.65 243.44 152.12 246.09 153.65 243.44 155.19"/><polygon class="cls-15" points="248.75 158.25 246.09 156.72 248.75 155.19 251.41 156.72 248.75 158.25"/><polygon class="cls-15" points="254.06 161.32 251.41 159.78 254.06 158.25 256.72 159.79 254.06 161.32"/><polygon class="cls-15" points="259.38 164.39 256.72 162.85 259.37 161.32 262.03 162.85 259.38 164.39"/><polygon class="cls-15" points="264.69 167.45 262.03 165.92 264.69 164.39 267.34 165.92 264.69 167.45"/><polygon class="cls-15" points="270 170.52 267.34 168.99 270 167.45 272.65 168.99 270 170.52"/><polygon class="cls-15" points="222.17 149.06 219.51 147.53 222.17 146 224.82 147.53 222.17 149.06"/><polygon class="cls-15" points="227.48 152.13 224.82 150.6 227.48 149.06 230.14 150.6 227.48 152.13"/><polygon class="cls-15" points="232.79 155.2 230.14 153.66 232.79 152.13 235.45 153.66 232.79 155.2"/><polygon class="cls-36" points="238.1 158.26 235.45 156.73 238.1 155.2 240.76 156.73 238.1 158.26"/><polygon class="cls-37" points="243.42 161.33 240.76 159.8 243.42 158.26 246.07 159.8 243.42 161.33"/><polygon class="cls-37" points="248.73 164.4 246.07 162.87 248.73 161.33 251.38 162.87 248.73 164.4"/><polygon class="cls-15" points="254.04 167.47 251.38 165.93 254.04 164.4 256.7 165.93 254.04 167.47"/><polygon class="cls-15" points="259.35 170.53 256.7 169 259.35 167.47 262.01 169 259.35 170.53"/><polygon class="cls-15" points="264.67 173.6 262.01 172.06 264.67 170.53 267.32 172.06 264.67 173.6"/><polygon class="cls-37" points="216.84 152.14 214.18 150.61 216.84 149.08 219.49 150.61 216.84 152.14"/><polygon class="cls-37" points="222.15 155.21 219.49 153.68 222.15 152.14 224.8 153.68 222.15 155.21"/><polygon class="cls-36" points="227.46 158.28 224.8 156.74 227.46 155.21 230.12 156.74 227.46 158.28"/><polygon class="cls-15" points="232.77 161.34 230.12 159.81 232.77 158.28 235.43 159.81 232.77 161.34"/><polygon class="cls-15" points="238.08 164.41 235.43 162.88 238.08 161.34 240.74 162.88 238.08 164.41"/><polygon class="cls-15" points="243.4 167.48 240.74 165.94 243.4 164.41 246.05 165.94 243.4 167.48"/><polygon class="cls-37" points="248.71 170.54 246.05 169.01 248.71 167.48 251.36 169.01 248.71 170.54"/><polygon class="cls-15" points="254.02 173.61 251.36 172.08 254.02 170.54 256.68 172.08 254.02 173.61"/><polygon class="cls-15" points="259.33 176.68 256.68 175.15 259.33 173.61 261.99 175.15 259.33 176.68"/><polygon class="cls-15" points="211.5 155.22 208.85 153.69 211.5 152.16 214.16 153.69 211.5 155.22"/><polygon class="cls-15" points="216.81 158.29 214.16 156.76 216.81 155.22 219.47 156.76 216.81 158.29"/><polygon class="cls-15" points="222.13 161.36 219.47 159.82 222.13 158.29 224.78 159.82 222.13 161.36"/><polygon class="cls-15" points="227.44 164.42 224.78 162.89 227.44 161.36 230.09 162.89 227.44 164.42"/><polygon class="cls-15" points="232.75 167.49 230.09 165.96 232.75 164.42 235.41 165.96 232.75 167.49"/><polygon class="cls-15" points="238.06 170.56 235.41 169.02 238.06 167.49 240.72 169.02 238.06 170.56"/><polygon class="cls-15" points="243.37 173.62 240.72 172.09 243.37 170.56 246.03 172.09 243.37 173.62"/><polygon class="cls-15" points="248.69 176.69 246.03 175.16 248.69 173.62 251.34 175.16 248.69 176.69"/><polygon class="cls-15" points="254 179.76 251.34 178.22 254 176.69 256.65 178.22 254 179.76"/><polygon class="cls-15" points="206.17 158.3 203.51 156.77 206.17 155.24 208.82 156.77 206.17 158.3"/><polygon class="cls-15" points="211.48 161.37 208.82 159.84 211.48 158.3 214.14 159.84 211.48 161.37"/><polygon class="cls-37" points="216.79 164.44 214.14 162.9 216.79 161.37 219.45 162.9 216.79 164.44"/><polygon class="cls-15" points="222.1 167.5 219.45 165.97 222.1 164.44 224.76 165.97 222.1 167.5"/><polygon class="cls-36" points="227.42 170.57 224.76 169.04 227.42 167.5 230.07 169.04 227.42 170.57"/><polygon class="cls-15" points="232.73 173.64 230.07 172.1 232.73 170.57 235.38 172.1 232.73 173.64"/><polygon class="cls-15" points="238.04 176.7 235.38 175.17 238.04 173.64 240.7 175.17 238.04 176.7"/><polygon class="cls-15" points="243.35 179.77 240.7 178.24 243.35 176.7 246.01 178.24 243.35 179.77"/><polygon class="cls-15" points="248.66 182.84 246.01 181.3 248.66 179.77 251.32 181.3 248.66 182.84"/><polygon class="cls-15" points="200.84 161.38 198.18 159.85 200.84 158.31 203.49 159.85 200.84 161.38"/><polygon class="cls-15" points="206.15 164.45 203.49 162.91 206.15 161.38 208.8 162.91 206.15 164.45"/><polygon class="cls-37" points="211.46 167.51 208.8 165.98 211.46 164.45 214.12 165.98 211.46 167.51"/><polygon class="cls-15" points="216.77 170.58 214.12 169.05 216.77 167.51 219.43 169.05 216.77 170.58"/><polygon class="cls-15" points="222.08 173.65 219.43 172.12 222.08 170.58 224.74 172.12 222.08 173.65"/><polygon class="cls-36" points="227.4 176.72 224.74 175.18 227.4 173.65 230.05 175.18 227.4 176.72"/><polygon class="cls-37" points="232.71 179.78 230.05 178.25 232.71 176.72 235.36 178.25 232.71 179.78"/><polygon class="cls-15" points="238.02 182.85 235.36 181.32 238.02 179.78 240.68 181.32 238.02 182.85"/><polygon class="cls-36" points="243.33 185.92 240.68 184.38 243.33 182.85 245.99 184.38 243.33 185.92"/><polygon class="cls-15" points="195.5 164.46 192.85 162.93 195.5 161.39 198.16 162.93 195.5 164.46"/><polygon class="cls-37" points="200.81 167.53 198.16 165.99 200.81 164.46 203.47 165.99 200.81 167.53"/><polygon class="cls-15" points="206.13 170.59 203.47 169.06 206.13 167.53 208.78 169.06 206.13 170.59"/><polygon class="cls-15" points="211.44 173.66 208.78 172.13 211.44 170.59 214.09 172.13 211.44 173.66"/><polygon class="cls-15" points="216.75 176.73 214.09 175.19 216.75 173.66 219.41 175.19 216.75 176.73"/><polygon class="cls-15" points="222.06 179.79 219.41 178.26 222.06 176.73 224.72 178.26 222.06 179.79"/><polygon class="cls-15" points="227.37 182.86 224.72 181.33 227.37 179.79 230.03 181.33 227.37 182.86"/><polygon class="cls-37" points="232.69 185.93 230.03 184.4 232.69 182.86 235.34 184.4 232.69 185.93"/><polygon class="cls-15" points="238 189 235.34 187.46 238 185.93 240.65 187.46 238 189"/><polygon class="cls-15" points="190.17 167.54 187.51 166.01 190.17 164.47 192.82 166.01 190.17 167.54"/><polygon class="cls-36" points="195.48 170.61 192.82 169.07 195.48 167.54 198.14 169.07 195.48 170.61"/><polygon class="cls-15" points="200.79 173.67 198.14 172.14 200.79 170.61 203.45 172.14 200.79 173.67"/><polygon class="cls-15" points="206.1 176.74 203.45 175.21 206.1 173.67 208.76 175.21 206.1 176.74"/><polygon class="cls-15" points="211.42 179.81 208.76 178.27 211.42 176.74 214.07 178.27 211.42 179.81"/><polygon class="cls-15" points="216.73 182.87 214.07 181.34 216.73 179.81 219.38 181.34 216.73 182.87"/><polygon class="cls-37" points="222.04 185.94 219.38 184.41 222.04 182.87 224.7 184.41 222.04 185.94"/><polygon class="cls-15" points="227.35 189.01 224.7 187.47 227.35 185.94 230.01 187.47 227.35 189.01"/><polygon class="cls-15" points="232.66 192.07 230.01 190.54 232.66 189.01 235.32 190.54 232.66 192.07"/><polygon class="cls-32" points="232.75 166.85 149.11 118.56 232.75 70.27 316.39 118.56 232.75 166.85"/><polygon class="cls-26" points="232.75 153.67 171.95 118.56 232.75 83.46 293.55 118.56 232.75 153.67"/><polygon class="cls-18" points="232.75 85.83 291.49 119.75 293.55 118.56 232.75 83.46 171.95 118.56 174.01 119.75 232.75 85.83"/><polygon class="cls-38" points="316.39 118.56 316.39 145.94 232.75 194.23 232.75 166.85 316.39 118.56"/><polygon class="cls-22" points="149.11 118.56 149.11 145.93 232.75 194.23 232.75 166.85 149.11 118.56"/><g class="cls-34"><polygon class="cls-26" points="154.77 130.86 154.77 139.48 227.09 181.23 227.09 172.61 154.77 130.86"/></g><polygon class="cls-18" points="232.75 165.28 150.47 117.78 149.11 118.56 232.75 166.85 316.39 118.56 315.03 117.78 232.75 165.28"/><polygon class="cls-26" points="303.85 137.74 303.85 142.64 245.3 176.45 245.3 171.55 303.85 137.74"/><polygon class="cls-35" points="149.11 118.56 149.11 145.93 232.75 194.23 232.75 166.85 149.11 118.56"/><polygon class="cls-15" points="208.33 165.4 193.19 156.65 193.19 158.46 208.33 167.21 208.33 165.4"/><polygon class="cls-15" points="191 155.41 186.9 153.04 186.9 154.85 191 157.22 191 155.41"/><polygon class="cls-15" points="171.78 144.31 163.38 139.47 163.38 141.27 171.78 146.12 171.78 144.31"/><polygon class="cls-15" points="179.44 148.74 173.37 145.23 173.37 147.04 179.44 150.54 179.44 148.74"/><polygon class="cls-15" points="185.13 152.03 181.03 149.66 181.03 151.46 185.13 153.83 185.13 152.03"/><polygon class="cls-15" points="232.84 95.51 230.18 93.98 232.84 92.44 235.49 93.98 232.84 95.51"/><polygon class="cls-36" points="238.15 98.58 235.49 97.04 238.15 95.51 240.8 97.04 238.15 98.58"/><polygon class="cls-37" points="243.46 101.64 240.8 100.11 243.46 98.58 246.12 100.11 243.46 101.64"/><polygon class="cls-15" points="248.77 104.71 246.12 103.18 248.77 101.64 251.43 103.18 248.77 104.71"/><polygon class="cls-37" points="254.08 107.78 251.43 106.25 254.08 104.71 256.74 106.25 254.08 107.78"/><polygon class="cls-15" points="259.4 110.84 256.74 109.31 259.4 107.78 262.05 109.31 259.4 110.84"/><polygon class="cls-15" points="264.71 113.91 262.05 112.38 264.71 110.84 267.36 112.38 264.71 113.91"/><polygon class="cls-15" points="270.02 116.98 267.36 115.44 270.02 113.91 272.68 115.44 270.02 116.98"/><polygon class="cls-36" points="275.33 120.05 272.68 118.51 275.33 116.98 277.99 118.51 275.33 120.05"/><polygon class="cls-15" points="227.5 98.59 224.85 97.06 227.5 95.52 230.16 97.06 227.5 98.59"/><polygon class="cls-15" points="232.81 101.66 230.16 100.12 232.81 98.59 235.47 100.12 232.81 101.66"/><polygon class="cls-15" points="238.13 104.72 235.47 103.19 238.13 101.66 240.78 103.19 238.13 104.72"/><polygon class="cls-15" points="243.44 107.79 240.78 106.26 243.44 104.72 246.09 106.26 243.44 107.79"/><polygon class="cls-15" points="248.75 110.86 246.09 109.32 248.75 107.79 251.41 109.32 248.75 110.86"/><polygon class="cls-15" points="254.06 113.92 251.41 112.39 254.06 110.86 256.72 112.39 254.06 113.92"/><polygon class="cls-15" points="259.38 116.99 256.72 115.46 259.37 113.92 262.03 115.46 259.38 116.99"/><polygon class="cls-15" points="264.69 120.06 262.03 118.53 264.69 116.99 267.34 118.53 264.69 120.06"/><polygon class="cls-15" points="270 123.13 267.34 121.59 270 120.06 272.65 121.59 270 123.13"/><polygon class="cls-15" points="222.17 101.67 219.51 100.14 222.17 98.6 224.82 100.14 222.17 101.67"/><polygon class="cls-15" points="227.48 104.74 224.82 103.2 227.48 101.67 230.14 103.2 227.48 104.74"/><polygon class="cls-15" points="232.79 107.8 230.14 106.27 232.79 104.74 235.45 106.27 232.79 107.8"/><polygon class="cls-36" points="238.1 110.87 235.45 109.34 238.1 107.8 240.76 109.34 238.1 110.87"/><polygon class="cls-37" points="243.42 113.94 240.76 112.4 243.42 110.87 246.07 112.4 243.42 113.94"/><polygon class="cls-37" points="248.73 117 246.07 115.47 248.73 113.94 251.38 115.47 248.73 117"/><polygon class="cls-15" points="254.04 120.07 251.38 118.54 254.04 117 256.7 118.54 254.04 120.07"/><polygon class="cls-15" points="259.35 123.14 256.7 121.6 259.35 120.07 262.01 121.6 259.35 123.14"/><polygon class="cls-15" points="264.67 126.2 262.01 124.67 264.67 123.14 267.32 124.67 264.67 126.2"/><polygon class="cls-37" points="216.84 104.75 214.18 103.22 216.84 101.68 219.49 103.22 216.84 104.75"/><polygon class="cls-37" points="222.15 107.81 219.49 106.28 222.15 104.75 224.8 106.28 222.15 107.81"/><polygon class="cls-36" points="227.46 110.88 224.8 109.35 227.46 107.81 230.12 109.35 227.46 110.88"/><polygon class="cls-15" points="232.77 113.95 230.12 112.42 232.77 110.88 235.43 112.42 232.77 113.95"/><polygon class="cls-15" points="238.08 117.02 235.43 115.48 238.08 113.95 240.74 115.48 238.08 117.02"/><polygon class="cls-15" points="243.4 120.08 240.74 118.55 243.4 117.02 246.05 118.55 243.4 120.08"/><polygon class="cls-37" points="248.71 123.15 246.05 121.62 248.71 120.08 251.36 121.62 248.71 123.15"/><polygon class="cls-15" points="254.02 126.22 251.36 124.68 254.02 123.15 256.68 124.68 254.02 126.22"/><polygon class="cls-15" points="259.33 129.28 256.68 127.75 259.33 126.22 261.99 127.75 259.33 129.28"/><polygon class="cls-15" points="211.5 107.83 208.85 106.29 211.5 104.76 214.16 106.29 211.5 107.83"/><polygon class="cls-15" points="216.81 110.89 214.16 109.36 216.81 107.83 219.47 109.36 216.81 110.89"/><polygon class="cls-15" points="222.13 113.96 219.47 112.43 222.13 110.89 224.78 112.43 222.13 113.96"/><polygon class="cls-15" points="227.44 117.03 224.78 115.5 227.44 113.96 230.09 115.5 227.44 117.03"/><polygon class="cls-15" points="232.75 120.09 230.09 118.56 232.75 117.03 235.41 118.56 232.75 120.09"/><polygon class="cls-15" points="238.06 123.16 235.41 121.63 238.06 120.09 240.72 121.63 238.06 123.16"/><polygon class="cls-15" points="243.37 126.23 240.72 124.7 243.37 123.16 246.03 124.7 243.37 126.23"/><polygon class="cls-15" points="248.69 129.3 246.03 127.76 248.69 126.23 251.34 127.76 248.69 129.3"/><polygon class="cls-15" points="254 132.36 251.34 130.83 254 129.3 256.65 130.83 254 132.36"/><polygon class="cls-15" points="206.17 110.91 203.51 109.37 206.17 107.84 208.82 109.37 206.17 110.91"/><polygon class="cls-15" points="211.48 113.97 208.82 112.44 211.48 110.91 214.14 112.44 211.48 113.97"/><polygon class="cls-37" points="216.79 117.04 214.14 115.51 216.79 113.97 219.45 115.51 216.79 117.04"/><polygon class="cls-15" points="222.1 120.11 219.45 118.57 222.1 117.04 224.76 118.57 222.1 120.11"/><polygon class="cls-36" points="227.42 123.17 224.76 121.64 227.42 120.11 230.07 121.64 227.42 123.17"/><polygon class="cls-15" points="232.73 126.24 230.07 124.71 232.73 123.17 235.38 124.71 232.73 126.24"/><polygon class="cls-15" points="238.04 129.31 235.38 127.78 238.04 126.24 240.7 127.78 238.04 129.31"/><polygon class="cls-15" points="243.35 132.38 240.7 130.84 243.35 129.31 246.01 130.84 243.35 132.38"/><polygon class="cls-15" points="248.66 135.44 246.01 133.91 248.66 132.38 251.32 133.91 248.66 135.44"/><polygon class="cls-15" points="200.84 113.99 198.18 112.45 200.84 110.92 203.49 112.45 200.84 113.99"/><polygon class="cls-15" points="206.15 117.05 203.49 115.52 206.15 113.99 208.8 115.52 206.15 117.05"/><polygon class="cls-37" points="211.46 120.12 208.8 118.59 211.46 117.05 214.12 118.59 211.46 120.12"/><polygon class="cls-15" points="216.77 123.19 214.12 121.65 216.77 120.12 219.43 121.65 216.77 123.19"/><polygon class="cls-15" points="222.08 126.25 219.43 124.72 222.08 123.19 224.74 124.72 222.08 126.25"/><polygon class="cls-36" points="227.4 129.32 224.74 127.79 227.4 126.25 230.05 127.79 227.4 129.32"/><polygon class="cls-37" points="232.71 132.39 230.05 130.85 232.71 129.32 235.36 130.85 232.71 132.39"/><polygon class="cls-15" points="238.02 135.46 235.36 133.92 238.02 132.39 240.68 133.92 238.02 135.46"/><polygon class="cls-36" points="243.33 138.52 240.68 136.99 243.33 135.46 245.99 136.99 243.33 138.52"/><polygon class="cls-15" points="195.5 117.07 192.85 115.53 195.5 114 198.16 115.53 195.5 117.07"/><polygon class="cls-37" points="200.81 120.13 198.16 118.6 200.81 117.07 203.47 118.6 200.81 120.13"/><polygon class="cls-15" points="206.13 123.2 203.47 121.67 206.13 120.13 208.78 121.67 206.13 123.2"/><polygon class="cls-15" points="211.44 126.27 208.78 124.73 211.44 123.2 214.09 124.73 211.44 126.27"/><polygon class="cls-15" points="216.75 129.33 214.09 127.8 216.75 126.27 219.41 127.8 216.75 129.33"/><polygon class="cls-15" points="222.06 132.4 219.41 130.87 222.06 129.33 224.72 130.87 222.06 132.4"/><polygon class="cls-15" points="227.37 135.47 224.72 133.93 227.37 132.4 230.03 133.93 227.37 135.47"/><polygon class="cls-37" points="232.69 138.53 230.03 137 232.69 135.47 235.34 137 232.69 138.53"/><polygon class="cls-15" points="238 141.6 235.34 140.07 238 138.53 240.65 140.07 238 141.6"/><polygon class="cls-15" points="190.17 120.14 187.51 118.61 190.17 117.08 192.82 118.61 190.17 120.14"/><polygon class="cls-36" points="195.48 123.21 192.82 121.68 195.48 120.14 198.14 121.68 195.48 123.21"/><polygon class="cls-15" points="200.79 126.28 198.14 124.75 200.79 123.21 203.45 124.75 200.79 126.28"/><polygon class="cls-15" points="206.1 129.35 203.45 127.81 206.1 126.28 208.76 127.81 206.1 129.35"/><polygon class="cls-15" points="211.42 132.41 208.76 130.88 211.42 129.35 214.07 130.88 211.42 132.41"/><polygon class="cls-15" points="216.73 135.48 214.07 133.95 216.73 132.41 219.38 133.95 216.73 135.48"/><polygon class="cls-37" points="222.04 138.55 219.38 137.01 222.04 135.48 224.7 137.01 222.04 138.55"/><polygon class="cls-15" points="227.35 141.61 224.7 140.08 227.35 138.55 230.01 140.08 227.35 141.61"/><polygon class="cls-15" points="232.66 144.68 230.01 143.15 232.66 141.61 235.32 143.15 232.66 144.68"/><g class="cls-14"><path class="cls-15" d="M394.4,354.7a8.29,8.29,0,0,1-4.13-1.1l-47.53-27.44a2.39,2.39,0,0,1,0-4.12l86-49.65a.44.44,0,0,1,.47,0l.4.23,51,29.45a2.39,2.39,0,0,1,0,4.12L398.52,353.6A8.28,8.28,0,0,1,394.4,354.7ZM429,273.33l-85.77,49.52a1.45,1.45,0,0,0,0,2.5l47.53,27.44a7.49,7.49,0,0,0,7.31,0l82.11-47.41a1.42,1.42,0,0,0,.72-1.25,1.44,1.44,0,0,0-.72-1.25Z" transform="translate(-71.61 -40.52)"/></g><path class="cls-39" d="M429.08,253.21l-11.44-67.87.92-.39-1.38-.79h0a1,1,0,0,0-1.06.07L324.7,237a2.61,2.61,0,0,0-1.19,2.33L335,307.75a.88.88,0,0,0,.48.7h0l1.35.78.24-1.27-.08,0,90.86-52.46A2.6,2.6,0,0,0,429.08,253.21Z" transform="translate(-71.61 -40.52)"/><path class="cls-40" d="M325.21,238.88l-1.51-.67a2.15,2.15,0,0,0-.19,1.14L335,307.75a.88.88,0,0,0,.48.7h0l1.35.78.24-1.27-.08,0,4.6-2.66Z" transform="translate(-71.61 -40.52)"/><path class="cls-22" d="M429.33,256.35l-91.42,52.78c-.71.41-1.31.17-1.44-.56l-11.53-68.4a2.58,2.58,0,0,1,1.19-2.32l91.42-52.78c.71-.41,1.31-.18,1.43.55L430.51,254A2.55,2.55,0,0,1,429.33,256.35Z" transform="translate(-71.61 -40.52)"/><g class="cls-34"><polygon class="cls-26" points="344.75 148.92 256.63 199.79 267.56 264.21 355.62 213.37 344.75 148.92"/></g><path class="cls-41" d="M486.79,288.74l-5,2.6-50-28.88a3.64,3.64,0,0,0-3.27.13l-86.28,49.82c-.83-.46-4.59-2.27-4.59-2.27l1.83,4.75h0a1.08,1.08,0,0,0,.51.56l52.69,30.42a3.61,3.61,0,0,0,3.27-.13l88.29-51A1.53,1.53,0,0,0,485,294h0Z" transform="translate(-71.61 -40.52)"/><path class="cls-42" d="M486,289.56,395.53,341.8a3.73,3.73,0,0,1-3.34.14l-54-31.18c-.86-.49-.75-1.36.24-1.93l90.49-52.24a3.67,3.67,0,0,1,3.34-.14l54,31.17C487.12,288.12,487,289,486,289.56Z" transform="translate(-71.61 -40.52)"/><path class="cls-18" d="M486,289l-90.49,52.25a3.73,3.73,0,0,1-3.34.14l-54-31.18a1.16,1.16,0,0,1-.53-.58.92.92,0,0,0,.53,1.1l54,31.18a3.73,3.73,0,0,0,3.34-.14L486,289.56c.67-.39.92-.9.77-1.35A1.6,1.6,0,0,1,486,289Z" transform="translate(-71.61 -40.52)"/><path class="cls-19" d="M368.24,330.5v-1c0-.1.06-.14.13-.1l3.5,2a.3.3,0,0,1,.12.24v1c0,.09-.05.13-.12.09l-3.5-2A.31.31,0,0,1,368.24,330.5Z" transform="translate(-71.61 -40.52)"/><path class="cls-19" d="M373.47,333.52v-1c0-.1.06-.14.13-.1l3.5,2a.31.31,0,0,1,.13.25v1c0,.09-.06.14-.13.09l-3.5-2A.31.31,0,0,1,373.47,333.52Z" transform="translate(-71.61 -40.52)"/><path class="cls-20" d="M352.27,307.84l75.19-43.41a1.62,1.62,0,0,1,1.62,0l26.78,15.49a.58.58,0,0,1,0,1L380.7,324.31a1.62,1.62,0,0,1-1.62,0l-26.81-15.47A.57.57,0,0,1,352.27,307.84Z" transform="translate(-71.61 -40.52)"/><path class="cls-21" d="M352.27,308.84l.27.16,74.92-43.26a1.62,1.62,0,0,1,1.62,0l26.51,15.34.27-.16a.58.58,0,0,0,0-1l-26.78-15.49a1.62,1.62,0,0,0-1.62,0l-75.19,43.41A.57.57,0,0,0,352.27,308.84Z" transform="translate(-71.61 -40.52)"/><polygon class="cls-22" points="359.5 227.84 294.18 265.55 291.27 263.87 356.59 226.16 359.5 227.84"/><polygon class="cls-22" points="366.62 231.95 305.35 267.32 302.45 265.64 363.71 230.27 366.62 231.95"/><polygon class="cls-22" points="371.25 234.62 299.12 276.27 296.21 274.59 368.35 232.95 371.25 234.62"/><polygon class="cls-22" points="375.89 237.3 303.76 278.95 300.85 277.27 372.99 235.63 375.89 237.3"/><polygon class="cls-22" points="380.53 239.98 308.39 281.63 305.49 279.95 377.63 238.3 380.53 239.98"/><polygon class="cls-22" points="290.23 267.83 287.33 269.5 284.42 267.83 287.33 266.15 290.23 267.83"/><polygon class="cls-22" points="300.48 270.13 294.45 273.61 291.54 271.94 297.57 268.46 300.48 270.13"/><path class="cls-43" d="M430.36,318.35l20.27-11.71c.8-.46.8-1.2,0-1.65l-13.86-8a3.16,3.16,0,0,0-2.87,0l-20.28,11.71a.87.87,0,0,0,0,1.65l13.87,8A3.16,3.16,0,0,0,430.36,318.35Z" transform="translate(-71.61 -40.52)"/><path class="cls-21" d="M413.62,309.36l20.28-11.7a3.16,3.16,0,0,1,2.87,0l13.86,8a1.18,1.18,0,0,1,.5.49c.21-.4.05-.85-.5-1.16l-13.86-8a3.16,3.16,0,0,0-2.87,0l-20.28,11.71c-.55.31-.71.76-.5,1.16A1.46,1.46,0,0,1,413.62,309.36Z" transform="translate(-71.61 -40.52)"/><g class="cls-44"><g class="cls-45"><path class="cls-46" d="M429,256.48l-90.49,52.24a3.72,3.72,0,0,1-3.35.14l-54-31.17c-.85-.5-.75-1.36.24-1.94l90.49-52.24a3.75,3.75,0,0,1,3.35-.14l54,31.18C430.1,255,430,255.91,429,256.48Z" transform="translate(-71.61 -40.52)"/><path class="cls-47" d="M338.25,265.85l20.27-11.71a.87.87,0,0,0,0-1.66l-13.86-8a3.16,3.16,0,0,0-2.87,0l-20.28,11.7a.88.88,0,0,0,0,1.66l13.87,8A3.22,3.22,0,0,0,338.25,265.85Z" transform="translate(-71.61 -40.52)"/><path class="cls-21" d="M321.51,256.86l20.28-11.7a3.16,3.16,0,0,1,2.87,0l13.86,8a1.18,1.18,0,0,1,.5.49c.21-.4.05-.85-.5-1.17l-13.86-8a3.16,3.16,0,0,0-2.87,0l-20.28,11.7c-.54.32-.7.77-.49,1.17A1.21,1.21,0,0,1,321.51,256.86Z" transform="translate(-71.61 -40.52)"/><path class="cls-20" d="M312.6,284.14l75.2-43.42a1.64,1.64,0,0,1,1.62,0l26.77,15.49a.57.57,0,0,1,0,1L341,300.61a1.62,1.62,0,0,1-1.62,0L312.6,285.14A.58.58,0,0,1,312.6,284.14Z" transform="translate(-71.61 -40.52)"/><path class="cls-21" d="M312.6,285.14l.27.15L387.8,242a1.62,1.62,0,0,1,1.62,0l26.5,15.33.27-.15a.57.57,0,0,0,0-1l-26.77-15.49a1.64,1.64,0,0,0-1.62,0l-75.2,43.42A.58.58,0,0,0,312.6,285.14Z" transform="translate(-71.61 -40.52)"/><polygon class="cls-22" points="337.58 214.65 272.07 252.47 274.67 253.97 340.17 216.14 337.58 214.65"/><polygon class="cls-22" points="330.68 210.66 268.41 246.61 271.01 248.11 333.27 212.16 330.68 210.66"/><polygon class="cls-22" points="263.76 249.29 257.95 252.65 260.54 254.15 266.36 250.79 263.76 249.29"/><polygon class="cls-22" points="268.9 254.3 264.85 256.64 267.44 258.13 271.49 255.8 268.9 254.3"/><polygon class="cls-22" points="326.35 208.16 253.62 250.15 256.22 251.65 328.95 209.66 326.35 208.16"/><polygon class="cls-22" points="322.03 205.67 249.3 247.66 251.89 249.16 324.62 207.16 322.03 205.67"/><polygon class="cls-22" points="317.7 203.17 244.97 245.16 247.57 246.66 320.3 204.67 317.7 203.17"/></g></g><polygon class="cls-15" points="289.81 239.65 296.94 235.53 297.15 236.77 290.02 240.89 289.81 239.65"/><polygon class="cls-15" points="298.09 234.87 301.97 232.63 302.18 233.87 298.3 236.11 298.09 234.87"/><polygon class="cls-15" points="308.01 229.14 310.82 227.51 311.03 228.75 308.22 230.38 308.01 229.14"/><polygon class="cls-15" points="305.96 230.32 306.93 229.77 307.13 231.01 306.17 231.56 305.96 230.32"/><polygon class="cls-15" points="303.13 231.96 304.88 230.95 305.08 232.19 303.34 233.2 303.13 231.96"/><polygon class="cls-15" points="295.45 230.18 298.26 228.56 298.47 229.8 295.66 231.42 295.45 230.18"/><polygon class="cls-15" points="288.85 234 294.36 230.81 294.57 232.05 289.06 235.23 288.85 234"/><polygon class="cls-15" points="296.75 213.93 302.26 210.75 302.47 211.99 296.96 215.17 296.75 213.93"/><polygon class="cls-15" points="293.92 215.57 295.66 214.56 295.87 215.8 294.13 216.81 293.92 215.57"/><polygon class="cls-15" points="297.67 219.6 303.18 216.41 303.38 217.65 297.88 220.83 297.67 219.6"/><polygon class="cls-15" points="294.83 221.23 296.58 220.22 296.79 221.46 295.04 222.47 294.83 221.23"/><polygon class="cls-15" points="292.69 189.49 282.31 195.49 282.1 194.25 292.48 188.25 292.69 189.49"/><polygon class="cls-15" points="296.34 187.38 293.77 188.86 293.56 187.62 296.13 186.14 296.34 187.38"/><polygon class="cls-15" points="314.57 186.18 304.2 192.17 303.99 190.93 314.36 184.94 314.57 186.18"/><polygon class="cls-15" points="318.23 184.06 315.66 185.54 315.45 184.31 318.02 182.82 318.23 184.06"/><polygon class="cls-15" points="285.6 196.69 282.79 198.31 282.58 197.08 285.39 195.45 285.6 196.69"/><polygon class="cls-15" points="302.7 193.02 299.89 194.65 299.68 193.41 302.49 191.78 302.7 193.02"/><polygon class="cls-15" points="292.19 192.88 286.69 196.06 286.48 194.82 291.99 191.64 292.19 192.88"/><polygon class="cls-15" points="295.03 191.24 293.28 192.25 293.07 191.01 294.82 190 295.03 191.24"/><polygon class="cls-15" points="301.68 187.41 296.17 190.59 295.96 189.35 301.47 186.17 301.68 187.41"/><polygon class="cls-15" points="304.51 185.77 302.76 186.78 302.56 185.54 304.3 184.53 304.51 185.77"/><polygon class="cls-15" points="302.22 190.19 299.41 191.82 299.2 190.58 302.01 188.96 302.22 190.19"/><polygon class="cls-15" points="308.82 186.38 303.31 189.56 303.1 188.33 308.61 185.14 308.82 186.38"/><polygon class="cls-15" points="311.65 184.74 309.91 185.75 309.7 184.51 311.44 183.5 311.65 184.74"/><polygon class="cls-15" points="289.02 197.82 283.27 201.14 283.06 199.91 288.81 196.58 289.02 197.82"/><polygon class="cls-15" points="294.26 194.79 290.11 197.19 289.9 195.95 294.06 193.55 294.26 194.79"/><polygon class="cls-15" points="298.16 192.53 295.35 194.16 295.14 192.92 297.95 191.29 298.16 192.53"/><polygon class="cls-15" points="325.42 179.91 319.67 183.24 319.46 182 325.21 178.68 325.42 179.91"/><polygon class="cls-15" points="330.67 176.88 326.51 179.29 326.3 178.05 330.46 175.64 330.67 176.88"/><polygon class="cls-15" points="334.57 174.63 331.76 176.25 331.55 175.01 334.36 173.39 334.57 174.63"/><polygon class="cls-15" points="323.18 217.28 328.93 213.96 329.14 215.2 323.39 218.52 323.18 217.28"/><polygon class="cls-15" points="317.93 220.31 322.09 217.91 322.3 219.15 318.14 221.55 317.93 220.31"/><polygon class="cls-15" points="314.03 222.57 316.84 220.94 317.05 222.18 314.24 223.81 314.03 222.57"/><polygon class="cls-15" points="321.27 221.5 327.02 218.18 327.23 219.41 321.48 222.74 321.27 221.5"/><polygon class="cls-15" points="316.02 224.53 320.18 222.13 320.39 223.37 316.23 225.77 316.02 224.53"/><polygon class="cls-15" points="312.12 226.79 314.93 225.16 315.14 226.4 312.33 228.03 312.12 226.79"/><polygon class="cls-15" points="298.05 216.27 299.99 215.15 300.2 216.39 298.26 217.51 298.05 216.27"/><polygon class="cls-15" points="294.39 218.38 296.96 216.9 297.17 218.14 294.6 219.62 294.39 218.38"/><polygon class="cls-15" points="289.53 200.63 283.78 203.95 283.57 202.72 289.32 199.39 289.53 200.63"/><polygon class="cls-15" points="294.78 197.6 290.62 200 290.41 198.76 294.57 196.36 294.78 197.6"/><polygon class="cls-15" points="298.68 195.34 295.87 196.97 295.66 195.73 298.47 194.1 298.68 195.34"/><polygon class="cls-15" points="286.2 205.66 284.26 206.78 284.05 205.54 285.99 204.42 286.2 205.66"/><polygon class="cls-15" points="289.86 203.55 287.29 205.03 287.08 203.79 289.65 202.31 289.86 203.55"/><polygon class="cls-15" points="295.08 200.53 290.95 202.92 290.74 201.68 294.87 199.29 295.08 200.53"/><polygon class="cls-15" points="300.69 224.07 302.63 222.94 302.84 224.18 300.9 225.31 300.69 224.07"/><polygon class="cls-15" points="297.03 226.18 299.6 224.7 299.81 225.94 297.24 227.42 297.03 226.18"/><polygon class="cls-15" points="291.81 229.2 295.94 226.81 296.15 228.05 292.02 230.44 291.81 229.2"/><polygon class="cls-15" points="303.65 219.48 307.78 217.09 307.99 218.32 303.86 220.72 303.65 219.48"/><polygon class="cls-15" points="296.88 223.16 302.46 219.94 302.67 221.18 297.09 224.4 296.88 223.16"/><polygon class="cls-15" points="294.05 224.8 295.8 223.79 296 225.03 294.26 226.04 294.05 224.8"/><polygon class="cls-15" points="291.33 226.37 293.08 225.37 293.29 226.6 291.54 227.61 291.33 226.37"/><polygon class="cls-15" points="291.7 210.39 297.21 207.21 297.42 208.45 291.91 211.63 291.7 210.39"/><polygon class="cls-15" points="288.87 212.03 290.62 211.02 290.82 212.26 289.08 213.27 288.87 212.03"/><polygon class="cls-15" points="292.08 207.07 294.03 205.95 294.24 207.18 292.29 208.31 292.08 207.07"/><polygon class="cls-15" points="298.94 209.34 300.88 208.21 301.09 209.45 299.15 210.57 298.94 209.34"/><polygon class="cls-15" points="301.71 207.74 306.37 205.04 306.58 206.28 301.92 208.97 301.71 207.74"/><polygon class="cls-15" points="307.2 204.57 309.97 202.97 310.18 204.21 307.41 205.81 307.2 204.57"/><polygon class="cls-15" points="288.43 209.18 291 207.7 291.2 208.94 288.64 210.42 288.43 209.18"/><polygon class="cls-15" points="288.19 206.28 290.13 205.15 290.34 206.39 288.39 207.51 288.19 206.28"/><polygon class="cls-15" points="284.53 208.39 287.1 206.91 287.31 208.14 284.74 209.63 284.53 208.39"/><polygon class="cls-15" points="296.12 210.96 297.87 209.95 298.08 211.19 296.33 212.2 296.12 210.96"/><polygon class="cls-15" points="293.4 212.53 295.15 211.53 295.36 212.76 293.61 213.77 293.4 212.53"/><polygon class="cls-15" points="306.8 226.75 312.75 223.31 312.96 224.54 307.01 227.98 306.8 226.75"/><polygon class="cls-15" points="300.14 230.6 305.71 227.38 305.92 228.61 300.35 231.84 300.14 230.6"/><polygon class="cls-15" points="297.3 232.24 299.05 231.23 299.26 232.46 297.51 233.47 297.3 232.24"/><polygon class="cls-15" points="294.58 233.81 296.33 232.8 296.54 234.04 294.79 235.04 294.58 233.81"/><polygon class="cls-15" points="293.1 234.66 289.33 236.84 289.54 238.08 293.31 235.9 293.1 234.66"/><g class="cls-14"><path class="cls-15" d="M214.32,354.7a8.29,8.29,0,0,1-4.13-1.1h0l-82.1-47.41a2.38,2.38,0,0,1,0-4.12l51.42-29.68a.43.43,0,0,1,.46,0L266,322a2.38,2.38,0,0,1,0,4.12L218.44,353.6A8.25,8.25,0,0,1,214.32,354.7Zm-3.66-1.91a7.49,7.49,0,0,0,7.31,0l47.53-27.44a1.45,1.45,0,0,0,0-2.5l-85.76-49.51-.17.09-51,29.45a1.44,1.44,0,0,0-.72,1.25,1.42,1.42,0,0,0,.72,1.25Z" transform="translate(-71.61 -40.52)"/></g><path class="cls-48" d="M179.63,253.21l11.44-67.87-.92-.39,1.38-.79h0a1,1,0,0,1,1.07.07L284,237a2.6,2.6,0,0,1,1.18,2.33l-11.53,68.4a.86.86,0,0,1-.48.7h0l-1.35.78-.23-1.27.08,0-90.87-52.46A2.6,2.6,0,0,1,179.63,253.21Z" transform="translate(-71.61 -40.52)"/><path class="cls-49" d="M283.51,238.88l1.5-.67a2.06,2.06,0,0,1,.19,1.14l-11.53,68.4a.86.86,0,0,1-.48.7h0l-1.35.78-.23-1.27.08,0-4.6-2.66Z" transform="translate(-71.61 -40.52)"/><path class="cls-22" d="M179.39,256.35l91.41,52.78c.71.41,1.32.17,1.44-.56l11.53-68.4a2.58,2.58,0,0,0-1.19-2.32l-91.42-52.78c-.7-.41-1.31-.18-1.43.55L178.2,254A2.58,2.58,0,0,0,179.39,256.35Z" transform="translate(-71.61 -40.52)"/><g class="cls-34"><polygon class="cls-26" points="120.75 148.92 208.87 199.79 197.94 264.21 109.88 213.37 120.75 148.92"/></g><path class="cls-50" d="M121.92,288.74l5,2.6,50-28.88a3.62,3.62,0,0,1,3.26.13l86.28,49.82c.83-.46,4.59-2.27,4.59-2.27l-1.82,4.75h0a1.08,1.08,0,0,1-.51.56L216,345.87a3.59,3.59,0,0,1-3.26-.13l-88.3-51a1.58,1.58,0,0,1-.74-.79h0Z" transform="translate(-71.61 -40.52)"/><path class="cls-51" d="M122.69,289.56l90.49,52.24a3.75,3.75,0,0,0,3.35.14l54-31.18c.85-.49.75-1.36-.24-1.93L179.8,256.59a3.69,3.69,0,0,0-3.35-.14l-54,31.17C121.59,288.12,121.7,289,122.69,289.56Z" transform="translate(-71.61 -40.52)"/><path class="cls-18" d="M122.69,289l90.49,52.25a3.75,3.75,0,0,0,3.35.14l54-31.18a1.13,1.13,0,0,0,.52-.58.91.91,0,0,1-.52,1.1l-54,31.18a3.75,3.75,0,0,1-3.35-.14l-90.49-52.24c-.66-.39-.92-.9-.76-1.35A1.62,1.62,0,0,0,122.69,289Z" transform="translate(-71.61 -40.52)"/><path class="cls-19" d="M240.47,330.5v-1c0-.1-.05-.14-.12-.1l-3.5,2a.31.31,0,0,0-.13.24v1c0,.09.06.13.13.09l3.5-2A.3.3,0,0,0,240.47,330.5Z" transform="translate(-71.61 -40.52)"/><path class="cls-19" d="M235.24,333.52v-1c0-.1-.06-.14-.13-.1l-3.5,2a.3.3,0,0,0-.12.25v1c0,.09,0,.14.12.09l3.5-2A.31.31,0,0,0,235.24,333.52Z" transform="translate(-71.61 -40.52)"/><path class="cls-20" d="M256.45,307.84l-75.2-43.41a1.62,1.62,0,0,0-1.62,0l-26.78,15.49a.58.58,0,0,0,0,1L228,324.31a1.6,1.6,0,0,0,1.61,0l26.82-15.47A.58.58,0,0,0,256.45,307.84Z" transform="translate(-71.61 -40.52)"/><path class="cls-21" d="M256.45,308.84l-.27.16-74.93-43.26a1.62,1.62,0,0,0-1.62,0l-26.51,15.34-.27-.16a.58.58,0,0,1,0-1l26.78-15.49a1.62,1.62,0,0,1,1.62,0l75.2,43.41A.58.58,0,0,1,256.45,308.84Z" transform="translate(-71.61 -40.52)"/><polygon class="cls-22" points="112.29 231.47 175.94 268.22 178.69 266.45 115.21 229.8 112.29 231.47"/><polygon class="cls-22" points="108.16 237.3 165.95 270.67 167.93 268.46 111.06 235.63 108.16 237.3"/><polygon class="cls-22" points="94.25 234.62 166.38 276.27 169.28 274.59 97.15 232.95 94.25 234.62"/><polygon class="cls-22" points="89.61 237.3 161.74 278.95 164.65 277.27 92.51 235.63 89.61 237.3"/><polygon class="cls-22" points="84.97 239.98 157.1 281.63 160.01 279.95 87.88 238.3 84.97 239.98"/><polygon class="cls-22" points="175.27 267.83 178.17 269.5 181.08 267.83 178.17 266.15 175.27 267.83"/><polygon class="cls-22" points="165.03 270.13 171.05 273.61 173.96 271.94 167.93 268.46 165.03 270.13"/><path class="cls-52" d="M178.36,318.35l-20.28-11.71a.87.87,0,0,1,0-1.65L172,297a3.16,3.16,0,0,1,2.87,0l20.27,11.71a.87.87,0,0,1,0,1.65l-13.86,8A3.16,3.16,0,0,1,178.36,318.35Z" transform="translate(-71.61 -40.52)"/><path class="cls-21" d="M195.09,309.36l-20.27-11.7a3.16,3.16,0,0,0-2.87,0l-13.87,8a1.31,1.31,0,0,0-.5.49c-.21-.4-.05-.85.5-1.16L172,297a3.16,3.16,0,0,1,2.87,0l20.27,11.71c.55.31.71.76.5,1.16A1.3,1.3,0,0,0,195.09,309.36Z" transform="translate(-71.61 -40.52)"/><g class="cls-44"><g class="cls-53"><path class="cls-54" d="M179.71,256.48l90.49,52.24a3.7,3.7,0,0,0,3.34.14l54-31.17c.86-.5.75-1.36-.24-1.94l-90.49-52.24a3.73,3.73,0,0,0-3.34-.14l-54,31.18C178.61,255,178.72,255.91,179.71,256.48Z" transform="translate(-71.61 -40.52)"/><path class="cls-55" d="M270.47,265.85l-20.28-11.71a.88.88,0,0,1,0-1.66l13.86-8a3.16,3.16,0,0,1,2.87,0l20.28,11.7a.88.88,0,0,1,0,1.66l-13.86,8A3.22,3.22,0,0,1,270.47,265.85Z" transform="translate(-71.61 -40.52)"/><path class="cls-21" d="M287.2,256.86l-20.28-11.7a3.16,3.16,0,0,0-2.87,0l-13.86,8a1.31,1.31,0,0,0-.5.49c-.21-.4-.05-.85.5-1.17l13.86-8a3.16,3.16,0,0,1,2.87,0l20.28,11.7c.55.32.71.77.5,1.17A1.31,1.31,0,0,0,287.2,256.86Z" transform="translate(-71.61 -40.52)"/><path class="cls-20" d="M296.11,284.14l-75.19-43.42a1.64,1.64,0,0,0-1.62,0l-26.78,15.49a.58.58,0,0,0,0,1l75.16,43.39a1.62,1.62,0,0,0,1.62,0l26.81-15.47A.57.57,0,0,0,296.11,284.14Z" transform="translate(-71.61 -40.52)"/><path class="cls-21" d="M296.11,285.14l-.27.15L220.92,242a1.62,1.62,0,0,0-1.62,0l-26.51,15.33-.27-.15a.58.58,0,0,1,0-1l26.78-15.49a1.64,1.64,0,0,1,1.62,0l75.19,43.42A.57.57,0,0,1,296.11,285.14Z" transform="translate(-71.61 -40.52)"/><polygon class="cls-22" points="127.92 214.65 193.43 252.47 190.84 253.97 125.33 216.14 127.92 214.65"/><polygon class="cls-22" points="134.82 210.66 197.09 246.61 194.49 248.11 132.23 212.16 134.82 210.66"/><polygon class="cls-22" points="201.74 249.29 207.55 252.65 204.96 254.15 199.14 250.79 201.74 249.29"/><polygon class="cls-22" points="196.6 254.3 200.65 256.64 198.06 258.13 194.01 255.8 196.6 254.3"/><polygon class="cls-22" points="139.15 208.16 211.88 250.15 209.28 251.65 136.55 209.66 139.15 208.16"/><polygon class="cls-22" points="143.47 205.67 216.2 247.66 213.61 249.16 140.88 207.16 143.47 205.67"/><polygon class="cls-22" points="147.8 203.17 220.53 245.16 217.93 246.66 145.2 204.67 147.8 203.17"/></g></g><polygon class="cls-15" points="140.48 172.79 147.61 176.91 147.82 175.68 140.69 171.56 140.48 172.79"/><polygon class="cls-15" points="148.76 177.57 152.64 179.82 152.85 178.58 148.97 176.34 148.76 177.57"/><polygon class="cls-15" points="158.69 183.31 161.5 184.93 161.71 183.69 158.9 182.07 158.69 183.31"/><polygon class="cls-15" points="156.64 182.12 157.6 182.68 157.81 181.44 156.84 180.88 156.64 182.12"/><polygon class="cls-15" points="153.8 180.48 155.55 181.49 155.76 180.25 154.01 179.25 153.8 180.48"/><polygon class="cls-15" points="146.12 182.26 148.93 183.89 149.14 182.65 146.33 181.03 146.12 182.26"/><polygon class="cls-15" points="139.53 178.45 145.03 181.63 145.24 180.4 139.74 177.21 139.53 178.45"/><polygon class="cls-15" points="147.42 198.51 152.93 201.7 153.14 200.46 147.63 197.28 147.42 198.51"/><polygon class="cls-15" points="144.59 196.88 146.33 197.88 146.54 196.65 144.8 195.64 144.59 196.88"/><polygon class="cls-15" points="148.34 192.85 153.85 196.03 154.06 194.79 148.55 191.61 148.34 192.85"/><polygon class="cls-15" points="145.51 191.21 147.25 192.22 147.46 190.98 145.72 189.97 145.51 191.21"/><polygon class="cls-15" points="143.36 222.96 132.98 216.96 132.77 218.2 143.15 224.19 143.36 222.96"/><polygon class="cls-15" points="147.01 225.07 144.44 223.59 144.24 224.82 146.8 226.31 147.01 225.07"/><polygon class="cls-15" points="165.24 226.27 154.87 220.28 154.66 221.51 165.03 227.51 165.24 226.27"/><polygon class="cls-15" points="168.9 228.38 166.33 226.9 166.12 228.14 168.69 229.62 168.9 228.38"/><polygon class="cls-15" points="136.27 215.76 133.46 214.13 133.25 215.37 136.06 216.99 136.27 215.76"/><polygon class="cls-15" points="153.37 219.42 150.56 217.8 150.35 219.04 153.16 220.66 153.37 219.42"/><polygon class="cls-15" points="142.87 219.57 137.36 216.39 137.15 217.62 142.66 220.81 142.87 219.57"/><polygon class="cls-15" points="145.7 221.21 143.96 220.2 143.75 221.44 145.49 222.44 145.7 221.21"/><polygon class="cls-15" points="152.35 225.04 146.84 221.86 146.63 223.1 152.14 226.28 152.35 225.04"/><polygon class="cls-15" points="155.18 226.68 153.44 225.67 153.23 226.91 154.97 227.92 155.18 226.68"/><polygon class="cls-15" points="152.89 222.25 150.08 220.63 149.87 221.87 152.68 223.49 152.89 222.25"/><polygon class="cls-15" points="159.49 226.07 153.98 222.88 153.77 224.12 159.28 227.3 159.49 226.07"/><polygon class="cls-15" points="162.32 227.7 160.58 226.69 160.37 227.93 162.11 228.94 162.32 227.7"/><polygon class="cls-15" points="139.69 214.63 133.94 211.3 133.73 212.54 139.48 215.87 139.69 214.63"/><polygon class="cls-15" points="144.94 217.66 140.78 215.26 140.57 216.5 144.73 218.9 144.94 217.66"/><polygon class="cls-15" points="148.84 219.91 146.03 218.29 145.82 219.53 148.63 221.15 148.84 219.91"/><polygon class="cls-15" points="176.09 232.53 170.34 229.21 170.13 230.44 175.88 233.77 176.09 232.53"/><polygon class="cls-15" points="181.34 235.56 177.18 233.16 176.97 234.4 181.13 236.8 181.34 235.56"/><polygon class="cls-15" points="185.24 237.82 182.43 236.19 182.22 237.43 185.03 239.06 185.24 237.82"/><polygon class="cls-15" points="173.85 195.16 179.6 198.49 179.81 197.25 174.06 193.93 173.85 195.16"/><polygon class="cls-15" points="168.6 192.13 172.76 194.53 172.97 193.3 168.81 190.89 168.6 192.13"/><polygon class="cls-15" points="164.7 189.88 167.51 191.5 167.72 190.26 164.91 188.64 164.7 189.88"/><polygon class="cls-15" points="171.94 190.95 177.69 194.27 177.9 193.03 172.15 189.71 171.94 190.95"/><polygon class="cls-15" points="166.69 187.91 170.85 190.32 171.06 189.08 166.9 186.68 166.69 187.91"/><polygon class="cls-15" points="162.79 185.66 165.6 187.28 165.81 186.04 163 184.42 162.79 185.66"/><polygon class="cls-15" points="148.72 196.18 150.66 197.3 150.87 196.06 148.93 194.94 148.72 196.18"/><polygon class="cls-15" points="145.06 194.06 147.63 195.55 147.84 194.31 145.27 192.82 145.06 194.06"/><polygon class="cls-15" points="140.2 211.82 134.45 208.49 134.24 209.73 139.99 213.05 140.2 211.82"/><polygon class="cls-15" points="145.45 214.85 141.29 212.45 141.08 213.68 145.24 216.09 145.45 214.85"/><polygon class="cls-15" points="149.35 217.1 146.54 215.48 146.33 216.72 149.14 218.34 149.35 217.1"/><polygon class="cls-15" points="136.87 206.79 134.93 205.66 134.72 206.9 136.66 208.03 136.87 206.79"/><polygon class="cls-15" points="140.53 208.9 137.96 207.42 137.75 208.66 140.32 210.14 140.53 208.9"/><polygon class="cls-15" points="145.75 211.92 141.62 209.53 141.41 210.77 145.54 213.16 145.75 211.92"/><polygon class="cls-15" points="151.36 188.38 153.3 189.5 153.51 188.26 151.57 187.14 151.36 188.38"/><polygon class="cls-15" points="147.71 186.26 150.27 187.75 150.48 186.51 147.91 185.03 147.71 186.26"/><polygon class="cls-15" points="142.48 183.25 146.62 185.64 146.82 184.4 142.69 182.01 142.48 183.25"/><polygon class="cls-15" points="154.32 192.97 158.46 195.36 158.66 194.12 154.53 191.73 154.32 192.97"/><polygon class="cls-15" points="147.56 189.28 153.13 192.5 153.34 191.27 147.76 188.04 147.56 189.28"/><polygon class="cls-15" points="144.72 187.64 146.47 188.65 146.68 187.41 144.93 186.41 144.72 187.64"/><polygon class="cls-15" points="142 186.07 143.75 187.08 143.96 185.84 142.21 184.84 142 186.07"/><polygon class="cls-15" points="142.38 202.05 147.88 205.24 148.09 204 142.59 200.81 142.38 202.05"/><polygon class="cls-15" points="139.54 200.41 141.29 201.42 141.5 200.19 139.75 199.18 139.54 200.41"/><polygon class="cls-15" points="142.75 205.38 144.7 206.5 144.91 205.26 142.96 204.14 142.75 205.38"/><polygon class="cls-15" points="149.61 203.11 151.56 204.23 151.76 203 149.82 201.87 149.61 203.11"/><polygon class="cls-15" points="152.38 204.71 157.04 207.4 157.25 206.16 152.59 203.47 152.38 204.71"/><polygon class="cls-15" points="157.87 207.88 160.64 209.48 160.85 208.24 158.08 206.64 157.87 207.88"/><polygon class="cls-15" points="139.1 203.26 141.67 204.75 141.88 203.51 139.31 202.03 139.1 203.26"/><polygon class="cls-15" points="138.86 206.17 140.8 207.29 141.01 206.05 139.07 204.93 138.86 206.17"/><polygon class="cls-15" points="135.2 204.06 137.77 205.54 137.98 204.3 135.41 202.82 135.2 204.06"/><polygon class="cls-15" points="146.79 201.49 148.54 202.49 148.75 201.25 147 200.25 146.79 201.49"/><polygon class="cls-15" points="144.07 199.91 145.82 200.92 146.03 199.68 144.28 198.68 144.07 199.91"/><polygon class="cls-15" points="157.47 185.7 163.42 189.14 163.63 187.9 157.68 184.46 157.47 185.7"/><polygon class="cls-15" points="150.81 181.85 156.38 185.07 156.59 183.83 151.02 180.61 150.81 181.85"/><polygon class="cls-15" points="147.97 180.21 149.72 181.22 149.93 179.98 148.18 178.97 147.97 180.21"/><polygon class="cls-15" points="145.26 178.64 147 179.65 147.21 178.41 145.47 177.4 145.26 178.64"/><polygon class="cls-15" points="143.77 177.78 140.01 175.61 140.22 174.37 143.98 176.54 143.77 177.78"/><polygon class="cls-22" points="106 227.84 108.91 229.51 111.81 227.84 108.91 226.16 106 227.84"/><polygon class="cls-22" points="98.88 231.95 104.91 235.43 107.82 233.75 101.79 230.27 98.88 231.95"/><polygon class="cls-56" points="293.68 118.56 293.68 0 171.82 0 171.82 118.56 232.75 153.74 293.68 118.56"/><path class="cls-3" d="M304.44,386.8l-50.31-29.05,50.31-29.05,50.32,29.05Zm-48.89-29.05L304.44,386l48.89-28.23-48.89-28.23Z" transform="translate(-71.61 -40.52)"/><polygon class="cls-57" points="279.34 306.43 279.34 297.05 232.84 322.71 186.33 297.05 186.33 306.43 232.84 333.28 279.34 306.43"/><polygon class="cls-58" points="232.84 323.9 186.33 297.05 232.84 270.2 279.34 297.05 232.84 323.9"/><polygon class="cls-6" points="232.84 323.12 187 296.66 186.33 297.05 232.84 323.9 279.34 297.05 278.67 296.66 232.84 323.12"/><polygon class="cls-7" points="232.84 313.64 204.09 297.05 232.84 280.45 261.58 297.05 232.84 313.64"/><polygon class="cls-59" points="232.84 313.65 204.09 297.05 232.84 280.45 261.58 297.05 232.84 313.65"/><polygon class="cls-60" points="232.84 257.23 261.58 273.83 261.58 297.05 232.84 280.45 232.84 257.23"/><polygon class="cls-61" points="232.84 280.45 204.09 297.05 204.09 273.83 232.84 257.23 232.84 280.45"/><polygon class="cls-62" points="232.84 290.43 204.09 273.83 232.84 257.23 261.58 273.83 232.84 290.43"/><polygon class="cls-63" points="232.84 290.43 232.84 313.65 261.58 297.05 261.58 273.83 232.84 290.43"/><polygon class="cls-64" points="204.09 273.83 204.09 297.05 232.84 313.65 232.84 290.43 204.09 273.83"/><path class="cls-3" d="M486.79,284.53l-50.31-29,50.31-29,50.32,29Zm-48.89-29,48.89,28.23,48.89-28.23-48.89-28.23Z" transform="translate(-71.61 -40.52)"/><polygon class="cls-65" points="461.69 204.16 461.69 194.78 415.19 220.44 368.68 194.78 368.68 204.16 415.19 231.01 461.69 204.16"/><polygon class="cls-66" points="415.19 221.63 368.68 194.78 415.19 167.93 461.69 194.78 415.19 221.63"/><polygon class="cls-6" points="415.19 220.85 369.35 194.39 368.68 194.78 415.19 221.63 461.69 194.78 461.02 194.39 415.19 220.85"/><polygon class="cls-7" points="415.19 211.38 386.44 194.78 415.19 178.18 443.93 194.78 415.19 211.38"/><polygon class="cls-67" points="415.19 211.38 386.44 194.78 415.19 178.18 443.94 194.78 415.19 211.38"/><polygon class="cls-68" points="415.19 154.96 443.94 171.56 443.94 194.78 415.19 178.18 415.19 154.96"/><polygon class="cls-69" points="415.19 178.18 386.44 194.78 386.44 171.56 415.19 154.96 415.19 178.18"/><polygon class="cls-70" points="415.19 188.16 386.44 171.56 415.19 154.96 443.94 171.56 415.19 188.16"/><polygon class="cls-71" points="415.19 188.16 415.19 211.38 443.94 194.78 443.94 171.56 415.19 188.16"/><polygon class="cls-72" points="386.44 171.56 386.44 194.78 415.19 211.38 415.19 188.16 386.44 171.56"/><path class="cls-3" d="M121.92,284.53l-50.31-29,50.31-29,50.32,29ZM73,255.48l48.89,28.23,48.89-28.23-48.89-28.23Z" transform="translate(-71.61 -40.52)"/><polygon class="cls-73" points="96.82 204.16 96.82 194.78 50.31 220.44 3.81 194.78 3.81 204.16 50.31 231.01 96.82 204.16"/><polygon class="cls-74" points="50.31 221.63 3.81 194.78 50.31 167.93 96.82 194.78 50.31 221.63"/><polygon class="cls-6" points="50.31 220.85 4.48 194.39 3.81 194.78 50.31 221.63 96.82 194.78 96.15 194.39 50.31 220.85"/><polygon class="cls-7" points="50.31 211.38 21.57 194.78 50.31 178.18 79.06 194.78 50.31 211.38"/><polygon class="cls-75" points="50.31 211.38 21.57 194.78 50.31 178.18 79.06 194.78 50.31 211.38"/><polygon class="cls-76" points="50.31 154.96 79.06 171.56 79.06 194.78 50.31 178.18 50.31 154.96"/><polygon class="cls-77" points="50.31 178.18 21.57 194.78 21.57 171.56 50.31 154.96 50.31 178.18"/><polygon class="cls-78" points="50.31 188.16 21.57 171.56 50.31 154.96 79.06 171.56 50.31 188.16"/><polygon class="cls-79" points="50.31 188.16 50.31 211.38 79.06 194.78 79.06 171.56 50.31 188.16"/><polygon class="cls-80" points="21.57 171.56 21.57 194.78 50.31 211.38 50.31 188.16 21.57 171.56"/></g></g></svg>