<svg xmlns="http://www.w3.org/2000/svg" xmlns:xlink="http://www.w3.org/1999/xlink" viewBox="0 0 251.07 154.01"><defs><style>.cls-1{isolation:isolate;}.cls-2{fill:url(#linear-gradient);}.cls-3,.cls-6{mix-blend-mode:multiply;}.cls-3{fill:url(#linear-gradient-2);}.cls-4{fill:url(#linear-gradient-3);}.cls-5{fill:url(#linear-gradient-4);}.cls-6{fill:url(#linear-gradient-5);}.cls-7{fill:url(#linear-gradient-6);}.cls-8{fill:#fff;}</style><linearGradient id="linear-gradient" x1="175.2" y1="128.84" x2="145.87" y2="25.62" gradientUnits="userSpaceOnUse"><stop offset="0" stop-color="#d4d1d8"/><stop offset="1" stop-color="#fff"/></linearGradient><linearGradient id="linear-gradient-2" x1="157.02" y1="67.64" x2="147.96" y2="47.72" gradientUnits="userSpaceOnUse"><stop offset="0" stop-color="#fff"/><stop offset="1" stop-color="#e6e7e8"/></linearGradient><linearGradient id="linear-gradient-3" x1="-41.21" y1="-57.18" x2="124.42" y2="41.28" xlink:href="#linear-gradient"/><linearGradient id="linear-gradient-4" x1="76.7" y1="88.61" x2="161.45" y2="76.93" xlink:href="#linear-gradient"/><linearGradient id="linear-gradient-5" x1="157.28" y1="160.39" x2="159.5" y2="113.76" gradientUnits="userSpaceOnUse"><stop offset="0" stop-color="#fff"/><stop offset="1" stop-color="#dedfe0"/></linearGradient><linearGradient id="linear-gradient-6" x1="290.12" y1="140.77" x2="160.64" y2="56.75" xlink:href="#linear-gradient"/></defs><g class="cls-1"><g id="Layer_1" data-name="Layer 1"><polygon class="cls-2" points="251.07 0 52.6 93.26 71.44 153.92 251.07 0"/><polygon class="cls-3" points="251.07 0 52.6 93.26 71.44 153.92 251.07 0"/><polygon class="cls-4" points="251.07 0 52.6 93.26 19.56 95.52 0 77.41 251.07 0"/><polygon class="cls-5" points="251.07 0 90.27 115.17 71.44 153.92 251.07 0"/><polygon class="cls-6" points="251.07 0 90.27 115.17 71.44 153.92 251.07 0"/><polygon class="cls-7" points="251.07 0 90.27 115.17 115.35 142.78 146.13 154.01 251.07 0"/><polygon class="cls-8" points="146.13 154.01 115.35 142.78 90.27 115.17 71.44 153.92 52.6 93.26 19.56 95.52 0 77.41 20.28 94.98 53.17 93.03 71.62 151.38 90.27 115.17 115.44 141.61 146.13 154.01"/></g></g></svg>