<svg id="Layer_1" data-name="Layer 1" xmlns="http://www.w3.org/2000/svg" xmlns:xlink="http://www.w3.org/1999/xlink" viewBox="0 0 435.74 338.38"><defs><style>.cls-1{fill:#bebebe;}.cls-2{fill:url(#linear-gradient);}.cls-3{fill:url(#linear-gradient-2);}.cls-4{fill:#acacac;}.cls-5{fill:url(#linear-gradient-3);}.cls-6{fill:url(#linear-gradient-4);}.cls-7{fill:#dfdfdf;}.cls-8{fill:url(#linear-gradient-5);}.cls-9{fill:url(#linear-gradient-6);}.cls-10{fill:url(#linear-gradient-7);}.cls-11{fill:url(#linear-gradient-8);}.cls-12{fill:none;stroke:#000;stroke-miterlimit:10;}.cls-13{fill:#231f20;}</style><linearGradient id="linear-gradient" x1="2.31" y1="-31.43" x2="153.79" y2="-31.43" gradientTransform="translate(-2.31 302.96)" gradientUnits="userSpaceOnUse"><stop offset="0" stop-color="#adadad"/><stop offset="1" stop-color="#9d9d9d"/></linearGradient><linearGradient id="linear-gradient-2" x1="153.79" y1="-31.43" x2="305.26" y2="-31.43" xlink:href="#linear-gradient"/><linearGradient id="linear-gradient-3" x1="47.6" y1="-98.01" x2="153.79" y2="-98.01" gradientTransform="translate(-2.31 302.96)" gradientUnits="userSpaceOnUse"><stop offset="0" stop-color="#9d9d9d"/><stop offset="1" stop-color="#848484"/></linearGradient><linearGradient id="linear-gradient-4" x1="153.79" y1="-98.01" x2="259.98" y2="-98.01" xlink:href="#linear-gradient-3"/><linearGradient id="linear-gradient-5" x1="92.01" y1="-155.76" x2="153.79" y2="-155.76" gradientTransform="translate(-2.31 302.96)" gradientUnits="userSpaceOnUse"><stop offset="0" stop-color="#d3d3d3"/><stop offset="1" stop-color="#bebebe"/></linearGradient><linearGradient id="linear-gradient-6" x1="153.79" y1="-155.76" x2="215.57" y2="-155.76" xlink:href="#linear-gradient-5"/><linearGradient id="linear-gradient-7" x1="128.06" y1="-211.61" x2="153.79" y2="-211.61" gradientTransform="translate(-2.31 302.96)" gradientUnits="userSpaceOnUse"><stop offset="0" stop-color="#a0a0a0"/><stop offset="1" stop-color="#848484"/></linearGradient><linearGradient id="linear-gradient-8" x1="153.79" y1="-211.61" x2="179.51" y2="-211.61" xlink:href="#linear-gradient-7"/></defs><g id="Layer_1-2" data-name="Layer 1-2"><polygon class="cls-1" points="151.48 275.88 28.18 204.69 151.48 133.5 274.77 204.69 151.48 275.88"/><polygon class="cls-2" points="0 250.91 151.48 338.38 151.48 275.88 28.18 204.69 0 250.91"/><polygon class="cls-3" points="151.48 275.88 151.48 275.88 151.48 338.38 302.95 250.91 274.77 204.69 151.48 275.88"/><polygon class="cls-4" points="151.48 195.43 74.04 150.72 151.48 106.02 228.92 150.72 151.48 195.43"/><polygon class="cls-5" points="45.29 197.9 151.48 259.2 151.48 195.43 74.04 150.72 45.29 197.9"/><polygon class="cls-6" points="151.48 195.43 151.48 195.43 151.48 259.2 257.67 197.9 228.92 150.72 151.48 195.43"/><polygon class="cls-7" points="151.48 131.72 113.53 109.81 151.48 87.91 189.43 109.81 151.48 131.72"/><polygon class="cls-8" points="89.7 148.91 151.48 184.59 151.48 131.72 113.53 109.81 89.7 148.91"/><polygon class="cls-9" points="151.48 131.72 151.48 131.72 151.48 184.59 213.26 148.91 189.42 109.81 151.48 131.72"/><polygon class="cls-10" points="125.75 105.03 151.48 119.89 151.48 62.83 125.75 105.03"/><polygon class="cls-11" points="177.2 105.03 151.48 62.83 151.48 119.89 151.48 119.89 177.2 105.03"/></g><g id="Layer_2" data-name="Layer 2"><line class="cls-12" x1="186.73" y1="5.57" x2="310.17" y2="5.57"/><line class="cls-12" x1="153.56" y1="49.67" x2="186.73" y2="5.57"/><circle class="cls-13" cx="153.77" cy="49.88" r="2.31"/><circle class="cls-13" cx="310.38" cy="5.36" r="2.31"/><path class="cls-13" d="M301.69,202.41H286.44a1.86,1.86,0,1,0,0,.33h15.24a1.85,1.85,0,1,0,0-.37Z" transform="translate(0 0.38)"/><path class="cls-13" d="M257.49,131.59l-14.22,12.3a2.36,2.36,0,1,0,.34.29l13.94-12.12h47.94a2.34,2.34,0,1,0,0-.47Z" transform="translate(0 0.38)"/><line class="cls-12" x1="211.92" y1="90.39" x2="308.28" y2="90.39"/><circle class="cls-13" cx="309.96" cy="90.6" r="2.31"/><line class="cls-12" x1="193.65" y1="104.9" x2="212.13" y2="90.18"/><circle class="cls-13" cx="194.08" cy="105.29" r="2.31"/></g><path d="M329.94,6.39a.39.39,0,0,1,.44.44.51.51,0,0,1-.11.37.45.45,0,0,1-.33.1h-1a2.25,2.25,0,0,1-1.78,2.24,5.25,5.25,0,0,1-1.26.13,3,3,0,0,1-2.23-.76,2.81,2.81,0,0,1-.77-2.1V5.33h.93V6.62A1.88,1.88,0,0,0,326,8.76a2.19,2.19,0,0,0,1.58-.47A2.18,2.18,0,0,0,328,6.71V-.38H329V6.39Z" transform="translate(0 0.38)"/><path d="M330.05,7.3h-.12a.38.38,0,0,1-.44-.43.52.52,0,0,1,.11-.38.45.45,0,0,1,.33-.1h.1a.74.74,0,0,0,.48-.14,1.75,1.75,0,0,0,.51-.9,3.34,3.34,0,0,1,1.06-1.74,2.12,2.12,0,0,1,1.35-.43,1.78,1.78,0,0,1,1.34.57,2.13,2.13,0,0,1,.54,1.51,2.75,2.75,0,0,1,0,.41c.15.48.41.72.77.72a.39.39,0,0,1,.44.45.47.47,0,0,1-.11.36.44.44,0,0,1-.33.1,1.11,1.11,0,0,1-1-.72,1.78,1.78,0,0,1-1.7.87,3.52,3.52,0,0,1-2-.76,1.21,1.21,0,0,1-.88.59Zm4.33-1.93a1.17,1.17,0,0,0-.62-1.19,1.11,1.11,0,0,0-.46-.09c-.74,0-1.26.61-1.56,1.82a2.42,2.42,0,0,0,1.55.62C334,6.53,334.38,6.14,334.38,5.37Z" transform="translate(0 0.38)"/><path d="M336.07,7.3a.39.39,0,0,1-.44-.44.49.49,0,0,1,.11-.37.45.45,0,0,1,.33-.1h.6a5.38,5.38,0,0,0,1.6-.23l-1.41-1.57A2.41,2.41,0,0,1,337.1,4a2.1,2.1,0,0,1,.2-.3,2.54,2.54,0,0,1,.87-.55,2.82,2.82,0,0,1,1.06-.21,2.33,2.33,0,0,1,1.48.4,1.2,1.2,0,0,1,.51,1,2.56,2.56,0,0,1-1.32,2.06,2.44,2.44,0,0,0,.55,0h1.4a.39.39,0,0,1,.44.44.51.51,0,0,1-.11.37.44.44,0,0,1-.33.1h-1.7a2.49,2.49,0,0,1-.61-.08,1.71,1.71,0,0,1-.61-.36,6.05,6.05,0,0,1-2.22.44Zm3.17-3.5a1.92,1.92,0,0,0-1.48.61l1.35,1.42a2.21,2.21,0,0,0,1.09-1,.93.93,0,0,0,.08-.35.61.61,0,0,0-.06-.28A.63.63,0,0,0,340,4,1.36,1.36,0,0,0,339.24,3.8Z" transform="translate(0 0.38)"/><path d="M341.85,7.3a.39.39,0,0,1-.44-.44.49.49,0,0,1,.11-.37.45.45,0,0,1,.33-.1h1.35V-.38h.93V7.3Z" transform="translate(0 0.38)"/><path d="M346.57-.38V7.3h-.93V-.38Z" transform="translate(0 0.38)"/><path d="M352.76,6.4a5,5,0,0,1-.62,0,2.46,2.46,0,0,1-.45-.11,1.67,1.67,0,0,1-1.15-1.68,2,2,0,0,1,.72-1.72,2.44,2.44,0,0,1,1.57-.46h1.78V5.54a1,1,0,0,0,.12.62.81.81,0,0,0,.66.23h.21a.39.39,0,0,1,.44.44.51.51,0,0,1-.11.37.44.44,0,0,1-.33.1h-.35c-.93,0-1.45-.37-1.55-1.1A2.94,2.94,0,0,1,352.76,6.4Zm-.65-1a2.26,2.26,0,0,0,.68.07,2,2,0,0,0,.89-.2v-2h-1a1.09,1.09,0,0,0-1.13.62,1.28,1.28,0,0,0-.09.48,1.53,1.53,0,0,0,.06.45.72.72,0,0,0,.21.33A1,1,0,0,0,352.11,5.41Zm-.45-5a.54.54,0,0,1,.18-.41.45.45,0,0,1,.35-.17.62.62,0,0,1,.47.17.51.51,0,0,1,.17.35.64.64,0,0,1-.17.47.48.48,0,0,1-.35.17.78.78,0,0,1-.29,0,.59.59,0,0,1-.18-.13A.54.54,0,0,1,351.66.38Zm1.44,0a.54.54,0,0,1,.18-.41.45.45,0,0,1,.34-.17.63.63,0,0,1,.48.17.51.51,0,0,1,.17.35.64.64,0,0,1-.17.47.48.48,0,0,1-.35.17.78.78,0,0,1-.29,0,.59.59,0,0,1-.18-.13A.54.54,0,0,1,353.1.38Z" transform="translate(0 0.38)"/><path d="M356.61,5.25a2.38,2.38,0,0,1,.6-1.7,2.15,2.15,0,0,1,1.66-.65,1.78,1.78,0,0,1,1.58.78,2.79,2.79,0,0,1,.41,1.57V6.39h.78a.38.38,0,0,1,.44.44.51.51,0,0,1-.1.37.46.46,0,0,1-.34.1h-6.06a.39.39,0,0,1-.44-.44.5.5,0,0,1,.1-.37.48.48,0,0,1,.34-.1h1.34A2.39,2.39,0,0,1,356.61,5.25Zm.79-4a.57.57,0,0,1,.17-.41.48.48,0,0,1,.35-.18.61.61,0,0,1,.47.18.47.47,0,0,1,.18.35.63.63,0,0,1-.18.47.51.51,0,0,1-.35.17.56.56,0,0,1-.28-.05.76.76,0,0,1-.19-.12A.58.58,0,0,1,357.4,1.22Zm.15,3.91a1.17,1.17,0,0,0,.37.93,1.44,1.44,0,0,0,1,.33h1V5.29a1.89,1.89,0,0,0-.17-1,1.2,1.2,0,0,0-.42-.42,1.08,1.08,0,0,0-.56-.14,1.27,1.27,0,0,0-.54.11,1.09,1.09,0,0,0-.36.28A1.39,1.39,0,0,0,357.55,5.13Zm1.28-3.91A.54.54,0,0,1,359,.81a.47.47,0,0,1,.35-.18.63.63,0,0,1,.47.18.49.49,0,0,1,.17.35.66.66,0,0,1-.17.47.52.52,0,0,1-.35.17.6.6,0,0,1-.29-.05.57.57,0,0,1-.18-.12A.55.55,0,0,1,358.83,1.22Z" transform="translate(0 0.38)"/><path d="M361.64,7.3a.39.39,0,0,1-.44-.44.49.49,0,0,1,.11-.37.45.45,0,0,1,.33-.1h1.69V3.07h.93V7.3Zm.44,1.79a.58.58,0,0,1,.17-.41.51.51,0,0,1,.35-.17.64.64,0,0,1,.47.17.47.47,0,0,1,.17.35.61.61,0,0,1-.17.47.47.47,0,0,1-.35.17.72.72,0,0,1-.28,0,.5.5,0,0,1-.19-.13A.57.57,0,0,1,362.08,9.09Zm1.43,0a.54.54,0,0,1,.17-.41.51.51,0,0,1,.35-.17.64.64,0,0,1,.47.17.47.47,0,0,1,.17.35.61.61,0,0,1-.17.47.47.47,0,0,1-.35.17.78.78,0,0,1-.29,0,.46.46,0,0,1-.18-.13A.53.53,0,0,1,363.51,9.09Z" transform="translate(0 0.38)"/><path d="M368.62,6.39a.39.39,0,0,1,.44.44.51.51,0,0,1-.11.37.4.4,0,0,1-.3.1,1.53,1.53,0,0,1-.64-.14.79.79,0,0,1-.39-.34A4.25,4.25,0,0,1,367.19,9a1.83,1.83,0,0,1-1.64.64h-.32V8.76h.36c.51,0,.83-.17,1-.5a2,2,0,0,0,.12-.66c0-.27,0-.59,0-1V3.07h.94V5.18C367.63,6,368,6.39,368.62,6.39Z" transform="translate(0 0.38)"/><path d="M368.62,7.3a.39.39,0,0,1-.45-.44.49.49,0,0,1,.11-.37.46.46,0,0,1,.34-.1H370V-.38h.93V4.74a3.48,3.48,0,0,1,3-1.84,2.27,2.27,0,0,1,1.72.67,2.67,2.67,0,0,1,.61,1.87V7.3Zm6.71-1.83c0-1.1-.51-1.66-1.54-1.66a2.44,2.44,0,0,0-1.76.78,4.33,4.33,0,0,0-1.1,1.8h4.4Z" transform="translate(0 0.38)"/><path d="M387.26,6.39a.38.38,0,0,1,.44.44.51.51,0,0,1-.1.37.46.46,0,0,1-.34.1h-1a2.23,2.23,0,0,1-1.77,2.24,5.34,5.34,0,0,1-1.27.13A3,3,0,0,1,381,8.91a2.78,2.78,0,0,1-.78-2.1V5.33h.94V6.62a1.88,1.88,0,0,0,2.11,2.14,2.21,2.21,0,0,0,1.58-.47,2.18,2.18,0,0,0,.48-1.58V-.38h.93V6.39Z" transform="translate(0 0.38)"/><path d="M387.26,7.3a.39.39,0,0,1-.44-.44.49.49,0,0,1,.11-.37.45.45,0,0,1,.33-.1H389V3.07h.93V7.3Zm.44,1.79a.58.58,0,0,1,.17-.41.51.51,0,0,1,.35-.17.64.64,0,0,1,.47.17.47.47,0,0,1,.17.35.61.61,0,0,1-.17.47.47.47,0,0,1-.35.17.72.72,0,0,1-.28,0,.5.5,0,0,1-.19-.13A.57.57,0,0,1,387.7,9.09Zm1.43,0a.54.54,0,0,1,.17-.41.51.51,0,0,1,.35-.17.64.64,0,0,1,.47.17.47.47,0,0,1,.17.35.61.61,0,0,1-.17.47.47.47,0,0,1-.35.17.78.78,0,0,1-.29,0,.55.55,0,0,1-.18-.13A.53.53,0,0,1,389.13,9.09Z" transform="translate(0 0.38)"/><path d="M396.3,6.39a.39.39,0,0,1,.44.44.51.51,0,0,1-.11.37.45.45,0,0,1-.33.1h-.79a2.33,2.33,0,0,1-.81,1.85,4.09,4.09,0,0,1-2.35.52h-.46V8.76h.33a4,4,0,0,0,1.85-.3,1.25,1.25,0,0,0,.53-1.16h-1.24a1.85,1.85,0,0,1-1.92-1.09,2.19,2.19,0,0,1-.16-.88,2.56,2.56,0,0,1,.59-1.71,2,2,0,0,1,1.58-.72,1.87,1.87,0,0,1,2,1.69,6,6,0,0,1,.11,1.18v.62Zm-1.7-.82c0-1.19-.41-1.79-1.22-1.79a1,1,0,0,0-.91.43,1.54,1.54,0,0,0-.32,1,1.15,1.15,0,0,0,.32.88,1.33,1.33,0,0,0,.95.32h1.18Z" transform="translate(0 0.38)"/><path d="M402.28,6.39c.3,0,.45.14.45.44a.51.51,0,0,1-.11.37.44.44,0,0,1-.33.1h-6a.39.39,0,0,1-.44-.44.49.49,0,0,1,.11-.37.45.45,0,0,1,.33-.1h4.42a2.56,2.56,0,0,0-.64-1.94,2.36,2.36,0,0,0-1.7-.61,4.79,4.79,0,0,0-1.26.18V3.15a4.78,4.78,0,0,1,1.45-.23,3.06,3.06,0,0,1,1.34.28,2.55,2.55,0,0,1,1,.75,3.85,3.85,0,0,1,.77,2.44Z" transform="translate(0 0.38)"/><path d="M402.28,7.3a.39.39,0,0,1-.44-.44.49.49,0,0,1,.11-.37.45.45,0,0,1,.33-.1H404V3.07h.94V7.3ZM403,1.22a.53.53,0,0,1,.17-.41.48.48,0,0,1,.35-.18.61.61,0,0,1,.47.18.49.49,0,0,1,.17.35.66.66,0,0,1-.17.47.51.51,0,0,1-.35.17.6.6,0,0,1-.29-.05.57.57,0,0,1-.18-.12A.54.54,0,0,1,403,1.22Zm1.43,0a.53.53,0,0,1,.17-.41A.47.47,0,0,1,405,.63a.61.61,0,0,1,.47.18.49.49,0,0,1,.17.35.66.66,0,0,1-.17.47.51.51,0,0,1-.35.17.6.6,0,0,1-.29-.05.57.57,0,0,1-.18-.12A.54.54,0,0,1,404.45,1.22Z" transform="translate(0 0.38)"/><path d="M329.94,90.07a.39.39,0,0,1,.44.44.51.51,0,0,1-.11.37.45.45,0,0,1-.33.1h-1a2.25,2.25,0,0,1-1.78,2.24,5.25,5.25,0,0,1-1.26.13,3,3,0,0,1-2.23-.76,2.82,2.82,0,0,1-.77-2.1V89h.93V90.3A1.88,1.88,0,0,0,326,92.44a1.74,1.74,0,0,0,2.06-2V83.3H329v6.77Z" transform="translate(0 0.38)"/><path d="M330.05,91h-.12a.38.38,0,0,1-.44-.43.52.52,0,0,1,.11-.38.45.45,0,0,1,.33-.1h.1a.74.74,0,0,0,.48-.14A1.83,1.83,0,0,0,331,89a3.27,3.27,0,0,1,1.05-1.74,2.12,2.12,0,0,1,1.35-.44,1.79,1.79,0,0,1,1.34.58,2.14,2.14,0,0,1,.55,1.51,2.73,2.73,0,0,1,0,.41c.15.48.41.72.77.72a.39.39,0,0,1,.44.45.47.47,0,0,1-.11.36.42.42,0,0,1-.33.1,1.11,1.11,0,0,1-1-.72,1.77,1.77,0,0,1-1.7.86,3.52,3.52,0,0,1-2-.75,1.19,1.19,0,0,1-.88.59Zm4.33-1.93a1.17,1.17,0,0,0-.62-1.19,1.1,1.1,0,0,0-.45-.09c-.75,0-1.27.61-1.57,1.82a2.42,2.42,0,0,0,1.55.62C334,90.21,334.38,89.82,334.38,89.05Z" transform="translate(0 0.38)"/><path d="M336.07,91a.39.39,0,0,1-.44-.44.49.49,0,0,1,.11-.37.45.45,0,0,1,.33-.1h.6a5.38,5.38,0,0,0,1.6-.23l-1.41-1.57a2.68,2.68,0,0,1,.24-.62,2.51,2.51,0,0,1,.2-.29,2.54,2.54,0,0,1,.87-.55,2.82,2.82,0,0,1,1.06-.21,2.33,2.33,0,0,1,1.48.4,1.2,1.2,0,0,1,.51,1A2.56,2.56,0,0,1,339.9,90a2.44,2.44,0,0,0,.55,0h1.4a.39.39,0,0,1,.44.44.51.51,0,0,1-.11.37.44.44,0,0,1-.33.1h-1.7a2.49,2.49,0,0,1-.61-.08,1.71,1.71,0,0,1-.61-.36,6.05,6.05,0,0,1-2.22.44Zm3.17-3.5a1.94,1.94,0,0,0-1.48.6l1.35,1.43a2.21,2.21,0,0,0,1.09-1,.93.93,0,0,0,.08-.35.61.61,0,0,0-.06-.28.55.55,0,0,0-.2-.2A1.36,1.36,0,0,0,339.24,87.48Z" transform="translate(0 0.38)"/><path d="M341.85,91a.39.39,0,0,1-.44-.44.55.55,0,0,1,.1-.37.48.48,0,0,1,.34-.1h1.35V83.3h.93V91Z" transform="translate(0 0.38)"/><path d="M346.57,83.3V91h-.93V83.3Z" transform="translate(0 0.38)"/><path d="M352.71,93.77c-1.45-.58-2.17-1.32-2.17-2.21a1.24,1.24,0,0,1,.58-1.12,2.8,2.8,0,0,1,1.55-.37h2.79a2.56,2.56,0,0,0-.65-1.94,2.36,2.36,0,0,0-1.7-.61,4.79,4.79,0,0,0-1.26.18v-.87a4.37,4.37,0,0,1,1.32-.23,4.18,4.18,0,0,1,1.07.13,2.77,2.77,0,0,1,1.82,1.63,4.76,4.76,0,0,1,.34,1.82V91h-3.93a1,1,0,0,0-.92.35.49.49,0,0,0-.07.28.86.86,0,0,0,.43.65,7,7,0,0,0,1.24.68Zm1.33-1a.54.54,0,0,1,.17-.41.51.51,0,0,1,.35-.17.64.64,0,0,1,.47.17.47.47,0,0,1,.17.35.61.61,0,0,1-.17.47.47.47,0,0,1-.35.17.78.78,0,0,1-.29,0,.55.55,0,0,1-.18-.13A.53.53,0,0,1,354,92.77Z" transform="translate(0 0.38)"/><path d="M360,91h-2.63v-.91h2.55a.53.53,0,0,0,.51-.24c.08-.15,0-.36-.13-.62L358.86,87l.81-.51,1.5,2.43a1.47,1.47,0,0,1,.22.69,1.26,1.26,0,0,1-.13.67,1.21,1.21,0,0,1-.48.5A1.54,1.54,0,0,1,360,91Zm-1.38-6.08a.57.57,0,0,1,.17-.41.5.5,0,0,1,.35-.18.65.65,0,0,1,.48.18.49.49,0,0,1,.17.35.66.66,0,0,1-.17.47.52.52,0,0,1-.35.17.67.67,0,0,1-.48-.17A.58.58,0,0,1,358.59,84.9Z" transform="translate(0 0.38)"/><path d="M367.66,90.07c.29,0,.43.14.43.44a.51.51,0,0,1-.1.37.45.45,0,0,1-.33.1h-.79a2.36,2.36,0,0,1-.81,1.85,4.11,4.11,0,0,1-2.35.52h-.47v-.91h.34a4,4,0,0,0,1.85-.3A1.28,1.28,0,0,0,366,91h-1.24a1.85,1.85,0,0,1-1.93-1.09,2.38,2.38,0,0,1-.16-.88,2.57,2.57,0,0,1,.6-1.71,2,2,0,0,1,1.58-.72,1.86,1.86,0,0,1,2,1.69,5.32,5.32,0,0,1,.11,1.18v.62Zm-1.7-.82c0-1.19-.41-1.79-1.23-1.79a1.07,1.07,0,0,0-.91.43,1.6,1.6,0,0,0-.32,1,1.15,1.15,0,0,0,.33.88,1.33,1.33,0,0,0,.95.32H366Z" transform="translate(0 0.38)"/><path d="M367.77,91h-.11c-.3,0-.45-.14-.45-.43a.52.52,0,0,1,.11-.38.46.46,0,0,1,.34-.1h.09a.79.79,0,0,0,.49-.14,1.91,1.91,0,0,0,.51-.9,3.27,3.27,0,0,1,1.05-1.74,2.12,2.12,0,0,1,1.35-.44,1.79,1.79,0,0,1,1.34.58,2.14,2.14,0,0,1,.55,1.51,2.73,2.73,0,0,1,0,.41c.15.48.41.72.77.72a.39.39,0,0,1,.44.45.51.51,0,0,1-.1.36.46.46,0,0,1-.34.1,1.11,1.11,0,0,1-1-.72,1.76,1.76,0,0,1-1.69.86,3.53,3.53,0,0,1-2-.75,1.19,1.19,0,0,1-.88.59Zm4.33-1.93a1.17,1.17,0,0,0-.62-1.19,1.06,1.06,0,0,0-.45-.09c-.75,0-1.27.61-1.57,1.82a2.42,2.42,0,0,0,1.55.62C371.74,90.21,372.1,89.82,372.1,89.05Z" transform="translate(0 0.38)"/><path d="M373.79,91a.39.39,0,0,1-.44-.44.5.5,0,0,1,.1-.37.46.46,0,0,1,.34-.1h1.68V86.75h.93V91Zm1.56-6.08a.53.53,0,0,1,.17-.41.48.48,0,0,1,.35-.18.61.61,0,0,1,.47.18.45.45,0,0,1,.17.35.66.66,0,0,1-.17.47.52.52,0,0,1-.35.17.76.76,0,0,1-.29,0,.57.57,0,0,1-.18-.12A.54.54,0,0,1,375.35,84.9Z" transform="translate(0 0.38)"/><path d="M387.5,90.07a.39.39,0,0,1,.44.44.51.51,0,0,1-.1.37.48.48,0,0,1-.34.1h-1a2.25,2.25,0,0,1-1.77,2.24,5.39,5.39,0,0,1-1.27.13,3,3,0,0,1-2.23-.76,2.82,2.82,0,0,1-.77-2.1V89h.94V90.3a1.88,1.88,0,0,0,2.11,2.14,1.73,1.73,0,0,0,2.05-2V83.3h.94v6.77Z" transform="translate(0 0.38)"/><path d="M387.5,91a.39.39,0,0,1-.44-.44.5.5,0,0,1,.1-.37.48.48,0,0,1,.34-.1h1.68V86.75h.94V91Zm.44,1.79a.54.54,0,0,1,.17-.41.49.49,0,0,1,.35-.17.66.66,0,0,1,.47.17.51.51,0,0,1,.17.35.64.64,0,0,1-.17.47.48.48,0,0,1-.35.17.78.78,0,0,1-.29,0,.46.46,0,0,1-.18-.13A.53.53,0,0,1,387.94,92.77Zm1.42,0a.55.55,0,0,1,.18-.41.48.48,0,0,1,.34-.17.69.69,0,0,1,.48.17.51.51,0,0,1,.17.35.64.64,0,0,1-.17.47.48.48,0,0,1-.35.17.78.78,0,0,1-.29,0,.46.46,0,0,1-.18-.13A.54.54,0,0,1,389.36,92.77Z" transform="translate(0 0.38)"/><path d="M396.54,90.07a.39.39,0,0,1,.44.44.51.51,0,0,1-.11.37.45.45,0,0,1-.33.1h-.79a2.36,2.36,0,0,1-.81,1.85,4.09,4.09,0,0,1-2.35.52h-.47v-.91h.34a4,4,0,0,0,1.85-.3,1.28,1.28,0,0,0,.53-1.16H393.6a1.86,1.86,0,0,1-1.93-1.09,2.38,2.38,0,0,1-.16-.88,2.57,2.57,0,0,1,.6-1.71,2,2,0,0,1,1.58-.72,1.86,1.86,0,0,1,2,1.69,5.32,5.32,0,0,1,.11,1.18v.62Zm-1.7-.82c0-1.19-.41-1.79-1.22-1.79a1.08,1.08,0,0,0-.92.43,1.6,1.6,0,0,0-.32,1,1.15,1.15,0,0,0,.33.88,1.33,1.33,0,0,0,1,.32h1.18Z" transform="translate(0 0.38)"/><path d="M402.52,90.07a.38.38,0,0,1,.44.44.51.51,0,0,1-.1.37.46.46,0,0,1-.34.1h-6a.39.39,0,0,1-.44-.44.5.5,0,0,1,.1-.37.48.48,0,0,1,.34-.1H401a2.56,2.56,0,0,0-.64-1.94,2.36,2.36,0,0,0-1.7-.61,4.79,4.79,0,0,0-1.26.18v-.87a4.73,4.73,0,0,1,1.45-.23,3.09,3.09,0,0,1,1.34.28,2.71,2.71,0,0,1,1,.74,3.83,3.83,0,0,1,.76,2.45Z" transform="translate(0 0.38)"/><path d="M402.52,91a.39.39,0,0,1-.44-.44.5.5,0,0,1,.1-.37.46.46,0,0,1,.34-.1h1.68V86.75h.93V91Zm.73-6.08a.54.54,0,0,1,.18-.41.46.46,0,0,1,.34-.18.65.65,0,0,1,.48.18.49.49,0,0,1,.17.35.66.66,0,0,1-.17.47.52.52,0,0,1-.35.17.76.76,0,0,1-.29,0,.57.57,0,0,1-.18-.12A.55.55,0,0,1,403.25,84.9Zm1.43,0a.57.57,0,0,1,.17-.41.48.48,0,0,1,.35-.18.65.65,0,0,1,.48.18.49.49,0,0,1,.17.35.66.66,0,0,1-.17.47.55.55,0,0,1-.36.17.7.7,0,0,1-.28,0,.76.76,0,0,1-.19-.12A.58.58,0,0,1,404.68,84.9Z" transform="translate(0 0.38)"/><path d="M329.94,132.22a.39.39,0,0,1,.44.44.51.51,0,0,1-.11.37.45.45,0,0,1-.33.1h-1a2.25,2.25,0,0,1-1.78,2.24,5.25,5.25,0,0,1-1.26.13,3,3,0,0,1-2.23-.76,2.82,2.82,0,0,1-.77-2.1v-1.48h.93v1.29a1.88,1.88,0,0,0,2.11,2.14,1.74,1.74,0,0,0,2.06-2.05v-7.09H329v6.77Z" transform="translate(0 0.38)"/><path d="M330.05,133.13h-.12a.38.38,0,0,1-.44-.43.52.52,0,0,1,.11-.38.45.45,0,0,1,.33-.1h.1a.74.74,0,0,0,.48-.14,1.83,1.83,0,0,0,.52-.9,3.27,3.27,0,0,1,1.05-1.74,2.12,2.12,0,0,1,1.35-.44,1.79,1.79,0,0,1,1.34.58,2.14,2.14,0,0,1,.55,1.51,2.73,2.73,0,0,1,0,.41c.15.48.41.72.77.72a.39.39,0,0,1,.44.45.47.47,0,0,1-.11.36.42.42,0,0,1-.33.1,1.11,1.11,0,0,1-1-.72,1.77,1.77,0,0,1-1.7.86,3.52,3.52,0,0,1-2-.75,1.19,1.19,0,0,1-.88.59Zm4.33-1.93a1.17,1.17,0,0,0-.62-1.19,1.1,1.1,0,0,0-.45-.09c-.75,0-1.27.61-1.57,1.82a2.42,2.42,0,0,0,1.55.62C334,132.36,334.38,132,334.38,131.2Z" transform="translate(0 0.38)"/><path d="M336.07,133.13a.39.39,0,0,1-.44-.44.49.49,0,0,1,.11-.37.45.45,0,0,1,.33-.1h.6a5.38,5.38,0,0,0,1.6-.23l-1.41-1.57a2.68,2.68,0,0,1,.24-.62,2.51,2.51,0,0,1,.2-.29,2.54,2.54,0,0,1,.87-.55,2.82,2.82,0,0,1,1.06-.21,2.33,2.33,0,0,1,1.48.4,1.2,1.2,0,0,1,.51,1,2.56,2.56,0,0,1-1.32,2.06,2.44,2.44,0,0,0,.55.05h1.4a.39.39,0,0,1,.44.44.51.51,0,0,1-.11.37.44.44,0,0,1-.33.1h-1.7a2.49,2.49,0,0,1-.61-.08,1.71,1.71,0,0,1-.61-.36,6.05,6.05,0,0,1-2.22.44Zm3.17-3.5a1.94,1.94,0,0,0-1.48.6l1.35,1.43a2.21,2.21,0,0,0,1.09-1,1,1,0,0,0,.08-.35.61.61,0,0,0-.06-.28.55.55,0,0,0-.2-.2A1.36,1.36,0,0,0,339.24,129.63Z" transform="translate(0 0.38)"/><path d="M341.85,133.13a.39.39,0,0,1-.44-.44.55.55,0,0,1,.1-.37.48.48,0,0,1,.34-.1h1.35v-6.77h.93v7.68Z" transform="translate(0 0.38)"/><path d="M346.57,125.45v7.68h-.93v-7.68Z" transform="translate(0 0.38)"/><path d="M351.58,132.46a1.88,1.88,0,0,0,2.11,2.13,2.24,2.24,0,0,0,1.59-.47,2.21,2.21,0,0,0,.47-1.58v-7.09h.94v7.11a3,3,0,0,1-.75,2.19,3.06,3.06,0,0,1-2.27.75,2.65,2.65,0,0,1-2.83-1.65,3.47,3.47,0,0,1-.19-1.2v-1.48h.93Z" transform="translate(0 0.38)"/><path d="M359.93,132.22a.39.39,0,0,1,.44.44.51.51,0,0,1-.11.37.45.45,0,0,1-.34.1h-.16a1.75,1.75,0,0,1-1.16-.35,1.47,1.47,0,0,1-.41-1.17v-6.16h.93v5.92a1,1,0,0,0,.12.62.85.85,0,0,0,.67.23Z" transform="translate(0 0.38)"/><path d="M365.9,132.22c.3,0,.45.14.45.44a.56.56,0,0,1-.1.37.46.46,0,0,1-.34.1h-6a.39.39,0,0,1-.45-.44.49.49,0,0,1,.11-.37.46.46,0,0,1,.34-.1h4.41a2.56,2.56,0,0,0-.64-1.94,2.36,2.36,0,0,0-1.7-.61,4.79,4.79,0,0,0-1.26.18V129a4.78,4.78,0,0,1,1.45-.23,3.06,3.06,0,0,1,1.34.28,2.71,2.71,0,0,1,1,.74,3.9,3.9,0,0,1,.77,2.45Zm-4.24,2.68a.57.57,0,0,1,.17-.41.47.47,0,0,1,.35-.17.61.61,0,0,1,.47.17.48.48,0,0,1,.18.35.61.61,0,0,1-.18.47.47.47,0,0,1-.35.17.72.72,0,0,1-.28,0,.8.8,0,0,1-.19-.13A.57.57,0,0,1,361.66,134.9Z" transform="translate(0 0.38)"/><path d="M369.73,133.27a3.53,3.53,0,0,1-2-.75,1.24,1.24,0,0,1-.94.59l-.38,0h-.47c-.3,0-.44-.14-.44-.43a.53.53,0,0,1,.1-.38.46.46,0,0,1,.34-.1h.45a.84.84,0,0,0,.51-.14,1.68,1.68,0,0,0,.56-.91,3.2,3.2,0,0,1,1.05-1.73,2.12,2.12,0,0,1,1.35-.44,1.79,1.79,0,0,1,1.34.58,2.1,2.1,0,0,1,.55,1.51,2,2,0,0,1-1.11,2A2.33,2.33,0,0,1,369.73,133.27Zm1-2.07a1.17,1.17,0,0,0-.61-1.19,1.14,1.14,0,0,0-.46-.09c-.74,0-1.27.61-1.56,1.82a2.4,2.4,0,0,0,1.54.62C370.41,132.36,370.77,132,370.77,131.2Z" transform="translate(0 0.38)"/><path d="M382.65,132.22a.39.39,0,0,1,.44.44.51.51,0,0,1-.1.37.48.48,0,0,1-.34.1h-1a2.25,2.25,0,0,1-1.78,2.24,5.25,5.25,0,0,1-1.26.13,3,3,0,0,1-2.23-.76,2.82,2.82,0,0,1-.77-2.1v-1.48h.93v1.29a1.88,1.88,0,0,0,2.12,2.14,1.73,1.73,0,0,0,2.05-2.05v-7.09h.94v6.77Z" transform="translate(0 0.38)"/><path d="M382.65,133.13a.39.39,0,0,1-.44-.44.5.5,0,0,1,.1-.37.48.48,0,0,1,.34-.1h1.68V128.9h.93v4.23Zm.43,1.79a.54.54,0,0,1,.18-.41.49.49,0,0,1,.35-.17.66.66,0,0,1,.47.17.51.51,0,0,1,.17.35.64.64,0,0,1-.17.47.48.48,0,0,1-.35.17.78.78,0,0,1-.29,0,.46.46,0,0,1-.18-.13A.54.54,0,0,1,383.08,134.92Zm1.43,0a.57.57,0,0,1,.17-.41.52.52,0,0,1,.35-.17.69.69,0,0,1,.48.17.51.51,0,0,1,.17.35.64.64,0,0,1-.17.47.48.48,0,0,1-.35.17.78.78,0,0,1-.29,0,.59.59,0,0,1-.19-.13A.57.57,0,0,1,384.51,134.92Z" transform="translate(0 0.38)"/><path d="M391.69,132.22c.29,0,.43.14.43.44a.51.51,0,0,1-.1.37.45.45,0,0,1-.33.1h-.79a2.36,2.36,0,0,1-.81,1.85,4.11,4.11,0,0,1-2.35.52h-.47v-.91h.34a4,4,0,0,0,1.85-.3,1.28,1.28,0,0,0,.53-1.16h-1.24a1.85,1.85,0,0,1-1.93-1.09,2.38,2.38,0,0,1-.16-.88,2.57,2.57,0,0,1,.6-1.71,2,2,0,0,1,1.58-.72,1.86,1.86,0,0,1,2,1.69,5.32,5.32,0,0,1,.11,1.18v.62Zm-1.7-.82c0-1.19-.41-1.79-1.23-1.79a1.07,1.07,0,0,0-.91.43,1.6,1.6,0,0,0-.32,1,1.15,1.15,0,0,0,.33.88,1.33,1.33,0,0,0,.95.32H390Z" transform="translate(0 0.38)"/><path d="M397.67,132.22a.39.39,0,0,1,.44.44.51.51,0,0,1-.1.37.46.46,0,0,1-.34.1h-6a.39.39,0,0,1-.44-.44.5.5,0,0,1,.1-.37.48.48,0,0,1,.34-.1h4.42a2.6,2.6,0,0,0-.64-1.94,2.36,2.36,0,0,0-1.7-.61,4.79,4.79,0,0,0-1.26.18V129a4.73,4.73,0,0,1,1.45-.23,3.09,3.09,0,0,1,1.34.28,2.71,2.71,0,0,1,1,.74,3.89,3.89,0,0,1,.76,2.45Z" transform="translate(0 0.38)"/><path d="M397.67,133.13a.39.39,0,0,1-.44-.44.5.5,0,0,1,.1-.37.46.46,0,0,1,.34-.1h1.68V128.9h.93v4.23Zm.73-6.08a.54.54,0,0,1,.18-.41.46.46,0,0,1,.34-.18.65.65,0,0,1,.48.18.49.49,0,0,1,.17.35.66.66,0,0,1-.17.47.53.53,0,0,1-.36.17.7.7,0,0,1-.28,0,.57.57,0,0,1-.18-.12A.55.55,0,0,1,398.4,127.05Zm1.43,0a.57.57,0,0,1,.17-.41.48.48,0,0,1,.35-.18.65.65,0,0,1,.48.18.49.49,0,0,1,.17.35.66.66,0,0,1-.17.47.55.55,0,0,1-.36.17.7.7,0,0,1-.28,0,.76.76,0,0,1-.19-.12A.58.58,0,0,1,399.83,127.05Z" transform="translate(0 0.38)"/><path d="M330.71,202.76c0,.48-.3.86-.9,1.16a7.11,7.11,0,0,1-3,.49,5,5,0,0,1-3-.75,2.24,2.24,0,0,1-.89-1.88v-.95h.93v.78a1.55,1.55,0,0,0,.79,1.44,4.7,4.7,0,0,0,2.3.45,5.13,5.13,0,0,0,2.66-.46.47.47,0,0,0,.24-.38.56.56,0,0,0-.16-.38,2.56,2.56,0,0,0-.56-.42l-1.49-.94.46-.75,1.35.86a3.38,3.38,0,0,0,1.3.63.39.39,0,0,1,.44.44.51.51,0,0,1-.1.37.38.38,0,0,1-.3.1h-.12A.38.38,0,0,1,330.71,202.76Zm-5.19,2.9a.54.54,0,0,1,.18-.41.46.46,0,0,1,.34-.18.63.63,0,0,1,.48.18.51.51,0,0,1,.17.35.64.64,0,0,1-.17.47.52.52,0,0,1-.35.17.76.76,0,0,1-.29-.05.57.57,0,0,1-.18-.12A.55.55,0,0,1,325.52,205.66Zm1.43,0a.57.57,0,0,1,.17-.41.5.5,0,0,1,.35-.18.65.65,0,0,1,.48.18.51.51,0,0,1,.17.35.64.64,0,0,1-.17.47.55.55,0,0,1-.36.17.7.7,0,0,1-.28-.05.76.76,0,0,1-.19-.12A.58.58,0,0,1,327,205.66Z" transform="translate(0 0.38)"/><path d="M330.84,202.57h-.12a.38.38,0,0,1-.44-.43.52.52,0,0,1,.11-.38.45.45,0,0,1,.33-.1h.1a.74.74,0,0,0,.48-.14,1.83,1.83,0,0,0,.52-.9,3.27,3.27,0,0,1,1.05-1.74,2.12,2.12,0,0,1,1.35-.43,1.78,1.78,0,0,1,1.34.57,2.14,2.14,0,0,1,.55,1.51,2.73,2.73,0,0,1,0,.41c.15.48.41.72.77.72a.39.39,0,0,1,.44.45.47.47,0,0,1-.11.36.42.42,0,0,1-.33.1,1.11,1.11,0,0,1-1-.72,1.77,1.77,0,0,1-1.7.86,3.52,3.52,0,0,1-2-.75,1.19,1.19,0,0,1-.88.59Zm4.33-1.93a1.17,1.17,0,0,0-.62-1.19,1.1,1.1,0,0,0-.45-.09c-.75,0-1.27.61-1.57,1.82a2.42,2.42,0,0,0,1.55.62C334.81,201.8,335.17,201.41,335.17,200.64Z" transform="translate(0 0.38)"/><path d="M336.85,202.57a.39.39,0,0,1-.44-.44.5.5,0,0,1,.1-.37.46.46,0,0,1,.34-.1h.83a1.18,1.18,0,0,0,.62-.11.79.79,0,0,0,.28-.69v-2.52h.93v2.11c0,.59.17,1,.51,1.12a1.16,1.16,0,0,0,.49.09.39.39,0,0,1,.44.44.47.47,0,0,1-.11.37.41.41,0,0,1-.31.1,1.52,1.52,0,0,1-.71-.17,1.08,1.08,0,0,1-.45-.45,1.48,1.48,0,0,1-1.43.62Zm.87,1.79a.55.55,0,0,1,.18-.41.51.51,0,0,1,.35-.17.64.64,0,0,1,.47.17.47.47,0,0,1,.17.35.64.64,0,0,1-.17.47.47.47,0,0,1-.35.17.78.78,0,0,1-.29,0,.46.46,0,0,1-.18-.13A.54.54,0,0,1,337.72,204.36Zm1.43,0a.58.58,0,0,1,.17-.41.51.51,0,0,1,.35-.17.67.67,0,0,1,.48.17.51.51,0,0,1,.17.35.61.61,0,0,1-.18.47.47.47,0,0,1-.35.17.78.78,0,0,1-.29,0,.55.55,0,0,1-.18-.13A.57.57,0,0,1,339.15,204.36Z" transform="translate(0 0.38)"/><path d="M345.83,198.17a2.23,2.23,0,0,1,1.71.67,2.69,2.69,0,0,1,.62,1.87v.95h.78a.39.39,0,0,1,.44.44.56.56,0,0,1-.1.37.48.48,0,0,1-.34.1h-8.43a.39.39,0,0,1-.44-.44.5.5,0,0,1,.1-.37.48.48,0,0,1,.34-.1h1.38v-6.77h.93V200A3.51,3.51,0,0,1,345.83,198.17Zm1.39,2.57c0-1.1-.51-1.66-1.54-1.66a2.41,2.41,0,0,0-1.75.78,4.46,4.46,0,0,0-1.11,1.8h4.4Zm-2.1-4.25a.57.57,0,0,1,.17-.41.48.48,0,0,1,.35-.18.65.65,0,0,1,.48.18.44.44,0,0,1,.16.35.62.62,0,0,1-.17.47.51.51,0,0,1-.35.17.67.67,0,0,1-.28,0,.62.62,0,0,1-.19-.12A.58.58,0,0,1,345.12,196.49Z" transform="translate(0 0.38)"/><path d="M348.93,202.57a.39.39,0,0,1-.44-.44.5.5,0,0,1,.1-.37.46.46,0,0,1,.34-.1h.83a1.18,1.18,0,0,0,.62-.11.79.79,0,0,0,.28-.69v-2.52h.93v2.11c0,.59.17,1,.51,1.12a1.16,1.16,0,0,0,.49.09.39.39,0,0,1,.44.44.51.51,0,0,1-.11.37.41.41,0,0,1-.31.1,1.52,1.52,0,0,1-.71-.17,1.08,1.08,0,0,1-.45-.45,1.48,1.48,0,0,1-1.43.62Zm1.65-6.08a.54.54,0,0,1,.18-.41.46.46,0,0,1,.34-.18.65.65,0,0,1,.48.18.49.49,0,0,1,.17.35.66.66,0,0,1-.17.47.55.55,0,0,1-.36.17.7.7,0,0,1-.28,0,.57.57,0,0,1-.18-.12A.55.55,0,0,1,350.58,196.49Z" transform="translate(0 0.38)"/><path d="M352.58,202.57a.39.39,0,0,1-.44-.44.5.5,0,0,1,.1-.37.48.48,0,0,1,.34-.1h.83a1.16,1.16,0,0,0,.62-.11.76.76,0,0,0,.28-.69v-2.52h.93v2.11c0,.59.17,1,.51,1.12a1.16,1.16,0,0,0,.49.09.39.39,0,0,1,.44.44.51.51,0,0,1-.1.37.43.43,0,0,1-.31.1,1.56,1.56,0,0,1-.72-.17,1.08,1.08,0,0,1-.45-.45,1.47,1.47,0,0,1-1.43.62Zm.87-6.08a.54.54,0,0,1,.18-.41.48.48,0,0,1,.35-.18.61.61,0,0,1,.47.18.45.45,0,0,1,.17.35.66.66,0,0,1-.17.47.51.51,0,0,1-.35.17.76.76,0,0,1-.29,0,.57.57,0,0,1-.18-.12A.55.55,0,0,1,353.45,196.49Zm1.43,0a.57.57,0,0,1,.17-.41.5.5,0,0,1,.35-.18.63.63,0,0,1,.48.18.45.45,0,0,1,.17.35.66.66,0,0,1-.17.47.55.55,0,0,1-.36.17.67.67,0,0,1-.28,0,.76.76,0,0,1-.19-.12A.58.58,0,0,1,354.88,196.49Z" transform="translate(0 0.38)"/><path d="M356.24,202.57a.39.39,0,0,1-.44-.44.49.49,0,0,1,.11-.37.45.45,0,0,1,.33-.1h1.35v-6.77h.93v7.68Z" transform="translate(0 0.38)"/><path d="M361,194.89v7.68H360v-7.68Z" transform="translate(0 0.38)"/><path d="M364.53,198.17c1.39,0,2.09,1,2.09,2.87v1.21a2.55,2.55,0,0,1-.75,2.11,4,4,0,0,1-2.43.58H363V204h.34a4,4,0,0,0,1.85-.3,1.22,1.22,0,0,0,.51-1.16v-.32a2.58,2.58,0,0,1-1.3.32,1.8,1.8,0,0,1-1.87-1.11,2.39,2.39,0,0,1-.15-.88,2.54,2.54,0,0,1,.59-1.71A2,2,0,0,1,364.53,198.17Zm-1.3,2.3a1.15,1.15,0,0,0,.34.89,1.12,1.12,0,0,0,.82.33,2,2,0,0,0,1.29-.35v-.51c0-.84-.21-1.39-.63-1.64a1,1,0,0,0-.57-.14,1.14,1.14,0,0,0-.57.13,1,1,0,0,0-.39.33A1.59,1.59,0,0,0,363.23,200.47Z" transform="translate(0 0.38)"/><path d="M378.39,202.76c0,.48-.3.86-.9,1.16a7.11,7.11,0,0,1-3,.49,5,5,0,0,1-3-.75,2.24,2.24,0,0,1-.89-1.88v-.95h.93v.78a1.53,1.53,0,0,0,.79,1.44,4.7,4.7,0,0,0,2.3.45,5.13,5.13,0,0,0,2.66-.46.47.47,0,0,0,.24-.38.61.61,0,0,0-.16-.38,2.56,2.56,0,0,0-.56-.42l-1.49-.94.46-.75,1.35.86a3.38,3.38,0,0,0,1.3.63.39.39,0,0,1,.44.44.51.51,0,0,1-.1.37.38.38,0,0,1-.3.1h-.12A.38.38,0,0,1,378.39,202.76Zm-5.19,2.9a.54.54,0,0,1,.18-.41.46.46,0,0,1,.34-.18.65.65,0,0,1,.48.18.51.51,0,0,1,.17.35.64.64,0,0,1-.17.47.52.52,0,0,1-.35.17.76.76,0,0,1-.29-.05.57.57,0,0,1-.18-.12A.55.55,0,0,1,373.2,205.66Zm1.43,0a.57.57,0,0,1,.17-.41.5.5,0,0,1,.35-.18.65.65,0,0,1,.48.18.51.51,0,0,1,.17.35.64.64,0,0,1-.17.47.55.55,0,0,1-.36.17.7.7,0,0,1-.28-.05.76.76,0,0,1-.19-.12A.58.58,0,0,1,374.63,205.66Z" transform="translate(0 0.38)"/><path d="M379.43,200.52a2.38,2.38,0,0,1,.6-1.7,2.18,2.18,0,0,1,1.67-.65,1.76,1.76,0,0,1,1.57.78,2.72,2.72,0,0,1,.41,1.57v2H378.4a.39.39,0,0,1-.44-.44.49.49,0,0,1,.11-.37.45.45,0,0,1,.33-.1h1.34A2.51,2.51,0,0,1,379.43,200.52Zm.94-.12a1.17,1.17,0,0,0,.37.93,1.45,1.45,0,0,0,1,.33h1v-1.1a1.87,1.87,0,0,0-.18-.95,1.27,1.27,0,0,0-.41-.42,1.13,1.13,0,0,0-.56-.14,1.2,1.2,0,0,0-.54.11,1.13,1.13,0,0,0-.37.28A1.44,1.44,0,0,0,380.37,200.4Zm.74-3.91a.57.57,0,0,1,.17-.41.48.48,0,0,1,.35-.18.61.61,0,0,1,.47.18.47.47,0,0,1,.18.35.63.63,0,0,1-.18.47.51.51,0,0,1-.35.17.7.7,0,0,1-.28,0,.76.76,0,0,1-.19-.12A.58.58,0,0,1,381.11,196.49Z" transform="translate(0 0.38)"/><path d="M386.83,201.66a.39.39,0,0,1,.44.44.51.51,0,0,1-.11.37.46.46,0,0,1-.34.1h-.16a1.75,1.75,0,0,1-1.16-.35,1.47,1.47,0,0,1-.41-1.17v-6.16H386v5.92a1,1,0,0,0,.12.62.85.85,0,0,0,.67.23Z" transform="translate(0 0.38)"/><path d="M387.85,200.52a2.38,2.38,0,0,1,.6-1.7,2.15,2.15,0,0,1,1.66-.65,1.78,1.78,0,0,1,1.58.78,2.79,2.79,0,0,1,.41,1.57v1.14h.78a.38.38,0,0,1,.44.44.51.51,0,0,1-.1.37.46.46,0,0,1-.34.1h-6.06a.39.39,0,0,1-.44-.44.5.5,0,0,1,.1-.37.48.48,0,0,1,.34-.1h1.34A2.39,2.39,0,0,1,387.85,200.52Zm.79-4a.57.57,0,0,1,.17-.41.48.48,0,0,1,.35-.18.61.61,0,0,1,.47.18.45.45,0,0,1,.17.35.62.62,0,0,1-.17.47.51.51,0,0,1-.35.17.7.7,0,0,1-.28,0,.76.76,0,0,1-.19-.12A.58.58,0,0,1,388.64,196.49Zm.15,3.91a1.17,1.17,0,0,0,.37.93,1.44,1.44,0,0,0,1,.33h1v-1.1a1.89,1.89,0,0,0-.17-.95,1.2,1.2,0,0,0-.42-.42,1.08,1.08,0,0,0-.56-.14,1.24,1.24,0,0,0-.54.11,1.09,1.09,0,0,0-.36.28A1.39,1.39,0,0,0,388.79,200.4Zm1.28-3.91a.54.54,0,0,1,.18-.41.46.46,0,0,1,.34-.18.65.65,0,0,1,.48.18.49.49,0,0,1,.17.35.66.66,0,0,1-.17.47.52.52,0,0,1-.35.17.76.76,0,0,1-.29,0,.57.57,0,0,1-.18-.12A.55.55,0,0,1,390.07,196.49Z" transform="translate(0 0.38)"/><path d="M392.87,202.57a.39.39,0,0,1-.44-.44.49.49,0,0,1,.11-.37.45.45,0,0,1,.33-.1h.84a1.21,1.21,0,0,0,.62-.11.78.78,0,0,0,.27-.69v-2.52h.94v2.11c0,.59.17,1,.5,1.12a1.19,1.19,0,0,0,.49.09c.3,0,.45.14.45.44a.51.51,0,0,1-.11.37.41.41,0,0,1-.31.1,1.52,1.52,0,0,1-.71-.17,1,1,0,0,1-.44-.45,1.5,1.5,0,0,1-1.44.62Zm.9-6.08a.57.57,0,0,1,.17-.41.5.5,0,0,1,.35-.18.63.63,0,0,1,.48.18.44.44,0,0,1,.16.35.65.65,0,0,1-.16.47.52.52,0,0,1-.35.17.72.72,0,0,1-.29,0,.76.76,0,0,1-.19-.12A.58.58,0,0,1,393.77,196.49Zm.74-1.32a.61.61,0,0,1,.17-.42.51.51,0,0,1,.35-.17.7.7,0,0,1,.28,0,.62.62,0,0,1,.19.12.59.59,0,0,1,.13.19.59.59,0,0,1,.05.23.55.55,0,0,1-.18.41.55.55,0,0,1-.35.17.76.76,0,0,1-.29-.05.57.57,0,0,1-.18-.12A.58.58,0,0,1,394.51,195.17Zm.69,1.32a.53.53,0,0,1,.17-.41.48.48,0,0,1,.35-.18.65.65,0,0,1,.48.18.44.44,0,0,1,.16.35.62.62,0,0,1-.17.47.51.51,0,0,1-.35.17.7.7,0,0,1-.28,0,.76.76,0,0,1-.19-.12A.58.58,0,0,1,395.2,196.49Z" transform="translate(0 0.38)"/><path d="M396.54,202.57a.39.39,0,0,1-.45-.44.49.49,0,0,1,.11-.37.46.46,0,0,1,.34-.1h1.34v-6.77h.94v7.68Z" transform="translate(0 0.38)"/><path d="M401.26,194.89v7.68h-.94v-7.68Z" transform="translate(0 0.38)"/><path d="M412.35,201.66a.38.38,0,0,1,.44.44.51.51,0,0,1-.1.37.46.46,0,0,1-.34.1h-1a2.23,2.23,0,0,1-1.77,2.24,5.34,5.34,0,0,1-1.27.13,3,3,0,0,1-2.22-.76,2.79,2.79,0,0,1-.78-2.1V200.6h.94v1.29a1.88,1.88,0,0,0,2.11,2.14,2.21,2.21,0,0,0,1.58-.47,2.18,2.18,0,0,0,.48-1.58v-7.09h.93v6.77Z" transform="translate(0 0.38)"/><path d="M412.35,202.57a.39.39,0,0,1-.44-.44.49.49,0,0,1,.11-.37.45.45,0,0,1,.33-.1H414v-3.32H415v4.23Zm.44,1.79A.58.58,0,0,1,413,204a.51.51,0,0,1,.35-.17.64.64,0,0,1,.47.17.47.47,0,0,1,.17.35.61.61,0,0,1-.17.47.47.47,0,0,1-.35.17.72.72,0,0,1-.28,0,.5.5,0,0,1-.19-.13A.57.57,0,0,1,412.79,204.36Zm1.43,0a.54.54,0,0,1,.17-.41.51.51,0,0,1,.35-.17.64.64,0,0,1,.47.17.47.47,0,0,1,.17.35.61.61,0,0,1-.17.47.47.47,0,0,1-.35.17.78.78,0,0,1-.29,0,.46.46,0,0,1-.18-.13A.53.53,0,0,1,414.22,204.36Z" transform="translate(0 0.38)"/><path d="M421.39,201.66a.39.39,0,0,1,.44.44.51.51,0,0,1-.11.37.45.45,0,0,1-.33.1h-.79a2.36,2.36,0,0,1-.81,1.85,4.09,4.09,0,0,1-2.35.52H417V204h.33a4,4,0,0,0,1.85-.3,1.25,1.25,0,0,0,.53-1.16h-1.24a1.85,1.85,0,0,1-1.92-1.09,2.19,2.19,0,0,1-.16-.88,2.56,2.56,0,0,1,.59-1.71,2,2,0,0,1,1.58-.72,1.87,1.87,0,0,1,2,1.69,6,6,0,0,1,.1,1.18v.62Zm-1.7-.83c0-1.18-.41-1.78-1.22-1.78a1,1,0,0,0-.91.43,1.54,1.54,0,0,0-.32,1,1.15,1.15,0,0,0,.32.88,1.33,1.33,0,0,0,.95.32h1.18Z" transform="translate(0 0.38)"/><path d="M427.37,201.66c.3,0,.45.14.45.44a.51.51,0,0,1-.11.37.44.44,0,0,1-.33.1h-6a.39.39,0,0,1-.44-.44.49.49,0,0,1,.11-.37.45.45,0,0,1,.33-.1h4.42a2.56,2.56,0,0,0-.64-1.94,2.36,2.36,0,0,0-1.7-.61,4.79,4.79,0,0,0-1.26.18v-.87a4.78,4.78,0,0,1,1.45-.23,3.06,3.06,0,0,1,1.34.28,2.62,2.62,0,0,1,1,.74,3.9,3.9,0,0,1,.77,2.45Z" transform="translate(0 0.38)"/><path d="M427.36,202.57a.39.39,0,0,1-.44-.44.49.49,0,0,1,.11-.37.45.45,0,0,1,.33-.1h.83a1.16,1.16,0,0,0,.62-.11.76.76,0,0,0,.28-.69v-2.52H430v2.11c0,.59.17,1,.51,1.12a1.19,1.19,0,0,0,.49.09.38.38,0,0,1,.44.44.51.51,0,0,1-.1.37.43.43,0,0,1-.31.1,1.59,1.59,0,0,1-.72-.17,1,1,0,0,1-.44-.45,1.49,1.49,0,0,1-1.43.62Zm.88-6.08a.53.53,0,0,1,.17-.41.48.48,0,0,1,.36-.18.64.64,0,0,1,.47.18.44.44,0,0,1,.16.35.66.66,0,0,1-.17.47.51.51,0,0,1-.35.17.7.7,0,0,1-.28,0,.62.62,0,0,1-.19-.12A.54.54,0,0,1,428.24,196.49Zm1.42,0a.57.57,0,0,1,.17-.41.52.52,0,0,1,.36-.18.61.61,0,0,1,.47.18.45.45,0,0,1,.17.35.66.66,0,0,1-.17.47.55.55,0,0,1-.36.17.7.7,0,0,1-.28,0,.76.76,0,0,1-.19-.12A.58.58,0,0,1,429.66,196.49Z" transform="translate(0 0.38)"/><path d="M431,202.57a.39.39,0,0,1-.44-.44.49.49,0,0,1,.11-.37.45.45,0,0,1,.33-.1h1.35v-6.77h.94v7.68Z" transform="translate(0 0.38)"/><path d="M435.74,194.89v7.68h-.93v-7.68Z" transform="translate(0 0.38)"/></svg>