<svg id="Layer_1" data-name="Layer 1" xmlns="http://www.w3.org/2000/svg" xmlns:xlink="http://www.w3.org/1999/xlink" viewBox="0 0 467.82 336.86"><defs><style>.cls-1{fill:#bebebe;}.cls-2{fill:url(#linear-gradient);}.cls-3{fill:url(#linear-gradient-2);}.cls-4{fill:#acacac;}.cls-5{fill:url(#linear-gradient-3);}.cls-6{fill:url(#linear-gradient-4);}.cls-7{fill:#dfdfdf;}.cls-8{fill:url(#linear-gradient-5);}.cls-9{fill:url(#linear-gradient-6);}.cls-10{fill:url(#linear-gradient-7);}.cls-11{fill:url(#linear-gradient-8);}.cls-12{fill:none;stroke:#000;stroke-miterlimit:10;}.cls-13{fill:#231f20;}</style><linearGradient id="linear-gradient" x1="2.31" y1="-31.43" x2="153.79" y2="-31.43" gradientTransform="translate(-2.31 301.45)" gradientUnits="userSpaceOnUse"><stop offset="0" stop-color="#adadad"/><stop offset="1" stop-color="#9d9d9d"/></linearGradient><linearGradient id="linear-gradient-2" x1="153.79" y1="-31.43" x2="305.26" y2="-31.43" xlink:href="#linear-gradient"/><linearGradient id="linear-gradient-3" x1="47.6" y1="-98.01" x2="153.79" y2="-98.01" gradientTransform="translate(-2.31 301.45)" gradientUnits="userSpaceOnUse"><stop offset="0" stop-color="#9d9d9d"/><stop offset="1" stop-color="#848484"/></linearGradient><linearGradient id="linear-gradient-4" x1="153.79" y1="-98.01" x2="259.98" y2="-98.01" xlink:href="#linear-gradient-3"/><linearGradient id="linear-gradient-5" x1="92.01" y1="-155.76" x2="153.79" y2="-155.76" gradientTransform="translate(-2.31 301.45)" gradientUnits="userSpaceOnUse"><stop offset="0" stop-color="#d3d3d3"/><stop offset="1" stop-color="#bebebe"/></linearGradient><linearGradient id="linear-gradient-6" x1="153.79" y1="-155.76" x2="215.57" y2="-155.76" xlink:href="#linear-gradient-5"/><linearGradient id="linear-gradient-7" x1="128.06" y1="-211.61" x2="153.79" y2="-211.61" gradientTransform="translate(-2.31 301.45)" gradientUnits="userSpaceOnUse"><stop offset="0" stop-color="#a0a0a0"/><stop offset="1" stop-color="#848484"/></linearGradient><linearGradient id="linear-gradient-8" x1="153.79" y1="-211.61" x2="179.51" y2="-211.61" xlink:href="#linear-gradient-7"/></defs><g id="Layer_1-2" data-name="Layer 1-2"><polygon class="cls-1" points="151.48 274.36 28.18 203.17 151.48 131.99 274.77 203.17 151.48 274.36"/><polygon class="cls-2" points="0 249.4 151.48 336.86 151.48 274.36 28.18 203.17 0 249.4"/><polygon class="cls-3" points="151.48 274.36 151.48 274.36 151.48 336.86 302.95 249.4 274.77 203.17 151.48 274.36"/><polygon class="cls-4" points="151.48 193.91 74.04 149.2 151.48 104.5 228.92 149.2 151.48 193.91"/><polygon class="cls-5" points="45.29 196.38 151.48 257.69 151.48 193.91 74.04 149.2 45.29 196.38"/><polygon class="cls-6" points="151.48 193.91 151.48 193.91 151.48 257.69 257.67 196.38 228.92 149.2 151.48 193.91"/><polygon class="cls-7" points="151.48 130.21 113.53 108.3 151.48 86.39 189.43 108.3 151.48 130.21"/><polygon class="cls-8" points="89.7 147.4 151.48 183.07 151.48 130.21 113.53 108.3 89.7 147.4"/><polygon class="cls-9" points="151.48 130.21 151.48 130.21 151.48 183.07 213.26 147.4 189.42 108.3 151.48 130.21"/><polygon class="cls-10" points="125.75 103.52 151.48 118.37 151.48 61.31 125.75 103.52"/><polygon class="cls-11" points="177.2 103.52 151.48 61.31 151.48 118.37 151.48 118.37 177.2 103.52"/></g><g id="Layer_2" data-name="Layer 2"><line class="cls-12" x1="186.73" y1="4.06" x2="310.17" y2="4.06"/><line class="cls-12" x1="153.56" y1="48.15" x2="186.73" y2="4.06"/><circle class="cls-13" cx="153.77" cy="48.36" r="2.31"/><circle class="cls-13" cx="310.38" cy="3.85" r="2.31"/><path class="cls-13" d="M301.69,202.41H286.44a1.86,1.86,0,1,0,0,.33h15.24a1.85,1.85,0,1,0,0-.37Z" transform="translate(0 -1.14)"/><path class="cls-13" d="M257.49,131.59l-14.22,12.3a2.36,2.36,0,1,0,.34.29l13.94-12.12h47.94a2.34,2.34,0,1,0,0-.47Z" transform="translate(0 -1.14)"/><line class="cls-12" x1="211.92" y1="88.87" x2="308.28" y2="88.87"/><circle class="cls-13" cx="309.96" cy="89.08" r="2.31"/><line class="cls-12" x1="193.65" y1="103.39" x2="212.13" y2="88.66"/><circle class="cls-13" cx="194.08" cy="103.78" r="2.31"/></g><path d="M319.48,1.4a.9.9,0,0,1,.68-.26.94.94,0,0,1,.69.26,1,1,0,0,1,.24.67,1,1,0,0,1-.24.68,1.09,1.09,0,0,1-1.39,0,1,1,0,0,1-.24-.68A.92.92,0,0,1,319.48,1.4Zm1.43,2.25v6.43h-1.5V3.65Z" transform="translate(0 -1.14)"/><path d="M323.19,12.54a2.59,2.59,0,0,1-.73-.46l.85-.52a3.62,3.62,0,0,0,.37.26.84.84,0,0,0,.47.11.82.82,0,0,0,.42-.1c.13-.06.19-.14.19-.24s-.22-.3-.64-.3h-.55V10.17a3,3,0,0,1-1.37-.48,2.81,2.81,0,0,1-.88-1L322.7,8a1.65,1.65,0,0,0,.63.7,1.73,1.73,0,0,0,.92.24,1.25,1.25,0,0,0,.82-.23.7.7,0,0,0,.28-.55.36.36,0,0,0-.13-.29,1,1,0,0,0-.33-.19,2.31,2.31,0,0,0-.48-.14l-.57-.12c-.28-.06-.55-.13-.82-.21a2.64,2.64,0,0,1-.72-.33,1.78,1.78,0,0,1-.51-.55,1.6,1.6,0,0,1-.2-.85,1.65,1.65,0,0,1,.18-.74,1.92,1.92,0,0,1,.51-.63,2.67,2.67,0,0,1,.8-.44,3.39,3.39,0,0,1,1-.16,3.28,3.28,0,0,1,1.61.36,2.74,2.74,0,0,1,1,1l-1.27.63a1.4,1.4,0,0,0-.55-.53,1.52,1.52,0,0,0-.81-.2,1.19,1.19,0,0,0-.78.21.62.62,0,0,0-.26.48.49.49,0,0,0,.38.46,8.18,8.18,0,0,0,1.1.29c.26.05.53.12.8.2a3.49,3.49,0,0,1,.73.34,1.85,1.85,0,0,1,.53.55,1.58,1.58,0,0,1,.2.84,1.9,1.9,0,0,1-.13.68,2.23,2.23,0,0,1-.43.65,2.88,2.88,0,0,1-.72.51,3,3,0,0,1-1.05.26v.46a1.43,1.43,0,0,1,.94.22.8.8,0,0,1,.33.66.89.89,0,0,1-.14.47,1,1,0,0,1-.36.37,1.68,1.68,0,0,1-.54.25,3,3,0,0,1-.68.08A2.09,2.09,0,0,1,323.19,12.54Z" transform="translate(0 -1.14)"/><path d="M331.06,9.78a4.85,4.85,0,0,1-1.3-1l1.36-1.08a2.21,2.21,0,0,0,.76.81,1.84,1.84,0,0,0,1,.28,1.19,1.19,0,0,0,.91-.33,1.06,1.06,0,0,0,.32-.74.63.63,0,0,0-.15-.43,1.27,1.27,0,0,0-.37-.31,2.92,2.92,0,0,0-.53-.22l-.63-.2c-.27-.09-.54-.18-.81-.29a2.6,2.6,0,0,1-.73-.41,1.88,1.88,0,0,1-.73-1.59,2.11,2.11,0,0,1,.19-.9,2.34,2.34,0,0,1,.56-.73,2.63,2.63,0,0,1,.85-.49,3,3,0,0,1,1.06-.18,3.88,3.88,0,0,1,.87.09,3.8,3.8,0,0,1,.72.24,3.92,3.92,0,0,1,.59.37,4.51,4.51,0,0,1,.51.47L334.28,4a1.65,1.65,0,0,0-1.45-.77,1.18,1.18,0,0,0-.84.27.83.83,0,0,0-.28.65.6.6,0,0,0,.13.4,1.37,1.37,0,0,0,.36.3,2.8,2.8,0,0,0,.52.22l.63.21.82.3a3.51,3.51,0,0,1,.75.44,2.17,2.17,0,0,1,.54.66,2.06,2.06,0,0,1,.21,1,2.3,2.3,0,0,1-.19.92,2.27,2.27,0,0,1-.54.8,2.56,2.56,0,0,1-.87.56,3.05,3.05,0,0,1-1.17.21A3.71,3.71,0,0,1,331.06,9.78Z" transform="translate(0 -1.14)"/><path d="M340.71,10.08V9.35a2.23,2.23,0,0,1-.77.63,2.59,2.59,0,0,1-2.89-.49,2.85,2.85,0,0,1-.67-2V3.65h1.51V7.31a1.9,1.9,0,0,0,.33,1.18,1.24,1.24,0,0,0,1,.44,1.33,1.33,0,0,0,1-.45,1.89,1.89,0,0,0,.4-1.3V3.65h1.49v6.43Zm-3.06-8.3a.78.78,0,0,1,.58-.22.75.75,0,0,1,.58.22.79.79,0,0,1,.21.57.8.8,0,0,1-.21.57.91.91,0,0,1-1.16,0,.8.8,0,0,1-.21-.57A.79.79,0,0,1,337.65,1.78Zm2.1,0a.78.78,0,0,1,.58-.22.76.76,0,0,1,.58.22.79.79,0,0,1,.21.57.8.8,0,0,1-.21.57.79.79,0,0,1-.58.21.8.8,0,0,1-.59-.21.84.84,0,0,1-.2-.57A.79.79,0,0,1,339.75,1.78Z" transform="translate(0 -1.14)"/><path d="M344.57,3.65V4.6a1.67,1.67,0,0,1,1.65-.95,2.09,2.09,0,0,1,.63.08,2.26,2.26,0,0,1,.5.19l-.56,1.41a1.82,1.82,0,0,0-.37-.18,1.56,1.56,0,0,0-.52-.07,1.26,1.26,0,0,0-1,.37,1.76,1.76,0,0,0-.33,1.2v3.43h-1.49V3.65Z" transform="translate(0 -1.14)"/><path d="M349.42,10a3.22,3.22,0,0,1-1.08-.71,3.47,3.47,0,0,1-.69-1.06,3.59,3.59,0,0,1-.25-1.31,3.41,3.41,0,0,1,.26-1.32,3.24,3.24,0,0,1,.71-1.06,3.37,3.37,0,0,1,1.06-.72,3.24,3.24,0,0,1,1.32-.26,3.56,3.56,0,0,1,1.32.24,3.07,3.07,0,0,1,1.05.7,2.91,2.91,0,0,1,.69,1,3.34,3.34,0,0,1,.25,1.32v.56h-5.24a2,2,0,0,0,.67,1.1,2,2,0,0,0,1.31.42,2,2,0,0,0,1.09-.31,1.87,1.87,0,0,0,.69-.83l1.23.71a3.26,3.26,0,0,1-3,1.74A3.61,3.61,0,0,1,349.42,10Zm.17-4.77a1.87,1.87,0,0,0-.69,1h3.65a1.62,1.62,0,0,0-.64-1,2,2,0,0,0-1.16-.33A1.88,1.88,0,0,0,349.59,5.19Z" transform="translate(0 -1.14)"/><path d="M356.91,12.6a2.77,2.77,0,0,1-.73-.47l.86-.52a3.81,3.81,0,0,0,.37.27,1,1,0,0,0,.89,0q.18-.11.18-.24c0-.2-.21-.3-.64-.3h-.55V10.17a3.26,3.26,0,0,1-1.11-.39A3.5,3.5,0,0,1,355.3,9a3.33,3.33,0,0,1-.79-2.17,3.33,3.33,0,0,1,.26-1.31,3.28,3.28,0,0,1,.71-1.07,3.43,3.43,0,0,1,1.06-.72,3.36,3.36,0,0,1,1.31-.25,3.75,3.75,0,0,1,1,.14,3.4,3.4,0,0,1,.88.42,3.09,3.09,0,0,1,1.17,1.43l-1.33.56a1.85,1.85,0,0,0-.67-.84,1.83,1.83,0,0,0-1.05-.32,1.73,1.73,0,0,0-.76.16,1.81,1.81,0,0,0-.6.42,1.62,1.62,0,0,0-.4.62,1.94,1.94,0,0,0-.15.76,1.86,1.86,0,0,0,.15.75,1.74,1.74,0,0,0,.4.63,1.87,1.87,0,0,0,.61.41,1.76,1.76,0,0,0,.76.16A1.71,1.71,0,0,0,359,8.48a2,2,0,0,0,.67-.86l1.33.57a3.48,3.48,0,0,1-1.05,1.37,3,3,0,0,1-1.68.63v.53a1.44,1.44,0,0,1,.94.23.76.76,0,0,1,.32.65.91.91,0,0,1-.13.48,1.27,1.27,0,0,1-.36.37,2.13,2.13,0,0,1-.55.24,2.41,2.41,0,0,1-.67.09A2.14,2.14,0,0,1,356.91,12.6Z" transform="translate(0 -1.14)"/><path d="M363,1.94v8.14h-1.49V1.94Z" transform="translate(0 -1.14)"/><path d="M365.66,10a3.28,3.28,0,0,1-1.07-.71,3.13,3.13,0,0,1-.69-1.06,3.52,3.52,0,0,1,0-2.63,3.31,3.31,0,0,1,3.09-2,3.6,3.6,0,0,1,1.32.24,3.16,3.16,0,0,1,1.74,1.75,3.53,3.53,0,0,1,.25,1.32v.56h-5.24a1.94,1.94,0,0,0,.67,1.1,2,2,0,0,0,1.31.42,2,2,0,0,0,1.09-.31,1.87,1.87,0,0,0,.69-.83l1.22.71a3.29,3.29,0,0,1-1.17,1.26,3.33,3.33,0,0,1-1.83.48A3.66,3.66,0,0,1,365.66,10Zm.17-4.77a1.91,1.91,0,0,0-.68,1h3.65a1.62,1.62,0,0,0-.64-1A2,2,0,0,0,367,4.83,1.94,1.94,0,0,0,365.83,5.19Z" transform="translate(0 -1.14)"/><path d="M372.44,3.65V4.6a1.67,1.67,0,0,1,1.65-.95,2,2,0,0,1,.63.08,2.09,2.09,0,0,1,.5.19l-.56,1.41a1.82,1.82,0,0,0-.37-.18,1.52,1.52,0,0,0-.52-.07,1.24,1.24,0,0,0-1,.37,1.7,1.7,0,0,0-.34,1.2v3.43H371V3.65Z" transform="translate(0 -1.14)"/><path d="M375.77,1.4a.93.93,0,0,1,.68-.26.88.88,0,0,1,.94.93.92.92,0,0,1-.25.68,1.08,1.08,0,0,1-1.38,0,1,1,0,0,1-.24-.68A.91.91,0,0,1,375.77,1.4Zm1.43,2.25v6.43h-1.49V3.65Z" transform="translate(0 -1.14)"/><path d="M379.54,3.65v.79a2.37,2.37,0,0,1,.8-.67,2.4,2.4,0,0,1,1.12-.25,2.47,2.47,0,0,1,1.88.72,2.87,2.87,0,0,1,.67,2v3.81h-1.5V6.42a1.79,1.79,0,0,0-.37-1.18,1.33,1.33,0,0,0-1.09-.44,1.44,1.44,0,0,0-1.07.45,1.82,1.82,0,0,0-.43,1.3v3.53h-1.49V3.65Z" transform="translate(0 -1.14)"/><path d="M386.68,10a3.22,3.22,0,0,1-1-.65,3.27,3.27,0,0,1-.72-1.05,3.4,3.4,0,0,1-.28-1.42,3.53,3.53,0,0,1,.27-1.42,3.06,3.06,0,0,1,.72-1,2.89,2.89,0,0,1,1-.66,3.21,3.21,0,0,1,1.18-.22,2.84,2.84,0,0,1,1.17.23,2.47,2.47,0,0,1,.89.66V1.94h1.49v8.14h-1.48V9.25a2.52,2.52,0,0,1-.9.71,2.83,2.83,0,0,1-1.19.26A3.1,3.1,0,0,1,386.68,10Zm2.16-1.29a1.78,1.78,0,0,0,.61-.43,2.1,2.1,0,0,0,.4-.64,2.08,2.08,0,0,0,0-1.55,2.05,2.05,0,0,0-.4-.63A2,2,0,0,0,387.31,5a2.31,2.31,0,0,0-.63.42,2.08,2.08,0,0,0-.41.63,2,2,0,0,0-.15.78,2,2,0,0,0,.56,1.42,2,2,0,0,0,.63.43,2,2,0,0,0,1.53,0Z" transform="translate(0 -1.14)"/><path d="M394.05,10A3.28,3.28,0,0,1,393,9.25a3.13,3.13,0,0,1-.69-1.06,3.52,3.52,0,0,1,0-2.63,3.31,3.31,0,0,1,3.09-2,3.6,3.6,0,0,1,1.32.24,3.07,3.07,0,0,1,1.05.7,2.91,2.91,0,0,1,.69,1,3.34,3.34,0,0,1,.25,1.32v.56h-5.24a1.94,1.94,0,0,0,.67,1.1,2,2,0,0,0,1.31.42,2,2,0,0,0,1.09-.31,1.87,1.87,0,0,0,.69-.83l1.22.71a3.22,3.22,0,0,1-1.17,1.26,3.33,3.33,0,0,1-1.83.48A3.66,3.66,0,0,1,394.05,10Zm.18-4.77a1.87,1.87,0,0,0-.69,1h3.65a1.62,1.62,0,0,0-.64-1,2,2,0,0,0-1.16-.33A1.88,1.88,0,0,0,394.23,5.19Z" transform="translate(0 -1.14)"/><path d="M404.27,2.05a5.08,5.08,0,0,1,1.81.31,3.85,3.85,0,0,1,1.33.85,3.5,3.5,0,0,1,.83,1.27,4.36,4.36,0,0,1,.28,1.59,4,4,0,0,1-.31,1.59,3.53,3.53,0,0,1-.86,1.27,4,4,0,0,1-1.33.85,4.56,4.56,0,0,1-1.68.3h-2.26v-8Zm-.69,6.65h.58a3.41,3.41,0,0,0,1.19-.2,2.59,2.59,0,0,0,.9-.56A2.53,2.53,0,0,0,407,6.07,3.23,3.23,0,0,0,406.85,5a2.21,2.21,0,0,0-.54-.83,2.44,2.44,0,0,0-.91-.55,3.92,3.92,0,0,0-1.3-.19h-.52Z" transform="translate(0 -1.14)"/><path d="M411,10a3.11,3.11,0,0,1-1.06-.72,3.35,3.35,0,0,1-.71-1.06A3.4,3.4,0,0,1,409,6.87a3.33,3.33,0,0,1,.26-1.31,3.28,3.28,0,0,1,.71-1.07A3.43,3.43,0,0,1,411,3.77a3.34,3.34,0,0,1,1.3-.25,3.27,3.27,0,0,1,1.3.25,3.55,3.55,0,0,1,1.06.72,3.16,3.16,0,0,1,.72,1.07,3.33,3.33,0,0,1,.26,1.31,3.4,3.4,0,0,1-.26,1.31A3.41,3.41,0,0,1,413.6,10a3.28,3.28,0,0,1-1.3.26A3.35,3.35,0,0,1,411,10Zm2-1.3a1.78,1.78,0,0,0,.59-.41,1.88,1.88,0,0,0,.4-.63,1.86,1.86,0,0,0,.14-.75,1.94,1.94,0,0,0-.14-.76,1.74,1.74,0,0,0-.4-.62,1.84,1.84,0,0,0-1.33-.58,1.7,1.7,0,0,0-.74.16,1.67,1.67,0,0,0-.59.42,1.72,1.72,0,0,0-.39.62,1.94,1.94,0,0,0-.15.76,1.86,1.86,0,0,0,.15.75,1.86,1.86,0,0,0,.39.63,1.78,1.78,0,0,0,.59.41,1.7,1.7,0,0,0,.74.16A1.67,1.67,0,0,0,413,8.66Zm-2.38-6.88a.87.87,0,0,1,1.16,0,.79.79,0,0,1,.21.57.8.8,0,0,1-.21.57.78.78,0,0,1-.58.21.8.8,0,0,1-.59-.21.8.8,0,0,1-.21-.57A.79.79,0,0,1,410.66,1.78Zm2.1,0a.76.76,0,0,1,.58-.22.78.78,0,0,1,.58.22.79.79,0,0,1,.21.57.8.8,0,0,1-.21.57.81.81,0,0,1-.58.21.77.77,0,0,1-.59-.21.8.8,0,0,1-.2-.57A.79.79,0,0,1,412.76,1.78Z" transform="translate(0 -1.14)"/><path d="M417.76,3.65v.79a2.31,2.31,0,0,1,.81-.67,2.36,2.36,0,0,1,1.11-.25,2.46,2.46,0,0,1,1.88.72,2.88,2.88,0,0,1,.68,2v3.81h-1.51V6.42a1.79,1.79,0,0,0-.36-1.18,1.36,1.36,0,0,0-1.09-.44,1.42,1.42,0,0,0-1.07.45,1.83,1.83,0,0,0-.44,1.3v3.53h-1.48V3.65Z" transform="translate(0 -1.14)"/><path d="M427.45,10.08V9.35a2.06,2.06,0,0,1-.77.63,2.32,2.32,0,0,1-1.08.24,2.36,2.36,0,0,1-1.81-.73,2.89,2.89,0,0,1-.66-2V3.65h1.5V7.31A1.9,1.9,0,0,0,425,8.49a1.23,1.23,0,0,0,1,.44,1.31,1.31,0,0,0,1-.45,1.89,1.89,0,0,0,.41-1.3V3.65h1.48v6.43Zm-3.05-8.3a.75.75,0,0,1,.58-.22.76.76,0,0,1,.58.22.79.79,0,0,1,.21.57.8.8,0,0,1-.21.57.79.79,0,0,1-.58.21.8.8,0,0,1-.59-.21.8.8,0,0,1-.21-.57A.75.75,0,0,1,424.4,1.78Zm2.1,0a.75.75,0,0,1,.58-.22.74.74,0,0,1,.57.22.75.75,0,0,1,.22.57.83.83,0,0,1-1.38.57.8.8,0,0,1-.21-.57A.79.79,0,0,1,426.5,1.78Z" transform="translate(0 -1.14)"/><path d="M431.21,12.54a2.79,2.79,0,0,1-.74-.46l.86-.52a3.62,3.62,0,0,0,.37.26.84.84,0,0,0,.47.11.82.82,0,0,0,.42-.1.27.27,0,0,0,.18-.24q0-.3-.63-.3h-.55V10.17a3,3,0,0,1-1.37-.48,2.72,2.72,0,0,1-.88-1L430.72,8a1.7,1.7,0,0,0,.62.7,1.79,1.79,0,0,0,.93.24,1.27,1.27,0,0,0,.82-.23.7.7,0,0,0,.28-.55.36.36,0,0,0-.13-.29,1,1,0,0,0-.33-.19,2.31,2.31,0,0,0-.48-.14l-.57-.12c-.28-.06-.55-.13-.82-.21a2.64,2.64,0,0,1-.72-.33,2,2,0,0,1-.52-.55,1.7,1.7,0,0,1-.19-.85,1.65,1.65,0,0,1,.18-.74,1.92,1.92,0,0,1,.51-.63,2.55,2.55,0,0,1,.8-.44,3.34,3.34,0,0,1,1-.16,3.28,3.28,0,0,1,1.61.36,2.74,2.74,0,0,1,1,1l-1.27.63a1.47,1.47,0,0,0-.55-.53,1.55,1.55,0,0,0-.81-.2,1.22,1.22,0,0,0-.79.21.64.64,0,0,0-.25.48.49.49,0,0,0,.38.46,8.18,8.18,0,0,0,1.1.29,7.62,7.62,0,0,1,.79.2,3.57,3.57,0,0,1,.74.34,1.85,1.85,0,0,1,.53.55,1.68,1.68,0,0,1,.2.84,1.9,1.9,0,0,1-.13.68,2.23,2.23,0,0,1-.43.65,2.77,2.77,0,0,1-.73.51,2.89,2.89,0,0,1-1,.26v.46a1.45,1.45,0,0,1,.94.22.8.8,0,0,1,.33.66.89.89,0,0,1-.14.47,1.16,1.16,0,0,1-.36.37,1.79,1.79,0,0,1-.54.25,3,3,0,0,1-.68.08A2.09,2.09,0,0,1,431.21,12.54Z" transform="translate(0 -1.14)"/><path d="M439.78,10.08V9.35A2.06,2.06,0,0,1,439,10a2.32,2.32,0,0,1-1.08.24,2.36,2.36,0,0,1-1.81-.73,2.89,2.89,0,0,1-.66-2V3.65H437V7.31a1.9,1.9,0,0,0,.33,1.18,1.23,1.23,0,0,0,1,.44,1.31,1.31,0,0,0,1-.45,1.89,1.89,0,0,0,.41-1.3V3.65h1.49v6.43Zm-3-8.3a.87.87,0,0,1,1.16,0,.79.79,0,0,1,.21.57.8.8,0,0,1-.21.57.78.78,0,0,1-.58.21.8.8,0,0,1-.59-.21.8.8,0,0,1-.21-.57A.79.79,0,0,1,436.73,1.78Zm2.1,0a.76.76,0,0,1,.58-.22.78.78,0,0,1,.58.22.79.79,0,0,1,.21.57.8.8,0,0,1-.21.57.81.81,0,0,1-.58.21.79.79,0,0,1-.59-.21.8.8,0,0,1-.2-.57A.79.79,0,0,1,438.83,1.78Z" transform="translate(0 -1.14)"/><path d="M443.64,3.65V4.4a2.23,2.23,0,0,1,.78-.65,2.27,2.27,0,0,1,1.06-.23,2.53,2.53,0,0,1,1.28.29,2,2,0,0,1,.81.82,2.42,2.42,0,0,1,.87-.81,2.56,2.56,0,0,1,1.24-.3,2.52,2.52,0,0,1,2,.72,2.81,2.81,0,0,1,.66,2v3.87h-1.52V6.33a1.66,1.66,0,0,0-.35-1.11,1.28,1.28,0,0,0-1.05-.42,1.35,1.35,0,0,0-1,.42A1.76,1.76,0,0,0,448,6.49v3.59h-1.5V6.29a1.65,1.65,0,0,0-.34-1.09,1.3,1.3,0,0,0-1-.4,1.39,1.39,0,0,0-1,.43,1.79,1.79,0,0,0-.42,1.29v3.56h-1.48V3.65Z" transform="translate(0 -1.14)"/><path d="M319.48,85.88a.89.89,0,0,1,.68-.25.93.93,0,0,1,.69.25,1,1,0,0,1,.24.68.94.94,0,1,1-1.87,0A.94.94,0,0,1,319.48,85.88Zm1.43,2.25v6.44h-1.5V88.13Z" transform="translate(0 -1.14)"/><path d="M323.19,97a2.61,2.61,0,0,1-.73-.47l.85-.52a3.81,3.81,0,0,0,.37.27.93.93,0,0,0,.47.11.82.82,0,0,0,.42-.1c.13-.07.19-.15.19-.24s-.22-.3-.64-.3h-.55V94.66a3,3,0,0,1-1.37-.49,2.78,2.78,0,0,1-.88-1l1.38-.66a1.62,1.62,0,0,0,.63.69,1.73,1.73,0,0,0,.92.24,1.2,1.2,0,0,0,.82-.23.67.67,0,0,0,.28-.55.34.34,0,0,0-.13-.28,1,1,0,0,0-.33-.2,2.35,2.35,0,0,0-.48-.13l-.57-.12c-.28-.06-.55-.13-.82-.21a2.66,2.66,0,0,1-.72-.34,1.59,1.59,0,0,1-.51-.55,1.54,1.54,0,0,1-.2-.84,1.62,1.62,0,0,1,.18-.74,2.06,2.06,0,0,1,.51-.64,2.65,2.65,0,0,1,.8-.43,3.11,3.11,0,0,1,1-.16,3.28,3.28,0,0,1,1.61.36,2.72,2.72,0,0,1,1,1l-1.27.64a1.36,1.36,0,0,0-.55-.54,1.62,1.62,0,0,0-.81-.2,1.19,1.19,0,0,0-.78.21.62.62,0,0,0-.26.49c0,.21.13.36.38.45a8.18,8.18,0,0,0,1.1.29c.26.06.53.12.8.21a3,3,0,0,1,.73.34,1.74,1.74,0,0,1,.53.55,1.54,1.54,0,0,1,.2.84,1.85,1.85,0,0,1-.13.67,2.1,2.1,0,0,1-.43.65,2.45,2.45,0,0,1-.72.51,2.8,2.8,0,0,1-1.05.26v.46a1.43,1.43,0,0,1,.94.23.77.77,0,0,1,.33.65.92.92,0,0,1-.14.48,1.06,1.06,0,0,1-.36.37,1.92,1.92,0,0,1-.54.24,2.48,2.48,0,0,1-.68.09A2.09,2.09,0,0,1,323.19,97Z" transform="translate(0 -1.14)"/><path d="M331.67,86.54l2.44,3.38,2.53-3.38h1.42v8h-1.5V88.94l-2.47,3.32L331.69,89v5.58h-1.5v-8Z" transform="translate(0 -1.14)"/><path d="M340.75,94.44a3.35,3.35,0,0,1-1.06-.71,3.57,3.57,0,0,1-.71-1.07,3.35,3.35,0,0,1-.26-1.3A3.41,3.41,0,0,1,339,90a3.52,3.52,0,0,1,.71-1.06,3.21,3.21,0,0,1,1.06-.72,3.4,3.4,0,0,1,1.31-.26,3.33,3.33,0,0,1,3.07,2,3.24,3.24,0,0,1,.26,1.32,3.18,3.18,0,0,1-.26,1.3,3.39,3.39,0,0,1-.71,1.07,3.46,3.46,0,0,1-1.06.71,3.18,3.18,0,0,1-1.3.26A3.23,3.23,0,0,1,340.75,94.44Zm2.05-1.29a1.94,1.94,0,0,0,1-1,2.12,2.12,0,0,0,.14-.75,2.19,2.19,0,0,0-.14-.77,2,2,0,0,0-.4-.62,2,2,0,0,0-.59-.42,1.85,1.85,0,0,0-.74-.15,1.81,1.81,0,0,0-.74.15,1.85,1.85,0,0,0-.6.42,2,2,0,0,0-.53,1.39,2.12,2.12,0,0,0,.14.75,2,2,0,0,0,.39.62,1.71,1.71,0,0,0,.6.42,1.81,1.81,0,0,0,.74.15A1.85,1.85,0,0,0,342.8,93.15Z" transform="translate(0 -1.14)"/><path d="M347.91,94.48a3.23,3.23,0,0,1-1.75-1.71,3.48,3.48,0,0,1-.27-1.41,3.58,3.58,0,0,1,.27-1.43,3.09,3.09,0,0,1,.71-1.05,3.22,3.22,0,0,1,1-.65,3.27,3.27,0,0,1,1.19-.23,2.83,2.83,0,0,1,1.16.24,2.36,2.36,0,0,1,.89.65V86.43h1.5v8.14h-1.49v-.84a2.35,2.35,0,0,1-.9.71,2.63,2.63,0,0,1-1.19.26A3,3,0,0,1,347.91,94.48Zm2.16-1.3a1.7,1.7,0,0,0,.6-.43,2.05,2.05,0,0,0,.4-.63,2.08,2.08,0,0,0,.15-.78,2,2,0,0,0-.15-.77,2,2,0,0,0-.4-.64,1.81,1.81,0,0,0-.6-.42,2,2,0,0,0-.77-.16,2,2,0,0,0-.77.16,1.89,1.89,0,0,0-.62.42,1.77,1.77,0,0,0-.41.62,2.09,2.09,0,0,0-.15.79,2,2,0,0,0,.15.78,1.85,1.85,0,0,0,.41.64,1.89,1.89,0,0,0,.62.42,1.83,1.83,0,0,0,.77.16A1.8,1.8,0,0,0,350.07,93.18Z" transform="translate(0 -1.14)"/><path d="M355.28,94.44a3.08,3.08,0,0,1-1.07-.71,3.21,3.21,0,0,1-.7-1.06,3.49,3.49,0,0,1-.24-1.3,3.24,3.24,0,0,1,.26-1.32,3.13,3.13,0,0,1,.71-1.07,3.24,3.24,0,0,1,1.06-.71,3.17,3.17,0,0,1,1.31-.27,3.42,3.42,0,0,1,1.33.25,3.25,3.25,0,0,1,1.05.69,3.42,3.42,0,0,1,.69,1,3.6,3.6,0,0,1,.24,1.32v.56h-5.23a1.83,1.83,0,0,0,.67,1.1,2,2,0,0,0,1.31.42,1.91,1.91,0,0,0,1.09-.31,2,2,0,0,0,.69-.82l1.22.7a3.23,3.23,0,0,1-3,1.74A3.48,3.48,0,0,1,355.28,94.44Zm.17-4.77a2,2,0,0,0-.69,1h3.66a1.67,1.67,0,0,0-.64-1,2,2,0,0,0-1.17-.34A1.91,1.91,0,0,0,355.45,89.67Z" transform="translate(0 -1.14)"/><path d="M362.08,86.43v8.14h-1.5V86.43Z" transform="translate(0 -1.14)"/><path d="M363.06,85.88a.91.91,0,0,1,.68-.25.93.93,0,0,1,.69.25,1,1,0,0,1,.24.68.85.85,0,0,1-.93.92.86.86,0,0,1-.94-.92A.94.94,0,0,1,363.06,85.88Zm1.43,2.25v6.44H363V88.13Z" transform="translate(0 -1.14)"/><path d="M366.82,88.13v.8a2.34,2.34,0,0,1,.81-.68,2.48,2.48,0,0,1,1.11-.25,2.43,2.43,0,0,1,1.88.73,2.85,2.85,0,0,1,.68,2v3.82h-1.51V90.91a1.82,1.82,0,0,0-.36-1.19,1.35,1.35,0,0,0-1.09-.43,1.44,1.44,0,0,0-1.08.45,1.79,1.79,0,0,0-.43,1.3v3.53h-1.49V88.13Z" transform="translate(0 -1.14)"/><path d="M374,94.48a3.15,3.15,0,0,1-1-.66,3.09,3.09,0,0,1-.73-1,3.48,3.48,0,0,1-.28-1.41,3.58,3.58,0,0,1,.27-1.43,3.27,3.27,0,0,1,.72-1.05,3.22,3.22,0,0,1,1-.65,3.26,3.26,0,0,1,1.18-.23,2.85,2.85,0,0,1,1.17.24,2.36,2.36,0,0,1,.89.65V86.43h1.5v8.14H377.2v-.84a2.35,2.35,0,0,1-.9.71,2.66,2.66,0,0,1-1.19.26A3.09,3.09,0,0,1,374,94.48Zm2.16-1.3a1.65,1.65,0,0,0,.61-.43,2.05,2.05,0,0,0,.4-.63,2.08,2.08,0,0,0,.15-.78,2,2,0,0,0-.15-.77,2,2,0,0,0-.4-.64,1.75,1.75,0,0,0-.61-.42,1.91,1.91,0,0,0-.76-.16,2,2,0,0,0-.77.16,1.79,1.79,0,0,0-.62.42,1.77,1.77,0,0,0-.41.62,2.09,2.09,0,0,0-.15.79,2,2,0,0,0,.15.78,1.85,1.85,0,0,0,.41.64,2,2,0,0,0,1.39.58A1.76,1.76,0,0,0,376.12,93.18Z" transform="translate(0 -1.14)"/><path d="M381.34,94.44a3.08,3.08,0,0,1-1.07-.71,3.21,3.21,0,0,1-.7-1.06,3.49,3.49,0,0,1-.24-1.3,3.41,3.41,0,0,1,.25-1.32,3.45,3.45,0,0,1,.71-1.07,3.28,3.28,0,0,1,1.07-.71,3.17,3.17,0,0,1,1.31-.27,3.42,3.42,0,0,1,1.33.25A3,3,0,0,1,385.73,90a3.41,3.41,0,0,1,.25,1.32v.56h-5.23a1.83,1.83,0,0,0,.67,1.1,2,2,0,0,0,1.3.42,1.86,1.86,0,0,0,1.09-.31,1.93,1.93,0,0,0,.7-.82l1.22.7a3.24,3.24,0,0,1-3,1.74A3.46,3.46,0,0,1,381.34,94.44Zm.17-4.77a2,2,0,0,0-.69,1h3.65a1.66,1.66,0,0,0-.63-1,2,2,0,0,0-1.17-.34A1.91,1.91,0,0,0,381.51,89.67Z" transform="translate(0 -1.14)"/><path d="M391.56,86.54a4.85,4.85,0,0,1,1.8.31,3.73,3.73,0,0,1,1.34.84,3.56,3.56,0,0,1,.82,1.27,4.36,4.36,0,0,1,.28,1.59,4.18,4.18,0,0,1-.3,1.6,3.87,3.87,0,0,1-2.19,2.11,4.46,4.46,0,0,1-1.69.31h-2.25v-8Zm-.7,6.64h.59a3.46,3.46,0,0,0,1.19-.19,2.6,2.6,0,0,0,.89-.56,2.41,2.41,0,0,0,.57-.84,2.54,2.54,0,0,0,.21-1,3,3,0,0,0-.18-1.06,2.29,2.29,0,0,0-.54-.83,2.47,2.47,0,0,0-.91-.54,3.9,3.9,0,0,0-1.3-.2h-.52Z" transform="translate(0 -1.14)"/><path d="M398.28,94.44a3.35,3.35,0,0,1-1.06-.71,3.57,3.57,0,0,1-.71-1.07,3.35,3.35,0,0,1-.26-1.3,3.41,3.41,0,0,1,.26-1.32,3.52,3.52,0,0,1,.71-1.06,3.21,3.21,0,0,1,1.06-.72,3.4,3.4,0,0,1,1.31-.26,3.33,3.33,0,0,1,3.07,2,3.41,3.41,0,0,1,.26,1.32,3.35,3.35,0,0,1-.26,1.3,3.39,3.39,0,0,1-.71,1.07,3.46,3.46,0,0,1-1.06.71,3.18,3.18,0,0,1-1.3.26A3.23,3.23,0,0,1,398.28,94.44Zm2.05-1.29a1.87,1.87,0,0,0,.59-.42,1.72,1.72,0,0,0,.39-.62,1.93,1.93,0,0,0,.15-.75,2,2,0,0,0-.15-.77,1.81,1.81,0,0,0-.39-.62,2,2,0,0,0-.59-.42,1.85,1.85,0,0,0-.74-.15,1.9,1.9,0,0,0-.75.15,1.92,1.92,0,0,0-.59.42,2.18,2.18,0,0,0-.39.62,2,2,0,0,0-.14.77,1.92,1.92,0,0,0,.14.75,2,2,0,0,0,.39.62,1.77,1.77,0,0,0,.59.42,1.9,1.9,0,0,0,.75.15A1.85,1.85,0,0,0,400.33,93.15Zm-2.39-6.89a.82.82,0,0,1,.58-.22.78.78,0,0,1,.58.22.81.81,0,0,1,.21.58.76.76,0,0,1-.21.56.87.87,0,0,1-1.16,0,.76.76,0,0,1-.21-.56A.81.81,0,0,1,397.94,86.26Zm2.1,0a.82.82,0,0,1,.58-.22.8.8,0,0,1,.58.22.81.81,0,0,1,.21.58.82.82,0,0,1-1.38.56.8.8,0,0,1-.2-.56A.81.81,0,0,1,400,86.26Z" transform="translate(0 -1.14)"/><path d="M405,88.13v.8A2.33,2.33,0,0,1,407,88a2.4,2.4,0,0,1,1.87.73,2.85,2.85,0,0,1,.68,2v3.82H408V90.91a1.82,1.82,0,0,0-.36-1.19,1.34,1.34,0,0,0-1.09-.43,1.44,1.44,0,0,0-1.07.45,1.79,1.79,0,0,0-.44,1.3v3.53h-1.48V88.13Z" transform="translate(0 -1.14)"/><path d="M414.74,94.57v-.74a2.2,2.2,0,0,1-.78.64,2.38,2.38,0,0,1-1.07.23,2.33,2.33,0,0,1-1.81-.72,2.87,2.87,0,0,1-.67-2V88.13h1.51V91.8a1.9,1.9,0,0,0,.33,1.18,1.24,1.24,0,0,0,1,.43,1.33,1.33,0,0,0,1-.45,1.86,1.86,0,0,0,.4-1.29V88.13h1.49v6.44Zm-3.06-8.31a.82.82,0,0,1,.58-.22.78.78,0,0,1,.58.22.81.81,0,0,1,.21.58.76.76,0,0,1-.21.56.87.87,0,0,1-1.16,0,.76.76,0,0,1-.21-.56A.81.81,0,0,1,411.68,86.26Zm2.1,0a.82.82,0,0,1,.58-.22.8.8,0,0,1,.58.22.81.81,0,0,1,.21.58.82.82,0,0,1-1.38.56.8.8,0,0,1-.2-.56A.81.81,0,0,1,413.78,86.26Z" transform="translate(0 -1.14)"/><path d="M418.49,97a2.77,2.77,0,0,1-.73-.47l.86-.52a2.33,2.33,0,0,0,.37.27.89.89,0,0,0,.46.11.85.85,0,0,0,.43-.1q.18-.1.18-.24c0-.2-.21-.3-.64-.3h-.55V94.66a2.94,2.94,0,0,1-1.36-.49,2.69,2.69,0,0,1-.88-1l1.37-.66a1.69,1.69,0,0,0,.63.69,1.73,1.73,0,0,0,.92.24,1.25,1.25,0,0,0,.83-.23.69.69,0,0,0,.27-.55.36.36,0,0,0-.12-.28,1.32,1.32,0,0,0-.33-.2,2.77,2.77,0,0,0-.48-.13l-.57-.12c-.28-.06-.56-.13-.82-.21a2.88,2.88,0,0,1-.73-.34,1.59,1.59,0,0,1-.51-.55,1.74,1.74,0,0,1,0-1.58,2.06,2.06,0,0,1,.51-.64,2.65,2.65,0,0,1,.8-.43,3.11,3.11,0,0,1,1-.16,3.25,3.25,0,0,1,1.61.36,2.72,2.72,0,0,1,1,1l-1.27.64a1.36,1.36,0,0,0-.55-.54,1.62,1.62,0,0,0-.81-.2,1.21,1.21,0,0,0-.78.21.61.61,0,0,0-.25.49.47.47,0,0,0,.37.45,8.63,8.63,0,0,0,1.1.29c.26.06.53.12.8.21a2.88,2.88,0,0,1,.73.34,1.64,1.64,0,0,1,.53.55,1.54,1.54,0,0,1,.21.84,1.87,1.87,0,0,1-.14.67,1.91,1.91,0,0,1-.42.65,2.5,2.5,0,0,1-.73.51,2.7,2.7,0,0,1-1,.26v.46a1.41,1.41,0,0,1,.94.23.77.77,0,0,1,.33.65.91.91,0,0,1-.13.48,1.19,1.19,0,0,1-.37.37,1.92,1.92,0,0,1-.54.24,2.48,2.48,0,0,1-.68.09A2.13,2.13,0,0,1,418.49,97Z" transform="translate(0 -1.14)"/><path d="M427.07,94.57v-.74a2.2,2.2,0,0,1-.78.64,2.38,2.38,0,0,1-1.07.23,2.33,2.33,0,0,1-1.81-.72,2.87,2.87,0,0,1-.67-2V88.13h1.51V91.8a1.9,1.9,0,0,0,.33,1.18,1.24,1.24,0,0,0,1,.43,1.33,1.33,0,0,0,1-.45,1.86,1.86,0,0,0,.4-1.29V88.13h1.49v6.44ZM424,86.26a.82.82,0,0,1,.58-.22.78.78,0,0,1,.58.22.81.81,0,0,1,.21.58.76.76,0,0,1-.21.56.87.87,0,0,1-1.16,0,.76.76,0,0,1-.21-.56A.81.81,0,0,1,424,86.26Zm2.1,0a.82.82,0,0,1,.58-.22.8.8,0,0,1,.58.22.81.81,0,0,1,.21.58.82.82,0,0,1-1.38.56.8.8,0,0,1-.2-.56A.81.81,0,0,1,426.11,86.26Z" transform="translate(0 -1.14)"/><path d="M430.93,88.13v.75a2.19,2.19,0,0,1,.77-.64,2.3,2.3,0,0,1,1.06-.24,2.61,2.61,0,0,1,1.28.29,2.06,2.06,0,0,1,.81.82,2.64,2.64,0,0,1,.88-.81,2.89,2.89,0,0,1,3.19.42,2.82,2.82,0,0,1,.66,2v3.87h-1.51V90.82a1.66,1.66,0,0,0-.36-1.12,1.3,1.3,0,0,0-1-.41,1.35,1.35,0,0,0-1,.42,1.71,1.71,0,0,0-.41,1.26v3.6h-1.51v-3.8a1.57,1.57,0,0,0-.34-1.08,1.24,1.24,0,0,0-1-.4,1.36,1.36,0,0,0-1,.43,1.75,1.75,0,0,0-.41,1.29v3.56h-1.49V88.13Z" transform="translate(0 -1.14)"/><path d="M319.48,126.65a.89.89,0,0,1,.68-.25.93.93,0,0,1,.69.25,1,1,0,0,1,.24.68.94.94,0,1,1-1.87,0A.94.94,0,0,1,319.48,126.65Zm1.43,2.25v6.44h-1.5V128.9Z" transform="translate(0 -1.14)"/><path d="M323.19,137.8a2.61,2.61,0,0,1-.73-.47l.85-.52a3.81,3.81,0,0,0,.37.27,1,1,0,0,0,.89,0c.13-.07.19-.15.19-.24s-.22-.3-.64-.3h-.55v-1.12a3,3,0,0,1-1.37-.49,2.78,2.78,0,0,1-.88-1l1.38-.66a1.62,1.62,0,0,0,.63.69,1.73,1.73,0,0,0,.92.24,1.2,1.2,0,0,0,.82-.23.67.67,0,0,0,.28-.55.34.34,0,0,0-.13-.28,1,1,0,0,0-.33-.2,2.35,2.35,0,0,0-.48-.13l-.57-.12c-.28-.06-.55-.13-.82-.21a2.66,2.66,0,0,1-.72-.34,1.68,1.68,0,0,1-.51-.55,1.54,1.54,0,0,1-.2-.84,1.62,1.62,0,0,1,.18-.74,2.06,2.06,0,0,1,.51-.64,2.65,2.65,0,0,1,.8-.43,3.11,3.11,0,0,1,1-.16,3.28,3.28,0,0,1,1.61.36,2.72,2.72,0,0,1,1,1l-1.27.64a1.36,1.36,0,0,0-.55-.54,1.62,1.62,0,0,0-.81-.2,1.19,1.19,0,0,0-.78.21.62.62,0,0,0-.26.49c0,.21.13.36.38.45a8.18,8.18,0,0,0,1.1.29c.26.06.53.12.8.21a3,3,0,0,1,.73.34,1.64,1.64,0,0,1,.53.55,1.54,1.54,0,0,1,.2.84,1.85,1.85,0,0,1-.13.67,2.1,2.1,0,0,1-.43.65,2.45,2.45,0,0,1-.72.51,3,3,0,0,1-1.05.26v.46a1.43,1.43,0,0,1,.94.23.77.77,0,0,1,.33.65.92.92,0,0,1-.14.48,1.06,1.06,0,0,1-.36.37,1.92,1.92,0,0,1-.54.24,2.48,2.48,0,0,1-.68.09A2.09,2.09,0,0,1,323.19,137.8Z" transform="translate(0 -1.14)"/><path d="M334.26,127.31l2.86,8h-1.56l-.5-1.43H332l-.49,1.43h-1.57l2.86-8Zm.31,5.17-1.06-3-1.05,3Z" transform="translate(0 -1.14)"/><path d="M339.21,127.2v8.14h-1.5V127.2Z" transform="translate(0 -1.14)"/><path d="M341.88,135.25a3.09,3.09,0,0,1-1-.66,3.23,3.23,0,0,1-.73-1.05,3.51,3.51,0,0,1-.27-1.41,3.58,3.58,0,0,1,.27-1.43,3.24,3.24,0,0,1,.71-1,3.29,3.29,0,0,1,2.21-.88,2.9,2.9,0,0,1,1.18.24,2.69,2.69,0,0,1,.89.66v-.77h1.48v6.44h-1.48v-.84a2.47,2.47,0,0,1-.91.71,2.61,2.61,0,0,1-1.18.26A3.05,3.05,0,0,1,341.88,135.25ZM344,134a1.7,1.7,0,0,0,.6-.43,1.88,1.88,0,0,0,.4-.63,2.09,2.09,0,0,0,.15-.79,2,2,0,0,0-.15-.77,1.88,1.88,0,0,0-.4-.63,1.81,1.81,0,0,0-.6-.42,2,2,0,0,0-.77-.16,2,2,0,0,0-1.39.58,1.92,1.92,0,0,0-.41.62,2.08,2.08,0,0,0-.15.78,2.06,2.06,0,0,0,.15.79,1.87,1.87,0,0,0,1,1.06,1.83,1.83,0,0,0,.77.16A1.8,1.8,0,0,0,344,134Z" transform="translate(0 -1.14)"/><path d="M349,128.9v.8a2.34,2.34,0,0,1,.81-.68,2.45,2.45,0,0,1,1.11-.25,2.43,2.43,0,0,1,1.88.73,2.85,2.85,0,0,1,.68,2v3.82H352v-3.66a1.77,1.77,0,0,0-.37-1.19,1.32,1.32,0,0,0-1.08-.43,1.44,1.44,0,0,0-1.08.45,1.79,1.79,0,0,0-.43,1.3v3.53H347.5V128.9Z" transform="translate(0 -1.14)"/><path d="M355.81,128.9v6.44h-1.5V128.9Z" transform="translate(0 -1.14)"/><path d="M358.19,128.9v.8a2.33,2.33,0,0,1,1.93-.93,2.44,2.44,0,0,1,1.88.73,2.85,2.85,0,0,1,.67,2v3.82h-1.5v-3.66a1.82,1.82,0,0,0-.37-1.19,1.33,1.33,0,0,0-1.09-.43,1.44,1.44,0,0,0-1.07.45,1.79,1.79,0,0,0-.43,1.3v3.53h-1.49V128.9Z" transform="translate(0 -1.14)"/><path d="M365.34,135.25a3.17,3.17,0,0,1-1.74-1.71,3.35,3.35,0,0,1-.28-1.41,3.58,3.58,0,0,1,.27-1.43,3.27,3.27,0,0,1,.72-1,3,3,0,0,1,1-.65,3.22,3.22,0,0,1,1.18-.23,2.85,2.85,0,0,1,1.17.24,2.45,2.45,0,0,1,.89.65V127.2h1.49v8.14h-1.48v-.84a2.52,2.52,0,0,1-.9.71,2.69,2.69,0,0,1-1.19.26A3.09,3.09,0,0,1,365.34,135.25Zm2.16-1.3a1.65,1.65,0,0,0,.61-.43,2.05,2.05,0,0,0,.4-.63,2.09,2.09,0,0,0,.15-.79,2.06,2.06,0,0,0-.55-1.4,1.75,1.75,0,0,0-.61-.42,1.93,1.93,0,0,0-.77-.16,2,2,0,0,0-.76.16,1.9,1.9,0,0,0-1,1,2.08,2.08,0,0,0-.15.78,2.06,2.06,0,0,0,.15.79,2,2,0,0,0,.41.64,1.93,1.93,0,0,0,.63.42,1.91,1.91,0,0,0,1.53,0Z" transform="translate(0 -1.14)"/><path d="M372.72,135.25a3.17,3.17,0,0,1-1.74-1.71,3.35,3.35,0,0,1-.28-1.41,3.58,3.58,0,0,1,.27-1.43,3.27,3.27,0,0,1,.72-1,3,3,0,0,1,1-.65,3.22,3.22,0,0,1,1.18-.23,2.86,2.86,0,0,1,1.18.24,2.5,2.5,0,0,1,.89.66v-.77h1.49v6.44H376v-.84a2.43,2.43,0,0,1-.9.71,2.69,2.69,0,0,1-1.19.26A3.09,3.09,0,0,1,372.72,135.25Zm2.16-1.3a1.65,1.65,0,0,0,.61-.43,2.05,2.05,0,0,0,.4-.63,2.09,2.09,0,0,0,.15-.79,2.06,2.06,0,0,0-.55-1.4,1.75,1.75,0,0,0-.61-.42,1.93,1.93,0,0,0-.77-.16,2,2,0,0,0-.76.16,2,2,0,0,0-1,1,2.27,2.27,0,0,0,0,1.57,1.87,1.87,0,0,0,.42.64,2,2,0,0,0,1.38.58A1.77,1.77,0,0,0,374.88,134Z" transform="translate(0 -1.14)"/><path d="M383.21,127.31a4.85,4.85,0,0,1,1.8.31,3.73,3.73,0,0,1,1.34.84,3.56,3.56,0,0,1,.82,1.27,4.36,4.36,0,0,1,.29,1.59,4.19,4.19,0,0,1-.31,1.6A3.87,3.87,0,0,1,385,135a4.46,4.46,0,0,1-1.69.31H381v-8Zm-.7,6.64h.59a3.46,3.46,0,0,0,1.19-.19,2.6,2.6,0,0,0,.89-.56,2.41,2.41,0,0,0,.57-.84,2.54,2.54,0,0,0,.21-1,3,3,0,0,0-.18-1.06,2.06,2.06,0,0,0-.54-.83,2.47,2.47,0,0,0-.91-.54,3.9,3.9,0,0,0-1.3-.2h-.52Z" transform="translate(0 -1.14)"/><path d="M389.93,135.21a3.35,3.35,0,0,1-1.06-.71,3.57,3.57,0,0,1-.71-1.07,3.35,3.35,0,0,1-.26-1.3,3.41,3.41,0,0,1,.26-1.32,3.52,3.52,0,0,1,.71-1.06,3.21,3.21,0,0,1,1.06-.72,3.4,3.4,0,0,1,1.31-.26,3.33,3.33,0,0,1,3.07,2,3.24,3.24,0,0,1,.26,1.32,3.18,3.18,0,0,1-.26,1.3,3.39,3.39,0,0,1-.71,1.07,3.46,3.46,0,0,1-1.06.71,3.18,3.18,0,0,1-1.3.26A3.23,3.23,0,0,1,389.93,135.21Zm2.05-1.29a1.87,1.87,0,0,0,.59-.42,1.72,1.72,0,0,0,.39-.62,1.93,1.93,0,0,0,.15-.75,2,2,0,0,0-.15-.77,1.81,1.81,0,0,0-.39-.62,2,2,0,0,0-.59-.42,1.85,1.85,0,0,0-.74-.15,1.81,1.81,0,0,0-.74.15,1.85,1.85,0,0,0-.6.42,2,2,0,0,0-.53,1.39,2.12,2.12,0,0,0,.14.75,2,2,0,0,0,.39.62,1.71,1.71,0,0,0,.6.42,1.81,1.81,0,0,0,.74.15A1.85,1.85,0,0,0,392,133.92ZM389.59,127a.82.82,0,0,1,.58-.22.78.78,0,0,1,.58.22.81.81,0,0,1,.21.58.76.76,0,0,1-.21.56.87.87,0,0,1-1.16,0,.76.76,0,0,1-.21-.56A.81.81,0,0,1,389.59,127Zm2.1,0a.82.82,0,0,1,.58-.22.8.8,0,0,1,.58.22.81.81,0,0,1,.21.58.76.76,0,0,1-.21.56.79.79,0,0,1-1.37-.56A.81.81,0,0,1,391.69,127Z" transform="translate(0 -1.14)"/><path d="M396.69,128.9v.8a2.33,2.33,0,0,1,1.93-.93,2.44,2.44,0,0,1,1.88.73,2.85,2.85,0,0,1,.67,2v3.82h-1.5v-3.66a1.82,1.82,0,0,0-.37-1.19,1.33,1.33,0,0,0-1.09-.43,1.44,1.44,0,0,0-1.07.45,1.79,1.79,0,0,0-.43,1.3v3.53h-1.49V128.9Z" transform="translate(0 -1.14)"/><path d="M406.39,135.34v-.74a2.26,2.26,0,0,1-.77.64,2.45,2.45,0,0,1-1.08.23,2.33,2.33,0,0,1-1.81-.72,2.87,2.87,0,0,1-.67-2V128.9h1.51v3.67a1.9,1.9,0,0,0,.33,1.18,1.24,1.24,0,0,0,1,.43,1.33,1.33,0,0,0,1-.45,1.86,1.86,0,0,0,.4-1.29V128.9h1.49v6.44ZM403.33,127a.82.82,0,0,1,.58-.22.78.78,0,0,1,.58.22.81.81,0,0,1,.21.58.76.76,0,0,1-.21.56.87.87,0,0,1-1.16,0,.76.76,0,0,1-.21-.56A.81.81,0,0,1,403.33,127Zm2.1,0a.82.82,0,0,1,.58-.22.8.8,0,0,1,.58.22.81.81,0,0,1,.21.58.76.76,0,0,1-.21.56.8.8,0,0,1-.58.22.73.73,0,0,1-.79-.78A.81.81,0,0,1,405.43,127Z" transform="translate(0 -1.14)"/><path d="M410.14,137.8a2.77,2.77,0,0,1-.73-.47l.86-.52a2.89,2.89,0,0,0,.37.27.89.89,0,0,0,.46.11.94.94,0,0,0,.43-.1q.18-.1.18-.24c0-.2-.21-.3-.64-.3h-.55v-1.12a2.94,2.94,0,0,1-1.36-.49,2.69,2.69,0,0,1-.88-1l1.37-.66a1.76,1.76,0,0,0,.63.69,1.73,1.73,0,0,0,.92.24A1.23,1.23,0,0,0,412,134a.69.69,0,0,0,.27-.55.36.36,0,0,0-.12-.28,1.32,1.32,0,0,0-.33-.2,2.77,2.77,0,0,0-.48-.13l-.57-.12c-.28-.06-.56-.13-.82-.21a2.66,2.66,0,0,1-.72-.34,1.61,1.61,0,0,1-.52-.55,1.74,1.74,0,0,1,0-1.58,2.06,2.06,0,0,1,.51-.64,2.65,2.65,0,0,1,.8-.43,3.11,3.11,0,0,1,1-.16,3.25,3.25,0,0,1,1.61.36,2.72,2.72,0,0,1,1,1l-1.26.64a1.5,1.5,0,0,0-.55-.54,1.69,1.69,0,0,0-.82-.2,1.21,1.21,0,0,0-.78.21.61.61,0,0,0-.25.49.47.47,0,0,0,.37.45,8.63,8.63,0,0,0,1.1.29,7.86,7.86,0,0,1,.8.21,2.88,2.88,0,0,1,.73.34,1.58,1.58,0,0,1,.74,1.39,1.87,1.87,0,0,1-.14.67,1.91,1.91,0,0,1-.42.65,2.5,2.5,0,0,1-.73.51,2.89,2.89,0,0,1-1,.26v.46a1.44,1.44,0,0,1,.94.23.78.78,0,0,1,.32.65.91.91,0,0,1-.13.48,1.27,1.27,0,0,1-.36.37,2.13,2.13,0,0,1-.55.24,2.43,2.43,0,0,1-.68.09A2.13,2.13,0,0,1,410.14,137.8Z" transform="translate(0 -1.14)"/><path d="M418.72,135.34v-.74a2.26,2.26,0,0,1-.77.64,2.45,2.45,0,0,1-1.08.23,2.34,2.34,0,0,1-1.81-.72,2.87,2.87,0,0,1-.67-2V128.9h1.51v3.67a1.84,1.84,0,0,0,.34,1.18,1.22,1.22,0,0,0,1,.43,1.31,1.31,0,0,0,1-.45,1.87,1.87,0,0,0,.41-1.29V128.9h1.48v6.44ZM415.66,127a.82.82,0,0,1,.58-.22.78.78,0,0,1,.58.22.81.81,0,0,1,.21.58.76.76,0,0,1-.21.56.87.87,0,0,1-1.16,0,.76.76,0,0,1-.21-.56A.81.81,0,0,1,415.66,127Zm2.1,0a.82.82,0,0,1,.58-.22.8.8,0,0,1,.58.22.81.81,0,0,1,.21.58.76.76,0,0,1-.21.56.79.79,0,0,1-1.37-.56A.81.81,0,0,1,417.76,127Z" transform="translate(0 -1.14)"/><path d="M422.58,128.9v.75a2.19,2.19,0,0,1,.77-.64,2.3,2.3,0,0,1,1.06-.24,2.67,2.67,0,0,1,1.29.29,2.1,2.1,0,0,1,.8.82,2.64,2.64,0,0,1,.88-.81,2.9,2.9,0,0,1,3.2.42,2.82,2.82,0,0,1,.66,2v3.87h-1.52v-3.75a1.71,1.71,0,0,0-.35-1.12,1.33,1.33,0,0,0-1.05-.41,1.35,1.35,0,0,0-1,.42,1.75,1.75,0,0,0-.41,1.26v3.6h-1.51v-3.8a1.62,1.62,0,0,0-.34-1.09,1.25,1.25,0,0,0-1-.39,1.37,1.37,0,0,0-1,.43,1.79,1.79,0,0,0-.41,1.28v3.57H421.1V128.9Z" transform="translate(0 -1.14)"/><path d="M320.94,201.8v2.78h-1.5v-8h1.5v3.29l2.65-3.29h1.82l-2.55,3.13,2.78,4.9h-1.71l-2.12-3.86Z" transform="translate(0 -1.14)"/><path d="M330,204.58v-.73a2.38,2.38,0,0,1-.77.64,2.45,2.45,0,0,1-1.08.23,2.3,2.3,0,0,1-1.81-.73,2.85,2.85,0,0,1-.67-2v-3.82h1.51v3.66a1.93,1.93,0,0,0,.33,1.19,1.24,1.24,0,0,0,1,.43,1.32,1.32,0,0,0,1-.45,1.87,1.87,0,0,0,.4-1.3v-3.53h1.49v6.43Z" transform="translate(0 -1.14)"/><path d="M333.9,198.15v1a1.66,1.66,0,0,1,1.65-1,2.09,2.09,0,0,1,.63.08,2.26,2.26,0,0,1,.5.19l-.56,1.41a1.82,1.82,0,0,0-.37-.18,1.56,1.56,0,0,0-.52-.07,1.26,1.26,0,0,0-1,.37,1.77,1.77,0,0,0-.33,1.2v3.43h-1.49v-6.43Z" transform="translate(0 -1.14)"/><path d="M341.49,204.58v-.73a2.28,2.28,0,0,1-.77.64,2.45,2.45,0,0,1-1.08.23,2.32,2.32,0,0,1-1.81-.73,2.89,2.89,0,0,1-.67-2v-3.82h1.51v3.66A1.87,1.87,0,0,0,339,203a1.22,1.22,0,0,0,1,.43,1.31,1.31,0,0,0,1-.45,1.88,1.88,0,0,0,.41-1.3v-3.53H343v6.43Z" transform="translate(0 -1.14)"/><path d="M345.35,198.15v.75a2.21,2.21,0,0,1,.77-.65,2.43,2.43,0,0,1,1.06-.23,2.56,2.56,0,0,1,1.29.29,2.13,2.13,0,0,1,.81.82,2.42,2.42,0,0,1,.87-.81,2.9,2.9,0,0,1,3.2.42,2.81,2.81,0,0,1,.66,2v3.87h-1.52v-3.75a1.66,1.66,0,0,0-.35-1.11,1.31,1.31,0,0,0-1.05-.42,1.35,1.35,0,0,0-1,.42,1.76,1.76,0,0,0-.41,1.27v3.59h-1.51v-3.79a1.6,1.6,0,0,0-.34-1.09,1.26,1.26,0,0,0-1-.4,1.41,1.41,0,0,0-1,.43,1.83,1.83,0,0,0-.41,1.29v3.56h-1.49v-6.43Z" transform="translate(0 -1.14)"/><path d="M357.61,195.9a.93.93,0,0,1,.68-.26.9.9,0,0,1,.69.26,1,1,0,0,1,0,1.35,1.08,1.08,0,0,1-1.38,0,1,1,0,0,1-.24-.67A.92.92,0,0,1,357.61,195.9Zm1.43,2.25v6.43h-1.49v-6.43Z" transform="translate(0 -1.14)"/><path d="M362.09,207.1a2.94,2.94,0,0,1-.73-.47l.86-.52a3.81,3.81,0,0,0,.37.27.93.93,0,0,0,.47.11.82.82,0,0,0,.42-.1q.18-.1.18-.24c0-.2-.21-.3-.64-.3h-.55v-1.18a3.06,3.06,0,0,1-1.11-.39,3.89,3.89,0,0,1-.88-.73,3.27,3.27,0,0,1-.58-1,3.39,3.39,0,0,1-.21-1.19,3.33,3.33,0,0,1,.26-1.31,3.28,3.28,0,0,1,.71-1.07,3.33,3.33,0,0,1,2.38-1,3.38,3.38,0,0,1,1,.15,3.08,3.08,0,0,1,.88.41A3.23,3.23,0,0,1,366.1,200l-1.33.56a1.85,1.85,0,0,0-.67-.84,1.83,1.83,0,0,0-1.05-.32,1.88,1.88,0,0,0-.76.16,1.81,1.81,0,0,0-.6.42,1.74,1.74,0,0,0-.4.62,2,2,0,0,0,.4,2.14,2.07,2.07,0,0,0,.61.42,1.91,1.91,0,0,0,.76.15,1.69,1.69,0,0,0,1.07-.34,2,2,0,0,0,.67-.86l1.33.57a3.48,3.48,0,0,1-1.05,1.37,3,3,0,0,1-1.68.64v.52a1.44,1.44,0,0,1,.94.23.76.76,0,0,1,.32.65.91.91,0,0,1-.13.48,1.27,1.27,0,0,1-.36.37,2.13,2.13,0,0,1-.55.24,2.36,2.36,0,0,1-.67.09A2.14,2.14,0,0,1,362.09,207.1Z" transform="translate(0 -1.14)"/><path d="M366.75,195.9a.93.93,0,0,1,.68-.26.9.9,0,0,1,.69.26,1,1,0,0,1,0,1.35,1.08,1.08,0,0,1-1.38,0,1,1,0,0,1-.24-.67A.92.92,0,0,1,366.75,195.9Zm1.43,2.25v6.43h-1.49v-6.43Z" transform="translate(0 -1.14)"/><path d="M371.8,195.9a.93.93,0,0,1,.68-.26.9.9,0,0,1,.69.26,1,1,0,0,1,0,1.35,1.08,1.08,0,0,1-1.38,0,1,1,0,0,1-.24-.67A.92.92,0,0,1,371.8,195.9Zm1.43,2.25v6.43h-1.49v-6.43Z" transform="translate(0 -1.14)"/><path d="M375.51,207a2.91,2.91,0,0,1-.73-.46l.86-.52a2.78,2.78,0,0,0,.37.26.84.84,0,0,0,.47.11.82.82,0,0,0,.42-.1.27.27,0,0,0,.18-.24c0-.2-.21-.3-.64-.3h-.55v-1.12a2.87,2.87,0,0,1-1.36-.48,2.77,2.77,0,0,1-.88-1l1.37-.66a1.66,1.66,0,0,0,1.56.93,1.27,1.27,0,0,0,.82-.23.73.73,0,0,0,.28-.55.39.39,0,0,0-.13-.29,1.69,1.69,0,0,0-.33-.19,4,4,0,0,0-.48-.14l-.57-.12c-.28-.06-.55-.13-.82-.21a2.64,2.64,0,0,1-.72-.33,1.82,1.82,0,0,1-.52-.55,1.68,1.68,0,0,1-.2-.84,1.66,1.66,0,0,1,.18-.75,2.09,2.09,0,0,1,.52-.63,2.4,2.4,0,0,1,.79-.43,3.15,3.15,0,0,1,1-.16,3.29,3.29,0,0,1,1.62.35,2.79,2.79,0,0,1,1,1l-1.26.64a1.43,1.43,0,0,0-.55-.54,1.58,1.58,0,0,0-.82-.2,1.21,1.21,0,0,0-.78.21.61.61,0,0,0-.25.48.48.48,0,0,0,.37.46,8.63,8.63,0,0,0,1.1.29,7.79,7.79,0,0,1,.8.2,3.26,3.26,0,0,1,.73.34,1.89,1.89,0,0,1,.54.55,1.7,1.7,0,0,1,.2.85,1.92,1.92,0,0,1-.14.67,2,2,0,0,1-.42.65,2.77,2.77,0,0,1-.73.51,2.89,2.89,0,0,1-1,.26v.46a1.45,1.45,0,0,1,.94.22.81.81,0,0,1,.32.66.85.85,0,0,1-.13.47,1.3,1.3,0,0,1-.36.38,2.13,2.13,0,0,1-.55.24,2.41,2.41,0,0,1-.67.09A2,2,0,0,1,375.51,207Z" transform="translate(0 -1.14)"/><path d="M381.28,196.44v8.14h-1.49v-8.14Z" transform="translate(0 -1.14)"/><path d="M384,204.46a3.22,3.22,0,0,1-1.08-.71,3.29,3.29,0,0,1-.69-1.06,3.36,3.36,0,0,1-.25-1.31,3.41,3.41,0,0,1,.26-1.32,3.24,3.24,0,0,1,.71-1.06,3.29,3.29,0,0,1,2.38-1,3.56,3.56,0,0,1,1.32.24,3.07,3.07,0,0,1,1,.7,3,3,0,0,1,.69,1,3.34,3.34,0,0,1,.25,1.32v.56h-5.24A1.94,1.94,0,0,0,384,203a2,2,0,0,0,1.31.42,1.89,1.89,0,0,0,1.09-.31,1.87,1.87,0,0,0,.69-.83l1.22.71a3.22,3.22,0,0,1-1.17,1.26,3.33,3.33,0,0,1-1.83.48A3.61,3.61,0,0,1,384,204.46Zm.17-4.77a1.87,1.87,0,0,0-.69,1h3.65a1.65,1.65,0,0,0-.64-1,2,2,0,0,0-1.16-.33A1.88,1.88,0,0,0,384.12,199.69Z" transform="translate(0 -1.14)"/><path d="M388.5,198.15h1.58l1.8,4.33,1.69-4.33h1.56l-3.84,9.41h-1.5l1.35-3.29Z" transform="translate(0 -1.14)"/><path d="M395.73,195.9a.91.91,0,0,1,.68-.26.94.94,0,0,1,.69.26,1.07,1.07,0,0,1,0,1.35.93.93,0,0,1-.69.25.9.9,0,0,1-.69-.25.91.91,0,0,1-.25-.67A.93.93,0,0,1,395.73,195.9Zm1.43,2.25v6.43h-1.5v-6.43Z" transform="translate(0 -1.14)"/><path d="M399.44,207a2.59,2.59,0,0,1-.73-.46l.86-.52a2.7,2.7,0,0,0,.36.26.84.84,0,0,0,.47.11.88.88,0,0,0,.43-.1.27.27,0,0,0,.18-.24c0-.2-.22-.3-.64-.3h-.55v-1.12a2.91,2.91,0,0,1-1.37-.48,2.86,2.86,0,0,1-.88-1l1.38-.66a1.62,1.62,0,0,0,.63.69,1.73,1.73,0,0,0,.92.24,1.3,1.3,0,0,0,.83-.23.71.71,0,0,0,.27-.55.36.36,0,0,0-.13-.29,1.25,1.25,0,0,0-.33-.19,3.35,3.35,0,0,0-.47-.14l-.58-.12c-.28-.06-.55-.13-.82-.21a3,3,0,0,1-.72-.33,1.78,1.78,0,0,1-.51-.55,1.58,1.58,0,0,1-.2-.84,1.66,1.66,0,0,1,.18-.75,1.92,1.92,0,0,1,.51-.63,2.45,2.45,0,0,1,.8-.43,3.11,3.11,0,0,1,1-.16,3.28,3.28,0,0,1,1.61.35,2.74,2.74,0,0,1,1,1l-1.27.64a1.36,1.36,0,0,0-.55-.54,1.52,1.52,0,0,0-.81-.2,1.21,1.21,0,0,0-.78.21.62.62,0,0,0-.26.48.49.49,0,0,0,.38.46,8.18,8.18,0,0,0,1.1.29c.26,0,.53.12.8.2a3.49,3.49,0,0,1,.73.34,1.74,1.74,0,0,1,.53.55,1.6,1.6,0,0,1,.21.85,1.92,1.92,0,0,1-.14.67,2,2,0,0,1-.43.65,2.88,2.88,0,0,1-.72.51,2.94,2.94,0,0,1-1.05.26v.46a1.43,1.43,0,0,1,.94.22.8.8,0,0,1,.33.66,1,1,0,0,1-.13.47,1.21,1.21,0,0,1-.37.38,1.92,1.92,0,0,1-.54.24,2.48,2.48,0,0,1-.68.09A2,2,0,0,1,399.44,207Z" transform="translate(0 -1.14)"/><path d="M404.47,198.15v-1l1.5-1v2h1.31v1.33H406v2.41a4.27,4.27,0,0,0,0,.68.71.71,0,0,0,.18.39.74.74,0,0,0,.4.18,4.07,4.07,0,0,0,.69.05v1.39h-.21a4.89,4.89,0,0,1-1.25-.13,1.6,1.6,0,0,1-.8-.44,1.77,1.77,0,0,1-.42-.83,5.15,5.15,0,0,1-.13-1.28v-2.42h-1.1v-1.33Z" transform="translate(0 -1.14)"/><path d="M409.58,204.46a3.22,3.22,0,0,1-1.08-.71,3.29,3.29,0,0,1-.69-1.06,3.36,3.36,0,0,1-.25-1.31,3.41,3.41,0,0,1,.26-1.32,3.24,3.24,0,0,1,.71-1.06,3.29,3.29,0,0,1,2.38-1,3.56,3.56,0,0,1,1.32.24,3.07,3.07,0,0,1,1,.7,3,3,0,0,1,.69,1,3.34,3.34,0,0,1,.25,1.32v.56H409a1.94,1.94,0,0,0,.67,1.1,2,2,0,0,0,1.31.42,1.89,1.89,0,0,0,1.09-.31,1.87,1.87,0,0,0,.69-.83L414,203a3.22,3.22,0,0,1-1.17,1.26,3.33,3.33,0,0,1-1.83.48A3.61,3.61,0,0,1,409.58,204.46Zm.17-4.77a1.87,1.87,0,0,0-.69,1h3.65a1.65,1.65,0,0,0-.64-1,2,2,0,0,0-1.16-.33A1.88,1.88,0,0,0,409.75,199.69Z" transform="translate(0 -1.14)"/><path d="M419.79,196.55a5.08,5.08,0,0,1,1.81.31,3.85,3.85,0,0,1,1.33.85,3.5,3.5,0,0,1,.83,1.27,4.36,4.36,0,0,1,.28,1.59,4.07,4.07,0,0,1-.31,1.6,3.71,3.71,0,0,1-.86,1.27,4.19,4.19,0,0,1-1.33.84,4.56,4.56,0,0,1-1.68.3H417.6v-8Zm-.69,6.65h.58a3.41,3.41,0,0,0,1.19-.2,2.72,2.72,0,0,0,.9-.55,2.57,2.57,0,0,0,.77-1.88,3,3,0,0,0-.17-1.06,2.21,2.21,0,0,0-.54-.83,2.44,2.44,0,0,0-.91-.55,3.92,3.92,0,0,0-1.3-.19h-.52Z" transform="translate(0 -1.14)"/><path d="M426.52,204.46a3.11,3.11,0,0,1-1.06-.72,3.35,3.35,0,0,1-.71-1.06,3.4,3.4,0,0,1-.26-1.31,3.33,3.33,0,0,1,.26-1.31,3.28,3.28,0,0,1,.71-1.07,3.24,3.24,0,0,1,1.06-.71,3.18,3.18,0,0,1,1.3-.26,3.11,3.11,0,0,1,1.3.26,3.24,3.24,0,0,1,1.06.71,3.16,3.16,0,0,1,.72,1.07,3.33,3.33,0,0,1,.26,1.31,3.4,3.4,0,0,1-.26,1.31,3.21,3.21,0,0,1-.72,1.06,3.11,3.11,0,0,1-1.06.72,3.28,3.28,0,0,1-1.3.26A3.35,3.35,0,0,1,426.52,204.46Zm2-1.29a2.15,2.15,0,0,0,.6-.42,2.1,2.1,0,0,0,.39-.62,2.13,2.13,0,0,0,0-1.52,1.87,1.87,0,0,0-.39-.62,1.88,1.88,0,0,0-1.34-.58,1.86,1.86,0,0,0-.74.16,1.67,1.67,0,0,0-.59.42,1.72,1.72,0,0,0-.39.62,2,2,0,0,0,0,1.52,1.91,1.91,0,0,0,.39.62,2,2,0,0,0,.59.42,1.85,1.85,0,0,0,.74.15A1.81,1.81,0,0,0,428.56,203.17Zm-2.38-6.89a.87.87,0,0,1,1.16,0,.8.8,0,0,1,.21.57.73.73,0,0,1-.79.78.8.8,0,0,1-.59-.21.79.79,0,0,1-.21-.57A.81.81,0,0,1,426.18,196.28Zm2.1,0a.76.76,0,0,1,.58-.22.78.78,0,0,1,.58.22.8.8,0,0,1,.21.57.79.79,0,0,1-.21.57.81.81,0,0,1-.58.21.71.71,0,0,1-.79-.78A.8.8,0,0,1,428.28,196.28Z" transform="translate(0 -1.14)"/><path d="M433.28,198.15v.79a2.31,2.31,0,0,1,.81-.67,2.4,2.4,0,0,1,1.12-.25,2.45,2.45,0,0,1,1.87.72,2.88,2.88,0,0,1,.68,2v3.81h-1.51v-3.66a1.79,1.79,0,0,0-.36-1.18,1.34,1.34,0,0,0-1.09-.44,1.43,1.43,0,0,0-1.07.46,1.78,1.78,0,0,0-.44,1.29v3.53h-1.48v-6.43Z" transform="translate(0 -1.14)"/><path d="M443,204.58v-.73a2.19,2.19,0,0,1-.77.64,2.45,2.45,0,0,1-1.08.23,2.33,2.33,0,0,1-1.81-.73,2.89,2.89,0,0,1-.66-2v-3.82h1.51v3.66a1.93,1.93,0,0,0,.33,1.19,1.22,1.22,0,0,0,1,.43,1.31,1.31,0,0,0,1-.45,1.88,1.88,0,0,0,.41-1.3v-3.53h1.49v6.43Zm-3.05-8.3a.87.87,0,0,1,1.16,0,.8.8,0,0,1,.21.57.73.73,0,0,1-.79.78.8.8,0,0,1-.59-.21.79.79,0,0,1-.21-.57A.81.81,0,0,1,439.92,196.28Zm2.1,0a.76.76,0,0,1,.58-.22.74.74,0,0,1,.57.22.77.77,0,0,1,.22.57.75.75,0,0,1-.22.57.91.91,0,0,1-1.16,0,.79.79,0,0,1-.21-.57A.81.81,0,0,1,442,196.28Z" transform="translate(0 -1.14)"/><path d="M446.73,207a2.59,2.59,0,0,1-.73-.46l.85-.52a3.62,3.62,0,0,0,.37.26.84.84,0,0,0,.47.11.82.82,0,0,0,.42-.1.27.27,0,0,0,.18-.24q0-.3-.63-.3h-.55v-1.12a2.69,2.69,0,0,1-2.25-1.51l1.38-.66a1.67,1.67,0,0,0,.62.69,1.79,1.79,0,0,0,.93.24,1.25,1.25,0,0,0,.82-.23.7.7,0,0,0,.28-.55.36.36,0,0,0-.13-.29,1.25,1.25,0,0,0-.33-.19A3.14,3.14,0,0,0,448,202l-.57-.12c-.28-.06-.55-.13-.82-.21a2.64,2.64,0,0,1-.72-.33,2,2,0,0,1-.52-.55,1.68,1.68,0,0,1-.19-.84,1.66,1.66,0,0,1,.18-.75,1.92,1.92,0,0,1,.51-.63,2.35,2.35,0,0,1,.8-.43,3.11,3.11,0,0,1,1-.16,3.28,3.28,0,0,1,1.61.35,2.74,2.74,0,0,1,1,1L449,200a1.36,1.36,0,0,0-.55-.54,1.55,1.55,0,0,0-.81-.2,1.17,1.17,0,0,0-.78.21.62.62,0,0,0-.26.48.49.49,0,0,0,.38.46,8.18,8.18,0,0,0,1.1.29,7.62,7.62,0,0,1,.79.2,3.34,3.34,0,0,1,.74.34,1.85,1.85,0,0,1,.53.55,1.7,1.7,0,0,1,.2.85,1.89,1.89,0,0,1-.13.67,2.23,2.23,0,0,1-.43.65,2.88,2.88,0,0,1-.72.51,3,3,0,0,1-1.05.26v.46a1.45,1.45,0,0,1,.94.22.8.8,0,0,1,.33.66.86.86,0,0,1-.14.47,1.08,1.08,0,0,1-.36.38,2.05,2.05,0,0,1-.54.24,2.48,2.48,0,0,1-.68.09A2,2,0,0,1,446.73,207Z" transform="translate(0 -1.14)"/><path d="M455.3,204.58v-.73a2.19,2.19,0,0,1-.77.64,2.42,2.42,0,0,1-1.08.23,2.33,2.33,0,0,1-1.81-.73,2.89,2.89,0,0,1-.66-2v-3.82h1.51v3.66a1.93,1.93,0,0,0,.33,1.19,1.22,1.22,0,0,0,1,.43,1.31,1.31,0,0,0,1-.45,1.83,1.83,0,0,0,.41-1.3v-3.53h1.49v6.43Zm-3.05-8.3a.87.87,0,0,1,1.16,0,.8.8,0,0,1,.21.57.73.73,0,0,1-.79.78.8.8,0,0,1-.59-.21.78.78,0,0,1-.2-.57A.8.8,0,0,1,452.25,196.28Zm2.1,0a.76.76,0,0,1,.58-.22.78.78,0,0,1,.58.22.8.8,0,0,1,.21.57.79.79,0,0,1-.21.57.81.81,0,0,1-.58.21.71.71,0,0,1-.79-.78A.8.8,0,0,1,454.35,196.28Z" transform="translate(0 -1.14)"/><path d="M459.16,198.15v.75a2.34,2.34,0,0,1,.78-.65A2.39,2.39,0,0,1,461,198a2.53,2.53,0,0,1,1.28.29,2,2,0,0,1,.81.82,2.42,2.42,0,0,1,.87-.81,2.56,2.56,0,0,1,1.24-.3,2.52,2.52,0,0,1,2,.72,2.81,2.81,0,0,1,.66,2v3.87H466.3v-3.75a1.61,1.61,0,0,0-.35-1.11,1.27,1.27,0,0,0-1-.42,1.37,1.37,0,0,0-1,.42,1.76,1.76,0,0,0-.4,1.27v3.59H462v-3.79a1.6,1.6,0,0,0-.34-1.09,1.29,1.29,0,0,0-1-.4,1.39,1.39,0,0,0-1,.43,1.79,1.79,0,0,0-.42,1.29v3.56h-1.48v-6.43Z" transform="translate(0 -1.14)"/></svg>