<svg id="Layer_1" data-name="Layer 1" xmlns="http://www.w3.org/2000/svg" xmlns:xlink="http://www.w3.org/1999/xlink" viewBox="0 0 481.83 338"><defs><style>.cls-1{fill:#bebebe;}.cls-2{fill:url(#linear-gradient);}.cls-3{fill:url(#linear-gradient-2);}.cls-4{fill:#acacac;}.cls-5{fill:url(#linear-gradient-3);}.cls-6{fill:url(#linear-gradient-4);}.cls-7{fill:#dfdfdf;}.cls-8{fill:url(#linear-gradient-5);}.cls-9{fill:url(#linear-gradient-6);}.cls-10{fill:url(#linear-gradient-7);}.cls-11{fill:url(#linear-gradient-8);}.cls-12{fill:none;stroke:#000;stroke-miterlimit:10;}.cls-13{fill:#231f20;}</style><linearGradient id="linear-gradient" x1="2.31" y1="131.44" x2="153.79" y2="131.44" gradientTransform="matrix(1, 0, 0, -1, -2.31, 402.59)" gradientUnits="userSpaceOnUse"><stop offset="0" stop-color="#adadad"/><stop offset="1" stop-color="#9d9d9d"/></linearGradient><linearGradient id="linear-gradient-2" x1="153.79" y1="131.44" x2="305.26" y2="131.44" xlink:href="#linear-gradient"/><linearGradient id="linear-gradient-3" x1="47.6" y1="198.01" x2="153.79" y2="198.01" gradientTransform="matrix(1, 0, 0, -1, -2.31, 402.59)" gradientUnits="userSpaceOnUse"><stop offset="0" stop-color="#9d9d9d"/><stop offset="1" stop-color="#848484"/></linearGradient><linearGradient id="linear-gradient-4" x1="153.79" y1="198.01" x2="259.98" y2="198.01" xlink:href="#linear-gradient-3"/><linearGradient id="linear-gradient-5" x1="92.01" y1="255.77" x2="153.79" y2="255.77" gradientTransform="matrix(1, 0, 0, -1, -2.31, 402.59)" gradientUnits="userSpaceOnUse"><stop offset="0" stop-color="#d3d3d3"/><stop offset="1" stop-color="#bebebe"/></linearGradient><linearGradient id="linear-gradient-6" x1="153.79" y1="255.77" x2="215.57" y2="255.77" xlink:href="#linear-gradient-5"/><linearGradient id="linear-gradient-7" x1="128.06" y1="311.61" x2="153.79" y2="311.61" gradientTransform="matrix(1, 0, 0, -1, -2.31, 402.59)" gradientUnits="userSpaceOnUse"><stop offset="0" stop-color="#a0a0a0"/><stop offset="1" stop-color="#848484"/></linearGradient><linearGradient id="linear-gradient-8" x1="153.79" y1="311.61" x2="179.51" y2="311.61" xlink:href="#linear-gradient-7"/></defs><g id="Layer_1-2" data-name="Layer 1"><polygon class="cls-1" points="151.48 275.5 28.18 204.31 151.48 133.13 274.77 204.31 151.48 275.5"/><polygon class="cls-2" points="0 250.54 151.48 338 151.48 275.5 28.18 204.31 0 250.54"/><polygon class="cls-3" points="151.48 275.5 151.48 275.5 151.48 338 302.95 250.54 274.77 204.31 151.48 275.5"/><polygon class="cls-4" points="151.48 195.05 74.04 150.34 151.48 105.64 228.92 150.34 151.48 195.05"/><polygon class="cls-5" points="45.29 197.52 151.48 258.83 151.48 195.05 74.04 150.34 45.29 197.52"/><polygon class="cls-6" points="151.48 195.05 151.48 195.05 151.48 258.83 257.67 197.52 228.92 150.34 151.48 195.05"/><polygon class="cls-7" points="151.48 131.35 113.53 109.44 151.48 87.53 189.43 109.44 151.48 131.35"/><polygon class="cls-8" points="89.7 148.54 151.48 184.21 151.48 131.35 113.53 109.44 89.7 148.54"/><polygon class="cls-9" points="151.48 131.35 151.48 131.35 151.48 184.21 213.26 148.54 189.42 109.44 151.48 131.35"/><polygon class="cls-10" points="125.75 104.66 151.48 119.51 151.48 62.45 125.75 104.66"/><polygon class="cls-11" points="177.2 104.66 151.48 62.45 151.48 119.51 151.48 119.51 177.2 104.66"/></g><g id="Layer_2" data-name="Layer 2"><line class="cls-12" x1="186.73" y1="5.2" x2="310.17" y2="5.2"/><line class="cls-12" x1="153.56" y1="49.29" x2="186.73" y2="5.2"/><circle class="cls-13" cx="153.77" cy="49.5" r="2.31"/><circle class="cls-13" cx="310.38" cy="4.99" r="2.31"/><path class="cls-13" d="M304,301.82h-9.76l-5.49,0a1.86,1.86,0,1,0,0,.33l5.34,0,9.9,0a1.85,1.85,0,1,0,0-.37Z" transform="translate(-2.31 -99.41)"/><path class="cls-13" d="M259.8,231l-14.22,12.3a2.36,2.36,0,1,0,.34.29l13.94-12.12H307.8a2.34,2.34,0,1,0,0-.47Z" transform="translate(-2.31 -99.41)"/><line class="cls-12" x1="211.92" y1="90.01" x2="308.28" y2="90.01"/><circle class="cls-13" cx="309.96" cy="90.22" r="2.31"/><line class="cls-12" x1="193.65" y1="104.53" x2="212.13" y2="89.8"/><circle class="cls-13" cx="194.08" cy="104.92" r="2.31"/></g><path d="M328.69,105.28c0,1.09-.82,1.92-2.48,1.92h-3.46V99.92H326c1.72,0,2.3,1,2.3,1.92a1.63,1.63,0,0,1-1,1.64A1.81,1.81,0,0,1,328.69,105.28Zm-5.11-2.11H326c.76,0,1.47-.37,1.47-1.26,0-.61-.38-1.21-1.38-1.21h-2.53Zm4.29,2c0-.68-.51-1.3-1.66-1.3h-2.63v2.5h2.71C327.29,106.42,327.87,106,327.87,105.22Z" transform="translate(-2.31 -99.41)"/><path d="M333.76,107.2v-.86a2.13,2.13,0,0,1-1.82,1,2.2,2.2,0,0,1-2.2-2.39v-3.2h.82v3.18a1.53,1.53,0,0,0,1.54,1.66,1.63,1.63,0,0,0,1.66-1.67V101.7h.83v5.5Z" transform="translate(-2.31 -99.41)"/><path d="M340.09,103.17h-.84c-.06-.47-.42-.86-1.34-.86s-1.31.26-1.31.8c0,1.32,3.66.46,3.66,2.53,0,1.06-.88,1.65-2.24,1.65-1.53,0-2.33-.85-2.39-1.82h.86c.05.56.47,1.11,1.54,1.11.45,0,1.41-.12,1.41-.87,0-1.37-3.67-.51-3.67-2.53,0-1,.74-1.57,2.16-1.57S340,102.37,340.09,103.17Z" transform="translate(-2.31 -99.41)"/><path d="M342.18,99.7v1.07h-.89V99.7Zm-.86,2h.82v5.5h-.82Z" transform="translate(-2.31 -99.41)"/><path d="M344.4,101.7v.86a2.14,2.14,0,0,1,1.83-1,2.2,2.2,0,0,1,2.2,2.39v3.2h-.83V104a1.53,1.53,0,0,0-1.54-1.66A1.63,1.63,0,0,0,344.4,104v3.17h-.83v-5.5Z" transform="translate(-2.31 -99.41)"/><path d="M353.85,105.61h.9a2.51,2.51,0,0,1-2.51,1.68,2.72,2.72,0,0,1-2.78-2.84,2.73,2.73,0,1,1,5.46,0v.33h-4.61a1.9,1.9,0,0,0,1.94,1.76A1.73,1.73,0,0,0,353.85,105.61Zm-3.53-1.6h3.74a1.88,1.88,0,0,0-3.74,0Z" transform="translate(-2.31 -99.41)"/><path d="M360,103.17h-.84c-.06-.47-.42-.86-1.34-.86s-1.31.26-1.31.8c0,1.32,3.66.46,3.66,2.53,0,1.06-.88,1.65-2.24,1.65-1.53,0-2.33-.85-2.39-1.82h.86c.06.56.47,1.11,1.54,1.11.45,0,1.41-.12,1.41-.87,0-1.37-3.67-.51-3.67-2.53,0-1,.74-1.57,2.16-1.57S359.9,102.37,360,103.17Z" transform="translate(-2.31 -99.41)"/><path d="M365.3,103.17h-.84c-.06-.47-.42-.86-1.34-.86s-1.31.26-1.31.8c0,1.32,3.67.46,3.67,2.53,0,1.06-.88,1.65-2.25,1.65-1.53,0-2.33-.85-2.39-1.82h.86c.06.56.47,1.11,1.54,1.11.45,0,1.41-.12,1.41-.87,0-1.37-3.66-.51-3.66-2.53,0-1,.73-1.57,2.15-1.57S365.2,102.37,365.3,103.17Z" transform="translate(-2.31 -99.41)"/><path d="M369.87,107.2h-.82V99.92h3.28a2.35,2.35,0,1,1,0,4.68h-2.46Zm0-6.5v3.13h2.4c1.15,0,1.74-.59,1.74-1.57s-.59-1.56-1.74-1.56Z" transform="translate(-2.31 -99.41)"/><path d="M378.69,101.61v.82h-.1a2.14,2.14,0,0,0-2,2.35v2.42h-.83v-5.5h.83v1.35a2.09,2.09,0,0,1,2-1.44Z" transform="translate(-2.31 -99.41)"/><path d="M384.55,104.45a2.73,2.73,0,1,1-2.73-2.84A2.68,2.68,0,0,1,384.55,104.45Zm-.83,0a1.91,1.91,0,1,0-1.9,2.09A1.91,1.91,0,0,0,383.72,104.45Z" transform="translate(-2.31 -99.41)"/><path d="M389.71,105.47h.89a2.6,2.6,0,0,1-2.6,1.82,2.84,2.84,0,0,1,0-5.68,2.6,2.6,0,0,1,2.6,1.81h-.89a1.67,1.67,0,0,0-1.6-1.06,2.09,2.09,0,0,0,0,4.18A1.66,1.66,0,0,0,389.71,105.47Z" transform="translate(-2.31 -99.41)"/><path d="M395.67,105.61h.9a2.51,2.51,0,0,1-2.51,1.68,2.72,2.72,0,0,1-2.78-2.84,2.73,2.73,0,1,1,5.46,0v.33h-4.61a1.9,1.9,0,0,0,1.94,1.76A1.73,1.73,0,0,0,395.67,105.61Zm-3.53-1.6h3.74a1.88,1.88,0,0,0-3.74,0Z" transform="translate(-2.31 -99.41)"/><path d="M401.82,103.17H401c-.06-.47-.42-.86-1.34-.86s-1.31.26-1.31.8c0,1.32,3.67.46,3.67,2.53,0,1.06-.88,1.65-2.25,1.65-1.53,0-2.33-.85-2.39-1.82h.86c.06.56.47,1.11,1.54,1.11.45,0,1.41-.12,1.41-.87,0-1.37-3.66-.51-3.66-2.53,0-1,.73-1.57,2.15-1.57S401.72,102.37,401.82,103.17Z" transform="translate(-2.31 -99.41)"/><path d="M407.12,103.17h-.84c-.06-.47-.41-.86-1.34-.86s-1.31.26-1.31.8c0,1.32,3.67.46,3.67,2.53,0,1.06-.88,1.65-2.25,1.65-1.53,0-2.33-.85-2.38-1.82h.85c.06.56.48,1.11,1.54,1.11.45,0,1.41-.12,1.41-.87,0-1.37-3.66-.51-3.66-2.53,0-1,.73-1.57,2.15-1.57S407,102.37,407.12,103.17Z" transform="translate(-2.31 -99.41)"/><path d="M416,100.71H413.5v6.49h-.82v-6.49h-2.55v-.79H416Z" transform="translate(-2.31 -99.41)"/><path d="M419.07,101.61v.82H419a2.15,2.15,0,0,0-2,2.35v2.42h-.83v-5.5H417v1.35a2.09,2.09,0,0,1,2-1.44Z" transform="translate(-2.31 -99.41)"/><path d="M424.11,102.59v-.89h.82v5.5h-.82v-.88a2.28,2.28,0,0,1-2,1,2.85,2.85,0,0,1,0-5.68A2.26,2.26,0,0,1,424.11,102.59Zm0,1.86a1.91,1.91,0,0,0-1.9-2.09,2.1,2.1,0,0,0,0,4.18A1.91,1.91,0,0,0,424.15,104.45Z" transform="translate(-2.31 -99.41)"/><path d="M427.18,101.7v.86a2.16,2.16,0,0,1,1.83-1,2.2,2.2,0,0,1,2.2,2.39v3.2h-.83V104a1.52,1.52,0,0,0-1.54-1.66,1.63,1.63,0,0,0-1.66,1.67v3.17h-.82v-5.5Z" transform="translate(-2.31 -99.41)"/><path d="M436.66,103.17h-.84c-.07-.47-.42-.86-1.34-.86s-1.31.26-1.31.8c0,1.32,3.66.46,3.66,2.53,0,1.06-.88,1.65-2.24,1.65-1.53,0-2.34-.85-2.39-1.82h.86c.05.56.47,1.11,1.54,1.11.45,0,1.41-.12,1.41-.87,0-1.37-3.67-.51-3.67-2.53,0-1,.74-1.57,2.16-1.57S436.56,102.37,436.66,103.17Z" transform="translate(-2.31 -99.41)"/><path d="M440.25,100.19c-.77,0-1.16.33-1.16,1.09v.42h1.27v.72h-1.27v4.78h-.83v-4.78h-.95v-.72h.95v-.49c0-1.2.77-1.8,2-1.8h.06v.78Z" transform="translate(-2.31 -99.41)"/><path d="M446.27,104.45a2.73,2.73,0,1,1-2.73-2.84A2.68,2.68,0,0,1,446.27,104.45Zm-.83,0a1.91,1.91,0,1,0-1.9,2.09A1.91,1.91,0,0,0,445.44,104.45Z" transform="translate(-2.31 -99.41)"/><path d="M450.26,101.61v.82h-.1a2.15,2.15,0,0,0-2,2.35v2.42h-.82v-5.5h.82v1.35a2.1,2.1,0,0,1,2-1.44Z" transform="translate(-2.31 -99.41)"/><path d="M455.65,107.2h-.82v-3.3a1.41,1.41,0,0,0-1.37-1.54,1.45,1.45,0,0,0-1.48,1.55v3.29h-.83v-5.5H452v.83a1.85,1.85,0,0,1,1.67-.92,2,2,0,0,1,1.75,1.11,2.18,2.18,0,0,1,1.89-1.11,2.12,2.12,0,0,1,2,2.27v3.32h-.83v-3.3a1.4,1.4,0,0,0-1.36-1.54,1.45,1.45,0,0,0-1.49,1.55Z" transform="translate(-2.31 -99.41)"/><path d="M465,102.59v-.89h.83v5.5H465v-.88a2.28,2.28,0,0,1-2,1,2.85,2.85,0,0,1,0-5.68A2.26,2.26,0,0,1,465,102.59Zm.05,1.86a1.91,1.91,0,0,0-1.91-2.09,2.1,2.1,0,0,0,0,4.18A1.92,1.92,0,0,0,465,104.45Z" transform="translate(-2.31 -99.41)"/><path d="M467.84,107.2v-4.78h-1.12v-.72h1.12v-2h.83v2h1.26v.72h-1.26v4.78Z" transform="translate(-2.31 -99.41)"/><path d="M471.69,99.7v1.07h-.89V99.7Zm-.86,2h.83v5.5h-.83Z" transform="translate(-2.31 -99.41)"/><path d="M478.2,104.45a2.73,2.73,0,1,1-2.73-2.84A2.68,2.68,0,0,1,478.2,104.45Zm-.82,0a1.91,1.91,0,1,0-1.91,2.09A1.91,1.91,0,0,0,477.38,104.45Z" transform="translate(-2.31 -99.41)"/><path d="M480.12,101.7v.86a2.13,2.13,0,0,1,1.82-1,2.2,2.2,0,0,1,2.2,2.39v3.2h-.82V104a1.53,1.53,0,0,0-1.54-1.66,1.62,1.62,0,0,0-1.66,1.67v3.17h-.83v-5.5Z" transform="translate(-2.31 -99.41)"/><path d="M328.88,189.63c0,1.09-.82,1.92-2.48,1.92h-3.46v-7.29h3.27c1.71,0,2.3,1.05,2.3,1.93a1.64,1.64,0,0,1-1,1.64A1.83,1.83,0,0,1,328.88,189.63Zm-5.11-2.11h2.44c.76,0,1.47-.37,1.47-1.27A1.21,1.21,0,0,0,326.3,185h-2.53Zm4.29,2c0-.69-.51-1.3-1.66-1.3h-2.63v2.5h2.71C327.48,190.77,328.06,190.33,328.06,189.57Z" transform="translate(-2.31 -99.41)"/><path d="M334,191.55v-.86a2.12,2.12,0,0,1-1.82.94,2.19,2.19,0,0,1-2.2-2.38v-3.2h.82v3.18a1.53,1.53,0,0,0,1.54,1.66,1.64,1.64,0,0,0,1.66-1.68v-3.16h.83v5.5Z" transform="translate(-2.31 -99.41)"/><path d="M340.28,187.52h-.84c-.06-.47-.42-.86-1.34-.86s-1.31.26-1.31.79c0,1.32,3.66.47,3.66,2.53,0,1.07-.88,1.65-2.24,1.65-1.53,0-2.33-.84-2.39-1.81h.86c.05.56.47,1.11,1.54,1.11.45,0,1.41-.12,1.41-.87,0-1.37-3.67-.52-3.67-2.53,0-1,.74-1.57,2.16-1.57S340.18,186.72,340.28,187.52Z" transform="translate(-2.31 -99.41)"/><path d="M342.37,184v1.08h-.89V184Zm-.86,2h.82v5.5h-.82Z" transform="translate(-2.31 -99.41)"/><path d="M344.59,186.05v.85a2.16,2.16,0,0,1,1.83-.94,2.2,2.2,0,0,1,2.2,2.39v3.2h-.83v-3.18a1.53,1.53,0,0,0-1.54-1.66,1.63,1.63,0,0,0-1.66,1.67v3.17h-.83v-5.5Z" transform="translate(-2.31 -99.41)"/><path d="M354,190h.9a2.52,2.52,0,0,1-2.51,1.67,2.71,2.71,0,0,1-2.78-2.83,2.73,2.73,0,1,1,5.46,0v.33H350.5a1.9,1.9,0,0,0,1.94,1.76A1.73,1.73,0,0,0,354,190Zm-3.53-1.6h3.74a1.88,1.88,0,0,0-3.74,0Z" transform="translate(-2.31 -99.41)"/><path d="M360.19,187.52h-.84c-.06-.47-.42-.86-1.34-.86s-1.31.26-1.31.79c0,1.32,3.66.47,3.66,2.53,0,1.07-.88,1.65-2.24,1.65-1.53,0-2.33-.84-2.39-1.81h.86c.05.56.47,1.11,1.54,1.11.45,0,1.41-.12,1.41-.87,0-1.37-3.67-.52-3.67-2.53,0-1,.74-1.57,2.16-1.57S360.09,186.72,360.19,187.52Z" transform="translate(-2.31 -99.41)"/><path d="M365.49,187.52h-.84c-.06-.47-.42-.86-1.34-.86s-1.31.26-1.31.79c0,1.32,3.67.47,3.67,2.53,0,1.07-.88,1.65-2.25,1.65-1.53,0-2.33-.84-2.39-1.81h.86c.06.56.47,1.11,1.54,1.11.45,0,1.41-.12,1.41-.87,0-1.37-3.66-.52-3.66-2.53,0-1,.73-1.57,2.15-1.57S365.39,186.72,365.49,187.52Z" transform="translate(-2.31 -99.41)"/><path d="M376.32,184.26v7.29h-.82v-6L372.8,189l-2.74-3.46v6h-.82v-7.29h1l2.6,3.46,2.57-3.46Z" transform="translate(-2.31 -99.41)"/><path d="M383,188.8a2.73,2.73,0,1,1-2.73-2.84A2.67,2.67,0,0,1,383,188.8Zm-.83,0a1.91,1.91,0,1,0-1.9,2.09A1.91,1.91,0,0,0,382.12,188.8Z" transform="translate(-2.31 -99.41)"/><path d="M388.33,186.94v-3.09h.82v7.7h-.82v-.88a2.27,2.27,0,0,1-2,1,2.84,2.84,0,0,1,0-5.67A2.26,2.26,0,0,1,388.33,186.94Zm0,1.86a1.91,1.91,0,0,0-1.9-2.09,2.1,2.1,0,0,0,0,4.18A1.91,1.91,0,0,0,388.37,188.8Z" transform="translate(-2.31 -99.41)"/><path d="M394.63,190h.9a2.52,2.52,0,0,1-2.51,1.67,2.71,2.71,0,0,1-2.78-2.83,2.73,2.73,0,1,1,5.46,0v.33h-4.62a1.92,1.92,0,0,0,1.95,1.76A1.73,1.73,0,0,0,394.63,190Zm-3.53-1.6h3.74a1.88,1.88,0,0,0-3.74,0Z" transform="translate(-2.31 -99.41)"/><path d="M397.53,191.55h-.82v-7.7h.82Z" transform="translate(-2.31 -99.41)"/><path d="M406.65,185.06h-2.54v6.49h-.83v-6.49h-2.54v-.8h5.91Z" transform="translate(-2.31 -99.41)"/><path d="M409.67,186v.82h-.09a2.14,2.14,0,0,0-2,2.35v2.42h-.83v-5.5h.83v1.35a2.09,2.09,0,0,1,2-1.44Z" transform="translate(-2.31 -99.41)"/><path d="M414.71,186.94v-.89h.83v5.5h-.83v-.88a2.24,2.24,0,0,1-2,1,2.84,2.84,0,0,1,0-5.67A2.23,2.23,0,0,1,414.71,186.94Zm.05,1.86a1.91,1.91,0,0,0-1.91-2.09,2.1,2.1,0,0,0,0,4.18A1.91,1.91,0,0,0,414.76,188.8Z" transform="translate(-2.31 -99.41)"/><path d="M417.79,186.05v.85a2.17,2.17,0,0,1,1.83-.94,2.2,2.2,0,0,1,2.2,2.39v3.2H421v-3.18a1.52,1.52,0,0,0-1.54-1.66,1.63,1.63,0,0,0-1.66,1.67v3.17H417v-5.5Z" transform="translate(-2.31 -99.41)"/><path d="M427.26,187.52h-.83c-.07-.47-.42-.86-1.34-.86s-1.31.26-1.31.79c0,1.32,3.66.47,3.66,2.53,0,1.07-.88,1.65-2.24,1.65-1.53,0-2.34-.84-2.39-1.81h.86c.05.56.47,1.11,1.54,1.11.45,0,1.41-.12,1.41-.87,0-1.37-3.67-.52-3.67-2.53,0-1,.74-1.57,2.16-1.57S427.17,186.72,427.26,187.52Z" transform="translate(-2.31 -99.41)"/><path d="M430.86,184.54c-.77,0-1.17.33-1.17,1.09v.42H431v.72h-1.28v4.78h-.82v-4.78h-.95v-.72h.95v-.49c0-1.2.77-1.8,2-1.8H431v.78Z" transform="translate(-2.31 -99.41)"/><path d="M436.88,188.8a2.73,2.73,0,1,1-2.73-2.84A2.67,2.67,0,0,1,436.88,188.8Zm-.83,0a1.91,1.91,0,1,0-1.9,2.09A1.91,1.91,0,0,0,436.05,188.8Z" transform="translate(-2.31 -99.41)"/><path d="M440.87,186v.82h-.1a2.15,2.15,0,0,0-2,2.35v2.42H438v-5.5h.82v1.35a2.1,2.1,0,0,1,2-1.44Z" transform="translate(-2.31 -99.41)"/><path d="M446.26,191.55h-.82v-3.3a1.41,1.41,0,0,0-1.37-1.54,1.45,1.45,0,0,0-1.48,1.55v3.29h-.83v-5.5h.83v.83a1.85,1.85,0,0,1,1.67-.92,2,2,0,0,1,1.75,1.11A2.18,2.18,0,0,1,447.9,186a2.12,2.12,0,0,1,2,2.26v3.33h-.83v-3.3a1.4,1.4,0,0,0-1.36-1.54,1.45,1.45,0,0,0-1.49,1.55Z" transform="translate(-2.31 -99.41)"/><path d="M455.6,186.94v-.89h.82v5.5h-.82v-.88a2.27,2.27,0,0,1-2,1,2.84,2.84,0,0,1,0-5.67A2.26,2.26,0,0,1,455.6,186.94Zm0,1.86a1.91,1.91,0,0,0-1.9-2.09,2.1,2.1,0,0,0,0,4.18A1.91,1.91,0,0,0,455.64,188.8Z" transform="translate(-2.31 -99.41)"/><path d="M458.45,191.55v-4.78h-1.12v-.72h1.12v-2h.82v2h1.27v.72h-1.27v4.78Z" transform="translate(-2.31 -99.41)"/><path d="M462.3,184v1.08h-.89V184Zm-.86,2h.82v5.5h-.82Z" transform="translate(-2.31 -99.41)"/><path d="M468.81,188.8a2.73,2.73,0,1,1-2.73-2.84A2.67,2.67,0,0,1,468.81,188.8Zm-.82,0a1.91,1.91,0,1,0-1.91,2.09A1.91,1.91,0,0,0,468,188.8Z" transform="translate(-2.31 -99.41)"/><path d="M470.72,186.05v.85a2.17,2.17,0,0,1,1.83-.94,2.2,2.2,0,0,1,2.2,2.39v3.2h-.83v-3.18a1.52,1.52,0,0,0-1.54-1.66,1.63,1.63,0,0,0-1.66,1.67v3.17h-.82v-5.5Z" transform="translate(-2.31 -99.41)"/><path d="M329.35,228.91a3.4,3.4,0,0,1-3.34,3.64h-3.07v-7.29H326A3.41,3.41,0,0,1,329.35,228.91Zm-.82,0A2.64,2.64,0,0,0,326,226h-2.21v5.73H326A2.64,2.64,0,0,0,328.53,228.91Z" transform="translate(-2.31 -99.41)"/><path d="M335.62,229.8A2.73,2.73,0,1,1,332.9,227,2.66,2.66,0,0,1,335.62,229.8Zm-.82,0a1.91,1.91,0,1,0-1.9,2.09A1.91,1.91,0,0,0,334.8,229.8Z" transform="translate(-2.31 -99.41)"/><path d="M341.21,232.55h-.82v-3.3a1.41,1.41,0,0,0-1.37-1.54,1.45,1.45,0,0,0-1.48,1.55v3.29h-.83v-5.5h.83v.83a1.85,1.85,0,0,1,1.67-.92,2,2,0,0,1,1.75,1.11,2.18,2.18,0,0,1,1.89-1.11,2.12,2.12,0,0,1,2,2.26v3.33h-.83v-3.3a1.4,1.4,0,0,0-1.36-1.54,1.45,1.45,0,0,0-1.49,1.55Z" transform="translate(-2.31 -99.41)"/><path d="M350.55,227.94v-.89h.83v5.5h-.83v-.88a2.26,2.26,0,0,1-2,1,2.84,2.84,0,0,1,0-5.67A2.25,2.25,0,0,1,350.55,227.94Zm.05,1.86a1.91,1.91,0,0,0-1.91-2.09,2.1,2.1,0,1,0,1.91,2.09Z" transform="translate(-2.31 -99.41)"/><path d="M353.66,225v1.08h-.89V225Zm-.85,2h.82v5.5h-.82Z" transform="translate(-2.31 -99.41)"/><path d="M355.89,227.05v.85a2.14,2.14,0,0,1,1.82-.94,2.2,2.2,0,0,1,2.2,2.39v3.2h-.82v-3.18a1.53,1.53,0,0,0-1.54-1.66,1.62,1.62,0,0,0-1.66,1.67v3.17h-.83v-5.5Z" transform="translate(-2.31 -99.41)"/><path d="M369,226.06h-2.55v6.49h-.82v-6.49h-2.54v-.8H369Z" transform="translate(-2.31 -99.41)"/><path d="M372,227v.82h-.1a2.15,2.15,0,0,0-2,2.35v2.42h-.82v-5.5h.82v1.35a2.1,2.1,0,0,1,2-1.44Z" transform="translate(-2.31 -99.41)"/><path d="M377,227.94v-.89h.82v5.5H377v-.88a2.27,2.27,0,0,1-2,1,2.84,2.84,0,0,1,0-5.67A2.26,2.26,0,0,1,377,227.94Zm0,1.86a1.91,1.91,0,0,0-1.9-2.09,2.1,2.1,0,0,0,0,4.18A1.91,1.91,0,0,0,377.08,229.8Z" transform="translate(-2.31 -99.41)"/><path d="M380.12,227.05v.85a2.14,2.14,0,0,1,1.82-.94,2.2,2.2,0,0,1,2.2,2.39v3.2h-.82v-3.18a1.53,1.53,0,0,0-1.54-1.66,1.63,1.63,0,0,0-1.66,1.67v3.17h-.83v-5.5Z" transform="translate(-2.31 -99.41)"/><path d="M389.59,228.52h-.84c-.06-.47-.42-.86-1.34-.86s-1.31.26-1.31.79c0,1.32,3.67.47,3.67,2.53,0,1.07-.88,1.65-2.25,1.65-1.53,0-2.33-.84-2.39-1.81H386c.06.56.47,1.11,1.54,1.11.45,0,1.41-.12,1.41-.87,0-1.37-3.66-.52-3.66-2.53,0-1,.73-1.57,2.15-1.57S389.49,227.72,389.59,228.52Z" transform="translate(-2.31 -99.41)"/><path d="M393.19,225.54c-.77,0-1.17.33-1.17,1.09v.42h1.28v.72H392v4.78h-.83v-4.78h-.94v-.72h.94v-.49c0-1.2.77-1.8,2-1.8h.07v.78Z" transform="translate(-2.31 -99.41)"/><path d="M399.2,229.8a2.73,2.73,0,1,1-2.72-2.84A2.66,2.66,0,0,1,399.2,229.8Zm-.82,0a1.91,1.91,0,1,0-1.9,2.09A1.91,1.91,0,0,0,398.38,229.8Z" transform="translate(-2.31 -99.41)"/><path d="M403.2,227v.82h-.1a2.15,2.15,0,0,0-2,2.35v2.42h-.83v-5.5h.83v1.35a2.09,2.09,0,0,1,2-1.44Z" transform="translate(-2.31 -99.41)"/><path d="M408.59,232.55h-.83v-3.3a1.4,1.4,0,0,0-1.36-1.54,1.45,1.45,0,0,0-1.49,1.55v3.29h-.82v-5.5h.82v.83a1.86,1.86,0,0,1,1.67-.92,2,2,0,0,1,1.75,1.11,2.2,2.2,0,0,1,1.9-1.11,2.12,2.12,0,0,1,2,2.26v3.33h-.82v-3.3a1.41,1.41,0,0,0-1.37-1.54,1.45,1.45,0,0,0-1.48,1.55Z" transform="translate(-2.31 -99.41)"/><path d="M417.93,227.94v-.89h.82v5.5h-.82v-.88a2.27,2.27,0,0,1-2,1,2.84,2.84,0,0,1,0-5.67A2.26,2.26,0,0,1,417.93,227.94Zm0,1.86a1.91,1.91,0,0,0-1.9-2.09,2.1,2.1,0,0,0,0,4.18A1.91,1.91,0,0,0,418,229.8Z" transform="translate(-2.31 -99.41)"/><path d="M420.77,232.55v-4.78h-1.12v-.72h1.12v-2h.83v2h1.26v.72H421.6v4.78Z" transform="translate(-2.31 -99.41)"/><path d="M424.62,225v1.08h-.89V225Zm-.85,2h.82v5.5h-.82Z" transform="translate(-2.31 -99.41)"/><path d="M431.14,229.8a2.73,2.73,0,1,1-2.73-2.84A2.67,2.67,0,0,1,431.14,229.8Zm-.83,0a1.91,1.91,0,1,0-1.9,2.09A1.91,1.91,0,0,0,430.31,229.8Z" transform="translate(-2.31 -99.41)"/><path d="M433.05,227.05v.85a2.16,2.16,0,0,1,1.83-.94,2.2,2.2,0,0,1,2.2,2.39v3.2h-.83v-3.18a1.53,1.53,0,0,0-1.54-1.66,1.63,1.63,0,0,0-1.66,1.67v3.17h-.83v-5.5Z" transform="translate(-2.31 -99.41)"/><path d="M328.24,302h.87a3.35,3.35,0,0,1-3.3,2.27,3.74,3.74,0,0,1,0-7.46,3.34,3.34,0,0,1,3.3,2.26h-.87a2.37,2.37,0,0,0-2.36-1.46,2.93,2.93,0,0,0,0,5.85A2.37,2.37,0,0,0,328.24,302Z" transform="translate(-2.31 -99.41)"/><path d="M334.14,304.2v-.86a2.16,2.16,0,0,1-1.83,1,2.21,2.21,0,0,1-2.2-2.39v-3.2h.83v3.18a1.52,1.52,0,0,0,1.54,1.66,1.63,1.63,0,0,0,1.66-1.67V298.7H335v5.5Z" transform="translate(-2.31 -99.41)"/><path d="M337.22,304.2h-.83v-7.7h.83Z" transform="translate(-2.31 -99.41)"/><path d="M339.24,304.2v-4.78h-1.12v-.72h1.12v-2h.83v2h1.26v.72h-1.26v4.78Z" transform="translate(-2.31 -99.41)"/><path d="M346.2,304.2v-.86a2.13,2.13,0,0,1-1.82,1,2.2,2.2,0,0,1-2.2-2.39v-3.2H343v3.18a1.53,1.53,0,0,0,1.54,1.66,1.62,1.62,0,0,0,1.66-1.67V298.7H347v5.5Z" transform="translate(-2.31 -99.41)"/><path d="M351.36,298.61v.82h-.1a2.15,2.15,0,0,0-2,2.35v2.42h-.82v-5.5h.82v1.35a2.1,2.1,0,0,1,2-1.44Z" transform="translate(-2.31 -99.41)"/><path d="M356.4,299.59v-.89h.83v5.5h-.83v-.88a2.28,2.28,0,0,1-2,1,2.85,2.85,0,0,1,0-5.68A2.26,2.26,0,0,1,356.4,299.59Zm0,1.86a1.91,1.91,0,0,0-1.9-2.09,2.1,2.1,0,0,0,0,4.18A1.91,1.91,0,0,0,356.44,301.45Z" transform="translate(-2.31 -99.41)"/><path d="M359.48,304.2h-.83v-7.7h.83Z" transform="translate(-2.31 -99.41)"/><path d="M363.88,296.72l-2.52,7.83h-.77l2.52-7.83Z" transform="translate(-2.31 -99.41)"/><path d="M372.1,300.56a3.7,3.7,0,1,1-3.7-3.73A3.61,3.61,0,0,1,372.1,300.56Zm-.83,0a2.87,2.87,0,1,0-2.87,2.92A2.78,2.78,0,0,0,371.27,300.56Z" transform="translate(-2.31 -99.41)"/><path d="M376.14,298.61v.82h-.09a2.14,2.14,0,0,0-2,2.35v2.42h-.83v-5.5h.83v1.35a2.09,2.09,0,0,1,2-1.44Z" transform="translate(-2.31 -99.41)"/><path d="M382,298.7V304a2.28,2.28,0,0,1-2.6,2.43,2.44,2.44,0,0,1-2.56-1.6h.91a1.57,1.57,0,0,0,1.61.86c1.26,0,1.81-.61,1.81-1.74v-.76a2.26,2.26,0,0,1-2,1,2.8,2.8,0,0,1,0-5.59,2.23,2.23,0,0,1,2,1v-.88Zm-.78,2.7a1.93,1.93,0,1,0-1.91,2.05A1.89,1.89,0,0,0,381.23,301.4Z" transform="translate(-2.31 -99.41)"/><path d="M387.73,299.59v-.89h.82v5.5h-.82v-.88a2.28,2.28,0,0,1-2,1,2.85,2.85,0,0,1,0-5.68A2.26,2.26,0,0,1,387.73,299.59Zm0,1.86a1.91,1.91,0,0,0-1.9-2.09,2.1,2.1,0,0,0,0,4.18A1.91,1.91,0,0,0,387.77,301.45Z" transform="translate(-2.31 -99.41)"/><path d="M390.81,298.7v.86a2.13,2.13,0,0,1,1.82-.95,2.2,2.2,0,0,1,2.2,2.39v3.2H394V301a1.53,1.53,0,0,0-1.54-1.66,1.62,1.62,0,0,0-1.66,1.67v3.17H390v-5.5Z" transform="translate(-2.31 -99.41)"/><path d="M397.07,296.7v1.07h-.9V296.7Zm-.86,2H397v5.5h-.82Z" transform="translate(-2.31 -99.41)"/><path d="M399.12,303.43h3.3v.77h-4.33v-.78l3.29-4h-3.25v-.76h4.29v.77Z" transform="translate(-2.31 -99.41)"/><path d="M407.73,299.59v-.89h.82v5.5h-.82v-.88a2.28,2.28,0,0,1-2,1,2.85,2.85,0,0,1,0-5.68A2.26,2.26,0,0,1,407.73,299.59Zm0,1.86a1.91,1.91,0,0,0-1.9-2.09,2.1,2.1,0,0,0,0,4.18A1.91,1.91,0,0,0,407.77,301.45Z" transform="translate(-2.31 -99.41)"/><path d="M410.57,304.2v-4.78h-1.12v-.72h1.12v-2h.83v2h1.26v.72H411.4v4.78Z" transform="translate(-2.31 -99.41)"/><path d="M414.42,296.7v1.07h-.89V296.7Zm-.85,2h.82v5.5h-.82Z" transform="translate(-2.31 -99.41)"/><path d="M420.94,301.45a2.73,2.73,0,1,1-2.73-2.84A2.68,2.68,0,0,1,420.94,301.45Zm-.83,0a1.91,1.91,0,1,0-1.9,2.09A1.91,1.91,0,0,0,420.11,301.45Z" transform="translate(-2.31 -99.41)"/><path d="M422.85,298.7v.86a2.16,2.16,0,0,1,1.83-.95,2.2,2.2,0,0,1,2.2,2.39v3.2h-.83V301a1.53,1.53,0,0,0-1.54-1.66,1.63,1.63,0,0,0-1.66,1.67v3.17H422v-5.5Z" transform="translate(-2.31 -99.41)"/><path d="M432.54,299.59v-.89h.83v5.5h-.83v-.88a2.28,2.28,0,0,1-2,1,2.85,2.85,0,0,1,0-5.68A2.26,2.26,0,0,1,432.54,299.59Zm0,1.86a1.91,1.91,0,0,0-1.9-2.09,2.1,2.1,0,0,0,0,4.18A1.91,1.91,0,0,0,432.58,301.45Z" transform="translate(-2.31 -99.41)"/><path d="M435.62,304.2h-.83v-7.7h.83Z" transform="translate(-2.31 -99.41)"/><path d="M327.92,310.91h-2.54v6.49h-.82v-6.49H322v-.79h5.91Z" transform="translate(-2.31 -99.41)"/><path d="M331,311.81v.82h-.1a2.15,2.15,0,0,0-2,2.35v2.42H328v-5.5h.83v1.35a2.09,2.09,0,0,1,2-1.44Z" transform="translate(-2.31 -99.41)"/><path d="M336,312.79v-.89h.82v5.5H336v-.88a2.28,2.28,0,0,1-2,1,2.85,2.85,0,0,1,0-5.68A2.28,2.28,0,0,1,336,312.79Zm0,1.86a1.91,1.91,0,0,0-1.9-2.09,2.1,2.1,0,0,0,0,4.18A1.91,1.91,0,0,0,336,314.65Z" transform="translate(-2.31 -99.41)"/><path d="M339.06,311.9v.86a2.16,2.16,0,0,1,1.83-.95,2.2,2.2,0,0,1,2.2,2.39v3.2h-.82v-3.18a1.53,1.53,0,0,0-1.54-1.66,1.63,1.63,0,0,0-1.67,1.67v3.17h-.82v-5.5Z" transform="translate(-2.31 -99.41)"/><path d="M348.54,313.37h-.84c-.07-.47-.42-.86-1.34-.86s-1.31.26-1.31.8c0,1.32,3.66.46,3.66,2.53,0,1.06-.88,1.65-2.24,1.65-1.53,0-2.34-.85-2.39-1.82h.86c.05.56.47,1.11,1.54,1.11.45,0,1.41-.12,1.41-.87,0-1.37-3.67-.51-3.67-2.53,0-1,.74-1.57,2.16-1.57S348.44,312.57,348.54,313.37Z" transform="translate(-2.31 -99.41)"/><path d="M352.13,310.39c-.77,0-1.16.33-1.16,1.09v.42h1.27v.72H351v4.78h-.83v-4.78h-.95v-.72h.95v-.49c0-1.2.77-1.8,2-1.8h.06v.78Z" transform="translate(-2.31 -99.41)"/><path d="M358.15,314.65a2.73,2.73,0,1,1-2.73-2.84A2.68,2.68,0,0,1,358.15,314.65Zm-.82,0a1.91,1.91,0,1,0-1.91,2.09A1.91,1.91,0,0,0,357.33,314.65Z" transform="translate(-2.31 -99.41)"/><path d="M362.14,311.81v.82H362a2.15,2.15,0,0,0-2,2.35v2.42h-.82v-5.5h.82v1.35a2.1,2.1,0,0,1,2-1.44Z" transform="translate(-2.31 -99.41)"/><path d="M367.53,317.4h-.82v-3.3a1.41,1.41,0,0,0-1.37-1.54,1.45,1.45,0,0,0-1.48,1.55v3.29H363v-5.5h.83v.83a1.85,1.85,0,0,1,1.67-.92,2,2,0,0,1,1.75,1.11,2.18,2.18,0,0,1,1.89-1.11,2.12,2.12,0,0,1,2,2.27v3.32h-.83v-3.3a1.4,1.4,0,0,0-1.36-1.54,1.45,1.45,0,0,0-1.49,1.55Z" transform="translate(-2.31 -99.41)"/><path d="M376.87,312.79v-.89h.83v5.5h-.83v-.88a2.26,2.26,0,0,1-2,1,2.85,2.85,0,0,1,0-5.68A2.27,2.27,0,0,1,376.87,312.79Zm.05,1.86a1.91,1.91,0,0,0-1.91-2.09,2.1,2.1,0,1,0,1.91,2.09Z" transform="translate(-2.31 -99.41)"/><path d="M379.72,317.4v-4.78H378.6v-.72h1.12v-2h.82v2h1.27v.72h-1.27v4.78Z" transform="translate(-2.31 -99.41)"/><path d="M383.57,309.9V311h-.89V309.9Zm-.86,2h.83v5.5h-.83Z" transform="translate(-2.31 -99.41)"/><path d="M390.08,314.65a2.73,2.73,0,1,1-2.73-2.84A2.68,2.68,0,0,1,390.08,314.65Zm-.82,0a1.91,1.91,0,1,0-1.91,2.09A1.91,1.91,0,0,0,389.26,314.65Z" transform="translate(-2.31 -99.41)"/><path d="M392,311.9v.86a2.13,2.13,0,0,1,1.82-.95,2.2,2.2,0,0,1,2.2,2.39v3.2h-.82v-3.18a1.53,1.53,0,0,0-1.54-1.66,1.62,1.62,0,0,0-1.66,1.67v3.17h-.83v-5.5Z" transform="translate(-2.31 -99.41)"/></svg>