<svg xmlns="http://www.w3.org/2000/svg" xmlns:xlink="http://www.w3.org/1999/xlink" viewBox="0 0 1616.39 1077.59"><defs><style>.cls-1{isolation:isolate;}.cls-2{fill:#fff;}.cls-3{fill:#f8f8f8;}.cls-4{fill:#d7d7d7;}.cls-10,.cls-11,.cls-12,.cls-13,.cls-14,.cls-15,.cls-16,.cls-28,.cls-5,.cls-6,.cls-66,.cls-7,.cls-8,.cls-9,.cls-90,.cls-91{mix-blend-mode:multiply;}.cls-5{fill:url(#radial-gradient);}.cls-6{fill:url(#radial-gradient-2);}.cls-7{fill:url(#radial-gradient-3);}.cls-8{fill:url(#radial-gradient-4);}.cls-9{fill:url(#radial-gradient-5);}.cls-10{fill:url(#radial-gradient-6);}.cls-11{fill:url(#radial-gradient-7);}.cls-12{fill:url(#radial-gradient-8);}.cls-13{fill:url(#radial-gradient-9);}.cls-14{fill:url(#radial-gradient-10);}.cls-15{fill:url(#radial-gradient-11);}.cls-16{fill:url(#radial-gradient-12);}.cls-17{fill:#979797;}.cls-18{fill:#646464;}.cls-19{fill:#d8d8d8;}.cls-20{fill:#a8a8a8;}.cls-21{fill:#7b7b7b;}.cls-22{fill:#cdcdcd;}.cls-23{fill:#909090;}.cls-24{fill:#9a9a9a;}.cls-25{fill:#767676;}.cls-26{fill:#d4d4d4;}.cls-27{fill:#d2d2d2;}.cls-28{fill:#e0e0e0;opacity:0.3;}.cls-29{fill:#b0b0b0;}.cls-30{fill:#949494;}.cls-31{fill:#cacaca;}.cls-32{fill:#8e8e8e;}.cls-33{fill:#7d7d7d;}.cls-34{fill:#bfbfbf;}.cls-35{fill:#898989;}.cls-36{fill:#adadad;}.cls-37{fill:#787878;}.cls-38{fill:#5a5a5a;}.cls-39{fill:#515151;}.cls-40{fill:#3b3b3b;}.cls-41{fill:#b6b6b6;}.cls-42{fill:#414141;}.cls-43{fill:#929292;}.cls-44{fill:#f6f6f6;}.cls-45{fill:#505050;}.cls-46{fill:#636363;}.cls-47{fill:#2b2b2b;}.cls-48{fill:#383838;}.cls-49{fill:#6a6a6a;}.cls-50{fill:#c3c3c3;}.cls-51{fill:#e9e9e9;}.cls-52{fill:#575757;}.cls-53{fill:#333;}.cls-54{fill:#818181;}.cls-55{fill:#c6c6c6;}.cls-56{fill:#9e9e9e;}.cls-57{fill:#828282;}.cls-58{fill:#8f8f8f;}.cls-59{fill:#757575;}.cls-60{fill:#a4a4a4;}.cls-61{fill:#dbdbdb;}.cls-62{fill:#b9b9b9;}.cls-63{fill:#353535;}.cls-64{fill:#5b5b5b;}.cls-65{fill:#393939;}.cls-66{fill:#e2e2e2;}.cls-67{fill:#f2f2f2;}.cls-68{fill:#fdfdfd;}.cls-69{fill:#444;}.cls-70{fill:#a0a0a0;}.cls-71{fill:#d6d6d6;}.cls-72{fill:url(#linear-gradient);}.cls-73{fill:#efefef;}.cls-74{fill:#2d2d2d;}.cls-75{fill:#2e2e2e;}.cls-76{fill:#1b1b1b;}.cls-77{opacity:0.4;}.cls-78{fill:#a3a3a3;}.cls-79{fill:url(#linear-gradient-2);}.cls-80{fill:#d9d9d9;}.cls-81{fill:#838383;}.cls-82{fill:#7e7e7e;}.cls-83{fill:#282828;}.cls-84{fill:#1c1c1c;}.cls-85{fill:#232323;}.cls-86{fill:#292929;}.cls-87{fill:#363636;}.cls-88{fill:#737373;}.cls-89{fill:#9d9d9d;}.cls-90,.cls-91{opacity:0.6;}.cls-90{fill:url(#radial-gradient-13);}.cls-91{fill:url(#radial-gradient-14);}.cls-92{fill:#cbcbcb;}.cls-93{fill:#fafafa;}</style><radialGradient id="radial-gradient" cx="1462.84" cy="861.11" r="100.3" gradientTransform="matrix(-0.97, 0, 0, 0.58, 2015.71, 441.03)" gradientUnits="userSpaceOnUse"><stop offset="0" stop-color="#8f8f8f"/><stop offset="0.14" stop-color="#939393" stop-opacity="0.96"/><stop offset="0.32" stop-color="#9f9f9f" stop-opacity="0.86"/><stop offset="0.51" stop-color="#b3b3b3" stop-opacity="0.68"/><stop offset="0.71" stop-color="#cfcfcf" stop-opacity="0.43"/><stop offset="0.93" stop-color="#f2f2f2" stop-opacity="0.12"/><stop offset="1" stop-color="#fff" stop-opacity="0"/></radialGradient><radialGradient id="radial-gradient-2" cx="1209.29" cy="809.45" r="100.3" gradientTransform="matrix(-0.97, 0, 0, 0.58, 2015.71, 434.65)" gradientUnits="userSpaceOnUse"><stop offset="0" stop-color="#8f8f8f"/><stop offset="1" stop-color="#fff" stop-opacity="0"/></radialGradient><radialGradient id="radial-gradient-3" cx="1378.67" cy="715.94" r="63.47" gradientTransform="matrix(-0.97, 0, 0, 0.58, 2015.71, 423.09)" xlink:href="#radial-gradient-2"/><radialGradient id="radial-gradient-4" cx="1597.21" cy="834.84" r="72.55" gradientTransform="matrix(-0.97, 0, 0, 0.58, 2015.71, 437.78)" xlink:href="#radial-gradient-2"/><radialGradient id="radial-gradient-5" cx="1758.24" cy="802.86" r="107.07" gradientTransform="matrix(-0.97, 0, 0, 0.58, 2015.71, 433.83)" xlink:href="#radial-gradient-2"/><radialGradient id="radial-gradient-6" cx="1698.27" cy="822.12" r="107.07" gradientTransform="matrix(-0.97, 0, 0, 0.58, 2015.71, 436.21)" xlink:href="#radial-gradient-2"/><radialGradient id="radial-gradient-7" cx="1698.27" cy="838.06" r="107.07" gradientTransform="matrix(-0.97, 0, 0, 0.58, 2015.71, 438.18)" xlink:href="#radial-gradient-2"/><radialGradient id="radial-gradient-8" cx="1832.1" cy="872.17" r="107.07" gradientTransform="matrix(-0.97, 0, 0, 0.58, 2015.71, 442.4)" xlink:href="#radial-gradient-2"/><radialGradient id="radial-gradient-9" cx="1660.56" cy="794.64" r="107.07" gradientTransform="matrix(-0.97, 0, 0, 0.58, 2015.71, 432.81)" xlink:href="#radial-gradient-2"/><radialGradient id="radial-gradient-10" cx="1555.92" cy="811.46" r="72.55" gradientTransform="matrix(-0.97, 0, 0, 0.58, 2015.71, 434.89)" xlink:href="#radial-gradient-2"/><radialGradient id="radial-gradient-11" cx="1446.88" cy="725.52" r="72.55" gradientTransform="matrix(-0.97, 0, 0, 0.58, 2015.71, 424.27)" xlink:href="#radial-gradient-2"/><radialGradient id="radial-gradient-12" cx="1426.33" cy="701.36" r="72.55" gradientTransform="matrix(-0.97, 0, 0, 0.58, 2015.71, 421.28)" xlink:href="#radial-gradient-2"/><linearGradient id="linear-gradient" x1="582.59" y1="663.51" x2="641.92" y2="663.51" gradientTransform="translate(185.12)" gradientUnits="userSpaceOnUse"><stop offset="0" stop-color="#e7e7e7"/><stop offset="1" stop-color="#c5c5c5"/></linearGradient><linearGradient id="linear-gradient-2" x1="1085.85" y1="428.23" x2="1208.17" y2="428.23" gradientTransform="matrix(-1, 0, 0, 1, 1695.92, -2.41)" gradientUnits="userSpaceOnUse"><stop offset="0" stop-color="#999"/><stop offset="0.53" stop-color="#a7a7a7"/><stop offset="1" stop-color="#acacac"/></linearGradient><radialGradient id="radial-gradient-13" cx="427.27" cy="948.51" r="64.15" gradientTransform="translate(23.12 451.84) scale(0.97 0.58)" xlink:href="#radial-gradient"/><radialGradient id="radial-gradient-14" cx="472.11" cy="906.82" r="64.15" gradientTransform="translate(23.12 446.68) scale(0.97 0.58)" xlink:href="#radial-gradient"/></defs><g class="cls-1"><g id="Layer_1" data-name="Layer 1"><rect class="cls-2" width="1616.39" height="1077.59"/><path class="cls-3" d="M714.36,731c262.81-137.24,423.42-385.45,522.7-651.18a537.43,537.43,0,0,0,22-77.42H-.39V899.34c115.32-13.49,231.58-30.72,349.74-51.52C480.75,824.45,597.56,792.33,714.36,731Z" transform="translate(0.39 -2.41)"/><path class="cls-2" d="M1259.1,2.41a537.43,537.43,0,0,1-22,77.42C1137.78,345.56,977.17,593.77,714.36,731c-116.8,61.32-233.61,93.44-365,116.81-118.16,20.8-234.42,38-349.74,51.52V1080H1616V2.41Z" transform="translate(0.39 -2.41)"/><path class="cls-4" d="M972,946.49c-68.49-.61-198.21-9.12-79.91-129.88,178.66-175.27-185.36-249.86-368.8-250.49C387.86,565.65,127,587-.39,598.16V1080H1267.27C1280.49,978.63,1035.19,947.05,972,946.49Z" transform="translate(0.39 -2.41)"/><path class="cls-5" d="M497,936.41c0,32.39,44.93,58.65,100.34,58.65s100.34-26.26,100.34-58.65-44.92-58.67-100.34-58.67S497,904,497,936.41Z" transform="translate(0.39 -2.41)"/><path class="cls-6" d="M742.84,900.3c0,32.4,44.93,58.66,100.34,58.66S943.52,932.7,943.52,900.3s-44.92-58.66-100.34-58.66S742.84,867.91,742.84,900.3Z" transform="translate(0.39 -2.41)"/><path class="cls-7" d="M615.45,835c0,20.5,28.43,37.12,63.5,37.12s63.5-16.62,63.5-37.12S714,797.83,679,797.83,615.45,814.45,615.45,835Z" transform="translate(0.39 -2.41)"/><path class="cls-8" d="M394.48,918c0,23.43,32.5,42.43,72.58,42.43s72.57-19,72.57-42.43-32.49-42.43-72.57-42.43S394.48,894.61,394.48,918Z" transform="translate(0.39 -2.41)"/><path class="cls-9" d="M203.8,895.7c0,34.58,48,62.61,107.12,62.61S418,930.28,418,895.7s-47.95-62.63-107.11-62.63S203.8,861.12,203.8,895.7Z" transform="translate(0.39 -2.41)"/><path class="cls-10" d="M262,909.16c0,34.58,48,62.61,107.12,62.61s107.11-28,107.11-62.61-47.95-62.63-107.11-62.63S262,874.57,262,909.16Z" transform="translate(0.39 -2.41)"/><path class="cls-11" d="M262,920.31c0,34.58,48,62.61,107.12,62.61s107.11-28,107.11-62.61-47.95-62.63-107.11-62.63S262,885.72,262,920.31Z" transform="translate(0.39 -2.41)"/><path class="cls-12" d="M132.2,944.14c0,34.58,48,62.61,107.11,62.61s107.11-28,107.11-62.61-47.95-62.63-107.11-62.63S132.2,909.55,132.2,944.14Z" transform="translate(0.39 -2.41)"/><path class="cls-13" d="M298.52,890c0,34.58,48,62.62,107.11,62.62s107.11-28,107.11-62.62-47.95-62.63-107.11-62.63S298.52,855.37,298.52,890Z" transform="translate(0.39 -2.41)"/><path class="cls-14" d="M434.52,901.71c0,23.43,32.49,42.42,72.57,42.42s72.58-19,72.58-42.42-32.49-42.44-72.58-42.44S434.52,878.28,434.52,901.71Z" transform="translate(0.39 -2.41)"/><path class="cls-15" d="M540.25,841.64c0,23.43,32.49,42.43,72.57,42.43s72.57-19,72.57-42.43-32.48-42.43-72.57-42.43S540.25,818.21,540.25,841.64Z" transform="translate(0.39 -2.41)"/><path class="cls-16" d="M560.17,824.75c0,23.43,32.5,42.43,72.58,42.43s72.57-19,72.57-42.43-32.49-42.43-72.57-42.43S560.17,801.32,560.17,824.75Z" transform="translate(0.39 -2.41)"/><polygon class="cls-17" points="349.34 927.86 257.68 874.94 257.68 592.04 349.34 644.96 349.34 927.86"/><polygon class="cls-18" points="614.52 774.11 349.34 927.21 349.35 644.99 616.06 491.81 614.52 774.11"/><polygon class="cls-19" points="524.37 438.87 257.68 592.06 349.38 645 616.06 491.81 524.37 438.87"/><polygon class="cls-18" points="343.59 678.15 263.43 631.87 263.43 645.09 343.59 691.38 343.59 678.15"/><polygon class="cls-18" points="343.59 698.51 263.43 652.23 263.43 665.45 343.59 711.73 343.59 698.51"/><polygon class="cls-18" points="343.59 864.32 263.43 818.03 263.43 831.25 343.59 877.53 343.59 864.32"/><polygon class="cls-18" points="343.59 884.67 263.43 838.39 263.43 851.62 343.59 897.89 343.59 884.67"/><path class="cls-20" d="M669.9,813.34h0V799.51l-9.93,5-17.46-10.09c-5.68-3.27-14.91-3.27-20.58,0L446.51,895.71l-10-4.88v13.68h0c-.22,2.31,1.18,4.66,4.22,6.42l23.17,13.38c5.68,3.27,14.89,3.27,20.58,0L665.67,819.69C668.69,817.94,670.09,815.63,669.9,813.34Z" transform="translate(0.39 -2.41)"/><path class="cls-21" d="M446.51,895.71l-10-4.88v13.68h0c-.22,2.31,1.18,4.66,4.22,6.42l23.17,13.38a21,21,0,0,0,10,2.44V879.89Z" transform="translate(0.39 -2.41)"/><path class="cls-22" d="M463.91,909.68c5.68,3.29,14.89,3.29,20.58,0L665.67,805.08c5.68-3.29,5.68-8.6,0-11.88l-23.16-13.37c-5.68-3.29-14.91-3.29-20.58,0L440.74,884.43c-5.68,3.28-5.68,8.6,0,11.89Z" transform="translate(0.39 -2.41)"/><path class="cls-23" d="M728.33,471.83l-11.85-6.76a3.25,3.25,0,0,0-.81-.46h0a5,5,0,0,0-4.23.68l-341,196.86a14.63,14.63,0,0,0-6.62,11.47V935.45c0,2.12.74,3.6,1.94,4.29a3.87,3.87,0,0,0,.55.25l11.79,6.78L380.58,934l-3.52,1.46L711.43,742.42a14.63,14.63,0,0,0,6.63-11.48V479Z" transform="translate(0.39 -2.41)"/><path class="cls-22" d="M716.48,465.07a3.25,3.25,0,0,0-.81-.46h0a5,5,0,0,0-4.23.68l-341,196.86a13,13,0,0,0-4.17,4.16L594.23,810.08l117.2-67.66a14.63,14.63,0,0,0,6.63-11.48V479l10.27-7.14Z" transform="translate(0.39 -2.41)"/><path class="cls-20" d="M730.31,737.94a14.62,14.62,0,0,1-6.61,11.47l-341,196.86c-3.66,2.11-6.62.4-6.62-3.82V680.6a14.61,14.61,0,0,1,6.62-11.46l341-196.86c3.65-2.12,6.61-.4,6.61,3.82Z" transform="translate(0.39 -2.41)"/><polygon class="cls-3" points="724.27 716.35 382.91 913.43 382.91 677.73 724.27 480.65 724.27 716.35"/><polygon class="cls-2" points="720.93 482.58 720.93 713.75 382.91 908.91 382.91 913.43 724.27 716.35 724.27 480.65 720.93 482.58"/><polygon class="cls-24" points="684.62 841.97 660.83 828.38 660.83 729.74 684.62 729.74 684.62 841.97"/><polygon class="cls-25" points="684.62 841.97 698.46 833.63 698.46 729.74 684.62 729.74 684.62 841.97"/><path class="cls-26" d="M690.62,652.81h0c-7-4-16.57-3.41-27.18,2.71C642.2,667.78,625,697.61,625,722.15c0,12,4.11,20.48,10.78,24.61a18.66,18.66,0,0,0,1.84.93v0l57.7,30.13L755,683.53Z" transform="translate(0.39 -2.41)"/><path class="cls-24" d="M746.66,679.93h0c-9.85-2.45-19.37-3.47-29.24,2.51-21,12.7-38.47,42.09-38.47,66.62,0,11.23,3.64,19.35,9.59,23.74,0,0,0,0,0,0C743.05,811.83,799,891.1,799,891.1s48.23-88.35,119.31-189.23C831.28,701.83,746.66,679.93,746.66,679.93Z" transform="translate(0.39 -2.41)"/><path class="cls-25" d="M794.24,861.38c0,54.45,38.23,76.52,85.39,49.3S965,817.25,965,762.79s-38.23-76.51-85.37-49.28S794.24,806.94,794.24,861.38Z" transform="translate(0.39 -2.41)"/><path class="cls-27" d="M803.7,810.85l59.68,30.4,34.39-57.1-59.34-34.64A207,207,0,0,0,803.7,810.85Z" transform="translate(0.39 -2.41)"/><path class="cls-2" d="M856,825.73c0,15.08,10.58,21.18,23.63,13.65s23.63-25.86,23.63-40.93-10.58-21.18-23.63-13.64S856,810.66,856,825.73Z" transform="translate(0.39 -2.41)"/><path class="cls-28" d="M870.11,779.89c43.09-24.88,78.72-8.57,84.53,36,6.61-17.81,10.36-36,10.36-53.1,0-54.45-38.23-76.51-85.37-49.28s-85.39,93.43-85.39,147.87a102.1,102.1,0,0,0,.85,13.3C809.56,835.66,837.73,798.58,870.11,779.89Z" transform="translate(0.39 -2.41)"/><polygon class="cls-29" points="521.79 821.1 536.1 812.84 536.1 697.52 521.79 705.79 521.79 821.1"/><polygon class="cls-30" points="507.48 812.84 521.79 821.1 521.79 705.79 507.48 697.52 507.48 812.84"/><polygon class="cls-31" points="521.79 705.79 536.1 697.52 521.79 689.26 507.47 697.52 521.79 705.79"/><polygon class="cls-32" points="488.73 840.26 503.04 832 503.04 692.96 488.73 701.22 488.73 840.26"/><polygon class="cls-33" points="474.42 832 488.74 840.26 488.74 701.22 474.42 692.96 474.42 832"/><polygon class="cls-34" points="488.73 701.22 503.05 692.96 488.73 684.7 474.42 692.96 488.73 701.22"/><polygon class="cls-35" points="455.67 859.13 469.99 850.87 469.99 687.45 455.67 695.71 455.67 859.13"/><polygon class="cls-24" points="441.37 850.87 455.68 859.13 455.68 695.71 441.37 687.45 441.37 850.87"/><polygon class="cls-36" points="455.68 695.71 469.99 687.45 455.68 679.19 441.36 687.45 455.68 695.71"/><polygon class="cls-37" points="455.71 859.36 470.02 851.09 470.02 687.67 455.71 695.93 455.71 859.36"/><polygon class="cls-38" points="441.41 851.09 455.72 859.36 455.72 695.93 441.41 687.67 441.41 851.09"/><polygon class="cls-30" points="455.72 695.93 470.04 687.67 455.72 679.4 441.4 687.67 455.72 695.93"/><polygon class="cls-39" points="422.62 878.48 436.93 870.21 436.93 681.93 422.62 690.19 422.62 878.48"/><polygon class="cls-40" points="408.31 870.21 422.62 878.48 422.62 690.19 408.31 681.93 408.31 870.21"/><polygon class="cls-25" points="422.62 690.2 436.93 681.93 422.62 673.66 408.31 681.93 422.62 690.2"/><path class="cls-41" d="M640.65,582.24l1.67-2.57-8.67-7.37c-13.18-7.56-24.82-5.64-41.27,3.85-17.27,10-32.53,27.33-41.82,45.77C544.61,633.73,541.1,646,541.1,657c0,13.07,2,19.33,9.08,25.37l10.26,6.1,7.52-1.88c7.25-.25,15.57-2.82,24.42-7.92a100.94,100.94,0,0,0,23.82-19.63c16.32-18,27.45-41.54,27.45-61.25A37.71,37.71,0,0,0,640.65,582.24Z" transform="translate(0.39 -2.41)"/><path class="cls-42" d="M608.25,611.12c0,12.92-10.48,29.45-23.4,36.92s-23.4,3-23.4-9.91,10.48-29.44,23.4-36.9S608.25,598.2,608.25,611.12Z" transform="translate(0.39 -2.41)"/><path class="cls-43" d="M594.35,619.14c0,5.25-4.25,12-9.5,15s-9.49,1.22-9.5-4,4.26-12,9.5-15S594.35,613.9,594.35,619.14Z" transform="translate(0.39 -2.41)"/><path class="cls-18" d="M651.24,603.42c0,28.32-23,64.54-51.28,80.88s-51.27,6.65-51.27-21.67,23-64.52,51.27-80.88S651.24,575.1,651.24,603.42Z" transform="translate(0.39 -2.41)"/><path class="cls-44" d="M637.5,611.36c0,20.73-16.81,47.23-37.54,59.2s-37.53,4.86-37.53-15.86,16.8-47.23,37.53-59.21S637.5,590.63,637.5,611.36Z" transform="translate(0.39 -2.41)"/><path class="cls-18" d="M623.36,619.52c0,12.92-10.47,29.45-23.4,36.91s-23.4,3-23.4-9.89S587,617.09,600,609.63,623.36,606.59,623.36,619.52Z" transform="translate(0.39 -2.41)"/><path class="cls-44" d="M609.46,627.55c0,5.24-4.25,12-9.5,15s-9.49,1.24-9.49-4,4.25-12,9.49-15S609.46,622.3,609.46,627.55Z" transform="translate(0.39 -2.41)"/><polygon class="cls-29" points="668.15 655.94 692.69 670.11 682.43 674.75 657.24 660.2 668.15 655.94"/><polygon class="cls-29" points="668.15 684.34 692.69 698.5 682.43 682.02 657.24 667.48 668.15 684.34"/><path class="cls-45" d="M658.62,663.64,600.19,629.9a.37.37,0,0,0-.14-.07l-.06,0h0a1.63,1.63,0,0,0-1.44.21,5,5,0,0,0-2.24,3.89,1.46,1.46,0,0,0,.77,1.49v0l85,49,3.21-5.43Z" transform="translate(0.39 -2.41)"/><path class="cls-46" d="M685.8,680.41a4.94,4.94,0,0,1-2.24,3.89c-1.24.72-2.25.14-2.25-1.29a5,5,0,0,1,2.25-3.89C684.8,678.4,685.8,679,685.8,680.41Z" transform="translate(0.39 -2.41)"/><path class="cls-47" d="M351.09,570.18s-1.5,6.7-1.19,8.78,1.4,5.67,10,4.3,21.42-5.06,23.28-8.76S379,569,370.59,571.56a11,11,0,0,1-9.09-1.77Z" transform="translate(0.39 -2.41)"/><path class="cls-48" d="M316,510c16.7-9.84,44.19-24.16,47.79-14.15,5.23,14.49.06,74.59.06,74.59s-7.52,4.58-14.54.78c-1.15-24-1.91-52.07-1.91-52.07s-14.65,17.32-31.4,23.57Z" transform="translate(0.39 -2.41)"/><polygon class="cls-20" points="369.64 538.74 369.64 603.46 361.73 620.51 332.19 625.08 310.56 612.6 310.56 547.88 369.64 538.74"/><polygon class="cls-49" points="345.79 542.43 369.64 538.74 369.64 603.46 361.73 620.51 345.79 622.98 345.79 542.43"/><polygon class="cls-21" points="361.73 555.8 361.73 620.51 332.19 625.08 332.19 560.37 361.73 555.8"/><polygon class="cls-22" points="348.02 526.26 318.48 530.83 310.56 547.88 332.19 560.37 361.73 555.8 369.64 538.74 348.02 526.26"/><path class="cls-50" d="M306.62,412.72c.91-14.82,1.12-36,1.18-42.28h0c-.14-1.92-2.58-8.11-3.19-10.41-.25-1,7.14-4.51,7.14-4.51s1.39-10.17,1.6-11.82,2.12-1.29,2.32,3.19a109.57,109.57,0,0,1-.55,12.61,3.14,3.14,0,0,0,.5,2.24s.66-3.81.21-5.43,1.65-1.74,2.54,1.34.39,4.76-.66,8.22a40.52,40.52,0,0,0-1.07,5.16c-.16,1.83-.44,5.08-.61,7.44-.46,6.2-.5,5.65.25,22.39.11,2.26-1.55,19.48-2,23.25l3.31-7.83A187.48,187.48,0,0,1,305.77,463l-10.11-3.42S303.24,426.37,306.62,412.72Z" transform="translate(0.39 -2.41)"/><path class="cls-2" d="M314.27,438c-2.76,15.17-5.46,24.94-5.46,24.94l-13.15-3.42s2-12.29,4.43-25.4C304.82,436.13,309.54,436.78,314.27,438Z" transform="translate(0.39 -2.41)"/><polygon class="cls-51" points="425.83 491.86 368.47 515.1 345.05 488.38 396.9 465.2 425.83 491.86"/><path class="cls-47" d="M357.26,534.09s.72,6.46,1.54,8.2,2.68,4.6,9,.62,15.26-11.37,15.67-15.26-4.82-3.58-10.65,1.43a8.14,8.14,0,0,1-7.58,1.34Z" transform="translate(0.39 -2.41)"/><path class="cls-47" d="M377,589.13s-2,6.58-1.89,8.66,1,5.77,9.65,5.09,21.76-3.33,23.91-6.88-3.73-5.85-12.35-3.92a11,11,0,0,1-8.92-2.5Z" transform="translate(0.39 -2.41)"/><path class="cls-52" d="M333.36,533.24s58.13-32.07,62.18-17.2-5.87,74.36-5.87,74.36-7.87,4-14.56-.38c.75-24,2.23-52,2.23-52s-23.12,23.32-43.68,22.38-46.21-19.72-31.53-43.51C319.49,515.56,333.36,533.24,333.36,533.24Z" transform="translate(0.39 -2.41)"/><path class="cls-2" d="M320,454.38s12.56,4.4,17.18,16.3,9.95,36.68,9.95,36.68l1.58,8.4s5.11,38.12-41.45,28.15c-18.78-4-12.09-13.69-12.53-16.77s1.75-13-.08-26.19-6.11-57.58,18-53.84C324.25,450.85,320,454.38,320,454.38Z" transform="translate(0.39 -2.41)"/><path class="cls-50" d="M339.93,424.91s.06.11.15.31c.48,1.06,1.9,4.62,1.2,7.84-.83,3.84,3.11,5.46,3.11,5.46s1,1-.85,1.62a16.49,16.49,0,0,0-2.73,1.08s-1.51,7.31-2.22,8.51-4.06,1-6.85,1-5.12,4.63-5.39,7.09C318.23,456,311.81,449,311.81,449l2.64-6.41S324.44,413.92,339.93,424.91Z" transform="translate(0.39 -2.41)"/><path class="cls-53" d="M331.15,440.49s5.07-8.12,3.73-12.53,5.59-1.78,5.59-1.78,6.39-5.38,4.49-10.88a4,4,0,0,1-3.22.82l1.27-2.58s-6.42.78-8.31.43a7.56,7.56,0,0,0,2.64-2.77s-7,1.09-10.48,1.15-11.58-.61-14,6.22c-4.28,5.74-6.65,21.89.48,26.55,4.24,3,6.78,1.83,6.78,1.83s3.1-7.51,3.55-10.43,7.05-4.37,5.85,1.13a11.72,11.72,0,0,0-.43,4.32Z" transform="translate(0.39 -2.41)"/><path class="cls-50" d="M339.72,495.88s9,21,9.53,24c6.12-2.25,32.56-8.54,38.75-9.67l.05-.1a30.39,30.39,0,0,1,4.45-5.37,6.12,6.12,0,0,0,2.33-4.73c.1-1.16,2.61-2.41,2.77.68a9.67,9.67,0,0,1-1.35,5.35l10.1-3.86s-2.58,9.7-15.54,14.71a.35.35,0,0,0,0,.06s-17.64,8.47-30.14,12.65-20.93,7.38-25.6-.29-14-33.63-14-33.63Z" transform="translate(0.39 -2.41)"/><path class="cls-2" d="M344.66,504.52s-6.35-30.95-9.23-35.67-14.93-6.06-19.05,4,6.47,37.91,6.47,37.91Z" transform="translate(0.39 -2.41)"/><polygon class="cls-3" points="804.63 360.56 667.09 414.39 726.39 421.46 804.63 360.56"/><polygon class="cls-22" points="725.43 421.34 734.61 447.01 804.63 360.56 725.43 421.34"/><polygon class="cls-20" points="745.1 427.25 734.61 447.01 804.63 360.56 745.1 427.25"/><polygon class="cls-3" points="804.63 360.56 786.12 451.24 745.1 427.25 804.63 360.56"/><polygon class="cls-26" points="752.72 268.53 615.17 322.37 674.48 329.43 752.72 268.53"/><polygon class="cls-29" points="673.52 329.31 682.7 354.99 752.72 268.53 673.52 329.31"/><polygon class="cls-54" points="693.19 335.22 682.7 354.99 752.72 268.53 693.19 335.22"/><polygon class="cls-26" points="752.72 268.53 734.21 359.22 693.19 335.22 752.72 268.53"/><path class="cls-54" d="M673.91,896.56l-7.63,0a52.47,52.47,0,0,0-13.61-10.91c-28.31-16.34-74.21-16.34-102.52,0a53.63,53.63,0,0,0-12.94,10.13l-8.28,0v19.55c0,10.7,7.09,21.4,21.23,29.56,28.31,16.35,74.21,16.35,102.52,0,14.15-8.16,21.23-18.86,21.24-29.57,0,0,0-.07,0-.11Z" transform="translate(0.39 -2.41)"/><path class="cls-55" d="M532.51,895.71l-3.58,0v19.55c0,10.7,7.09,21.4,21.23,29.56l.19.1V924.13C540.43,919.4,536.72,906.21,532.51,895.71Z" transform="translate(0.39 -2.41)"/><path class="cls-56" d="M551.14,924.49c-.27-.11-.53-.23-.8-.36V944.9c15.89,9.11,37.26,13.1,57.94,12V936.28C588.85,936.93,568.41,932.12,551.14,924.49Z" transform="translate(0.39 -2.41)"/><path class="cls-57" d="M673.91,896.56l-7.63,0a52.47,52.47,0,0,0-13.61-10.91c-28.31-16.34-74.21-16.34-102.52,0a53.63,53.63,0,0,0-12.94,10.13l-4.7,0c4.21,10.5,7.92,23.69,17.83,28.42v0c.27.13.53.25.8.36,17.27,7.63,37.71,12.44,57.14,11.79v0c16.22-.54,31.73-4.89,44.12-14.56v0a62.21,62.21,0,0,0,16.68-20.08,62.21,62.21,0,0,1-16.68,20.08V945l.27-.15c14.15-8.16,21.23-18.86,21.24-29.57,0,0,0-.07,0-.11Z" transform="translate(0.39 -2.41)"/><path class="cls-58" d="M608.28,936.28v20.59C624.37,956,640,952,652.4,945V921.72C640,931.39,624.5,935.74,608.28,936.28Z" transform="translate(0.39 -2.41)"/><path class="cls-59" d="M652.67,926.16c-28.31,16.35-74.21,16.35-102.52,0s-28.31-42.84,0-59.19,74.21-16.34,102.52,0S681,909.82,652.67,926.16Z" transform="translate(0.39 -2.41)"/><path class="cls-60" d="M652.67,867c-28.31-16.34-74.21-16.34-102.52,0l-.06,0c-28.25,16.35-28.23,42.82.06,59.15l.21.12,51.2-29.56,51.31-29.63Z" transform="translate(0.39 -2.41)"/><path class="cls-61" d="M536.48,877.93c-13.49,15.66-8.93,35.18,13.67,48.23l.21.12,51.2-29.56Z" transform="translate(0.39 -2.41)"/><path class="cls-24" d="M652.67,926.16c28.25-16.3,28.31-42.71.2-59.07l-51.31,29.63,51.05,29.48Z" transform="translate(0.39 -2.41)"/><path class="cls-20" d="M601.56,896.72l-51.2,29.56c28.31,16.21,74,16.19,102.25-.08Z" transform="translate(0.39 -2.41)"/><path class="cls-62" d="M601.56,896.72l-51.2,29.56c15.86,9.08,37.18,13.07,57.83,12Z" transform="translate(0.39 -2.41)"/><path class="cls-63" d="M764.33,749.51a17.87,17.87,0,0,0,1.26,4.39,21,21,0,0,1,1.16,5.64,58.08,58.08,0,0,0-10.92,8.68c-5,5.32-8.68,5.9-12.44,5-1.79-.36-2.24-3.85-.9-5.37S756.63,757.39,756.1,753C758.25,750.85,764.33,749.51,764.33,749.51Z" transform="translate(0.39 -2.41)"/><path class="cls-64" d="M743.39,771.55c3.76.89,6.67.38,12.44-5.25,4.27-4.17,9.85-7.39,10.75-8.28.12.87.17,1.78.17,1.78a48.9,48.9,0,0,0-9.71,7.65c-5.87,6.06-9.89,6.67-13.65,5.78-1.31-.26-1.89-2.19-1.59-3.8A2.39,2.39,0,0,0,743.39,771.55Z" transform="translate(0.39 -2.41)"/><path class="cls-65" d="M784.81,693.6s-13.27,9.15-29.8,18.06c8.16,13.26,9.19,35.06,8.64,39-5.1,4.77-8.8,2.15-8.8,2.15s-17-37.61-19.27-43.59,32.76-33.3,32.76-33.3Z" transform="translate(0.39 -2.41)"/><path class="cls-63" d="M769.94,785.49s1,6.94,2,13.29-.54,12.19-5.16,14.36c-4.35.13-8.7-3.8-7.2-11.14s.91-13.6,1-17.06S769.94,785.49,769.94,785.49Z" transform="translate(0.39 -2.41)"/><path class="cls-65" d="M808.46,708.1s-8.14,4.6-26.67,17.67c-5.53,4.07-5.73,36.35-11.08,59.25-4,7.15-10.57-.47-10.57-.47s-.87-50.66,3.44-66.64c1.67-6.18,26-21.63,26-21.63Z" transform="translate(0.39 -2.41)"/><path class="cls-66" d="M754.4,671.92a4,4,0,0,1-1.5-1.56l3.13,1.75A13.33,13.33,0,0,1,754.4,671.92Z" transform="translate(0.39 -2.41)"/><path class="cls-67" d="M748.16,663c9.89,3.45,25.86-19.81,28.88-22.32,1.45-1.2,1.85-3.29,1.92-5.89h7.38c-1.87,8-4.72,15.64-5.77,17.07-1.93,2.63-24.05,24-29.37,15.83C754.52,666,747.51,666.83,748.16,663Z" transform="translate(0.39 -2.41)"/><path class="cls-65" d="M787.5,702.09c.67-7.32,1.52-14.52-.26-17.84-1.53-2.85.83-12.89.83-12.89l34.6,1.35s4.82,9.94-.55,24.06c-3.06,8.07-7.75,10.22-29,21.14C794.23,711.3,795.61,700.2,787.5,702.09Z" transform="translate(0.39 -2.41)"/><path class="cls-68" d="M777.54,669.55s-4.93-55.25,10.2-61,29,8,34.93,21.35,3.82,42.25,3.87,48.44C805.77,692.59,777,676.41,777.54,669.55Z" transform="translate(0.39 -2.41)"/><path class="cls-50" d="M783.49,586.4s-3.78,6.05-.4,19.17c2.75,10.64,3.08,13.64,7.51,14.08s14-2.55,15.34-11c1.31-.29,5-5.34,2.92-9.38s-3.63.38-3.63.38.09-8.78-6.12-12S783.49,586.4,783.49,586.4Z" transform="translate(0.39 -2.41)"/><path class="cls-69" d="M798.07,597c0-.52-4.74,6.21-12.31,4a4.65,4.65,0,0,0,3.2-2.62,6.69,6.69,0,0,1-6.89,2.24,10.16,10.16,0,0,0,2.76-1.59,7.5,7.5,0,0,1-5.65.42c1.74-.75,1.48-1.9,1.48-1.9s-1.54,1.54-4.54-1.08c1.22-.16,1.1-5.75,5.5-9.78s9-8,14.88-7c-1.44-1.51-1.23-1.86-3.32-1.53,2.36-1.3,7.53-.28,9,1.89,4.58-1.75,10.27,5.2,7.43,21.89-.06-.42-.44-3.13-2.06-3.64s-3,2.66-2.61,3.46a36.84,36.84,0,0,1,.54,5.57l-2.1,1.1s.65-4.14-.83-5.39S798.35,603.31,798.07,597Z" transform="translate(0.39 -2.41)"/><polygon class="cls-70" points="782.17 707.8 732.42 679.07 732.42 676.96 812.66 688.09 812.66 690.2 782.17 707.8"/><polygon class="cls-71" points="782.17 705.69 732.42 676.96 762.9 659.36 812.66 688.09 782.17 705.69"/><path class="cls-72" d="M768.39,682c2.1-.15,4.49.36,8.2.43s3.56-2,3.71-5c1.17.87,1.87,3.2,3.76,4.57s2.79,0,2.79,0l.39.3c13.41-2.37,25.46-12.91,27.58-16.09s-.87-16.79-1.39-25.69c0,0,2-8,9.21-3.91s3.43,33.13,3.43,36.4-26.63,15-39.2,16.16a17.33,17.33,0,0,1-7.25,2.5C768.79,691.4,766.28,682.09,768.39,682Z" transform="translate(0.39 -2.41)"/><path class="cls-50" d="M768.39,682c2.1-.15,4.49.36,8.2.43s3.56-2,3.71-5c1.17.87,1.87,3.2,3.76,4.57s2.79,0,2.79,0l.39.3c13.41-2.37,25.46-12.91,27.58-16.09,1.41-2.12.63-8.51-.23-15.17-.73-5.86-4.87-13.25-4.05-22.67,0,0,.65-10.2,7.81-6.14,3.69,2.09,6.9,15.06,8.69,25.91a143,143,0,0,1,1,24.66c0,3.26-28.59,15.22-41.16,16.37a17.33,17.33,0,0,1-7.25,2.5C768.79,691.4,766.28,682.09,768.39,682Z" transform="translate(0.39 -2.41)"/><path class="cls-67" d="M791.42,679.37c11-3.78,21.59-10.51,23.4-13.22,1.41-2.12.63-8.51-.23-15.17-.73-5.86-4.87-13.25-4.05-22.67,0,0,.65-10.2,7.81-6.14,3.69,2.09,6.9,15.06,8.69,25.91a143,143,0,0,1,1,24.66c0,2.7-19.43,12.91-33.3,16.47C795.06,686.9,793.6,681.68,791.42,679.37Z" transform="translate(0.39 -2.41)"/><polygon class="cls-2" points="732.42 641.77 782.17 705.69 783.8 704.82 783.79 669.63 734.04 640.9 732.42 641.77"/><polygon class="cls-73" points="732.42 676.96 782.17 705.69 782.17 670.49 732.42 641.77 732.42 676.96"/><path class="cls-20" d="M460.28,462.78h0v-8.5l6.1,3.07,10.72-6.19a14,14,0,0,1,12.64,0l107.74,62.2,6.13-3v8.4h0c.14,1.41-.72,2.85-2.59,3.94l-14.23,8.21a13.94,13.94,0,0,1-12.64,0L462.88,466.67C461,465.6,460.16,464.18,460.28,462.78Z" transform="translate(0.39 -2.41)"/><path class="cls-21" d="M597.48,513.36l6.13-3v8.4h0c.14,1.41-.72,2.85-2.59,3.94l-14.23,8.21a12.74,12.74,0,0,1-6.14,1.5V503.65Z" transform="translate(0.39 -2.41)"/><path class="cls-22" d="M586.79,522a13.94,13.94,0,0,1-12.64,0L462.88,457.71c-3.49-2-3.49-5.29,0-7.3l14.22-8.22a14,14,0,0,1,12.64,0L601,506.44c3.49,2,3.49,5.28,0,7.3Z" transform="translate(0.39 -2.41)"/><path class="cls-23" d="M424.39,253l7.28-4.15a1.92,1.92,0,0,1,.5-.29h0a3.06,3.06,0,0,1,2.6.42l209.41,120.9a9,9,0,0,1,4.07,7V537.77a2.89,2.89,0,0,1-1.19,2.64,2.07,2.07,0,0,1-.34.15l-7.24,4.16L638,536.89l2.16.9L434.77,419.22a9,9,0,0,1-4.07-7.05V257.41Z" transform="translate(0.39 -2.41)"/><path class="cls-22" d="M431.67,248.88a1.92,1.92,0,0,1,.5-.29h0a3.06,3.06,0,0,1,2.6.42l209.41,120.9a8,8,0,0,1,2.56,2.56l-140,88.31-72-41.56a9,9,0,0,1-4.07-7.05V257.41L424.39,253Z" transform="translate(0.39 -2.41)"/><path class="cls-20" d="M423.17,416.47a9,9,0,0,0,4.07,7l209.42,120.9c2.24,1.29,4.06.24,4.06-2.35V381.25a9,9,0,0,0-4.06-7L427.24,253.3c-2.24-1.29-4.07-.24-4.07,2.35Z" transform="translate(0.39 -2.41)"/><polygon class="cls-3" points="427.51 402.28 637.16 523.32 637.16 378.56 427.51 257.52 427.51 402.28"/><polygon class="cls-2" points="429.56 258.7 429.56 400.68 637.16 520.54 637.16 523.32 427.51 402.28 427.51 257.52 429.56 258.7"/><path class="cls-74" d="M637.19,875.73s7.38-2.12,8.8-2.12,5-.1,5.46,1.06,1.51,19.27.4,23-13.55,4.75-16.18,3.54c-1.82-3.34,4.15-7.49,6.58-8.7s-.61-8.19-4-8.19S637.19,875.73,637.19,875.73Z" transform="translate(0.39 -2.41)"/><path class="cls-69" d="M651.48,874.73a1.07,1.07,0,0,0-.46-.46c-2.57-.34-4.45,1.09-4,2.19s3.17,18.25-1,22.71c-2.14,2.28-7.83,2.26-8.11,2.53,11.53,0,13.5-2.36,14-4C653,894,652,875.89,651.48,874.73Z" transform="translate(0.39 -2.41)"/><path class="cls-67" d="M612.75,772.41s8.27,8.72,9.25,38.74c-1.65,5.75-15.89,2.46-17.7,0s0-7.71,0-7.71h7.23L609.34,789Z" transform="translate(0.39 -2.41)"/><path class="cls-75" d="M640.7,873.53l-40.48,6.67c-2.32-3.17,4.51-18.75,6.83-23.83,7.32-13.65-3.9-26.34-3.9-26.34l-18.3-5.28s-10,47.68-13.37,58.08c-6.07,18.58,52.44,8.18,69.78,5.15C640.89,885.5,637.58,876.85,640.7,873.53Z" transform="translate(0.39 -2.41)"/><path class="cls-74" d="M614.68,892.07s7.38-2.12,8.8-2.12,4.95-.1,5.45,1,1.52,19.27.41,23-13.55,4.76-16.18,3.54c-1.82-3.33,4.14-7.48,6.57-8.69s-.6-8.19-4-8.19S614.68,892.07,614.68,892.07Z" transform="translate(0.39 -2.41)"/><path class="cls-69" d="M628.93,891a1.09,1.09,0,0,0-.46-.44c-2.57-.35-4.45,1.08-4,2.18s3.17,18.26-1,22.71c-2.15,2.28-7.84,2.26-8.12,2.54,11.53,0,13.5-2.36,14-4C630.45,910.27,629.44,892.17,628.93,891Z" transform="translate(0.39 -2.41)"/><path class="cls-65" d="M618.66,890l-40.21-2.4c-2.32-3.17,10.14-16.43,12.46-21.5,10.86-20.51,9.22-29.77,9.22-29.77L566.35,835S556,876.09,553.29,891.26c-3.43,19.24,32.6,6.27,64.35,13.29C617.26,902.05,615.24,892.84,618.66,890Z" transform="translate(0.39 -2.41)"/><path class="cls-50" d="M580.6,736s-5.4-.38-7.81,5.71a4.45,4.45,0,0,0-.26,2.72c.42,1.71-.32,4.3-1.08,6.19-1.41,3.55.94,9.78,3.22,12.85a5.1,5.1,0,0,0,5.12-1l1.64,6.5,14.49-3.25s-1.58-5.19.37-13.07,1.43-11.85-3.67-14.65-12-2-12-2" transform="translate(0.39 -2.41)"/><path class="cls-76" d="M575.47,726.14s3.72,2.66,15.33,3.81,11.78,9.22,10.08,13.28c3.41,1.38-4.38,13.78-4.51,18.68a14.58,14.58,0,0,1-11.67-1,10.61,10.61,0,0,1-.66-8.24c1.6-4.3-1-8.61-2.77-7.48-.38.24-1.1,7.11-1.4,7.18a3.51,3.51,0,0,1-.86,0c-.51-.13.2-1.87-.27-4.86-.22-1.43-2-4.47-1.88-5.26a29.07,29.07,0,0,1,1.45-4.17l-2.49-.48s-2.76.19-2.66-2.44a24.59,24.59,0,0,1,2.31-8.94" transform="translate(0.39 -2.41)"/><path class="cls-68" d="M562,780.68s6.37-7.52,19.72-12.49A64.86,64.86,0,0,1,595.07,765a20.58,20.58,0,0,1,18.52,8.35c2.2,2.89,5.26,10.64.91,21.46s-3.16,24.2-3.92,29.63c-1,6.89.76,25.63.76,25.63s-.41,1.43-10.1,3.32l-5.07,1c-10.06,1.26-21.59,1.84-36-5.42,1.42-8,4.74-25.46,6.27-32.94S562,780.68,562,780.68" transform="translate(0.39 -2.41)"/><path class="cls-50" d="M521,746.44a25.42,25.42,0,0,1-2.58-7c-.46-3.18-1.45-5.79-3.29-7.64a63.62,63.62,0,0,0-7.49-6c-.59-.22-2.37.29-.71,1.83s4.08,3.7,4.06,5c0,.77-4.08,5.23-2.29,8.61s1.07.75,6.31,8.86C519.8,754.63,521,746.44,521,746.44Z" transform="translate(0.39 -2.41)"/><path class="cls-67" d="M577.54,778.67s-3.52-5.5-15.35-.33-24.24.21-24.24.21-12.77-30-15.19-32.45c-8.5,3.64-10,4.25-10,4.25s8.84,30.78,13.69,38.8,24.88,8.8,35.45,7.9S580.47,786.64,577.54,778.67Z" transform="translate(0.39 -2.41)"/><g class="cls-77"><polygon class="cls-78" points="609.29 493.59 485.56 422.15 485.56 421.13 609.29 492.57 609.29 493.59"/><polygon class="cls-78" points="609.29 482.25 485.56 410.81 485.56 409.78 609.29 481.22 609.29 482.25"/><polygon class="cls-78" points="609.29 470.9 485.56 399.46 485.56 398.44 609.29 469.88 609.29 470.9"/><polygon class="cls-78" points="609.29 459.56 485.56 388.12 485.56 387.09 609.29 458.53 609.29 459.56"/><polygon class="cls-78" points="609.29 448.21 485.56 376.77 485.56 375.75 609.29 447.19 609.29 448.21"/><polygon class="cls-78" points="609.29 436.87 485.56 365.43 485.56 364.4 609.29 435.85 609.29 436.87"/><polygon class="cls-78" points="609.29 425.52 485.56 354.08 485.56 353.06 609.29 424.5 609.29 425.52"/><polygon class="cls-78" points="609.29 413.48 485.56 342.04 485.56 341.02 609.29 412.46 609.29 413.48"/><polygon class="cls-78" points="609.29 402.14 485.56 330.7 485.56 329.67 609.29 401.12 609.29 402.14"/><polygon class="cls-78" points="609.29 390.8 485.56 319.35 485.56 318.33 609.29 389.77 609.29 390.8"/></g><polygon class="cls-79" points="608.52 493.74 591.08 406.65 575.83 426.53 561.65 394.71 547.96 385.66 534.06 361.99 521.12 411.93 504.74 381.11 489.24 424.11 487.75 423.58 504.46 377.22 520.61 407.61 533.49 357.9 549.13 384.54 562.9 393.65 576.19 423.47 591.95 402.94 610.07 493.44 608.52 493.74"/><polygon class="cls-80" points="608.52 493.76 591.16 413.17 575.92 438.34 561.8 407.57 548.14 409.22 533.84 386.11 520.95 411.34 504.76 386.72 489.22 424.15 487.76 423.54 504.44 383.37 520.77 408.2 533.71 382.89 548.95 407.53 562.76 405.86 576.11 434.97 591.87 408.95 610.07 493.43 608.52 493.76"/><polygon class="cls-81" points="608.56 493.87 590.98 446.43 575.5 447.3 562.03 415.94 548.5 430.55 533.54 411.98 520.68 417.63 504.71 401.38 489.15 424.29 487.84 423.4 504.49 398.9 521.04 415.74 534.01 410.05 548.59 428.14 562.53 413.08 576.52 445.66 592.06 444.78 610.04 493.31 608.56 493.87"/><polygon class="cls-82" points="608.61 493.98 591.02 462.57 575.47 460.77 561.83 429.68 548.32 433.56 533.72 419.32 520.81 429.76 504.51 413.69 488.94 424.49 488.04 423.2 504.69 411.65 520.91 427.65 533.82 417.2 548.77 431.79 562.72 427.78 576.55 459.31 592.01 461.09 609.99 493.21 608.61 493.98"/><path class="cls-30" d="M489.44,425.86c0,1.28-.75,2.32-1.67,2.32s-1.67-1-1.67-2.32.75-2.31,1.67-2.31S489.44,424.59,489.44,425.86Z" transform="translate(0.39 -2.41)"/><path class="cls-30" d="M505.82,415.89c0,1.28-.75,2.31-1.67,2.31s-1.67-1-1.67-2.31.75-2.31,1.67-2.31S505.82,414.62,505.82,415.89Z" transform="translate(0.39 -2.41)"/><path class="cls-30" d="M505.82,402.24c0,1.28-.75,2.31-1.67,2.31s-1.67-1-1.67-2.31.75-2.31,1.67-2.31S505.82,401,505.82,402.24Z" transform="translate(0.39 -2.41)"/><path class="cls-30" d="M505.82,387.61c0,1.28-.75,2.31-1.67,2.31s-1.67-1-1.67-2.31.75-2.31,1.67-2.31S505.82,386.34,505.82,387.61Z" transform="translate(0.39 -2.41)"/><path class="cls-30" d="M505.82,381.49c0,1.28-.75,2.32-1.67,2.32s-1.67-1-1.67-2.32.75-2.3,1.67-2.3S505.82,380.22,505.82,381.49Z" transform="translate(0.39 -2.41)"/><ellipse class="cls-30" cx="533.61" cy="360.21" rx="1.67" ry="2.31"/><path class="cls-30" d="M535.51,386.81c0,1.27-.75,2.31-1.67,2.31s-1.67-1-1.67-2.31.75-2.31,1.67-2.31S535.51,385.53,535.51,386.81Z" transform="translate(0.39 -2.41)"/><path class="cls-30" d="M534.87,413.58c0,1.28-.75,2.31-1.67,2.31s-1.68-1-1.68-2.31.75-2.31,1.68-2.31S534.87,412.31,534.87,413.58Z" transform="translate(0.39 -2.41)"/><path class="cls-30" d="M534.87,421.24c0,1.27-.75,2.31-1.67,2.31s-1.68-1-1.68-2.31.75-2.31,1.68-2.31S534.87,420,534.87,421.24Z" transform="translate(0.39 -2.41)"/><path class="cls-30" d="M549.76,435.17c0,1.27-.74,2.31-1.67,2.31s-1.67-1-1.67-2.31.75-2.31,1.67-2.31S549.76,433.89,549.76,435.17Z" transform="translate(0.39 -2.41)"/><path class="cls-30" d="M549.76,431.15c0,1.27-.74,2.31-1.67,2.31s-1.67-1-1.67-2.31.75-2.31,1.67-2.31S549.76,429.87,549.76,431.15Z" transform="translate(0.39 -2.41)"/><path class="cls-30" d="M549.76,410.62c0,1.28-.74,2.31-1.67,2.31s-1.67-1-1.67-2.31.75-2.31,1.67-2.31S549.76,409.34,549.76,410.62Z" transform="translate(0.39 -2.41)"/><path class="cls-30" d="M549.76,387.61c0,1.28-.74,2.31-1.67,2.31s-1.67-1-1.67-2.31.75-2.31,1.67-2.31S549.76,386.34,549.76,387.61Z" transform="translate(0.39 -2.41)"/><path class="cls-30" d="M563.58,396.84c0,1.27-.75,2.31-1.67,2.31s-1.68-1-1.68-2.31.75-2.31,1.68-2.31S563.58,395.56,563.58,396.84Z" transform="translate(0.39 -2.41)"/><path class="cls-30" d="M563.58,409c0,1.28-.75,2.31-1.67,2.31s-1.68-1-1.68-2.31.75-2.31,1.68-2.31S563.58,407.69,563.58,409Z" transform="translate(0.39 -2.41)"/><path class="cls-30" d="M563.58,417.12c0,1.28-.75,2.31-1.67,2.31s-1.68-1-1.68-2.31.75-2.31,1.68-2.31S563.58,415.84,563.58,417.12Z" transform="translate(0.39 -2.41)"/><path class="cls-30" d="M563.58,431.82c0,1.28-.75,2.31-1.67,2.31s-1.68-1-1.68-2.31.75-2.31,1.68-2.31S563.58,430.54,563.58,431.82Z" transform="translate(0.39 -2.41)"/><path class="cls-30" d="M577.49,462.81c0,1.27-.75,2.31-1.67,2.31s-1.68-1-1.68-2.31.75-2.31,1.68-2.31S577.49,461.53,577.49,462.81Z" transform="translate(0.39 -2.41)"/><path class="cls-30" d="M577.49,448.79c0,1.28-.75,2.31-1.67,2.31s-1.68-1-1.68-2.31.75-2.31,1.68-2.31S577.49,447.52,577.49,448.79Z" transform="translate(0.39 -2.41)"/><path class="cls-30" d="M577.49,438.42c0,1.28-.75,2.31-1.67,2.31s-1.68-1-1.68-2.31.75-2.31,1.68-2.31S577.49,437.15,577.49,438.42Z" transform="translate(0.39 -2.41)"/><path class="cls-30" d="M577.49,427.2c0,1.28-.75,2.31-1.67,2.31s-1.68-1-1.68-2.31.75-2.31,1.68-2.31S577.49,425.92,577.49,427.2Z" transform="translate(0.39 -2.41)"/><path class="cls-30" d="M592.78,406.86c0,1.27-.75,2.31-1.67,2.31s-1.67-1-1.67-2.31.74-2.31,1.67-2.31S592.78,405.59,592.78,406.86Z" transform="translate(0.39 -2.41)"/><path class="cls-30" d="M592.78,412.93c0,1.27-.75,2.31-1.67,2.31s-1.67-1-1.67-2.31.74-2.31,1.67-2.31S592.78,411.66,592.78,412.93Z" transform="translate(0.39 -2.41)"/><path class="cls-30" d="M592.78,448.42c0,1.28-.75,2.31-1.67,2.31s-1.67-1-1.67-2.31.74-2.31,1.67-2.31S592.78,447.15,592.78,448.42Z" transform="translate(0.39 -2.41)"/><path class="cls-30" d="M592.78,464.28c0,1.27-.75,2.31-1.67,2.31s-1.67-1-1.67-2.31.74-2.31,1.67-2.31S592.78,463,592.78,464.28Z" transform="translate(0.39 -2.41)"/><path class="cls-30" d="M610.58,495.45c0,1.28-.75,2.31-1.67,2.31s-1.67-1-1.67-2.31.74-2.31,1.67-2.31S610.58,494.18,610.58,495.45Z" transform="translate(0.39 -2.41)"/><path class="cls-30" d="M522.39,418.62c0,1.27-.74,2.31-1.66,2.31s-1.68-1-1.68-2.31.75-2.31,1.68-2.31S522.39,417.34,522.39,418.62Z" transform="translate(0.39 -2.41)"/><path class="cls-30" d="M521.76,412.5c0,1.28-.75,2.31-1.67,2.31s-1.67-1-1.67-2.31.74-2.31,1.67-2.31S521.76,411.22,521.76,412.5Z" transform="translate(0.39 -2.41)"/><path class="cls-30" d="M521.76,430.54c0,1.28-.75,2.32-1.67,2.32s-1.67-1-1.67-2.32.74-2.31,1.67-2.31S521.76,429.27,521.76,430.54Z" transform="translate(0.39 -2.41)"/><path class="cls-50" d="M515.82,348.16s3.46-1.51,4.17-3.28.64-2,1.56-3.2,2.28-3.46,3.63-4.13,1.26,1.64.56,2.33a5.59,5.59,0,0,0-1,2.28s7-4,8.79-4,.34,1.77,0,1.89c1.9-.75,2.49-.34,2.66-.25s.25,1.18-1,1.73c.68-.44,2.17.33-.88,2.57,1.58-.95,1.71.57.61,1.54-.92.81-5.08,4.82-9.42,5.2A17.53,17.53,0,0,0,518.3,353Z" transform="translate(0.39 -2.41)"/><path class="cls-42" d="M516.31,345.4s-31.78,10-34.45,13.45c-2.47,2.95-20.28-34.2-24.34-35.84s-10.61,7.25-6.25,18.41C460,363.76,478.87,376,483,374s37.91-19,37.91-19A19.35,19.35,0,0,0,516.31,345.4Z" transform="translate(0.39 -2.41)"/><path class="cls-83" d="M458.79,514.24s1.08,2.06,2.59,4.32,5.62,2.3,6.58,3.52.84,5.18.84,5.18a16.53,16.53,0,0,1-10.35-1.74c-4.84-2.8-9-4.83-9-4.83s0-5.31.39-6.26S458.79,514.24,458.79,514.24Z" transform="translate(0.39 -2.41)"/><path class="cls-84" d="M458.45,524.22c-4.78-2.76-8.87-4.77-9-4.83,0,.76,0,1.3,0,1.3s4.15,2,9,4.83a16.53,16.53,0,0,0,10.35,1.74s0-.54,0-1.29A16.54,16.54,0,0,1,458.45,524.22Z" transform="translate(0.39 -2.41)"/><path class="cls-85" d="M435.39,409.25s10.41,35.14,11.47,44.27-2.05,39.15,2.6,60.74c6.33,3.24,8.68,1.75,8.68,1.75l1.1-2.81s4.37-48.68,4.15-60-2.19-43.44-2.19-43.44Z" transform="translate(0.39 -2.41)"/><path class="cls-83" d="M440.93,521s1,2.08,2.49,4.37,5.75,3.95,6.68,5.2.73,5.2.73,5.2-6.57.84-11.36-2.08a40.5,40.5,0,0,1-8-6.45s.1-5.31.52-6.24S440.93,521,440.93,521Z" transform="translate(0.39 -2.41)"/><path class="cls-84" d="M450.83,534.06s-6.57.84-11.36-2.07a40.93,40.93,0,0,1-8-6.41c0,.92-.05,1.61-.05,1.61a40.5,40.5,0,0,0,8,6.45c4.79,2.92,11.36,2.08,11.36,2.08s0-.78,0-1.76Z" transform="translate(0.39 -2.41)"/><path class="cls-86" d="M419.81,415.48s9.68,35.49,10.54,44.64-3.7,39.82.49,61.5c6.26,3.38,8.89,2.64,8.89,2.64l2.18-2.64s4.92-50.27,4.95-61.63-1.25-43.47-1.25-43.47Z" transform="translate(0.39 -2.41)"/><path class="cls-87" d="M437.39,316.36s-18.84,5.64-25.23,19,1.88,30.64,1.69,35,.76,48.81.76,48.81l33.86.62,3.59-8.11,4.52,6.07,7.27-6.85s-2.79-39.94-2.22-48.21,4.16-30.17-3.23-40.53C452.76,318.44,439.1,315.78,437.39,316.36Z" transform="translate(0.39 -2.41)"/><path class="cls-73" d="M430.21,318.53s-7.28,5.92-6.55,9.87,25,24.62,25.91,30.45c4.32-8.27-1.19-33.07-3.7-37.78S430.21,318.53,430.21,318.53Z" transform="translate(0.39 -2.41)"/><polygon class="cls-36" points="430.02 305.22 428.81 319.12 440.75 327.02 443.1 323.82 444.03 316.12 430.02 305.22"/><path class="cls-50" d="M451.64,295.69s3.52,21.24-7.38,26.32c-4.51.94-14.05-5.27-13.87-12.22-3.76-.76-3.76-7.9-1.88-9.4s2.64,2.44,2.64,2.44-1.79-9.59,3.85-9.68S451.64,295.69,451.64,295.69Z" transform="translate(0.39 -2.41)"/><path class="cls-88" d="M434.25,296.44s8.83,4.7,13.53,3.94,6.21-3.19,7-5.73-14.79-22.74-27.46-7.8c-5.72,1.88-4,21.23,2,24.42.1-.56.28-1.77.28-1.77a7.64,7.64,0,0,1-1.79-5.07c.28-2.68.94-3.48,1.5-3.53s1.74,1.93,1.93,3a10.49,10.49,0,0,1,.09,2.3l1.41.23a15,15,0,0,1,.38-3.29C433.45,302.31,435.84,298.27,434.25,296.44Z" transform="translate(0.39 -2.41)"/><path class="cls-89" d="M440.36,329.43l-2.13,4.31,2.63,1.69,2.78,15,5.93,8.46s2.15-3.06,1.6-10.35c-4.29-7.24-7.53-13.54-7.53-13.54l.7-3.47Z" transform="translate(0.39 -2.41)"/><path class="cls-50" d="M432,418.76l-7.34,2.43s3.56,4.44,3,6.49a7.33,7.33,0,0,0,.84,5.18l7.51-9.61A13.05,13.05,0,0,1,432,418.76Z" transform="translate(0.39 -2.41)"/><path class="cls-42" d="M434.37,420.37s-13.14-34.4-17-37.29c-3.36-2.66,4.59-30.14,6.32-34.71s-4.22-21.88-12.27-11.22-11.77,46.72-9.4,51.22,23.64,38.34,23.64,38.34A37.93,37.93,0,0,0,434.37,420.37Z" transform="translate(0.39 -2.41)"/><path class="cls-90" d="M501.57,997.49c0,20.72-28.73,37.51-64.18,37.51s-64.17-16.79-64.17-37.51S402,960,437.39,960,501.57,976.76,501.57,997.49Z" transform="translate(0.39 -2.41)"/><path class="cls-91" d="M545.05,968.35c0,20.72-28.73,37.52-64.18,37.52s-64.18-16.8-64.18-37.52,28.74-37.51,64.18-37.51S545.05,947.63,545.05,968.35Z" transform="translate(0.39 -2.41)"/><path class="cls-64" d="M459.85,997.76c1.1-.51,2.15-1,3.17-1.64s2-1.2,2.85-1.83a30.25,30.25,0,0,0,0-3.3c-2.58-2.57-5.87-2.34-4.94-3.39s7-1.36,12.28-1.68a14.13,14.13,0,0,0,1.28-4.76c-.09,0,.1-3.27,0-3.3-4.8-1.24-10.43.75-10.76-.47S468,974,472,971.9c0-.07,0-3.29,0-3.29-5.22.64-14.79.49-16.38-.42s-.11-4.28,1-7.29v-3.29c-3.58,2.29-14.81,6.08-17,5.88s-4.34-3.41-6.52-6.21a66.88,66.88,0,0,0-8.26.74c-.55,3.07-.93,6.51-2.9,7.09s-6.94-1.32-11.58-2.86c-1.1.51-5-.4-6,.18v3.3c2.68,2.68,5.92,5.59,5,6.68s-7.9,1.66-13.22,2c-.73,1.56-.21,2.85-.35,4.45,4.87,1.26,10.43,2.52,10.77,3.76s-4.52.27-8.27,2.2v3.3a22.1,22.1,0,0,0,3.77,4.29c5.22-.64,11-1.5,12.63-.58s0,1.2-1,4c-.1.26.09,3,0,3.3a52,52,0,0,0,7.44,2.17c3.58-2.29,7.37-5,9.51-4.77s4.34,3.41,6.51,6.22a66.36,66.36,0,0,0,8.26-.74c.57-3.06.94-6.52,2.92-7.09S455.21,996.22,459.85,997.76ZM421.38,988c-7.6-4.39-7.6-11.49,0-15.88s19.91-4.39,27.51,0,7.58,11.49,0,15.88S429,992.33,421.38,988Z" transform="translate(0.39 -2.41)"/><path class="cls-37" d="M459.85,994.47c1.1-.51,2.15-1.05,3.17-1.64a32.53,32.53,0,0,0,2.85-1.84c-2.66-2.68-5.91-5.59-4.94-6.68s7-1.36,12.28-1.68a14.12,14.12,0,0,0,1.28-4.77c-4.87-1.26-10.43-2.52-10.76-3.76s4.28-3.42,8.25-5.49a20.9,20.9,0,0,0-3.76-4.3c-5.23.65-11,1.5-12.62.59s-.11-4.28,1-7.29a54.37,54.37,0,0,0-7.44-2.18c-3.58,2.3-7.37,5-9.51,4.77s-4.34-3.41-6.52-6.21a65,65,0,0,0-8.26.74c-.55,3.07-.93,6.51-2.9,7.09S415,960.5,410.39,959c-1.1.52-2.16,1.06-3.19,1.65s-1.95,1.2-2.84,1.83c2.68,2.69,5.92,5.6,5,6.69s-7,1.36-12.29,1.68a14.35,14.35,0,0,0-1.28,4.77c4.87,1.26,10.43,2.51,10.77,3.76s-4.3,3.42-8.27,5.49a21.53,21.53,0,0,0,3.77,4.29c5.22-.63,11-1.49,12.63-.57s.1,4.27-1,7.28a52.06,52.06,0,0,0,7.44,2.18c3.58-2.29,7.37-5,9.51-4.77s4.34,3.41,6.51,6.22a66.37,66.37,0,0,0,8.26-.75c.57-3.06.94-6.51,2.92-7.09S455.21,992.93,459.85,994.47Zm-38.47-9.82c-7.6-4.38-7.6-11.49,0-15.87s19.91-4.39,27.51,0,7.58,11.49,0,15.87S429,989,421.38,984.65Z" transform="translate(0.39 -2.41)"/><path class="cls-64" d="M500.7,965.23c.68-.32,1.35-.66,2-1s1.23-.76,1.79-1.15c0,0,.07-3,0-3-1.63-1.62-3.69-.5-3.11-1.15s4.37-.85,7.7-1.06a8.61,8.61,0,0,0,.81-3c-.06,0,.06-3,0-3-3-.78-6.55,1.43-6.75.67s2.69-2.14,5.18-3.44c0,0,0-3,0-3-3.28.4-9.29,1.28-10.28.71s-.07-2.68.63-4.57v-3c-2.25,1.44-9.29,4.79-10.63,4.66s-2.72-2.13-4.09-3.89a42.42,42.42,0,0,0-5.18.46c-.35,1.92-.59,4.08-1.83,4.45s-4.35-.83-7.26-1.8c-.68.32-3.14-1.22-3.77-.85v3c1.67,1.69,3.7,3.51,3.1,4.2s-5.17.8-8.51,1c0,0,.09,2,0,3,3.05.79,6.54,1.58,6.76,2.37s-2.84-.81-5.19.4v3a13.56,13.56,0,0,0,2.36,2.69c3.28-.4,6.87-.83,7.93-.36.28.12,0-.22-.64,1.53-.06.16.06,2.88,0,3a33.18,33.18,0,0,0,4.67,1.36c2.24-1.43,4.62-3.11,6-3s2.72,2.14,4.09,3.9a40.36,40.36,0,0,0,5.18-.46c.35-1.93.58-4.09,1.83-4.45S497.79,964.27,500.7,965.23Zm-24.14-6.16c-4.76-2.75-4.77-7.21,0-10s12.49-2.75,17.25,0,4.76,7.21,0,10S481.33,961.82,476.56,959.07Z" transform="translate(0.39 -2.41)"/><path class="cls-37" d="M500.7,962.19c.68-.32,1.35-.66,2-1s1.23-.75,1.79-1.15c-1.68-1.68-3.72-3.5-3.11-4.19s4.37-.85,7.7-1.06a8.55,8.55,0,0,0,.81-3c-3.06-.79-6.54-1.58-6.75-2.37s2.69-2.14,5.18-3.44a13.31,13.31,0,0,0-2.37-2.69c-3.27.4-6.92.94-7.91.36s-.07-2.68.63-4.57A34.17,34.17,0,0,0,494,937.7c-2.24,1.44-4.62,3.12-6,3s-2.72-2.14-4.09-3.9a42.42,42.42,0,0,0-5.18.46c-.35,1.93-.59,4.09-1.83,4.45s-4.35-.83-7.26-1.79c-.68.32-1.36.66-2,1a20.22,20.22,0,0,0-1.78,1.15c1.67,1.68,3.7,3.51,3.1,4.19s-4.37.85-7.7,1.06a8.83,8.83,0,0,0-.81,3c3.05.78,6.54,1.58,6.76,2.36s-2.7,2.14-5.19,3.44a13.88,13.88,0,0,0,2.36,2.7c3.28-.41,6.92-.94,7.93-.37s.06,2.68-.64,4.57a33.2,33.2,0,0,0,4.67,1.37c2.24-1.44,4.62-3.12,6-3s2.72,2.14,4.09,3.9a42.24,42.24,0,0,0,5.18-.46c.35-1.92.58-4.09,1.83-4.45S497.79,961.23,500.7,962.19ZM476.56,956c-4.76-2.76-4.77-7.21,0-10s12.49-2.75,17.25,0,4.76,7.2,0,10S481.33,958.78,476.56,956Z" transform="translate(0.39 -2.41)"/><path class="cls-92" d="M273.76,931.87v-9.76h-4.34a26.64,26.64,0,0,0-5.91-4.53c-13.66-7.89-35.82-7.89-49.49,0a26.8,26.8,0,0,0-5.9,4.53h-4.34v9.76c0,5.16,3.41,10.34,10.24,14.28,13.67,7.89,35.83,7.89,49.49,0C270.35,942.21,273.76,937,273.76,931.87Z" transform="translate(0.39 -2.41)"/><path class="cls-93" d="M263.51,936.4c-13.66,7.89-35.82,7.89-49.49,0s-13.66-20.68,0-28.57,35.83-7.89,49.49,0S277.18,928.51,263.51,936.4Z" transform="translate(0.39 -2.41)"/><path class="cls-22" d="M270.85,761.65c-4.09-22.51-32.16-85.7-32.16-85.7s-27.94,63.2-32,85.7c-7,38.7,0,157.29,0,157.29h0c0,4.74,3.14,9.48,9.4,13.1,12.53,7.23,32.85,7.23,45.38,0,6.29-3.63,9.41-8.39,9.39-13.14C271,916.83,277.8,800,270.85,761.65Z" transform="translate(0.39 -2.41)"/><path class="cls-24" d="M272,765.41c-.19-1.32-.39-2.57-.6-3.76-4.09-22.51-32.16-85.7-32.16-85.7s-28,63.2-32,85.7c-.22,1.18-.41,2.43-.6,3.74s-.33,2.45-.48,3.76c.2,4.75,3.41,9.47,9.69,13.09,12.95,7.48,34,7.48,47,0,6.29-3.63,9.5-8.36,9.68-13.11C272.32,767.84,272.16,766.6,272,765.41Z" transform="translate(0.39 -2.41)"/><polygon class="cls-26" points="300.14 968.66 262.14 853.38 265.51 851.36 298.12 884.78 303.51 966.64 300.14 968.66"/><polygon class="cls-24" points="262.14 929.11 262.14 853.38 294.74 886.81 300.14 968.66 262.14 929.11"/><polygon class="cls-26" points="176.78 968.66 214.78 853.38 211.4 851.36 178.8 884.78 173.4 966.64 176.78 968.66"/><polygon class="cls-24" points="214.78 929.11 214.78 853.38 182.18 886.81 176.78 968.66 214.78 929.11"/><rect class="cls-93" x="229.82" y="873.96" width="16.87" height="52.48"/><rect class="cls-93" x="229.82" y="804.3" width="16.87" height="57.52"/></g></g></svg>