<svg id="Layer_1" data-name="Layer 1" xmlns="http://www.w3.org/2000/svg" xmlns:xlink="http://www.w3.org/1999/xlink" viewBox="0 0 353.68 299.43"><defs><style>.cls-1{fill:none;}.cls-2{fill:#b5b5b5;}.cls-3{fill:url(#linear-gradient);}.cls-4{fill:url(#linear-gradient-2);}.cls-5,.cls-9{fill:#212121;}.cls-5{opacity:0.3;isolation:isolate;}.cls-6{fill:#fff;}.cls-7{fill:url(#linear-gradient-3);}.cls-8{fill:url(#linear-gradient-4);}.cls-10{opacity:0.51;}.cls-11{fill:#494949;}.cls-12{fill:url(#linear-gradient-5);}.cls-13{fill:url(#linear-gradient-6);}.cls-14{opacity:0.15;}.cls-15{clip-path:url(#clip-path);}.cls-16{fill:url(#linear-gradient-7);}.cls-17{fill:url(#linear-gradient-8);}.cls-18{opacity:0.5;}.cls-19{opacity:0.8;}</style><linearGradient id="linear-gradient" x1="462.32" y1="6.89" x2="206.9" y2="6.89" gradientTransform="matrix(1, 0, 0, -1, -192.3, 232.12)" gradientUnits="userSpaceOnUse"><stop offset="0" stop-color="#6b6b6b"/><stop offset="0.18" stop-color="#707070"/><stop offset="0.39" stop-color="#7c7c7c"/><stop offset="0.61" stop-color="#919191"/><stop offset="0.85" stop-color="#aeaeae"/><stop offset="1" stop-color="#c5c5c5"/></linearGradient><linearGradient id="linear-gradient-2" x1="329.84" y1="12.83" x2="585.3" y2="12.83" gradientTransform="translate(518.84 232.12) rotate(180)" gradientUnits="userSpaceOnUse"><stop offset="0" stop-color="#c5c5c5"/><stop offset="0.29" stop-color="#cacaca"/><stop offset="0.64" stop-color="#d7d7d7"/><stop offset="1" stop-color="#ebebeb"/></linearGradient><linearGradient id="linear-gradient-3" x1="219.84" y1="124.65" x2="400.57" y2="124.65" xlink:href="#linear-gradient-2"/><linearGradient id="linear-gradient-4" x1="219.88" y1="78.38" x2="250.93" y2="78.38" gradientTransform="translate(518.84 232.12) rotate(180)" xlink:href="#linear-gradient"/><linearGradient id="linear-gradient-5" x1="244.08" y1="27.9" x2="499.32" y2="27.9" gradientTransform="translate(518.84 232.12) rotate(180)" xlink:href="#linear-gradient"/><linearGradient id="linear-gradient-6" x1="329.84" y1="34.87" x2="585.3" y2="34.87" xlink:href="#linear-gradient-2"/><clipPath id="clip-path" transform="translate(-19.37 -0.57)"><polygon class="cls-1" points="294.65 95.03 137.48 4.49 117.73 121.68 274.8 212.15 294.65 95.03"/></clipPath><linearGradient id="linear-gradient-7" x1="145.96" y1="83.98" x2="401.14" y2="83.98" gradientTransform="translate(518.84 232.12) rotate(180)" xlink:href="#linear-gradient"/><linearGradient id="linear-gradient-8" x1="231.71" y1="90.94" x2="487.18" y2="90.94" xlink:href="#linear-gradient-2"/></defs><polygon class="cls-2" points="143.7 95.33 137.06 91.52 137.38 89.68 144 93.49 143.7 95.33"/><path class="cls-3" d="M274.8,237.61l-8.52-1.23L118.55,151.26a6.34,6.34,0,0,0-5.72-.23l-88,50.69L19.43,201v7.17h0A2.39,2.39,0,0,0,20.81,210L175.74,299.2a6.37,6.37,0,0,0,5.72.23l92.41-53.24a1.67,1.67,0,0,0,1-1.52h0Z" transform="translate(-19.37 -0.57)"/><path class="cls-4" d="M20.83,202.83l154.92,89.23a6.36,6.36,0,0,0,5.73.25l92.41-53.26c1.52-.84,1.29-2.32-.41-3.29L118.55,146.53a6.34,6.34,0,0,0-5.72-.25L20.49,199.54C19,200.37,19.14,201.86,20.83,202.83Z" transform="translate(-19.37 -0.57)"/><path class="cls-5" d="M34.24,204.59l138.41,79.76a5.7,5.7,0,0,0,5.12.19L260.36,237c1.32-.76,1.15-2.08-.37-3l-138.4-79.75a5.7,5.7,0,0,0-5.12-.2l-82.6,47.66C32.64,202.39,32.73,203.71,34.24,204.59Z" transform="translate(-19.37 -0.57)"/><path class="cls-6" d="M273.81,238.27,181.4,291.53a6.43,6.43,0,0,1-5.72-.24L20.75,202.06a2.67,2.67,0,0,1-1.32-1.52c-.23.76.21,1.62,1.32,2.26L175.68,292a6.34,6.34,0,0,0,5.72.25L273.81,239a1.53,1.53,0,0,0,.92-1.82A1.83,1.83,0,0,1,273.81,238.27Z" transform="translate(-19.37 -0.57)"/><path class="cls-7" d="M118.28,118.71,137.84,2.79l-1.52-.66L138.69.78h0a1.69,1.69,0,0,1,1.82.12L297,91.05a4.44,4.44,0,0,1,2,4L279.25,211.85a1.5,1.5,0,0,1-.83,1.18h0l-2.33,1.34-.39-2.16h.13L120.3,122.66A4.39,4.39,0,0,1,118.28,118.71Z" transform="translate(-19.37 -0.57)"/><path class="cls-8" d="M296,94.24l2.56-1.14a3.58,3.58,0,0,1,.34,1.93L279.19,211.87a1.51,1.51,0,0,1-.83,1.18h0L276,214.38l-.39-2.15h.13l-7.86-4.55Z" transform="translate(-19.37 -0.57)"/><path class="cls-9" d="M117.85,124.07,274.3,214.23c1.21.68,2.25.29,2.46-.95L296.51,96.44a4.42,4.42,0,0,0-2-4L138,2.28c-1.22-.7-2.25-.31-2.46,1L115.8,120.06A4.39,4.39,0,0,0,117.85,124.07Z" transform="translate(-19.37 -0.57)"/><g class="cls-10"><polygon class="cls-11" points="118.11 3.92 275.28 94.46 255.43 211.58 98.36 121.11 118.11 3.92"/></g><path class="cls-12" d="M19.52,179.39l8.54,4.44,85.6-49.33a6.28,6.28,0,0,1,5.59.23L266.9,219.82c1.42-.78,7.86-3.88,7.86-3.88L271.63,221h0a1.83,1.83,0,0,1-.87,1l-90.18,52a6.22,6.22,0,0,1-5.59-.23L23.89,186.62a2.64,2.64,0,0,1-1.26-1.35h0Z" transform="translate(-19.37 -0.57)"/><path class="cls-13" d="M20.83,180.79,175.75,270a6.39,6.39,0,0,0,5.73.24L273.89,217c1.52-.84,1.29-2.32-.41-3.29L118.55,124.48a6.37,6.37,0,0,0-5.72-.24L20.49,177.48C19,178.33,19.14,179.82,20.83,180.79Z" transform="translate(-19.37 -0.57)"/><path class="cls-6" d="M20.83,180.09l154.92,89.23a6.36,6.36,0,0,0,5.73.25l92.41-53.25a1.86,1.86,0,0,0,.93-1.09,1.53,1.53,0,0,1-.93,1.78l-92.41,53.25a6.46,6.46,0,0,1-5.73-.24L20.83,180.79c-1.1-.64-1.52-1.52-1.34-2.22A2.61,2.61,0,0,0,20.83,180.09Z" transform="translate(-19.37 -0.57)"/><g class="cls-14"><g class="cls-15"><path class="cls-16" d="M117.7,123.32l8.54,4.45,85.63-49.33a6.11,6.11,0,0,1,5.58.23L365.1,163.76c1.35-.79,7.78-3.82,7.78-3.82l-3,5h0a1.93,1.93,0,0,1-.88,1L278.7,217.85a6.17,6.17,0,0,1-5.58-.22L122,130.56a2.76,2.76,0,0,1-1.28-1.35h0Z" transform="translate(-19.37 -0.57)"/><path class="cls-17" d="M119,124.73,273.9,214a6.42,6.42,0,0,0,5.73.23L372,160.94c1.52-.85,1.28-2.32-.41-3.3L216.7,68.41a6.37,6.37,0,0,0-5.72-.23l-92.41,53.24C117.09,122.27,117.29,123.74,119,124.73Z" transform="translate(-19.37 -0.57)"/><path class="cls-6" d="M371.56,157.64,216.7,68.41a6.85,6.85,0,0,0-3.82-.78,6.48,6.48,0,0,1,2.68.78l154.86,89.23c1.68,1,1.86,2.45.41,3.3l-92.41,53.25a4.72,4.72,0,0,1-1.9.54,5.42,5.42,0,0,0,3-.54L372,160.94C373.42,160.09,373.24,158.62,371.56,157.64Z" transform="translate(-19.37 -0.57)"/><g class="cls-18"><path class="cls-9" d="M200.09,109.37l-4.93-2.87a1.61,1.61,0,0,0-1.51,0l-5.52,3.22c-.42.24-.45.63,0,.86l5,2.87a1.69,1.69,0,0,0,1.52,0l5.51-3.22A.47.47,0,0,0,200.09,109.37Z" transform="translate(-19.37 -0.57)"/><path class="cls-9" d="M207.76,113.78l-5-2.87a1.69,1.69,0,0,0-1.52,0l-5.51,3.22c-.44.26-.47.65,0,.88l5,2.85a1.69,1.69,0,0,0,1.52,0l5.51-3.22A.46.46,0,0,0,207.76,113.78Z" transform="translate(-19.37 -0.57)"/><path class="cls-9" d="M215.43,118.19l-5-2.85a1.63,1.63,0,0,0-1.52,0l-5.53,3.23c-.42.24-.45.64,0,.86l5,2.87a1.63,1.63,0,0,0,1.52,0l5.51-3.21C215.79,118.81,215.82,118.42,215.43,118.19Z" transform="translate(-19.37 -0.57)"/><path class="cls-9" d="M209.58,124.07l-5-2.86a1.69,1.69,0,0,0-1.52,0l-4.56,2.7c-.44.25-.47.65-.07.88l5,2.86a1.69,1.69,0,0,0,1.52,0l4.63-2.7C210,124.69,210,124.3,209.58,124.07Z" transform="translate(-19.37 -0.57)"/><path class="cls-9" d="M217.25,128.48l-5-2.85a1.69,1.69,0,0,0-1.52,0l-4.55,2.7c-.43.25-.46.64,0,.87l5,2.86a1.63,1.63,0,0,0,1.52,0l4.64-2.7A.51.51,0,0,0,217.25,128.48Z" transform="translate(-19.37 -0.57)"/><path class="cls-9" d="M224.92,132.91l-5-2.86a1.63,1.63,0,0,0-1.52,0l-4.63,2.69c-.44.26-.47.64,0,.88l5,2.85a1.69,1.69,0,0,0,1.52,0l4.63-2.71A.46.46,0,0,0,224.92,132.91Z" transform="translate(-19.37 -0.57)"/><path class="cls-9" d="M232.58,137.32l-5-2.85a1.69,1.69,0,0,0-1.52,0l-4.55,2.7c-.44.26-.47.65-.08.88l5,2.87a1.69,1.69,0,0,0,1.52,0l4.55-2.7C233,137.94,233,137.55,232.58,137.32Z" transform="translate(-19.37 -0.57)"/><path class="cls-9" d="M240.25,141.75l-5-2.87a1.69,1.69,0,0,0-1.52,0l-4.63,2.7c-.43.25-.46.64,0,.87l5,2.86a1.63,1.63,0,0,0,1.52,0l4.64-2.7A.47.47,0,0,0,240.25,141.75Z" transform="translate(-19.37 -0.57)"/><path class="cls-9" d="M247.92,146.16l-5-2.89a1.63,1.63,0,0,0-1.52,0L236.8,146c-.44.26-.47.66,0,.88l5,2.85a1.63,1.63,0,0,0,1.52,0l4.64-2.69C248.33,146.78,248.33,146.39,247.92,146.16Z" transform="translate(-19.37 -0.57)"/><path class="cls-9" d="M255.57,150.57l-4.95-2.85a1.69,1.69,0,0,0-1.52,0l-4.56,2.7c-.44.26-.47.65-.07.88l5,2.87a1.67,1.67,0,0,0,1.51,0l4.64-2.7A.52.52,0,0,0,255.57,150.57Z" transform="translate(-19.37 -0.57)"/><path class="cls-9" d="M263.24,155l-5-2.87a1.69,1.69,0,0,0-1.52,0l-4.64,2.7c-.42.26-.45.64,0,.87l5,2.86a1.63,1.63,0,0,0,1.52,0l4.56-2.7C263.61,155.62,263.64,155.23,263.24,155Z" transform="translate(-19.37 -0.57)"/><path class="cls-9" d="M270.91,159.41l-5-2.86a1.63,1.63,0,0,0-1.52,0l-4.64,2.69c-.44.26-.47.66,0,.88l5,2.87a1.69,1.69,0,0,0,1.52,0l4.63-2.7C271.28,160,271.31,159.64,270.91,159.41Z" transform="translate(-19.37 -0.57)"/><path class="cls-9" d="M278.57,163.82,273.62,161a1.76,1.76,0,0,0-1.52,0l-4.56,2.72c-.44.24-.47.63-.08.86l5,2.87a1.69,1.69,0,0,0,1.52,0l4.63-2.7A.49.49,0,0,0,278.57,163.82Z" transform="translate(-19.37 -0.57)"/><path class="cls-9" d="M206.39,130.38l-5-2.87a1.69,1.69,0,0,0-1.52,0l-4.63,2.7c-.42.26-.45.66,0,.88l5,2.85a1.63,1.63,0,0,0,1.52,0l4.63-2.7A.46.46,0,0,0,206.39,130.38Z" transform="translate(-19.37 -0.57)"/><path class="cls-9" d="M198.61,125.89l-5-2.85a1.63,1.63,0,0,0-1.52,0l-4.56,2.75c-.42.24-.46.63,0,.86l5,2.87a1.69,1.69,0,0,0,1.52,0l4.63-2.7A.55.55,0,0,0,198.61,125.89Z" transform="translate(-19.37 -0.57)"/><path class="cls-9" d="M190.82,121.41l-10.63-6.16a1.69,1.69,0,0,0-1.52,0L174,118c-.43.25-.46.64,0,.87L184.67,125a1.63,1.63,0,0,0,1.52,0l4.63-2.7C191.19,122,191.22,121.63,190.82,121.41Z" transform="translate(-19.37 -0.57)"/><path class="cls-9" d="M181.78,124.35l-8.67-5a1.69,1.69,0,0,0-1.52,0L167,122c-.43.26-.46.64,0,.87l8.69,5a1.63,1.63,0,0,0,1.52,0l4.55-2.7C182.15,125,182.18,124.57,181.78,124.35Z" transform="translate(-19.37 -0.57)"/><path class="cls-9" d="M214.06,134.79l-5-2.85a1.69,1.69,0,0,0-1.52,0l-4.63,2.72c-.44.24-.45.63,0,.86l5,2.86a1.63,1.63,0,0,0,1.52,0l4.55-2.69C214.42,135.41,214.45,135,214.06,134.79Z" transform="translate(-19.37 -0.57)"/><path class="cls-9" d="M221.72,139.22l-5-2.87a1.63,1.63,0,0,0-1.52,0l-4.63,2.7c-.44.26-.47.64,0,.88l4.95,2.85a1.63,1.63,0,0,0,1.52,0l4.64-2.7C222.1,139.84,222.13,139.45,221.72,139.22Z" transform="translate(-19.37 -0.57)"/><path class="cls-9" d="M229.39,143.63l-5-2.87a1.76,1.76,0,0,0-1.52,0l-4.56,2.7c-.42.26-.45.66,0,.88l5,2.87a1.63,1.63,0,0,0,1.52,0l4.63-2.7A.5.5,0,0,0,229.39,143.63Z" transform="translate(-19.37 -0.57)"/><path class="cls-9" d="M237.06,148l-5-2.85a1.63,1.63,0,0,0-1.52,0l-4.63,2.7c-.44.24-.46.64,0,.86l5,2.87a1.63,1.63,0,0,0,1.52,0l4.64-2.7C237.42,148.66,237.45,148.28,237.06,148Z" transform="translate(-19.37 -0.57)"/><path class="cls-9" d="M244.71,152.47l-5-2.87a1.63,1.63,0,0,0-1.52,0l-4.62,2.76c-.44.26-.47.65-.07.88l5,2.85a1.69,1.69,0,0,0,1.52,0l4.64-2.71C245.09,153.09,245.12,152.7,244.71,152.47Z" transform="translate(-19.37 -0.57)"/><path class="cls-9" d="M252.38,156.91l-5-2.85a1.63,1.63,0,0,0-1.52,0l-4.64,2.7c-.42.26-.45.65,0,.88l5,2.86a1.63,1.63,0,0,0,1.52,0l4.63-2.7C252.76,157.5,252.78,157.11,252.38,156.91Z" transform="translate(-19.37 -0.57)"/><path class="cls-9" d="M260.05,161.31l-5-2.88a1.63,1.63,0,0,0-1.52,0L249,161.12c-.44.25-.46.64,0,.87l5,2.86a1.63,1.63,0,0,0,1.52,0l4.63-2.69C260.48,161.93,260.48,161.53,260.05,161.31Z" transform="translate(-19.37 -0.57)"/><path class="cls-9" d="M267.71,165.72l-4.95-2.87a1.63,1.63,0,0,0-1.52,0l-4.64,2.7c-.44.26-.47.65,0,.88l5,2.85a1.63,1.63,0,0,0,1.52,0l4.63-2.7C268.07,166.34,268.07,166,267.71,165.72Z" transform="translate(-19.37 -0.57)"/><path class="cls-9" d="M275.38,170.13l-5-2.85a1.69,1.69,0,0,0-1.52,0L264.26,170c-.43.25-.46.64,0,.87l5,2.86a1.63,1.63,0,0,0,1.52,0l4.55-2.7C275.76,170.75,275.77,170.36,275.38,170.13Z" transform="translate(-19.37 -0.57)"/><path class="cls-9" d="M289,178l-10.83-6.23a1.69,1.69,0,0,0-1.52,0L272,174.47c-.42.24-.45.63,0,.86l10.83,6.25a1.69,1.69,0,0,0,1.52,0l4.63-2.7C289.34,178.6,289.41,178.21,289,178Z" transform="translate(-19.37 -0.57)"/><path class="cls-9" d="M275,186.18l-9.11-5.27a1.63,1.63,0,0,0-1.52,0l-4.56,2.7c-.42.25-.45.65,0,.88l9.12,5.26a1.69,1.69,0,0,0,1.52,0L275,187A.48.48,0,0,0,275,186.18Z" transform="translate(-19.37 -0.57)"/><path class="cls-9" d="M213,142.33l-5-2.85a1.63,1.63,0,0,0-1.52,0l-4.63,2.69c-.44.26-.46.66,0,.88l5,2.87a1.61,1.61,0,0,0,1.51,0l4.58-2.65C213.39,143,213.39,142.55,213,142.33Z" transform="translate(-19.37 -0.57)"/><path class="cls-9" d="M205.14,137.81l-5-2.87a1.69,1.69,0,0,0-1.52,0l-4.63,2.7c-.44.26-.48.64,0,.87l4.95,2.86a1.69,1.69,0,0,0,1.52,0l4.55-2.7C205.51,138.43,205.54,138,205.14,137.81Z" transform="translate(-19.37 -0.57)"/><path class="cls-9" d="M197.28,133.28l-5-2.87a1.67,1.67,0,0,0-1.51,0l-4.64,2.7c-.42.26-.45.65,0,.88l5,2.86a1.69,1.69,0,0,0,1.52,0l4.63-2.7C197.66,133.9,197.69,133.5,197.28,133.28Z" transform="translate(-19.37 -0.57)"/><path class="cls-9" d="M189.42,128.74l-4.89-2.85a1.69,1.69,0,0,0-1.52,0l-4.55,2.72c-.43.24-.46.63,0,.86l5,2.87a1.69,1.69,0,0,0,1.52,0l4.64-2.7A.57.57,0,0,0,189.42,128.74Z" transform="translate(-19.37 -0.57)"/><path class="cls-9" d="M220.65,146.75l-5-2.86a1.63,1.63,0,0,0-1.52,0l-4.56,2.7c-.44.24-.47.63-.07.86l5,2.87a1.67,1.67,0,0,0,1.51,0l4.64-2.7C221,147.37,221.06,147,220.65,146.75Z" transform="translate(-19.37 -0.57)"/><path class="cls-9" d="M228.32,151.16l-5-2.86a1.63,1.63,0,0,0-1.52,0L217.2,151c-.42.26-.45.65,0,.88l5,2.85a1.63,1.63,0,0,0,1.52,0l4.63-2.7A.47.47,0,0,0,228.32,151.16Z" transform="translate(-19.37 -0.57)"/><path class="cls-9" d="M236,155.58l-5-2.85a1.69,1.69,0,0,0-1.52,0l-4.64,2.71c-.44.24-.45.64,0,.86l5,2.87a1.63,1.63,0,0,0,1.52,0l4.56-2.7C236.36,156.2,236.39,155.82,236,155.58Z" transform="translate(-19.37 -0.57)"/><path class="cls-9" d="M243.65,159.94l-5-2.86a1.63,1.63,0,0,0-1.52,0l-4.56,2.7c-.44.25-.47.63-.07.87l5,2.85a1.63,1.63,0,0,0,1.52,0l4.63-2.69C244,160.62,244.06,160.23,243.65,159.94Z" transform="translate(-19.37 -0.57)"/><path class="cls-9" d="M251.36,164.49l-5-2.86a1.69,1.69,0,0,0-1.52,0l-4.56,2.69c-.42.26-.45.66,0,.88l5,2.87a1.69,1.69,0,0,0,1.52,0l4.63-2.7C251.68,165,251.71,164.64,251.36,164.49Z" transform="translate(-19.37 -0.57)"/><path class="cls-9" d="M259,168.83,254,166a1.63,1.63,0,0,0-1.52,0l-4.63,2.69c-.44.25-.45.64,0,.87l5,2.86a1.63,1.63,0,0,0,1.52,0l4.63-2.69C259.35,169.45,259.38,169,259,168.83Z" transform="translate(-19.37 -0.57)"/><path class="cls-9" d="M266.64,173.25l-4.95-2.86a1.63,1.63,0,0,0-1.52,0l-4.55,2.7c-.44.25-.47.63-.08.88l5,2.85a1.69,1.69,0,0,0,1.52,0l4.55-2.72C267,173.87,267.05,173.48,266.64,173.25Z" transform="translate(-19.37 -0.57)"/><path class="cls-9" d="M274.31,177.66l-5-2.85a1.69,1.69,0,0,0-1.52,0l-4.63,2.7c-.43.26-.46.65,0,.88l5,2.87a1.63,1.63,0,0,0,1.52,0l4.63-2.7C274.68,178.29,274.71,177.89,274.31,177.66Z" transform="translate(-19.37 -0.57)"/><path class="cls-9" d="M282,182.09l-5-2.86a1.63,1.63,0,0,0-1.52,0l-4.56,2.69c-.44.25-.45.64,0,.87l5,2.86a1.63,1.63,0,0,0,1.52,0l4.63-2.69A.5.5,0,0,0,282,182.09Z" transform="translate(-19.37 -0.57)"/><path class="cls-9" d="M194.47,139.79l-5-2.85a1.69,1.69,0,0,0-1.52,0l-4.56,2.7c-.42.25-.45.64,0,.87l5,2.86a1.63,1.63,0,0,0,1.52,0l4.63-2.7A.5.5,0,0,0,194.47,139.79Z" transform="translate(-19.37 -0.57)"/><path class="cls-9" d="M186.84,135.41l-5-2.86a1.61,1.61,0,0,0-1.51,0l-4.64,2.7c-.42.24-.45.63,0,.86l5,2.87a1.69,1.69,0,0,0,1.52,0l4.63-2.7C187.21,136,187.24,135.69,186.84,135.41Z" transform="translate(-19.37 -0.57)"/><path class="cls-9" d="M179.22,131l-5-2.91a1.63,1.63,0,0,0-1.52,0l-4.63,2.69c-.43.25-.46.64,0,.87l5,2.86a1.63,1.63,0,0,0,1.52,0l4.56-2.69C179.58,131.64,179.61,131.24,179.22,131Z" transform="translate(-19.37 -0.57)"/><path class="cls-9" d="M171.59,126.59l-5-2.87a1.67,1.67,0,0,0-1.51,0l-4.64,2.7c-.44.26-.45.64,0,.87l5,2.86a1.63,1.63,0,0,0,1.52,0l4.63-2.7A.46.46,0,0,0,171.59,126.59Z" transform="translate(-19.37 -0.57)"/><path class="cls-9" d="M164.21,130.93l-5-2.82a1.63,1.63,0,0,0-1.52,0l-1.51.89c-.45.24-.48.64,0,.86l4.95,2.87a1.69,1.69,0,0,0,1.52,0l1.51-.89C164.57,131.55,164.6,131.14,164.21,130.93Z" transform="translate(-19.37 -0.57)"/><path class="cls-9" d="M174.16,136.66l-5-2.87a1.69,1.69,0,0,0-1.52,0l-1.52.9c-.42.25-.45.65,0,.87l5,2.85a1.63,1.63,0,0,0,1.52,0l1.52-.89A.47.47,0,0,0,174.16,136.66Z" transform="translate(-19.37 -0.57)"/><path class="cls-9" d="M181.75,141l-5-2.87a1.63,1.63,0,0,0-1.52,0l-1.52.9c-.43.24-.46.63,0,.86l5,2.87a1.67,1.67,0,0,0,1.51,0l1.52-.9C182.12,141.66,182.15,141.26,181.75,141Z" transform="translate(-19.37 -0.57)"/><path class="cls-9" d="M189.35,145.42l-5-2.87a1.69,1.69,0,0,0-1.52,0l-1.52.88c-.42.26-.45.65,0,.88l5,2.87a1.63,1.63,0,0,0,1.52,0l1.52-.9C189.71,146,189.74,145.65,189.35,145.42Z" transform="translate(-19.37 -0.57)"/><path class="cls-9" d="M196.94,149.78l-5-2.85a1.69,1.69,0,0,0-1.52,0l-1.52.9c-.43.26-.46.65,0,.88l5,2.85a1.63,1.63,0,0,0,1.52,0l1.52-.9C197.31,150.41,197.34,150,196.94,149.78Z" transform="translate(-19.37 -0.57)"/><path class="cls-9" d="M239.35,174.22l-5-2.86a1.63,1.63,0,0,0-1.52,0l-1.51.89c-.43.26-.46.64,0,.88l5,2.85a1.69,1.69,0,0,0,1.52,0l1.52-.89C239.71,174.84,239.74,174.45,239.35,174.22Z" transform="translate(-19.37 -0.57)"/><path class="cls-9" d="M246.94,178.6l-5-2.86a1.63,1.63,0,0,0-1.52,0l-1.52.89c-.43.25-.46.64,0,.87l5,2.86a1.63,1.63,0,0,0,1.52,0l1.51-.89A.47.47,0,0,0,246.94,178.6Z" transform="translate(-19.37 -0.57)"/><path class="cls-9" d="M254.54,183l-5-2.85a1.63,1.63,0,0,0-1.52,0l-1.52.88c-.42.26-.45.65,0,.88l5,2.86a1.63,1.63,0,0,0,1.52,0l1.52-.89C254.9,183.59,254.93,183.21,254.54,183Z" transform="translate(-19.37 -0.57)"/><path class="cls-9" d="M262.13,187.35l-5-2.85a1.63,1.63,0,0,0-1.52,0l-1.52.9c-.43.25-.46.65,0,.88l5,2.85a1.67,1.67,0,0,0,1.51,0l1.52-.9C262.5,188,262.53,187.58,262.13,187.35Z" transform="translate(-19.37 -0.57)"/><path class="cls-9" d="M202.14,144.22l-5-2.86a1.63,1.63,0,0,0-1.52,0L191,144.05c-.43.26-.46.64,0,.88l5,2.85a1.67,1.67,0,0,0,1.51,0l4.64-2.71C202.5,144.78,202.53,144.45,202.14,144.22Z" transform="translate(-19.37 -0.57)"/><path class="cls-9" d="M209.81,148.63l-5-2.85a1.63,1.63,0,0,0-1.52,0l-4.63,2.7c-.44.26-.47.65,0,.88l4.95,2.87a1.69,1.69,0,0,0,1.52,0l4.56-2.7A.48.48,0,0,0,209.81,148.63Z" transform="translate(-19.37 -0.57)"/><path class="cls-9" d="M217.46,153.06l-5-2.87a1.69,1.69,0,0,0-1.52,0l-4.64,2.7c-.42.25-.45.64,0,.87l5,2.86a1.63,1.63,0,0,0,1.52,0l4.63-2.7C217.84,153.67,217.86,153.29,217.46,153.06Z" transform="translate(-19.37 -0.57)"/><path class="cls-9" d="M225.13,157.47l-5-2.86a1.63,1.63,0,0,0-1.52,0L214,157.3c-.44.26-.45.66,0,.88l5,2.85a1.63,1.63,0,0,0,1.52,0l4.63-2.69C225.54,158.09,225.54,157.7,225.13,157.47Z" transform="translate(-19.37 -0.57)"/><path class="cls-9" d="M232.8,161.88l-5-2.85a1.63,1.63,0,0,0-1.52,0l-4.56,2.7c-.44.26-.47.65,0,.88l5,2.87a1.69,1.69,0,0,0,1.52,0l4.63-2.7A.55.55,0,0,0,232.8,161.88Z" transform="translate(-19.37 -0.57)"/><path class="cls-9" d="M240.46,166.31l-5-2.87a1.69,1.69,0,0,0-1.52,0l-4.63,2.7c-.43.26-.46.64,0,.87l5,2.86a1.63,1.63,0,0,0,1.52,0l4.55-2.7C240.84,166.93,240.85,166.54,240.46,166.31Z" transform="translate(-19.37 -0.57)"/><path class="cls-9" d="M248.13,170.72l-5-2.86a1.63,1.63,0,0,0-1.52,0L237,170.55c-.44.26-.46.66,0,.88l5,2.87a1.69,1.69,0,0,0,1.52,0l4.63-2.7C248.49,171.34,248.52,171,248.13,170.72Z" transform="translate(-19.37 -0.57)"/><path class="cls-9" d="M255.8,175.1l-5-2.85a1.69,1.69,0,0,0-1.52,0l-4.61,2.85c-.44.24-.47.64,0,.87l5,2.86a1.63,1.63,0,0,0,1.52,0l4.63-2.7C256.16,175.75,256.19,175.38,255.8,175.1Z" transform="translate(-19.37 -0.57)"/><path class="cls-9" d="M263.52,179.56l-5-2.87a1.69,1.69,0,0,0-1.52,0l-4.63,2.7c-.43.26-.46.64,0,.88l5,2.85a1.63,1.63,0,0,0,1.52,0l4.64-2.7A.51.51,0,0,0,263.52,179.56Z" transform="translate(-19.37 -0.57)"/><path class="cls-9" d="M201.77,119.57l-14.61-8.41a1.63,1.63,0,0,0-1.52,0l-4.63,2.7c-.44.25-.47.65-.08.87l14.63,8.43a1.63,1.63,0,0,0,1.52,0l4.63-2.69C202.14,120.19,202.17,119.8,201.77,119.57Z" transform="translate(-19.37 -0.57)"/><path class="cls-9" d="M295.94,173.84l-14.61-8.42a1.63,1.63,0,0,0-1.52,0l-4.55,2.69c-.44.26-.47.64-.08.88l14.63,8.42a1.69,1.69,0,0,0,1.52,0l4.63-2.7A.48.48,0,0,0,295.94,173.84Z" transform="translate(-19.37 -0.57)"/><path class="cls-9" d="M281.74,156.41l-5-2.87a1.69,1.69,0,0,0-1.52,0l-5.52,3.22c-.44.26-.47.64,0,.88l4.95,2.85a1.69,1.69,0,0,0,1.52,0l5.52-3.22A.47.47,0,0,0,281.74,156.41Z" transform="translate(-19.37 -0.57)"/><path class="cls-9" d="M226.06,124.33l-7.94-4.55a1.63,1.63,0,0,0-1.52,0L211.08,123c-.42.25-.45.63,0,.88l7.95,4.54a1.69,1.69,0,0,0,1.52,0l5.51-3.22C226.42,125,226.45,124.56,226.06,124.33Z" transform="translate(-19.37 -0.57)"/><path class="cls-9" d="M274.35,152.15l-8-4.55a1.63,1.63,0,0,0-1.52,0l-5.5,3.25c-.44.25-.47.65,0,.88l7.93,4.54a1.63,1.63,0,0,0,1.52,0l5.53-3.21C274.71,152.77,274.74,152.36,274.35,152.15Z" transform="translate(-19.37 -0.57)"/><path class="cls-9" d="M237.12,130.7l-7.93-4.55a1.69,1.69,0,0,0-1.52,0l-5.51,3.21c-.43.26-.46.66,0,.88l7.94,4.55a1.63,1.63,0,0,0,1.52,0l5.51-3.21A.48.48,0,0,0,237.12,130.7Z" transform="translate(-19.37 -0.57)"/><path class="cls-9" d="M222.16,130.29l34.51,19.89a1.61,1.61,0,0,0,1.51,0l5.62-3.28c.41-.24.4-.62,0-.87l-34.51-19.89Z" transform="translate(-19.37 -0.57)"/><path class="cls-9" d="M295.84,168.64l5.53,3.19a1.36,1.36,0,0,0,1.24,0l2.25-1.32c.36-.2.38-.52,0-.71l-5.53-3.19a1.57,1.57,0,0,0-1.24,0l-2.25,1.32C295.53,168.14,295.52,168.46,295.84,168.64Z" transform="translate(-19.37 -0.57)"/><path class="cls-9" d="M288.12,164.19l5.53,3.2a1.4,1.4,0,0,0,1.23,0l2.25-1.31c.36-.21.38-.53,0-.73l-5.53-3.18a1.4,1.4,0,0,0-1.23,0l-2.26,1.32A.39.39,0,0,0,288.12,164.19Z" transform="translate(-19.37 -0.57)"/><path class="cls-9" d="M280.45,159.78,286,163a1.34,1.34,0,0,0,1.23,0l2.26-1.32c.35-.2.38-.53,0-.71l-5.53-3.19a1.34,1.34,0,0,0-1.23,0l-2.26,1.32C280.22,159.28,280.12,159.59,280.45,159.78Z" transform="translate(-19.37 -0.57)"/><path class="cls-9" d="M284.13,166.52l5.53,3.19a1.57,1.57,0,0,0,1.24,0l2.25-1.32c.35-.22.38-.53,0-.72l-5.48-3.18a1.34,1.34,0,0,0-1.23,0l-2.25,1.32C283.82,166,283.81,166.32,284.13,166.52Z" transform="translate(-19.37 -0.57)"/></g></g></g><g class="cls-19"><path class="cls-9" d="M92.06,170.9l-4.92-2.83c-.39-.23-.33-.62.12-.88l5.8-3.35a1.69,1.69,0,0,1,1.52,0l4.89,2.77c.4.23.34.62-.12.9l-5.8,3.33A1.7,1.7,0,0,1,92.06,170.9Z" transform="translate(-19.37 -0.57)"/><path class="cls-9" d="M99.66,175.28l-4.93-2.83c-.39-.23-.34-.62.11-.9l5.8-3.33a1.76,1.76,0,0,1,1.52,0l4.91,2.83c.39.23.35.63-.11.88l-5.8,3.35A1.65,1.65,0,0,1,99.66,175.28Z" transform="translate(-19.37 -0.57)"/><path class="cls-9" d="M107.25,179.65l-4.92-2.82c-.4-.23-.35-.64.11-.89l5.8-3.35a1.69,1.69,0,0,1,1.52,0l4.9,2.83c.4.23.35.62-.1.9l-5.81,3.33A1.72,1.72,0,0,1,107.25,179.65Z" transform="translate(-19.37 -0.57)"/><path class="cls-9" d="M117.7,176l-4.92-2.83c-.4-.23-.35-.62.11-.88l4.87-2.81a1.76,1.76,0,0,1,1.52,0l4.91,2.84c.39.23.35.62-.11.89L119.22,176A1.7,1.7,0,0,1,117.7,176Z" transform="translate(-19.37 -0.57)"/><path class="cls-9" d="M125.3,180.42l-4.93-2.83c-.39-.23-.35-.62.11-.9l4.88-2.8a1.67,1.67,0,0,1,1.51,0l4.93,2.83c.39.23.35.63-.11.88l-4.88,2.75A1.68,1.68,0,0,1,125.3,180.42Z" transform="translate(-19.37 -0.57)"/><path class="cls-9" d="M132.89,184.79,128,182c-.39-.22-.35-.62.11-.87l4.88-2.81a1.65,1.65,0,0,1,1.51-.07l4.93,2.83c.39.23.35.64-.13.89l-4.86,2.81A1.75,1.75,0,0,1,132.89,184.79Z" transform="translate(-19.37 -0.57)"/><path class="cls-9" d="M140.48,189.17l-4.9-2.83c-.4-.23-.35-.63.1-.9l4.88-2.8a1.69,1.69,0,0,1,1.52,0l4.92,2.83c.4.23.33.62-.12.88L142,189.17A1.74,1.74,0,0,1,140.48,189.17Z" transform="translate(-19.37 -0.57)"/><path class="cls-9" d="M148.08,193.54l-4.92-2.84c-.4-.23-.34-.62.12-.88l4.86-2.8a1.69,1.69,0,0,1,1.52,0l4.9,2.82c.4.23.35.63-.1.89l-4.86,2.75A1.76,1.76,0,0,1,148.08,193.54Z" transform="translate(-19.37 -0.57)"/><path class="cls-9" d="M155.67,197.92l-4.92-2.84c-.39-.22-.35-.62.11-.89l4.87-2.81a1.76,1.76,0,0,1,1.52,0l4.91,2.84c.39.23.35.62-.11.89l-4.86,2.73A1.73,1.73,0,0,1,155.67,197.92Z" transform="translate(-19.37 -0.57)"/><path class="cls-9" d="M163.27,202.28l-4.92-2.82c-.4-.22-.35-.63.1-.89l4.88-2.8a1.69,1.69,0,0,1,1.52,0l4.92,2.83c.39.23.35.62-.11.88l-4.87,2.74A1.64,1.64,0,0,1,163.27,202.28Z" transform="translate(-19.37 -0.57)"/><path class="cls-9" d="M170.86,206.67,166,203.91c-.39-.23-.35-.62.11-.88l4.87-2.82a1.69,1.69,0,0,1,1.52,0l4.92,2.83c.4.23.34.62-.12.9l-4.86,2.8A1.76,1.76,0,0,1,170.86,206.67Z" transform="translate(-19.37 -0.57)"/><path class="cls-9" d="M178.46,211.05l-4.91-2.84c-.39-.23-.35-.63.11-.89l4.87-2.81a1.76,1.76,0,0,1,1.52,0l4.92,2.84c.4.23.34.62-.12.88L180,211A1.68,1.68,0,0,1,178.46,211.05Z" transform="translate(-19.37 -0.57)"/><path class="cls-9" d="M186.05,215.41l-4.92-2.83c-.39-.23-.33-.62.12-.88l4.86-2.81a1.76,1.76,0,0,1,1.52,0l4.91,2.84c.39.23.35.62-.11.89l-4.86,2.73A1.7,1.7,0,0,1,186.05,215.41Z" transform="translate(-19.37 -0.57)"/><path class="cls-9" d="M128.93,174,124,171.15c-.4-.23-.35-.64.11-.9l4.87-2.8a1.69,1.69,0,0,1,1.52,0l4.92,2.83c.4.23.34.62-.12.88L130.46,174A1.72,1.72,0,0,1,128.93,174Z" transform="translate(-19.37 -0.57)"/><path class="cls-9" d="M121.22,169.54l-4.92-2.84c-.39-.22-.33-.62.12-.89l4.87-2.81a1.74,1.74,0,0,1,1.51,0l4.91,2.84c.4.23.35.62-.11.88l-4.87,2.8A1.67,1.67,0,0,1,121.22,169.54Z" transform="translate(-19.37 -0.57)"/><path class="cls-9" d="M113.51,165.08,102.88,159c-.4-.23-.35-.62.1-.9l4.88-2.8a1.69,1.69,0,0,1,1.52,0L120,161.38c.39.23.35.64-.11.9l-4.87,2.8A1.69,1.69,0,0,1,113.51,165.08Z" transform="translate(-19.37 -0.57)"/><path class="cls-9" d="M118.9,159.68l-8.6-5c-.39-.23-.33-.62.13-.9l4.86-2.8a1.74,1.74,0,0,1,1.51,0l8.59,5c.39.22.35.62-.11.87l-4.88,2.81A1.65,1.65,0,0,1,118.9,159.68Z" transform="translate(-19.37 -0.57)"/><path class="cls-9" d="M136.52,178.35l-4.92-2.84c-.4-.23-.34-.62.12-.88l4.86-2.82a1.76,1.76,0,0,1,1.52,0l4.91,2.84c.39.22.35.62-.11.89L138,178.35A1.72,1.72,0,0,1,136.52,178.35Z" transform="translate(-19.37 -0.57)"/><path class="cls-9" d="M144.11,182.68l-4.92-2.83c-.39-.23-.35-.62.12-.9l4.87-2.8a1.74,1.74,0,0,1,1.51,0L150.6,179c.4.23.35.62-.11.88l-4.84,2.82A1.67,1.67,0,0,1,144.11,182.68Z" transform="translate(-19.37 -0.57)"/><path class="cls-9" d="M151.71,187.09l-4.92-2.89c-.4-.23-.35-.62.1-.88l4.88-2.81a1.7,1.7,0,0,1,1.52-.07l4.92,2.83c.39.23.35.63-.11.9l-4.87,2.8A1.7,1.7,0,0,1,151.71,187.09Z" transform="translate(-19.37 -0.57)"/><path class="cls-9" d="M159.29,191.48l-4.91-2.84c-.39-.23-.35-.62.11-.89l4.87-2.81a1.76,1.76,0,0,1,1.52,0l4.92,2.84c.4.22.35.62-.1.88l-4.88,2.8A1.72,1.72,0,0,1,159.29,191.48Z" transform="translate(-19.37 -0.57)"/><path class="cls-9" d="M166.88,195.84,162,193c-.4-.23-.35-.63.1-.88l4.88-2.81a1.69,1.69,0,0,1,1.52,0l4.92,2.82c.39.23.33.64-.12.9l-4.86,2.8A1.74,1.74,0,0,1,166.88,195.84Z" transform="translate(-19.37 -0.57)"/><path class="cls-9" d="M174.48,200.22l-4.92-2.83c-.4-.23-.34-.62.12-.9l4.86-2.8a1.76,1.76,0,0,1,1.52,0l4.9,2.83c.4.23.35.63-.1.88L176,200.22A1.72,1.72,0,0,1,174.48,200.22Z" transform="translate(-19.37 -0.57)"/><path class="cls-9" d="M182.07,204.59l-4.92-2.82c-.39-.23-.35-.64.11-.9l4.87-2.8a1.76,1.76,0,0,1,1.52,0l4.91,2.82c.39.23.35.64-.11.89l-4.87,2.81A1.74,1.74,0,0,1,182.07,204.59Z" transform="translate(-19.37 -0.57)"/><path class="cls-9" d="M189.67,209l-4.92-2.83c-.4-.23-.35-.63.1-.88l4.88-2.82a1.69,1.69,0,0,1,1.52,0l4.92,2.83c.39.23.35.62-.11.9l-4.87,2.8A1.69,1.69,0,0,1,189.67,209Z" transform="translate(-19.37 -0.57)"/><path class="cls-9" d="M197.25,213.34l-4.91-2.82c-.4-.23-.35-.64.11-.9l4.87-2.8a1.69,1.69,0,0,1,1.52,0l4.92,2.83c.4.23.35.62-.1.88l-4.88,2.81A1.72,1.72,0,0,1,197.25,213.34Z" transform="translate(-19.37 -0.57)"/><path class="cls-9" d="M210.75,221.11,200,214.94c-.4-.22-.35-.62.1-.89l4.88-2.81a1.76,1.76,0,0,1,1.52,0l10.72,6.19c.39.23.35.62-.11.88l-4.87,2.8A1.63,1.63,0,0,1,210.75,221.11Z" transform="translate(-19.37 -0.57)"/><path class="cls-9" d="M225.54,212.61l-9.11-5.22c-.4-.22-.35-.63.11-.89l4.87-2.81a1.76,1.76,0,0,1,1.52,0l9.11,5.22c.4.23.35.62-.1.88l-4.88,2.74A1.67,1.67,0,0,1,225.54,212.61Z" transform="translate(-19.37 -0.57)"/><path class="cls-9" d="M149.81,177.5l-4.91-2.84c-.39-.22-.34-.63.11-.89l4.88-2.81a1.76,1.76,0,0,1,1.52,0l4.92,2.84c.39.23.33.62-.12.88l-4.87,2.8A1.68,1.68,0,0,1,149.81,177.5Z" transform="translate(-19.37 -0.57)"/><path class="cls-9" d="M142,173l-4.92-2.83c-.39-.23-.33-.63.12-.9l4.86-2.8a1.76,1.76,0,0,1,1.52,0l4.91,2.83c.39.23.35.62-.11.88L143.52,173A1.73,1.73,0,0,1,142,173Z" transform="translate(-19.37 -0.57)"/><path class="cls-9" d="M134.26,168.52l-4.92-2.83c-.4-.23-.35-.62.1-.88l4.88-2.81a1.7,1.7,0,0,1,1.52-.07l4.9,2.83c.4.23.35.62-.1.9l-4.88,2.8A1.72,1.72,0,0,1,134.26,168.52Z" transform="translate(-19.37 -0.57)"/><path class="cls-9" d="M126.48,164l-4.92-2.84c-.4-.23-.35-.62.11-.88l4.87-2.8a1.63,1.63,0,0,1,1.52,0l4.92,2.82c.4.22.35.63-.11.89L128,164A1.76,1.76,0,0,1,126.48,164Z" transform="translate(-19.37 -0.57)"/><path class="cls-9" d="M157.4,181.86,152.48,179c-.39-.23-.33-.62.13-.88l4.86-2.81a1.74,1.74,0,0,1,1.51,0l4.91,2.84c.4.23.35.62-.11.89l-4.87,2.81A1.71,1.71,0,0,1,157.4,181.86Z" transform="translate(-19.37 -0.57)"/><path class="cls-9" d="M165,186.25l-4.92-2.84c-.4-.23-.34-.62.12-.89l4.86-2.81a1.76,1.76,0,0,1,1.52,0l4.91,2.84c.39.22.34.62-.11.88l-4.88,2.8A1.68,1.68,0,0,1,165,186.25Z" transform="translate(-19.37 -0.57)"/><path class="cls-9" d="M172.59,190.61l-4.92-2.83c-.39-.23-.35-.63.11-.88l4.87-2.81a1.69,1.69,0,0,1,1.52,0l4.92,2.82c.4.23.35.64-.1.9l-4.88,2.8A1.69,1.69,0,0,1,172.59,190.61Z" transform="translate(-19.37 -0.57)"/><path class="cls-9" d="M180.19,195l-4.92-2.83c-.4-.23-.35-.62.1-.9l4.88-2.8a1.69,1.69,0,0,1,1.52,0l4.92,2.83c.39.23.35.62-.11.88L181.71,195A1.69,1.69,0,0,1,180.19,195Z" transform="translate(-19.37 -0.57)"/><path class="cls-9" d="M187.77,199.36l-4.91-2.84c-.39-.22-.35-.62.11-.88l4.87-2.8a1.69,1.69,0,0,1,1.52,0l4.92,2.82c.4.23.34.64-.12.89l-4.86,2.81A1.78,1.78,0,0,1,187.77,199.36Z" transform="translate(-19.37 -0.57)"/><path class="cls-9" d="M195.36,203.74l-4.92-2.87c-.39-.22-.33-.62.12-.87l4.86-2.82a1.69,1.69,0,0,1,1.52,0l4.91,2.83c.39.23.35.62-.11.89l-4.87,2.81A1.74,1.74,0,0,1,195.36,203.74Z" transform="translate(-19.37 -0.57)"/><path class="cls-9" d="M203,208.11,198,205.29c-.4-.23-.34-.64.12-.9l4.86-2.8a1.76,1.76,0,0,1,1.52,0l4.9,2.83c.4.23.35.62-.1.88l-4.88,2.81A1.72,1.72,0,0,1,203,208.11Z" transform="translate(-19.37 -0.57)"/><path class="cls-9" d="M210.55,212.49l-4.92-2.84c-.39-.23-.35-.62.11-.88l4.87-2.8a1.67,1.67,0,0,1,1.52-.08l4.92,2.84c.4.22.35.62-.1.89l-4.88,2.81A1.76,1.76,0,0,1,210.55,212.49Z" transform="translate(-19.37 -0.57)"/><path class="cls-9" d="M218.15,216.87,213.22,214c-.39-.22-.34-.62.11-.89l4.88-2.81a1.76,1.76,0,0,1,1.52,0l4.92,2.84c.39.23.35.62-.11.88l-4.88,2.8A1.64,1.64,0,0,1,218.15,216.87Z" transform="translate(-19.37 -0.57)"/><path class="cls-9" d="M145.82,166.67l-4.91-2.83c-.4-.23-.35-.62.11-.9l4.86-2.8a1.76,1.76,0,0,1,1.52,0l4.93,2.83c.4.23.35.63-.1.88l-4.87,2.82A1.74,1.74,0,0,1,145.82,166.67Z" transform="translate(-19.37 -0.57)"/><path class="cls-9" d="M138.27,162.32l-4.92-2.83c-.4-.23-.35-.62.1-.9l4.88-2.8a1.76,1.76,0,0,1,1.52,0l4.9,2.83c.4.23.35.62-.1.88l-4.88,2.81A1.65,1.65,0,0,1,138.27,162.32Z" transform="translate(-19.37 -0.57)"/><path class="cls-9" d="M130.72,158l-4.92-2.83c-.4-.23-.35-.63.1-.9l4.88-2.8a1.69,1.69,0,0,1,1.52,0l4.92,2.83c.39.23.35.62-.11.88L132.24,158A1.69,1.69,0,0,1,130.72,158Z" transform="translate(-19.37 -0.57)"/><path class="cls-9" d="M123.15,153.61l-4.9-2.76c-.4-.23-.35-.64.1-.9l4.88-2.8a1.69,1.69,0,0,1,1.52,0l4.92,2.83c.39.23.33.62-.12.88l-4.86,2.81A1.74,1.74,0,0,1,123.15,153.61Z" transform="translate(-19.37 -0.57)"/><path class="cls-9" d="M130.93,149.13,126,146.3c-.4-.23-.35-.62.11-.88l1.61-.93a1.67,1.67,0,0,1,1.51-.07l4.91,2.83c.4.23.35.62-.11.9l-1.61.92A1.72,1.72,0,0,1,130.93,149.13Z" transform="translate(-19.37 -0.57)"/><path class="cls-9" d="M140.79,154.82,135.93,152c-.4-.22-.35-.62.1-.88l1.61-.94a1.76,1.76,0,0,1,1.52,0l4.91,2.84c.39.23.35.62-.11.88l-1.61.94A1.72,1.72,0,0,1,140.79,154.82Z" transform="translate(-19.37 -0.57)"/><path class="cls-9" d="M148.31,159.15l-4.92-2.83c-.4-.23-.35-.62.1-.9l1.61-.92a1.76,1.76,0,0,1,1.52,0l4.91,2.83c.39.23.35.63-.11.88l-1.61.94A1.72,1.72,0,0,1,148.31,159.15Z" transform="translate(-19.37 -0.57)"/><path class="cls-9" d="M155.83,163.49l-4.93-2.84c-.39-.22-.33-.62.13-.89l1.61-.92a1.67,1.67,0,0,1,1.51,0l4.93,2.83c.39.23.33.62-.13.88l-1.61.94A1.67,1.67,0,0,1,155.83,163.49Z" transform="translate(-19.37 -0.57)"/><path class="cls-9" d="M163.34,167.83l-4.9-2.84c-.4-.23-.35-.62.1-.89l1.61-.93a1.76,1.76,0,0,1,1.52,0l4.94,2.84c.39.22.35.62-.11.88l-1.61.92A1.73,1.73,0,0,1,163.34,167.83Z" transform="translate(-19.37 -0.57)"/><path class="cls-9" d="M205.34,192l-4.9-2.83c-.4-.23-.35-.63.1-.88l1.61-.94a1.69,1.69,0,0,1,1.52,0l4.92,2.83c.4.23.35.62-.1.9l-1.61.92A1.74,1.74,0,0,1,205.34,192Z" transform="translate(-19.37 -0.57)"/><path class="cls-9" d="M212.86,196.33,208,193.49c-.39-.23-.35-.62.11-.88l1.61-.94a1.76,1.76,0,0,1,1.52,0l4.92,2.84c.4.22.35.62-.11.88l-1.61.94A1.78,1.78,0,0,1,212.86,196.33Z" transform="translate(-19.37 -0.57)"/><path class="cls-9" d="M220.39,200.69l-4.92-2.85c-.39-.22-.35-.62.11-.89l1.61-.93a1.76,1.76,0,0,1,1.52,0l4.9,2.84c.4.23.35.62-.1.88l-1.61.94A1.74,1.74,0,0,1,220.39,200.69Z" transform="translate(-19.37 -0.57)"/><path class="cls-9" d="M227.91,205,223,202.19c-.39-.22-.33-.62.12-.89l1.61-.93a1.76,1.76,0,0,1,1.52,0l4.92,2.84c.4.23.34.62-.12.88l-1.61.94A1.76,1.76,0,0,1,227.91,205Z" transform="translate(-19.37 -0.57)"/><path class="cls-9" d="M153.41,171l-4.92-2.82c-.4-.23-.34-.64.12-.89l4.86-2.81a1.76,1.76,0,0,1,1.52,0l4.91,2.84c.39.22.35.62-.11.87L154.91,171A1.65,1.65,0,0,1,153.41,171Z" transform="translate(-19.37 -0.57)"/><path class="cls-9" d="M161,175.42l-4.92-2.83c-.39-.23-.35-.63.11-.88l4.88-2.82a1.67,1.67,0,0,1,1.51,0l4.93,2.83c.39.23.35.62-.11.9l-4.88,2.8A1.69,1.69,0,0,1,161,175.42Z" transform="translate(-19.37 -0.57)"/><path class="cls-9" d="M168.6,179.8,163.68,177c-.4-.23-.35-.64.1-.9l4.88-2.8a1.69,1.69,0,0,1,1.52,0l4.92,2.83c.4.23.35.62-.11.88l-4.87,2.81A1.69,1.69,0,0,1,168.6,179.8Z" transform="translate(-19.37 -0.57)"/><path class="cls-9" d="M176.18,184.2l-4.91-2.84c-.39-.22-.35-.62.11-.88l4.87-2.8a1.67,1.67,0,0,1,1.52-.08l4.92,2.84c.4.23.34.62-.12.89l-4.86,2.81A1.75,1.75,0,0,1,176.18,184.2Z" transform="translate(-19.37 -0.57)"/><path class="cls-9" d="M183.77,188.55l-4.92-2.84c-.38-.22-.33-.62.12-.89l4.86-2.8a1.69,1.69,0,0,1,1.52,0l4.91,2.83c.39.23.35.62-.11.88l-4.86,2.8A1.69,1.69,0,0,1,183.77,188.55Z" transform="translate(-19.37 -0.57)"/><path class="cls-9" d="M191.37,192.92l-4.92-2.84c-.4-.23-.34-.62.12-.88l4.86-2.8a1.69,1.69,0,0,1,1.52,0l4.9,2.83c.4.23.35.64-.1.9l-4.88,2.8A1.72,1.72,0,0,1,191.37,192.92Z" transform="translate(-19.37 -0.57)"/><path class="cls-9" d="M199,197.3,194,194.46c-.39-.23-.35-.62.11-.89l4.87-2.81a1.76,1.76,0,0,1,1.52,0l4.92,2.84c.4.23.35.62-.1.88l-4.88,2.82A1.76,1.76,0,0,1,199,197.3Z" transform="translate(-19.37 -0.57)"/><path class="cls-9" d="M206.56,201.66l-4.92-2.83c-.4-.23-.35-.62.1-.88l4.88-2.81a1.69,1.69,0,0,1,1.52,0l4.92,2.82c.39.23.35.64-.11.9l-4.87,2.8A1.69,1.69,0,0,1,206.56,201.66Z" transform="translate(-19.37 -0.57)"/><path class="cls-9" d="M214.14,206l-4.91-2.83c-.4-.23-.35-.62.11-.9l4.87-2.8a1.69,1.69,0,0,1,1.52,0l4.92,2.84c.4.22.34.62-.12.89l-4.86,2.8A1.72,1.72,0,0,1,214.14,206Z" transform="translate(-19.37 -0.57)"/><path class="cls-9" d="M110,171.59l-14.5-8.34c-.39-.23-.33-.64.13-.9l4.86-2.8a1.76,1.76,0,0,1,1.52,0l14.47,8.34c.4.22.35.62-.11.89l-4.76,2.74A1.73,1.73,0,0,1,110,171.59Z" transform="translate(-19.37 -0.57)"/><path class="cls-9" d="M203.28,225.33,188.8,217c-.39-.23-.35-.62.11-.89l4.86-2.81a1.76,1.76,0,0,1,1.52,0l14.47,8.34c.4.23.35.62-.1.89l-4.88,2.81A1.72,1.72,0,0,1,203.28,225.33Z" transform="translate(-19.37 -0.57)"/><path class="cls-9" d="M172.91,217.55,168,214.73c-.39-.23-.33-.64.12-.89l5.79-3.41a1.69,1.69,0,0,1,1.52,0l4.92,2.83c.4.23.33.62-.12.89l-5.8,3.34A1.67,1.67,0,0,1,172.91,217.55Z" transform="translate(-19.37 -0.57)"/><path class="cls-9" d="M117.78,185.71l-7.86-4.54c-.39-.23-.35-.63.11-.88l5.8-3.35a1.69,1.69,0,0,1,1.52,0l7.87,4.54c.39.23.35.63-.11.88l-5.78,3.35A1.7,1.7,0,0,1,117.78,185.71Z" transform="translate(-19.37 -0.57)"/><path class="cls-9" d="M165.59,213.28l-7.85-4.55c-.4-.23-.35-.64.11-.9l5.8-3.35a1.76,1.76,0,0,1,1.52,0L173,209c.4.23.35.62-.1.9l-5.8,3.33A1.74,1.74,0,0,1,165.59,213.28Z" transform="translate(-19.37 -0.57)"/><path class="cls-9" d="M128.73,192l-7.85-4.55c-.4-.23-.35-.62.1-.88l5.8-3.35a1.76,1.76,0,0,1,1.52,0l7.86,4.55c.39.22.34.62-.11.88l-5.8,3.35A1.76,1.76,0,0,1,128.73,192Z" transform="translate(-19.37 -0.57)"/><path class="cls-9" d="M128.33,183.24,162.51,203c.42.26.42.65,0,.9l-5.91,3.41a1.69,1.69,0,0,1-1.52,0l-34.19-19.71Z" transform="translate(-19.37 -0.57)"/><path class="cls-9" d="M194.13,225.43l5.47,3.16c.33.18.29.51-.09.73l-2.37,1.36a1.4,1.4,0,0,1-1.26,0l-5.48-3.15c-.32-.19-.28-.52.09-.73l2.38-1.37A1.4,1.4,0,0,1,194.13,225.43Z" transform="translate(-19.37 -0.57)"/><path class="cls-9" d="M186.48,221l5.46,3.16c.34.18.29.51-.09.72l-2.37,1.37a1.4,1.4,0,0,1-1.26,0l-5.48-3.16c-.32-.18-.27-.5.09-.72l2.39-1.37A1.4,1.4,0,0,1,186.48,221Z" transform="translate(-19.37 -0.57)"/><path class="cls-9" d="M178.88,216.64l5.49,3.15c.31.2.27.52-.1.73l-2.38,1.37a1.4,1.4,0,0,1-1.26,0l-5.47-3.16c-.33-.19-.29-.51.09-.72l2.37-1.37A1.4,1.4,0,0,1,178.88,216.64Z" transform="translate(-19.37 -0.57)"/><path class="cls-9" d="M190.61,218.6l5.47,3.15c.33.2.28.52-.09.73l-2.37,1.38a1.49,1.49,0,0,1-1.27,0l-5.48-3.16c-.32-.18-.27-.51.09-.72l2.39-1.37A1.43,1.43,0,0,1,190.61,218.6Z" transform="translate(-19.37 -0.57)"/></g><path class="cls-2" d="M268.07,100.71a2.2,2.2,0,0,1-1.15-.33A3.31,3.31,0,0,1,265.4,97a1.68,1.68,0,0,1,1-1.22,2,2,0,0,1,1.82.2,3.37,3.37,0,0,1,1.61,3.38,1.65,1.65,0,0,1-1.64,1.35ZM267,96.16a1.14,1.14,0,0,0-1.14.94,2.79,2.79,0,0,0,1.37,2.81,1.51,1.51,0,0,0,1.34.16,1.15,1.15,0,0,0,.67-.84,2.8,2.8,0,0,0-1.36-2.81,1.74,1.74,0,0,0-.83-.24Z" transform="translate(-19.37 -0.57)"/><path class="cls-2" d="M274.38,104.32a2.26,2.26,0,0,1-1.16-.33,3.34,3.34,0,0,1-1.59-3.38,1.69,1.69,0,0,1,.95-1.22,2.07,2.07,0,0,1,1.83.18A3.4,3.4,0,0,1,276,103a1.71,1.71,0,0,1-1,1.22A1.66,1.66,0,0,1,274.38,104.32Zm-1.11-4.55a1,1,0,0,0-.47.11,1.13,1.13,0,0,0-.66.85,2.77,2.77,0,0,0,1.35,2.8,1.52,1.52,0,0,0,1.36.17,1.18,1.18,0,0,0,.65-.85h0a2.8,2.8,0,0,0-1.35-2.81,1.85,1.85,0,0,0-.88-.27Z" transform="translate(-19.37 -0.57)"/><path class="cls-2" d="M282,106.5a1.52,1.52,0,0,1-1.83,1.14,1.5,1.5,0,0,1-.57-.27,3,3,0,0,1-1.52-3,1.52,1.52,0,0,1,1.83-1.12,1.55,1.55,0,0,1,.55.26A3,3,0,0,1,282,106.5Z" transform="translate(-19.37 -0.57)"/><polygon class="cls-2" points="142.62 37 139.28 35.07 139.54 33.53 142.88 35.45 142.62 37"/><polygon class="cls-2" points="147.48 39.8 144.14 37.88 144.4 36.33 147.76 38.26 147.48 39.8"/><polygon class="cls-2" points="137.81 34.23 130.47 30 130.73 28.45 138.07 32.68 137.81 34.23"/><polygon class="cls-2" points="138.14 49.41 130.14 44.81 130.46 42.96 138.46 47.57 138.14 49.41"/><polygon class="cls-2" points="144.98 53.34 140.97 51.04 141.29 49.2 145.28 51.51 144.98 53.34"/><polygon class="cls-2" points="139.78 55.1 136.37 53.15 136.68 51.3 140.09 53.25 139.78 55.1"/><polygon class="cls-2" points="145.49 58.39 141.48 56.09 141.8 54.24 145.8 56.54 145.49 58.39"/><polygon class="cls-2" points="151.37 66.53 135.65 57.47 135.96 55.62 151.68 64.68 151.37 66.53"/><polygon class="cls-2" points="137.73 102.76 122.01 93.7 122.33 91.86 138.05 100.91 137.73 102.76"/><polygon class="cls-2" points="143.78 106.25 139.78 103.95 140.09 102.1 144.1 104.4 143.78 106.25"/><polygon class="cls-2" points="138.32 63.76 134.92 61.8 135.22 59.95 138.63 61.91 138.32 63.76"/><polygon class="cls-2" points="144.03 67.05 140.04 64.74 140.34 62.89 144.34 65.2 144.03 67.05"/><polygon class="cls-2" points="142.84 71.11 134.19 66.12 134.5 64.27 143.14 69.26 142.84 71.11"/><polygon class="cls-2" points="148.62 74.43 144.61 72.14 144.93 70.29 148.93 72.59 148.62 74.43"/><polygon class="cls-2" points="154.44 77.8 150.43 75.47 150.75 73.64 154.74 75.94 154.44 77.8"/><polygon class="cls-2" points="163.81 83.19 156.25 78.84 156.55 76.99 164.13 81.36 163.81 83.19"/><polygon class="cls-2" points="157.83 89.24 153.83 86.94 154.14 85.09 158.13 87.39 157.83 89.24"/><polygon class="cls-2" points="167.21 94.65 159.63 90.29 159.95 88.44 167.52 92.8 167.21 94.65"/><polygon class="cls-2" points="136.73 77.08 132.73 74.78 133.04 72.93 137.05 75.23 136.73 77.08"/><polygon class="cls-2" points="142.55 80.43 138.55 78.13 138.86 76.28 142.87 78.6 142.55 80.43"/><polygon class="cls-2" points="151.93 85.84 144.37 81.48 144.67 79.63 152.24 84 151.93 85.84"/><polygon class="cls-2" points="164.24 88.18 160.23 85.88 160.55 84.03 164.54 86.34 164.24 88.18"/><polygon class="cls-2" points="170.05 91.53 166.04 89.23 166.36 87.38 170.36 89.7 170.05 91.53"/><polygon class="cls-2" points="179.44 96.94 171.86 92.58 172.18 90.74 179.75 95.09 179.44 96.94"/><polygon class="cls-2" points="150.03 109.86 146.04 107.55 146.34 105.7 150.35 108.01 150.03 109.86"/><polygon class="cls-2" points="159.42 115.26 151.86 110.91 152.16 109.06 159.74 113.42 159.42 115.26"/><polygon class="cls-2" points="135.29 85.74 131.28 83.44 131.59 81.58 135.59 83.9 135.29 85.74"/><polygon class="cls-2" points="144.66 91.15 137.09 86.78 137.4 84.94 144.98 89.3 144.66 91.15"/><polygon class="cls-2" points="154.39 117.11 150.4 114.8 150.7 112.97 154.71 115.27 154.39 117.11"/><polygon class="cls-2" points="163.78 122.52 156.22 118.15 156.52 116.32 164.1 120.67 163.78 122.52"/><polygon class="cls-2" points="163.32 73.41 159.33 71.11 159.63 69.26 163.63 71.56 163.32 73.41"/><polygon class="cls-2" points="157.28 69.93 153.27 67.62 153.59 65.77 157.58 68.09 157.28 69.93"/><polygon class="cls-2" points="172.71 78.83 165.13 74.46 165.45 72.63 173.02 76.98 172.71 78.83"/><polygon class="cls-2" points="137.06 72.53 133.46 70.46 133.77 68.61 137.38 70.69 137.06 72.53"/><polygon class="cls-2" points="147.77 78.7 139.01 73.64 139.31 71.79 148.09 76.86 147.77 78.7"/><polygon class="cls-2" points="158.48 84.88 149.7 79.81 150.02 77.96 158.78 83.03 158.48 84.88"/><polygon class="cls-2" points="178.27 82.03 174.66 79.95 174.97 78.1 178.57 80.19 178.27 82.03"/><polygon class="cls-2" points="188.98 88.19 180.2 83.15 180.5 81.3 189.28 86.34 188.98 88.19"/><polygon class="cls-2" points="199.67 94.36 190.91 89.32 191.21 87.47 199.99 92.52 199.67 94.36"/><polygon class="cls-2" points="140.86 84.21 132.08 79.16 132.4 77.31 141.16 82.36 140.86 84.21"/><polygon class="cls-2" points="145.48 86.88 142.79 85.31 143.09 83.48 145.8 85.03 145.48 86.88"/><polygon class="cls-2" points="150.13 89.54 147.42 88 147.73 86.15 150.43 87.69 150.13 89.54"/><polygon class="cls-2" points="158.69 94.49 152.06 90.67 152.37 88.82 159 92.64 158.69 94.49"/><polygon class="cls-2" points="168.29 85.77 165.6 84.22 165.91 82.37 168.6 83.94 168.29 85.77"/><polygon class="cls-2" points="176.86 90.71 170.24 86.89 170.54 85.04 177.18 88.86 176.86 90.71"/><polygon class="cls-2" points="178.67 91.76 172.03 87.94 172.35 86.09 178.97 89.91 178.67 91.76"/><polygon class="cls-2" points="143.37 115.5 134.72 110.53 135.04 108.68 143.69 113.66 143.37 115.5"/><polygon class="cls-2" points="149.15 118.83 145.16 116.53 145.46 114.68 149.47 117 149.15 118.83"/><polygon class="cls-2" points="154.97 122.18 150.98 119.88 151.28 118.05 155.28 120.35 154.97 122.18"/><polygon class="cls-2" points="164.36 127.6 156.79 123.23 157.1 121.38 164.66 125.75 164.36 127.6"/><polygon class="cls-2" points="170.36 131.05 166.36 128.75 166.67 126.9 170.68 129.2 170.36 131.05"/><polygon class="cls-2" points="179.75 136.47 172.18 132.1 172.48 130.26 180.05 134.62 179.75 136.47"/><polygon class="cls-2" points="150.96 129.37 146.95 127.06 147.27 125.22 151.26 127.52 150.96 129.37"/><polygon class="cls-2" points="160.35 134.78 152.77 130.42 153.09 128.57 160.65 132.93 160.35 134.78"/><polygon class="cls-2" points="130.06 117.33 126.05 115.03 126.37 113.18 130.37 115.48 130.06 117.33"/><polygon class="cls-2" points="135.88 120.68 131.87 118.38 132.19 116.53 136.18 118.83 135.88 120.68"/><polygon class="cls-2" points="145.26 126.09 137.69 121.73 138 119.88 145.57 124.25 145.26 126.09"/><polygon class="cls-2" points="137.61 116.94 134 114.85 134.31 113.01 137.91 115.09 137.61 116.94"/><polygon class="cls-2" points="148.32 123.09 139.54 118.05 139.84 116.2 148.62 121.26 148.32 123.09"/><polygon class="cls-2" points="159.01 129.26 150.25 124.22 150.55 122.37 159.33 127.43 159.01 129.26"/><polygon class="cls-2" points="127.1 120.38 118.33 115.32 118.64 113.47 127.42 118.53 127.1 120.38"/><polygon class="cls-2" points="131.73 123.03 129.04 121.49 129.35 119.64 132.04 121.2 131.73 123.03"/><polygon class="cls-2" points="136.37 125.72 133.68 124.16 133.98 122.31 136.67 123.87 136.37 125.72"/><polygon class="cls-2" points="144.93 130.64 138.31 126.82 138.61 124.99 145.25 128.79 144.93 130.64"/><polygon class="cls-2" points="146.74 131.69 140.1 127.87 140.42 126.02 147.04 129.84 146.74 131.69"/><polygon class="cls-2" points="131.06 103.66 128.36 102.11 128.68 100.26 131.37 101.81 131.06 103.66"/><polygon class="cls-2" points="139.63 108.6 132.99 104.78 133.31 102.93 139.93 106.75 139.63 108.6"/><polygon class="cls-2" points="148.38 113.65 141.76 109.83 142.06 107.98 148.7 111.8 148.38 113.65"/><polygon class="cls-2" points="182.11 142.57 178.12 140.27 178.42 138.44 182.43 140.74 182.11 142.57"/><polygon class="cls-2" points="191.5 147.99 183.94 143.62 184.24 141.79 191.82 146.14 191.5 147.99"/><polygon class="cls-2" points="167.35 134.07 160.71 130.25 161.03 128.4 167.65 132.22 167.35 134.07"/><polygon class="cls-2" points="176.1 139.12 169.48 135.3 169.78 133.45 176.42 137.27 176.1 139.12"/><polygon class="cls-2" points="126.37 85.36 123.68 83.8 123.99 81.96 126.67 83.51 126.37 85.36"/><polygon class="cls-2" points="134.94 90.29 128.31 86.47 128.62 84.63 135.26 88.45 134.94 90.29"/></svg>