<svg id="Layer_1" data-name="Layer 1" xmlns="http://www.w3.org/2000/svg" viewBox="0 0 1616.39 1077.59"><defs><style>.cls-1,.cls-11,.cls-15,.cls-22,.cls-23{fill:#fff;}.cls-2{fill:#f8f8f8;}.cls-3{fill:#d7d7d7;}.cls-4{fill:#f0f0f0;}.cls-5{fill:#f5f5f5;}.cls-6{fill:#e7e7e7;}.cls-7{fill:#e1e1e1;}.cls-8{fill:#ececec;}.cls-9{fill:#fafafa;}.cls-10,.cls-13,.cls-14,.cls-17{fill:#656565;}.cls-11,.cls-16{opacity:0.3;}.cls-12{fill:#292929;}.cls-13,.cls-15{opacity:0.4;}.cls-14{opacity:0.1;}.cls-17{opacity:0.6;}.cls-18{fill:#888;}.cls-19{fill:#acacac;}.cls-20,.cls-21{opacity:0.2;}.cls-22{opacity:0.5;}.cls-23{opacity:0.7;}</style></defs><rect class="cls-1" width="1616.39" height="1077.59"/><path class="cls-2" d="M1205.25,731C942.44,593.77,781.83,345.56,682.55,79.83a537.43,537.43,0,0,1-22-77.42H1920V899.34c-115.31-13.49-231.58-30.72-349.74-51.52C1438.86,824.45,1322.05,792.33,1205.25,731Z" transform="translate(-303.61 -2.41)"/><path class="cls-1" d="M660.51,2.41a537.43,537.43,0,0,0,22,77.42C781.83,345.56,942.44,593.77,1205.25,731c116.8,61.32,233.61,93.44,365,116.81,118.16,20.8,234.43,38,349.74,51.52V1080H303.61V2.41Z" transform="translate(-303.61 -2.41)"/><path class="cls-3" d="M947.66,946.49c68.49-.61,198.21-9.12,79.91-129.88-178.66-175.27,185.36-249.86,368.8-250.49,135.38-.47,396.22,20.84,523.63,32V1080H652.34C639.12,978.63,884.43,947.05,947.66,946.49Z" transform="translate(-303.61 -2.41)"/><rect class="cls-4" x="1543.69" y="587.36" width="95.02" height="261.17" transform="translate(2878.79 1433.47) rotate(180)"/><rect class="cls-4" x="1128.81" y="848.53" width="491.66" height="18.47" transform="translate(2445.67 1713.11) rotate(180)"/><rect class="cls-5" x="806.95" y="584.95" width="433.12" height="261.17"/><rect class="cls-4" x="806.95" y="602.63" width="434.79" height="95.59"/><rect class="cls-4" x="806.95" y="715.65" width="434.79" height="95.59"/><rect class="cls-6" x="1543.69" y="605.04" width="16.44" height="95.59" transform="translate(2800.21 1303.26) rotate(180)"/><rect class="cls-6" x="1543.69" y="718.06" width="16.44" height="95.59" transform="translate(2800.21 1529.31) rotate(180)"/><rect class="cls-4" x="1097.9" y="571.29" width="445.79" height="16.07" transform="translate(2337.98 1156.24) rotate(180)"/><rect class="cls-6" x="1240.08" y="568.88" width="108.3" height="16.07"/><rect class="cls-4" x="1433.54" y="241.07" width="223.62" height="281.09" transform="translate(2787.09 760.82) rotate(180)"/><rect class="cls-5" x="1384.18" y="241.07" width="264.41" height="281.09" transform="translate(2729.16 760.82) rotate(180)"/><rect class="cls-1" x="1397.99" y="271.56" width="236.79" height="220.11" transform="translate(831.16 1895.59) rotate(-90)"/><path class="cls-6" d="M1540.76,407.25l42.06-19.5V375.47l-42.06-19.53v14.68l25.56,11-25.56,11Z" transform="translate(-303.61 -2.41)"/><path class="cls-6" d="M1513.33,350.27h-7.69L1519.26,413h7.62Z" transform="translate(-303.61 -2.41)"/><path class="cls-6" d="M1492,392.65l-25.56-11,25.56-11V355.94L1450,375.47v12.28l42.06,19.5Z" transform="translate(-303.61 -2.41)"/><rect class="cls-4" x="994.5" y="389.97" width="14.66" height="477.02" transform="translate(1700.05 1254.56) rotate(180)"/><path class="cls-4" d="M991.46,863.67l-.39-2c.15,0,4-.89,6.92-6.06,3.81-6.75,6.13-21.12-4.47-51.27-16.32-46.45-6.58-83.93,12.83-158.6,3.38-13,7.22-27.75,11.2-43.67,14.91-59.67,1.11-96.68-10-126.42-8.61-23.09-15.41-41.32-6.71-62.44l1.92.79c-8.38,20.37-1.71,38.26,6.74,60.92,11.18,30,25.11,67.36,10,127.66-4,15.92-7.82,30.67-11.2,43.68-19.31,74.27-29,111.54-12.88,157.39,10.89,31,8.33,46,4.25,53.09C996.32,862.67,991.66,863.63,991.46,863.67Z" transform="translate(-303.61 -2.41)"/><polygon class="cls-4" points="671.7 864.59 724.75 864.59 710 855.89 686.45 855.89 671.7 864.59"/><polygon class="cls-5" points="593.27 448.31 803.17 448.31 780.07 271.93 616.37 271.93 593.27 448.31"/><polygon class="cls-4" points="904.59 477.39 1016.65 477.39 1001.9 568.88 919.34 568.88 904.59 477.39"/><path class="cls-7" d="M1253.22,509.57c30.55-11.06,54-27.67,27.78-61.27s-66.77-33.46-94.11-18.59c-34.85,19-27.86,73.8-27.86,73.8S1222.66,520.63,1253.22,509.57Z" transform="translate(-303.61 -2.41)"/><path class="cls-6" d="M1282.93,479c-23.38-15.91-40-34.35-12.83-53.79s60.57-9.47,80.68,8.59c25.62,23,10.83,63.42,10.83,63.42S1306.31,494.86,1282.93,479Z" transform="translate(-303.61 -2.41)"/><path class="cls-4" d="M1241.78,438.62c27.35-1.66,50.28-8.79,37.33-38.42s-45.73-37.91-71.41-32.83c-32.74,6.46-40.45,47.42-40.45,47.42S1214.43,440.28,1241.78,438.62Z" transform="translate(-303.61 -2.41)"/><path class="cls-8" d="M1276.09,421.14c-22.75-7.31-40.59-18.3-23.24-40.53s46.83-22.14,67.44-12.31c26.26,12.54,23.93,48.82,23.93,48.82S1298.84,428.45,1276.09,421.14Z" transform="translate(-303.61 -2.41)"/><path class="cls-5" d="M1233.45,383.19c22.7,7.48,43.58,9.11,42.65-19.08s-24.81-45.47-47.26-49.65c-28.61-5.33-48.09,25.37-48.09,25.37S1210.76,375.71,1233.45,383.19Z" transform="translate(-303.61 -2.41)"/><path class="cls-9" d="M1291.06,371.1c-16.25,1.11-30.31-1.35-24.94-19.8s24.07-25.83,39.59-24.8c19.79,1.32,27.46,24.87,27.46,24.87S1307.3,370,1291.06,371.1Z" transform="translate(-303.61 -2.41)"/><ellipse id="_Path_" data-name="&lt;Path&gt;" class="cls-5" cx="967.28" cy="935.02" rx="403.57" ry="23.57"/><rect class="cls-10" x="612.41" y="591.26" width="707.19" height="25.38"/><rect class="cls-11" x="612.41" y="591.26" width="189.26" height="25.38"/><polygon class="cls-10" points="804.7 616.64 788.23 616.64 796.86 934.64 804.7 934.64 812.55 934.64 821.18 616.64 804.7 616.64"/><polygon class="cls-11" points="796.86 934.64 804.7 934.64 804.7 623.47 788.5 626.43 796.86 934.64"/><polygon class="cls-10" points="648.65 616.64 632.18 616.64 640.8 934.64 648.65 934.64 656.49 934.64 665.12 616.64 648.65 616.64"/><polygon class="cls-11" points="640.8 934.64 648.65 934.64 648.65 623.47 632.44 626.43 640.8 934.64"/><polygon class="cls-10" points="1283.36 616.64 1266.89 616.64 1275.52 934.64 1283.36 934.64 1291.21 934.64 1299.83 616.64 1283.36 616.64"/><polygon class="cls-11" points="1275.52 934.64 1283.36 934.64 1283.36 623.47 1267.15 626.43 1275.52 934.64"/><polygon class="cls-10" points="1127.31 616.64 1110.83 616.64 1119.46 934.64 1127.31 934.64 1135.15 934.64 1143.78 616.64 1127.31 616.64"/><polygon class="cls-11" points="1119.46 934.64 1127.31 934.64 1127.31 623.47 1111.1 626.43 1119.46 934.64"/><path class="cls-12" d="M1251.7,457.84H1083.45c-6,0-10,4.94-8.68,11l22.41,106.89c1.26,6,7.24,11,13.28,11h168.26c6,0,9.94-4.94,8.68-11L1265,468.82C1263.72,462.78,1257.74,457.84,1251.7,457.84Z" transform="translate(-303.61 -2.41)"/><path class="cls-1" d="M1112,580.59c-4,0-8.15-3.5-9-7.49l-22.41-106.88a4.94,4.94,0,0,1,.78-4.17,4.51,4.51,0,0,1,3.6-1.52h168.26c4,0,8.15,3.5,9,7.49l22.41,106.88a4.94,4.94,0,0,1-.78,4.17,4.48,4.48,0,0,1-3.61,1.52Z" transform="translate(-303.61 -2.41)"/><path class="cls-13" d="M1239,572l-21.23-101.27a4.12,4.12,0,0,1,4-5h27.31a4.12,4.12,0,0,1,4,3.28l21.23,101.27a4.12,4.12,0,0,1-4,5H1243A4.12,4.12,0,0,1,1239,572Z" transform="translate(-303.61 -2.41)"/><polygon class="cls-10" points="791.03 472.18 790.11 467.79 823.83 467.79 824.75 472.18 791.03 472.18"/><polygon class="cls-8" points="806.59 483.07 805.67 478.68 864.78 478.68 865.7 483.07 806.59 483.07"/><polygon class="cls-8" points="809.71 493.97 808.78 489.57 875.03 489.57 875.95 493.97 809.71 493.97"/><polygon class="cls-8" points="812.82 504.86 811.9 500.47 865.24 500.47 866.16 504.86 812.82 504.86"/><polygon class="cls-10" points="801.27 522.54 800.35 518.15 821.68 518.15 822.6 522.54 801.27 522.54"/><polygon class="cls-8" points="816.84 533.44 815.92 529.04 841.9 529.04 842.83 533.44 816.84 533.44"/><polygon class="cls-8" points="849.05 533.44 848.13 529.04 874.12 529.04 875.04 533.44 849.05 533.44"/><polygon class="cls-8" points="819.95 544.33 819.03 539.94 906.87 539.94 907.79 544.33 819.95 544.33"/><polygon class="cls-8" points="823.06 555.23 822.14 550.83 889.12 550.83 890.04 555.23 823.06 555.23"/><path class="cls-12" d="M1330.26,586.05h-221.4c-6,0-9.94,3.43-8.67,7.62h243.35C1342.28,589.48,1336.3,586.05,1330.26,586.05Z" transform="translate(-303.61 -2.41)"/><path class="cls-14" d="M1036.12,430.82l-21.23-101.27a4.12,4.12,0,0,1,4-5h171.94a4.13,4.13,0,0,1,4,3.28l21.23,101.27a4.12,4.12,0,0,1-4,5H1040.15A4.12,4.12,0,0,1,1036.12,430.82Z" transform="translate(-303.61 -2.41)"/><polygon class="cls-10" points="793.62 325.51 757.53 325.51 756.73 321.63 792.81 321.63 793.62 325.51"/><polygon class="cls-13" points="787.75 331.7 773.27 331.7 772.46 327.82 786.94 327.82 787.75 331.7"/><polygon class="cls-13" points="811.86 331.7 789.54 331.7 788.73 327.82 811.05 327.82 811.86 331.7"/><polygon class="cls-13" points="821.59 337.89 774.56 337.89 773.75 334.01 820.78 334.01 821.59 337.89"/><polygon class="cls-13" points="815.6 344.09 775.85 344.09 775.04 340.2 814.79 340.2 815.6 344.09"/><polygon class="cls-13" points="841.98 409.89 816.67 409.89 817.48 413.77 842.78 413.77 841.98 409.89"/><polygon class="cls-10" points="810.42 401.39 773.35 401.39 772.54 397.51 809.61 397.51 810.42 401.39"/><polygon class="cls-13" points="825.33 416.08 790.86 416.08 791.67 419.96 826.14 419.96 825.33 416.08"/><polygon class="cls-13" points="814.87 409.89 789.57 409.89 790.38 413.77 815.68 413.77 814.87 409.89"/><polygon class="cls-13" points="838.89 403.7 788.28 403.7 789.09 407.58 839.7 407.58 838.89 403.7"/><polygon class="cls-10" points="792.36 296.62 751.51 296.62 750.7 292.74 791.55 292.74 792.36 296.62"/><polygon class="cls-13" points="812.52 311.32 767.48 311.32 768.29 315.2 813.33 315.2 812.52 311.32"/><polygon class="cls-13" points="803.51 305.13 766.19 305.13 767 309.01 804.32 309.01 803.51 305.13"/><polygon class="cls-13" points="806 298.93 764.9 298.93 765.71 302.82 806.81 302.82 806 298.93"/><polygon class="cls-10" points="791.89 354.16 763.51 354.16 762.7 350.28 791.08 350.28 791.89 354.16"/><polygon class="cls-13" points="836.48 368.85 781.01 368.85 781.82 372.74 837.28 372.74 836.48 368.85"/><polygon class="cls-13" points="802.7 362.66 779.72 362.66 780.53 366.55 803.51 366.55 802.7 362.66"/><polygon class="cls-13" points="827.63 362.66 804.66 362.66 805.47 366.55 828.45 366.55 827.63 362.66"/><polygon class="cls-13" points="829.04 356.47 778.43 356.47 779.24 360.35 829.85 360.35 829.04 356.47"/><polygon class="cls-13" points="828.95 387.43 784.89 387.43 785.7 391.31 829.75 391.31 828.95 387.43"/><polygon class="cls-13" points="796.41 381.24 783.6 381.24 784.4 385.12 797.22 385.12 796.41 381.24"/><polygon class="cls-13" points="816.46 381.24 798.17 381.24 798.98 385.12 817.27 385.12 816.46 381.24"/><polygon class="cls-13" points="832.92 375.05 782.3 375.05 783.11 378.93 833.73 378.93 832.92 375.05"/><polygon class="cls-13" points="872.79 374.01 854.66 374.01 853.85 370.13 871.98 370.13 872.79 374.01"/><polygon class="cls-13" points="902.97 374.01 875.03 374.01 874.22 370.13 902.16 370.13 902.97 374.01"/><polygon class="cls-13" points="914.83 380.2 855.95 380.2 855.14 376.32 914.02 376.32 914.83 380.2"/><polygon class="cls-13" points="907.01 386.39 857.24 386.39 856.43 382.51 906.2 382.51 907.01 386.39"/><polygon class="cls-13" points="929.29 349.37 872.91 349.37 873.72 353.26 930.1 353.26 929.29 349.37"/><polygon class="cls-13" points="918.34 343.18 871.62 343.18 872.43 347.06 919.15 347.06 918.34 343.18"/><polygon class="cls-10" points="909.89 336.99 858.44 336.99 859.25 340.87 910.7 340.87 909.89 336.99"/><polygon class="cls-13" points="931.84 411.16 862.4 411.16 863.21 415.05 932.65 415.05 931.84 411.16"/><polygon class="cls-13" points="889.88 404.97 861.11 404.97 861.92 408.85 890.69 408.85 889.88 404.97"/><polygon class="cls-13" points="921.1 404.97 892.33 404.97 893.14 408.85 921.91 408.85 921.1 404.97"/><polygon class="cls-13" points="923.18 398.78 859.82 398.78 860.63 402.66 923.99 402.66 923.18 398.78"/><polygon class="cls-13" points="921.44 429.74 866.27 429.74 867.08 433.62 922.25 433.62 921.44 429.74"/><polygon class="cls-13" points="881.02 423.55 864.98 423.55 865.79 427.43 881.83 427.43 881.02 423.55"/><polygon class="cls-13" points="906.13 423.55 883.23 423.55 884.04 427.43 906.94 427.43 906.13 423.55"/><polygon class="cls-13" points="927.06 417.35 863.69 417.35 864.5 421.24 927.87 421.24 927.06 417.35"/><polygon class="cls-13" points="758.3 434.54 715.14 434.54 715.95 438.42 759.11 438.42 758.3 434.54"/><polygon class="cls-13" points="745.53 428.35 713.85 428.35 714.66 432.23 746.34 432.23 745.53 428.35"/><polygon class="cls-13" points="779.46 428.35 747.78 428.35 748.59 432.23 780.27 432.23 779.46 428.35"/><polygon class="cls-13" points="775.92 422.16 712.56 422.16 713.37 426.04 776.73 426.04 775.92 422.16"/><polygon class="cls-10" points="1260.67 550.83 1233.94 550.83 1237.06 591.26 1257.55 591.26 1260.67 550.83"/><polygon class="cls-15" points="1260.67 550.83 1233.94 550.83 1237.06 591.26 1257.55 591.26 1260.67 550.83"/><polygon class="cls-12" points="678.24 522.76 716.66 522.76 703.54 591.26 665.12 591.26 678.24 522.76"/><polygon class="cls-10" points="727.17 504.39 672.9 504.39 688.09 591.26 742.36 591.26 727.17 504.39"/><polygon class="cls-10" points="669.69 504.39 672.9 504.39 688.09 591.26 684.88 591.26 669.69 504.39"/><polygon class="cls-16" points="669.69 504.39 672.9 504.39 688.09 591.26 684.88 591.26 669.69 504.39"/><polygon class="cls-1" points="695.89 581.98 683.95 513.68 719.37 513.68 731.31 581.98 695.89 581.98"/><polygon class="cls-17" points="729.63 581.98 717.69 513.68 719.37 513.68 731.31 581.98 729.63 581.98"/><path class="cls-12" d="M1299.55,395.68c.78,1.67.52,3.43-.57,3.93s-2.6-.44-3.37-2.11-.52-3.42.57-3.93S1298.78,394,1299.55,395.68Z" transform="translate(-303.61 -2.41)"/><path class="cls-18" d="M1300.22,399s.66,11.37-1.37,17.95c4.23,1.39,8.66-2.19,8.66-2.19Z" transform="translate(-303.61 -2.41)"/><path class="cls-12" d="M1299.76,382a1.06,1.06,0,0,1-.62.24,8.55,8.55,0,0,0-6.85,3.73,1.08,1.08,0,0,1-1.87-1.08,10.7,10.7,0,0,1,8.6-4.8,1.07,1.07,0,0,1,.74,1.91Z" transform="translate(-303.61 -2.41)"/><path class="cls-19" d="M1360.86,393.17c6.43,22.28,13.6,39.58,22.38,49.41,0,0,.15,17.52-29.68,25.84-32.8,9.16-20.22-11.9-20.22-11.9,16.71-9.28,15.06-23.27,2.53-28.59Z" transform="translate(-303.61 -2.41)"/><path class="cls-12" d="M1390.19,438.32c-.59-8.15-1.35-17.43-6.38-17.66-5.53-.26-37.58,14.06-44.43,24.15s6.52,20,6.52,20Z" transform="translate(-303.61 -2.41)"/><path class="cls-19" d="M1324.57,564.37l-27.68-.91.49,23.18s24.15-2.49,25.22-8.83Z" transform="translate(-303.61 -2.41)"/><polygon class="cls-19" points="978.64 572.42 975.74 584.28 993.77 584.23 993.28 561.05 978.64 572.42"/><path class="cls-10" d="M1435.69,468l-.58,5.95c-.19,1.91-.45,3.8-.7,5.69-.48,3.78-1.08,7.53-1.73,11.28-1.25,7.51-2.88,15-4.73,22.5a232.66,232.66,0,0,1-6.92,22.63c-1.44,3.81-2.93,7.61-4.73,11.49a99,99,0,0,1-6.25,11.76c-.58,1-1.28,2-2,3s-1.37,2-2.17,3-1.51,2-2.45,3.07l-1.36,1.54a21.74,21.74,0,0,1-1.54,1.61,47.65,47.65,0,0,1-14.42,9.69,85.13,85.13,0,0,1-25.87,6.55c-4.07.49-8.08.67-12,.76s-7.85,0-11.72-.19-7.71-.55-11.52-1-7.51-1.06-11.56-1.88l.67-21.74c13.36-2.66,27.35-5.39,39.34-9.38a83.27,83.27,0,0,0,8.45-3.25,38.32,38.32,0,0,0,6.71-3.63,9.3,9.3,0,0,0,3-3l.61-.95c.25-.31.51-.86.78-1.29a15.18,15.18,0,0,0,.81-1.48c.27-.53.56-1,.82-1.64a109.6,109.6,0,0,0,6-16.51c1.7-6.12,3.32-12.52,4.61-19.1s2.53-13.26,3.68-20l1.58-10.12,1.42-9.85Z" transform="translate(-303.61 -2.41)"/><path class="cls-20" d="M1435.69,468l-.58,5.95c-.19,1.91-.45,3.8-.7,5.69-.48,3.78-1.08,7.53-1.73,11.28-1.25,7.51-2.88,15-4.73,22.5a232.66,232.66,0,0,1-6.92,22.63c-1.44,3.81-2.93,7.61-4.73,11.49a99,99,0,0,1-6.25,11.76c-.58,1-1.28,2-2,3s-1.37,2-2.17,3-1.51,2-2.45,3.07l-1.36,1.54a21.74,21.74,0,0,1-1.54,1.61,47.65,47.65,0,0,1-14.42,9.69,85.13,85.13,0,0,1-25.87,6.55c-4.07.49-8.08.67-12,.76s-7.85,0-11.72-.19-7.71-.55-11.52-1-7.51-1.06-11.56-1.88l.67-21.74c13.36-2.66,27.35-5.39,39.34-9.38a83.27,83.27,0,0,0,8.45-3.25,38.32,38.32,0,0,0,6.71-3.63,9.3,9.3,0,0,0,3-3l.61-.95c.25-.31.51-.86.78-1.29a15.18,15.18,0,0,0,.81-1.48c.27-.53.56-1,.82-1.64a109.6,109.6,0,0,0,6-16.51c1.7-6.12,3.32-12.52,4.61-19.1s2.53-13.26,3.68-20l1.58-10.12,1.42-9.85Z" transform="translate(-303.61 -2.41)"/><path class="cls-10" d="M1312.78,495.58c6.7,27.85,15.36,74.55,17.34,135.6H1452c.67-15.07-1.87-99.84-14.14-161.23a42.44,42.44,0,0,0-50.79-33.23l-.58.13c-15.2,3.47-37,9-49.9,13.94l-.53.2A38.16,38.16,0,0,0,1312.78,495.58Z" transform="translate(-303.61 -2.41)"/><path class="cls-20" d="M1320.7,534.6c1,5.84,1.93,12,2.83,18.53,10-10.41,13.14-42.3,13.14-42.3Z" transform="translate(-303.61 -2.41)"/><path class="cls-19" d="M1219.46,565.87l-27.58-2.59-.91,23.18a26,26,0,0,0,25.71-7.3Z" transform="translate(-303.61 -2.41)"/><polygon class="cls-19" points="875.04 567.71 866.16 583.64 887.36 584.05 888.27 560.87 875.04 567.71"/><path class="cls-10" d="M1358.51,485c-1.92,3.66-3.62,6.87-5.54,10.2s-3.76,6.58-5.73,9.81q-5.87,9.72-12.26,19.17a322.47,322.47,0,0,1-28.53,36.72,157,157,0,0,1-18.09,17.2c-.82.7-1.78,1.37-2.66,2s-1.69,1.31-3,2.15a40.31,40.31,0,0,1-3.67,2.19c-1.23.7-2.44,1.27-3.67,1.82a65.47,65.47,0,0,1-14.33,4.35,90.4,90.4,0,0,1-26.06.59,113.1,113.1,0,0,1-12.07-2.15q-3-.68-5.87-1.57c-2-.57-3.76-1.23-6-2l3.45-21.48c13.06-1.77,27.19-4,36.94-8.45a26.38,26.38,0,0,0,6.06-3.48,14,14,0,0,0,2-1.74c.17-.19.8-.75,1.29-1.2s1-.9,1.56-1.44a153.38,153.38,0,0,0,12.5-14.05A405,405,0,0,0,1298.22,500c3.74-5.88,7.4-11.88,11-17.89l5.38-9.05,5.19-8.88Z" transform="translate(-303.61 -2.41)"/><polygon class="cls-19" points="1021.45 917.05 998.66 917.05 987.21 864.28 1010 864.28 1021.45 917.05"/><path class="cls-12" d="M1301,914.57h25.6a2,2,0,0,1,1.94,1.56l4.5,20.25a3.35,3.35,0,0,1-3.34,4.06c-8.93-.16-13.28-.68-24.53-.68-6.93,0-15.82.72-25.38.72-9.36,0-10.82-9.46-6.9-10.32,17.56-3.84,18.79-9.13,24.41-14.18A5.49,5.49,0,0,1,1301,914.57Z" transform="translate(-303.61 -2.41)"/><g class="cls-21"><polygon points="1010 864.29 987.21 864.29 993.56 893.51 1015.92 891.49 1010 864.29"/></g><path class="cls-19" d="M1353.56,366.41c8.21,21.06,14.1,33,8.61,48.28-8.25,23-37.87,25.33-52.22,7.14-12.91-16.37-24.19-48.07-7.9-65.5C1318.09,339.16,1345.34,345.34,1353.56,366.41Z" transform="translate(-303.61 -2.41)"/><path class="cls-12" d="M1313.54,398c-3.42,4.59-6,8.06-6,8.06s-7-17.43-4.33-25.41c-3.42-6.77-10.3,3.2-12.9-10s8.64-27.33,12.9-30.26c.6,1,.57,4.73.57,4.73s16.84-15,40.81-12.9c-1.64,1.65-2.28,6.13-2.28,6.13s24.7,4.24,30.32,18.15a27.07,27.07,0,0,0-6.23-2.2,30.22,30.22,0,0,1,5,22.33c-2.08,13.54-3.06,28.5-2.81,34.41s-16,17.2-25.87,5.12S1313.54,398,1313.54,398Z" transform="translate(-303.61 -2.41)"/><path class="cls-19" d="M1323.85,393.43a23,23,0,0,1-1,14.78c-2.64,6.13-8.07,4.73-10.77-.71-2.43-4.89-4-14,.33-18.33S1322.22,387.53,1323.85,393.43Z" transform="translate(-303.61 -2.41)"/><path class="cls-10" d="M1366.65,631.18s-105.82,38.36-108.94,89.14c-5.75,93.52,32.51,167.56,32.51,167.56l35-3.75S1319,854,1314.38,769.31c-5.85-106.46,174.83,2.49,137.62-138.13Z" transform="translate(-303.61 -2.41)"/><path class="cls-22" d="M1366.65,631.18s-105.82,38.36-108.94,89.14c-5.75,93.52,32.51,167.56,32.51,167.56l35-3.75S1319,854,1314.38,769.31c-5.85-106.46,174.83,2.49,137.62-138.13Z" transform="translate(-303.61 -2.41)"/><path class="cls-10" d="M1280.51,875c-.17,0,5.57,15.55,5.57,15.55l43.77-4.28-2.2-14.16Z" transform="translate(-303.61 -2.41)"/><polygon class="cls-19" points="923.01 919.63 900.22 919.63 893.57 866.86 916.35 866.86 923.01 919.63"/><path class="cls-12" d="M1203.65,914.57l24.89,0a2,2,0,0,1,1.94,1.56l4.53,20.24a3.32,3.32,0,0,1-3.27,4.06c-9-.14-22-.65-33.23-.63-13.2,0-15.73.74-31.2.76-9.35,0-12-9.44-8-10.3,17.82-3.93,23.52-4.35,38.91-13.87A10.46,10.46,0,0,1,1203.65,914.57Z" transform="translate(-303.61 -2.41)"/><polygon class="cls-20" points="893.57 866.88 897.19 895.62 919.79 894.08 916.37 866.88 893.57 866.88"/><path class="cls-10" d="M1330.12,631.18s-173.4,15.38-171.53,102.46c2,90.58,35.78,151.67,35.78,151.67h33.86s-6.42-47-5.28-136.16c.34-26.72,54.32-35.54,107-38.66,45.54-2.69,88.17-28.65,105.86-70.7l3.62-8.61Z" transform="translate(-303.61 -2.41)"/><path class="cls-22" d="M1330.12,631.18s-173.4,15.38-171.53,102.46c2,90.58,35.78,151.67,35.78,151.67h33.86s-6.42-47-5.28-136.16c.34-26.72,54.32-35.54,107-38.66,45.54-2.69,88.17-28.65,105.86-70.7l3.62-8.61Z" transform="translate(-303.61 -2.41)"/><path class="cls-10" d="M1186.45,876.21c-.15,0,5.81,15.65,5.81,15.65l40.87-2.92-2.39-14.17Z" transform="translate(-303.61 -2.41)"/><path class="cls-12" d="M1375.62,533.3l-22,84.78a265,265,0,0,0-8.46,66.49V724c0,9.95,7.34,18,16.39,18h112.78c9.05,0,16.39-8.07,16.39-18V684.57a265,265,0,0,1,8.45-66.49l19.43-74.89c3-11.51-4.87-23-15.75-23H1391.38C1384.06,520.23,1377.63,525.56,1375.62,533.3Z" transform="translate(-303.61 -2.41)"/><path class="cls-12" d="M1235.36,701l3.69,21c1.94,11.06,11.67,20,21.73,20h125.37c10,0,16.63-9,14.69-20l-3.69-21c-2.21-12.58-13.28-22.78-24.72-22.78H1252.08C1240.63,678.17,1233.15,688.37,1235.36,701Z" transform="translate(-303.61 -2.41)"/><polygon class="cls-10" points="1094.6 760.7 1028.93 760.7 1022.52 739.59 1101.02 739.59 1094.6 760.7"/><rect class="cls-10" x="1050.03" y="760.7" width="23.47" height="156.97"/><polygon class="cls-23" points="1073.5 917.67 1050.03 917.67 1050.03 764.47 1073.5 766.86 1073.5 917.67"/><polygon class="cls-23" points="1067.78 917.67 1062.17 917.67 1062.17 765.71 1067.78 766.28 1067.78 917.67"/><path class="cls-10" d="M1419.33,944.34h-107.9a3,3,0,0,1-1.77-5.4l17.13-12.55a47.92,47.92,0,0,1,28.34-9.28h20.5a47.92,47.92,0,0,1,28.34,9.28l17.13,12.55A3,3,0,0,1,1419.33,944.34Z" transform="translate(-303.61 -2.41)"/></svg>