<svg xmlns="http://www.w3.org/2000/svg" xmlns:xlink="http://www.w3.org/1999/xlink" viewBox="0 0 160.28 146.74"><defs><style>.cls-1{fill:none;}.cls-2,.cls-45{fill:#a8aeaf;}.cls-3{isolation:isolate;}.cls-4{fill:#767585;}.cls-22,.cls-36,.cls-4,.cls-57{opacity:0.5;}.cls-24,.cls-38,.cls-4,.cls-40,.cls-45{mix-blend-mode:multiply;}.cls-5{fill:url(#linear-gradient);}.cls-6{fill:#474747;}.cls-7{fill:#262626;}.cls-8{clip-path:url(#clip-path);}.cls-9{fill:#7b8387;}.cls-10{fill:#c6ccce;}.cls-11{fill:#b2b7b9;}.cls-12{fill:#e6edef;}.cls-13{clip-path:url(#clip-path-2);}.cls-14{fill:url(#linear-gradient-2);}.cls-15,.cls-34,.cls-35{fill:#d0d6d6;}.cls-16{fill:url(#linear-gradient-3);}.cls-17{opacity:0.7;fill:url(#linear-gradient-4);}.cls-17,.cls-20,.cls-22,.cls-23,.cls-29,.cls-35,.cls-37,.cls-42,.cls-43,.cls-48,.cls-55,.cls-56,.cls-57{mix-blend-mode:screen;}.cls-18{fill:url(#linear-gradient-5);}.cls-19{fill:#232326;}.cls-20{fill:url(#linear-gradient-6);}.cls-21{fill:#c3cace;}.cls-22{fill:url(#linear-gradient-7);}.cls-23,.cls-37,.cls-42,.cls-43,.cls-48,.cls-51{opacity:0.3;}.cls-23{fill:url(#linear-gradient-8);}.cls-24{fill:#5f8e96;}.cls-24,.cls-25,.cls-38{opacity:0.6;}.cls-25{fill:url(#linear-gradient-9);}.cls-26{fill:#959ea2;}.cls-27{fill:#67d329;}.cls-28{fill:url(#linear-gradient-10);}.cls-29,.cls-32{fill:#f5f8f9;}.cls-29,.cls-35,.cls-55,.cls-56{opacity:0.2;}.cls-30{fill:url(#linear-gradient-11);}.cls-31{fill:url(#linear-gradient-12);}.cls-33,.cls-51,.cls-52{fill:#212121;}.cls-34{opacity:0.1;}.cls-36{fill:#bf2121;}.cls-37{fill:url(#linear-gradient-13);}.cls-39{fill:#0f0f0f;}.cls-41{fill:#383838;}.cls-42{fill:url(#linear-gradient-14);}.cls-43{fill:url(#linear-gradient-15);}.cls-44{fill:#7a7a7a;opacity:0.4;}.cls-45{opacity:0.9;}.cls-46{fill:#848687;}.cls-47{fill:url(#linear-gradient-16);}.cls-48{fill:url(#linear-gradient-17);}.cls-49{fill:#313131;}.cls-50{fill:#686868;}.cls-52{opacity:0.8;}.cls-53{fill:url(#linear-gradient-18);}.cls-54{fill:url(#linear-gradient-19);}.cls-55{fill:url(#linear-gradient-20);}.cls-56{fill:#95eaf9;}.cls-57{fill:#92f5ff;}</style><linearGradient id="linear-gradient" x1="389.41" y1="382.11" x2="366.61" y2="382.11" gradientUnits="userSpaceOnUse"><stop offset="0" stop-color="#212121"/><stop offset="1" stop-color="#0f0f0f"/></linearGradient><clipPath id="clip-path" transform="translate(-247.87 -245.8)"><path class="cls-1" d="M382,352.2l-9.46-5.49a2.68,2.68,0,0,1-1.11-2.45l9.46,5.5A2.65,2.65,0,0,0,382,352.2Z"/></clipPath><clipPath id="clip-path-2" transform="translate(-247.87 -245.8)"><path class="cls-2" d="M388.11,352l-27.26-15.84c-1.44-.84-1.16-6.7.87-7.88L389,344.12C387,345.29,386.67,351.16,388.11,352Z"/></clipPath><linearGradient id="linear-gradient-2" x1="372.83" y1="343.32" x2="376.58" y2="337.15" gradientUnits="userSpaceOnUse"><stop offset="0" stop-color="#889197"/><stop offset="0.58" stop-color="#b8bfc1"/><stop offset="1" stop-color="#d8dfe1"/></linearGradient><linearGradient id="linear-gradient-3" x1="400.14" y1="344.11" x2="397.04" y2="349.76" gradientUnits="userSpaceOnUse"><stop offset="0" stop-color="#333539"/><stop offset="1" stop-color="#1b1a1c"/></linearGradient><linearGradient id="linear-gradient-4" x1="400.14" y1="344.12" x2="398.25" y2="347.56" gradientUnits="userSpaceOnUse"><stop offset="0" stop-color="#474b52"/><stop offset="1" stop-color="#1b1a1c"/></linearGradient><linearGradient id="linear-gradient-5" x1="404.18" y1="345.55" x2="400.16" y2="352.88" xlink:href="#linear-gradient-4"/><linearGradient id="linear-gradient-6" x1="403.8" y1="345.3" x2="401.23" y2="349.97" xlink:href="#linear-gradient-4"/><linearGradient id="linear-gradient-7" x1="406.46" y1="348.31" x2="400.85" y2="356.54" gradientUnits="userSpaceOnUse"><stop offset="0" stop-color="#99f0ff"/><stop offset="0.6" stop-color="#75b3bd"/><stop offset="1" stop-color="#5f8e96"/></linearGradient><linearGradient id="linear-gradient-8" x1="405.56" y1="348.86" x2="403.71" y2="351.56" gradientTransform="matrix(1, -0.58, 0, 1, 0, 233.39)" xlink:href="#linear-gradient-7"/><linearGradient id="linear-gradient-9" x1="367.89" y1="337.75" x2="384.45" y2="323.09" gradientUnits="userSpaceOnUse"><stop offset="0" stop-color="#889197"/><stop offset="1" stop-color="#cdd4d7"/></linearGradient><linearGradient id="linear-gradient-10" x1="351.81" y1="299.43" x2="366.87" y2="275.85" gradientUnits="userSpaceOnUse"><stop offset="0" stop-color="#889197"/><stop offset="1" stop-color="#bec5c9"/></linearGradient><linearGradient id="linear-gradient-11" x1="340" y1="260.66" x2="363.09" y2="260.66" gradientUnits="userSpaceOnUse"><stop offset="0" stop-color="#889197"/><stop offset="1" stop-color="#b8bfc1"/></linearGradient><linearGradient id="linear-gradient-12" x1="360.5" y1="308.31" x2="370.02" y2="291.4" gradientUnits="userSpaceOnUse"><stop offset="0" stop-color="#a0a8ad"/><stop offset="0.01" stop-color="#9fa7ac"/><stop offset="0.15" stop-color="#8e979c"/><stop offset="0.26" stop-color="#889197"/><stop offset="0.4" stop-color="#aab3b7"/><stop offset="0.55" stop-color="#cbd2d6"/><stop offset="0.68" stop-color="#dfe6e8"/><stop offset="0.77" stop-color="#e6edef"/></linearGradient><linearGradient id="linear-gradient-13" x1="382.64" y1="299.13" x2="374.91" y2="315.89" gradientUnits="userSpaceOnUse"><stop offset="0" stop-color="#99f0ff"/><stop offset="0.09" stop-color="#91e3f1"/><stop offset="0.72" stop-color="#58868d"/><stop offset="1" stop-color="#416166"/></linearGradient><linearGradient id="linear-gradient-14" x1="85.14" y1="56.76" x2="30.15" y2="132.23" xlink:href="#linear-gradient-7"/><linearGradient id="linear-gradient-15" x1="45.85" y1="78.41" x2="1.48" y2="144.22" xlink:href="#linear-gradient-7"/><linearGradient id="linear-gradient-16" x1="343.58" y1="360.59" x2="346.31" y2="365.13" gradientUnits="userSpaceOnUse"><stop offset="0" stop-color="#474747"/><stop offset="0.65" stop-color="#212121"/></linearGradient><linearGradient id="linear-gradient-17" x1="87.73" y1="101.81" x2="76.97" y2="128.84" xlink:href="#linear-gradient-7"/><linearGradient id="linear-gradient-18" x1="348.93" y1="338.29" x2="347.12" y2="338.29" gradientUnits="userSpaceOnUse"><stop offset="0" stop-color="#b1b7b9"/><stop offset="0.84" stop-color="#a8aeaf"/></linearGradient><linearGradient id="linear-gradient-19" x1="349.09" y1="334.08" x2="347.31" y2="337.73" xlink:href="#linear-gradient-16"/><linearGradient id="linear-gradient-20" x1="101.03" y1="89.06" x2="100.37" y2="90.57" gradientUnits="userSpaceOnUse"><stop offset="0" stop-color="#a3a5a6"/><stop offset="1" stop-color="#848687"/></linearGradient></defs><title>camera</title><g class="cls-3"><g id="_0" data-name="0"><g id="_4" data-name="4"><path class="cls-4" d="M365.19,354.64,331.12,374.5l-9.09-.89-29.77,17.26a13,13,0,0,1-3.33-.31l-9.3-5.37a.28.28,0,0,1,0-.53l29-16.73a1,1,0,0,1,.9,0l4.79,2-7.86-4.89-13.52,9.51-7.06-.25-7.17-4.16-20.88,12.06a44.51,44.51,0,0,1-10-14.27L315,329.19l17.33,10-28.52,16.47,2.07.59,2.7,2.73,34.75-20.06Z" transform="translate(-247.87 -245.8)"/><path class="cls-4" d="M388.51,373.86c-3.82-2.21-9.29-2.85-14.08-2l-13.24-7.71a2,2,0,0,0-2,0l-16,9.24a1,1,0,0,0,0,1.77c5.78,3.45,26.53,15.66,26.53,15.66a1.06,1.06,0,0,1-.12-.1.76.76,0,0,0,.95,0l5.41-3.12,3.51,2a2.07,2.07,0,0,0,.87,1.8l1.15.66c.75.42,2.86,1.25,7-2.59,1.82-1.69-.22-3.29-1-3.73h0l-.1-.06c.4-.18.78-.38,1.15-.59C394,382.07,393.93,377,388.51,373.86Z" transform="translate(-247.87 -245.8)"/><g id="_8" data-name="8"><path class="cls-5" d="M393.57,378.16c0,.13,0,.25-.05.38s0,.2-.07.3a2,2,0,0,1-.11.35,2.52,2.52,0,0,1-.12.29,2.48,2.48,0,0,1-.17.37,5.09,5.09,0,0,1-.3.5l-.06.08a6,6,0,0,1-.39.49l-.08.09a5.81,5.81,0,0,1-.5.49l-.36.3-.33.26-.43.29-.45.29a11.69,11.69,0,0,1-1.12.56l-.33.15-.93.35-.35.12-.61.17-.46.13-.66.14-.45.09c-.44.08-.89.14-1.34.18l-.42,0-.81.05-.51,0H381l-.6,0-.55,0-.59-.07-.54-.07-.62-.11-.49-.1-.74-.18-.41-.11c-.43-.13-.86-.27-1.27-.43l-.6-.26-.3-.13q-.45-.21-.87-.45c-2.34-1.35-3.51-3.12-3.5-4.89v1.83c0,1.77,1.16,3.54,3.5,4.89.28.16.57.31.87.46l.31.13.53.23.07,0a12.62,12.62,0,0,0,1.27.43l.1,0,.3.07c.25.07.49.13.74.18l.2.05.29.05.63.11.25,0,.28,0,.59.06a2.85,2.85,0,0,0,.29,0l.26,0,.6,0,.3,0h1.41c.27,0,.53,0,.8-.06l.32,0h.1c.46-.05.91-.11,1.35-.19h.07l.38-.08.65-.14.47-.12.61-.18.13,0,.21-.08a9.38,9.38,0,0,0,.93-.35L389,385c.39-.18.76-.36,1.12-.57l.14-.08.31-.21c.14-.09.29-.18.42-.28l.33-.26.37-.3.07-.06.43-.43.08-.1.22-.26.16-.22.06-.08a4.65,4.65,0,0,0,.26-.41.36.36,0,0,0,0-.09c.07-.12.12-.25.18-.37s.07-.14.1-.22,0-.05,0-.07.07-.24.1-.36.05-.15.07-.23a.15.15,0,0,1,0-.07c0-.12,0-.25,0-.37a1.9,1.9,0,0,0,0-.25v-1.93C393.59,377.93,393.58,378.05,393.57,378.16Z" transform="translate(-247.87 -245.8)"/><path class="cls-6" d="M390.1,372.93c-4.65-2.69-12.16-2.68-16.77,0s-4.59,7,.06,9.71,12.15,2.68,16.76,0S394.74,375.61,390.1,372.93Z" transform="translate(-247.87 -245.8)"/><path class="cls-7" d="M386.45,377.55s-1.31-26.35-1.57-29.8a1.7,1.7,0,0,0-.91-1.23,4.71,4.71,0,0,0-.45-.22l-.14-.05-.16-.06a1.55,1.55,0,0,0-.23-.06l-.13,0-.06,0-.38-.07h-.18l-.17,0h-.73l-.21,0h-.19a4,4,0,0,0-.48.08h0l-.39.11-.18.06a3.69,3.69,0,0,0-.53.24l-.23.14-.06,0-.13.1h0a1.11,1.11,0,0,0-.22.21l0,0,0,0-.12.17v0h0a1.74,1.74,0,0,0-.1.19h0a.07.07,0,0,0,0,.05.5.5,0,0,0,0,.13v0s0,.09,0,.13c-.25,3.45-1.46,29.81-1.46,29.81v.17a.53.53,0,0,0,0,.13c0,.05,0,.1,0,.14l0,.13.05.14.05.12a1.09,1.09,0,0,0,.08.15l.06.11a.76.76,0,0,0,.11.14,1,1,0,0,0,.08.11l.14.15.09.09.19.16.09.07a2.7,2.7,0,0,0,.33.22,4.76,4.76,0,0,0,.45.24l.05,0,.08,0,.37.14.08,0,.05,0,.29.08.13,0h0l.22,0,.18,0h0l.18,0,.21,0h.05l.18,0,.19,0h1.41l.33,0h.16a5.72,5.72,0,0,0,.57-.11h.05l.06,0a7,7,0,0,0,.69-.21l.06,0a3.6,3.6,0,0,0,.66-.3l.31-.19,0,0a.18.18,0,0,0,.07,0l.11-.08,0,0,.08-.07.11-.1.13-.13h0l0,0,.08-.1.11-.14,0,0v0l.05-.09.07-.12s0,0,0,0v0a.36.36,0,0,0,0-.09.42.42,0,0,0,0-.1l0,0a.09.09,0,0,1,0,0s0-.06,0-.09a.29.29,0,0,0,0-.09v0a.2.2,0,0,1,0-.07.38.38,0,0,1,0-.1v-.06h0A1,1,0,0,0,386.45,377.55Z" transform="translate(-247.87 -245.8)"/><path class="cls-6" d="M384.19,342.48a5.6,5.6,0,0,0-5.06-.05c-1.43.8-1.48,2.11-.11,2.93a5.57,5.57,0,0,0,5.06.06C385.51,344.62,385.56,343.31,384.19,342.48Z" transform="translate(-247.87 -245.8)"/><g class="cls-3"><g class="cls-3"><g class="cls-8"><path class="cls-9" d="M382,352.2l-9.46-5.49a2.68,2.68,0,0,1-1.11-2.45l9.46,5.5A2.65,2.65,0,0,0,382,352.2Z" transform="translate(-247.87 -245.8)"/></g></g><polygon class="cls-10" points="133.03 103.96 123.57 98.46 135.83 91.38 145.29 96.88 133.03 103.96"/><path class="cls-11" d="M393.16,342.68a8.37,8.37,0,0,1-3.79,6.58l-4.65,2.68c-2.1,1.21-3.81.24-3.82-2.18Z" transform="translate(-247.87 -245.8)"/></g><g class="cls-3"><path class="cls-12" d="M375,321.08a.85.85,0,0,0-.9.06l-12.35,7.13L389,344.12,401.33,337a.85.85,0,0,1,.9-.07Z" transform="translate(-247.87 -245.8)"/><g class="cls-3"><path class="cls-2" d="M388.11,352l-27.26-15.84c-1.44-.84-1.16-6.7.87-7.88L389,344.12C387,345.29,386.67,351.16,388.11,352Z" transform="translate(-247.87 -245.8)"/><g class="cls-13"><path class="cls-14" d="M389,344.12l-27.26-15.85c-2,1.18-2.31,7-.87,7.88L388.11,352C386.67,351.16,387,345.29,389,344.12Z" transform="translate(-247.87 -245.8)"/></g></g></g><path class="cls-15" d="M401.33,337c2.39-1.38,2.41,6.43,0,7.81L389,351.93c-2.38,1.38-2.41-6.44,0-7.81Z" transform="translate(-247.87 -245.8)"/><path class="cls-16" d="M403.6,345.69h0L397.18,342a1.75,1.75,0,0,0-1.75.17,5.41,5.41,0,0,0-2.44,4.24,1.74,1.74,0,0,0,.72,1.57l6.42,3.73a1.07,1.07,0,0,1-.16-.14,1.58,1.58,0,0,0,1.9,0,5.39,5.39,0,0,0,2.45-4.23A1.72,1.72,0,0,0,403.6,345.69Zm-.78-.15H403A.86.86,0,0,0,402.82,345.54Z" transform="translate(-247.87 -245.8)"/><path class="cls-17" d="M403,350.28a5.12,5.12,0,0,0,1.17-3,1.55,1.55,0,0,0-.63-1.42l-.56-.33-.05.2h-.07v-.26l-5.75-3.34a1.12,1.12,0,0,0-.55-.14,2.1,2.1,0,0,0-1,.31,5.13,5.13,0,0,0-2,2.52Z" transform="translate(-247.87 -245.8)"/><path class="cls-18" d="M404.1,344.83a2.25,2.25,0,0,0-2.3.22,7.08,7.08,0,0,0-3.22,5.58,2.24,2.24,0,0,0,.94,2.07l3.11,1.81a2.27,2.27,0,0,1-.94-2.08,7.09,7.09,0,0,1,3.21-5.57,2.3,2.3,0,0,1,2.31-.23Z" transform="translate(-247.87 -245.8)"/><path class="cls-19" d="M404.9,346.86a7.09,7.09,0,0,0-3.21,5.57c0,2.05,1.45,2.89,3.24,1.85a7.1,7.1,0,0,0,3.22-5.58C408.14,346.65,406.69,345.83,404.9,346.86Z" transform="translate(-247.87 -245.8)"/><path class="cls-20" d="M404,345a1.48,1.48,0,0,0-.76-.19,2.71,2.71,0,0,0-1.36.42,6.86,6.86,0,0,0-2.81,3.67l2.79,1.61a7.29,7.29,0,0,1,2.94-3.79,3.23,3.23,0,0,1,1.36-.46Z" transform="translate(-247.87 -245.8)"/><path class="cls-21" d="M398.49,337a.23.23,0,0,0-.31-.08l-9.35,5.4a.22.22,0,0,0-.08.31.23.23,0,0,0,.19.11l.12,0,9.35-5.4A.22.22,0,0,0,398.49,337Z" transform="translate(-247.87 -245.8)"/><path class="cls-22" d="M404.91,347.7a5.47,5.47,0,0,0-2.49,4.31c0,1.59,1.12,2.23,2.5,1.43a5.48,5.48,0,0,0,2.5-4.32C407.41,347.54,406.29,346.9,404.91,347.7Z" transform="translate(-247.87 -245.8)"/><path class="cls-23" d="M406.49,348.29a2.72,2.72,0,0,1-1.44,1.83c-.8.46-1.44.38-1.44-.16a2.72,2.72,0,0,1,1.44-1.83C405.85,347.67,406.49,347.74,406.49,348.29Z" transform="translate(-247.87 -245.8)"/><path class="cls-24" d="M404.91,347.7a5.47,5.47,0,0,0-2.49,4.31,2,2,0,0,0,.43,1.37,2.05,2.05,0,0,1-.38-1.26,5.27,5.27,0,0,1,2.39-4.13c1.33-.77,2.41-.16,2.41,1.36a5.26,5.26,0,0,1-1.45,3.37,5.52,5.52,0,0,0,1.6-3.6C407.41,347.54,406.29,346.9,404.91,347.7Z" transform="translate(-247.87 -245.8)"/><path class="cls-25" d="M387.51,328.37,374.21,336a4.22,4.22,0,0,0-1.49,2.91c-.32,1.75-.16,3.57.37,4.31l-.7-.4a8.86,8.86,0,0,1-.12-4c.17-.93.63-2.6,1.72-3.23l13.06-7.54Zm-23.94,5.33a4.27,4.27,0,0,1,1.49-2.92l13.35-7.7-.46-.26-13.11,7.57c-1.1.63-1.55,2.29-1.72,3.23a9.08,9.08,0,0,0,.09,3.9l.67.39A7,7,0,0,1,363.57,333.7Z" transform="translate(-247.87 -245.8)"/><path class="cls-26" d="M390.17,346a.65.65,0,0,0,0-.51.66.66,0,0,0-.55-.43.68.68,0,0,0-.56,1,.68.68,0,0,0,.66.24A.63.63,0,0,0,390.17,346Z" transform="translate(-247.87 -245.8)"/><path class="cls-27" d="M389.83,346.3a.58.58,0,0,0,.36-.26.55.55,0,0,0,0-.44.5.5,0,0,0-1-.07A.52.52,0,0,0,389.83,346.3Z" transform="translate(-247.87 -245.8)"/></g><g id="_15" data-name="15"><path class="cls-28" d="M366.44,292.15h0l-15-8.74a3.14,3.14,0,0,0-3.16.31l-.44.28-.14.11-.29.21-.16.14-.25.22-.17.16-.23.23-.16.18-.21.24a1.56,1.56,0,0,0-.16.2,2.43,2.43,0,0,0-.2.25,1.91,1.91,0,0,0-.15.21,2.48,2.48,0,0,0-.19.26l-.14.22a.83.83,0,0,1-.08.12.3.3,0,0,0,0,.08,8.2,8.2,0,0,0-.43.76.2.2,0,0,1,0,.08q-.18.38-.33.75a.78.78,0,0,1-.05.14,7.3,7.3,0,0,0-.26.79c0,.05,0,.11-.05.16a7.78,7.78,0,0,0-.17.81h0c0,.12,0,.23,0,.34a1.11,1.11,0,0,0,0,.19,4.52,4.52,0,0,0,0,.52,4.59,4.59,0,0,0,.2,1.4,2.46,2.46,0,0,0,1.09,1.45l15,8.74-.14-.1a3.05,3.05,0,0,0,3.3-.21,9.76,9.76,0,0,0,4.42-7.67A3.11,3.11,0,0,0,366.44,292.15Z" transform="translate(-247.87 -245.8)"/><path class="cls-7" d="M354.27,264a1.37,1.37,0,0,0-.84-1.41,4.63,4.63,0,0,0-4.21,0,1.47,1.47,0,0,0-.86,1.21h0l-.05,22.34a1.46,1.46,0,0,0,.87,1.22,4.63,4.63,0,0,0,4.21,0,1.47,1.47,0,0,0,.86-1.21l.05-22.34A1.48,1.48,0,0,1,354.27,264Zm-5.69.45s0-.09-.07-.13,0,.09.07.13Z" transform="translate(-247.87 -245.8)"/><path class="cls-29" d="M351.75,267.62v20.23a3.87,3.87,0,0,0,1.28-.3v-20A9.07,9.07,0,0,1,351.75,267.62Z" transform="translate(-247.87 -245.8)"/><path class="cls-30" d="M362.89,256.22l-.08.12a2.61,2.61,0,0,1-.17.28,1.13,1.13,0,0,0-.1.13l-.21.27a.52.52,0,0,1-.1.11l-.13.15-.31.31a1.29,1.29,0,0,1-.17.16c-.11.1-.21.19-.33.28l-.19.16-.39.28-.19.13-.52.32a5.83,5.83,0,0,0-2-1.88,14,14,0,0,0-12.73-.13,6,6,0,0,0-2.18,2l-.1-.05a7.21,7.21,0,0,1-3-3.06l2.83,6.22,0,0a.3.3,0,0,0,0,.08,3.59,3.59,0,0,0,.21.38l.05.07c.09.14.2.27.31.41l.08.09q.17.18.36.36l0,0a5.81,5.81,0,0,0,.46.38l.12.08a5.07,5.07,0,0,0,.54.36,7,7,0,0,0,.66.36l.24.11.47.21.3.1.45.16.33.1c.15,0,.3.09.45.12l.35.08.45.1.38.06.45.07.38,0,.46,0,.39,0,.34,0h1.12l.75-.06.18,0,.26,0,.37-.05.15,0,.73-.14.17,0,.58-.15.18-.05c.23-.07.46-.14.68-.23l.11,0,.56-.23.17-.08c.21-.09.42-.2.62-.31s.32-.19.48-.29l.09-.07.12-.08.22-.16.15-.12.08-.06,0,0,.13-.12.13-.12.15-.15.09-.1.06-.06,0,0,.07-.08.15-.2,0,0a.18.18,0,0,0,.05-.07c.05-.06.09-.13.14-.2a.41.41,0,0,1,.05-.09l0-.08,0-.05.09-.17c.95-2.07,1.91-4.13,2.86-6.2C363,256,363,256.09,362.89,256.22Z" transform="translate(-247.87 -245.8)"/><path class="cls-15" d="M363.5,253c0,.05,0,.11,0,.17a1,1,0,0,1,0,.17l0,.17,0,.16c0,.06,0,.12,0,.18s0,.11-.05.16l-.06.17-.06.16a1.42,1.42,0,0,1-.08.18,1,1,0,0,1-.07.15l-.09.18a1.09,1.09,0,0,0-.08.15l-.13.2-.09.14-.15.2a1.47,1.47,0,0,1-.1.13c-.1.12-.19.24-.3.35v0c-.11.12-.23.23-.36.35a1,1,0,0,1-.15.13,1.29,1.29,0,0,1-.17.16l-.17.14-.19.14-.19.14-.2.14-.2.13a1.64,1.64,0,0,1-.22.14l-.36.21h0q-.39.23-.81.42l-.2.09-.86.35-.1,0-.73.24-.58.16-.5.13-.6.13-.58.11-.26,0c-.31,0-.61.09-.92.12h-.09c-.33,0-.67.06-1,.08h-1.41l-.55,0-.61,0-.55-.05-.6-.06-.51-.08-.65-.11-.85-.19h0c-.3-.07-.59-.15-.88-.24l-.26-.08c-.3-.1-.6-.2-.89-.32l-.64-.28-.32-.14c-.31-.15-.62-.32-.9-.49-2.27-1.35-3.39-3.1-3.38-4.84V254c0,1.74,1.12,3.49,3.38,4.84q.43.26.9.48l.33.15.63.28h0l.89.32.26.08.3.09.57.15h0l.64.15.21,0,.64.11a3.43,3.43,0,0,0,.34.06l.18,0,.6.07.38,0h.17a6.08,6.08,0,0,0,.61,0l.4,0h1.56c.33,0,.66,0,1-.07h.1q.47,0,.93-.12l.25,0,.24,0,.34-.07.61-.13.5-.13.58-.17.21-.06a3.82,3.82,0,0,0,.51-.18l.11,0,.86-.35.19-.1c.28-.13.56-.26.82-.41l.28-.16.08-.05.22-.14.2-.13.2-.14.19-.14.18-.15.18-.14.17-.15.12-.1,0,0,.35-.36h0c.1-.11.2-.23.29-.35a.08.08,0,0,0,0,0l.06-.09a1.3,1.3,0,0,0,.15-.2l.1-.14.12-.2.05-.08a.16.16,0,0,1,0-.07l.09-.18c0-.05,0-.1.07-.16s.05-.11.08-.17a1,1,0,0,1,0-.1s0,0,0-.06a1.54,1.54,0,0,0,.05-.17,1.09,1.09,0,0,0,.05-.17c0-.05,0-.11,0-.17a.52.52,0,0,1,0-.11.07.07,0,0,0,0-.05l0-.18s0-.11,0-.16,0-.12,0-.18,0-.07,0-.11V253Z" transform="translate(-247.87 -245.8)"/><path class="cls-12" d="M360.12,247.91c-4.6-2.74-12.16-2.82-16.89-.17s-4.84,7-.24,9.79,12.16,2.83,16.89.17S364.72,250.66,360.12,247.91Z" transform="translate(-247.87 -245.8)"/><path class="cls-31" d="M361.65,285.65a3.11,3.11,0,0,0-.41-.2l-.12,0a2.91,2.91,0,0,0-.39-.12h-.07a3.46,3.46,0,0,0-.48-.07h-.66a3.4,3.4,0,0,0-.53.08l-.13,0-.25.06-.12,0-.51.18-.23.1a7.82,7.82,0,0,0-.77.38l-.6.39-.17.12-.44.33-.17.13c-.18.15-.37.31-.55.48h0l-.07.07c-.16.16-.33.32-.48.48l-.18.2-.36.4-.18.23c-.12.14-.23.28-.34.43l-.16.21-.4.57-.06.1c-.15.23-.29.46-.43.69l-.12.21-.27.51c-.05.09-.09.18-.13.26s-.16.33-.23.49l-.12.26c-.08.19-.15.37-.22.56s-.05.13-.08.19c-.09.25-.17.5-.25.75a1,1,0,0,0,0,.17,5.69,5.69,0,0,0-.16.59l-.06.26c0,.17-.07.33-.1.5s0,.18,0,.27a4.43,4.43,0,0,0-.06.51l0,.24c0,.24,0,.49,0,.73a5.32,5.32,0,0,0,1.12,3.55,3.13,3.13,0,0,0,.8.66l22.23,12.92c-1.18-.69-1.91-2.15-1.92-4.22,0-.24,0-.48,0-.72l0-.24a4.43,4.43,0,0,1,.06-.51c0-.09,0-.18,0-.27s.06-.33.1-.5l.06-.26a5.69,5.69,0,0,1,.16-.59,1,1,0,0,1,0-.17c.08-.25.16-.5.25-.75,0-.06.05-.13.08-.2l.22-.55.12-.26c.07-.16.15-.33.23-.49l.13-.26.27-.51.12-.21c.14-.23.28-.46.43-.69l.06-.1.4-.57.16-.21c.11-.15.22-.29.34-.43l.18-.23.36-.4.18-.2.48-.48.07-.07c.19-.17.37-.33.57-.49l.16-.13a4.59,4.59,0,0,1,.44-.33l.17-.12q.3-.21.6-.39a7.82,7.82,0,0,1,.77-.38l.23-.1.51-.18a2.93,2.93,0,0,1,.37-.1l.13,0,.53-.09h.11a3,3,0,0,1,.42,0h.13a3.5,3.5,0,0,1,.48.06l.07,0,.39.11.12.05a2.67,2.67,0,0,1,.42.2Z" transform="translate(-247.87 -245.8)"/><path class="cls-32" d="M358.61,285.4a7.69,7.69,0,0,0-1.63.7,10.82,10.82,0,0,0-1.93,1.45l22.24,12.92a10.42,10.42,0,0,1,1.92-1.45,7.21,7.21,0,0,1,1.63-.7Z" transform="translate(-247.87 -245.8)"/><path class="cls-15" d="M379.21,299a14.45,14.45,0,0,0-6.54,11.33c0,4.17,3,5.85,6.59,3.76a14.44,14.44,0,0,0,6.54-11.33C385.79,298.61,382.84,296.93,379.21,299Z" transform="translate(-247.87 -245.8)"/><path class="cls-33" d="M379.22,300.15a12.25,12.25,0,0,0-5.56,9.64c0,3.54,2.51,5,5.59,3.19a12.24,12.24,0,0,0,5.57-9.64C384.81,299.8,382.3,298.37,379.22,300.15Z" transform="translate(-247.87 -245.8)"/><path class="cls-34" d="M379,302.34a7.86,7.86,0,0,0-3.57,6.18c0,2.27,1.62,3.19,3.59,2.05a7.87,7.87,0,0,0,3.57-6.19C382.6,302.11,381,301.19,379,302.34Z" transform="translate(-247.87 -245.8)"/><path class="cls-34" d="M379.18,304.2a4.29,4.29,0,0,0-1.94,3.36c0,1.23.88,1.73,2,1.11a4.3,4.3,0,0,0,1.94-3.36C381.13,304.07,380.26,303.58,379.18,304.2Z" transform="translate(-247.87 -245.8)"/><path class="cls-35" d="M378.87,305a1.55,1.55,0,0,0-.71,1.25c0,.45.32.64.72.41a1.58,1.58,0,0,0,.71-1.24C379.59,304.93,379.27,304.74,378.87,305Z" transform="translate(-247.87 -245.8)"/><path class="cls-36" d="M378.67,301.6a.67.67,0,0,1-.29.56c-.17.13-.33.08-.35-.11a.67.67,0,0,1,.29-.56C378.5,301.36,378.66,301.41,378.67,301.6Zm3.37-1.28c-.14,0-.34.1-.46.33s-.09.43.05.48.34-.1.45-.33S382.18,300.37,382,300.32Zm1.95,2.51c0-.18-.17-.23-.35-.11a.7.7,0,0,0-.29.57c0,.19.17.24.35.11A.69.69,0,0,0,384,302.83Zm-.95,4.72c.11-.23.09-.44-.05-.48s-.34.1-.45.32-.1.43,0,.48S382.92,307.77,383,307.55Zm-3.31,4.15a.7.7,0,0,0,.29-.57c0-.19-.17-.24-.35-.11a.69.69,0,0,0-.29.57C379.4,311.77,379.55,311.82,379.73,311.7ZM376,312.86c.14,0,.34-.1.46-.32s.09-.44-.05-.48-.34.1-.45.32S375.88,312.81,376,312.86Zm-1.95-2.51c0,.19.17.24.35.11a.69.69,0,0,0,.29-.57c0-.18-.17-.23-.35-.11A.7.7,0,0,0,374.06,310.35Zm1-4.71c-.12.22-.1.43,0,.48s.34-.1.45-.32.1-.44,0-.48S375.13,305.42,375,305.64Z" transform="translate(-247.87 -245.8)"/><path class="cls-37" d="M373.68,310.36c0-.18,0-.37,0-.57a9.17,9.17,0,0,1,.33-2.39q4-4,8-8a2.79,2.79,0,0,1,1.78.86Zm2.65,3.36,8.22-8.23a9.52,9.52,0,0,0,.27-2.15,5.32,5.32,0,0,0-.28-1.78L374.09,312A2.86,2.86,0,0,0,376.33,313.72Z" transform="translate(-247.87 -245.8)"/></g><g id="_4-2" data-name="4"><g id="_3" data-name="3"><path class="cls-33" d="M314,359.19l-6.42-3.71a4.62,4.62,0,0,0-4.19,0l-19.72,11.39a1.42,1.42,0,0,0-.86,1.27c0,.15,0,.68,0,.91a1.54,1.54,0,0,0,.86,1.28l6.42,3.7a4.62,4.62,0,0,0,4.19,0L314,362.64a1.41,1.41,0,0,0,.86-1.24c0-.16,0-.79,0-.94A1.42,1.42,0,0,0,314,359.19Z" transform="translate(-247.87 -245.8)"/><path class="cls-38" d="M294.34,360.73l-10.63,6.14a1.42,1.42,0,0,0-.86,1.27c0,.15,0,.68,0,.91a1.54,1.54,0,0,0,.86,1.28l6.42,3.7a4.62,4.62,0,0,0,4.19,0h0Z" transform="translate(-247.87 -245.8)"/><path class="cls-6" d="M314,361.6,294.32,373a4.62,4.62,0,0,1-4.19,0l-6.42-3.7a1.28,1.28,0,0,1,0-2.42l19.72-11.39a4.62,4.62,0,0,1,4.19,0l6.42,3.71A1.27,1.27,0,0,1,314,361.6Z" transform="translate(-247.87 -245.8)"/><polygon class="cls-33" points="54.5 116.11 47.48 120.16 47.48 103.76 54.5 99.7 54.5 116.11"/><polygon class="cls-38" points="54.5 106.78 47.48 110.83 47.48 103.76 54.5 99.7 54.5 106.78"/><polygon class="cls-39" points="47.48 120.16 45.19 118.83 45.19 102.43 47.48 103.75 47.48 120.16"/><polygon class="cls-40" points="45.19 115.94 45.19 102.43 47.48 103.75 47.48 110.78 45.19 115.94"/><polygon class="cls-33" points="89.51 85.16 51.24 107.41 51.24 71.15 89.51 48.91 89.51 85.16"/><polygon class="cls-6" points="89.5 48.91 51.24 71.15 49.77 70.3 88.03 48.06 89.5 48.91"/><path class="cls-39" d="M299.13,353.2l-2.43-1.4a4.37,4.37,0,0,1-2.17-3.79c.09-13.94.74-27.59,3.11-31.9l1.49.83Z" transform="translate(-247.87 -245.8)"/><polygon class="cls-41" points="88.26 81.34 52.7 102.11 52.7 71.75 88.26 50.98 88.26 81.34"/><polygon class="cls-42" points="52.7 102.11 86.8 82.19 86.8 53.63 52.7 73.55 52.7 102.11"/><polygon class="cls-33" points="50.8 107.67 12.54 129.91 12.54 93.66 50.8 71.41 50.8 107.67"/><polygon class="cls-6" points="50.79 71.42 12.53 93.66 11.06 92.81 49.32 70.57 50.79 71.42"/><path class="cls-39" d="M260.42,375.71l-2.43-1.4a4.35,4.35,0,0,1-2.17-3.79c.09-13.94.74-27.59,3.11-31.91l1.49.84Z" transform="translate(-247.87 -245.8)"/><polygon class="cls-41" points="49.55 103.85 13.99 124.61 13.99 94.25 49.55 73.49 49.55 103.85"/><polygon class="cls-43" points="13.99 124.61 48.09 104.7 48.09 76.14 13.99 96.06 13.99 124.61"/><path class="cls-44" d="M259.89,369.15v.4l-3.55-2.05v-.4Zm-3.53-3c0,.13,0,.26,0,.39l3.54,2v-.4Zm0-.93c0,.13,0,.26,0,.39l3.51,2v-.4Zm-.06,2.78c0,.13,0,.27,0,.4l3.57,2.06v-.4Zm3.56,3.4V371L256.31,369v.4Zm-3.34-10.78c0,.13,0,.26,0,.39l3.35,1.94v-.4Zm0,.92c0,.12,0,.25,0,.38l3.39,2v-.39Zm-.07,1.83c0,.13,0,.26,0,.39l3.46,2v-.39Zm0-.92c0,.13,0,.26,0,.39l3.43,2v-.39Zm-.06,1.85c0,.13,0,.26,0,.39l3.49,2v-.4Z" transform="translate(-247.87 -245.8)"/></g><path class="cls-33" d="M322,371.57l-9.54-5.51a1,1,0,0,0-.93,0l-29.77,17.19a.34.34,0,0,0-.2.25v1.18a.33.33,0,0,0,.2.27l9.54,5.51a1,1,0,0,0,.93,0L322,373.27a.31.31,0,0,0,.19-.27v-1.16A.34.34,0,0,0,322,371.57Z" transform="translate(-247.87 -245.8)"/><path class="cls-38" d="M292.16,377.22l-10.44,6a.34.34,0,0,0-.2.25v1.18a.33.33,0,0,0,.2.27l9.54,5.51a1.05,1.05,0,0,0,.9,0Z" transform="translate(-247.87 -245.8)"/><path class="cls-6" d="M322,372.11,292.19,389.3a1,1,0,0,1-.93,0l-9.54-5.51a.28.28,0,0,1,0-.54l29.77-17.19a1,1,0,0,1,.93,0l9.54,5.51A.28.28,0,0,1,322,372.11Z" transform="translate(-247.87 -245.8)"/><path class="cls-45" d="M285.65,383.69l-1.29.74a.45.45,0,0,1-.45,0l-1.09-.62a.14.14,0,0,1,0-.26l1.29-.75a.51.51,0,0,1,.45,0l1.09.63A.14.14,0,0,1,285.65,383.69Zm2.07-1.46-1.08-.63a.51.51,0,0,0-.45,0l-1.29.75a.14.14,0,0,0,0,.26l1.08.62a.47.47,0,0,0,.46,0l1.28-.74C287.85,382.42,287.85,382.3,287.72,382.23Zm2.08-1.2-1.08-.62a.45.45,0,0,0-.45,0l-1.29.74c-.13.07-.13.19,0,.26l1.08.62a.45.45,0,0,0,.45,0l1.29-.74C289.93,381.22,289.93,381.1,289.8,381Zm2.08-1.2-1.08-.62a.47.47,0,0,0-.46,0l-1.28.74c-.13.07-.13.19,0,.26l1.08.62a.45.45,0,0,0,.45,0l1.29-.74A.14.14,0,0,0,291.88,379.83Zm2.08-1.2-1.09-.62a.45.45,0,0,0-.45,0l-1.29.74a.14.14,0,0,0,0,.26l1.09.63a.51.51,0,0,0,.45,0l1.29-.75A.14.14,0,0,0,294,378.63Zm2.07-1.2-1.08-.62a.45.45,0,0,0-.45,0l-1.29.74a.14.14,0,0,0,0,.26l1.08.63a.53.53,0,0,0,.46,0l1.28-.75C296.16,377.62,296.16,377.5,296,377.43Zm2.08-1.2-1.08-.62a.45.45,0,0,0-.45,0l-1.29.74c-.13.07-.13.19,0,.26l1.08.63a.51.51,0,0,0,.45,0l1.29-.75C298.24,376.42,298.24,376.3,298.11,376.23Zm2.08-1.2-1.08-.62a.53.53,0,0,0-.46,0l-1.28.74c-.13.07-.13.19,0,.26l1.08.63a.51.51,0,0,0,.45,0l1.29-.75A.14.14,0,0,0,300.19,375Zm2.08-1.2-1.09-.62a.51.51,0,0,0-.45,0l-1.29.74a.14.14,0,0,0,0,.26l1.09.63a.51.51,0,0,0,.45,0l1.29-.75C302.39,374,302.39,373.91,302.27,373.83Zm2.74-1.58-1.08-.63a.51.51,0,0,0-.45,0l-2,1.13a.14.14,0,0,0,0,.26l1.08.63a.53.53,0,0,0,.46,0l1.95-1.13C305.14,372.44,305.14,372.32,305,372.25Zm8.92,1.43-1.08-.63a.51.51,0,0,0-.45,0l-1.29.74a.15.15,0,0,0,0,.27l1.08.62a.53.53,0,0,0,.46,0l1.28-.74C314.06,373.87,314.06,373.75,313.93,373.68Zm2.08-1.2-1.08-.63a.51.51,0,0,0-.45,0l-1.29.74c-.13.08-.13.19,0,.27l1.08.62a.51.51,0,0,0,.45,0l1.29-.74C316.14,372.67,316.14,372.55,316,372.48Zm2.08-1.2-1.08-.63a.53.53,0,0,0-.46,0l-1.28.75c-.13.07-.13.18,0,.26l1.08.62a.51.51,0,0,0,.45,0l1.29-.74A.14.14,0,0,0,318.09,371.28Zm-2.26,3.49-1.08-.62a.51.51,0,0,0-.45,0l-1.29.74a.14.14,0,0,0,0,.26l1.08.63a.53.53,0,0,0,.46,0l1.28-.75C316,375,316,374.84,315.83,374.77Zm2.08-1.2-1.08-.62a.51.51,0,0,0-.45,0l-1.29.74c-.13.07-.13.19,0,.26l1.08.63a.51.51,0,0,0,.45,0l1.29-.75C318,373.76,318,373.65,317.91,373.57Zm2.08-1.2-1.08-.62a.53.53,0,0,0-.46,0l-1.28.74c-.13.07-.13.19,0,.26l1.08.63a.51.51,0,0,0,.45,0l1.29-.74A.15.15,0,0,0,320,372.37Zm-31.74,11.76-1.08-.63a.51.51,0,0,0-.45,0l-2,1.13c-.13.07-.13.19,0,.26l1.08.63a.51.51,0,0,0,.45,0l2-1.13C288.38,384.32,288.38,384.2,288.25,384.13Zm2.08-1.2-1.08-.63a.53.53,0,0,0-.46,0l-1.28.75c-.13.07-.13.19,0,.26l1.08.62a.51.51,0,0,0,.45,0l1.29-.74A.14.14,0,0,0,290.33,382.93Zm2.08-1.2-1.09-.63a.51.51,0,0,0-.45,0l-1.29.75a.14.14,0,0,0,0,.26l1.09.62a.51.51,0,0,0,.45,0l1.29-.74A.14.14,0,0,0,292.41,381.73Zm2.07-1.2-1.08-.63a.51.51,0,0,0-.45,0l-1.29.75a.14.14,0,0,0,0,.26l1.08.62a.47.47,0,0,0,.46,0l1.28-.74C294.61,380.72,294.61,380.6,294.48,380.53Zm2.08-1.2-1.08-.63a.51.51,0,0,0-.45,0l-1.29.75c-.13.07-.13.19,0,.26l1.08.62a.45.45,0,0,0,.45,0l1.29-.74C296.69,379.52,296.69,379.4,296.56,379.33Zm2.08-1.2-1.08-.63a.53.53,0,0,0-.46,0l-1.28.75c-.13.07-.13.19,0,.26l1.08.62a.45.45,0,0,0,.45,0l1.29-.74A.14.14,0,0,0,298.64,378.13Zm2.08-1.2-1.09-.62a.45.45,0,0,0-.45,0l-1.29.74a.14.14,0,0,0,0,.26l1.09.62a.45.45,0,0,0,.45,0l1.29-.74A.14.14,0,0,0,300.72,376.93Zm2.07-1.2-1.08-.62a.45.45,0,0,0-.45,0l-1.29.74a.14.14,0,0,0,0,.26l1.08.63a.53.53,0,0,0,.46,0l1.28-.75C302.92,375.92,302.92,375.8,302.79,375.73Zm2.08-1.2-1.08-.62a.45.45,0,0,0-.45,0l-1.29.74c-.13.07-.13.19,0,.26l1.08.63a.51.51,0,0,0,.45,0l1.29-.75C305,374.72,305,374.6,304.87,374.53Zm2.08-1.2-1.08-.62a.47.47,0,0,0-.46,0l-1.28.74c-.13.07-.13.19,0,.26l1.08.63a.51.51,0,0,0,.45,0l1.29-.75A.14.14,0,0,0,307,373.33Zm-17.53,12.28-1.08-.63a.51.51,0,0,0-.45,0l-1.29.75c-.13.07-.13.19,0,.26l1.08.62a.45.45,0,0,0,.45,0l1.29-.74C289.55,385.8,289.55,385.68,289.42,385.61Zm2.08-1.2-1.08-.63a.53.53,0,0,0-.46,0l-1.28.75c-.13.07-.13.19,0,.26l1.08.62a.45.45,0,0,0,.45,0l1.29-.74A.14.14,0,0,0,291.5,384.41Zm2.08-1.2-1.09-.63a.51.51,0,0,0-.45,0l-1.29.75a.14.14,0,0,0,0,.26l1.09.62a.45.45,0,0,0,.45,0l1.29-.74A.14.14,0,0,0,293.58,383.21Zm2.07-1.2-1.08-.62a.45.45,0,0,0-.45,0l-1.29.74a.14.14,0,0,0,0,.26l1.08.62a.47.47,0,0,0,.46,0l1.28-.74C295.78,382.2,295.78,382.08,295.65,382Zm-2.46,5.77-1.08-.62a.53.53,0,0,0-.46,0l-1.28.74c-.13.07-.13.19,0,.26l1.08.63a.51.51,0,0,0,.45,0l1.29-.74A.15.15,0,0,0,293.19,387.78Zm2.08-1.2-1.09-.62a.51.51,0,0,0-.45,0l-1.29.74a.14.14,0,0,0,0,.26l1.09.63a.51.51,0,0,0,.45,0l1.29-.74A.15.15,0,0,0,295.27,386.58Zm2.07-1.19-1.08-.63a.51.51,0,0,0-.45,0l-1.29.74c-.12.08-.12.19,0,.26l1.08.63a.53.53,0,0,0,.46,0l1.28-.74C297.47,385.57,297.47,385.46,297.34,385.39Zm2.08-1.2-1.08-.63a.51.51,0,0,0-.45,0l-1.29.74c-.13.08-.13.19,0,.27l1.08.62a.51.51,0,0,0,.45,0l1.29-.74C299.55,384.37,299.55,384.26,299.42,384.19Zm13.12-7.58-1.08-.63a.51.51,0,0,0-.45,0l-2,1.13a.15.15,0,0,0,0,.27l1.09.62a.51.51,0,0,0,.45,0l2-1.13C312.67,376.8,312.67,376.68,312.54,376.61Zm-14.81,4.2-1.08-.62a.45.45,0,0,0-.45,0l-1.29.74c-.13.07-.13.19,0,.26l1.08.63a.51.51,0,0,0,.45,0l1.29-.75C297.86,381,297.86,380.88,297.73,380.81Zm2.08-1.2-1.08-.62a.47.47,0,0,0-.46,0l-1.28.74c-.13.07-.13.19,0,.26l1.08.63a.51.51,0,0,0,.45,0l1.29-.75A.14.14,0,0,0,299.81,379.61Zm2.08-1.2-1.09-.62a.45.45,0,0,0-.45,0l-1.29.74a.14.14,0,0,0,0,.26l1.09.63a.51.51,0,0,0,.45,0l1.29-.75A.14.14,0,0,0,301.89,378.41Zm2.07-1.2-1.08-.62a.51.51,0,0,0-.45,0l-1.29.74a.14.14,0,0,0,0,.26l1.08.63a.53.53,0,0,0,.46,0l1.28-.75C304.09,377.4,304.09,377.28,304,377.21ZM306,376l-1.08-.62a.51.51,0,0,0-.45,0l-1.29.74c-.13.07-.13.19,0,.26l1.08.63a.51.51,0,0,0,.45,0l1.29-.75C306.17,376.2,306.17,376.08,306,376Zm2.75-1.58-1.08-.63a.53.53,0,0,0-.46,0l-1.95,1.13c-.13.07-.13.19,0,.26l1.08.63a.51.51,0,0,0,.45,0l2-1.13A.14.14,0,0,0,308.79,374.43ZM292,386.31l-1.09-.63a.51.51,0,0,0-.45,0l-2,1.13a.14.14,0,0,0,0,.26l1.09.63a.51.51,0,0,0,.45,0l2-1.13A.14.14,0,0,0,292,386.31Zm2.07-1.2-1.08-.63a.51.51,0,0,0-.45,0l-1.29.75c-.12.07-.12.18,0,.26l1.08.62a.53.53,0,0,0,.46,0l1.28-.74C294.23,385.3,294.23,385.18,294.1,385.11Zm2.08-1.2-1.08-.63a.51.51,0,0,0-.45,0l-1.29.75c-.13.07-.13.19,0,.26l1.08.62a.51.51,0,0,0,.45,0l1.29-.74C296.31,384.1,296.31,384,296.18,383.91Zm2.08-1.2-1.08-.63a.53.53,0,0,0-.46,0l-1.28.75c-.13.07-.13.19,0,.26l1.08.62a.51.51,0,0,0,.45,0l1.29-.74A.14.14,0,0,0,298.26,382.71Zm2.08-1.2-1.09-.63a.51.51,0,0,0-.45,0l-1.29.75a.14.14,0,0,0,0,.26l1.09.62a.45.45,0,0,0,.45,0l1.29-.74A.14.14,0,0,0,300.34,381.51Zm9.5-3.32-1.08-.63a.51.51,0,0,0-.45,0l-9.62,5.56c-.13.07-.13.19,0,.26l1.08.63a.51.51,0,0,0,.45,0l9.62-5.56C310,378.38,310,378.26,309.84,378.19Zm-7.43,2.12-1.08-.63a.51.51,0,0,0-.45,0l-1.29.75a.14.14,0,0,0,0,.26l1.08.62a.47.47,0,0,0,.46,0l1.28-.74C302.54,380.5,302.54,380.38,302.41,380.31Zm2.08-1.2-1.08-.62a.45.45,0,0,0-.45,0l-1.29.74c-.13.07-.13.19,0,.26l1.08.62a.45.45,0,0,0,.45,0l1.29-.74C304.62,379.3,304.62,379.18,304.49,379.11Zm2.08-1.2-1.08-.62a.47.47,0,0,0-.46,0l-1.28.74c-.13.07-.13.19,0,.26l1.08.62a.45.45,0,0,0,.45,0l1.29-.74A.14.14,0,0,0,306.57,377.91Zm2.08-1.2-1.09-.62a.45.45,0,0,0-.45,0l-1.29.74a.14.14,0,0,0,0,.26l1.09.63a.51.51,0,0,0,.45,0l1.29-.75A.14.14,0,0,0,308.65,376.71Zm2.07-1.2-1.08-.62a.45.45,0,0,0-.45,0l-1.29.74a.14.14,0,0,0,0,.26l1.08.63a.53.53,0,0,0,.46,0l1.28-.75C310.85,375.7,310.85,375.58,310.72,375.51Zm-2.47-5.12-1.09-.62a.51.51,0,0,0-.45,0l-1.29.74a.14.14,0,0,0,0,.26l1.09.63a.51.51,0,0,0,.45,0l1.29-.75A.14.14,0,0,0,308.25,370.39Zm2.07-1.2-1.08-.62a.51.51,0,0,0-.45,0l-1.29.74a.14.14,0,0,0,0,.26l1.08.63a.53.53,0,0,0,.46,0l1.28-.75C310.45,369.38,310.45,369.27,310.32,369.19Zm2.08-1.2-1.08-.62a.51.51,0,0,0-.45,0l-1.29.74a.14.14,0,0,0,0,.26l1.08.63a.51.51,0,0,0,.45,0l1.29-.75C312.53,368.18,312.53,368.07,312.4,368Zm1.9,1.1-1.09-.63a.51.51,0,0,0-.45,0l-1.29.75c-.12.07-.12.18,0,.26l1.09.62a.51.51,0,0,0,.45,0l1.29-.74A.14.14,0,0,0,314.3,369.09Zm1.84,1-1.06-.61a.42.42,0,0,0-.38,0l-1.81,1a.36.36,0,0,1-.32,0l-1.42-.82a.64.64,0,0,0-.57,0l-3.26,1.88a.17.17,0,0,0,0,.32l2.85,1.65a.68.68,0,0,0,.56,0l5.41-3.13A.17.17,0,0,0,316.14,370.1Z" transform="translate(-247.87 -245.8)"/><path class="cls-46" d="M285.65,383.5l-1.29.74a.45.45,0,0,1-.45,0l-1.09-.62a.14.14,0,0,1,0-.26l1.29-.74a.45.45,0,0,1,.45,0l1.09.62A.14.14,0,0,1,285.65,383.5Zm2.07-1.46-1.08-.62a.45.45,0,0,0-.45,0l-1.29.74a.14.14,0,0,0,0,.26L286,383a.47.47,0,0,0,.46,0l1.28-.74C287.85,382.23,287.85,382.11,287.72,382Zm2.08-1.2-1.08-.62a.45.45,0,0,0-.45,0L287,381c-.13.07-.13.19,0,.26l1.08.63a.51.51,0,0,0,.45,0l1.29-.75C289.93,381,289.93,380.91,289.8,380.84Zm2.08-1.2L290.8,379a.47.47,0,0,0-.46,0l-1.28.74c-.13.07-.13.19,0,.26l1.08.63a.51.51,0,0,0,.45,0l1.29-.75A.14.14,0,0,0,291.88,379.64Zm2.08-1.2-1.09-.62a.45.45,0,0,0-.45,0l-1.29.74a.14.14,0,0,0,0,.26l1.09.63a.51.51,0,0,0,.45,0l1.29-.75A.14.14,0,0,0,294,378.44Zm2.07-1.2-1.08-.62a.51.51,0,0,0-.45,0l-1.29.74a.14.14,0,0,0,0,.26l1.08.63a.53.53,0,0,0,.46,0l1.28-.75C296.16,377.43,296.16,377.31,296,377.24Zm2.08-1.2-1.08-.62a.51.51,0,0,0-.45,0l-1.29.74c-.13.07-.13.19,0,.26l1.08.63a.51.51,0,0,0,.45,0l1.29-.75C298.24,376.23,298.24,376.11,298.11,376Zm2.08-1.2-1.08-.62a.53.53,0,0,0-.46,0l-1.28.74c-.13.07-.13.19,0,.26l1.08.63a.51.51,0,0,0,.45,0l1.29-.75C300.31,375,300.31,374.92,300.19,374.84Zm2.08-1.2-1.09-.62a.51.51,0,0,0-.45,0l-1.29.74a.14.14,0,0,0,0,.26l1.09.63a.51.51,0,0,0,.45,0l1.29-.74A.15.15,0,0,0,302.27,373.64Zm2.74-1.58-1.08-.63a.51.51,0,0,0-.45,0l-2,1.13a.14.14,0,0,0,0,.26l1.08.63a.53.53,0,0,0,.46,0l1.95-1.13C305.14,372.25,305.14,372.13,305,372.06Zm8.92,1.43-1.08-.63a.51.51,0,0,0-.45,0l-1.29.75c-.12.07-.12.18,0,.26l1.08.62a.53.53,0,0,0,.46,0l1.28-.74C314.06,373.68,314.06,373.56,313.93,373.49Zm2.08-1.2-1.08-.63a.51.51,0,0,0-.45,0l-1.29.75c-.13.07-.13.18,0,.26l1.08.62a.51.51,0,0,0,.45,0l1.29-.74C316.14,372.48,316.14,372.36,316,372.29Zm2.08-1.2-1.08-.63a.53.53,0,0,0-.46,0l-1.28.75c-.13.07-.13.19,0,.26l1.08.62a.51.51,0,0,0,.45,0l1.29-.74A.14.14,0,0,0,318.09,371.09Zm-2.26,3.49-1.08-.62a.51.51,0,0,0-.45,0l-1.29.74a.14.14,0,0,0,0,.26l1.08.63a.53.53,0,0,0,.46,0l1.28-.74C316,374.77,316,374.66,315.83,374.58Zm2.08-1.2-1.08-.62a.51.51,0,0,0-.45,0l-1.29.74c-.13.07-.13.19,0,.26l1.08.63a.51.51,0,0,0,.45,0l1.29-.74C318,373.57,318,373.46,317.91,373.38Zm2.08-1.2-1.08-.62a.53.53,0,0,0-.46,0l-1.28.74c-.13.08-.13.19,0,.26l1.08.63a.51.51,0,0,0,.45,0l1.29-.74A.15.15,0,0,0,320,372.18Zm-31.74,11.76-1.08-.63a.51.51,0,0,0-.45,0l-2,1.13c-.13.08-.13.19,0,.26l1.08.63a.51.51,0,0,0,.45,0l2-1.13C288.38,384.13,288.38,384,288.25,383.94Zm2.08-1.2-1.08-.63a.53.53,0,0,0-.46,0l-1.28.75c-.13.07-.13.19,0,.26l1.08.62a.45.45,0,0,0,.45,0l1.29-.74A.14.14,0,0,0,290.33,382.74Zm2.08-1.2-1.09-.63a.51.51,0,0,0-.45,0l-1.29.75a.14.14,0,0,0,0,.26l1.09.62a.45.45,0,0,0,.45,0l1.29-.74A.14.14,0,0,0,292.41,381.54Zm2.07-1.2-1.08-.63a.51.51,0,0,0-.45,0l-1.29.75a.14.14,0,0,0,0,.26l1.08.62a.47.47,0,0,0,.46,0l1.28-.74C294.61,380.53,294.61,380.41,294.48,380.34Zm2.08-1.2-1.08-.62a.45.45,0,0,0-.45,0l-1.29.74c-.13.07-.13.19,0,.26l1.08.62a.45.45,0,0,0,.45,0l1.29-.74C296.69,379.33,296.69,379.21,296.56,379.14Zm2.08-1.2-1.08-.62a.47.47,0,0,0-.46,0l-1.28.74c-.13.07-.13.19,0,.26l1.08.62a.45.45,0,0,0,.45,0l1.29-.74A.14.14,0,0,0,298.64,377.94Zm2.08-1.2-1.09-.62a.45.45,0,0,0-.45,0l-1.29.74a.14.14,0,0,0,0,.26l1.09.63a.51.51,0,0,0,.45,0l1.29-.75A.14.14,0,0,0,300.72,376.74Zm2.07-1.2-1.08-.62a.45.45,0,0,0-.45,0l-1.29.74a.14.14,0,0,0,0,.26l1.08.63a.53.53,0,0,0,.46,0l1.28-.75C302.92,375.73,302.92,375.61,302.79,375.54Zm2.08-1.2-1.08-.62a.51.51,0,0,0-.45,0l-1.29.74c-.13.07-.13.19,0,.26l1.08.63a.51.51,0,0,0,.45,0l1.29-.75C305,374.53,305,374.41,304.87,374.34Zm2.08-1.2-1.08-.62a.53.53,0,0,0-.46,0l-1.28.74c-.13.07-.13.19,0,.26l1.08.63a.51.51,0,0,0,.45,0l1.29-.75A.14.14,0,0,0,307,373.14Zm-17.53,12.28-1.08-.62a.45.45,0,0,0-.45,0l-1.29.74c-.13.07-.13.19,0,.26l1.08.62a.45.45,0,0,0,.45,0l1.29-.74C289.55,385.61,289.55,385.49,289.42,385.42Zm2.08-1.2-1.08-.62a.47.47,0,0,0-.46,0l-1.28.74c-.13.07-.13.19,0,.26l1.08.62a.45.45,0,0,0,.45,0l1.29-.74A.14.14,0,0,0,291.5,384.22Zm2.08-1.2-1.09-.62a.45.45,0,0,0-.45,0l-1.29.74a.14.14,0,0,0,0,.26l1.09.63a.51.51,0,0,0,.45,0l1.29-.75A.14.14,0,0,0,293.58,383Zm2.07-1.2-1.08-.62a.45.45,0,0,0-.45,0l-1.29.74a.14.14,0,0,0,0,.26l1.08.63a.53.53,0,0,0,.46,0l1.28-.75C295.78,382,295.78,381.89,295.65,381.82Zm-2.46,5.78-1.08-.63a.53.53,0,0,0-.46,0l-1.28.74c-.13.08-.13.19,0,.26l1.08.63a.51.51,0,0,0,.45,0l1.29-.74C293.31,387.78,293.31,387.67,293.19,387.6Zm2.08-1.2-1.09-.63a.51.51,0,0,0-.45,0l-1.29.74a.15.15,0,0,0,0,.27l1.09.62a.51.51,0,0,0,.45,0l1.29-.74C295.39,386.58,295.39,386.47,295.27,386.4Zm2.07-1.2-1.08-.63a.51.51,0,0,0-.45,0l-1.29.74a.15.15,0,0,0,0,.27l1.08.62a.53.53,0,0,0,.46,0l1.28-.74C297.47,385.39,297.47,385.27,297.34,385.2Zm2.08-1.2-1.08-.63a.51.51,0,0,0-.45,0l-1.29.74c-.13.08-.13.19,0,.27l1.08.62a.51.51,0,0,0,.45,0l1.29-.74C299.55,384.19,299.55,384.07,299.42,384Zm13.12-7.58-1.08-.63a.51.51,0,0,0-.45,0l-2,1.13a.15.15,0,0,0,0,.27l1.09.62a.51.51,0,0,0,.45,0l2-1.13C312.67,376.61,312.67,376.49,312.54,376.42Zm-14.81,4.2-1.08-.62a.45.45,0,0,0-.45,0l-1.29.74c-.13.07-.13.19,0,.26l1.08.63a.51.51,0,0,0,.45,0l1.29-.75C297.86,380.81,297.86,380.69,297.73,380.62Zm2.08-1.2-1.08-.62a.53.53,0,0,0-.46,0l-1.28.74c-.13.07-.13.19,0,.26l1.08.63a.51.51,0,0,0,.45,0l1.29-.75A.14.14,0,0,0,299.81,379.42Zm2.08-1.2-1.09-.62a.51.51,0,0,0-.45,0l-1.29.74a.14.14,0,0,0,0,.26l1.09.63a.51.51,0,0,0,.45,0l1.29-.75A.14.14,0,0,0,301.89,378.22ZM304,377l-1.08-.62a.51.51,0,0,0-.45,0l-1.29.74a.14.14,0,0,0,0,.26l1.08.63a.53.53,0,0,0,.46,0l1.28-.75C304.09,377.21,304.09,377.1,304,377Zm2.08-1.2L305,375.2a.51.51,0,0,0-.45,0l-1.29.74c-.13.07-.13.19,0,.26l1.08.63a.51.51,0,0,0,.45,0l1.29-.75C306.17,376,306.17,375.9,306,375.82Zm2.75-1.58-1.08-.63a.53.53,0,0,0-.46,0l-1.95,1.13c-.13.07-.13.19,0,.26l1.08.63a.51.51,0,0,0,.45,0l2-1.13A.14.14,0,0,0,308.79,374.24ZM292,386.12l-1.09-.63a.51.51,0,0,0-.45,0l-2,1.13c-.12.08-.12.19,0,.26l1.09.63a.51.51,0,0,0,.45,0l2-1.13A.14.14,0,0,0,292,386.12Zm2.07-1.2-1.08-.63a.51.51,0,0,0-.45,0l-1.29.75a.14.14,0,0,0,0,.26l1.08.62a.47.47,0,0,0,.46,0l1.28-.74C294.23,385.11,294.23,385,294.1,384.92Zm2.08-1.2-1.08-.63a.51.51,0,0,0-.45,0l-1.29.75c-.13.07-.13.19,0,.26l1.08.62a.45.45,0,0,0,.45,0l1.29-.74C296.31,383.91,296.31,383.79,296.18,383.72Zm2.08-1.2-1.08-.63a.53.53,0,0,0-.46,0l-1.28.75c-.13.07-.13.19,0,.26l1.08.62a.45.45,0,0,0,.45,0l1.29-.74A.14.14,0,0,0,298.26,382.52Zm2.08-1.2-1.09-.62a.45.45,0,0,0-.45,0l-1.29.74a.14.14,0,0,0,0,.26l1.09.62a.45.45,0,0,0,.45,0l1.29-.74A.14.14,0,0,0,300.34,381.32Zm9.5-3.32-1.08-.62a.45.45,0,0,0-.45,0l-9.62,5.55c-.13.07-.13.19,0,.26l1.08.63a.51.51,0,0,0,.45,0l9.62-5.56C310,378.19,310,378.07,309.84,378Zm-7.43,2.12-1.08-.62a.45.45,0,0,0-.45,0l-1.29.74a.14.14,0,0,0,0,.26l1.08.62a.47.47,0,0,0,.46,0l1.28-.74C302.54,380.31,302.54,380.19,302.41,380.12Zm2.08-1.2-1.08-.62a.45.45,0,0,0-.45,0l-1.29.74c-.13.07-.13.19,0,.26l1.08.63a.51.51,0,0,0,.45,0l1.29-.75C304.62,379.11,304.62,379,304.49,378.92Zm2.08-1.2-1.08-.62a.47.47,0,0,0-.46,0l-1.28.74c-.13.07-.13.19,0,.26l1.08.63a.51.51,0,0,0,.45,0l1.29-.75A.14.14,0,0,0,306.57,377.72Zm2.08-1.2-1.09-.62a.45.45,0,0,0-.45,0l-1.29.74a.14.14,0,0,0,0,.26l1.09.63a.51.51,0,0,0,.45,0l1.29-.75A.14.14,0,0,0,308.65,376.52Zm2.07-1.2-1.08-.62a.51.51,0,0,0-.45,0l-1.29.74a.14.14,0,0,0,0,.26l1.08.63a.53.53,0,0,0,.46,0l1.28-.75C310.85,375.51,310.85,375.39,310.72,375.32Zm-2.47-5.12-1.09-.62a.51.51,0,0,0-.45,0l-1.29.74a.14.14,0,0,0,0,.26l1.09.63a.51.51,0,0,0,.45,0l1.29-.74A.15.15,0,0,0,308.25,370.2Zm2.07-1.2-1.08-.62a.51.51,0,0,0-.45,0l-1.29.74a.14.14,0,0,0,0,.26l1.08.63a.53.53,0,0,0,.46,0l1.28-.74C310.45,369.19,310.45,369.08,310.32,369Zm2.08-1.2-1.08-.62a.51.51,0,0,0-.45,0l-1.29.74a.14.14,0,0,0,0,.26l1.08.63a.51.51,0,0,0,.45,0l1.29-.74C312.53,368,312.53,367.88,312.4,367.8Zm1.9,1.1-1.09-.63a.51.51,0,0,0-.45,0l-1.29.75a.14.14,0,0,0,0,.26l1.09.62a.45.45,0,0,0,.45,0l1.29-.74A.14.14,0,0,0,314.3,368.9Zm1.84,1-1.06-.61a.42.42,0,0,0-.38,0l-1.81,1a.36.36,0,0,1-.32,0l-1.42-.82a.64.64,0,0,0-.57,0l-3.26,1.88a.18.18,0,0,0,0,.33l2.85,1.64a.61.61,0,0,0,.56,0l5.41-3.13A.17.17,0,0,0,316.14,369.91Z" transform="translate(-247.87 -245.8)"/><path class="cls-47" d="M364.26,352.41c0-.08,0-.15,0-.23a4,4,0,0,0-.09-.48c0-.1-.05-.19-.07-.28s-.09-.3-.14-.45-.06-.19-.1-.29-.05-.15-.08-.22l-.09-.2-.16-.34c-.06-.13-.13-.26-.2-.39s-.12-.22-.19-.33a3.87,3.87,0,0,0-.24-.37l-.21-.31-.27-.35-.24-.29-.09-.1c-.13-.14-.26-.28-.4-.41l-7.21-6.83-7.55-7.16a1.13,1.13,0,0,0-.23-.17.53.53,0,0,0-.52,0l-10.39,6L312.5,352.71a.53.53,0,0,1,.52.05,1.13,1.13,0,0,1,.23.17l7.55,7.16,7.21,6.83c.17.16.33.34.49.51l.24.29.27.35.21.31a3.87,3.87,0,0,1,.24.37c.07.11.13.22.19.33s.14.26.2.39l.16.34c.06.14.12.28.17.42s.07.19.1.29.1.3.14.45.05.18.07.28a4,4,0,0,1,.09.48c0,.08,0,.15,0,.23a5.53,5.53,0,0,1,0,.69v1.68l33.64-19.55V353.1A5.53,5.53,0,0,0,364.26,352.41Z" transform="translate(-247.87 -245.8)"/><path class="cls-39" d="M328,366.92l-7.21-6.83-7.55-7.16a1.13,1.13,0,0,0-.23-.17c-.39-.22-.73-.06-.73.42l0,10.53,18.4,10.62v-1.68A8.49,8.49,0,0,0,328,366.92Z" transform="translate(-247.87 -245.8)"/><polygon class="cls-41" points="88.72 96.69 72.11 106.35 82.59 116.28 99.2 106.62 88.72 96.69"/><polygon class="cls-48" points="72.8 107.01 82.59 116.28 98.5 107.03 88.72 97.75 72.8 107.01"/><path class="cls-49" d="M339.74,343.31a1.1,1.1,0,0,1-.21.14,1,1,0,0,1-.35.07s-.08,0-.12,0a1.07,1.07,0,0,1-.25,0l-.19-.08-.18-.07a1.43,1.43,0,0,1-.32-.28.74.74,0,0,1-.16-.77l-.07.16a.74.74,0,0,0,.16.77,1.09,1.09,0,0,0,.33.27h0l.16.07c.07,0,.13.06.19.07h0a1.66,1.66,0,0,0,.22,0h.12a1,1,0,0,0,.35-.08.74.74,0,0,0,.21-.13h0a.46.46,0,0,0,.13-.18l.07-.15A.59.59,0,0,1,339.74,343.31Z" transform="translate(-247.87 -245.8)"/><path class="cls-46" d="M339.7,342.35a1.3,1.3,0,0,0-1.4-.39.66.66,0,0,0-.18,1.09,1.3,1.3,0,0,0,1.41.4A.66.66,0,0,0,339.7,342.35Z" transform="translate(-247.87 -245.8)"/><path class="cls-49" d="M342.41,345.8a.6.6,0,0,1-.21.14,1,1,0,0,1-.35.08h-.12a1.09,1.09,0,0,1-.25,0,1.46,1.46,0,0,1-.19-.07l-.17-.08a1.09,1.09,0,0,1-.33-.27.75.75,0,0,1-.16-.77l-.07.15a.74.74,0,0,0,.16.77,1.09,1.09,0,0,0,.33.27v0a1,1,0,0,0,.16.06l.19.08h0a.82.82,0,0,0,.22,0h.13a.94.94,0,0,0,.34-.07.85.85,0,0,0,.21-.14h0a.55.55,0,0,0,.13-.18l.07-.16A.59.59,0,0,1,342.41,345.8Z" transform="translate(-247.87 -245.8)"/><path class="cls-46" d="M342.37,344.85a1.26,1.26,0,0,0-1.4-.39.66.66,0,0,0-.18,1.09,1.27,1.27,0,0,0,1.41.39A.65.65,0,0,0,342.37,344.85Z" transform="translate(-247.87 -245.8)"/><path class="cls-49" d="M345.08,348.3a.85.85,0,0,1-.21.14.94.94,0,0,1-.34.07h-.13l-.25,0-.19-.08a.53.53,0,0,1-.17-.08,1.09,1.09,0,0,1-.33-.27.74.74,0,0,1-.16-.77l-.07.16a.73.73,0,0,0,.16.76,1.48,1.48,0,0,0,.33.28h0l.15.07a1.59,1.59,0,0,0,.2.07h0a1.66,1.66,0,0,0,.22,0h.13a1.05,1.05,0,0,0,.35-.08.48.48,0,0,0,.2-.14h0a.46.46,0,0,0,.13-.18l.07-.15A.55.55,0,0,1,345.08,348.3Z" transform="translate(-247.87 -245.8)"/><path class="cls-46" d="M345,347.34a1.29,1.29,0,0,0-1.4-.39.66.66,0,0,0-.18,1.09,1.3,1.3,0,0,0,1.41.4A.66.66,0,0,0,345,347.34Z" transform="translate(-247.87 -245.8)"/><path class="cls-49" d="M347.75,350.79a.46.46,0,0,1-.21.14.94.94,0,0,1-.34.08l-.13,0a.66.66,0,0,1-.24,0,1.59,1.59,0,0,1-.2-.07l-.17-.08a1.48,1.48,0,0,1-.33-.28.73.73,0,0,1-.16-.76l-.07.15a.74.74,0,0,0,.16.77,1.22,1.22,0,0,0,.33.27l0,0a.76.76,0,0,0,.16.06l.19.08h0a1.8,1.8,0,0,0,.22,0h.13a1,1,0,0,0,.35-.07.78.78,0,0,0,.2-.14h0a.68.68,0,0,0,.13-.18l.07-.16A.46.46,0,0,1,347.75,350.79Z" transform="translate(-247.87 -245.8)"/><path class="cls-46" d="M347.71,349.84a1.28,1.28,0,0,0-1.4-.4.66.66,0,0,0-.18,1.09,1.26,1.26,0,0,0,1.41.4A.65.65,0,0,0,347.71,349.84Z" transform="translate(-247.87 -245.8)"/><path class="cls-49" d="M320,354.56a.6.6,0,0,1-.2.14,1.05,1.05,0,0,1-.35.08l-.13,0-.24,0a1.07,1.07,0,0,1-.19-.07l-.18-.08a1.48,1.48,0,0,1-.33-.28.73.73,0,0,1-.16-.76l-.07.15a.74.74,0,0,0,.16.77,1.4,1.4,0,0,0,.33.27l0,0,.16.06.19.08h0l.22,0h.13a1.05,1.05,0,0,0,.35-.08.58.58,0,0,0,.2-.13h0a.94.94,0,0,0,.12-.18l.07-.16A.46.46,0,0,1,320,354.56Z" transform="translate(-247.87 -245.8)"/><path class="cls-46" d="M320,353.61a1.3,1.3,0,0,0-1.41-.4.66.66,0,0,0-.18,1.09,1.3,1.3,0,0,0,1.42.4A.66.66,0,0,0,320,353.61Z" transform="translate(-247.87 -245.8)"/><path class="cls-49" d="M322.66,357.06a.58.58,0,0,1-.2.13,1.05,1.05,0,0,1-.35.08H322l-.24,0-.19-.08a1.42,1.42,0,0,1-.18-.08,1.22,1.22,0,0,1-.33-.27.74.74,0,0,1-.16-.77l-.07.16a.73.73,0,0,0,.17.76,1.43,1.43,0,0,0,.32.28h0a1,1,0,0,0,.16.06l.19.08h0a.9.9,0,0,0,.23,0,.25.25,0,0,0,.12,0,.84.84,0,0,0,.35-.07.77.77,0,0,0,.21-.14h0a.57.57,0,0,0,.12-.18l.07-.15A.68.68,0,0,1,322.66,357.06Z" transform="translate(-247.87 -245.8)"/><path class="cls-46" d="M322.63,356.1a1.29,1.29,0,0,0-1.41-.39.66.66,0,0,0-.18,1.09,1.29,1.29,0,0,0,1.42.39A.66.66,0,0,0,322.63,356.1Z" transform="translate(-247.87 -245.8)"/><path class="cls-49" d="M325.34,359.55a.77.77,0,0,1-.21.14.84.84,0,0,1-.35.07.25.25,0,0,1-.12,0,1,1,0,0,1-.25,0l-.19-.08-.18-.07a1.43,1.43,0,0,1-.32-.28.71.71,0,0,1-.17-.76l-.06.15a.74.74,0,0,0,.16.77,1.18,1.18,0,0,0,.32.27h0l.16.07.19.08h0l.22,0h.12a1,1,0,0,0,.35-.08.74.74,0,0,0,.21-.13h0a.8.8,0,0,0,.13-.19l.06-.15A.57.57,0,0,1,325.34,359.55Z" transform="translate(-247.87 -245.8)"/><path class="cls-46" d="M325.3,358.6a1.29,1.29,0,0,0-1.4-.4.65.65,0,0,0-.18,1.09,1.28,1.28,0,0,0,1.41.4A.66.66,0,0,0,325.3,358.6Z" transform="translate(-247.87 -245.8)"/><path class="cls-49" d="M328,362.05a.74.74,0,0,1-.21.13,1,1,0,0,1-.35.08h-.12a2.13,2.13,0,0,1-.25,0l-.19-.08-.18-.08a1.18,1.18,0,0,1-.32-.27.74.74,0,0,1-.16-.77l-.07.15a.74.74,0,0,0,.16.77,1.29,1.29,0,0,0,.33.28h0a1,1,0,0,0,.16.06l.19.08h0a.82.82,0,0,0,.22,0s.08,0,.12,0a.78.78,0,0,0,.35-.07.77.77,0,0,0,.21-.14h0a.46.46,0,0,0,.13-.18l.07-.16A.8.8,0,0,1,328,362.05Z" transform="translate(-247.87 -245.8)"/><path class="cls-46" d="M328,361.09a1.28,1.28,0,0,0-1.4-.39.66.66,0,0,0-.18,1.09,1.27,1.27,0,0,0,1.41.39A.65.65,0,0,0,328,361.09Z" transform="translate(-247.87 -245.8)"/><path class="cls-49" d="M351,343a.87.87,0,0,0-.08.1l-.17.19a2.13,2.13,0,0,1-.22.18l-.1.08a2.42,2.42,0,0,1-.39.21,2.7,2.7,0,0,1-.57.18,1.2,1.2,0,0,1-.2,0l-.4.05h-.25a2.42,2.42,0,0,1-.38,0l-.27,0-.36-.08-.33-.1-.31-.11-.32-.16-.29-.15c-.14-.09-.26-.18-.39-.28l-.2-.14a6.14,6.14,0,0,1-.51-.51,2.93,2.93,0,0,1-.71-1.68,2.12,2.12,0,0,1,.16-.94h0l-.23.53a2.51,2.51,0,0,0,.55,2.61,3.51,3.51,0,0,0,.51.51l.19.14a3.6,3.6,0,0,0,.4.28l.06,0a1.67,1.67,0,0,0,.23.12l.32.15.31.11.33.11.08,0a2.74,2.74,0,0,0,.28.05l.27.05.38,0h.25a2.73,2.73,0,0,0,.4-.05l.2,0a3.47,3.47,0,0,0,.57-.19,2.42,2.42,0,0,0,.39-.21.87.87,0,0,0,.11-.09,1.12,1.12,0,0,0,.21-.17h0c.07-.06.11-.13.17-.19a.87.87,0,0,0,.08-.1,1.74,1.74,0,0,0,.18-.33l.24-.52A2.79,2.79,0,0,1,351,343Z" transform="translate(-247.87 -245.8)"/><path class="cls-50" d="M350.63,340a4.35,4.35,0,0,0-4.77-1.34c-1.49.65-1.75,2.31-.6,3.7a4.38,4.38,0,0,0,4.78,1.34C351.53,343.08,351.79,341.42,350.63,340Z" transform="translate(-247.87 -245.8)"/><path class="cls-51" d="M350.17,340.2a3.8,3.8,0,0,0-2.83-1.32,2.8,2.8,0,0,0-1.1.22,1.77,1.77,0,0,0-1.06,1.21,2.2,2.2,0,0,0,.55,1.91,3.79,3.79,0,0,0,2.82,1.31,2.68,2.68,0,0,0,1.11-.22,1.73,1.73,0,0,0,1.06-1.21A2.19,2.19,0,0,0,350.17,340.2Zm.35,1.85a1.6,1.6,0,0,1-.95,1.07,2.54,2.54,0,0,1-1,.2,3.61,3.61,0,0,1-2.66-1.24,2,2,0,0,1-.51-1.72,1.55,1.55,0,0,1,.94-1.06,2.45,2.45,0,0,1,1-.21,3.59,3.59,0,0,1,2.67,1.25A2,2,0,0,1,350.52,342.05Z" transform="translate(-247.87 -245.8)"/><path class="cls-49" d="M349.51,340.52a2.56,2.56,0,0,0-2.78-.78,1.3,1.3,0,0,0-.34,2.15,2.53,2.53,0,0,0,2.77.78A1.29,1.29,0,0,0,349.51,340.52Z" transform="translate(-247.87 -245.8)"/><path class="cls-52" d="M355,344l-6,3.47a.32.32,0,0,1-.43-.12.31.31,0,0,1,.11-.43l6-3.47a.31.31,0,0,1,.43.11A.32.32,0,0,1,355,344Zm1,.42a.32.32,0,0,0-.43-.12l-6,3.48a.31.31,0,0,0-.11.43.29.29,0,0,0,.27.16.29.29,0,0,0,.16,0l6-3.47A.32.32,0,0,0,356,344.43Zm.86.86a.32.32,0,0,0-.43-.12l-6,3.48a.32.32,0,0,0-.12.43.33.33,0,0,0,.28.16.32.32,0,0,0,.16,0l6-3.48A.31.31,0,0,0,356.85,345.29Zm.86.86a.32.32,0,0,0-.44-.12l-6,3.47a.32.32,0,0,0-.12.44.31.31,0,0,0,.44.11l6-3.47A.31.31,0,0,0,357.71,346.15Z" transform="translate(-247.87 -245.8)"/><path class="cls-53" d="M348.07,334.75a.85.85,0,0,0-.85.85V341a.85.85,0,0,0,1.7,0V335.6A.85.85,0,0,0,348.07,334.75Z" transform="translate(-247.87 -245.8)"/><path class="cls-54" d="M349.94,336.22a1.89,1.89,0,1,1-1.89-1.9A1.89,1.89,0,0,1,349.94,336.22Z" transform="translate(-247.87 -245.8)"/><circle class="cls-55" cx="100.67" cy="89.89" r="1.07"/></g><polygon class="cls-56" points="29.87 99.65 14.49 108.53 14.49 96.02 29.87 87.14 29.87 99.65"/><polygon class="cls-57" points="47.7 89.36 32.32 98.24 32.32 85.73 47.7 76.85 47.7 89.36"/><polygon class="cls-57" points="29.87 114.7 14.49 123.58 14.49 111.07 29.87 102.19 29.87 114.7"/><polygon class="cls-56" points="47.7 104.41 32.32 113.29 32.32 100.78 47.7 91.9 47.7 104.41"/><polygon class="cls-56" points="68.6 77.19 53.22 86.07 53.22 73.56 68.6 64.68 68.6 77.19"/><polygon class="cls-57" points="86.42 66.9 71.04 75.78 71.04 63.27 86.42 54.38 86.42 66.9"/><polygon class="cls-57" points="68.6 92.24 53.22 101.12 53.22 88.61 68.6 79.73 68.6 92.24"/><polygon class="cls-56" points="86.42 81.95 71.04 90.83 71.04 78.32 86.42 69.44 86.42 81.95"/></g></g></g></svg>