<svg id="Layer_1" data-name="Layer 1" xmlns="http://www.w3.org/2000/svg" xmlns:xlink="http://www.w3.org/1999/xlink" viewBox="0 0 436.52 368.54"><defs><style>.cls-1{fill:none;}.cls-2{clip-path:url(#clip-path);}.cls-3{fill:#29b24b;}</style><clipPath id="clip-path" transform="translate(0 -81.46)"><rect class="cls-1" width="1345" height="450"/></clipPath></defs><title>Footer</title><g class="cls-2"><path class="cls-3" d="M8.37,166l28.74-11.27a42.16,42.16,0,0,0,60.14,6.69A44.36,44.36,0,0,0,103.79,100a42.16,42.16,0,0,0-60.14-6.69,44.08,44.08,0,0,0-16,34.13V130L0,140.85v29.93A35.88,35.88,0,0,1,8.37,166m62-55.77h.06a17.18,17.18,0,1,1-15.66,23.39,17.82,17.82,0,0,1-1.1-6.09,17,17,0,0,1,16.7-17.3" transform="translate(0 -81.46)"/><path class="cls-3" d="M70.45,450l-1,0h1.8l-.8,0" transform="translate(0 -81.46)"/><path class="cls-3" d="M434.58,314.51A43.35,43.35,0,0,0,407,285.87V200.52c-.15-26.21-16-49.65-39.85-59.15L221.06,84c-19.41-7.56-41.15,2.4-48.55,22.24A39,39,0,0,0,170,119.81v61.78l-104.28,41A13.26,13.26,0,0,0,57.43,235V378.64l-54.09,38A11.27,11.27,0,0,1,0,418.24v26.69a37.08,37.08,0,0,0,18-6.52l54.15-38,106.33,41.75a12.61,12.61,0,0,0,9.32,0l106.3-41.75,54.15,38A11.93,11.93,0,0,1,353,450h26.13a38.84,38.84,0,0,0-2.51-15.65A38.26,38.26,0,0,0,363,416.64l-59.79-42a12.73,12.73,0,0,0-12-1.45l-108,42.44-99.7-39.16V244.11L183.12,205l108,42.44a12.92,12.92,0,0,0,16.8-7.64,13.39,13.39,0,0,0-7.48-17.17l-104.36-41v-61.9a11.7,11.7,0,0,1,11.63-11.77,11.39,11.39,0,0,1,4,.74L357.78,166a37.16,37.16,0,0,1,23.16,34.49v85.14c-22.61,7.17-35.25,31.71-28.23,54.81s31,36,53.64,28.85,35.24-31.71,28.23-54.81M393.81,344.6h0a17.18,17.18,0,1,1,16.82-17.18,17,17,0,0,1-16.82,17.18" transform="translate(0 -81.46)"/></g></svg>