<svg id="Layer_1" data-name="Layer 1" xmlns="http://www.w3.org/2000/svg" viewBox="0 0 162.3 39.08"><defs><style>.cls-1{fill:#bdbdbd;}.cls-2{fill:#28b24b;}</style></defs><title>logo</title><path class="cls-1" d="M55.32,32.09v8.64a3.17,3.17,0,0,0,3.16,3.16H76V42H58.48a1.24,1.24,0,0,1-1.24-1.23V32.09a1.25,1.25,0,0,1,1.24-1.24H76V28.93H58.48A3.16,3.16,0,0,0,55.32,32.09Z" transform="translate(-9.85 -16.88)"/><path class="cls-1" d="M98,35.45H82.35a1.24,1.24,0,0,1-1.24-1.23V28.93H79.19v5.29a3.17,3.17,0,0,0,3.16,3.17H98v3.35A1.24,1.24,0,0,1,96.74,42H79.19v1.93H96.74a3.18,3.18,0,0,0,3.16-3.17V28.93H98Z" transform="translate(-9.85 -16.88)"/><path class="cls-1" d="M144.91,28.93H130.52a3.15,3.15,0,0,0-3.16,3.16v11.8h1.92V37.37h13.51a1.23,1.23,0,0,1,.87.36l2.12,2.12a1.25,1.25,0,0,1,.36.88v3.16h2V40.73a3.13,3.13,0,0,0-.92-2.24l-1.28-1.27a3.17,3.17,0,0,0,2.2-3V32.09a3.16,3.16,0,0,0-3.17-3.16Zm1.22,5.29a1.23,1.23,0,0,1-1.23,1.24H129.28V32.09a1.24,1.24,0,0,1,1.24-1.24h14.39a1.24,1.24,0,0,1,1.22,1.24Z" transform="translate(-9.85 -16.88)"/><path class="cls-1" d="M169,28.93H154.6a3.16,3.16,0,0,0-3.16,3.16v11.8h1.92V37.37h16.87v6.52h1.92V32.09A3.16,3.16,0,0,0,169,28.93Zm-15.63,6.52V32.09a1.24,1.24,0,0,1,1.24-1.24H169a1.25,1.25,0,0,1,1.24,1.24v3.36Z" transform="translate(-9.85 -16.88)"/><path class="cls-1" d="M124,32.09a3.15,3.15,0,0,0-3.16-3.16h-14.4a3.16,3.16,0,0,0-3.16,3.16v8.64a3.17,3.17,0,0,0,3.16,3.16h14.39A3.16,3.16,0,0,0,124,40.73V38.64a3.17,3.17,0,0,0-2.19-3l1.27-1.27A3.14,3.14,0,0,0,124,32.09Zm-1.92,6.55v2.11A1.24,1.24,0,0,1,120.82,42h-14.4a1.24,1.24,0,0,1-1.24-1.23h0V37.37h15.63a1.23,1.23,0,0,1,1.25,1.23ZM121.7,33l-2.12,2.12a1.25,1.25,0,0,1-.88.36H105.19V32.09a1.24,1.24,0,0,1,1.23-1.24h14.39a1.23,1.23,0,0,1,1.24,1.24,1.25,1.25,0,0,1-.36.88Z" transform="translate(-9.85 -16.88)"/><path class="cls-2" d="M26.45,55.46a7.5,7.5,0,0,0,5.36,0l12.13-4.67a3.24,3.24,0,0,0,.67-5.68l-5.15-3.53a1.11,1.11,0,0,0-1-.13L29.13,45l-8.58-3.3V30.58l8.58-3.3,9.3,3.57a1.1,1.1,0,0,0,1.44-.64,1.12,1.12,0,0,0-.64-1.45h0l-9-3.45V20.1a1,1,0,0,1,1-1,1,1,0,0,1,.34.06L44.16,24a3.12,3.12,0,0,1,2,2.91v7.17a3.69,3.69,0,1,0,2.25,0V26.91a5.41,5.41,0,0,0-3.43-5L32.39,17.09a3.23,3.23,0,0,0-4.39,3v5.2l-9,3.45a1.12,1.12,0,0,0-.72,1v12.1l-4.66,3.2a1,1,0,0,1-1.38-.26.94.94,0,0,1-.18-.56V26.91a3.15,3.15,0,0,1,2-2.91l2.47-.95a3.68,3.68,0,1,0-.81-2.3V21l-2.47.95a5.39,5.39,0,0,0-3.43,5V44.28a3.23,3.23,0,0,0,5.06,2.66l4.66-3.2,9.16,3.52a1.1,1.1,0,0,0,.8,0l9.15-3.52,4.66,3.2a1,1,0,0,1-.21,1.75L31,53.35a5.24,5.24,0,0,1-3.74,0l-4.14-1.59v-.13a3.7,3.7,0,1,0-.77,2.24ZM47.26,39a1.45,1.45,0,1,1,1.45-1.44h0A1.44,1.44,0,0,1,47.26,39ZM19.43,19.3a1.45,1.45,0,1,1-1.35,2h0a1.71,1.71,0,0,1-.1-.51,1.46,1.46,0,0,1,1.44-1.46Zm0,33.79a1.45,1.45,0,1,1,1.45-1.45,1.38,1.38,0,0,1-.08.45h0a1.44,1.44,0,0,1-1.37,1Z" transform="translate(-9.85 -16.88)"/></svg>