<svg xmlns="http://www.w3.org/2000/svg" xmlns:xlink="http://www.w3.org/1999/xlink" viewBox="0 0 378.95 244.51"><defs><style>.cls-1{fill:none;}.cls-2{isolation:isolate;}.cls-3{opacity:0.67;}.cls-4{fill:#101010;}.cls-5{opacity:0.9;}.cls-6{fill:#0c0c0c;}.cls-7{mix-blend-mode:lighten;}.cls-29,.cls-30,.cls-8{fill:#b5b5b5;}.cls-9{fill:url(#_ÂÁ_Ï_ÌÌ_È_ËÂÌÚ_4);}.cls-10{fill:url(#_ÂÁ_Ï_ÌÌ_È_ËÂÌÚ_3);}.cls-11{fill:#fff;}.cls-12{fill:#454545;}.cls-13{fill:#b7b7b7;}.cls-14{fill:#9d9d9d;}.cls-15{fill:#212121;}.cls-16{fill:url(#_ÂÁ_Ï_ÌÌ_È_ËÂÌÚ_3-2);}.cls-17{fill:url(#_ÂÁ_Ï_ÌÌ_È_ËÂÌÚ_3-3);}.cls-18{fill:url(#_ÂÁ_Ï_ÌÌ_È_ËÂÌÚ_4-2);}.cls-19,.cls-28{fill:#494949;}.cls-20{fill:url(#_ÂÁ_Ï_ÌÌ_È_ËÂÌÚ_4-3);}.cls-21{fill:url(#_ÂÁ_Ï_ÌÌ_È_ËÂÌÚ_3-4);}.cls-22{fill:url(#_ÂÁ_Ï_ÌÌ_È_ËÂÌÚ_3-5);}.cls-23{fill:url(#_ÂÁ_Ï_ÌÌ_È_ËÂÌÚ_3-6);}.cls-24{fill:url(#_ÂÁ_Ï_ÌÌ_È_ËÂÌÚ_4-4);}.cls-25{fill:#c5c5c5;}.cls-26{fill:url(#_ÂÁ_Ï_ÌÌ_È_ËÂÌÚ_3-7);}.cls-27,.cls-28{opacity:0.51;}.cls-29{opacity:0.1;}.cls-30{opacity:0.4;}.cls-31{fill:url(#_ÂÁ_Ï_ÌÌ_È_ËÂÌÚ_3-8);}.cls-32{fill:#787878;}.cls-32,.cls-33,.cls-43{opacity:0.8;}.cls-33{fill:url(#_ÂÁ_Ï_ÌÌ_È_ËÂÌÚ_6);}.cls-34{fill:url(#_ÂÁ_Ï_ÌÌ_È_ËÂÌÚ_3-9);}.cls-35{fill:url(#_ÂÁ_Ï_ÌÌ_È_ËÂÌÚ_4-5);}.cls-36{fill:url(#_ÂÁ_Ï_ÌÌ_È_ËÂÌÚ_4-6);}.cls-37{fill:url(#_ÂÁ_Ï_ÌÌ_È_ËÂÌÚ_3-10);}.cls-38{fill:url(#_ÂÁ_Ï_ÌÌ_È_ËÂÌÚ_3-11);}.cls-39{opacity:0.11;}.cls-40{clip-path:url(#clip-path);}.cls-41{fill:url(#_ÂÁ_Ï_ÌÌ_È_ËÂÌÚ_3-12);}.cls-42{fill:url(#_ÂÁ_Ï_ÌÌ_È_ËÂÌÚ_3-13);}.cls-44{fill:url(#_ÂÁ_Ï_ÌÌ_È_ËÂÌÚ_5);}.cls-45{fill:url(#_ÂÁ_Ï_ÌÌ_È_ËÂÌÚ_3-14);}.cls-46{fill:url(#_ÂÁ_Ï_ÌÌ_È_ËÂÌÚ_4-7);}.cls-47{fill:url(#_ÂÁ_Ï_ÌÌ_È_ËÂÌÚ_4-8);}.cls-48{fill:url(#_ÂÁ_Ï_ÌÌ_È_ËÂÌÚ_3-15);}.cls-49{fill:url(#_ÂÁ_Ï_ÌÌ_È_ËÂÌÚ_3-16);}.cls-50{clip-path:url(#clip-path-2);}.cls-51{fill:url(#_ÂÁ_Ï_ÌÌ_È_ËÂÌÚ_3-17);}.cls-52{fill:url(#_ÂÁ_Ï_ÌÌ_È_ËÂÌÚ_3-18);}</style><linearGradient id="_ÂÁ_Ï_ÌÌ_È_ËÂÌÚ_4" x1="2976.3" y1="207.01" x2="3115.48" y2="207.01" gradientTransform="translate(-2743.73)" gradientUnits="userSpaceOnUse"><stop offset="0" stop-color="#6b6b6b"/><stop offset="0.19" stop-color="#707070"/><stop offset="0.41" stop-color="#7e7e7e"/><stop offset="0.66" stop-color="#969696"/><stop offset="0.91" stop-color="#b7b7b7"/><stop offset="1" stop-color="#c5c5c5"/></linearGradient><linearGradient id="_ÂÁ_Ï_ÌÌ_È_ËÂÌÚ_3" x1="3023.07" y1="202.37" x2="3162.33" y2="202.37" gradientTransform="translate(-2743.73)" gradientUnits="userSpaceOnUse"><stop offset="0" stop-color="#c5c5c5"/><stop offset="0.31" stop-color="#cacaca"/><stop offset="0.68" stop-color="#d8d8d8"/><stop offset="1" stop-color="#ebebeb"/></linearGradient><linearGradient id="_ÂÁ_Ï_ÌÌ_È_ËÂÌÚ_3-2" x1="3014.03" y1="191.65" x2="3049.68" y2="191.65" xlink:href="#_ÂÁ_Ï_ÌÌ_È_ËÂÌÚ_3"/><linearGradient id="_ÂÁ_Ï_ÌÌ_È_ËÂÌÚ_3-3" x1="3016.82" y1="185.23" x2="3115.37" y2="185.23" xlink:href="#_ÂÁ_Ï_ÌÌ_È_ËÂÌÚ_3"/><linearGradient id="_ÂÁ_Ï_ÌÌ_È_ËÂÌÚ_4-2" x1="3016.82" y1="210.5" x2="3033.74" y2="210.5" xlink:href="#_ÂÁ_Ï_ÌÌ_È_ËÂÌÚ_4"/><linearGradient id="_ÂÁ_Ï_ÌÌ_È_ËÂÌÚ_4-3" x1="172.29" y1="207.01" x2="311.48" y2="207.01" gradientTransform="matrix(-1, 0, 0, 1, 751.4, 0)" xlink:href="#_ÂÁ_Ï_ÌÌ_È_ËÂÌÚ_4"/><linearGradient id="_ÂÁ_Ï_ÌÌ_È_ËÂÌÚ_3-4" x1="219.06" y1="202.37" x2="358.32" y2="202.37" gradientTransform="matrix(-1, 0, 0, 1, 751.4, 0)" xlink:href="#_ÂÁ_Ï_ÌÌ_È_ËÂÌÚ_3"/><linearGradient id="_ÂÁ_Ï_ÌÌ_È_ËÂÌÚ_3-5" x1="210.02" y1="191.65" x2="245.67" y2="191.65" gradientTransform="matrix(-1, 0, 0, 1, 751.4, 0)" xlink:href="#_ÂÁ_Ï_ÌÌ_È_ËÂÌÚ_3"/><linearGradient id="_ÂÁ_Ï_ÌÌ_È_ËÂÌÚ_3-6" x1="212.81" y1="185.23" x2="311.36" y2="185.23" gradientTransform="matrix(-1, 0, 0, 1, 751.4, 0)" xlink:href="#_ÂÁ_Ï_ÌÌ_È_ËÂÌÚ_3"/><linearGradient id="_ÂÁ_Ï_ÌÌ_È_ËÂÌÚ_4-4" x1="212.81" y1="210.5" x2="229.73" y2="210.5" gradientTransform="matrix(-1, 0, 0, 1, 751.4, 0)" xlink:href="#_ÂÁ_Ï_ÌÌ_È_ËÂÌÚ_4"/><linearGradient id="_ÂÁ_Ï_ÌÌ_È_ËÂÌÚ_3-7" x1="229.28" y1="152.57" x2="229.28" y2="98.29" gradientTransform="matrix(1, 0, 0, 1, 0, 0)" xlink:href="#_ÂÁ_Ï_ÌÌ_È_ËÂÌÚ_3"/><linearGradient id="_ÂÁ_Ï_ÌÌ_È_ËÂÌÚ_3-8" x1="229.28" y1="107.56" x2="229.28" y2="53.28" gradientTransform="matrix(1, 0, 0, 1, 0, 0)" xlink:href="#_ÂÁ_Ï_ÌÌ_È_ËÂÌÚ_3"/><radialGradient id="_ÂÁ_Ï_ÌÌ_È_ËÂÌÚ_6" cx="214.84" cy="48.81" r="2.06" gradientUnits="userSpaceOnUse"><stop offset="0" stop-color="#787878"/><stop offset="0.44" stop-color="#707070"/><stop offset="1" stop-color="#6b6b6b"/></radialGradient><linearGradient id="_ÂÁ_Ï_ÌÌ_È_ËÂÌÚ_3-9" x1="2702.7" y1="261.73" x2="2803" y2="261.73" gradientTransform="translate(-2278.69)" xlink:href="#_ÂÁ_Ï_ÌÌ_È_ËÂÌÚ_3"/><linearGradient id="_ÂÁ_Ï_ÌÌ_È_ËÂÌÚ_4-5" x1="2702.7" y1="287.45" x2="2719.93" y2="287.45" gradientTransform="translate(-2278.69)" xlink:href="#_ÂÁ_Ï_ÌÌ_È_ËÂÌÚ_4"/><linearGradient id="_ÂÁ_Ï_ÌÌ_È_ËÂÌÚ_4-6" x1="2716.14" y1="316.37" x2="2857.79" y2="316.37" gradientTransform="translate(-2278.69)" xlink:href="#_ÂÁ_Ï_ÌÌ_È_ËÂÌÚ_4"/><linearGradient id="_ÂÁ_Ï_ÌÌ_È_ËÂÌÚ_3-10" x1="2763.73" y1="311.64" x2="2905.46" y2="311.64" gradientTransform="translate(-2278.69)" xlink:href="#_ÂÁ_Ï_ÌÌ_È_ËÂÌÚ_3"/><linearGradient id="_ÂÁ_Ï_ÌÌ_È_ËÂÌÚ_3-11" x1="2787.74" y1="319.69" x2="2824.01" y2="319.69" gradientTransform="translate(-2278.69)" xlink:href="#_ÂÁ_Ï_ÌÌ_È_ËÂÌÚ_3"/><clipPath id="clip-path" transform="translate(-216.28 -126.82)"><polygon id="SVGID" class="cls-1" points="512.2 207.41 428.52 255.72 438.9 316.9 522.53 268.62 512.2 207.41"/></clipPath><linearGradient id="_ÂÁ_Ï_ÌÌ_È_ËÂÌÚ_3-12" x1="2709.59" y1="280.23" x2="2851.31" y2="280.23" gradientTransform="translate(-2278.69)" xlink:href="#_ÂÁ_Ï_ÌÌ_È_ËÂÌÚ_3"/><linearGradient id="_ÂÁ_Ï_ÌÌ_È_ËÂÌÚ_3-13" x1="2700.26" y1="269.83" x2="2736.54" y2="269.83" gradientTransform="translate(-2278.69)" xlink:href="#_ÂÁ_Ï_ÌÌ_È_ËÂÌÚ_3"/><linearGradient id="_ÂÁ_Ï_ÌÌ_È_ËÂÌÚ_5" x1="237.16" y1="325.2" x2="370.67" y2="325.2" gradientUnits="userSpaceOnUse"><stop offset="0" stop-color="#6b6b6b"/><stop offset="0.56" stop-color="#707070"/><stop offset="1" stop-color="#787878"/></linearGradient><linearGradient id="_ÂÁ_Ï_ÌÌ_È_ËÂÌÚ_3-14" x1="-101.3" y1="261.73" x2="-1.01" y2="261.73" gradientTransform="matrix(-1, 0, 0, 1, 286.37, 0)" xlink:href="#_ÂÁ_Ï_ÌÌ_È_ËÂÌÚ_3"/><linearGradient id="_ÂÁ_Ï_ÌÌ_È_ËÂÌÚ_4-7" x1="-101.3" y1="287.45" x2="-84.08" y2="287.45" gradientTransform="matrix(-1, 0, 0, 1, 286.37, 0)" xlink:href="#_ÂÁ_Ï_ÌÌ_È_ËÂÌÚ_4"/><linearGradient id="_ÂÁ_Ï_ÌÌ_È_ËÂÌÚ_4-8" x1="-87.87" y1="316.37" x2="53.78" y2="316.37" gradientTransform="matrix(-1, 0, 0, 1, 286.37, 0)" xlink:href="#_ÂÁ_Ï_ÌÌ_È_ËÂÌÚ_4"/><linearGradient id="_ÂÁ_Ï_ÌÌ_È_ËÂÌÚ_3-15" x1="-40.27" y1="311.64" x2="101.45" y2="311.64" gradientTransform="matrix(-1, 0, 0, 1, 286.37, 0)" xlink:href="#_ÂÁ_Ï_ÌÌ_È_ËÂÌÚ_3"/><linearGradient id="_ÂÁ_Ï_ÌÌ_È_ËÂÌÚ_3-16" x1="-16.27" y1="319.69" x2="20" y2="319.69" gradientTransform="matrix(-1, 0, 0, 1, 286.37, 0)" xlink:href="#_ÂÁ_Ï_ÌÌ_È_ËÂÌÚ_3"/><clipPath id="clip-path-2" transform="translate(-216.28 -126.82)"><polygon id="SVGID-2" data-name="SVGID" class="cls-1" points="299.48 207.41 383.17 255.72 372.79 316.9 289.16 268.62 299.48 207.41"/></clipPath><linearGradient id="_ÂÁ_Ï_ÌÌ_È_ËÂÌÚ_3-17" x1="-94.42" y1="280.23" x2="47.3" y2="280.23" gradientTransform="matrix(-1, 0, 0, 1, 286.37, 0)" xlink:href="#_ÂÁ_Ï_ÌÌ_È_ËÂÌÚ_3"/><linearGradient id="_ÂÁ_Ï_ÌÌ_È_ËÂÌÚ_3-18" x1="-103.75" y1="269.83" x2="-67.47" y2="269.83" gradientTransform="matrix(-1, 0, 0, 1, 286.37, 0)" xlink:href="#_ÂÁ_Ï_ÌÌ_È_ËÂÌÚ_3"/></defs><title>main</title><g class="cls-2"><g id="_ÎÓÈ_1" data-name="—ÎÓÈ_1"><g class="cls-3"><polygon class="cls-4" points="189.48 244.51 0 135.11 189.47 25.72 378.95 135.11 189.48 244.51"/></g><g class="cls-3"><polygon class="cls-4" points="189.48 227.54 29.39 135.11 189.47 42.68 349.57 135.11 189.48 227.54"/></g><g class="cls-5"><polygon class="cls-6" points="189.48 207.83 63.53 135.11 189.48 62.4 315.43 135.11 189.48 207.83"/></g><g class="cls-7"><path class="cls-8" d="M285.53,254.18a7.76,7.76,0,0,1-3.85-1l-44.35-25.61a2.23,2.23,0,0,1,0-3.86l80.25-46.33a.43.43,0,0,1,.44,0l.38.21L366,205.05a2.22,2.22,0,0,1,0,3.86l-76.61,44.24A7.77,7.77,0,0,1,285.53,254.18Zm32.27-75.93-80,46.2a1.34,1.34,0,0,0,0,2.32l44.35,25.61a6.94,6.94,0,0,0,6.81,0l76.62-44.24a1.34,1.34,0,0,0,0-2.32Z" transform="translate(-216.28 -126.82)"/></g><path class="cls-9" d="M371.76,192.61,367.1,195l-46.68-26.95a3.4,3.4,0,0,0-3.05.13L236.85,214.7c-.77-.43-4.28-2.12-4.28-2.12l1.7,4.44h0a1,1,0,0,0,.48.53l49.16,28.38a3.4,3.4,0,0,0,3.05-.12l82.4-47.57a1.54,1.54,0,0,0,.69-.74h0Z" transform="translate(-216.28 -126.82)"/><path class="cls-10" d="M371,193.38l-84.45,48.75a3.48,3.48,0,0,1-3.12.13l-50.39-29.09c-.8-.47-.7-1.27.23-1.81l84.44-48.75a3.48,3.48,0,0,1,3.12-.13l50.39,29.09C372.06,192,372,192.84,371,193.38Z" transform="translate(-216.28 -126.82)"/><path class="cls-11" d="M371,192.89l-84.45,48.75a3.42,3.42,0,0,1-3.12.13l-50.39-29.09a1,1,0,0,1-.49-.54.86.86,0,0,0,.49,1l50.39,29.09a3.48,3.48,0,0,0,3.12-.13L371,193.38c.62-.36.86-.84.71-1.26A1.51,1.51,0,0,1,371,192.89Z" transform="translate(-216.28 -126.82)"/><path class="cls-12" d="M261.12,231.58v-.92c0-.09.06-.13.12-.09l3.27,1.88a.28.28,0,0,1,.12.23v.93c0,.09-.05.13-.12.09l-3.27-1.89A.31.31,0,0,1,261.12,231.58Z" transform="translate(-216.28 -126.82)"/><path class="cls-12" d="M266,234.4v-.92c0-.09.05-.13.12-.09l3.26,1.88a.28.28,0,0,1,.12.23v.93c0,.09-.05.13-.12.09l-3.26-1.89A.28.28,0,0,1,266,234.4Z" transform="translate(-216.28 -126.82)"/><path class="cls-13" d="M261.49,219.78l70.17-40.51a1.51,1.51,0,0,1,1.51,0l25,14.46a.54.54,0,0,1,0,.93L288,235.15a1.51,1.51,0,0,1-1.51,0l-25-14.44A.54.54,0,0,1,261.49,219.78Z" transform="translate(-216.28 -126.82)"/><path class="cls-14" d="M261.49,220.71l.25.15,69.92-40.37a1.51,1.51,0,0,1,1.51,0l24.74,14.31.25-.14a.54.54,0,0,0,0-.93l-25-14.46a1.51,1.51,0,0,0-1.51,0l-70.17,40.51A.54.54,0,0,0,261.49,220.71Z" transform="translate(-216.28 -126.82)"/><polygon class="cls-15" points="118.78 56.11 54.14 93.42 50.94 92.14 116.07 54.54 118.78 56.11"/><polygon class="cls-15" points="125.42 59.94 68.25 92.95 65.54 91.39 122.71 58.38 125.42 59.94"/><polygon class="cls-15" points="129.75 62.44 62.44 101.3 59.73 99.74 127.04 60.88 129.75 62.44"/><polygon class="cls-15" points="134.08 64.94 66.76 103.8 64.05 102.24 131.37 63.37 134.08 64.94"/><polygon class="cls-15" points="138.4 67.44 71.09 106.3 68.38 104.74 135.69 65.87 138.4 67.44"/><polygon class="cls-15" points="54.14 93.42 51.43 94.99 48.72 93.42 51.43 91.86 54.14 93.42"/><polygon class="cls-15" points="71.54 91.05 58.07 98.83 55.36 97.26 68.92 89.43 71.54 91.05"/><path class="cls-16" d="M286.47,201.62l18.92-10.92a.82.82,0,0,0,0-1.55l-12.94-7.47a3,3,0,0,0-2.67,0l-18.92,10.93c-.74.43-.74,1.12,0,1.54l12.93,7.47A3,3,0,0,0,286.47,201.62Z" transform="translate(-216.28 -126.82)"/><path class="cls-14" d="M270.86,193.24l18.92-10.92a2.92,2.92,0,0,1,2.67,0l12.94,7.47a1.2,1.2,0,0,1,.47.45c.19-.37,0-.79-.47-1.09l-12.94-7.47a3,3,0,0,0-2.67,0l-18.92,10.93c-.52.29-.66.71-.47,1.09A1.16,1.16,0,0,1,270.86,193.24Z" transform="translate(-216.28 -126.82)"/><path class="cls-17" d="M371.62,191.36,361,128l.86-.36-1.29-.74h0a.92.92,0,0,0-1,.07l-85.31,49.25a2.38,2.38,0,0,0-1.1,2.17l10.76,63.83a.79.79,0,0,0,.45.65h0l1.27.73.21-1.18-.07,0,84.79-48.95A2.42,2.42,0,0,0,371.62,191.36Z" transform="translate(-216.28 -126.82)"/><path class="cls-18" d="M274.69,178l-1.4-.62a1.87,1.87,0,0,0-.18,1.06l10.76,63.83a.79.79,0,0,0,.45.65h0l1.27.73.21-1.18-.07,0L290,240Z" transform="translate(-216.28 -126.82)"/><path class="cls-19" d="M371.85,194.3l-85.31,49.25c-.66.38-1.22.16-1.34-.52l-10.75-63.84a2.38,2.38,0,0,1,1.1-2.16l85.31-49.26c.66-.38,1.22-.16,1.34.53L373,192.13A2.43,2.43,0,0,1,371.85,194.3Z" transform="translate(-216.28 -126.82)"/><g class="cls-7"><path class="cls-8" d="M526.15,254.18a7.71,7.71,0,0,1-3.85-1l-76.62-44.24a2.23,2.23,0,0,1,0-3.86l48-27.7a.45.45,0,0,1,.45,0l80.24,46.33a2.22,2.22,0,0,1,0,3.86L530,253.15A7.71,7.71,0,0,1,526.15,254.18Zm-32.27-75.93-.15.09-47.61,27.48a1.35,1.35,0,0,0,0,2.32l76.62,44.24h0a7,7,0,0,0,6.82,0l44.35-25.61a1.34,1.34,0,0,0,0-2.32Z" transform="translate(-216.28 -126.82)"/></g><path class="cls-20" d="M439.93,192.61l4.65,2.43,46.69-26.95a3.38,3.38,0,0,1,3,.13l80.52,46.48c.77-.43,4.28-2.12,4.28-2.12l-1.7,4.44h0a1,1,0,0,1-.47.53l-49.17,28.38a3.4,3.4,0,0,1-3-.12l-82.39-47.57a1.49,1.49,0,0,1-.69-.74h0Z" transform="translate(-216.28 -126.82)"/><path class="cls-21" d="M440.65,193.38l84.44,48.75a3.48,3.48,0,0,0,3.12.13l50.39-29.09c.8-.47.7-1.27-.22-1.81l-84.44-48.75a3.5,3.5,0,0,0-3.13-.13l-50.39,29.09C439.62,192,439.72,192.84,440.65,193.38Z" transform="translate(-216.28 -126.82)"/><path class="cls-11" d="M440.65,192.89l84.44,48.75a3.42,3.42,0,0,0,3.12.13l50.39-29.09a1,1,0,0,0,.49-.54.84.84,0,0,1-.49,1l-50.39,29.09a3.48,3.48,0,0,1-3.12-.13l-84.44-48.75c-.62-.36-.86-.84-.72-1.26A1.53,1.53,0,0,0,440.65,192.89Z" transform="translate(-216.28 -126.82)"/><path class="cls-12" d="M550.56,231.58v-.92c0-.09,0-.13-.12-.09l-3.27,1.88a.31.31,0,0,0-.12.23v.93c0,.09.06.13.12.09l3.27-1.89A.28.28,0,0,0,550.56,231.58Z" transform="translate(-216.28 -126.82)"/><path class="cls-12" d="M545.68,234.4v-.92c0-.09-.06-.13-.12-.09l-3.27,1.88a.28.28,0,0,0-.12.23v.93c0,.09.05.13.12.09l3.27-1.89A.31.31,0,0,0,545.68,234.4Z" transform="translate(-216.28 -126.82)"/><path class="cls-13" d="M550.19,219.78,480,179.27a1.51,1.51,0,0,0-1.51,0l-25,14.46a.54.54,0,0,0,0,.93l70.14,40.49a1.51,1.51,0,0,0,1.51,0l25-14.44A.54.54,0,0,0,550.19,219.78Z" transform="translate(-216.28 -126.82)"/><path class="cls-14" d="M550.19,220.71l-.25.15L480,180.49a1.51,1.51,0,0,0-1.51,0L453.77,194.8l-.25-.14a.54.54,0,0,1,0-.93l25-14.46a1.51,1.51,0,0,1,1.51,0l70.17,40.51A.54.54,0,0,1,550.19,220.71Z" transform="translate(-216.28 -126.82)"/><polygon class="cls-15" points="260.34 56.11 324.98 93.42 328.18 92.14 263.05 54.54 260.34 56.11"/><polygon class="cls-15" points="253.7 59.94 310.87 92.95 313.58 91.39 256.41 58.38 253.7 59.94"/><polygon class="cls-15" points="249.37 62.44 316.68 101.3 319.39 99.74 252.08 60.88 249.37 62.44"/><polygon class="cls-15" points="245.04 64.94 312.36 103.8 315.07 102.24 247.75 63.37 245.04 64.94"/><polygon class="cls-15" points="240.71 67.44 308.03 106.3 310.74 104.74 243.42 65.87 240.71 67.44"/><polygon class="cls-15" points="324.98 93.42 327.69 94.99 330.4 93.42 327.69 91.86 324.98 93.42"/><polygon class="cls-15" points="307.58 91.05 321.04 98.83 323.75 97.26 310.19 89.43 307.58 91.05"/><path class="cls-22" d="M525.21,201.62,506.29,190.7a.82.82,0,0,1,0-1.55l12.94-7.47a3,3,0,0,1,2.68,0l18.92,10.93c.74.43.74,1.12,0,1.54l-12.94,7.47A3,3,0,0,1,525.21,201.62Z" transform="translate(-216.28 -126.82)"/><path class="cls-14" d="M540.83,193.24l-18.92-10.92a3,3,0,0,0-2.68,0l-12.94,7.47a1.11,1.11,0,0,0-.46.45c-.2-.37-.05-.79.46-1.09l12.94-7.47a3,3,0,0,1,2.68,0l18.92,10.93c.51.29.66.71.46,1.09A1.13,1.13,0,0,0,540.83,193.24Z" transform="translate(-216.28 -126.82)"/><path class="cls-23" d="M440.06,191.36,450.74,128l-.86-.36,1.29-.74h0a.91.91,0,0,1,1,.07l85.31,49.25a2.41,2.41,0,0,1,1.11,2.17l-10.76,63.83a.82.82,0,0,1-.45.65h0l-1.26.73-.22-1.18.07,0-84.79-48.95A2.42,2.42,0,0,1,440.06,191.36Z" transform="translate(-216.28 -126.82)"/><path class="cls-24" d="M537,178l1.41-.62a2.05,2.05,0,0,1,.18,1.06l-10.76,63.83a.82.82,0,0,1-.45.65h0l-1.26.73-.22-1.18.07,0L521.67,240Z" transform="translate(-216.28 -126.82)"/><path class="cls-19" d="M439.83,194.3l85.31,49.25c.66.38,1.22.16,1.34-.52l10.76-63.84a2.41,2.41,0,0,0-1.11-2.16l-85.31-49.26c-.66-.38-1.22-.16-1.34.53l-10.76,63.83A2.43,2.43,0,0,0,439.83,194.3Z" transform="translate(-216.28 -126.82)"/><polygon class="cls-25" points="189.56 142.63 110.13 96.77 189.56 50.91 268.99 96.77 189.56 142.63"/><polygon class="cls-19" points="189.56 130.1 131.82 96.77 189.56 63.43 247.3 96.77 189.56 130.1"/><polygon class="cls-11" points="189.56 65.69 245.35 97.9 247.3 96.77 189.56 63.43 131.82 96.77 133.77 97.89 189.56 65.69"/><polygon class="cls-26" points="268.99 96.77 268.99 122.76 189.56 168.62 189.56 142.63 268.99 96.77"/><polygon class="cls-15" points="110.13 96.77 110.13 122.76 189.56 168.62 189.56 142.63 110.13 96.77"/><g class="cls-27"><polygon class="cls-19" points="115.51 108.44 115.51 116.63 184.18 156.28 184.18 148.09 115.51 108.44"/></g><polygon class="cls-11" points="189.56 141.14 111.42 96.02 110.13 96.77 189.56 142.63 268.99 96.77 267.7 96.02 189.56 141.14"/><polygon class="cls-19" points="257.08 114.98 257.08 119.64 201.47 151.74 201.47 147.09 257.08 114.98"/><polygon class="cls-28" points="110.13 96.77 110.13 122.76 189.56 168.62 189.56 142.63 110.13 96.77"/><polygon class="cls-8" points="166.37 141.25 151.99 132.94 151.99 134.66 166.37 142.96 166.37 141.25"/><polygon class="cls-8" points="149.91 131.76 146.02 129.51 146.01 131.23 149.91 133.48 149.91 131.76"/><polygon class="cls-8" points="131.66 121.22 123.68 116.62 123.68 118.33 131.66 122.94 131.66 121.22"/><polygon class="cls-8" points="138.93 125.42 133.17 122.09 133.16 123.81 138.93 127.14 138.93 125.42"/><polygon class="cls-8" points="144.34 128.55 140.44 126.3 140.44 128.01 144.34 130.26 144.34 128.55"/><polygon class="cls-8" points="189.64 74.88 187.12 73.42 189.64 71.96 192.16 73.42 189.64 74.88"/><polygon class="cls-29" points="194.69 77.79 192.16 76.33 194.69 74.88 197.21 76.33 194.69 77.79"/><polygon class="cls-30" points="199.73 80.7 197.21 79.24 199.73 77.79 202.25 79.24 199.73 80.7"/><polygon class="cls-8" points="204.78 83.61 202.25 82.16 204.78 80.7 207.3 82.16 204.78 83.61"/><polygon class="cls-30" points="209.82 86.53 207.3 85.07 209.82 83.61 212.34 85.07 209.82 86.53"/><polygon class="cls-8" points="214.86 89.44 212.34 87.98 214.86 86.53 217.39 87.98 214.86 89.44"/><polygon class="cls-8" points="219.91 92.35 217.39 90.89 219.91 89.44 222.43 90.89 219.91 92.35"/><polygon class="cls-8" points="224.95 95.26 222.43 93.81 224.95 92.35 227.48 93.81 224.95 95.26"/><polygon class="cls-29" points="230 98.17 227.48 96.72 230 95.26 232.52 96.72 230 98.17"/><polygon class="cls-8" points="184.58 77.8 182.05 76.34 184.58 74.89 187.1 76.34 184.58 77.8"/><polygon class="cls-8" points="189.62 80.71 187.1 79.26 189.62 77.8 192.14 79.26 189.62 80.71"/><polygon class="cls-8" points="194.66 83.62 192.14 82.17 194.66 80.71 197.19 82.17 194.66 83.62"/><polygon class="cls-8" points="199.71 86.54 197.19 85.08 199.71 83.62 202.23 85.08 199.71 86.54"/><polygon class="cls-8" points="204.75 89.45 202.23 87.99 204.75 86.54 207.28 87.99 204.75 89.45"/><polygon class="cls-8" points="209.8 92.36 207.28 90.91 209.8 89.45 212.32 90.91 209.8 92.36"/><polygon class="cls-8" points="214.84 95.28 212.32 93.82 214.84 92.36 217.37 93.82 214.84 95.28"/><polygon class="cls-8" points="219.89 98.19 217.37 96.73 219.89 95.28 222.41 96.73 219.89 98.19"/><polygon class="cls-8" points="224.93 101.1 222.41 99.64 224.93 98.19 227.46 99.64 224.93 101.1"/><polygon class="cls-8" points="179.51 80.72 176.99 79.27 179.51 77.81 182.03 79.27 179.51 80.72"/><polygon class="cls-8" points="184.56 83.64 182.03 82.18 184.56 80.72 187.08 82.18 184.56 83.64"/><polygon class="cls-8" points="189.6 86.55 187.08 85.09 189.6 83.64 192.12 85.09 189.6 86.55"/><polygon class="cls-29" points="194.65 89.46 192.12 88 194.65 86.55 197.17 88 194.65 89.46"/><polygon class="cls-30" points="199.69 92.37 197.17 90.92 199.69 89.46 202.21 90.92 199.69 92.37"/><polygon class="cls-30" points="204.73 95.29 202.21 93.83 204.73 92.37 207.26 93.83 204.73 95.29"/><polygon class="cls-8" points="209.78 98.2 207.26 96.74 209.78 95.29 212.3 96.74 209.78 98.2"/><polygon class="cls-8" points="214.82 101.11 212.3 99.66 214.82 98.2 217.34 99.66 214.82 101.11"/><polygon class="cls-8" points="219.87 104.02 217.35 102.57 219.87 101.11 222.39 102.57 219.87 104.02"/><polygon class="cls-30" points="174.44 83.65 171.92 82.19 174.44 80.73 176.97 82.19 174.44 83.65"/><polygon class="cls-30" points="179.49 86.56 176.97 85.1 179.49 83.65 182.01 85.1 179.49 86.56"/><polygon class="cls-29" points="184.53 89.47 182.01 88.02 184.53 86.56 187.06 88.02 184.53 89.47"/><polygon class="cls-8" points="189.58 92.39 187.06 90.93 189.58 89.47 192.1 90.93 189.58 92.39"/><polygon class="cls-8" points="194.62 95.3 192.1 93.84 194.62 92.39 197.15 93.84 194.62 95.3"/><polygon class="cls-8" points="199.67 98.21 197.15 96.75 199.67 95.3 202.19 96.75 199.67 98.21"/><polygon class="cls-30" points="204.71 101.12 202.19 99.67 204.71 98.21 207.24 99.67 204.71 101.12"/><polygon class="cls-8" points="209.76 104.04 207.24 102.58 209.76 101.12 212.28 102.58 209.76 104.04"/><polygon class="cls-8" points="214.8 106.95 212.28 105.49 214.8 104.04 217.32 105.49 214.8 106.95"/><polygon class="cls-8" points="169.38 86.57 166.86 85.12 169.38 83.66 171.9 85.12 169.38 86.57"/><polygon class="cls-8" points="174.43 89.48 171.9 88.03 174.43 86.57 176.95 88.03 174.43 89.48"/><polygon class="cls-8" points="179.47 92.4 176.95 90.94 179.47 89.48 181.99 90.94 179.47 92.4"/><polygon class="cls-8" points="184.51 95.31 181.99 93.85 184.51 92.4 187.04 93.85 184.51 95.31"/><polygon class="cls-8" points="189.56 98.22 187.04 96.77 189.56 95.31 192.08 96.77 189.56 98.22"/><polygon class="cls-8" points="194.6 101.14 192.08 99.68 194.6 98.22 197.13 99.68 194.6 101.14"/><polygon class="cls-8" points="199.65 104.05 197.13 102.59 199.65 101.14 202.17 102.59 199.65 104.05"/><polygon class="cls-8" points="204.69 106.96 202.17 105.5 204.69 104.05 207.22 105.5 204.69 106.96"/><polygon class="cls-8" points="209.74 109.87 207.22 108.42 209.74 106.96 212.26 108.42 209.74 109.87"/><polygon class="cls-8" points="164.31 89.5 161.79 88.04 164.31 86.58 166.84 88.04 164.31 89.5"/><polygon class="cls-8" points="169.36 92.41 166.84 90.95 169.36 89.5 171.88 90.95 169.36 92.41"/><polygon class="cls-30" points="174.41 95.32 171.88 93.86 174.41 92.41 176.93 93.86 174.41 95.32"/><polygon class="cls-8" points="179.45 98.23 176.93 96.78 179.45 95.32 181.97 96.78 179.45 98.23"/><polygon class="cls-29" points="184.49 101.15 181.97 99.69 184.49 98.23 187.02 99.69 184.49 101.15"/><polygon class="cls-8" points="189.54 104.06 187.02 102.6 189.54 101.15 192.06 102.6 189.54 104.06"/><polygon class="cls-8" points="194.58 106.97 192.06 105.52 194.58 104.06 197.1 105.52 194.58 106.97"/><polygon class="cls-8" points="199.63 109.88 197.11 108.43 199.63 106.97 202.15 108.43 199.63 109.88"/><polygon class="cls-8" points="204.67 112.8 202.15 111.34 204.67 109.88 207.19 111.34 204.67 112.8"/><polygon class="cls-8" points="159.25 92.42 156.73 90.97 159.25 89.51 161.77 90.97 159.25 92.42"/><polygon class="cls-8" points="164.29 95.33 161.77 93.88 164.29 92.42 166.82 93.88 164.29 95.33"/><polygon class="cls-30" points="169.34 98.25 166.82 96.79 169.34 95.33 171.86 96.79 169.34 98.25"/><polygon class="cls-8" points="174.38 101.16 171.86 99.7 174.38 98.25 176.91 99.7 174.38 101.16"/><polygon class="cls-8" points="179.43 104.07 176.91 102.61 179.43 101.16 181.95 102.61 179.43 104.07"/><polygon class="cls-29" points="184.47 106.98 181.95 105.53 184.47 104.07 187 105.53 184.47 106.98"/><polygon class="cls-30" points="189.52 109.9 187 108.44 189.52 106.98 192.04 108.44 189.52 109.9"/><polygon class="cls-8" points="194.56 112.81 192.04 111.35 194.56 109.9 197.09 111.35 194.56 112.81"/><polygon class="cls-29" points="199.61 115.72 197.09 114.27 199.61 112.81 202.13 114.27 199.61 115.72"/><polygon class="cls-8" points="154.19 95.34 151.66 93.89 154.19 92.43 156.71 93.89 154.19 95.34"/><polygon class="cls-30" points="159.23 98.26 156.71 96.8 159.23 95.34 161.75 96.8 159.23 98.26"/><polygon class="cls-8" points="164.27 101.17 161.75 99.71 164.27 98.26 166.8 99.71 164.27 101.17"/><polygon class="cls-8" points="169.32 104.08 166.8 102.63 169.32 101.17 171.84 102.63 169.32 104.08"/><polygon class="cls-8" points="174.36 107 171.84 105.54 174.36 104.08 176.89 105.54 174.36 107"/><polygon class="cls-8" points="179.41 109.91 176.89 108.45 179.41 107 181.93 108.45 179.41 109.91"/><polygon class="cls-8" points="184.45 112.82 181.93 111.36 184.45 109.91 186.97 111.36 184.45 112.82"/><polygon class="cls-30" points="189.5 115.73 186.97 114.28 189.5 112.82 192.02 114.28 189.5 115.73"/><polygon class="cls-8" points="194.54 118.65 192.02 117.19 194.54 115.73 197.06 117.19 194.54 118.65"/><polygon class="cls-8" points="149.12 98.27 146.6 96.81 149.12 95.36 151.64 96.81 149.12 98.27"/><polygon class="cls-29" points="154.16 101.18 151.64 99.73 154.16 98.27 156.69 99.73 154.16 101.18"/><polygon class="cls-8" points="159.21 104.09 156.69 102.64 159.21 101.18 161.73 102.64 159.21 104.09"/><polygon class="cls-8" points="164.25 107.01 161.73 105.55 164.25 104.09 166.78 105.55 164.25 107.01"/><polygon class="cls-8" points="169.3 109.92 166.78 108.46 169.3 107.01 171.82 108.46 169.3 109.92"/><polygon class="cls-8" points="174.34 112.83 171.82 111.38 174.34 109.92 176.87 111.38 174.34 112.83"/><polygon class="cls-30" points="179.39 115.75 176.87 114.29 179.39 112.83 181.91 114.29 179.39 115.75"/><polygon class="cls-8" points="184.43 118.66 181.91 117.2 184.43 115.75 186.96 117.2 184.43 118.66"/><polygon class="cls-8" points="189.48 121.57 186.96 120.11 189.48 118.66 192 120.11 189.48 121.57"/><polygon class="cls-25" points="189.56 97.62 110.13 51.76 189.56 5.9 268.99 51.76 189.56 97.62"/><polygon class="cls-19" points="189.56 85.09 131.82 51.76 189.56 18.42 247.3 51.76 189.56 85.09"/><polygon class="cls-11" points="189.56 20.68 245.35 52.89 247.3 51.76 189.56 18.42 131.82 51.76 133.77 52.88 189.56 20.68"/><polygon class="cls-31" points="268.99 51.76 268.99 77.75 189.56 123.61 189.56 97.62 268.99 51.76"/><polygon class="cls-15" points="110.13 51.76 110.13 77.75 189.56 123.61 189.56 97.62 110.13 51.76"/><g class="cls-27"><polygon class="cls-19" points="115.51 63.44 115.51 71.62 184.18 111.27 184.18 103.08 115.51 63.44"/></g><polygon class="cls-11" points="189.56 96.13 111.42 51.01 110.13 51.76 189.56 97.62 268.99 51.76 267.7 51.01 189.56 96.13"/><polygon class="cls-19" points="257.08 69.97 257.08 74.63 201.47 106.73 201.47 102.08 257.08 69.97"/><polygon class="cls-28" points="110.13 51.76 110.13 77.75 189.56 123.61 189.56 97.62 110.13 51.76"/><polygon class="cls-8" points="166.37 96.24 151.99 87.93 151.99 89.65 166.37 97.95 166.37 96.24"/><polygon class="cls-8" points="149.91 86.75 146.02 84.5 146.01 86.22 149.91 88.47 149.91 86.75"/><polygon class="cls-8" points="131.66 76.21 123.68 71.61 123.68 73.32 131.66 77.93 131.66 76.21"/><polygon class="cls-8" points="138.93 80.41 133.17 77.08 133.16 78.8 138.93 82.13 138.93 80.41"/><polygon class="cls-8" points="144.34 83.54 140.44 81.29 140.44 83 144.34 85.25 144.34 83.54"/><polygon class="cls-8" points="189.64 29.86 187.12 28.41 189.64 26.95 192.16 28.41 189.64 29.86"/><polygon class="cls-29" points="194.69 32.78 192.16 31.32 194.69 29.86 197.21 31.32 194.69 32.78"/><polygon class="cls-30" points="199.73 35.69 197.21 34.23 199.73 32.78 202.25 34.23 199.73 35.69"/><polygon class="cls-8" points="204.78 38.6 202.25 37.15 204.78 35.69 207.3 37.15 204.78 38.6"/><polygon class="cls-30" points="209.82 41.52 207.3 40.06 209.82 38.6 212.34 40.06 209.82 41.52"/><polygon class="cls-8" points="214.86 44.43 212.34 42.97 214.86 41.52 217.39 42.97 214.86 44.43"/><polygon class="cls-8" points="219.91 47.34 217.39 45.88 219.91 44.43 222.43 45.88 219.91 47.34"/><polygon class="cls-8" points="224.95 50.25 222.43 48.8 224.95 47.34 227.48 48.8 224.95 50.25"/><polygon class="cls-29" points="230 53.17 227.48 51.71 230 50.25 232.52 51.71 230 53.17"/><polygon class="cls-8" points="184.58 32.79 182.05 31.33 184.58 29.88 187.1 31.33 184.58 32.79"/><polygon class="cls-8" points="189.62 35.7 187.1 34.25 189.62 32.79 192.14 34.25 189.62 35.7"/><polygon class="cls-8" points="194.66 38.62 192.14 37.16 194.66 35.7 197.19 37.16 194.66 38.62"/><polygon class="cls-32" points="199.71 41.53 197.19 40.07 199.71 38.62 202.23 40.07 199.71 41.53"/><polygon class="cls-8" points="204.75 44.44 202.23 42.98 204.75 41.53 207.28 42.98 204.75 44.44"/><polygon class="cls-8" points="209.8 47.35 207.28 45.9 209.8 44.44 212.32 45.9 209.8 47.35"/><polygon class="cls-33" points="214.84 50.27 212.32 48.81 214.84 47.35 217.37 48.81 214.84 50.27"/><polygon class="cls-8" points="219.89 53.18 217.37 51.72 219.89 50.27 222.41 51.72 219.89 53.18"/><polygon class="cls-32" points="224.93 56.09 222.41 54.63 224.93 53.18 227.46 54.63 224.93 56.09"/><polygon class="cls-8" points="179.51 35.71 176.99 34.26 179.51 32.8 182.03 34.26 179.51 35.71"/><polygon class="cls-32" points="184.56 38.63 182.03 37.17 184.56 35.71 187.08 37.17 184.56 38.63"/><polygon class="cls-8" points="189.6 41.54 187.08 40.08 189.6 38.63 192.12 40.08 189.6 41.54"/><polygon class="cls-29" points="194.65 44.45 192.12 42.99 194.65 41.54 197.17 43 194.65 44.45"/><polygon class="cls-30" points="199.69 47.36 197.17 45.91 199.69 44.45 202.21 45.91 199.69 47.36"/><polygon class="cls-30" points="204.73 50.28 202.21 48.82 204.73 47.36 207.26 48.82 204.73 50.28"/><polygon class="cls-8" points="209.78 53.19 207.26 51.73 209.78 50.28 212.3 51.73 209.78 53.19"/><polygon class="cls-8" points="214.82 56.1 212.3 54.65 214.82 53.19 217.34 54.65 214.82 56.1"/><polygon class="cls-8" points="219.87 59.01 217.35 57.56 219.87 56.1 222.39 57.56 219.87 59.01"/><polygon class="cls-30" points="174.44 38.64 171.92 37.18 174.44 35.73 176.97 37.18 174.44 38.64"/><polygon class="cls-30" points="179.49 41.55 176.97 40.09 179.49 38.64 182.01 40.09 179.49 41.55"/><polygon class="cls-29" points="184.53 44.46 182.01 43.01 184.53 41.55 187.06 43.01 184.53 44.46"/><polygon class="cls-8" points="189.58 47.38 187.06 45.92 189.58 44.46 192.1 45.92 189.58 47.38"/><polygon class="cls-8" points="194.62 50.29 192.1 48.83 194.62 47.38 197.15 48.83 194.62 50.29"/><polygon class="cls-32" points="199.67 53.2 197.15 51.74 199.67 50.29 202.19 51.74 199.67 53.2"/><polygon class="cls-30" points="204.71 56.11 202.19 54.66 204.71 53.2 207.24 54.66 204.71 56.11"/><polygon class="cls-8" points="209.76 59.03 207.24 57.57 209.76 56.11 212.28 57.57 209.76 59.03"/><polygon class="cls-8" points="214.8 61.94 212.28 60.48 214.8 59.03 217.32 60.48 214.8 61.94"/><polygon class="cls-32" points="169.38 41.56 166.86 40.11 169.38 38.65 171.9 40.11 169.38 41.56"/><polygon class="cls-8" points="174.43 44.48 171.9 43.02 174.43 41.56 176.95 43.02 174.43 44.48"/><polygon class="cls-8" points="179.47 47.39 176.95 45.93 179.47 44.48 181.99 45.93 179.47 47.39"/><polygon class="cls-8" points="184.51 50.3 181.99 48.84 184.51 47.39 187.04 48.84 184.51 50.3"/><polygon class="cls-32" points="189.56 53.21 187.04 51.76 189.56 50.3 192.08 51.76 189.56 53.21"/><polygon class="cls-32" points="194.6 56.13 192.08 54.67 194.6 53.21 197.13 54.67 194.6 56.13"/><polygon class="cls-8" points="199.65 59.04 197.13 57.58 199.65 56.13 202.17 57.58 199.65 59.04"/><polygon class="cls-8" points="204.69 61.95 202.17 60.49 204.69 59.04 207.22 60.49 204.69 61.95"/><polygon class="cls-8" points="209.74 64.86 207.22 63.41 209.74 61.95 212.26 63.41 209.74 64.86"/><polygon class="cls-8" points="164.31 44.49 161.79 43.03 164.31 41.58 166.84 43.03 164.31 44.49"/><polygon class="cls-8" points="169.36 47.4 166.84 45.94 169.36 44.49 171.88 45.94 169.36 47.4"/><polygon class="cls-30" points="174.41 50.31 171.88 48.86 174.41 47.4 176.93 48.86 174.41 50.31"/><polygon class="cls-32" points="179.45 53.23 176.93 51.77 179.45 50.31 181.97 51.77 179.45 53.23"/><polygon class="cls-29" points="184.49 56.14 181.97 54.68 184.49 53.23 187.02 54.68 184.49 56.14"/><polygon class="cls-8" points="189.54 59.05 187.02 57.59 189.54 56.14 192.06 57.59 189.54 59.05"/><polygon class="cls-8" points="194.58 61.96 192.06 60.51 194.58 59.05 197.1 60.51 194.58 61.96"/><polygon class="cls-32" points="199.63 64.88 197.11 63.42 199.63 61.96 202.15 63.42 199.63 64.88"/><polygon class="cls-8" points="204.67 67.79 202.15 66.33 204.67 64.88 207.19 66.33 204.67 67.79"/><polygon class="cls-8" points="159.25 47.41 156.73 45.95 159.25 44.5 161.77 45.95 159.25 47.41"/><polygon class="cls-8" points="164.29 50.32 161.77 48.87 164.29 47.41 166.82 48.87 164.29 50.32"/><polygon class="cls-30" points="169.34 53.24 166.82 51.78 169.34 50.32 171.86 51.78 169.34 53.24"/><polygon class="cls-8" points="174.38 56.15 171.86 54.69 174.38 53.24 176.91 54.69 174.38 56.15"/><polygon class="cls-8" points="179.43 59.06 176.91 57.6 179.43 56.15 181.95 57.6 179.43 59.06"/><polygon class="cls-29" points="184.47 61.97 181.95 60.52 184.47 59.06 187 60.52 184.47 61.97"/><polygon class="cls-30" points="189.52 64.89 187 63.43 189.52 61.97 192.04 63.43 189.52 64.89"/><polygon class="cls-8" points="194.56 67.8 192.04 66.34 194.56 64.89 197.09 66.34 194.56 67.8"/><polygon class="cls-29" points="199.61 70.71 197.09 69.26 199.61 67.8 202.13 69.26 199.61 70.71"/><polygon class="cls-8" points="154.19 50.34 151.66 48.88 154.19 47.42 156.71 48.88 154.19 50.34"/><polygon class="cls-30" points="159.23 53.25 156.71 51.79 159.23 50.34 161.75 51.79 159.23 53.25"/><polygon class="cls-8" points="164.27 56.16 161.75 54.7 164.27 53.25 166.8 54.7 164.27 56.16"/><polygon class="cls-8" points="169.32 59.07 166.8 57.62 169.32 56.16 171.84 57.62 169.32 59.07"/><polygon class="cls-8" points="174.36 61.99 171.84 60.53 174.36 59.07 176.89 60.53 174.36 61.99"/><polygon class="cls-8" points="179.41 64.9 176.89 63.44 179.41 61.99 181.93 63.44 179.41 64.9"/><polygon class="cls-8" points="184.45 67.81 181.93 66.36 184.45 64.9 186.97 66.36 184.45 67.81"/><polygon class="cls-30" points="189.5 70.72 186.97 69.27 189.5 67.81 192.02 69.27 189.5 70.72"/><polygon class="cls-8" points="194.54 73.64 192.02 72.18 194.54 70.72 197.06 72.18 194.54 73.64"/><polygon class="cls-8" points="149.12 53.26 146.6 51.8 149.12 50.35 151.64 51.8 149.12 53.26"/><polygon class="cls-29" points="154.16 56.17 151.64 54.72 154.16 53.26 156.69 54.72 154.16 56.17"/><polygon class="cls-32" points="159.21 59.09 156.69 57.63 159.21 56.17 161.73 57.63 159.21 59.09"/><polygon class="cls-8" points="164.25 62 161.73 60.54 164.25 59.09 166.78 60.54 164.25 62"/><polygon class="cls-8" points="169.3 64.91 166.78 63.45 169.3 62 171.82 63.45 169.3 64.91"/><polygon class="cls-8" points="174.34 67.82 171.82 66.37 174.34 64.91 176.87 66.37 174.34 67.82"/><polygon class="cls-30" points="179.39 70.73 176.87 69.28 179.39 67.82 181.91 69.28 179.39 70.73"/><polygon class="cls-32" points="184.43 73.65 181.91 72.19 184.43 70.73 186.96 72.19 184.43 73.65"/><polygon class="cls-8" points="189.48 76.56 186.96 75.1 189.48 73.65 192 75.1 189.48 76.56"/><g class="cls-7"><path class="cls-8" d="M491.35,364.36a7.8,7.8,0,0,1-3.92-1.05L442.3,337.25a2.26,2.26,0,0,1,0-3.91L524,286.19a.43.43,0,0,1,.44,0l48.83,28.19a2.26,2.26,0,0,1,0,3.91l-78,45A7.83,7.83,0,0,1,491.35,364.36Zm32.84-77.27-81.45,47a1.37,1.37,0,0,0,0,2.37l45.14,26.06a7.09,7.09,0,0,0,6.94,0l78-45a1.35,1.35,0,0,0,.69-1.18,1.36,1.36,0,0,0-.69-1.19Z" transform="translate(-216.28 -126.82)"/></g><path class="cls-34" d="M524.29,268l-10.86-64.45.87-.37L513,202.4h0a.94.94,0,0,0-1,.07L425.16,252.6a2.47,2.47,0,0,0-1.13,2.21l11,65a.83.83,0,0,0,.46.66h0l1.28.74.22-1.2-.07,0,86.29-49.82A2.49,2.49,0,0,0,524.29,268Z" transform="translate(-216.28 -126.82)"/><path class="cls-35" d="M425.64,254.37l-1.42-.64a2,2,0,0,0-.19,1.08l11,65a.83.83,0,0,0,.46.66h0l1.28.74.22-1.2-.07,0,4.37-2.52Z" transform="translate(-216.28 -126.82)"/><path class="cls-15" d="M524.52,271l-86.81,50.12c-.68.39-1.25.17-1.37-.53l-10.95-65a2.49,2.49,0,0,1,1.13-2.21l86.82-50.12c.67-.39,1.24-.16,1.36.53l10.95,65A2.43,2.43,0,0,1,524.52,271Z" transform="translate(-216.28 -126.82)"/><g class="cls-27"><polygon class="cls-19" points="295.92 80.58 212.24 128.9 222.61 190.08 306.24 141.8 295.92 80.58"/></g><path class="cls-36" d="M579.1,301.71l-4.74,2.48-47.51-27.43a3.44,3.44,0,0,0-3.1.13l-81.94,47.3c-.78-.43-4.36-2.15-4.36-2.15l1.73,4.52h0a1,1,0,0,0,.49.54l50,28.89a3.47,3.47,0,0,0,3.1-.13l83.85-48.41a1.52,1.52,0,0,0,.71-.75h0Z" transform="translate(-216.28 -126.82)"/><path class="cls-37" d="M578.36,302.49l-85.93,49.62a3.55,3.55,0,0,1-3.18.13L438,322.63c-.81-.47-.71-1.29.23-1.83l85.93-49.62a3.55,3.55,0,0,1,3.18-.13l51.28,29.61C579.41,301.13,579.3,302,578.36,302.49Z" transform="translate(-216.28 -126.82)"/><path class="cls-11" d="M578.36,302l-85.93,49.61a3.55,3.55,0,0,1-3.18.13L438,322.14a1.1,1.1,0,0,1-.5-.56.87.87,0,0,0,.5,1.05l51.28,29.61a3.55,3.55,0,0,0,3.18-.13l85.93-49.62c.64-.36.88-.85.73-1.28A1.5,1.5,0,0,1,578.36,302Z" transform="translate(-216.28 -126.82)"/><path class="cls-12" d="M466.51,341.37v-.94c0-.09.05-.13.12-.09l3.32,1.92a.29.29,0,0,1,.13.23v.94c0,.09-.06.13-.13.09l-3.32-1.91A.3.3,0,0,1,466.51,341.37Z" transform="translate(-216.28 -126.82)"/><path class="cls-12" d="M471.48,344.24v-.94c0-.09,0-.13.12-.09l3.32,1.92a.29.29,0,0,1,.13.23v.94c0,.09-.06.13-.13.09l-3.32-1.91A.3.3,0,0,1,471.48,344.24Z" transform="translate(-216.28 -126.82)"/><path class="cls-13" d="M451.34,319.86l71.41-41.23a1.52,1.52,0,0,1,1.54,0l25.43,14.71a.55.55,0,0,1,0,1L478.34,335.5a1.52,1.52,0,0,1-1.54,0l-25.46-14.69A.55.55,0,0,1,451.34,319.86Z" transform="translate(-216.28 -126.82)"/><path class="cls-14" d="M451.34,320.81l.26.15,71.15-41.09a1.57,1.57,0,0,1,1.54,0l25.17,14.57.26-.15a.55.55,0,0,0,0-1l-25.43-14.71a1.52,1.52,0,0,0-1.54,0l-71.41,41.23A.55.55,0,0,0,451.34,320.81Z" transform="translate(-216.28 -126.82)"/><polygon class="cls-15" points="309.93 155.53 247.9 191.34 245.14 189.75 307.17 153.94 309.93 155.53"/><polygon class="cls-15" points="316.69 159.44 258.51 193.03 255.75 191.44 313.93 157.84 316.69 159.44"/><polygon class="cls-15" points="321.09 161.98 252.59 201.53 249.83 199.94 318.33 160.39 321.09 161.98"/><polygon class="cls-15" points="325.5 164.52 256.99 204.07 254.24 202.48 322.74 162.93 325.5 164.52"/><polygon class="cls-15" points="329.9 167.06 261.4 206.62 258.64 205.02 327.14 165.47 329.9 167.06"/><polygon class="cls-15" points="244.15 193.51 241.39 195.1 238.63 193.51 241.39 191.92 244.15 193.51"/><polygon class="cls-15" points="253.88 195.7 248.15 199.01 245.39 197.41 251.12 194.11 253.88 195.7"/><path class="cls-38" d="M525.5,329.84l19.26-11.12a.84.84,0,0,0,0-1.58l-13.17-7.6a3,3,0,0,0-2.73,0l-19.25,11.12a.83.83,0,0,0,0,1.57l13.17,7.61A3,3,0,0,0,525.5,329.84Z" transform="translate(-216.28 -126.82)"/><path class="cls-14" d="M509.61,321.3l19.25-11.11a3,3,0,0,1,2.73,0l13.17,7.6a1.16,1.16,0,0,1,.47.46c.2-.38,0-.8-.47-1.11l-13.17-7.6a3,3,0,0,0-2.73,0l-19.25,11.12c-.52.3-.67.73-.47,1.11A1.17,1.17,0,0,1,509.61,321.3Z" transform="translate(-216.28 -126.82)"/><g class="cls-39"><g class="cls-40"><path class="cls-41" d="M524.22,271.08l-85.94,49.61a3.5,3.5,0,0,1-3.17.14l-51.29-29.61c-.81-.47-.71-1.29.23-1.84L470,239.77a3.55,3.55,0,0,1,3.18-.13l51.28,29.6C525.26,269.71,525.16,270.54,524.22,271.08Z" transform="translate(-216.28 -126.82)"/><path class="cls-42" d="M438,280l19.25-11.11a.83.83,0,0,0,0-1.58l-13.16-7.6a3,3,0,0,0-2.73,0L422.14,270.8a.83.83,0,0,0,0,1.57L435.3,280A3,3,0,0,0,438,280Z" transform="translate(-216.28 -126.82)"/><path class="cls-14" d="M422.14,271.44l19.25-11.11a3,3,0,0,1,2.73,0l13.16,7.6a1.13,1.13,0,0,1,.48.46c.2-.38,0-.81-.48-1.11l-13.16-7.6a3,3,0,0,0-2.73,0L422.14,270.8c-.53.3-.68.73-.48,1.11A1.2,1.2,0,0,1,422.14,271.44Z" transform="translate(-216.28 -126.82)"/><path class="cls-13" d="M413.67,297.35l71.41-41.23a1.52,1.52,0,0,1,1.54,0l25.43,14.71a.55.55,0,0,1,0,.95L440.67,313a1.52,1.52,0,0,1-1.54,0L413.67,298.3A.55.55,0,0,1,413.67,297.35Z" transform="translate(-216.28 -126.82)"/><path class="cls-14" d="M413.67,298.3l.26.15,71.15-41.09a1.57,1.57,0,0,1,1.54,0l25.17,14.57.26-.15a.55.55,0,0,0,0-.95l-25.43-14.71a1.52,1.52,0,0,0-1.54,0l-71.41,41.23A.55.55,0,0,0,413.67,298.3Z" transform="translate(-216.28 -126.82)"/><polygon class="cls-15" points="289.11 143 226.9 178.92 229.37 180.35 291.58 144.43 289.11 143"/><polygon class="cls-15" points="282.56 139.22 223.43 173.36 225.89 174.78 285.02 140.64 282.56 139.22"/><polygon class="cls-15" points="219.01 175.91 213.49 179.1 215.95 180.52 221.47 177.33 219.01 175.91"/><polygon class="cls-15" points="223.89 180.66 220.04 182.88 222.51 184.31 226.35 182.09 223.89 180.66"/><polygon class="cls-15" points="278.45 136.85 209.38 176.73 211.84 178.15 280.92 138.27 278.45 136.85"/><polygon class="cls-15" points="274.34 134.48 205.27 174.35 207.74 175.78 276.81 135.9 274.34 134.48"/><polygon class="cls-15" points="270.24 132.11 201.17 171.98 203.63 173.41 272.7 133.53 270.24 132.11"/></g></g><polygon class="cls-8" points="243.75 166.75 250.52 162.84 250.72 164.02 243.95 167.93 243.75 166.75"/><polygon class="cls-8" points="251.61 162.22 255.3 160.08 255.49 161.26 251.81 163.39 251.61 162.22"/><polygon class="cls-8" points="261.04 156.77 263.7 155.23 263.9 156.4 261.23 157.95 261.04 156.77"/><polygon class="cls-8" points="259.09 157.9 260 157.37 260.2 158.54 259.29 159.07 259.09 157.9"/><polygon class="cls-8" points="256.4 159.45 258.06 158.49 258.25 159.67 256.6 160.63 256.4 159.45"/><polygon class="cls-8" points="249.1 157.76 251.77 156.22 251.97 157.39 249.3 158.94 249.1 157.76"/><polygon class="cls-8" points="242.84 161.38 248.07 158.36 248.27 159.53 243.04 162.56 242.84 161.38"/><polygon class="cls-8" points="250.34 142.33 255.57 139.31 255.77 140.48 250.54 143.5 250.34 142.33"/><polygon class="cls-8" points="247.65 143.88 249.3 142.93 249.5 144.1 247.85 145.06 247.65 143.88"/><polygon class="cls-8" points="251.21 147.71 256.44 144.68 256.64 145.86 251.41 148.88 251.21 147.71"/><polygon class="cls-8" points="248.52 149.26 250.18 148.3 250.38 149.48 248.72 150.44 248.52 149.26"/><polygon class="cls-8" points="246.48 119.12 236.63 124.81 236.43 123.64 246.28 117.94 246.48 119.12"/><polygon class="cls-8" points="249.95 117.11 247.51 118.52 247.31 117.34 249.75 115.93 249.95 117.11"/><polygon class="cls-8" points="267.26 115.97 257.41 121.66 257.21 120.49 267.06 114.79 267.26 115.97"/><polygon class="cls-8" points="270.74 113.96 268.3 115.37 268.1 114.19 270.54 112.78 270.74 113.96"/><polygon class="cls-8" points="239.75 125.95 237.08 127.5 236.88 126.32 239.55 124.78 239.75 125.95"/><polygon class="cls-8" points="255.99 122.47 253.32 124.01 253.12 122.84 255.79 121.29 255.99 122.47"/><polygon class="cls-8" points="246.01 122.33 240.78 125.36 240.58 124.18 245.81 121.16 246.01 122.33"/><polygon class="cls-8" points="248.7 120.78 247.05 121.73 246.85 120.56 248.5 119.6 248.7 120.78"/><polygon class="cls-8" points="255.02 117.14 249.79 120.16 249.59 118.98 254.82 115.96 255.02 117.14"/><polygon class="cls-8" points="257.71 115.58 256.05 116.54 255.85 115.36 257.51 114.41 257.71 115.58"/><polygon class="cls-8" points="255.53 119.78 252.87 121.33 252.67 120.15 255.34 118.61 255.53 119.78"/><polygon class="cls-8" points="261.8 116.16 256.57 119.19 256.37 118.01 261.6 114.99 261.8 116.16"/><polygon class="cls-8" points="264.49 114.61 262.83 115.56 262.63 114.39 264.29 113.43 264.49 114.61"/><polygon class="cls-8" points="242.99 127.03 237.53 130.18 237.33 129.01 242.8 125.85 242.99 127.03"/><polygon class="cls-8" points="247.98 124.14 244.03 126.43 243.83 125.25 247.78 122.97 247.98 124.14"/><polygon class="cls-8" points="251.68 122 249.01 123.55 248.81 122.37 251.48 120.83 251.68 122"/><polygon class="cls-8" points="277.57 110.02 272.11 113.18 271.91 112 277.37 108.85 277.57 110.02"/><polygon class="cls-8" points="282.55 107.14 278.6 109.42 278.4 108.25 282.35 105.97 282.55 107.14"/><polygon class="cls-8" points="286.25 105 283.59 106.54 283.39 105.37 286.06 103.83 286.25 105"/><polygon class="cls-8" points="275.44 145.51 280.9 142.35 281.1 143.53 275.63 146.68 275.44 145.51"/><polygon class="cls-8" points="270.45 148.39 274.4 146.11 274.6 147.28 270.65 149.56 270.45 148.39"/><polygon class="cls-8" points="266.75 150.53 269.42 148.99 269.62 150.16 266.95 151.71 266.75 150.53"/><polygon class="cls-8" points="273.62 149.51 279.08 146.36 279.28 147.53 273.82 150.69 273.62 149.51"/><polygon class="cls-8" points="268.64 152.4 272.59 150.11 272.79 151.29 268.84 153.57 268.64 152.4"/><polygon class="cls-8" points="264.94 154.54 267.6 152.99 267.8 154.17 265.13 155.71 264.94 154.54"/><polygon class="cls-8" points="251.57 144.55 253.41 143.48 253.61 144.66 251.77 145.72 251.57 144.55"/><polygon class="cls-8" points="248.1 146.56 250.54 145.15 250.74 146.32 248.3 147.73 248.1 146.56"/><polygon class="cls-8" points="243.48 129.69 238.02 132.85 237.82 131.68 243.28 128.52 243.48 129.69"/><polygon class="cls-8" points="248.47 126.81 244.52 129.1 244.32 127.92 248.27 125.64 248.47 126.81"/><polygon class="cls-8" points="252.17 124.67 249.5 126.22 249.3 125.04 251.97 123.5 252.17 124.67"/><polygon class="cls-8" points="240.32 134.47 238.47 135.54 238.28 134.36 240.12 133.29 240.32 134.47"/><polygon class="cls-8" points="243.79 132.46 241.35 133.87 241.16 132.7 243.59 131.29 243.79 132.46"/><polygon class="cls-8" points="248.75 129.6 244.83 131.87 244.63 130.69 248.56 128.42 248.75 129.6"/><polygon class="cls-8" points="254.08 151.95 255.93 150.89 256.12 152.06 254.28 153.13 254.08 151.95"/><polygon class="cls-8" points="250.61 153.96 253.05 152.55 253.24 153.73 250.81 155.14 250.61 153.96"/><polygon class="cls-8" points="245.65 156.83 249.57 154.56 249.77 155.73 245.84 158 245.65 156.83"/><polygon class="cls-8" points="256.89 147.59 260.82 145.32 261.02 146.5 257.09 148.77 256.89 147.59"/><polygon class="cls-8" points="250.47 151.09 255.76 148.03 255.96 149.21 250.66 152.27 250.47 151.09"/><polygon class="cls-8" points="247.78 152.65 249.43 151.69 249.63 152.87 247.97 153.83 247.78 152.65"/><polygon class="cls-8" points="245.19 154.14 246.85 153.19 247.05 154.36 245.39 155.32 245.19 154.14"/><polygon class="cls-8" points="245.55 138.97 250.78 135.94 250.98 137.12 245.75 140.14 245.55 138.97"/><polygon class="cls-8" points="242.86 140.52 244.51 139.56 244.71 140.74 243.06 141.7 242.86 140.52"/><polygon class="cls-8" points="245.91 135.81 247.75 134.74 247.95 135.92 246.11 136.99 245.91 135.81"/><polygon class="cls-8" points="252.42 137.96 254.26 136.9 254.46 138.07 252.62 139.14 252.42 137.96"/><polygon class="cls-8" points="255.05 136.44 259.48 133.89 259.67 135.06 255.25 137.62 255.05 136.44"/><polygon class="cls-8" points="260.26 133.44 262.89 131.91 263.09 133.09 260.46 134.61 260.26 133.44"/><polygon class="cls-8" points="242.44 137.82 244.87 136.41 245.07 137.58 242.63 138.99 242.44 137.82"/><polygon class="cls-8" points="242.21 135.06 244.05 133.99 244.25 135.17 242.4 136.23 242.21 135.06"/><polygon class="cls-8" points="238.73 137.06 241.17 135.66 241.37 136.83 238.93 138.24 238.73 137.06"/><polygon class="cls-8" points="249.74 139.51 251.4 138.55 251.6 139.72 249.94 140.68 249.74 139.51"/><polygon class="cls-8" points="247.16 141 248.82 140.04 249.01 141.22 247.36 142.18 247.16 141"/><polygon class="cls-8" points="259.88 154.5 265.53 151.23 265.73 152.41 260.08 155.67 259.88 154.5"/><polygon class="cls-8" points="253.56 158.15 258.85 155.09 259.05 156.27 253.75 159.33 253.56 158.15"/><polygon class="cls-8" points="250.87 159.71 252.52 158.75 252.72 159.93 251.06 160.88 250.87 159.71"/><polygon class="cls-8" points="248.28 161.2 249.94 160.24 250.14 161.42 248.48 162.38 248.28 161.2"/><polygon class="cls-8" points="246.87 162.02 243.3 164.08 243.5 165.26 247.07 163.19 246.87 162.02"/><g class="cls-43"><path class="cls-44" d="M320.33,364.52a8,8,0,0,1-4-1.07h0l-78-45a2.43,2.43,0,0,1,0-4.19l49.14-28.36.3.17,81.66,47.15a2.42,2.42,0,0,1,0,4.19l-45.13,26.06A8,8,0,0,1,320.33,364.52Zm-3.39-2.11a6.93,6.93,0,0,0,6.79,0l45.13-26a1.22,1.22,0,0,0,.61-1.06,1.19,1.19,0,0,0-.61-1l-81.36-47-.08,0-48.45,28a1.21,1.21,0,0,0,0,2.1Z" transform="translate(-216.28 -126.82)"/></g><path class="cls-45" d="M287.4,268l10.86-64.45-.88-.37,1.32-.75h0a.94.94,0,0,1,1,.07l86.81,50.12a2.43,2.43,0,0,1,1.13,2.21l-10.95,65a.81.81,0,0,1-.46.66h0l-1.29.74-.22-1.2.07,0-86.29-49.82A2.45,2.45,0,0,1,287.4,268Z" transform="translate(-216.28 -126.82)"/><path class="cls-46" d="M386,254.37l1.43-.64a1.93,1.93,0,0,1,.18,1.08l-10.95,65a.81.81,0,0,1-.46.66h0l-1.29.74-.22-1.2.07,0-4.36-2.52Z" transform="translate(-216.28 -126.82)"/><path class="cls-15" d="M287.16,271,374,321.08c.67.39,1.24.17,1.36-.53l11-65a2.46,2.46,0,0,0-1.13-2.21l-86.82-50.12c-.67-.39-1.24-.16-1.36.53l-11,65A2.47,2.47,0,0,0,287.16,271Z" transform="translate(-216.28 -126.82)"/><g class="cls-27"><polygon class="cls-19" points="83.2 80.58 166.88 128.9 156.5 190.08 72.88 141.8 83.2 80.58"/></g><path class="cls-47" d="M232.59,301.71l4.73,2.48,47.51-27.43a3.44,3.44,0,0,1,3.1.13l81.94,47.3c.79-.43,4.36-2.15,4.36-2.15l-1.73,4.52h0a1,1,0,0,1-.48.54L322,356a3.47,3.47,0,0,1-3.1-.13L235,307.44a1.45,1.45,0,0,1-.7-.75h0Z" transform="translate(-216.28 -126.82)"/><path class="cls-48" d="M233.32,302.49l85.93,49.62a3.55,3.55,0,0,0,3.18.13l51.28-29.61c.82-.47.72-1.29-.23-1.83l-85.93-49.62a3.55,3.55,0,0,0-3.18-.13l-51.28,29.61C232.28,301.13,232.38,302,233.32,302.49Z" transform="translate(-216.28 -126.82)"/><path class="cls-11" d="M233.32,302l85.93,49.61a3.55,3.55,0,0,0,3.18.13l51.28-29.6a1.05,1.05,0,0,0,.5-.56.86.86,0,0,1-.5,1.05l-51.28,29.61a3.55,3.55,0,0,1-3.18-.13l-85.93-49.62c-.63-.36-.88-.85-.73-1.28A1.55,1.55,0,0,0,233.32,302Z" transform="translate(-216.28 -126.82)"/><path class="cls-12" d="M345.17,341.37v-.94c0-.09-.05-.13-.12-.09l-3.32,1.92a.28.28,0,0,0-.12.23v.94c0,.09.05.13.12.09l3.32-1.91A.3.3,0,0,0,345.17,341.37Z" transform="translate(-216.28 -126.82)"/><path class="cls-12" d="M340.2,344.24v-.94c0-.09-.05-.13-.12-.09l-3.32,1.92a.28.28,0,0,0-.12.23v.94c0,.09.05.13.12.09l3.32-1.91A.3.3,0,0,0,340.2,344.24Z" transform="translate(-216.28 -126.82)"/><path class="cls-13" d="M360.34,319.86l-71.41-41.23a1.52,1.52,0,0,0-1.54,0L262,293.34a.55.55,0,0,0,0,1l71.38,41.21a1.52,1.52,0,0,0,1.54,0l25.46-14.69A.55.55,0,0,0,360.34,319.86Z" transform="translate(-216.28 -126.82)"/><path class="cls-14" d="M360.34,320.81l-.25.15-71.16-41.09a1.57,1.57,0,0,0-1.54,0l-25.17,14.57-.26-.15a.55.55,0,0,1,0-1l25.43-14.71a1.52,1.52,0,0,1,1.54,0l71.41,41.23A.55.55,0,0,1,360.34,320.81Z" transform="translate(-216.28 -126.82)"/><polygon class="cls-15" points="75.16 158.98 135.61 193.88 138.22 192.2 77.93 157.4 75.16 158.98"/><polygon class="cls-15" points="71.24 164.52 126.12 196.21 128 194.11 74 162.93 71.24 164.52"/><polygon class="cls-15" points="58.02 161.98 126.53 201.53 129.29 199.94 60.78 160.39 58.02 161.98"/><polygon class="cls-15" points="53.62 164.52 122.13 204.07 124.88 202.48 56.38 162.93 53.62 164.52"/><polygon class="cls-15" points="49.22 167.06 117.72 206.62 120.48 205.02 51.98 165.47 49.22 167.06"/><polygon class="cls-15" points="134.97 193.51 137.73 195.1 140.49 193.51 137.73 191.92 134.97 193.51"/><polygon class="cls-15" points="125.24 195.7 130.97 199.01 133.72 197.41 128 194.11 125.24 195.7"/><path class="cls-49" d="M286.18,329.84l-19.25-11.12a.83.83,0,0,1,0-1.58l13.16-7.6a3,3,0,0,1,2.73,0l19.25,11.12a.83.83,0,0,1,0,1.57l-13.16,7.61A3,3,0,0,1,286.18,329.84Z" transform="translate(-216.28 -126.82)"/><path class="cls-14" d="M302.07,321.3l-19.25-11.11a3,3,0,0,0-2.73,0l-13.16,7.6a1.13,1.13,0,0,0-.48.46c-.2-.38,0-.8.48-1.11l13.16-7.6a3,3,0,0,1,2.73,0l19.25,11.12c.52.3.68.73.48,1.11A1.2,1.2,0,0,0,302.07,321.3Z" transform="translate(-216.28 -126.82)"/><g class="cls-39"><g class="cls-50"><path class="cls-51" d="M287.46,271.08l85.94,49.61a3.52,3.52,0,0,0,3.18.14l51.28-29.61c.81-.47.71-1.29-.23-1.84L341.7,239.77a3.55,3.55,0,0,0-3.18-.13l-51.28,29.6C286.42,269.71,286.52,270.54,287.46,271.08Z" transform="translate(-216.28 -126.82)"/><path class="cls-52" d="M373.66,280,354.4,268.86a.84.84,0,0,1,0-1.58l13.17-7.6a3,3,0,0,1,2.72,0l19.26,11.12a.83.83,0,0,1,0,1.57L376.38,280A3,3,0,0,1,373.66,280Z" transform="translate(-216.28 -126.82)"/><path class="cls-14" d="M389.55,271.44l-19.26-11.11a3,3,0,0,0-2.72,0l-13.17,7.6a1.16,1.16,0,0,0-.47.46c-.2-.38-.05-.81.47-1.11l13.17-7.6a3,3,0,0,1,2.72,0l19.26,11.12c.52.3.67.73.47,1.11A1.24,1.24,0,0,0,389.55,271.44Z" transform="translate(-216.28 -126.82)"/><path class="cls-13" d="M398,297.35,326.6,256.12a1.52,1.52,0,0,0-1.54,0l-25.43,14.71a.55.55,0,0,0,0,.95L371,313a1.52,1.52,0,0,0,1.54,0L398,298.3A.55.55,0,0,0,398,297.35Z" transform="translate(-216.28 -126.82)"/><path class="cls-14" d="M398,298.3l-.25.15L326.6,257.36a1.57,1.57,0,0,0-1.54,0l-25.17,14.57-.26-.15a.55.55,0,0,1,0-.95l25.43-14.71a1.52,1.52,0,0,1,1.54,0L398,297.35A.55.55,0,0,1,398,298.3Z" transform="translate(-216.28 -126.82)"/><polygon class="cls-15" points="90 143 152.22 178.92 149.75 180.35 87.54 144.43 90 143"/><polygon class="cls-15" points="96.56 139.22 155.69 173.36 153.23 174.78 94.09 140.64 96.56 139.22"/><polygon class="cls-15" points="160.11 175.91 165.63 179.1 163.17 180.52 157.64 177.33 160.11 175.91"/><polygon class="cls-15" points="155.23 180.66 159.07 182.88 156.61 184.31 152.76 182.09 155.23 180.66"/><polygon class="cls-15" points="100.67 136.85 169.74 176.73 167.27 178.15 98.2 138.27 100.67 136.85"/><polygon class="cls-15" points="104.77 134.48 173.84 174.35 171.38 175.78 102.31 135.9 104.77 134.48"/><polygon class="cls-15" points="108.88 132.11 177.95 171.98 175.49 173.41 106.42 133.53 108.88 132.11"/></g></g><polygon class="cls-8" points="101.93 103.26 108.7 107.17 108.9 106 102.13 102.08 101.93 103.26"/><polygon class="cls-8" points="109.79 107.8 113.48 109.93 113.68 108.75 109.99 106.62 109.79 107.8"/><polygon class="cls-8" points="119.22 113.24 121.89 114.79 122.09 113.61 119.42 112.07 119.22 113.24"/><polygon class="cls-8" points="117.28 112.12 118.19 112.64 118.39 111.47 117.47 110.94 117.28 112.12"/><polygon class="cls-8" points="114.58 110.56 116.24 111.52 116.44 110.34 114.78 109.39 114.58 110.56"/><polygon class="cls-8" points="107.29 112.25 109.96 113.8 110.16 112.62 107.49 111.08 107.29 112.25"/><polygon class="cls-8" points="101.03 108.63 106.26 111.65 106.45 110.48 101.22 107.46 101.03 108.63"/><polygon class="cls-8" points="108.52 127.69 113.75 130.71 113.95 129.53 108.72 126.51 108.52 127.69"/><polygon class="cls-8" points="105.83 126.13 107.49 127.09 107.69 125.91 106.03 124.95 105.83 126.13"/><polygon class="cls-8" points="109.4 122.31 114.63 125.33 114.83 124.15 109.59 121.13 109.4 122.31"/><polygon class="cls-8" points="106.71 120.75 108.36 121.71 108.56 120.53 106.91 119.58 106.71 120.75"/><polygon class="cls-8" points="104.66 150.9 94.81 145.2 94.61 146.38 104.47 152.07 104.66 150.9"/><polygon class="cls-8" points="108.14 152.9 105.7 151.5 105.5 152.67 107.94 154.08 108.14 152.9"/><polygon class="cls-8" points="125.45 154.05 115.6 148.35 115.4 149.53 125.25 155.22 125.45 154.05"/><polygon class="cls-8" points="128.92 156.05 126.48 154.64 126.28 155.82 128.72 157.23 128.92 156.05"/><polygon class="cls-8" points="97.93 144.06 95.27 142.52 95.07 143.69 97.74 145.24 97.93 144.06"/><polygon class="cls-8" points="114.17 147.54 111.5 146 111.31 147.18 113.97 148.72 114.17 147.54"/><polygon class="cls-8" points="104.2 147.68 98.97 144.66 98.77 145.83 104 148.86 104.2 147.68"/><polygon class="cls-8" points="106.89 149.24 105.23 148.28 105.03 149.45 106.69 150.41 106.89 149.24"/><polygon class="cls-8" points="113.2 152.88 107.97 149.85 107.77 151.03 113 154.05 113.2 152.88"/><polygon class="cls-8" points="115.89 154.43 114.24 153.47 114.04 154.65 115.69 155.61 115.89 154.43"/><polygon class="cls-8" points="113.72 150.23 111.05 148.69 110.85 149.86 113.52 151.41 113.72 150.23"/><polygon class="cls-8" points="119.98 153.85 114.75 150.83 114.56 152 119.79 155.03 119.98 153.85"/><polygon class="cls-8" points="122.67 155.41 121.02 154.45 120.82 155.62 122.48 156.58 122.67 155.41"/><polygon class="cls-8" points="101.18 142.99 95.72 139.83 95.52 141.01 100.98 144.16 101.18 142.99"/><polygon class="cls-8" points="106.16 145.87 102.21 143.59 102.02 144.76 105.97 147.04 106.16 145.87"/><polygon class="cls-8" points="109.87 148.01 107.2 146.47 107 147.64 109.67 149.19 109.87 148.01"/><polygon class="cls-8" points="135.75 159.99 130.29 156.83 130.09 158.01 135.56 161.17 135.75 159.99"/><polygon class="cls-8" points="140.74 162.87 136.79 160.59 136.59 161.76 140.54 164.05 140.74 162.87"/><polygon class="cls-8" points="144.44 165.01 141.77 163.47 141.57 164.64 144.24 166.19 144.44 165.01"/><polygon class="cls-8" points="133.62 124.5 139.08 127.66 139.28 126.48 133.82 123.33 133.62 124.5"/><polygon class="cls-8" points="128.64 121.62 132.59 123.91 132.78 122.73 128.84 120.45 128.64 121.62"/><polygon class="cls-8" points="124.93 119.48 127.6 121.03 127.8 119.85 125.13 118.31 124.93 119.48"/><polygon class="cls-8" points="131.81 120.5 137.27 123.65 137.47 122.48 132.01 119.32 131.81 120.5"/><polygon class="cls-8" points="126.82 117.62 130.77 119.9 130.97 118.72 127.02 116.44 126.82 117.62"/><polygon class="cls-8" points="123.12 115.48 125.79 117.02 125.99 115.84 123.32 114.3 123.12 115.48"/><polygon class="cls-8" points="109.76 125.47 111.6 126.53 111.8 125.36 109.95 124.29 109.76 125.47"/><polygon class="cls-8" points="106.28 123.46 108.72 124.87 108.92 123.69 106.48 122.28 106.28 123.46"/><polygon class="cls-8" points="101.67 140.32 96.21 137.16 96.01 138.34 101.47 141.49 101.67 140.32"/><polygon class="cls-8" points="106.65 143.2 102.7 140.92 102.5 142.09 106.45 144.37 106.65 143.2"/><polygon class="cls-8" points="110.36 145.34 107.69 143.8 107.49 144.97 110.16 146.51 110.36 145.34"/><polygon class="cls-8" points="98.5 135.54 96.66 134.48 96.46 135.65 98.31 136.72 98.5 135.54"/><polygon class="cls-8" points="101.98 137.55 99.54 136.14 99.34 137.32 101.78 138.72 101.98 137.55"/><polygon class="cls-8" points="106.94 140.42 103.01 138.15 102.81 139.32 106.74 141.59 106.94 140.42"/><polygon class="cls-8" points="112.27 118.06 114.11 119.13 114.31 117.95 112.47 116.88 112.27 118.06"/><polygon class="cls-8" points="108.79 116.05 111.23 117.46 111.43 116.29 108.99 114.88 108.79 116.05"/><polygon class="cls-8" points="103.83 113.19 107.76 115.45 107.96 114.28 104.03 112.01 103.83 113.19"/><polygon class="cls-8" points="115.08 122.42 119 124.69 119.2 123.51 115.27 121.24 115.08 122.42"/><polygon class="cls-8" points="108.65 118.92 113.95 121.98 114.14 120.8 108.85 117.74 108.65 118.92"/><polygon class="cls-8" points="105.96 117.36 107.62 118.32 107.82 117.14 106.16 116.19 105.96 117.36"/><polygon class="cls-8" points="103.38 115.87 105.03 116.83 105.23 115.65 103.58 114.69 103.38 115.87"/><polygon class="cls-8" points="103.73 131.04 108.96 134.07 109.16 132.89 103.93 129.87 103.73 131.04"/><polygon class="cls-8" points="101.04 129.49 102.7 130.45 102.9 129.27 101.24 128.31 101.04 129.49"/><polygon class="cls-8" points="104.09 134.2 105.94 135.27 106.14 134.09 104.29 133.03 104.09 134.2"/><polygon class="cls-8" points="110.61 132.05 112.45 133.12 112.65 131.94 110.8 130.88 110.61 132.05"/><polygon class="cls-8" points="113.23 133.57 117.66 136.13 117.86 134.95 113.43 132.39 113.23 133.57"/><polygon class="cls-8" points="118.45 136.58 121.08 138.1 121.28 136.92 118.64 135.4 118.45 136.58"/><polygon class="cls-8" points="100.62 132.2 103.06 133.6 103.26 132.43 100.82 131.02 100.62 132.2"/><polygon class="cls-8" points="100.39 134.96 102.24 136.02 102.43 134.85 100.59 133.78 100.39 134.96"/><polygon class="cls-8" points="96.92 132.95 99.36 134.36 99.56 133.18 97.12 131.77 96.92 132.95"/><polygon class="cls-8" points="107.93 130.51 109.58 131.46 109.78 130.29 108.13 129.33 107.93 130.51"/><polygon class="cls-8" points="105.35 129.01 107 129.97 107.2 128.8 105.55 127.84 105.35 129.01"/><polygon class="cls-8" points="118.07 115.52 123.72 118.78 123.92 117.61 118.27 114.34 118.07 115.52"/><polygon class="cls-8" points="111.74 111.86 117.03 114.92 117.23 113.74 111.94 110.68 111.74 111.86"/><polygon class="cls-8" points="109.05 110.3 110.71 111.26 110.91 110.09 109.25 109.13 109.05 110.3"/><polygon class="cls-8" points="106.47 108.81 108.12 109.77 108.32 108.59 106.67 107.64 106.47 108.81"/><polygon class="cls-8" points="105.06 108 101.48 105.93 101.68 104.75 105.25 106.82 105.06 108"/><polygon class="cls-15" points="69.19 155.53 71.95 157.12 74.71 155.53 71.95 153.94 69.19 155.53"/><polygon class="cls-15" points="62.43 159.44 68.15 162.74 70.91 161.15 65.19 157.84 62.43 159.44"/></g></g></svg>