<svg id="_ÎÓÈ_1" data-name="—ÎÓÈ_1" xmlns="http://www.w3.org/2000/svg" xmlns:xlink="http://www.w3.org/1999/xlink" viewBox="0 0 516.95 417.89"><defs><style>.cls-1{opacity:0.5;}.cls-2{fill:#fff;}.cls-3{fill:url(#linear-gradient);}.cls-4{fill:url(#linear-gradient-2);}.cls-5{fill:url(#linear-gradient-3);}.cls-6{fill:url(#linear-gradient-4);}.cls-7{fill:url(#linear-gradient-5);}.cls-8{fill:url(#New_Gradient_Swatch_1);}.cls-9{fill:url(#linear-gradient-6);}.cls-10{fill:url(#_ÂÁ_Ï_ÌÌ_È_ËÂÌÚ_5);}.cls-11{fill:url(#linear-gradient-7);}.cls-12{fill:url(#linear-gradient-8);}.cls-13{fill:url(#linear-gradient-9);}.cls-14{fill:url(#linear-gradient-10);}.cls-15{fill:url(#linear-gradient-11);}.cls-16{fill:url(#linear-gradient-12);}.cls-17{fill:url(#linear-gradient-13);}</style><linearGradient id="linear-gradient" x1="-2565.12" y1="-66.59" x2="-2215.15" y2="-66.59" gradientTransform="matrix(-0.83, 0.36, 0.08, 1.06, -1759.07, 1143.27)" gradientUnits="userSpaceOnUse"><stop offset="0.77" stop-color="#28b350"/><stop offset="1" stop-color="#27b451"/></linearGradient><linearGradient id="linear-gradient-2" x1="-2133.54" y1="119.28" x2="-2324.06" y2="-87.32" xlink:href="#linear-gradient"/><linearGradient id="linear-gradient-3" x1="-4964.17" y1="119.04" x2="-5154.7" y2="-87.57" gradientTransform="matrix(0.83, -0.36, 0.08, 1.06, 4533.12, -1600.61)" xlink:href="#linear-gradient"/><linearGradient id="linear-gradient-4" x1="-2390.14" y1="232.4" x2="-2390.14" y2="-62.62" gradientTransform="matrix(-0.83, 0.36, 0.08, 1.06, -1759.07, 1143.27)" gradientUnits="userSpaceOnUse"><stop offset="0.77" stop-color="#2ab554"/><stop offset="0.84" stop-color="#29b051"/><stop offset="0.92" stop-color="#26a34a"/><stop offset="1" stop-color="#228e3e"/></linearGradient><linearGradient id="linear-gradient-5" x1="-2507.03" y1="-208.88" x2="-2206.06" y2="-49.35" gradientTransform="matrix(-0.83, 0.36, 0.08, 1.06, -1759.07, 1143.27)" gradientUnits="userSpaceOnUse"><stop offset="0" stop-color="#27b451"/><stop offset="1" stop-color="#27b451"/></linearGradient><linearGradient id="New_Gradient_Swatch_1" x1="-2884.82" y1="-131.3" x2="-2507.2" y2="-131.3" gradientTransform="matrix(-0.8, 0.42, 0.16, 1.05, -1829.94, 1510.6)" gradientUnits="userSpaceOnUse"><stop offset="0" stop-color="#7bdaff"/><stop offset="1" stop-color="#59bdef"/></linearGradient><linearGradient id="linear-gradient-6" x1="-2419.15" y1="69.25" x2="-2624.72" y2="-153.67" gradientTransform="matrix(-0.8, 0.42, 0.16, 1.05, -1829.94, 1510.6)" gradientUnits="userSpaceOnUse"><stop offset="0.77" stop-color="#32b75b"/><stop offset="0.91" stop-color="#2db657"/><stop offset="1" stop-color="#27b451"/></linearGradient><linearGradient id="_ÂÁ_Ï_ÌÌ_È_ËÂÌÚ_5" x1="-4637.86" y1="69.04" x2="-4843.44" y2="-153.89" gradientTransform="matrix(0.8, -0.42, 0.16, 1.05, 4236.83, -1700.6)" gradientUnits="userSpaceOnUse"><stop offset="0.77" stop-color="#59bdef"/><stop offset="0.85" stop-color="#55b8eb"/><stop offset="0.93" stop-color="#49abe1"/><stop offset="1" stop-color="#3a9bd5"/></linearGradient><linearGradient id="linear-gradient-7" x1="-2696.02" y1="191.3" x2="-2696.02" y2="-127.02" gradientTransform="matrix(-0.8, 0.42, 0.16, 1.05, -1829.94, 1510.6)" gradientUnits="userSpaceOnUse"><stop offset="0.77" stop-color="#249a42"/><stop offset="0.86" stop-color="#259f45"/><stop offset="0.96" stop-color="#26ac4c"/><stop offset="1" stop-color="#27b451"/></linearGradient><linearGradient id="linear-gradient-8" x1="-2822.14" y1="-284.82" x2="-2497.39" y2="-112.69" gradientTransform="matrix(-0.8, 0.42, 0.16, 1.05, -1829.94, 1510.6)" gradientUnits="userSpaceOnUse"><stop offset="0" stop-color="#31b75a"/><stop offset="1" stop-color="#22903f"/></linearGradient><linearGradient id="linear-gradient-9" x1="-3107.55" y1="-147.26" x2="-2705.01" y2="-147.26" gradientTransform="matrix(-0.78, 0.45, 0.2, 1.04, -1854.86, 1694.69)" gradientUnits="userSpaceOnUse"><stop offset="0" stop-color="#249d44"/><stop offset="1" stop-color="#26b04f"/></linearGradient><linearGradient id="linear-gradient-10" x1="-2611.14" y1="66.53" x2="-2830.28" y2="-171.11" gradientTransform="matrix(-0.78, 0.45, 0.2, 1.04, -1854.86, 1694.69)" gradientUnits="userSpaceOnUse"><stop offset="0.77" stop-color="#28b350"/><stop offset="0.84" stop-color="#27ae4e"/><stop offset="0.91" stop-color="#25a147"/><stop offset="0.99" stop-color="#218b3c"/><stop offset="1" stop-color="#21893b"/></linearGradient><linearGradient id="linear-gradient-11" x1="-4409.7" y1="66.34" x2="-4628.84" y2="-171.29" gradientTransform="matrix(0.78, -0.45, 0.2, 1.04, 4089.68, -1738.98)" gradientUnits="userSpaceOnUse"><stop offset="0.77" stop-color="#27b451"/><stop offset="0.84" stop-color="#26af4e"/><stop offset="0.92" stop-color="#25a247"/><stop offset="1" stop-color="#228c3b"/></linearGradient><linearGradient id="linear-gradient-12" x1="-2906.28" y1="196.63" x2="-2906.28" y2="-142.69" gradientTransform="matrix(-0.78, 0.45, 0.2, 1.04, -1854.86, 1694.69)" gradientUnits="userSpaceOnUse"><stop offset="0.77" stop-color="#2ab554"/><stop offset="0.83" stop-color="#29b051"/><stop offset="0.9" stop-color="#26a34a"/><stop offset="0.97" stop-color="#228d3d"/><stop offset="1" stop-color="#1f7f35"/></linearGradient><linearGradient id="linear-gradient-13" x1="-3040.74" y1="-310.92" x2="-2694.55" y2="-127.43" gradientTransform="matrix(-0.78, 0.45, 0.2, 1.04, -1854.86, 1694.69)" gradientUnits="userSpaceOnUse"><stop offset="0" stop-color="#21b24b"/><stop offset="1" stop-color="#42bc6b"/></linearGradient></defs><title>689 [Converted]</title><g class="cls-1"><path class="cls-2" d="M48.72,161.64h0l.26-.46.18-.34.2-.34c2.32-4.15,5.6-7.52,9.36-9.16l1.06-.46h0L189.1,94.48,318.41,38.09h0l1.07-.47a10.05,10.05,0,0,1,10.09.68l.23.15.22.17,15,11.05-9.68,2.87,12.84,173.59a24.16,24.16,0,0,1-3.27,13.38l-.19.35c-.07.11-.13.22-.19.33-2.33,4.15-5.6,7.52-9.37,9.16L77.23,361.82l1,10.91-14.18-10.5-.23-.16c-2.78-1.92-4.66-5.3-5-9.78L45.7,174.55A24,24,0,0,1,48.72,161.64Z" transform="translate(-45.65 -16.06)"/><path class="cls-3" d="M89.1,374,349.86,260.24c7.89-3.44,13.67-14.4,12.93-24.48l-13-175.21c-.74-10.09-7.74-15.48-15.63-12L73.44,162.22c-7.89,3.44-13.68,14.4-12.93,24.48l13,175.21C74.22,372,81.22,377.39,89.1,374Z" transform="translate(-45.65 -16.06)"/><path class="cls-4" d="M74.5,161.76l129.31-56.39,15.25,206L90.17,373.48c-8.48,3.7-15.91-.91-16.6-10.3L60.41,185.44C59.72,176.05,66,165.45,74.5,161.76Z" transform="translate(-45.65 -16.06)"/><path class="cls-5" d="M333.13,49,203.81,105.37,219,310,348.8,260.7c8.47-3.69,14.78-14.29,14.08-23.68L349.73,59.28C349,49.89,341.6,45.28,333.13,49Z" transform="translate(-45.65 -16.06)"/><path class="cls-6" d="M359.86,249.94A24.06,24.06,0,0,1,348.8,260.7L90.17,373.48c-4.58,2-8.85,1.55-11.92-.75L209.68,184.62Z" transform="translate(-45.65 -16.06)"/><path class="cls-7" d="M63.44,172.52A24,24,0,0,1,74.5,161.76L333.13,49c4.58-2,8.84-1.55,11.91.74L213.62,237.84Z" transform="translate(-45.65 -16.06)"/><path class="cls-2" d="M119,195.44h0l.24-.52c.05-.13.11-.25.17-.37l.18-.39c2.16-4.66,5.41-8.54,9.33-10.61L130,183h0l134.54-71.21,134.53-71.2h0L400.2,40c3.92-2.07,7.77-1.94,10.91-.09l.26.14.25.16,17,10.67-10.18,3.88,28,185.72A26.16,26.16,0,0,1,444,255.09l-.18.39c-.06.12-.11.24-.17.37-2.16,4.66-5.41,8.55-9.33,10.62L166,408.49l2,11.66L151.85,410l-.25-.15c-3.15-1.84-5.44-5.32-6.17-10.11L116.8,209.58A25.84,25.84,0,0,1,119,195.44Z" transform="translate(-45.65 -16.06)"/><path class="cls-8" d="M179.75,420.57,451,277c8.2-4.35,13.54-16.61,11.91-27.4L434.72,62.14c-1.63-10.79-9.6-16-17.8-11.67L145.64,194.05c-8.21,4.34-13.54,16.61-11.92,27.4L162,408.9C163.58,419.69,171.54,424.91,179.75,420.57Z" transform="translate(-45.65 -16.06)"/><path class="cls-9" d="M146.74,193.46l134.54-71.2,33.18,220.36L180.85,420c-8.81,4.67-17.18.31-18.7-9.73L133.52,220.09C132,210.05,137.93,198.13,146.74,193.46Z" transform="translate(-45.65 -16.06)"/><path class="cls-10" d="M415.81,51.05,281.28,122.26l33,219,135.67-63.66c8.82-4.66,14.74-16.59,13.23-26.62L434.51,60.78C433,50.74,424.63,46.39,415.81,51.05Z" transform="translate(-45.65 -16.06)"/><path class="cls-11" d="M461,265.08c-2.36,5.32-6.26,10-11,12.49L180.85,420c-4.76,2.53-9.39,2.39-12.88.17l126.08-213.1Z" transform="translate(-45.65 -16.06)"/><path class="cls-12" d="M135.72,206a26,26,0,0,1,11-12.49L415.81,51.05c4.77-2.52,9.39-2.39,12.88-.16L302.62,264Z" transform="translate(-45.65 -16.06)"/></g><path class="cls-2" d="M193.38,194.63h0l.23-.57c.06-.13.11-.27.17-.4l.18-.42c2.12-5.05,5.43-9.32,9.52-11.68l1.15-.67h0L345.15,99.73,485.67,18.57h0l1.16-.66c4.09-2.37,8.2-2.38,11.62-.53.1,0,.19.1.28.14l.28.16,18.55,10.69-10.7,4.54L544,229.66a27.85,27.85,0,0,1-2,15.72l-.18.42c-.06.13-.11.27-.17.4-2.12,5.05-5.43,9.32-9.52,11.68L251.83,419.75l2.58,12.35-17.57-10.18-.28-.15c-3.43-1.84-6-5.45-7-10.53l-38-201.46A27.66,27.66,0,0,1,193.38,194.63Z" transform="translate(-45.65 -16.06)"/><path class="cls-13" d="M267,432.08,550.32,268.43c8.57-4.95,13.77-18.23,11.61-29.66L524.47,40.18c-2.15-11.43-10.84-16.68-19.41-11.73L221.7,192.11c-8.56,4.94-13.76,18.22-11.61,29.65l37.46,198.59C249.71,431.78,258.4,437,267,432.08Z" transform="translate(-45.65 -16.06)"/><path class="cls-14" d="M222.86,191.44l140.52-81.16,44,233.45L268.12,431.41c-9.2,5.32-18.29,1-20.3-9.63l-38-201.46C207.82,209.69,213.65,196.76,222.86,191.44Z" transform="translate(-45.65 -16.06)"/><path class="cls-15" d="M503.9,29.12,363.38,110.28l43.76,232,142-73.17c9.21-5.31,15.05-18.25,13-28.88l-38-201.46C522.2,28.11,513.11,23.8,503.9,29.12Z" transform="translate(-45.65 -16.06)"/><path class="cls-16" d="M560.42,255.36c-2.3,5.76-6.28,10.86-11.26,13.73l-281,162.32c-5,2.88-9.9,2.92-13.71.69l125.91-232Z" transform="translate(-45.65 -16.06)"/><path class="cls-17" d="M211.61,205.17c2.3-5.75,6.28-10.86,11.25-13.73l281-162.32c5-2.88,9.91-2.92,13.72-.69l-125.92,232Z" transform="translate(-45.65 -16.06)"/></svg>