<svg id="_ÎÓÈ_1" data-name="—ÎÓÈ_1" xmlns="http://www.w3.org/2000/svg" viewBox="0 0 361.18 345.34"><defs><style>.cls-1{fill:#b2d3ea;}.cls-2{fill:#173d7a;}.cls-3{fill:#396caa;}.cls-4{fill:#274f89;}.cls-5{fill:#d4ecff;}.cls-6{fill:#fff;}.cls-7{fill:#5793ce;}.cls-8{fill:#6614cf;}.cls-9{fill:#fdd762;}.cls-10{fill:#ffc2b0;}.cls-11{fill:#8a2ae3;}.cls-12{fill:#983be9;}.cls-13{fill:#ea9c92;}.cls-14{fill:#b45ef4;}.cls-15{fill:#d8892b;}.cls-16{fill:#d29fff;}.cls-17{fill:#e8a200;}.cls-18{fill:#ff2c9c;}.cls-19{fill:#721bd5;}.cls-20{fill:#7e23dc;}</style></defs><title>training</title><path class="cls-1" d="M318.56,167.39,298.64,155.8c-1.69-1-1.48-2.67.47-3.79l19-11.07a7.3,7.3,0,0,1,6.56-.27l19.93,11.59c1.68,1,1.47,2.67-.48,3.79l-19,11.07A7.3,7.3,0,0,1,318.56,167.39Z" transform="translate(-206.38 -25.33)"/><path class="cls-2" d="M352.24,130.23h0v-5.08H325.49c-2.14-1.23-5.87-1.08-8.34.35l.8-.33-27,0v5.42a2.42,2.42,0,0,0,1.43,2.23l25.33,14.73c2.13,1.24,5.87,1.08,8.33-.34l24.14-14.07C351.63,132.28,352.32,131.22,352.24,130.23Z" transform="translate(-206.38 -25.33)"/><path class="cls-3" d="M321.62,124.31a9.62,9.62,0,0,0-4.47,1.17l.8-.33-27,0v5.42a2.42,2.42,0,0,0,1.43,2.23l25.33,14.73a7.61,7.61,0,0,0,3.87.83Z" transform="translate(-206.38 -25.33)"/><path class="cls-1" d="M294,125.13h-3v5.42a2.42,2.42,0,0,0,1.43,2.23l1.62.93Z" transform="translate(-206.38 -25.33)"/><path class="cls-4" d="M318.27,147.77a9.52,9.52,0,0,0,6.67-.07v-7.09h-6.67Z" transform="translate(-206.38 -25.33)"/><path class="cls-5" d="M317.74,142.14l-25.33-14.73c-2.13-1.23-1.86-3.39.6-4.81l24.14-14.07c2.47-1.42,6.2-1.57,8.34-.34l25.32,14.73c2.13,1.24,1.87,3.39-.6,4.81L326.07,141.8C323.61,143.22,319.87,143.38,317.74,142.14Z" transform="translate(-206.38 -25.33)"/><path class="cls-6" d="M322.64,122.37,315.2,118a1.1,1.1,0,0,1,0-2.08,3.94,3.94,0,0,1,3.6,0l7.45,4.33a1.1,1.1,0,0,1,0,2.08A4,4,0,0,1,322.64,122.37Z" transform="translate(-206.38 -25.33)"/><path class="cls-6" d="M333.47,128.69,329,126a1.1,1.1,0,0,1,0-2.08,3.94,3.94,0,0,1,3.6,0l4.52,2.66a1.1,1.1,0,0,1,0,2.08A3.94,3.94,0,0,1,333.47,128.69Z" transform="translate(-206.38 -25.33)"/><path class="cls-6" d="M312.21,125l-4.52-2.67a1.1,1.1,0,0,1,0-2.08,3.94,3.94,0,0,1,3.6,0l4.52,2.67a1.1,1.1,0,0,1,0,2.08A4,4,0,0,1,312.21,125Z" transform="translate(-206.38 -25.33)"/><path class="cls-1" d="M523.56,279,382.24,197.43c-4-2.3-11-2-15.6.65l-96.22,55.54c-4.62,2.66-5.12,6.69-1.12,9l48.58,28.05a26,26,0,0,0-10.54,3.07c-7.4,4.27-7.4,11.2,0,15.48s19.41,4.27,26.81,0c3-1.72,4.73-3.86,5.31-6.09l11.48,6.63a23.69,23.69,0,0,0-6.56,2.49c-7.55,4.36-7.55,11.43,0,15.79s19.8,4.36,27.35,0a13.12,13.12,0,0,0,4.31-3.79l34.57,20c4,2.31,11,2,15.6-.64L522.44,288C527.05,285.36,527.56,281.33,523.56,279Z" transform="translate(-206.38 -25.33)"/><path class="cls-2" d="M561.89,111.21l-147.18-85a5.9,5.9,0,0,0-5-.61v0l-.26.1-.07,0-5.32,2,4.78,2.34c0,.09-.05.17-.07.26l-24,109.12c-1.2,5.46,1.2,11.84,5.36,14.24l143.64,82.93-.51,6.09,5.81-2.26c2-.91,3.52-3,4.16-5.92l24-109.12C568.45,120,566.05,113.61,561.89,111.21Z" transform="translate(-206.38 -25.33)"/><path class="cls-3" d="M561.89,111.21l-147.18-85a5.9,5.9,0,0,0-5-.61v0l-.26.1-.07,0-5.32,2,4.78,2.34c0,.09-.05.17-.07.26L393,102.29l72,56.1,101.54-41.31A11.49,11.49,0,0,0,561.89,111.21Z" transform="translate(-206.38 -25.33)"/><path class="cls-4" d="M556.34,128l11.2-4.77c.21-4.33-1.59-8.82-4.54-11.21l-17.73,7.46Z" transform="translate(-206.38 -25.33)"/><path class="cls-5" d="M528.19,242.17,381,157.2c-4.17-2.41-6.57-8.78-5.37-14.24l24-109.13c1.2-5.46,5.55-7.93,9.71-5.53l147.18,85c4.16,2.4,6.57,8.78,5.37,14.24l-24,109.12C536.7,242.09,532.36,244.57,528.19,242.17Z" transform="translate(-206.38 -25.33)"/><path class="cls-6" d="M525,234.05,386.59,154.18c-3.81-2.2-6-8-4.91-13l21.93-99.86c1.1-5,5.08-7.27,8.89-5.07L550.92,116.1c3.81,2.2,6,8,4.91,13L533.89,229C532.79,234,528.81,236.25,525,234.05Z" transform="translate(-206.38 -25.33)"/><path class="cls-6" d="M525,234.05,386.59,154.18c-3.81-2.2-6-8-4.91-13l21.93-99.86c1.1-5,5.08-7.27,8.89-5.07L550.92,116.1c3.81,2.2,6,8,4.91,13L533.89,229C532.79,234,528.81,236.25,525,234.05Z" transform="translate(-206.38 -25.33)"/><path class="cls-2" d="M530.23,245.87l-20.12-2.66-129.87-75c-4.16-2.41-11.43-2.11-16.24.67L272,222l-12.17-1.61v6.9h0c-.08,1.59.83,3.13,2.8,4.26l147.17,85c4.17,2.41,11.44,2.1,16.25-.67L526.25,258c2.71-1.56,4-3.58,4-5.46h0Z" transform="translate(-206.38 -25.33)"/><path class="cls-3" d="M432.65,198.49l-9.23-5.32H322L272,222l-12.17-1.61v6.9h0c-.08,1.59.83,3.13,2.8,4.26l147.17,85a15.2,15.2,0,0,0,8.38,1.57Z" transform="translate(-206.38 -25.33)"/><path class="cls-7" d="M265.21,221.12l-5.4-.71v6.9h0c-.08,1.59.83,3.13,2.8,4.26l2.59,1.5Z" transform="translate(-206.38 -25.33)"/><path class="cls-4" d="M411.27,317.24a18.85,18.85,0,0,0,13.81-.86V301H411.27Z" transform="translate(-206.38 -25.33)"/><path class="cls-5" d="M409.79,309.66l-147.17-85c-4.17-2.41-3.65-6.61,1.16-9.38L364,157.47c4.81-2.78,12.08-3.08,16.24-.68l147.18,85c4.16,2.4,3.64,6.6-1.17,9.37L426,309C421.23,311.76,414,312.06,409.79,309.66Z" transform="translate(-206.38 -25.33)"/><path class="cls-2" d="M325.21,196.55l-6.66-3.84c-.53-.31-.46-.85.15-1.2l7.86-4.54a2.31,2.31,0,0,1,2.09-.09l6.66,3.85c.53.3.47.84-.15,1.2l-7.86,4.54A2.34,2.34,0,0,1,325.21,196.55Z" transform="translate(-206.38 -25.33)"/><path class="cls-2" d="M335.5,202.49l-6.66-3.84c-.54-.31-.47-.85.15-1.21l7.86-4.54a2.32,2.32,0,0,1,2.08-.08l6.66,3.84c.54.31.47.85-.15,1.21l-7.86,4.54A2.32,2.32,0,0,1,335.5,202.49Z" transform="translate(-206.38 -25.33)"/><path class="cls-2" d="M345.78,208.43l-6.66-3.85c-.53-.3-.47-.84.15-1.2l7.86-4.54a2.34,2.34,0,0,1,2.09-.08l6.66,3.84c.53.31.46.85-.15,1.2l-7.86,4.54A2.31,2.31,0,0,1,345.78,208.43Z" transform="translate(-206.38 -25.33)"/><path class="cls-2" d="M360,203.53l-6.66-3.85c-.53-.31-.46-.85.15-1.2l6.6-3.81a2.31,2.31,0,0,1,2.09-.09l6.66,3.85c.53.3.46.84-.15,1.2l-6.6,3.81A2.34,2.34,0,0,1,360,203.53Z" transform="translate(-206.38 -25.33)"/><path class="cls-2" d="M370.29,209.46l-6.66-3.84c-.54-.31-.47-.85.15-1.21l6.59-3.81a2.34,2.34,0,0,1,2.09-.08l6.66,3.84c.53.31.47.85-.15,1.21l-6.6,3.81A2.32,2.32,0,0,1,370.29,209.46Z" transform="translate(-206.38 -25.33)"/><path class="cls-2" d="M380.57,215.4l-6.66-3.84c-.53-.31-.47-.85.15-1.21l6.6-3.81a2.32,2.32,0,0,1,2.08-.08l6.66,3.84c.54.31.47.85-.15,1.2l-6.59,3.81A2.31,2.31,0,0,1,380.57,215.4Z" transform="translate(-206.38 -25.33)"/><path class="cls-2" d="M390.85,221.34l-6.66-3.85c-.53-.31-.46-.84.15-1.2l6.6-3.81a2.31,2.31,0,0,1,2.09-.09l6.66,3.85c.53.31.46.85-.15,1.2l-6.6,3.81A2.31,2.31,0,0,1,390.85,221.34Z" transform="translate(-206.38 -25.33)"/><path class="cls-2" d="M401.14,227.28l-6.66-3.85c-.54-.31-.47-.85.15-1.2l6.6-3.81a2.29,2.29,0,0,1,2.08-.09l6.66,3.84c.54.31.47.85-.15,1.21l-6.6,3.81A2.32,2.32,0,0,1,401.14,227.28Z" transform="translate(-206.38 -25.33)"/><path class="cls-2" d="M411.42,233.21l-6.66-3.84c-.53-.31-.47-.85.15-1.21l6.6-3.81a2.34,2.34,0,0,1,2.09-.08l6.65,3.84c.54.31.47.85-.15,1.21l-6.59,3.81A2.34,2.34,0,0,1,411.42,233.21Z" transform="translate(-206.38 -25.33)"/><path class="cls-2" d="M421.7,239.15l-6.65-3.84c-.54-.31-.47-.85.15-1.21l6.59-3.81a2.34,2.34,0,0,1,2.09-.09l6.66,3.85c.53.31.47.85-.15,1.2l-6.6,3.81A2.31,2.31,0,0,1,421.7,239.15Z" transform="translate(-206.38 -25.33)"/><path class="cls-2" d="M432,245.09l-6.66-3.85c-.54-.31-.47-.85.15-1.2l6.6-3.81a2.29,2.29,0,0,1,2.08-.09l6.66,3.85c.54.31.47.84-.15,1.2l-6.6,3.81A2.29,2.29,0,0,1,432,245.09Z" transform="translate(-206.38 -25.33)"/><path class="cls-2" d="M442.27,251l-6.66-3.84c-.53-.31-.46-.85.15-1.2l6.6-3.81a2.31,2.31,0,0,1,2.09-.09l6.66,3.84c.53.31.46.85-.15,1.21l-6.6,3.81A2.34,2.34,0,0,1,442.27,251Z" transform="translate(-206.38 -25.33)"/><path class="cls-2" d="M452.56,257l-6.66-3.84c-.54-.31-.47-.85.15-1.21l6.59-3.81a2.34,2.34,0,0,1,2.09-.08l6.66,3.84c.53.31.47.85-.15,1.21l-6.6,3.81A2.32,2.32,0,0,1,452.56,257Z" transform="translate(-206.38 -25.33)"/><path class="cls-3" d="M375.15,200.72l-6.65-3.85c-.54-.31-.47-.85.15-1.2l6.59-3.81a2.31,2.31,0,0,1,2.09-.09l6.66,3.84c.53.31.47.85-.15,1.21l-6.6,3.81A2.38,2.38,0,0,1,375.15,200.72Z" transform="translate(-206.38 -25.33)"/><path class="cls-3" d="M364.72,194.69l-6.66-3.85c-.54-.3-.47-.84.15-1.2l6.6-3.81a2.32,2.32,0,0,1,2.08-.09l6.66,3.85c.54.31.47.85-.15,1.2l-6.6,3.81A2.29,2.29,0,0,1,364.72,194.69Z" transform="translate(-206.38 -25.33)"/><path class="cls-2" d="M354.26,188.65l-14.34-8.28c-.53-.31-.47-.85.15-1.2l6.6-3.81a2.31,2.31,0,0,1,2.09-.09l14.34,8.28c.53.31.46.85-.15,1.21l-6.6,3.81A2.34,2.34,0,0,1,354.26,188.65Z" transform="translate(-206.38 -25.33)"/><path class="cls-2" d="M361.57,181.31l-11.64-6.72c-.53-.31-.47-.84.15-1.2l6.6-3.81a2.31,2.31,0,0,1,2.09-.09l11.63,6.72c.54.31.47.85-.15,1.21l-6.59,3.81A2.34,2.34,0,0,1,361.57,181.31Z" transform="translate(-206.38 -25.33)"/><path class="cls-3" d="M385.44,206.65l-6.66-3.84c-.54-.31-.47-.85.15-1.21l6.6-3.81a2.32,2.32,0,0,1,2.08-.08l6.66,3.84c.54.31.47.85-.15,1.21l-6.6,3.81A2.32,2.32,0,0,1,385.44,206.65Z" transform="translate(-206.38 -25.33)"/><path class="cls-2" d="M395.72,212.59l-6.66-3.85c-.53-.3-.46-.84.15-1.2l6.6-3.81a2.34,2.34,0,0,1,2.09-.09l6.66,3.85c.53.31.46.85-.15,1.2l-6.6,3.81A2.31,2.31,0,0,1,395.72,212.59Z" transform="translate(-206.38 -25.33)"/><path class="cls-2" d="M406,218.53l-6.66-3.85c-.54-.31-.47-.85.15-1.2l6.59-3.81a2.31,2.31,0,0,1,2.09-.09l6.66,3.85c.53.31.47.84-.15,1.2l-6.6,3.81A2.29,2.29,0,0,1,406,218.53Z" transform="translate(-206.38 -25.33)"/><path class="cls-2" d="M416.29,224.46l-6.66-3.84c-.53-.31-.47-.85.15-1.2l6.6-3.81a2.29,2.29,0,0,1,2.08-.09l6.66,3.84c.54.31.47.85-.15,1.21l-6.59,3.81A2.34,2.34,0,0,1,416.29,224.46Z" transform="translate(-206.38 -25.33)"/><path class="cls-2" d="M426.57,230.4l-6.66-3.84c-.53-.31-.46-.85.15-1.21l6.6-3.81a2.34,2.34,0,0,1,2.09-.08l6.66,3.84c.53.31.46.85-.15,1.21l-6.6,3.8A2.31,2.31,0,0,1,426.57,230.4Z" transform="translate(-206.38 -25.33)"/><path class="cls-2" d="M436.86,236.34l-6.66-3.85c-.54-.3-.47-.84.15-1.2l6.6-3.81a2.32,2.32,0,0,1,2.08-.09l6.66,3.85c.54.31.47.85-.15,1.2l-6.6,3.81A2.29,2.29,0,0,1,436.86,236.34Z" transform="translate(-206.38 -25.33)"/><path class="cls-2" d="M447.14,242.28l-6.66-3.85c-.53-.31-.47-.85.15-1.2l6.6-3.81a2.31,2.31,0,0,1,2.09-.09l6.65,3.85c.54.3.47.84-.15,1.2l-6.59,3.81A2.34,2.34,0,0,1,447.14,242.28Z" transform="translate(-206.38 -25.33)"/><path class="cls-2" d="M457.42,248.21l-6.65-3.84c-.54-.31-.47-.85.14-1.21l6.6-3.81a2.34,2.34,0,0,1,2.09-.08l6.66,3.84c.53.31.47.85-.15,1.21l-6.6,3.81A2.34,2.34,0,0,1,457.42,248.21Z" transform="translate(-206.38 -25.33)"/><path class="cls-2" d="M467.71,254.15l-6.66-3.84c-.54-.31-.47-.85.15-1.21l6.6-3.81a2.32,2.32,0,0,1,2.08-.08l6.66,3.84c.54.31.47.85-.15,1.2l-6.6,3.81A2.29,2.29,0,0,1,467.71,254.15Z" transform="translate(-206.38 -25.33)"/><path class="cls-2" d="M486,264.71l-14.53-8.39c-.53-.31-.47-.85.15-1.21l6.6-3.81a2.32,2.32,0,0,1,2.08-.08l14.53,8.39c.54.3.47.84-.15,1.2l-6.59,3.81A2.34,2.34,0,0,1,486,264.71Z" transform="translate(-206.38 -25.33)"/><path class="cls-2" d="M506,253.15l-12.26-7.08c-.54-.31-.47-.85.15-1.21l6.6-3.81a2.32,2.32,0,0,1,2.08-.08l12.27,7.08c.53.31.46.84-.15,1.2l-6.6,3.81A2.31,2.31,0,0,1,506,253.15Z" transform="translate(-206.38 -25.33)"/><path class="cls-2" d="M403.45,205.49l-6.66-3.84c-.54-.31-.47-.85.15-1.21l6.6-3.81a2.32,2.32,0,0,1,2.08-.08l6.66,3.84c.54.31.47.85-.15,1.2l-6.6,3.81A2.29,2.29,0,0,1,403.45,205.49Z" transform="translate(-206.38 -25.33)"/><path class="cls-2" d="M392.91,199.41l-6.66-3.85c-.54-.31-.47-.85.15-1.2l6.6-3.81a2.29,2.29,0,0,1,2.08-.09l6.66,3.85c.54.3.47.84-.15,1.2l-6.6,3.81A2.32,2.32,0,0,1,392.91,199.41Z" transform="translate(-206.38 -25.33)"/><path class="cls-3" d="M382.37,193.32l-6.66-3.84c-.54-.31-.47-.85.15-1.21l6.6-3.81a2.32,2.32,0,0,1,2.08-.08l6.66,3.84c.54.31.47.85-.15,1.2l-6.6,3.81A2.29,2.29,0,0,1,382.37,193.32Z" transform="translate(-206.38 -25.33)"/><path class="cls-2" d="M371.83,187.24l-6.66-3.85c-.53-.31-.47-.85.15-1.2l6.6-3.81a2.29,2.29,0,0,1,2.08-.09l6.66,3.85c.54.3.47.84-.15,1.2l-6.6,3.81A2.32,2.32,0,0,1,371.83,187.24Z" transform="translate(-206.38 -25.33)"/><path class="cls-2" d="M413.73,211.43l-6.66-3.85c-.53-.31-.47-.84.15-1.2l6.6-3.81a2.31,2.31,0,0,1,2.09-.09l6.65,3.85c.54.31.47.85-.14,1.2l-6.6,3.81A2.31,2.31,0,0,1,413.73,211.43Z" transform="translate(-206.38 -25.33)"/><path class="cls-2" d="M424,217.37l-6.65-3.85c-.54-.31-.47-.85.15-1.2l6.59-3.81a2.31,2.31,0,0,1,2.09-.09l6.66,3.84c.53.31.47.85-.15,1.21l-6.6,3.81A2.34,2.34,0,0,1,424,217.37Z" transform="translate(-206.38 -25.33)"/><path class="cls-2" d="M434.3,223.3l-6.66-3.84c-.54-.31-.47-.85.15-1.21l6.6-3.81a2.32,2.32,0,0,1,2.08-.08l6.66,3.84c.54.31.47.85-.15,1.21l-6.6,3.81A2.32,2.32,0,0,1,434.3,223.3Z" transform="translate(-206.38 -25.33)"/><path class="cls-2" d="M444.58,229.24l-6.66-3.84c-.53-.31-.46-.85.15-1.21l6.6-3.81a2.34,2.34,0,0,1,2.09-.09l6.66,3.85c.53.31.46.85-.15,1.2l-6.6,3.81A2.31,2.31,0,0,1,444.58,229.24Z" transform="translate(-206.38 -25.33)"/><path class="cls-2" d="M454.87,235.18l-6.66-3.85c-.54-.31-.47-.85.15-1.2l6.59-3.81a2.31,2.31,0,0,1,2.09-.09l6.66,3.85c.53.31.47.84-.15,1.2l-6.6,3.81A2.29,2.29,0,0,1,454.87,235.18Z" transform="translate(-206.38 -25.33)"/><path class="cls-2" d="M465.15,241.11l-6.66-3.84c-.53-.31-.47-.85.15-1.2l6.6-3.81a2.29,2.29,0,0,1,2.08-.09L474,236c.54.31.47.85-.15,1.21L467.24,241A2.34,2.34,0,0,1,465.15,241.11Z" transform="translate(-206.38 -25.33)"/><path class="cls-2" d="M475.43,247.05l-6.66-3.84c-.53-.31-.46-.85.15-1.21l6.6-3.81a2.34,2.34,0,0,1,2.09-.08l6.66,3.84c.53.31.46.85-.15,1.21l-6.6,3.81A2.34,2.34,0,0,1,475.43,247.05Z" transform="translate(-206.38 -25.33)"/><path class="cls-2" d="M485.72,253l-6.66-3.85c-.54-.3-.47-.84.15-1.2l6.6-3.81a2.32,2.32,0,0,1,2.08-.09l6.66,3.85c.54.31.47.85-.15,1.2l-6.6,3.81A2.29,2.29,0,0,1,485.72,253Z" transform="translate(-206.38 -25.33)"/><path class="cls-2" d="M496,258.93l-6.66-3.85c-.53-.31-.47-.85.15-1.2l6.6-3.81a2.31,2.31,0,0,1,2.09-.09l6.65,3.85c.54.3.47.84-.15,1.2l-6.59,3.81A2.34,2.34,0,0,1,496,258.93Z" transform="translate(-206.38 -25.33)"/><path class="cls-2" d="M398,190.81,391.37,187c-.53-.31-.46-.85.15-1.2l6.6-3.81a2.31,2.31,0,0,1,2.09-.09l6.66,3.84c.53.31.46.85-.15,1.21l-6.6,3.81A2.38,2.38,0,0,1,398,190.81Z" transform="translate(-206.38 -25.33)"/><path class="cls-2" d="M387.8,184.9l-6.66-3.85c-.53-.31-.47-.85.15-1.2l6.6-3.81A2.29,2.29,0,0,1,390,176l6.66,3.85c.54.31.47.85-.15,1.2l-6.59,3.81A2.31,2.31,0,0,1,387.8,184.9Z" transform="translate(-206.38 -25.33)"/><path class="cls-2" d="M377.57,179l-6.66-3.85c-.54-.3-.47-.84.15-1.2l6.6-3.81a2.32,2.32,0,0,1,2.08-.09l6.66,3.85c.54.31.47.85-.15,1.2l-6.6,3.81A2.29,2.29,0,0,1,377.57,179Z" transform="translate(-206.38 -25.33)"/><path class="cls-2" d="M367.33,173.08l-6.65-3.84c-.54-.31-.47-.85.15-1.21l6.59-3.81a2.34,2.34,0,0,1,2.09-.08l6.66,3.84c.53.31.47.85-.15,1.21l-6.6,3.81A2.34,2.34,0,0,1,367.33,173.08Z" transform="translate(-206.38 -25.33)"/><path class="cls-2" d="M377.86,167l-6.66-3.85c-.54-.31-.47-.85.15-1.2l2.18-1.26a2.29,2.29,0,0,1,2.08-.09l6.66,3.85c.54.31.47.84-.15,1.2l-2.18,1.26A2.29,2.29,0,0,1,377.86,167Z" transform="translate(-206.38 -25.33)"/><path class="cls-2" d="M391.21,174.72l-6.66-3.85c-.53-.31-.47-.85.15-1.2l2.18-1.26a2.31,2.31,0,0,1,2.09-.09l6.66,3.85c.53.31.46.84-.15,1.2l-2.18,1.26A2.31,2.31,0,0,1,391.21,174.72Z" transform="translate(-206.38 -25.33)"/><path class="cls-2" d="M401.4,180.6l-6.66-3.85c-.53-.3-.47-.84.15-1.2l2.18-1.26a2.34,2.34,0,0,1,2.09-.09l6.66,3.85c.53.31.46.85-.15,1.2l-2.18,1.26A2.31,2.31,0,0,1,401.4,180.6Z" transform="translate(-206.38 -25.33)"/><path class="cls-2" d="M411.59,186.48l-6.66-3.84c-.53-.31-.47-.85.15-1.21l2.18-1.26a2.34,2.34,0,0,1,2.09-.08l6.66,3.84c.53.31.46.85-.15,1.21l-2.18,1.26A2.34,2.34,0,0,1,411.59,186.48Z" transform="translate(-206.38 -25.33)"/><path class="cls-2" d="M421.78,192.37l-6.66-3.85c-.53-.31-.47-.85.15-1.2l2.18-1.26a2.31,2.31,0,0,1,2.09-.09l6.66,3.85c.53.3.46.84-.15,1.2l-2.18,1.26A2.34,2.34,0,0,1,421.78,192.37Z" transform="translate(-206.38 -25.33)"/><path class="cls-2" d="M478.67,225.21,472,221.37c-.54-.31-.47-.85.15-1.21l2.18-1.26a2.34,2.34,0,0,1,2.09-.08l6.66,3.84c.53.31.46.85-.15,1.2l-2.19,1.26A2.29,2.29,0,0,1,478.67,225.21Z" transform="translate(-206.38 -25.33)"/><path class="cls-2" d="M488.86,231.09l-6.66-3.84c-.54-.31-.47-.85.15-1.21l2.18-1.25a2.31,2.31,0,0,1,2.09-.09l6.66,3.84c.53.31.46.85-.15,1.21L490.94,231A2.32,2.32,0,0,1,488.86,231.09Z" transform="translate(-206.38 -25.33)"/><path class="cls-2" d="M499.05,237l-6.66-3.85c-.54-.31-.47-.85.15-1.2l2.18-1.26a2.31,2.31,0,0,1,2.09-.09l6.66,3.85c.53.31.46.84-.15,1.2l-2.19,1.26A2.29,2.29,0,0,1,499.05,237Z" transform="translate(-206.38 -25.33)"/><path class="cls-2" d="M509.24,242.86,502.58,239c-.54-.31-.47-.85.15-1.21l2.18-1.26a2.34,2.34,0,0,1,2.09-.08l6.66,3.84c.53.31.46.85-.15,1.2l-2.19,1.26A2.29,2.29,0,0,1,509.24,242.86Z" transform="translate(-206.38 -25.33)"/><path class="cls-2" d="M408.32,196.74l-6.66-3.84c-.54-.31-.47-.85.15-1.21l6.59-3.81a2.34,2.34,0,0,1,2.09-.08l6.66,3.84c.53.31.47.85-.15,1.21l-6.6,3.81A2.32,2.32,0,0,1,408.32,196.74Z" transform="translate(-206.38 -25.33)"/><path class="cls-2" d="M418.6,202.68l-6.66-3.85c-.53-.3-.47-.84.15-1.2l6.6-3.81a2.32,2.32,0,0,1,2.08-.09l6.66,3.85c.54.31.47.85-.15,1.2l-6.59,3.81A2.31,2.31,0,0,1,418.6,202.68Z" transform="translate(-206.38 -25.33)"/><path class="cls-2" d="M428.88,208.62l-6.66-3.85c-.53-.31-.46-.85.15-1.2l6.6-3.81a2.31,2.31,0,0,1,2.09-.09l6.66,3.85c.53.31.46.84-.15,1.2l-6.6,3.81A2.31,2.31,0,0,1,428.88,208.62Z" transform="translate(-206.38 -25.33)"/><path class="cls-2" d="M439.17,214.55l-6.66-3.84c-.54-.31-.47-.85.15-1.2l6.6-3.81a2.29,2.29,0,0,1,2.08-.09l6.66,3.84c.54.31.47.85-.15,1.21l-6.6,3.81A2.32,2.32,0,0,1,439.17,214.55Z" transform="translate(-206.38 -25.33)"/><path class="cls-2" d="M449.45,220.49l-6.66-3.84c-.53-.31-.47-.85.15-1.21l6.6-3.81a2.34,2.34,0,0,1,2.09-.08l6.65,3.84c.54.31.47.85-.15,1.21l-6.59,3.81A2.34,2.34,0,0,1,449.45,220.49Z" transform="translate(-206.38 -25.33)"/><path class="cls-2" d="M459.73,226.43l-6.65-3.85c-.54-.3-.47-.84.15-1.2l6.59-3.81a2.34,2.34,0,0,1,2.09-.09l6.66,3.85c.53.31.47.85-.15,1.2l-6.6,3.81A2.31,2.31,0,0,1,459.73,226.43Z" transform="translate(-206.38 -25.33)"/><path class="cls-2" d="M470,232.37l-6.66-3.85c-.54-.31-.47-.85.15-1.2l6.6-3.81a2.29,2.29,0,0,1,2.08-.09l6.66,3.85c.54.3.47.84-.15,1.2l-6.6,3.81A2.32,2.32,0,0,1,470,232.37Z" transform="translate(-206.38 -25.33)"/><path class="cls-2" d="M480.3,238.3l-6.66-3.84c-.53-.31-.46-.85.15-1.21l6.6-3.81a2.34,2.34,0,0,1,2.09-.08l6.66,3.84c.53.31.46.85-.15,1.21l-6.6,3.81A2.34,2.34,0,0,1,480.3,238.3Z" transform="translate(-206.38 -25.33)"/><path class="cls-2" d="M490.59,244.24l-6.66-3.84c-.54-.31-.47-.85.15-1.21l6.59-3.81a2.34,2.34,0,0,1,2.09-.08l6.66,3.84c.53.31.47.85-.15,1.2l-6.6,3.81A2.29,2.29,0,0,1,490.59,244.24Z" transform="translate(-206.38 -25.33)"/><path class="cls-2" d="M349.52,197.48l-19.61-11.33c-.53-.31-.47-.85.15-1.2l6.6-3.81a2.29,2.29,0,0,1,2.08-.09l19.62,11.33c.53.3.46.84-.15,1.2l-6.6,3.81A2.34,2.34,0,0,1,349.52,197.48Z" transform="translate(-206.38 -25.33)"/><path class="cls-2" d="M475.86,270.42l-19.61-11.33c-.54-.31-.47-.84.15-1.2l6.6-3.81a2.29,2.29,0,0,1,2.08-.09l19.61,11.33c.54.3.47.84-.15,1.2L478,270.33A2.31,2.31,0,0,1,475.86,270.42Z" transform="translate(-206.38 -25.33)"/><path class="cls-2" d="M434.73,259.79l-6.65-3.85c-.54-.31-.47-.85.14-1.2l7.87-4.54a2.32,2.32,0,0,1,2.08-.09l6.66,3.85c.53.31.47.85-.15,1.2l-7.86,4.54A2.31,2.31,0,0,1,434.73,259.79Z" transform="translate(-206.38 -25.33)"/><path class="cls-2" d="M360.05,216.67l-10.65-6.15c-.53-.31-.46-.85.15-1.2l7.86-4.54a2.31,2.31,0,0,1,2.09-.09l10.65,6.15c.53.31.47.85-.15,1.21l-7.86,4.53A2.31,2.31,0,0,1,360.05,216.67Z" transform="translate(-206.38 -25.33)"/><path class="cls-2" d="M424.83,254.07l-10.65-6.15c-.54-.31-.47-.85.15-1.21l7.86-4.53a2.29,2.29,0,0,1,2.08-.09l10.65,6.15c.54.31.47.85-.15,1.2L426.91,254A2.29,2.29,0,0,1,424.83,254.07Z" transform="translate(-206.38 -25.33)"/><path class="cls-2" d="M374.89,225.24l-10.65-6.15c-.53-.31-.47-.85.15-1.21l7.86-4.53a2.31,2.31,0,0,1,2.09-.09L385,219.41c.53.31.46.85-.15,1.2L377,225.15A2.31,2.31,0,0,1,374.89,225.24Z" transform="translate(-206.38 -25.33)"/><path class="cls-2" d="M374.41,213.3,420.71,240c.58.34.58.87,0,1.2l-8,4.63a2.31,2.31,0,0,1-2.08,0l-46.31-26.73Z" transform="translate(-206.38 -25.33)"/><path class="cls-2" d="M463.48,270.55l7.41,4.28c.44.26.39.7-.12,1l-3.21,1.86a1.92,1.92,0,0,1-1.71.07l-7.42-4.28c-.44-.26-.39-.7.12-1l3.22-1.86A1.92,1.92,0,0,1,463.48,270.55Z" transform="translate(-206.38 -25.33)"/><path class="cls-2" d="M453.11,264.57l7.41,4.28c.44.25.39.69-.12,1l-3.21,1.85a1.89,1.89,0,0,1-1.71.07l-7.42-4.28c-.44-.25-.38-.69.12-1l3.22-1.85A1.86,1.86,0,0,1,453.11,264.57Z" transform="translate(-206.38 -25.33)"/><path class="cls-2" d="M442.82,258.63l7.42,4.28c.44.25.38.7-.12,1l-3.22,1.85a1.89,1.89,0,0,1-1.71.08l-7.42-4.29c-.43-.25-.38-.69.13-1l3.21-1.86A1.92,1.92,0,0,1,442.82,258.63Z" transform="translate(-206.38 -25.33)"/><path class="cls-2" d="M458.79,261.29l7.41,4.28c.44.25.39.69-.12,1l-3.22,1.85a1.84,1.84,0,0,1-1.7.07l-7.42-4.28c-.44-.25-.39-.69.12-1l3.22-1.85A1.89,1.89,0,0,1,458.79,261.29Z" transform="translate(-206.38 -25.33)"/><path class="cls-8" d="M310.74,166.46s.49,10.2,1.27,17,17.27-5.26,17.27-5.26v-7.8Z" transform="translate(-206.38 -25.33)"/><path class="cls-2" d="M319.53,293.28c.25.62,4.52,5.83,8.79,7.13a9.89,9.89,0,0,0,3.93.54,1.29,1.29,0,0,0,1.05-1.72,16.19,16.19,0,0,0-8.2-9C317.85,286.59,319.53,293.28,319.53,293.28Z" transform="translate(-206.38 -25.33)"/><path class="cls-2" d="M318.1,295.28a35.62,35.62,0,0,1,2.11,6.94c.3,1.93-.76,4.43-1.63,6.09a1.78,1.78,0,0,1-2.77.48,10.3,10.3,0,0,1-3.47-6.63c-.49-5.33,0-6.26,0-6.26Z" transform="translate(-206.38 -25.33)"/><path class="cls-9" d="M307.81,230.89a100.84,100.84,0,0,0,0,14.15c.55,7.44,2.55,42.2,2.92,50.57,0,0-.19,2.53,4.72,2s4.5-3.37,4.5-3.37,6.89-.09,7.1-4.15,7.05-48.45,7.05-64.41Z" transform="translate(-206.38 -25.33)"/><path class="cls-10" d="M336.65,196.14l3.37,5.22,11.6,14a2.6,2.6,0,0,1-1.84,1.64c-1.13.26-10.88-9-15.09-13.12a3.24,3.24,0,0,1-.45-4.11Z" transform="translate(-206.38 -25.33)"/><path class="cls-11" d="M330.07,174.7s5.36-.14,7.22,7.6,3.33,17.44,1.71,18.25c-4.87,2.41-7.95-.42-7.95-.42Z" transform="translate(-206.38 -25.33)"/><path class="cls-12" d="M331.68,175a4.32,4.32,0,0,0-2.9-.16c-4.56,1.31-21.72,6.35-24.55,8.76-3.27,2.8,4.9,18.49,4.78,23.64s-.7,11.21-1.15,16.81-1.07,8.66,3.5,11,12.39,2.49,18.24-2,4.79-7.51,4.55-10.74-2.24-17.23-2.07-21.2a15.12,15.12,0,0,0,3.59-4.12c1.53-2.6-1.17-7.39-2.29-10.5s.63-6.67.29-9.21A2.87,2.87,0,0,0,331.68,175Z" transform="translate(-206.38 -25.33)"/><path class="cls-6" d="M326.19,180.38c.36,2.82-2.23,5.49-5.79,5.94s-6.75-1.46-7.11-4.29,2.23-5.49,5.79-5.95S325.83,177.55,326.19,180.38Z" transform="translate(-206.38 -25.33)"/><path class="cls-10" d="M324.35,180.61c.26,2-1.6,3.93-4.14,4.25s-4.82-1.05-5.08-3.07,1.6-3.92,4.14-4.24S324.09,178.59,324.35,180.61Z" transform="translate(-206.38 -25.33)"/><path class="cls-10" d="M321.82,174s-3.1-2.55-3.71-1.26-1.11,6.83-1.11,6.83l6.16,1.65-.94-5.61S323.45,174.55,321.82,174Z" transform="translate(-206.38 -25.33)"/><path class="cls-10" d="M331.44,167.91a9.19,9.19,0,1,1-8.63-9.71A9.19,9.19,0,0,1,331.44,167.91Z" transform="translate(-206.38 -25.33)"/><path class="cls-13" d="M317.68,174.33c-.05.29-.1.6-.15.91.62,3.2,5.4,4.6,5.4,4.6l-.71-4.25s.58-.49.42-1C320.75,174,318.36,173.48,317.68,174.33Z" transform="translate(-206.38 -25.33)"/><path class="cls-10" d="M331.44,167.91a9.19,9.19,0,1,1-8.63-9.71A9.19,9.19,0,0,1,331.44,167.91Z" transform="translate(-206.38 -25.33)"/><polygon class="cls-10" points="93.25 180.93 94.28 205.51 97.87 205.88 100.21 183.75 93.25 180.93"/><path class="cls-11" d="M311.44,204.2c-1.19-5.25-3.54-16.85-3.54-16.85l-1,11.54c1.16,3.42,2.15,6.56,2.11,8.38-.07,3-.3,6.36-.57,9.73h0S312.63,209.45,311.44,204.2Z" transform="translate(-206.38 -25.33)"/><path class="cls-14" d="M304.91,183.13s-2.87,1.1-4.5,9.92-2.84,17.67.06,18.81,5.32,2,6.18-.36,1.38-13.74,1.48-17.83S308.4,183.94,304.91,183.13Z" transform="translate(-206.38 -25.33)"/><path class="cls-10" d="M350.76,214.34a7.89,7.89,0,0,1,2.68,1.8,17.75,17.75,0,0,1,1.83,2.46c.9,1.34,1.65,4.22,1.11,4.58s-3.67-4.83-4.18-3.62,0,2.32-.64,2.34-2.89-5.22-4.65-6.84S350.76,214.34,350.76,214.34Z" transform="translate(-206.38 -25.33)"/><path class="cls-15" d="M320,294.21a13.94,13.94,0,0,0,2-.2h0l1.35-54Z" transform="translate(-206.38 -25.33)"/><path class="cls-12" d="M314.75,265l-1.91-2.5-20.11-11.64a2.78,2.78,0,0,1-1.17-2.23l0-16.47-1.16-1.51,1.09-.62h0a.74.74,0,0,1,.79,0l22.79,13.2a2.78,2.78,0,0,1,1.17,2.23l0,17.93a1,1,0,0,1-.43,1h0Z" transform="translate(-206.38 -25.33)"/><path class="cls-16" d="M300.84,255.58l-1.42-.83-7.85-13.62v-8.95l-1.16-1.51,1.09-.62h0a.74.74,0,0,1,.79,0l22.79,13.2a2.31,2.31,0,0,1,.86,1Z" transform="translate(-206.38 -25.33)"/><path class="cls-16" d="M290.94,231.34l-.52-.67,1.09-.62h0a.74.74,0,0,1,.79,0l.4.23Z" transform="translate(-206.38 -25.33)"/><path class="cls-12" d="M315.3,243.43a3,3,0,0,1,.95,1.92L314,246.64,313,244.78Z" transform="translate(-206.38 -25.33)"/><path class="cls-14" d="M314,243.92l-22.79-13.2c-.65-.37-1.17,0-1.17.88l0,17.93a2.83,2.83,0,0,0,1.16,2.24L314,265c.65.37,1.17,0,1.17-.88l0-17.93A2.8,2.8,0,0,0,314,243.92Z" transform="translate(-206.38 -25.33)"/><path class="cls-10" d="M300.69,230.63a56.09,56.09,0,0,0-.81,7.58c.14,1.84,1.13,4.87,1.87,4.8s0-7.39,1.34-6.66,1.45,2,2,1.54-1-6.7-.6-9.42S300.69,230.63,300.69,230.63Z" transform="translate(-206.38 -25.33)"/><path class="cls-13" d="M325.79,168.17c4.61,1.64,5.51.64,5.55.59,0-.28.08-.56.1-.85a9.16,9.16,0,0,0-.31-2.93l-12-1.62A13,13,0,0,0,325.79,168.17Z" transform="translate(-206.38 -25.33)"/><path class="cls-8" d="M331.77,158.76c-1.09-.93-5-5.54-12-4.45-4.39.68-8.09,3.67-8.91,10.5a15.71,15.71,0,0,0,4.25,12.48,4.66,4.66,0,0,0,.5-.25c1.76-1.16,1.95-1.79,1.95-1.8l.39-3.48a1,1,0,0,0-.88-1,1.76,1.76,0,0,1-1.29-.78c-1-1.32-.54-3.38,1.48-3.46a1.55,1.55,0,0,0,1.61-1.14.81.81,0,0,1,1.07-.56c2.3.83,7.95,2.62,11.59,1.59C336.16,165.12,332.85,159.69,331.77,158.76Z" transform="translate(-206.38 -25.33)"/><path class="cls-6" d="M326.53,172.32l2.81-.77a6.78,6.78,0,0,1-3.3,2.65c-2,.53-2.26-1.12-2.26-1.12Z" transform="translate(-206.38 -25.33)"/><polygon class="cls-16" points="99.08 212.38 96.69 211.01 97.59 212.48 98.8 212.93 99.08 212.38"/><path class="cls-2" d="M369.88,313.28s-3-1.52-4.87.74-4.51,7.63-4.59,11.25,2.86,3.37,4.61,2.51,6.87-8.27,7.18-9.73a5,5,0,0,0-.86-3.8A17.28,17.28,0,0,0,369.88,313.28Z" transform="translate(-206.38 -25.33)"/><path class="cls-17" d="M370.54,312.55l.14,3.13a1.77,1.77,0,0,1-.88,1.63,3.47,3.47,0,0,1-2.33.36c-2.28-.36-2.48-1-2.64-4.14S370.54,312.55,370.54,312.55Z" transform="translate(-206.38 -25.33)"/><path class="cls-2" d="M358.83,307.26s-3-1.52-4.88.75-4.51,7.62-4.59,11.24,2.87,3.37,4.62,2.52,6.86-8.28,7.17-9.73a5,5,0,0,0-.86-3.81C359.8,307.85,358.83,307.26,358.83,307.26Z" transform="translate(-206.38 -25.33)"/><path class="cls-17" d="M359.49,306.53l.14,3.13a1.78,1.78,0,0,1-.89,1.63,3.46,3.46,0,0,1-2.33.36c-2.27-.36-2.48-1-2.64-4.14S359.49,306.53,359.49,306.53Z" transform="translate(-206.38 -25.33)"/><path class="cls-9" d="M386.44,249.08c-.89-14.55-15.75,2.14-15.75,2.14l-10.17,10-9.16,10.06a9,9,0,0,0-2.28,7.25l3.71,28.21a2.77,2.77,0,0,0,2.78,2.41,9.19,9.19,0,0,0,1.37-.12,3.45,3.45,0,0,0,3.06-3.66L359.32,279l19.24-11.6S387.33,263.63,386.44,249.08Z" transform="translate(-206.38 -25.33)"/><path class="cls-9" d="M397.5,254.62c-.9-14.54-15.76,2.14-15.76,2.14l-10.17,10-9.16,10.06a9,9,0,0,0-2.27,7.25l3.7,28.21a2.78,2.78,0,0,0,2.78,2.41,9.2,9.2,0,0,0,1.38-.12,3.45,3.45,0,0,0,3.06-3.66l-.68-26.38,19.23-11.59S398.39,269.17,397.5,254.62Z" transform="translate(-206.38 -25.33)"/><path class="cls-12" d="M388.71,207.93c11.26,4.67,11,11.33,11,11.33s-2.21,24.41-1.46,40.72c.32,6.81-36.21,7.33-30.76-10.85,6.42-21.44,4-38.8,7-41.42S385.79,206.72,388.71,207.93Z" transform="translate(-206.38 -25.33)"/><path class="cls-10" d="M392.33,213.83c-.59,2.29-3.59,3.49-6.69,2.69s-5.15-3.3-4.56-5.59,3.58-3.49,6.69-2.69S392.92,211.54,392.33,213.83Z" transform="translate(-206.38 -25.33)"/><path class="cls-6" d="M387.54,217.31a8.58,8.58,0,0,1-2-.26c-3.39-.88-5.61-3.68-4.95-6.25a4.3,4.3,0,0,1,2.73-2.87,7.45,7.45,0,0,1,4.62-.21c3.39.87,5.61,3.68,5,6.25h0C392.32,216,390.12,217.31,387.54,217.31Zm-1.7-8.78a5.72,5.72,0,0,0-2.16.4,3.25,3.25,0,0,0-2.08,2.14c-.52,2,1.36,4.21,4.17,4.93s5.52-.31,6-2.3-1.36-4.21-4.18-4.94A7.39,7.39,0,0,0,385.84,208.53Z" transform="translate(-206.38 -25.33)"/><path class="cls-10" d="M384.19,207.42a27,27,0,0,1-.1,4c-.06,1.12,3.87,2.17,4.88,1.16s.61-2.08.86-5.9S384.19,207.42,384.19,207.42Z" transform="translate(-206.38 -25.33)"/><path class="cls-13" d="M389.83,206.7s-1,3.54-5.74,4.9l.07-3.22Z" transform="translate(-206.38 -25.33)"/><path class="cls-10" d="M392.85,197.71a8.67,8.67,0,1,1-10.57-6.23A8.67,8.67,0,0,1,392.85,197.71Z" transform="translate(-206.38 -25.33)"/><path class="cls-13" d="M386.45,200.19s-4.78,2.05-8.08,2.07-2.58-2.74-2.58-2.74l9.81-1.42Z" transform="translate(-206.38 -25.33)"/><path class="cls-18" d="M377.38,200.73s4.16-1.76,7.81-1a3.88,3.88,0,0,1,2.2,1.31,1.28,1.28,0,0,0,.67.49c.65.14,1.71-2.54,3-2.6s2.1.83,1.07,2.48-.68,3.5-.21,3.76,5.51-3.59,1.07-12.38-15.72-4.06-17.47-2.28c0,0-1.85,1.61-3.35.18C372.13,190.66,370.45,203.28,377.38,200.73Z" transform="translate(-206.38 -25.33)"/><path class="cls-10" d="M393.43,237.09v6.6a2.69,2.69,0,0,1-.88,2L379,258l1.54,2.36,17.82-12.25a3.63,3.63,0,0,0,1.48-2.56l1.28-12.24Z" transform="translate(-206.38 -25.33)"/><path class="cls-12" d="M398.79,216s4.11,6.18,5.64,22.46c0,0-7,2.27-11,1S398.79,216,398.79,216Z" transform="translate(-206.38 -25.33)"/><path class="cls-8" d="M392.67,223.78a116.82,116.82,0,0,0-1.7,12.66,2.59,2.59,0,0,0,1.7,2.49h0Z" transform="translate(-206.38 -25.33)"/><path class="cls-2" d="M389.16,266.61l-3-.4-19.33-11.16a2.7,2.7,0,0,0-2.42.1l-13.7,7.91-1.81-.24v1.8h0a.71.71,0,0,0,.42.64l21.91,12.65a2.7,2.7,0,0,0,2.42-.1l14.92-8.61a1,1,0,0,0,.59-.82h0Z" transform="translate(-206.38 -25.33)"/><path class="cls-3" d="M374.63,259.56l-1.37-.8H358.15l-7.44,4.3-1.81-.24v1.8h0a.71.71,0,0,0,.42.64l21.91,12.65a2.27,2.27,0,0,0,1.25.23Z" transform="translate(-206.38 -25.33)"/><path class="cls-7" d="M349.7,262.93l-.8-.11v1.8h0a.71.71,0,0,0,.42.64l.38.22Z" transform="translate(-206.38 -25.33)"/><path class="cls-4" d="M371.45,278a2.77,2.77,0,0,0,2.05-.13v-3.06h-2.05Z" transform="translate(-206.38 -25.33)"/><path class="cls-6" d="M371.23,276.11l-21.91-12.65c-.62-.36-.55-1,.17-1.4l14.92-8.61a2.66,2.66,0,0,1,2.42-.1L388.74,266c.62.36.54,1-.17,1.4L373.65,276A2.73,2.73,0,0,1,371.23,276.11Z" transform="translate(-206.38 -25.33)"/><path class="cls-5" d="M370.86,274.19l-18.22-10.52c-.52-.3-.45-.82.14-1.16l8-4.5a2.24,2.24,0,0,1,2-.08L381,268.45c.51.3.45.82-.15,1.16l-8,4.5A2.24,2.24,0,0,1,370.86,274.19Z" transform="translate(-206.38 -25.33)"/><path class="cls-10" d="M365.26,253l-.23,1.51a11.24,11.24,0,0,0,.1,3.88l.27,1.33a1.88,1.88,0,0,0,1.5,1.48h0a1,1,0,0,0,1.21-.91l.36-3.23s.83,1.08,1.23,1.08-.45-3.23-1.35-5.06S365.26,253,365.26,253Z" transform="translate(-206.38 -25.33)"/><path class="cls-10" d="M372.68,229l-2.35,4.66a9.24,9.24,0,0,0-1,3.53l-1,15.92-3.09-.08-1.41-17.87a7,7,0,0,1,.08-1.65l1.61-9.07Z" transform="translate(-206.38 -25.33)"/><path class="cls-2" d="M370.49,277.32l-1.84-2.4-19.32-11.18a2.69,2.69,0,0,1-1.12-2.15V245.77l-1.11-1.45,1.05-.6h0a.7.7,0,0,1,.76,0l21.89,12.68a2.69,2.69,0,0,1,1.12,2.15l0,17.22a1,1,0,0,1-.41.92h0Z" transform="translate(-206.38 -25.33)"/><path class="cls-3" d="M357.12,268.25l-1.37-.79-7.53-13.09v-8.6l-1.11-1.45,1.05-.6h0a.7.7,0,0,1,.76,0l21.89,12.68a2.3,2.3,0,0,1,.83,1Z" transform="translate(-206.38 -25.33)"/><path class="cls-7" d="M347.61,245l-.5-.65,1.05-.6h0a.7.7,0,0,1,.76,0l.38.23Z" transform="translate(-206.38 -25.33)"/><path class="cls-4" d="M371,256.58a2.84,2.84,0,0,1,.92,1.84l-2.14,1.24-1-1.78Z" transform="translate(-206.38 -25.33)"/><path class="cls-6" d="M369.77,257l-21.9-12.67c-.62-.36-1.12,0-1.12.84l0,17.23a2.69,2.69,0,0,0,1.12,2.15l21.9,12.67c.62.36,1.12,0,1.12-.84l0-17.23A2.69,2.69,0,0,0,369.77,257Z" transform="translate(-206.38 -25.33)"/><path class="cls-10" d="M380.54,260.39l-.35.72a4.92,4.92,0,0,1-1.83,2l-2.18,1.34a2.16,2.16,0,0,1-2.22,0l-.07,0a1.3,1.3,0,0,1-.19-2l2.27-2.34s-1.27,1-1.63.59,1.24-1.7,2.39-1.75a4.52,4.52,0,0,0,2.27-1Z" transform="translate(-206.38 -25.33)"/><path class="cls-12" d="M374.77,207.68s-8.33,9.06-11.69,17.38a17,17,0,0,0,9.82,7.15C379.88,234.22,374.77,207.68,374.77,207.68Z" transform="translate(-206.38 -25.33)"/><path class="cls-8" d="M371.33,231.67l1.35-13-3.18,12.23A19.37,19.37,0,0,0,371.33,231.67Z" transform="translate(-206.38 -25.33)"/><path class="cls-6" d="M381,205.85l-2.24-.62a5.42,5.42,0,0,0,2.63,2.11c1.56.43,1.81-.89,1.81-.89Z" transform="translate(-206.38 -25.33)"/><path class="cls-1" d="M233.93,324l-20.19-11.75c-1.7-1-1.49-2.7.48-3.84l19.24-11.21a7.39,7.39,0,0,1,6.65-.28l20.19,11.75c1.71,1,1.49,2.7-.48,3.84l-19.24,11.21A7.39,7.39,0,0,1,233.93,324Z" transform="translate(-206.38 -25.33)"/><path class="cls-2" d="M267.65,286.65h0v-5.08H240.9c-2.14-1.23-5.87-1.08-8.34.35l.8-.33-27,0V287a2.42,2.42,0,0,0,1.44,2.23l25.32,14.73c2.13,1.24,5.87,1.08,8.33-.34l24.14-14.07C267,288.7,267.73,287.64,267.65,286.65Z" transform="translate(-206.38 -25.33)"/><path class="cls-3" d="M237,280.73a9.5,9.5,0,0,0-4.47,1.17l.8-.33-27,0V287a2.42,2.42,0,0,0,1.44,2.23l25.32,14.73a7.61,7.61,0,0,0,3.87.83Z" transform="translate(-206.38 -25.33)"/><path class="cls-1" d="M209.45,281.55h-3.06V287a2.42,2.42,0,0,0,1.44,2.23l1.62.93Z" transform="translate(-206.38 -25.33)"/><path class="cls-4" d="M233.68,304.19a9.52,9.52,0,0,0,6.67-.07V297h-6.67Z" transform="translate(-206.38 -25.33)"/><path class="cls-5" d="M233.15,298.56l-25.32-14.73c-2.14-1.23-1.87-3.39.6-4.81L232.56,265c2.47-1.42,6.2-1.58,8.34-.34l25.32,14.73c2.13,1.23,1.87,3.39-.6,4.81l-24.14,14.07C239,299.64,235.28,299.8,233.15,298.56Z" transform="translate(-206.38 -25.33)"/><path class="cls-6" d="M238.06,278.79l-7.45-4.33a1.1,1.1,0,0,1,0-2.08,3.94,3.94,0,0,1,3.6,0l7.45,4.33a1.1,1.1,0,0,1,0,2.08A4,4,0,0,1,238.06,278.79Z" transform="translate(-206.38 -25.33)"/><path class="cls-6" d="M248.88,285.11l-4.52-2.66a1.1,1.1,0,0,1,0-2.08,3.94,3.94,0,0,1,3.6,0l4.52,2.66a1.1,1.1,0,0,1,0,2.08A3.94,3.94,0,0,1,248.88,285.11Z" transform="translate(-206.38 -25.33)"/><path class="cls-6" d="M227.62,281.45l-4.52-2.67a1.1,1.1,0,0,1,0-2.08,3.94,3.94,0,0,1,3.6,0l4.52,2.67a1.1,1.1,0,0,1,0,2.08A4,4,0,0,1,227.62,281.45Z" transform="translate(-206.38 -25.33)"/><path class="cls-5" d="M445.28,84.32l-8.94-5.16a2.56,2.56,0,0,1-1.09-2.65h0a1.25,1.25,0,0,1,1.91-.92l8.94,5.17a2.54,2.54,0,0,1,1.09,2.64h0A1.24,1.24,0,0,1,445.28,84.32Z" transform="translate(-206.38 -25.33)"/><path class="cls-5" d="M466.58,96.61,453.39,89a2.57,2.57,0,0,1-1.09-2.65h0a1.25,1.25,0,0,1,1.92-.91l13.18,7.61a2.57,2.57,0,0,1,1.09,2.65h0A1.24,1.24,0,0,1,466.58,96.61Z" transform="translate(-206.38 -25.33)"/><path class="cls-5" d="M429.7,126.05l-8.94-5.17a2.54,2.54,0,0,1-1.09-2.64h0a1.24,1.24,0,0,1,1.91-.92l8.94,5.17a2.54,2.54,0,0,1,1.09,2.64h0A1.25,1.25,0,0,1,429.7,126.05Z" transform="translate(-206.38 -25.33)"/><path class="cls-5" d="M448.68,137l-13.18-7.62a2.54,2.54,0,0,1-1.09-2.64h0a1.24,1.24,0,0,1,1.91-.92l13.18,7.61a2.56,2.56,0,0,1,1.09,2.65h0A1.24,1.24,0,0,1,448.68,137Z" transform="translate(-206.38 -25.33)"/><path class="cls-5" d="M418.91,77.54l-5.59-3.22a2.57,2.57,0,0,1-1.09-2.65h0a1.25,1.25,0,0,1,1.92-.91L419.73,74a2.56,2.56,0,0,1,1.09,2.65h0A1.24,1.24,0,0,1,418.91,77.54Z" transform="translate(-206.38 -25.33)"/><path class="cls-5" d="M436.12,95.94l-17.06-9.85A2.56,2.56,0,0,1,418,83.44h0a1.24,1.24,0,0,1,1.91-.92l17.06,9.86A2.54,2.54,0,0,1,438,95h0A1.24,1.24,0,0,1,436.12,95.94Z" transform="translate(-206.38 -25.33)"/><path class="cls-5" d="M421.2,104.23,415.61,101a2.57,2.57,0,0,1-1.09-2.65h0a1.25,1.25,0,0,1,1.92-.92l5.58,3.23a2.55,2.55,0,0,1,1.09,2.65h0A1.24,1.24,0,0,1,421.2,104.23Z" transform="translate(-206.38 -25.33)"/><path class="cls-5" d="M451.55,155.57,436.64,147a2.55,2.55,0,0,1-1.09-2.65h0a1.24,1.24,0,0,1,1.91-.91L452.37,152a2.58,2.58,0,0,1,1.1,2.65h0A1.25,1.25,0,0,1,451.55,155.57Z" transform="translate(-206.38 -25.33)"/><path class="cls-5" d="M415.75,118l-3.58-2.07a2.56,2.56,0,0,1-1.09-2.65h0a1.24,1.24,0,0,1,1.91-.91l3.59,2.06a2.57,2.57,0,0,1,1.09,2.65h0A1.25,1.25,0,0,1,415.75,118Z" transform="translate(-206.38 -25.33)"/><path class="cls-5" d="M413.18,133.42l-4.45-2.57a2.58,2.58,0,0,1-1.1-2.65h0a1.25,1.25,0,0,1,1.92-.91l4.45,2.57a2.54,2.54,0,0,1,1.09,2.64h0A1.24,1.24,0,0,1,413.18,133.42Z" transform="translate(-206.38 -25.33)"/><path class="cls-5" d="M430.5,143.42l-11.74-6.78a2.56,2.56,0,0,1-1.09-2.65h0a1.24,1.24,0,0,1,1.91-.91l11.74,6.77a2.57,2.57,0,0,1,1.09,2.65h0A1.25,1.25,0,0,1,430.5,143.42Z" transform="translate(-206.38 -25.33)"/><path class="cls-5" d="M415.44,143.18,407,138.31a2.57,2.57,0,0,1-1.09-2.65h0a1.25,1.25,0,0,1,1.92-.91l8.43,4.87a2.55,2.55,0,0,1,1.09,2.65h0A1.24,1.24,0,0,1,415.44,143.18Z" transform="translate(-206.38 -25.33)"/><path class="cls-5" d="M464.35,163l-5.42-3.13a2.55,2.55,0,0,1-1.09-2.65h0a1.24,1.24,0,0,1,1.91-.91l5.42,3.13a2.55,2.55,0,0,1,1.09,2.65h0A1.24,1.24,0,0,1,464.35,163Z" transform="translate(-206.38 -25.33)"/><path class="cls-5" d="M442,116.22l-14.91-8.61A2.57,2.57,0,0,1,426,105h0a1.25,1.25,0,0,1,1.92-.91l14.91,8.61a2.56,2.56,0,0,1,1.09,2.65h0A1.24,1.24,0,0,1,442,116.22Z" transform="translate(-206.38 -25.33)"/><path class="cls-5" d="M443.33,108.55l-26-15a2.58,2.58,0,0,1-1.1-2.65h0a1.25,1.25,0,0,1,1.92-.92l26,15a2.58,2.58,0,0,1,1.1,2.65h0A1.25,1.25,0,0,1,443.33,108.55Z" transform="translate(-206.38 -25.33)"/><path class="cls-5" d="M428.81,117.08l-14.92-8.61a2.56,2.56,0,0,1-1.09-2.65h0a1.24,1.24,0,0,1,1.91-.91l14.92,8.61a2.54,2.54,0,0,1,1.09,2.64h0A1.24,1.24,0,0,1,428.81,117.08Z" transform="translate(-206.38 -25.33)"/><path class="cls-5" d="M453.29,122.76l-5.42-3.13a2.58,2.58,0,0,1-1.1-2.65h0a1.25,1.25,0,0,1,1.92-.91l5.42,3.13a2.55,2.55,0,0,1,1.09,2.64h0A1.25,1.25,0,0,1,453.29,122.76Z" transform="translate(-206.38 -25.33)"/><path class="cls-5" d="M506.78,119.82,474.69,101.3a2.56,2.56,0,0,1-1.09-2.65h0a1.24,1.24,0,0,1,1.91-.92l32.09,18.53a2.56,2.56,0,0,1,1.09,2.65h0A1.24,1.24,0,0,1,506.78,119.82Z" transform="translate(-206.38 -25.33)"/><path class="cls-5" d="M428.38,133.74l-17.93-10.35a2.56,2.56,0,0,1-1.09-2.65h0a1.24,1.24,0,0,1,1.91-.91l17.93,10.35a2.54,2.54,0,0,1,1.09,2.64h0A1.24,1.24,0,0,1,428.38,133.74Z" transform="translate(-206.38 -25.33)"/><path class="cls-5" d="M428.23,74.47l-13.18-7.61A2.55,2.55,0,0,1,414,64.21h0a1.24,1.24,0,0,1,1.91-.91l13.18,7.61a2.55,2.55,0,0,1,1.09,2.65h0A1.24,1.24,0,0,1,428.23,74.47Z" transform="translate(-206.38 -25.33)"/><path class="cls-5" d="M413.09,150.28l-15.26-8.82a2.57,2.57,0,0,1-1.1-2.65h0a1.25,1.25,0,0,1,1.92-.91l15.26,8.82a2.56,2.56,0,0,1,1.1,2.64h0A1.25,1.25,0,0,1,413.09,150.28Z" transform="translate(-206.38 -25.33)"/><path class="cls-5" d="M515.58,207.46l-8.94-5.16a2.57,2.57,0,0,1-1.09-2.65h0a1.25,1.25,0,0,1,1.92-.91l8.93,5.16a2.56,2.56,0,0,1,1.1,2.64h0A1.25,1.25,0,0,1,515.58,207.46Z" transform="translate(-206.38 -25.33)"/><path class="cls-5" d="M522,177.35l-17.07-9.85a2.57,2.57,0,0,1-1.09-2.65h0a1.25,1.25,0,0,1,1.92-.91l17.06,9.85a2.55,2.55,0,0,1,1.09,2.65h0A1.24,1.24,0,0,1,522,177.35Z" transform="translate(-206.38 -25.33)"/><path class="cls-5" d="M507.08,185.64l-5.58-3.22a2.56,2.56,0,0,1-1.09-2.65h0a1.24,1.24,0,0,1,1.91-.91l5.59,3.22a2.57,2.57,0,0,1,1.09,2.65h0A1.25,1.25,0,0,1,507.08,185.64Z" transform="translate(-206.38 -25.33)"/><path class="cls-5" d="M501.64,199.41l-3.59-2.07a2.59,2.59,0,0,1-1.09-2.65h0a1.25,1.25,0,0,1,1.92-.91l3.58,2.07a2.54,2.54,0,0,1,1.09,2.64h0A1.24,1.24,0,0,1,501.64,199.41Z" transform="translate(-206.38 -25.33)"/><path class="cls-5" d="M527.86,197.64,512.94,189a2.54,2.54,0,0,1-1.09-2.64h0a1.24,1.24,0,0,1,1.91-.92l14.92,8.62a2.54,2.54,0,0,1,1.09,2.64h0A1.25,1.25,0,0,1,527.86,197.64Z" transform="translate(-206.38 -25.33)"/><path class="cls-5" d="M529.22,190l-26-15a2.56,2.56,0,0,1-1.09-2.65h0a1.24,1.24,0,0,1,1.91-.91l26,15a2.54,2.54,0,0,1,1.09,2.64h0A1.24,1.24,0,0,1,529.22,190Z" transform="translate(-206.38 -25.33)"/><path class="cls-5" d="M514.69,198.49l-14.91-8.61a2.56,2.56,0,0,1-1.09-2.65h0a1.24,1.24,0,0,1,1.91-.91l14.91,8.61a2.57,2.57,0,0,1,1.1,2.65h0A1.25,1.25,0,0,1,514.69,198.49Z" transform="translate(-206.38 -25.33)"/><path class="cls-5" d="M514.26,215.15,496.33,204.8a2.57,2.57,0,0,1-1.09-2.65h0a1.24,1.24,0,0,1,1.91-.91l17.94,10.35a2.58,2.58,0,0,1,1.09,2.65h0A1.25,1.25,0,0,1,514.26,215.15Z" transform="translate(-206.38 -25.33)"/><path class="cls-1" d="M479.05,370l-21-12.22c-1.77-1-1.55-2.81.5-4l20-11.66a7.68,7.68,0,0,1,6.92-.29l21,12.22c1.78,1,1.55,2.81-.49,4l-20,11.66A7.69,7.69,0,0,1,479.05,370Z" transform="translate(-206.38 -25.33)"/><path class="cls-19" d="M512.89,332.09h0V327H486.14c-2.14-1.23-5.87-1.08-8.34.35l.8-.34h-27v5.41a2.43,2.43,0,0,0,1.44,2.24l25.32,14.73c2.13,1.23,5.87,1.08,8.33-.35L510.86,335C512.28,334.15,513,333.09,512.89,332.09Z" transform="translate(-206.38 -25.33)"/><path class="cls-12" d="M482.27,326.17a9.63,9.63,0,0,0-4.47,1.18l.8-.34h-27v5.41a2.43,2.43,0,0,0,1.44,2.24l25.32,14.73a7.61,7.61,0,0,0,3.87.83Z" transform="translate(-206.38 -25.33)"/><path class="cls-14" d="M454.69,327h-3.06v5.41a2.43,2.43,0,0,0,1.44,2.24l1.62.93Z" transform="translate(-206.38 -25.33)"/><path class="cls-20" d="M478.92,349.64a9.52,9.52,0,0,0,6.67-.07v-7.09h-6.67Z" transform="translate(-206.38 -25.33)"/><path class="cls-11" d="M478.39,344l-25.32-14.73c-2.14-1.24-1.87-3.39.59-4.82L477.8,310.4c2.47-1.42,6.2-1.58,8.34-.34l25.32,14.73c2.13,1.23,1.87,3.39-.6,4.81l-24.14,14.06C484.26,345.09,480.52,345.24,478.39,344Z" transform="translate(-206.38 -25.33)"/><path class="cls-14" d="M483.1,325l-7.44-4.33a1.1,1.1,0,0,1,0-2.08,4,4,0,0,1,3.6,0l7.45,4.33a1.1,1.1,0,0,1,0,2.08A4,4,0,0,1,483.1,325Z" transform="translate(-206.38 -25.33)"/><path class="cls-14" d="M493.93,331.33l-4.52-2.67a1.1,1.1,0,0,1,0-2.08,4,4,0,0,1,3.6,0l4.52,2.67a1.1,1.1,0,0,1,0,2.08A3.94,3.94,0,0,1,493.93,331.33Z" transform="translate(-206.38 -25.33)"/><path class="cls-14" d="M472.67,327.66,468.15,325a1.1,1.1,0,0,1,0-2.08,3.94,3.94,0,0,1,3.6,0l4.52,2.66a1.1,1.1,0,0,1,0,2.08A3.94,3.94,0,0,1,472.67,327.66Z" transform="translate(-206.38 -25.33)"/></svg>