<svg id="Layer_1" data-name="Layer 1" xmlns="http://www.w3.org/2000/svg" viewBox="0 0 238.31 30.52"><defs><style>.cls-1{fill:#bdbdbd;}</style></defs><title>TxtLogo</title><path class="cls-1" d="M20.76,6.65V24.27a6.46,6.46,0,0,0,6.45,6.45H63V26.79H27.21a2.53,2.53,0,0,1-2.53-2.52V6.65a2.54,2.54,0,0,1,2.53-2.53H63V.2H27.21A6.45,6.45,0,0,0,20.76,6.65Z" transform="translate(-20.76 -0.2)"/><path class="cls-1" d="M107.77,13.5H75.89A2.54,2.54,0,0,1,73.36,11V.2H69.44V11a6.46,6.46,0,0,0,6.45,6.45h31.88v6.85a2.52,2.52,0,0,1-2.53,2.52H69.44v3.93h35.8a6.46,6.46,0,0,0,6.45-6.45V.2h-3.92Z" transform="translate(-20.76 -0.2)"/><path class="cls-1" d="M203.5.2H174.15a6.45,6.45,0,0,0-6.45,6.45V30.72h3.92V17.42h27.56a2.48,2.48,0,0,1,1.78.74l4.32,4.32a2.5,2.5,0,0,1,.74,1.79v6.45H210V24.27a6.37,6.37,0,0,0-1.89-4.56l-2.6-2.6A6.46,6.46,0,0,0,210,11V6.65A6.46,6.46,0,0,0,203.5.2ZM206,11a2.53,2.53,0,0,1-2.52,2.53H171.62V6.65a2.53,2.53,0,0,1,2.53-2.53H203.5A2.53,2.53,0,0,1,206,6.65Z" transform="translate(-20.76 -0.2)"/><path class="cls-1" d="M252.62.2H223.27a6.46,6.46,0,0,0-6.45,6.45V30.72h3.92V17.42h34.41v13.3h3.92V6.65A6.45,6.45,0,0,0,252.62.2ZM220.74,13.5V6.65a2.54,2.54,0,0,1,2.53-2.53h29.35a2.53,2.53,0,0,1,2.53,2.53V13.5Z" transform="translate(-20.76 -0.2)"/><path class="cls-1" d="M160.82,6.65A6.45,6.45,0,0,0,154.37.2H125a6.45,6.45,0,0,0-6.45,6.45V24.27A6.46,6.46,0,0,0,125,30.72h29.35a6.46,6.46,0,0,0,6.45-6.45V20a6.48,6.48,0,0,0-4.48-6.15l2.59-2.59A6.41,6.41,0,0,0,160.82,6.65ZM156.9,20v4.32a2.53,2.53,0,0,1-2.53,2.52H125a2.52,2.52,0,0,1-2.53-2.52V17.42h31.88A2.53,2.53,0,0,1,156.9,20Zm-.74-11.51-4.32,4.32a2.56,2.56,0,0,1-1.79.74H122.49V6.65A2.53,2.53,0,0,1,125,4.12h29.35a2.53,2.53,0,0,1,1.79,4.32Z" transform="translate(-20.76 -0.2)"/></svg>