<svg id="_ÎÓÈ_1" data-name="—ÎÓÈ_1" xmlns="http://www.w3.org/2000/svg" xmlns:xlink="http://www.w3.org/1999/xlink" viewBox="0 0 232.75 197.51"><defs><style>.cls-1{fill:none;}.cls-2{fill:url(#_ÂÁ_Ï_ÌÌ_È_ËÂÌÚ_24);}.cls-3{fill:url(#_ÂÁ_Ï_ÌÌ_È_ËÂÌÚ_3);}.cls-4,.cls-8{fill:#24126a;}.cls-4{opacity:0.3;}.cls-5{fill:#fff;}.cls-6{fill:url(#_ÂÁ_Ï_ÌÌ_È_ËÂÌÚ_3-2);}.cls-7{fill:url(#_ÂÁ_Ï_ÌÌ_È_ËÂÌÚ_24-2);}.cls-9{opacity:0.51;}.cls-10{fill:#453c9e;}.cls-11{fill:url(#_ÂÁ_Ï_ÌÌ_È_ËÂÌÚ_24-3);}.cls-12{fill:url(#_ÂÁ_Ï_ÌÌ_È_ËÂÌÚ_3-3);}.cls-13{opacity:0.15;}.cls-14{clip-path:url(#clip-path);}.cls-15{fill:url(#_ÂÁ_Ï_ÌÌ_È_ËÂÌÚ_24-4);}.cls-16{fill:url(#_ÂÁ_Ï_ÌÌ_È_ËÂÌÚ_3-4);}.cls-17{opacity:0.5;}.cls-18{opacity:0.8;}.cls-19{fill:#42e8e0;}</style><linearGradient id="_ÂÁ_Ï_ÌÌ_È_ËÂÌÚ_24" x1="357.28" y1="218.06" x2="189.14" y2="218.06" gradientUnits="userSpaceOnUse"><stop offset="0" stop-color="#5761d7"/><stop offset="0.18" stop-color="#5c66d9"/><stop offset="0.39" stop-color="#6a73df"/><stop offset="0.61" stop-color="#8289e8"/><stop offset="0.85" stop-color="#a3a7f5"/><stop offset="1" stop-color="#bcbeff"/></linearGradient><linearGradient id="_ÂÁ_Ï_ÌÌ_È_ËÂÌÚ_3" x1="405.2" y1="214.15" x2="573.33" y2="214.15" gradientTransform="matrix(-1, 0, 0, 1, 709.14, 0)" gradientUnits="userSpaceOnUse"><stop offset="0" stop-color="#c0bff6"/><stop offset="0.29" stop-color="#c5c4f7"/><stop offset="0.64" stop-color="#d3d2f9"/><stop offset="1" stop-color="#e9e9fd"/></linearGradient><linearGradient id="_ÂÁ_Ï_ÌÌ_È_ËÂÌÚ_3-2" x1="332.8" y1="140.4" x2="451.78" y2="140.4" xlink:href="#_ÂÁ_Ï_ÌÌ_È_ËÂÌÚ_3"/><linearGradient id="_ÂÁ_Ï_ÌÌ_È_ËÂÌÚ_24-2" x1="332.8" y1="170.91" x2="353.23" y2="170.91" gradientTransform="matrix(-1, 0, 0, 1, 709.14, 0)" xlink:href="#_ÂÁ_Ï_ÌÌ_È_ËÂÌÚ_24"/><linearGradient id="_ÂÁ_Ï_ÌÌ_È_ËÂÌÚ_24-3" x1="348.74" y1="204.2" x2="516.78" y2="204.2" gradientTransform="matrix(-1, 0, 0, 1, 709.14, 0)" xlink:href="#_ÂÁ_Ï_ÌÌ_È_ËÂÌÚ_24"/><linearGradient id="_ÂÁ_Ï_ÌÌ_È_ËÂÌÚ_3-3" x1="405.2" y1="199.61" x2="573.33" y2="199.61" xlink:href="#_ÂÁ_Ï_ÌÌ_È_ËÂÌÚ_3"/><clipPath id="clip-path" transform="translate(-192.3 -69.88)"><polygon class="cls-1" points="373.5 132.18 270.02 72.46 257.02 149.76 360.43 209.44 373.5 132.18"/></clipPath><linearGradient id="_ÂÁ_Ï_ÌÌ_È_ËÂÌÚ_24-4" x1="284.12" y1="167.22" x2="452.17" y2="167.22" gradientTransform="matrix(-1, 0, 0, 1, 709.14, 0)" xlink:href="#_ÂÁ_Ï_ÌÌ_È_ËÂÌÚ_24"/><linearGradient id="_ÂÁ_Ï_ÌÌ_È_ËÂÌÚ_3-4" x1="340.59" y1="162.63" x2="508.72" y2="162.63" xlink:href="#_ÂÁ_Ï_ÌÌ_È_ËÂÌÚ_3"/></defs><title>web</title><path class="cls-2" d="M360.43,226.23l-5.61-.81-97.26-56.15a4.19,4.19,0,0,0-3.77-.15l-57.92,33.44-3.57-.51v4.73h0a1.57,1.57,0,0,0,.91,1.22l102,58.86a4.2,4.2,0,0,0,3.77.15l60.84-35.12a1.1,1.1,0,0,0,.64-1h0Z" transform="translate(-192.3 -69.88)"/><path class="cls-3" d="M193.22,203.29l102,58.86a4.17,4.17,0,0,0,3.77.16l60.84-35.13c1-.55.85-1.53-.27-2.17L257.56,166.15a4.17,4.17,0,0,0-3.77-.16L193,201.12C192,201.67,192.11,202.65,193.22,203.29Z" transform="translate(-192.3 -69.88)"/><path class="cls-4" d="M202.05,204.45l91.13,52.61a3.76,3.76,0,0,0,3.37.13l54.37-31.39c.87-.5.76-1.37-.24-2l-91.12-52.61a3.76,3.76,0,0,0-3.37-.13L201.81,202.5C201,203,201.06,203.87,202.05,204.45Z" transform="translate(-192.3 -69.88)"/><path class="cls-5" d="M359.78,226.67,298.94,261.8a4.23,4.23,0,0,1-3.77-.16l-102-58.86a1.77,1.77,0,0,1-.87-1c-.15.5.14,1.07.87,1.49l102,58.86a4.17,4.17,0,0,0,3.77.16l60.84-35.13a1,1,0,0,0,.6-1.2A1.22,1.22,0,0,1,359.78,226.67Z" transform="translate(-192.3 -69.88)"/><path class="cls-6" d="M257.38,147.8l12.88-76.46-1-.44,1.56-.89h0a1.13,1.13,0,0,1,1.2.08l103,59.47a2.93,2.93,0,0,1,1.34,2.61l-13,77.07a1,1,0,0,1-.55.78h0l-1.53.88-.26-1.42.09,0L258.71,150.41A2.9,2.9,0,0,1,257.38,147.8Z" transform="translate(-192.3 -69.88)"/><path class="cls-7" d="M374.41,131.66l1.69-.75a2.37,2.37,0,0,1,.22,1.27l-13,77.07a1,1,0,0,1-.55.78h0l-1.53.88-.26-1.42.09,0-5.18-3Z" transform="translate(-192.3 -69.88)"/><path class="cls-8" d="M257.1,151.34l103,59.47c.8.45,1.48.19,1.62-.63l13-77.07a2.9,2.9,0,0,0-1.34-2.62L270.37,71c-.8-.46-1.48-.2-1.62.63l-13,77.06A2.9,2.9,0,0,0,257.1,151.34Z" transform="translate(-192.3 -69.88)"/><g class="cls-9"><polygon class="cls-10" points="77.72 2.58 181.2 62.3 168.13 139.56 64.72 79.88 77.72 2.58"/></g><path class="cls-11" d="M192.36,187.83l5.62,2.93,56.36-32.54a4.13,4.13,0,0,1,3.68.15l97.21,56.13c.93-.52,5.17-2.56,5.17-2.56l-2.06,3.34h0a1.21,1.21,0,0,1-.57.63L298.4,250.18a4.07,4.07,0,0,1-3.68-.15L195.24,192.6a1.74,1.74,0,0,1-.83-.89h0Z" transform="translate(-192.3 -69.88)"/><path class="cls-12" d="M193.22,188.75l102,58.86a4.2,4.2,0,0,0,3.77.16l60.84-35.13c1-.55.85-1.53-.27-2.17L257.56,151.61a4.17,4.17,0,0,0-3.77-.16L193,186.57C192,187.13,192.11,188.11,193.22,188.75Z" transform="translate(-192.3 -69.88)"/><path class="cls-5" d="M193.22,188.29l102,58.86a4.17,4.17,0,0,0,3.77.16l60.84-35.12a1.22,1.22,0,0,0,.61-.72,1,1,0,0,1-.61,1.17l-60.84,35.13a4.23,4.23,0,0,1-3.77-.16l-102-58.86c-.72-.42-1-1-.88-1.46A1.74,1.74,0,0,0,193.22,188.29Z" transform="translate(-192.3 -69.88)"/><g class="cls-13"><g class="cls-14"><path class="cls-15" d="M257,150.84l5.62,2.94L319,121.24a4,4,0,0,1,3.67.15l97.21,56.13C420.77,177,425,175,425,175L423,178.3h0a1.25,1.25,0,0,1-.58.64L363,213.2a4.07,4.07,0,0,1-3.68-.15l-99.47-57.43a1.81,1.81,0,0,1-.84-.89h0Z" transform="translate(-192.3 -69.88)"/><path class="cls-16" d="M257.84,151.77l102,58.86a4.2,4.2,0,0,0,3.77.15l60.84-35.12c1-.56.84-1.53-.27-2.18L322.18,114.62a4.2,4.2,0,0,0-3.77-.15l-60.84,35.12C256.6,150.15,256.73,151.12,257.84,151.77Z" transform="translate(-192.3 -69.88)"/><path class="cls-5" d="M424.13,173.48,322.18,114.62a4.53,4.53,0,0,0-2.52-.51,4.33,4.33,0,0,1,1.77.51l101.95,58.86c1.11.65,1.23,1.62.27,2.18l-60.84,35.12a3,3,0,0,1-1.25.36,3.48,3.48,0,0,0,2-.36l60.84-35.12C425.36,175.1,425.24,174.13,424.13,173.48Z" transform="translate(-192.3 -69.88)"/><g class="cls-17"><path class="cls-8" d="M311.24,141.64,308,139.75a1.08,1.08,0,0,0-1,0l-3.63,2.12c-.28.16-.3.42,0,.57l3.27,1.89a1.08,1.08,0,0,0,1,0l3.63-2.12C311.49,142.05,311.51,141.79,311.24,141.64Z" transform="translate(-192.3 -69.88)"/><path class="cls-8" d="M316.29,144.55,313,142.66a1.08,1.08,0,0,0-1,0l-3.63,2.12c-.29.17-.31.43,0,.58l3.26,1.88a1.1,1.1,0,0,0,1,0l3.63-2.12C316.53,145,316.55,144.7,316.29,144.55Z" transform="translate(-192.3 -69.88)"/><path class="cls-8" d="M321.34,147.46l-3.27-1.88a1.08,1.08,0,0,0-1,0l-3.64,2.13c-.28.16-.3.42,0,.57l3.27,1.89a1.08,1.08,0,0,0,1,0l3.63-2.12C321.58,147.87,321.6,147.61,321.34,147.46Z" transform="translate(-192.3 -69.88)"/><path class="cls-8" d="M317.49,151.34l-3.26-1.89a1.1,1.1,0,0,0-1,0l-3,1.78c-.29.17-.31.43-.05.58l3.27,1.89a1.11,1.11,0,0,0,1,0l3.05-1.78C317.74,151.75,317.76,151.49,317.49,151.34Z" transform="translate(-192.3 -69.88)"/><path class="cls-8" d="M322.54,154.25l-3.27-1.88a1.08,1.08,0,0,0-1,0l-3,1.78c-.28.16-.3.42,0,.57l3.27,1.89a1.08,1.08,0,0,0,1,0l3.05-1.78C322.78,154.66,322.8,154.41,322.54,154.25Z" transform="translate(-192.3 -69.88)"/><path class="cls-8" d="M327.59,157.17l-3.27-1.89a1.08,1.08,0,0,0-1,0l-3.05,1.78c-.29.17-.31.42,0,.58l3.27,1.88a1.11,1.11,0,0,0,1,0l3.05-1.79C327.83,157.58,327.85,157.32,327.59,157.17Z" transform="translate(-192.3 -69.88)"/><path class="cls-8" d="M332.63,160.08l-3.26-1.88a1.1,1.1,0,0,0-1,0l-3,1.78c-.29.17-.31.43-.05.58l3.27,1.89a1.08,1.08,0,0,0,1,0l3-1.78C332.88,160.49,332.9,160.23,332.63,160.08Z" transform="translate(-192.3 -69.88)"/><path class="cls-8" d="M337.68,163l-3.27-1.89a1.08,1.08,0,0,0-1,0l-3.05,1.78c-.28.16-.3.42,0,.57l3.27,1.89a1.08,1.08,0,0,0,1,0l3.05-1.78C337.92,163.41,337.94,163.15,337.68,163Z" transform="translate(-192.3 -69.88)"/><path class="cls-8" d="M342.73,165.91,339.46,164a1.08,1.08,0,0,0-1,0l-3.05,1.78c-.29.17-.31.43,0,.58l3.27,1.88a1.08,1.08,0,0,0,1,0l3.05-1.78C343,166.32,343,166.06,342.73,165.91Z" transform="translate(-192.3 -69.88)"/><path class="cls-8" d="M347.77,168.82l-3.26-1.88a1.1,1.1,0,0,0-1,0l-3,1.78c-.29.17-.31.43-.05.58l3.27,1.89a1.08,1.08,0,0,0,1,0l3.05-1.78C348,169.23,348,169,347.77,168.82Z" transform="translate(-192.3 -69.88)"/><path class="cls-8" d="M352.82,171.74l-3.27-1.89a1.08,1.08,0,0,0-1,0l-3.05,1.78c-.28.17-.3.42,0,.57l3.27,1.89a1.08,1.08,0,0,0,1,0l3-1.78C353.06,172.15,353.08,171.89,352.82,171.74Z" transform="translate(-192.3 -69.88)"/><path class="cls-8" d="M357.87,174.65l-3.27-1.89a1.08,1.08,0,0,0-1,0l-3.05,1.78c-.29.17-.31.43,0,.58l3.27,1.89a1.12,1.12,0,0,0,1,0l3.05-1.78C358.11,175.06,358.13,174.8,357.87,174.65Z" transform="translate(-192.3 -69.88)"/><path class="cls-8" d="M362.91,177.56l-3.26-1.88a1.13,1.13,0,0,0-1,0l-3,1.79c-.29.16-.31.42-.05.57l3.27,1.89a1.08,1.08,0,0,0,1,0l3.05-1.78C363.16,178,363.18,177.72,362.91,177.56Z" transform="translate(-192.3 -69.88)"/><path class="cls-8" d="M315.39,155.5l-3.27-1.89a1.08,1.08,0,0,0-1,0l-3.05,1.78c-.28.17-.3.43,0,.58l3.27,1.88a1.08,1.08,0,0,0,1,0l3.05-1.78C315.64,155.91,315.65,155.65,315.39,155.5Z" transform="translate(-192.3 -69.88)"/><path class="cls-8" d="M310.27,152.54,307,150.66a1.08,1.08,0,0,0-1,0L303,152.47c-.28.16-.3.42,0,.57l3.27,1.89a1.08,1.08,0,0,0,1,0l3.05-1.78C310.51,153,310.53,152.69,310.27,152.54Z" transform="translate(-192.3 -69.88)"/><path class="cls-8" d="M305.14,149.58l-7-4.06a1.11,1.11,0,0,0-1,0l-3.05,1.79c-.28.16-.3.42,0,.57l7,4.07a1.08,1.08,0,0,0,1,0l3.05-1.78C305.38,150,305.4,149.73,305.14,149.58Z" transform="translate(-192.3 -69.88)"/><path class="cls-8" d="M299.19,151.52l-5.71-3.3a1.1,1.1,0,0,0-1,0L289.43,150c-.28.17-.3.42,0,.57l5.72,3.3a1.08,1.08,0,0,0,1,0l3-1.78C299.43,151.93,299.45,151.67,299.19,151.52Z" transform="translate(-192.3 -69.88)"/><path class="cls-8" d="M320.44,158.41l-3.27-1.88a1.11,1.11,0,0,0-1,0l-3.05,1.79c-.29.16-.3.42,0,.57l3.27,1.89a1.08,1.08,0,0,0,1,0l3-1.78C320.68,158.82,320.7,158.57,320.44,158.41Z" transform="translate(-192.3 -69.88)"/><path class="cls-8" d="M325.48,161.33l-3.26-1.89a1.08,1.08,0,0,0-1,0l-3.05,1.78c-.29.17-.31.42,0,.58l3.26,1.88a1.08,1.08,0,0,0,1,0l3.05-1.78C325.73,161.74,325.75,161.48,325.48,161.33Z" transform="translate(-192.3 -69.88)"/><path class="cls-8" d="M330.53,164.24l-3.27-1.89a1.12,1.12,0,0,0-1,0l-3,1.78c-.28.17-.3.43,0,.58l3.27,1.89a1.08,1.08,0,0,0,1,0l3.05-1.78C330.78,164.65,330.79,164.39,330.53,164.24Z" transform="translate(-192.3 -69.88)"/><path class="cls-8" d="M335.58,167.15l-3.27-1.88a1.08,1.08,0,0,0-1,0l-3.05,1.78c-.29.16-.3.42,0,.57l3.27,1.89a1.08,1.08,0,0,0,1,0l3.05-1.78C335.82,167.56,335.84,167.31,335.58,167.15Z" transform="translate(-192.3 -69.88)"/><path class="cls-8" d="M340.62,170.07l-3.26-1.89a1.08,1.08,0,0,0-1,0L333.32,170c-.29.17-.31.43-.05.58l3.27,1.88a1.11,1.11,0,0,0,1,0l3.05-1.79C340.87,170.48,340.89,170.22,340.62,170.07Z" transform="translate(-192.3 -69.88)"/><path class="cls-8" d="M345.67,173l-3.27-1.88a1.08,1.08,0,0,0-1,0l-3.05,1.78c-.28.17-.3.43,0,.58l3.27,1.89a1.08,1.08,0,0,0,1,0l3.05-1.78C345.92,173.39,345.93,173.13,345.67,173Z" transform="translate(-192.3 -69.88)"/><path class="cls-8" d="M350.72,175.9,347.45,174a1.08,1.08,0,0,0-1,0l-3,1.78c-.29.16-.3.42,0,.57l3.27,1.89a1.08,1.08,0,0,0,1,0l3.05-1.78C351,176.31,351,176.05,350.72,175.9Z" transform="translate(-192.3 -69.88)"/><path class="cls-8" d="M355.76,178.81l-3.26-1.89a1.08,1.08,0,0,0-1,0l-3.05,1.78c-.29.17-.31.43,0,.58l3.27,1.88a1.08,1.08,0,0,0,1,0l3.05-1.78C356,179.22,356,179,355.76,178.81Z" transform="translate(-192.3 -69.88)"/><path class="cls-8" d="M360.81,181.72l-3.27-1.88a1.11,1.11,0,0,0-1,0l-3.05,1.79c-.28.16-.3.42,0,.57l3.27,1.89a1.08,1.08,0,0,0,1,0l3-1.78C361.06,182.13,361.07,181.87,360.81,181.72Z" transform="translate(-192.3 -69.88)"/><path class="cls-8" d="M369.78,186.9l-7.13-4.11a1.11,1.11,0,0,0-1,0l-3.05,1.79c-.28.16-.3.42,0,.57l7.13,4.12a1.08,1.08,0,0,0,1,0l3.05-1.78C370,187.31,370.05,187.05,369.78,186.9Z" transform="translate(-192.3 -69.88)"/><path class="cls-8" d="M360.53,192.31l-6-3.48a1.08,1.08,0,0,0-1,0l-3,1.78c-.28.17-.3.43,0,.58l6,3.47a1.11,1.11,0,0,0,1,0l3.05-1.79C360.78,192.72,360.79,192.46,360.53,192.31Z" transform="translate(-192.3 -69.88)"/><path class="cls-8" d="M319.74,163.38l-3.27-1.88a1.08,1.08,0,0,0-1,0l-3.05,1.78c-.29.17-.3.43,0,.58l3.27,1.89a1.08,1.08,0,0,0,1,0L319.7,164C320,163.79,320,163.53,319.74,163.38Z" transform="translate(-192.3 -69.88)"/><path class="cls-8" d="M314.57,160.4l-3.27-1.89a1.08,1.08,0,0,0-1,0l-3.05,1.78c-.29.17-.31.42,0,.57l3.26,1.89a1.1,1.1,0,0,0,1,0l3-1.78C314.81,160.81,314.83,160.55,314.57,160.4Z" transform="translate(-192.3 -69.88)"/><path class="cls-8" d="M309.39,157.41l-3.26-1.89a1.1,1.1,0,0,0-1,0l-3.05,1.78c-.28.17-.3.43,0,.58l3.27,1.89a1.11,1.11,0,0,0,1,0l3.05-1.78C309.64,157.82,309.66,157.56,309.39,157.41Z" transform="translate(-192.3 -69.88)"/><path class="cls-8" d="M304.22,154.42,301,152.54a1.11,1.11,0,0,0-1,0l-3,1.79c-.28.16-.3.42,0,.57l3.27,1.89a1.08,1.08,0,0,0,1,0l3.05-1.78C304.47,154.83,304.48,154.58,304.22,154.42Z" transform="translate(-192.3 -69.88)"/><path class="cls-8" d="M324.78,166.3l-3.26-1.89a1.1,1.1,0,0,0-1,0l-3,1.78c-.29.16-.31.42-.05.57l3.27,1.89a1.08,1.08,0,0,0,1,0l3.05-1.78C325,166.71,325.05,166.45,324.78,166.3Z" transform="translate(-192.3 -69.88)"/><path class="cls-8" d="M329.83,169.21l-3.27-1.89a1.08,1.08,0,0,0-1,0l-3.05,1.78c-.28.17-.3.43,0,.58l3.27,1.88a1.08,1.08,0,0,0,1,0l3.05-1.78C330.07,169.62,330.09,169.36,329.83,169.21Z" transform="translate(-192.3 -69.88)"/><path class="cls-8" d="M334.88,172.12l-3.27-1.88a1.11,1.11,0,0,0-1,0l-3.05,1.79c-.29.16-.3.42,0,.57l3.27,1.89a1.08,1.08,0,0,0,1,0l3-1.78C335.12,172.53,335.14,172.28,334.88,172.12Z" transform="translate(-192.3 -69.88)"/><path class="cls-8" d="M339.92,175l-3.26-1.89a1.1,1.1,0,0,0-1,0l-3,1.78c-.29.17-.31.42-.05.58l3.27,1.88a1.08,1.08,0,0,0,1,0l3.05-1.78C340.17,175.45,340.19,175.19,339.92,175Z" transform="translate(-192.3 -69.88)"/><path class="cls-8" d="M345,178l-3.27-1.89a1.12,1.12,0,0,0-1,0l-3,1.78c-.28.17-.3.43,0,.58l3.27,1.89a1.11,1.11,0,0,0,1,0l3.05-1.78C345.21,178.36,345.23,178.1,345,178Z" transform="translate(-192.3 -69.88)"/><path class="cls-8" d="M350,180.86,346.75,179a1.08,1.08,0,0,0-1,0l-3.05,1.78c-.29.16-.3.42,0,.57l3.27,1.89a1.08,1.08,0,0,0,1,0l3.05-1.78C350.26,181.27,350.28,181,350,180.86Z" transform="translate(-192.3 -69.88)"/><path class="cls-8" d="M355.06,183.78l-3.26-1.89a1.1,1.1,0,0,0-1,0l-3,1.78c-.29.17-.31.42-.05.58l3.27,1.88a1.11,1.11,0,0,0,1,0l3-1.79C355.31,184.19,355.33,183.93,355.06,183.78Z" transform="translate(-192.3 -69.88)"/><path class="cls-8" d="M360.11,186.69l-3.27-1.88a1.08,1.08,0,0,0-1,0l-3.05,1.78c-.28.17-.3.43,0,.58l3.27,1.89a1.08,1.08,0,0,0,1,0l3.05-1.78C360.35,187.1,360.37,186.84,360.11,186.69Z" transform="translate(-192.3 -69.88)"/><path class="cls-8" d="M365.16,189.61l-3.27-1.89a1.08,1.08,0,0,0-1,0l-3,1.78c-.29.16-.3.42,0,.57l3.27,1.89a1.08,1.08,0,0,0,1,0l3.05-1.78C365.4,190,365.42,189.76,365.16,189.61Z" transform="translate(-192.3 -69.88)"/><path class="cls-8" d="M307.54,161.71l-3.27-1.88a1.08,1.08,0,0,0-1,0l-3,1.78c-.28.16-.3.42,0,.57l3.27,1.89a1.08,1.08,0,0,0,1,0l3.05-1.78C307.79,162.12,307.8,161.87,307.54,161.71Z" transform="translate(-192.3 -69.88)"/><path class="cls-8" d="M302.52,158.82l-3.27-1.89a1.08,1.08,0,0,0-1,0l-3.05,1.78c-.28.16-.3.42,0,.57l3.27,1.89a1.08,1.08,0,0,0,1,0l3.05-1.78C302.76,159.22,302.78,159,302.52,158.82Z" transform="translate(-192.3 -69.88)"/><path class="cls-8" d="M297.5,155.92,294.23,154a1.08,1.08,0,0,0-1,0l-3.05,1.78c-.28.16-.3.42,0,.57l3.27,1.89a1.08,1.08,0,0,0,1,0l3-1.78C297.74,156.33,297.76,156.07,297.5,155.92Z" transform="translate(-192.3 -69.88)"/><path class="cls-8" d="M292.48,153l-3.27-1.89a1.08,1.08,0,0,0-1,0l-3.05,1.78c-.29.17-.3.42,0,.57l3.27,1.89a1.08,1.08,0,0,0,1,0l3.05-1.78C292.72,153.43,292.74,153.17,292.48,153Z" transform="translate(-192.3 -69.88)"/><path class="cls-8" d="M287.62,155.86,284.35,154a1.08,1.08,0,0,0-1,0l-1,.59c-.29.16-.31.42,0,.57l3.26,1.89a1.1,1.1,0,0,0,1,0l1-.59C287.86,156.27,287.88,156,287.62,155.86Z" transform="translate(-192.3 -69.88)"/><path class="cls-8" d="M294.17,159.64l-3.27-1.89a1.11,1.11,0,0,0-1,0l-1,.59c-.28.17-.3.43,0,.58l3.27,1.88a1.11,1.11,0,0,0,1,0l1-.59C294.41,160.05,294.43,159.79,294.17,159.64Z" transform="translate(-192.3 -69.88)"/><path class="cls-8" d="M299.17,162.53l-3.27-1.89a1.08,1.08,0,0,0-1,0l-1,.59c-.28.16-.3.42,0,.57l3.27,1.89a1.08,1.08,0,0,0,1,0l1-.59C299.41,162.94,299.43,162.68,299.17,162.53Z" transform="translate(-192.3 -69.88)"/><path class="cls-8" d="M304.17,165.42l-3.27-1.89a1.08,1.08,0,0,0-1,0l-1,.58c-.28.17-.3.43,0,.58l3.27,1.89a1.08,1.08,0,0,0,1,0l1-.59C304.41,165.82,304.43,165.57,304.17,165.42Z" transform="translate(-192.3 -69.88)"/><path class="cls-8" d="M309.17,168.3l-3.27-1.88a1.08,1.08,0,0,0-1,0l-1,.59c-.28.17-.3.43,0,.58l3.27,1.88a1.08,1.08,0,0,0,1,0l1-.59C309.41,168.71,309.43,168.45,309.17,168.3Z" transform="translate(-192.3 -69.88)"/><path class="cls-8" d="M337.09,184.42l-3.27-1.89a1.08,1.08,0,0,0-1,0l-1,.59c-.28.17-.3.42,0,.58l3.27,1.88a1.11,1.11,0,0,0,1,0l1-.59C337.33,184.83,337.35,184.57,337.09,184.42Z" transform="translate(-192.3 -69.88)"/><path class="cls-8" d="M342.09,187.31l-3.27-1.89a1.08,1.08,0,0,0-1,0l-1,.59c-.28.16-.3.42,0,.57l3.27,1.89a1.08,1.08,0,0,0,1,0l1-.59C342.33,187.72,342.35,187.46,342.09,187.31Z" transform="translate(-192.3 -69.88)"/><path class="cls-8" d="M347.09,190.19l-3.27-1.88a1.08,1.08,0,0,0-1,0l-1,.58c-.28.17-.3.43,0,.58l3.27,1.89a1.08,1.08,0,0,0,1,0l1-.59C347.33,190.6,347.35,190.35,347.09,190.19Z" transform="translate(-192.3 -69.88)"/><path class="cls-8" d="M352.09,193.08l-3.27-1.88a1.08,1.08,0,0,0-1,0l-1,.59c-.28.17-.3.43,0,.58l3.27,1.88a1.08,1.08,0,0,0,1,0l1-.59C352.33,193.49,352.35,193.23,352.09,193.08Z" transform="translate(-192.3 -69.88)"/><path class="cls-8" d="M312.59,164.63l-3.27-1.89a1.08,1.08,0,0,0-1,0l-3.05,1.78c-.28.17-.3.42,0,.58l3.27,1.88a1.11,1.11,0,0,0,1,0l3.05-1.79C312.83,165,312.85,164.78,312.59,164.63Z" transform="translate(-192.3 -69.88)"/><path class="cls-8" d="M317.64,167.54l-3.27-1.88a1.08,1.08,0,0,0-1,0l-3.05,1.78c-.29.17-.31.43,0,.58l3.26,1.89a1.1,1.1,0,0,0,1,0l3-1.78C317.88,168,317.9,167.69,317.64,167.54Z" transform="translate(-192.3 -69.88)"/><path class="cls-8" d="M322.68,170.46l-3.27-1.89a1.08,1.08,0,0,0-1,0l-3.05,1.78c-.28.16-.3.42,0,.57l3.27,1.89a1.08,1.08,0,0,0,1,0l3.05-1.78C322.93,170.86,322.94,170.61,322.68,170.46Z" transform="translate(-192.3 -69.88)"/><path class="cls-8" d="M327.73,173.37l-3.27-1.89a1.08,1.08,0,0,0-1,0l-3.05,1.78c-.29.17-.3.43,0,.58l3.27,1.88a1.08,1.08,0,0,0,1,0l3.05-1.78C328,173.78,328,173.52,327.73,173.37Z" transform="translate(-192.3 -69.88)"/><path class="cls-8" d="M332.78,176.28l-3.27-1.88a1.08,1.08,0,0,0-1,0l-3,1.78c-.29.17-.31.43,0,.58l3.26,1.89a1.08,1.08,0,0,0,1,0l3.05-1.78C333,176.69,333,176.43,332.78,176.28Z" transform="translate(-192.3 -69.88)"/><path class="cls-8" d="M337.82,179.2l-3.27-1.89a1.08,1.08,0,0,0-1,0l-3.05,1.78c-.28.17-.3.42,0,.57l3.27,1.89a1.08,1.08,0,0,0,1,0l3-1.78C338.07,179.61,338.08,179.35,337.82,179.2Z" transform="translate(-192.3 -69.88)"/><path class="cls-8" d="M342.87,182.11l-3.27-1.89a1.08,1.08,0,0,0-1,0L335.56,182c-.29.17-.3.43,0,.58l3.27,1.89a1.12,1.12,0,0,0,1,0l3.05-1.78C343.11,182.52,343.13,182.26,342.87,182.11Z" transform="translate(-192.3 -69.88)"/><path class="cls-8" d="M347.92,185l-3.27-1.88a1.11,1.11,0,0,0-1,0L340.61,185c-.29.16-.31.42,0,.57l3.26,1.89a1.08,1.08,0,0,0,1,0l3.05-1.78C348.16,185.43,348.18,185.18,347.92,185Z" transform="translate(-192.3 -69.88)"/><path class="cls-8" d="M353,187.94l-3.27-1.89a1.08,1.08,0,0,0-1,0l-3.05,1.78c-.28.17-.3.42,0,.58l3.27,1.88a1.08,1.08,0,0,0,1,0l3.05-1.78C353.21,188.35,353.22,188.09,353,187.94Z" transform="translate(-192.3 -69.88)"/><path class="cls-8" d="M312.35,148.37l-9.62-5.55a1.08,1.08,0,0,0-1,0l-3.05,1.78c-.29.17-.31.43-.05.58l9.63,5.56a1.08,1.08,0,0,0,1,0l3.05-1.78C312.59,148.78,312.61,148.52,312.35,148.37Z" transform="translate(-192.3 -69.88)"/><path class="cls-8" d="M374.35,184.17l-9.62-5.56a1.1,1.1,0,0,0-1,0l-3,1.78c-.29.17-.31.42-.05.58l9.63,5.55a1.08,1.08,0,0,0,1,0l3.05-1.78C374.59,184.58,374.61,184.32,374.35,184.17Z" transform="translate(-192.3 -69.88)"/><path class="cls-8" d="M365,172.67l-3.27-1.89a1.08,1.08,0,0,0-1,0l-3.63,2.12c-.29.17-.31.42,0,.58l3.26,1.88a1.1,1.1,0,0,0,1,0l3.63-2.12C365.23,173.08,365.25,172.82,365,172.67Z" transform="translate(-192.3 -69.88)"/><path class="cls-8" d="M328.34,151.51l-5.23-3a1.08,1.08,0,0,0-1,0l-3.63,2.12c-.28.17-.3.42,0,.58l5.23,3a1.11,1.11,0,0,0,1,0l3.63-2.13C328.58,151.92,328.6,151.66,328.34,151.51Z" transform="translate(-192.3 -69.88)"/><path class="cls-8" d="M360.13,169.86l-5.23-3a1.08,1.08,0,0,0-1,0L350.28,169c-.29.17-.31.43,0,.58l5.22,3a1.08,1.08,0,0,0,1,0l3.64-2.12C360.37,170.27,360.39,170,360.13,169.86Z" transform="translate(-192.3 -69.88)"/><path class="cls-8" d="M335.62,155.71l-5.22-3a1.1,1.1,0,0,0-1,0l-3.63,2.12c-.28.17-.3.43,0,.58l5.23,3a1.08,1.08,0,0,0,1,0l3.63-2.12C335.87,156.12,335.88,155.86,335.62,155.71Z" transform="translate(-192.3 -69.88)"/><path class="cls-8" d="M325.77,155.44l22.72,13.12a1.08,1.08,0,0,0,1,0l3.7-2.16c.27-.16.26-.41,0-.58l-22.72-13.12Z" transform="translate(-192.3 -69.88)"/><path class="cls-8" d="M374.28,180.74l3.64,2.1a.88.88,0,0,0,.82,0l1.48-.87c.24-.13.25-.34,0-.47l-3.64-2.1a1,1,0,0,0-.82,0l-1.48.87C374.08,180.41,374.07,180.62,374.28,180.74Z" transform="translate(-192.3 -69.88)"/><path class="cls-8" d="M369.2,177.8l3.64,2.11a.89.89,0,0,0,.81,0l1.48-.86c.24-.14.25-.35,0-.48l-3.64-2.1a.92.92,0,0,0-.81,0l-1.49.87C369,177.47,369,177.68,369.2,177.8Z" transform="translate(-192.3 -69.88)"/><path class="cls-8" d="M364.15,174.89l3.64,2.1a.86.86,0,0,0,.81,0l1.49-.87c.23-.13.25-.35,0-.47l-3.64-2.1a.86.86,0,0,0-.81,0l-1.49.87C364,174.56,363.93,174.77,364.15,174.89Z" transform="translate(-192.3 -69.88)"/><path class="cls-8" d="M366.57,179.34l3.64,2.1a1,1,0,0,0,.82,0l1.48-.87c.23-.14.25-.35,0-.47L368.9,178a.89.89,0,0,0-.81,0l-1.48.87C366.37,179,366.36,179.21,366.57,179.34Z" transform="translate(-192.3 -69.88)"/></g></g></g><g class="cls-18"><path class="cls-8" d="M240.12,182.23l-3.24-1.87c-.26-.15-.22-.41.08-.58l3.82-2.21a1.13,1.13,0,0,1,1,0L245,179.4c.26.15.22.41-.08.59l-3.82,2.2A1.13,1.13,0,0,1,240.12,182.23Z" transform="translate(-192.3 -69.88)"/><path class="cls-8" d="M245.12,185.12l-3.24-1.87c-.26-.15-.23-.41.07-.59l3.82-2.2a1.15,1.15,0,0,1,1,0l3.23,1.87c.26.15.23.41-.07.58l-3.82,2.21A1.13,1.13,0,0,1,245.12,185.12Z" transform="translate(-192.3 -69.88)"/><path class="cls-8" d="M250.12,188l-3.24-1.86c-.26-.15-.23-.42.07-.59l3.82-2.21a1.15,1.15,0,0,1,1,0l3.23,1.87c.26.15.23.41-.07.59l-3.82,2.2A1.13,1.13,0,0,1,250.12,188Z" transform="translate(-192.3 -69.88)"/><path class="cls-8" d="M257,185.62l-3.24-1.87c-.26-.15-.23-.41.07-.58l3.21-1.85a1.12,1.12,0,0,1,1,0l3.23,1.87c.26.15.23.41-.07.59L258,185.58A1.13,1.13,0,0,1,257,185.62Z" transform="translate(-192.3 -69.88)"/><path class="cls-8" d="M262,188.51l-3.24-1.87c-.26-.15-.23-.41.07-.59l3.21-1.85a1.13,1.13,0,0,1,1,0l3.24,1.87c.26.15.23.41-.07.58L263,188.46A1.1,1.1,0,0,1,262,188.51Z" transform="translate(-192.3 -69.88)"/><path class="cls-8" d="M267,191.39l-3.23-1.87c-.26-.15-.23-.41.07-.58l3.21-1.85a1.1,1.1,0,0,1,1-.05l3.24,1.87c.26.15.23.42-.08.59l-3.2,1.85A1.15,1.15,0,0,1,267,191.39Z" transform="translate(-192.3 -69.88)"/><path class="cls-8" d="M272,194.28l-3.23-1.87c-.26-.15-.23-.41.07-.59l3.21-1.85a1.13,1.13,0,0,1,1,0l3.24,1.87c.26.15.22.41-.08.58l-3.2,1.86A1.15,1.15,0,0,1,272,194.28Z" transform="translate(-192.3 -69.88)"/><path class="cls-8" d="M277,197.16l-3.24-1.87c-.26-.15-.22-.41.08-.58l3.2-1.85a1.12,1.12,0,0,1,1,0l3.23,1.86c.26.15.23.42-.07.59L278,197.12A1.13,1.13,0,0,1,277,197.16Z" transform="translate(-192.3 -69.88)"/><path class="cls-8" d="M282,200.05l-3.24-1.87c-.26-.15-.23-.41.07-.59l3.21-1.85a1.15,1.15,0,0,1,1,0l3.23,1.87c.26.15.23.41-.07.59L283,200A1.13,1.13,0,0,1,282,200.05Z" transform="translate(-192.3 -69.88)"/><path class="cls-8" d="M287,202.93l-3.24-1.86c-.26-.15-.23-.42.07-.59l3.21-1.85a1.13,1.13,0,0,1,1,0l3.24,1.87c.26.15.23.41-.07.58L288,202.89A1.1,1.1,0,0,1,287,202.93Z" transform="translate(-192.3 -69.88)"/><path class="cls-8" d="M292,205.82,288.78,204c-.26-.15-.23-.41.07-.58l3.21-1.86a1.13,1.13,0,0,1,1,0l3.24,1.87c.26.15.22.41-.08.59l-3.2,1.85A1.15,1.15,0,0,1,292,205.82Z" transform="translate(-192.3 -69.88)"/><path class="cls-8" d="M297,208.71l-3.23-1.87c-.26-.15-.23-.42.07-.59l3.21-1.85a1.13,1.13,0,0,1,1,0l3.24,1.87c.26.15.22.41-.08.58l-3.2,1.85A1.12,1.12,0,0,1,297,208.71Z" transform="translate(-192.3 -69.88)"/><path class="cls-8" d="M302,211.59l-3.24-1.87c-.26-.15-.22-.41.08-.58l3.2-1.85a1.12,1.12,0,0,1,1,0l3.23,1.87c.26.15.23.41-.07.59L303,211.55A1.13,1.13,0,0,1,302,211.59Z" transform="translate(-192.3 -69.88)"/><path class="cls-8" d="M264.39,184.25l-3.23-1.86c-.26-.15-.23-.42.07-.59l3.21-1.85a1.13,1.13,0,0,1,1,0l3.24,1.87c.26.15.22.41-.08.58l-3.2,1.85A1.12,1.12,0,0,1,264.39,184.25Z" transform="translate(-192.3 -69.88)"/><path class="cls-8" d="M259.32,181.33l-3.24-1.87c-.26-.15-.22-.41.08-.59l3.2-1.85a1.15,1.15,0,0,1,1,0l3.23,1.87c.26.15.23.41-.07.58l-3.21,1.85A1.1,1.1,0,0,1,259.32,181.33Z" transform="translate(-192.3 -69.88)"/><path class="cls-8" d="M254.24,178.39l-7-4c-.26-.15-.23-.41.07-.59l3.21-1.85a1.13,1.13,0,0,1,1,0l7,4c.26.15.23.42-.07.59l-3.21,1.85A1.13,1.13,0,0,1,254.24,178.39Z" transform="translate(-192.3 -69.88)"/><path class="cls-8" d="M257.79,174.83l-5.66-3.27c-.26-.15-.22-.41.08-.59l3.2-1.85a1.15,1.15,0,0,1,1,0l5.65,3.27c.26.15.23.41-.07.58l-3.21,1.85A1.1,1.1,0,0,1,257.79,174.83Z" transform="translate(-192.3 -69.88)"/><path class="cls-8" d="M269.39,187.14l-3.24-1.87c-.26-.15-.22-.41.08-.58l3.2-1.86a1.15,1.15,0,0,1,1,0l3.23,1.87c.26.15.23.41-.07.59l-3.21,1.85A1.13,1.13,0,0,1,269.39,187.14Z" transform="translate(-192.3 -69.88)"/><path class="cls-8" d="M274.39,190l-3.24-1.87c-.26-.15-.23-.41.08-.59l3.2-1.85a1.15,1.15,0,0,1,1,0l3.23,1.87c.26.15.23.41-.07.58L275.4,190A1.1,1.1,0,0,1,274.39,190Z" transform="translate(-192.3 -69.88)"/><path class="cls-8" d="M279.39,192.91,276.15,191c-.26-.15-.23-.41.07-.58l3.21-1.85a1.1,1.1,0,0,1,1-.05l3.24,1.87c.26.15.23.41-.07.59l-3.21,1.85A1.13,1.13,0,0,1,279.39,192.91Z" transform="translate(-192.3 -69.88)"/><path class="cls-8" d="M284.38,195.8l-3.23-1.87c-.26-.15-.23-.41.07-.59l3.21-1.85a1.13,1.13,0,0,1,1,0l3.24,1.87c.26.15.23.41-.07.58l-3.21,1.85A1.12,1.12,0,0,1,284.38,195.8Z" transform="translate(-192.3 -69.88)"/><path class="cls-8" d="M289.38,198.68l-3.23-1.87c-.26-.15-.23-.41.07-.58l3.21-1.85a1.1,1.1,0,0,1,1,0l3.24,1.86c.26.15.22.42-.08.59l-3.2,1.85A1.15,1.15,0,0,1,289.38,198.68Z" transform="translate(-192.3 -69.88)"/><path class="cls-8" d="M294.38,201.57l-3.24-1.87c-.26-.15-.22-.41.08-.59l3.2-1.85a1.15,1.15,0,0,1,1,0l3.23,1.87c.26.15.23.41-.07.58l-3.21,1.86A1.13,1.13,0,0,1,294.38,201.57Z" transform="translate(-192.3 -69.88)"/><path class="cls-8" d="M299.38,204.45l-3.24-1.86c-.26-.15-.23-.42.07-.59l3.21-1.85a1.15,1.15,0,0,1,1,0l3.23,1.86c.26.15.23.42-.07.59l-3.21,1.85A1.13,1.13,0,0,1,299.38,204.45Z" transform="translate(-192.3 -69.88)"/><path class="cls-8" d="M304.38,207.34l-3.24-1.87c-.26-.15-.23-.41.07-.58l3.21-1.86a1.13,1.13,0,0,1,1,0l3.24,1.87c.26.15.23.41-.07.59l-3.21,1.85A1.13,1.13,0,0,1,304.38,207.34Z" transform="translate(-192.3 -69.88)"/><path class="cls-8" d="M309.37,210.22l-3.23-1.86c-.26-.15-.23-.42.07-.59l3.21-1.85a1.13,1.13,0,0,1,1,0l3.24,1.87c.26.15.23.41-.07.58l-3.21,1.85A1.12,1.12,0,0,1,309.37,210.22Z" transform="translate(-192.3 -69.88)"/><path class="cls-8" d="M318.26,215.35l-7.06-4.07c-.26-.15-.23-.41.07-.59l3.21-1.85a1.13,1.13,0,0,1,1,0l7.06,4.08c.26.15.23.41-.07.58l-3.21,1.85A1.1,1.1,0,0,1,318.26,215.35Z" transform="translate(-192.3 -69.88)"/><path class="cls-8" d="M328,209.74l-6-3.44c-.26-.15-.23-.42.07-.59l3.21-1.85a1.13,1.13,0,0,1,1,0l6,3.44c.26.15.23.41-.07.58L329,209.69A1.1,1.1,0,0,1,328,209.74Z" transform="translate(-192.3 -69.88)"/><path class="cls-8" d="M278.14,186.58l-3.23-1.87c-.26-.15-.23-.42.07-.59l3.21-1.85a1.13,1.13,0,0,1,1,0l3.24,1.87c.26.15.22.41-.08.58l-3.2,1.85A1.12,1.12,0,0,1,278.14,186.58Z" transform="translate(-192.3 -69.88)"/><path class="cls-8" d="M273,183.62l-3.24-1.87c-.26-.15-.22-.41.08-.59l3.2-1.85a1.15,1.15,0,0,1,1,0l3.23,1.87c.26.15.23.41-.07.58L274,183.58A1.13,1.13,0,0,1,273,183.62Z" transform="translate(-192.3 -69.88)"/><path class="cls-8" d="M267.9,180.66l-3.24-1.87c-.26-.15-.23-.41.07-.58l3.21-1.85a1.12,1.12,0,0,1,1-.05l3.23,1.87c.26.15.23.41-.07.59l-3.21,1.85A1.13,1.13,0,0,1,267.9,180.66Z" transform="translate(-192.3 -69.88)"/><path class="cls-8" d="M262.78,177.7l-3.24-1.87c-.26-.15-.23-.41.07-.58l3.21-1.85a1.1,1.1,0,0,1,1,0l3.24,1.86c.26.15.23.42-.07.59l-3.21,1.85A1.13,1.13,0,0,1,262.78,177.7Z" transform="translate(-192.3 -69.88)"/><path class="cls-8" d="M283.14,189.46l-3.24-1.87c-.26-.15-.22-.41.08-.58l3.2-1.85a1.12,1.12,0,0,1,1,0l3.23,1.87c.26.15.23.41-.07.59l-3.21,1.85A1.13,1.13,0,0,1,283.14,189.46Z" transform="translate(-192.3 -69.88)"/><path class="cls-8" d="M288.14,192.35l-3.24-1.87c-.26-.15-.22-.41.08-.59l3.2-1.85a1.15,1.15,0,0,1,1,0l3.23,1.87c.26.15.23.41-.07.58l-3.21,1.85A1.1,1.1,0,0,1,288.14,192.35Z" transform="translate(-192.3 -69.88)"/><path class="cls-8" d="M293.14,195.23l-3.24-1.87c-.26-.15-.23-.41.07-.58l3.21-1.85a1.1,1.1,0,0,1,1,0l3.24,1.86c.26.15.23.42-.07.59l-3.21,1.85A1.13,1.13,0,0,1,293.14,195.23Z" transform="translate(-192.3 -69.88)"/><path class="cls-8" d="M298.14,198.12l-3.24-1.87c-.26-.15-.23-.41.07-.59l3.21-1.85a1.13,1.13,0,0,1,1,0l3.24,1.87c.26.15.23.41-.07.58l-3.21,1.86A1.13,1.13,0,0,1,298.14,198.12Z" transform="translate(-192.3 -69.88)"/><path class="cls-8" d="M303.13,201l-3.23-1.87c-.26-.15-.23-.41.07-.58l3.21-1.85a1.13,1.13,0,0,1,1,0l3.24,1.86c.26.15.22.42-.08.59l-3.2,1.85A1.15,1.15,0,0,1,303.13,201Z" transform="translate(-192.3 -69.88)"/><path class="cls-8" d="M308.13,203.89,304.89,202c-.26-.15-.22-.41.08-.58l3.2-1.86a1.15,1.15,0,0,1,1,0l3.23,1.87c.26.15.23.41-.07.59l-3.21,1.85A1.13,1.13,0,0,1,308.13,203.89Z" transform="translate(-192.3 -69.88)"/><path class="cls-8" d="M313.13,206.77l-3.24-1.86c-.26-.15-.22-.42.08-.59l3.2-1.85a1.15,1.15,0,0,1,1,0l3.23,1.87c.26.15.23.41-.07.58l-3.21,1.85A1.1,1.1,0,0,1,313.13,206.77Z" transform="translate(-192.3 -69.88)"/><path class="cls-8" d="M318.13,209.66l-3.24-1.87c-.26-.15-.23-.41.07-.58l3.21-1.85a1.1,1.1,0,0,1,1-.05l3.24,1.87c.26.15.23.41-.07.59l-3.21,1.85A1.13,1.13,0,0,1,318.13,209.66Z" transform="translate(-192.3 -69.88)"/><path class="cls-8" d="M323.13,212.55l-3.24-1.87c-.26-.15-.23-.41.07-.59l3.21-1.85a1.13,1.13,0,0,1,1,0l3.24,1.87c.26.15.23.41-.07.58l-3.21,1.85A1.1,1.1,0,0,1,323.13,212.55Z" transform="translate(-192.3 -69.88)"/><path class="cls-8" d="M275.51,179.44l-3.23-1.87c-.26-.15-.23-.41.07-.59l3.2-1.85a1.15,1.15,0,0,1,1,0L279.8,177c.26.15.23.41-.07.58l-3.2,1.86A1.15,1.15,0,0,1,275.51,179.44Z" transform="translate(-192.3 -69.88)"/><path class="cls-8" d="M270.54,176.57l-3.24-1.87c-.26-.15-.23-.41.07-.59l3.21-1.85a1.15,1.15,0,0,1,1,0l3.23,1.87c.26.15.23.41-.07.58l-3.21,1.85A1.1,1.1,0,0,1,270.54,176.57Z" transform="translate(-192.3 -69.88)"/><path class="cls-8" d="M265.57,173.7l-3.24-1.87c-.26-.15-.23-.41.07-.59l3.21-1.85a1.13,1.13,0,0,1,1,0l3.24,1.87c.26.15.23.41-.07.58l-3.21,1.85A1.1,1.1,0,0,1,265.57,173.7Z" transform="translate(-192.3 -69.88)"/><path class="cls-8" d="M260.59,170.82,257.36,169c-.26-.15-.23-.42.07-.59l3.21-1.85a1.13,1.13,0,0,1,1,0l3.24,1.87c.26.15.22.41-.08.58l-3.2,1.85A1.12,1.12,0,0,1,260.59,170.82Z" transform="translate(-192.3 -69.88)"/><path class="cls-8" d="M265.71,167.87,262.47,166c-.26-.15-.23-.41.07-.58l1.06-.61a1.12,1.12,0,0,1,1-.05l3.23,1.87c.26.15.23.41-.07.59l-1.06.61A1.13,1.13,0,0,1,265.71,167.87Z" transform="translate(-192.3 -69.88)"/><path class="cls-8" d="M272.2,171.62,269,169.75c-.26-.15-.23-.41.07-.58l1.06-.62a1.15,1.15,0,0,1,1,0l3.23,1.87c.26.15.23.41-.07.58l-1.06.62A1.13,1.13,0,0,1,272.2,171.62Z" transform="translate(-192.3 -69.88)"/><path class="cls-8" d="M277.15,174.48l-3.24-1.87c-.26-.15-.23-.41.07-.59l1.06-.61a1.15,1.15,0,0,1,1,0l3.23,1.87c.26.15.23.41-.07.58l-1.06.62A1.13,1.13,0,0,1,277.15,174.48Z" transform="translate(-192.3 -69.88)"/><path class="cls-8" d="M282.1,177.34l-3.24-1.87c-.26-.15-.22-.41.08-.59l1.06-.61a1.13,1.13,0,0,1,1,0l3.24,1.87c.26.15.22.41-.08.58l-1.06.62A1.13,1.13,0,0,1,282.1,177.34Z" transform="translate(-192.3 -69.88)"/><path class="cls-8" d="M287.05,180.2l-3.23-1.87c-.26-.15-.23-.41.07-.59l1.06-.61a1.13,1.13,0,0,1,1,0L289.2,179c.26.15.23.41-.07.58l-1.06.61A1.12,1.12,0,0,1,287.05,180.2Z" transform="translate(-192.3 -69.88)"/><path class="cls-8" d="M314.7,196.16l-3.23-1.87c-.26-.15-.23-.41.07-.58l1.06-.62a1.13,1.13,0,0,1,1,0l3.24,1.87c.26.15.23.41-.07.59l-1.06.61A1.15,1.15,0,0,1,314.7,196.16Z" transform="translate(-192.3 -69.88)"/><path class="cls-8" d="M319.65,199l-3.23-1.87c-.26-.15-.23-.41.07-.58l1.06-.62a1.13,1.13,0,0,1,1,0l3.24,1.87c.26.15.23.41-.07.58l-1.06.62A1.15,1.15,0,0,1,319.65,199Z" transform="translate(-192.3 -69.88)"/><path class="cls-8" d="M324.61,201.88,321.37,200c-.26-.15-.23-.41.07-.59l1.06-.61a1.15,1.15,0,0,1,1,0l3.23,1.87c.26.15.23.41-.07.58l-1.06.62A1.13,1.13,0,0,1,324.61,201.88Z" transform="translate(-192.3 -69.88)"/><path class="cls-8" d="M329.56,204.74l-3.24-1.87c-.26-.15-.22-.41.08-.59l1.06-.61a1.13,1.13,0,0,1,1,0l3.24,1.87c.26.15.22.41-.08.58l-1.06.62A1.13,1.13,0,0,1,329.56,204.74Z" transform="translate(-192.3 -69.88)"/><path class="cls-8" d="M280.51,182.32l-3.24-1.86c-.26-.15-.22-.42.08-.59l3.2-1.85a1.15,1.15,0,0,1,1,0l3.23,1.87c.26.15.23.41-.07.58l-3.21,1.85A1.1,1.1,0,0,1,280.51,182.32Z" transform="translate(-192.3 -69.88)"/><path class="cls-8" d="M285.51,185.21l-3.24-1.87c-.26-.15-.23-.41.07-.58l3.21-1.86a1.13,1.13,0,0,1,1,0l3.24,1.87c.26.15.23.41-.07.59l-3.21,1.85A1.13,1.13,0,0,1,285.51,185.21Z" transform="translate(-192.3 -69.88)"/><path class="cls-8" d="M290.51,188.1l-3.24-1.87c-.26-.15-.23-.42.07-.59l3.21-1.85a1.13,1.13,0,0,1,1,0l3.24,1.87c.26.15.23.41-.07.58l-3.21,1.85A1.1,1.1,0,0,1,290.51,188.1Z" transform="translate(-192.3 -69.88)"/><path class="cls-8" d="M295.5,191l-3.23-1.87c-.26-.15-.23-.41.07-.58l3.21-1.85a1.1,1.1,0,0,1,1-.05l3.24,1.87c.26.15.22.41-.08.59l-3.2,1.85A1.15,1.15,0,0,1,295.5,191Z" transform="translate(-192.3 -69.88)"/><path class="cls-8" d="M300.5,193.87,297.26,192c-.25-.15-.22-.41.08-.59l3.2-1.85a1.15,1.15,0,0,1,1,0l3.23,1.87c.26.15.23.41-.07.58l-3.2,1.85A1.12,1.12,0,0,1,300.5,193.87Z" transform="translate(-192.3 -69.88)"/><path class="cls-8" d="M305.5,196.75l-3.24-1.87c-.26-.15-.22-.41.08-.58l3.2-1.85a1.12,1.12,0,0,1,1,0l3.23,1.87c.26.15.23.42-.07.59l-3.21,1.85A1.13,1.13,0,0,1,305.5,196.75Z" transform="translate(-192.3 -69.88)"/><path class="cls-8" d="M310.5,199.64l-3.24-1.87c-.26-.15-.23-.41.07-.59l3.21-1.85a1.13,1.13,0,0,1,1,0l3.24,1.87c.26.15.23.41-.07.58l-3.21,1.86A1.13,1.13,0,0,1,310.5,199.64Z" transform="translate(-192.3 -69.88)"/><path class="cls-8" d="M315.5,202.52l-3.24-1.87c-.26-.15-.23-.41.07-.58l3.21-1.85a1.1,1.1,0,0,1,1,0l3.24,1.86c.26.15.23.42-.07.59l-3.21,1.85A1.13,1.13,0,0,1,315.5,202.52Z" transform="translate(-192.3 -69.88)"/><path class="cls-8" d="M320.49,205.41l-3.23-1.87c-.26-.15-.23-.41.07-.59l3.21-1.85a1.13,1.13,0,0,1,1,0l3.24,1.87c.26.15.22.41-.08.59l-3.2,1.85A1.15,1.15,0,0,1,320.49,205.41Z" transform="translate(-192.3 -69.88)"/><path class="cls-8" d="M251.94,182.68l-9.54-5.5c-.26-.15-.22-.42.08-.59l3.2-1.85a1.15,1.15,0,0,1,1,0l9.53,5.5c.26.15.23.41-.07.59L253,182.64A1.13,1.13,0,0,1,251.94,182.68Z" transform="translate(-192.3 -69.88)"/><path class="cls-8" d="M313.34,218.13l-9.53-5.5c-.26-.15-.23-.41.07-.59l3.2-1.85a1.15,1.15,0,0,1,1,0l9.53,5.5c.26.15.23.41-.07.59l-3.21,1.85A1.13,1.13,0,0,1,313.34,218.13Z" transform="translate(-192.3 -69.88)"/><path class="cls-8" d="M293.35,213l-3.24-1.86c-.26-.15-.22-.42.08-.59L294,208.3a1.13,1.13,0,0,1,1,0l3.24,1.87c.26.15.22.41-.08.59l-3.82,2.2A1.1,1.1,0,0,1,293.35,213Z" transform="translate(-192.3 -69.88)"/><path class="cls-8" d="M257.05,192l-5.17-3c-.26-.15-.23-.41.07-.58l3.82-2.21a1.13,1.13,0,0,1,1,0l5.18,3c.26.15.23.41-.07.58L258.07,192A1.15,1.15,0,0,1,257.05,192Z" transform="translate(-192.3 -69.88)"/><path class="cls-8" d="M288.53,210.18l-5.17-3c-.26-.15-.23-.42.07-.59l3.82-2.21a1.13,1.13,0,0,1,1,0l5.18,3c.26.15.23.41-.07.59l-3.82,2.2A1.12,1.12,0,0,1,288.53,210.18Z" transform="translate(-192.3 -69.88)"/><path class="cls-8" d="M264.26,196.17l-5.17-3c-.26-.15-.23-.41.07-.58l3.82-2.21a1.15,1.15,0,0,1,1,0l5.17,3c.26.15.23.41-.07.58l-3.82,2.21A1.15,1.15,0,0,1,264.26,196.17Z" transform="translate(-192.3 -69.88)"/><path class="cls-8" d="M264,190.37l22.5,13c.28.17.28.43,0,.59l-3.89,2.25a1.12,1.12,0,0,1-1,0l-22.51-13Z" transform="translate(-192.3 -69.88)"/><path class="cls-8" d="M307.32,218.2l3.6,2.08c.22.12.19.34-.06.48l-1.56.9a.91.91,0,0,1-.83,0l-3.61-2.08c-.21-.12-.18-.34.06-.48l1.57-.9A.9.9,0,0,1,307.32,218.2Z" transform="translate(-192.3 -69.88)"/><path class="cls-8" d="M302.28,215.29l3.6,2.08c.22.12.19.34-.06.48l-1.56.9a.91.91,0,0,1-.83,0l-3.61-2.08c-.21-.12-.18-.33.06-.48l1.57-.9A.91.91,0,0,1,302.28,215.29Z" transform="translate(-192.3 -69.88)"/><path class="cls-8" d="M297.28,212.4l3.61,2.08c.21.13.18.34-.06.48l-1.57.9a.91.91,0,0,1-.83,0l-3.6-2.08c-.22-.13-.19-.34.06-.48l1.56-.9A.91.91,0,0,1,297.28,212.4Z" transform="translate(-192.3 -69.88)"/><path class="cls-8" d="M305,213.69l3.6,2.08c.22.13.19.34-.06.48l-1.56.91a.94.94,0,0,1-.83,0l-3.61-2.08c-.21-.12-.18-.34.06-.48l1.57-.9A.94.94,0,0,1,305,213.69Z" transform="translate(-192.3 -69.88)"/></g><path class="cls-19" d="M356,135.93a1.47,1.47,0,0,1-.76-.22,2.18,2.18,0,0,1-1-2.23,1.09,1.09,0,0,1,.63-.8,1.31,1.31,0,0,1,1.2.13,2.22,2.22,0,0,1,1.06,2.23,1.09,1.09,0,0,1-1.08.89Zm-.73-3a.74.74,0,0,0-.75.62,1.83,1.83,0,0,0,.9,1.85,1,1,0,0,0,.88.11.76.76,0,0,0,.44-.56,1.84,1.84,0,0,0-.89-1.85A1.13,1.13,0,0,0,355.3,132.94Z" transform="translate(-192.3 -69.88)"/><path class="cls-19" d="M360.15,138.31a1.47,1.47,0,0,1-.76-.22,2.21,2.21,0,0,1-1.05-2.23,1.11,1.11,0,0,1,.63-.8,1.33,1.33,0,0,1,1.2.12,2.22,2.22,0,0,1,1.06,2.23,1.14,1.14,0,0,1-.64.81A1.08,1.08,0,0,1,360.15,138.31Zm-.73-3a.78.78,0,0,0-.31.07.75.75,0,0,0-.43.56,1.82,1.82,0,0,0,.89,1.85,1,1,0,0,0,.89.11.77.77,0,0,0,.43-.56h0a1.84,1.84,0,0,0-.89-1.85A1.15,1.15,0,0,0,359.42,135.31Z" transform="translate(-192.3 -69.88)"/><path class="cls-19" d="M365.18,139.75a1,1,0,0,1-1.58.57,2,2,0,0,1-1-2,1,1,0,0,1,1.57-.57A2,2,0,0,1,365.18,139.75Z" transform="translate(-192.3 -69.88)"/><polygon class="cls-19" points="93.86 24.4 91.66 23.13 91.83 22.11 94.03 23.38 93.86 24.4"/><polygon class="cls-19" points="97.06 26.25 94.86 24.98 95.03 23.96 97.24 25.23 97.06 26.25"/><polygon class="cls-19" points="90.69 22.57 85.86 19.78 86.03 18.76 90.86 21.55 90.69 22.57"/><polygon class="cls-19" points="90.91 32.59 85.64 29.55 85.85 28.33 91.12 31.37 90.91 32.59"/><polygon class="cls-19" points="95.41 35.18 92.77 33.66 92.98 32.45 95.61 33.97 95.41 35.18"/><polygon class="cls-19" points="91.99 36.34 89.74 35.05 89.95 33.83 92.19 35.12 91.99 36.34"/><polygon class="cls-19" points="95.75 38.51 93.11 36.99 93.32 35.77 95.95 37.29 95.75 38.51"/><polygon class="cls-19" points="99.62 43.88 89.27 37.9 89.47 36.68 99.82 42.66 99.62 43.88"/><polygon class="cls-19" points="90.64 67.78 80.29 61.8 80.5 60.59 90.85 66.56 90.64 67.78"/><polygon class="cls-19" points="94.62 70.08 91.99 68.56 92.19 67.34 94.83 68.86 94.62 70.08"/><polygon class="cls-19" points="91.03 42.05 88.79 40.76 88.99 39.54 91.23 40.83 91.03 42.05"/><polygon class="cls-19" points="94.79 44.22 92.16 42.7 92.36 41.48 94.99 43 94.79 44.22"/><polygon class="cls-19" points="94 46.9 88.31 43.61 88.51 42.39 94.2 45.68 94 46.9"/><polygon class="cls-19" points="97.81 49.09 95.17 47.58 95.38 46.36 98.01 47.88 97.81 49.09"/><polygon class="cls-19" points="101.64 51.31 99 49.78 99.21 48.57 101.84 50.09 101.64 51.31"/><polygon class="cls-19" points="107.81 54.87 102.83 52 103.03 50.78 108.02 53.66 107.81 54.87"/><polygon class="cls-19" points="103.87 58.86 101.24 57.34 101.44 56.12 104.07 57.64 103.87 58.86"/><polygon class="cls-19" points="110.05 62.43 105.06 59.55 105.27 58.33 110.25 61.21 110.05 62.43"/><polygon class="cls-19" points="89.98 50.84 87.35 49.32 87.55 48.1 90.19 49.62 89.98 50.84"/><polygon class="cls-19" points="93.81 53.05 91.18 51.53 91.38 50.31 94.02 51.84 93.81 53.05"/><polygon class="cls-19" points="99.99 56.62 95.01 53.74 95.21 52.52 100.19 55.4 99.99 56.62"/><polygon class="cls-19" points="108.09 58.16 105.45 56.64 105.66 55.42 108.29 56.95 108.09 58.16"/><polygon class="cls-19" points="111.92 60.37 109.28 58.85 109.49 57.63 112.12 59.16 111.92 60.37"/><polygon class="cls-19" points="118.1 63.94 113.11 61.06 113.32 59.85 118.3 62.72 118.1 63.94"/><polygon class="cls-19" points="98.74 72.46 96.11 70.94 96.31 69.72 98.95 71.24 98.74 72.46"/><polygon class="cls-19" points="104.92 76.02 99.94 73.15 100.14 71.93 105.13 74.81 104.92 76.02"/><polygon class="cls-19" points="89.03 56.55 86.39 55.03 86.6 53.81 89.23 55.34 89.03 56.55"/><polygon class="cls-19" points="95.2 60.12 90.22 57.24 90.42 56.02 95.41 58.9 95.2 60.12"/><polygon class="cls-19" points="101.61 77.24 98.98 75.72 99.18 74.51 101.82 76.03 101.61 77.24"/><polygon class="cls-19" points="107.79 80.81 102.81 77.93 103.01 76.72 108 79.59 107.79 80.81"/><polygon class="cls-19" points="107.49 48.42 104.86 46.9 105.06 45.68 107.69 47.2 107.49 48.42"/><polygon class="cls-19" points="103.51 46.12 100.87 44.6 101.08 43.38 103.71 44.91 103.51 46.12"/><polygon class="cls-19" points="113.67 51.99 108.68 49.11 108.89 47.9 113.87 50.77 113.67 51.99"/><polygon class="cls-19" points="90.2 47.84 87.83 46.47 88.03 45.25 90.41 46.62 90.2 47.84"/><polygon class="cls-19" points="97.25 51.91 91.48 48.57 91.68 47.35 97.46 50.69 97.25 51.91"/><polygon class="cls-19" points="104.3 55.98 98.52 52.64 98.73 51.42 104.5 54.76 104.3 55.98"/><polygon class="cls-19" points="117.33 54.1 114.95 52.73 115.16 51.51 117.53 52.89 117.33 54.1"/><polygon class="cls-19" points="124.38 58.17 118.6 54.84 118.8 53.62 124.58 56.95 124.38 58.17"/><polygon class="cls-19" points="131.42 62.24 125.65 58.91 125.85 57.69 131.63 61.02 131.42 62.24"/><polygon class="cls-19" points="92.7 55.54 86.92 52.21 87.13 50.99 92.9 54.32 92.7 55.54"/><polygon class="cls-19" points="95.74 57.3 93.97 56.27 94.17 55.06 95.95 56.08 95.74 57.3"/><polygon class="cls-19" points="98.8 59.06 97.02 58.04 97.22 56.82 99 57.84 98.8 59.06"/><polygon class="cls-19" points="104.44 62.32 100.07 59.8 100.28 58.58 104.64 61.1 104.44 62.32"/><polygon class="cls-19" points="110.76 56.57 108.99 55.55 109.19 54.33 110.96 55.36 110.76 56.57"/><polygon class="cls-19" points="116.4 59.83 112.04 57.31 112.24 56.09 116.61 58.61 116.4 59.83"/><polygon class="cls-19" points="117.59 60.52 113.22 58 113.43 56.78 117.79 59.3 117.59 60.52"/><polygon class="cls-19" points="94.35 76.18 88.66 72.9 88.87 71.68 94.56 74.97 94.35 76.18"/><polygon class="cls-19" points="98.16 78.38 95.53 76.86 95.73 75.64 98.37 77.17 98.16 78.38"/><polygon class="cls-19" points="101.99 80.59 99.36 79.07 99.56 77.86 102.19 79.38 101.99 80.59"/><polygon class="cls-19" points="108.17 84.16 103.19 81.28 103.39 80.06 108.37 82.94 108.17 84.16"/><polygon class="cls-19" points="112.12 86.44 109.49 84.92 109.69 83.7 112.33 85.22 112.12 86.44"/><polygon class="cls-19" points="118.3 90.01 113.32 87.13 113.52 85.92 118.5 88.79 118.3 90.01"/><polygon class="cls-19" points="99.35 85.33 96.71 83.81 96.92 82.59 99.55 84.11 99.35 85.33"/><polygon class="cls-19" points="105.53 88.9 100.54 86.02 100.75 84.8 105.73 87.68 105.53 88.9"/><polygon class="cls-19" points="85.59 77.39 82.95 75.87 83.16 74.65 85.79 76.17 85.59 77.39"/><polygon class="cls-19" points="89.42 79.6 86.78 78.08 86.99 76.86 89.62 78.38 89.42 79.6"/><polygon class="cls-19" points="95.6 83.17 90.61 80.29 90.82 79.07 95.8 81.95 95.6 83.17"/><polygon class="cls-19" points="90.56 77.13 88.18 75.75 88.39 74.54 90.76 75.91 90.56 77.13"/><polygon class="cls-19" points="97.61 81.19 91.83 77.86 92.03 76.64 97.81 79.98 97.61 81.19"/><polygon class="cls-19" points="104.65 85.26 98.88 81.93 99.08 80.71 104.86 84.05 104.65 85.26"/><polygon class="cls-19" points="83.64 79.4 77.87 76.06 78.07 74.84 83.85 78.18 83.64 79.4"/><polygon class="cls-19" points="86.69 81.15 84.92 80.13 85.12 78.91 86.89 79.94 86.69 81.15"/><polygon class="cls-19" points="89.74 82.92 87.97 81.89 88.17 80.67 89.94 81.7 89.74 82.92"/><polygon class="cls-19" points="95.38 86.17 91.02 83.65 91.22 82.44 95.59 84.95 95.38 86.17"/><polygon class="cls-19" points="96.57 86.86 92.2 84.34 92.41 83.12 96.77 85.64 96.57 86.86"/><polygon class="cls-19" points="86.25 68.37 84.47 67.35 84.68 66.13 86.45 67.15 86.25 68.37"/><polygon class="cls-19" points="91.89 71.63 87.52 69.11 87.73 67.89 92.09 70.41 91.89 71.63"/><polygon class="cls-19" points="97.65 74.96 93.29 72.44 93.49 71.22 97.86 73.74 97.65 74.96"/><polygon class="cls-19" points="119.86 94.04 117.23 92.52 117.43 91.31 120.07 92.83 119.86 94.04"/><polygon class="cls-19" points="126.04 97.61 121.06 94.73 121.26 93.52 126.25 96.39 126.04 97.61"/><polygon class="cls-19" points="110.14 88.43 105.77 85.91 105.98 84.69 110.34 87.21 110.14 88.43"/><polygon class="cls-19" points="115.9 91.76 111.54 89.24 111.74 88.02 116.11 90.54 115.9 91.76"/><polygon class="cls-19" points="83.16 56.3 81.39 55.27 81.59 54.06 83.36 55.08 83.16 56.3"/><polygon class="cls-19" points="88.8 59.55 84.44 57.03 84.64 55.82 89.01 58.34 88.8 59.55"/><polygon class="cls-19" points="94.57 62.88 90.2 60.36 90.41 59.15 94.77 61.66 94.57 62.88"/></svg>